/* XPM */
static char *d049232e8e5c44c9842067ea49ad756befc10ZWoHbMXihkV[] = {
/* columns rows colors chars-per-pixel */
"64 64 208 2 ",
"   c #2B2A2F",
".  c #2E2D32",
"X  c #302F34",
"o  c #333236",
"O  c #393638",
"+  c #3E3A3B",
"@  c #423D3E",
"#  c #4F502E",
"$  c #534E3C",
"%  c #4F5531",
"&  c #545533",
"*  c #585537",
"=  c #565834",
"-  c #5A5B35",
";  c #56513E",
":  c #5D5C38",
">  c #635E3D",
",  c #5D673C",
"<  c #5C703F",
"1  c #7D732C",
"2  c #6A6637",
"3  c #716C35",
"4  c #443F40",
"5  c #4E4749",
"6  c #514B4D",
"7  c #5D5543",
"8  c #4D4C54",
"9  c #534F52",
"0  c #555153",
"q  c #595556",
"w  c #535259",
"e  c #59555B",
"r  c #635D41",
"t  c #685F48",
"y  c #5E6F40",
"u  c #5E7241",
"i  c #666141",
"p  c #6B6444",
"a  c #6D6847",
"s  c #6D6249",
"d  c #6E6848",
"f  c #746745",
"g  c #736946",
"h  c #736649",
"j  c #746B4A",
"k  c #7A6D4C",
"l  c #617444",
"z  c #627548",
"x  c #64794B",
"c  c #6C7B4D",
"v  c #73724B",
"b  c #74774C",
"n  c #7D724D",
"m  c #7B6E51",
"M  c #6E7B5C",
"N  c #7C7553",
"B  c #727C53",
"V  c #7E7A56",
"C  c #737D5E",
"Z  c #7F7A59",
"A  c #5D5B63",
"S  c #797F64",
"D  c #82772B",
"F  c #85792C",
"G  c #8A7D2E",
"H  c #837832",
"J  c #8B7E31",
"K  c #82744E",
"L  c #867949",
"P  c #8C7D48",
"I  c #847652",
"U  c #857954",
"Y  c #8B7C55",
"T  c #837659",
"R  c #837D5B",
"E  c #8D7E5A",
"W  c #917F58",
"Q  c #877D65",
"!  c #6B805F",
"~  c #6D8261",
"^  c #728464",
"/  c #7D8265",
"(  c #7D816A",
")  c #7C8969",
"_  c #8E812C",
"`  c #94852E",
"'  c #9A8B2F",
"]  c #958631",
"[  c #9B8B33",
"{  c #978938",
"}  c #9D8D3A",
"|  c #9F9033",
" . c #A28F34",
".. c #A39135",
"X. c #A4933A",
"o. c #A9953B",
"O. c #A9993E",
"+. c #8E8149",
"@. c #908147",
"#. c #93844B",
"$. c #8F8156",
"%. c #84825D",
"&. c #8D825C",
"*. c #938354",
"=. c #9A8A53",
"-. c #93835B",
";. c #97885F",
":. c #9F8F5A",
">. c #9F9458",
",. c #A39442",
"<. c #AB9A43",
"1. c #A89749",
"2. c #A59453",
"3. c #A89655",
"4. c #A39953",
"5. c #A2925B",
"6. c #858362",
"7. c #8A8565",
"8. c #878866",
"9. c #8B8866",
"0. c #84866A",
"q. c #8B8669",
"w. c #868A6D",
"e. c #8C8A6C",
"r. c #958662",
"t. c #978767",
"y. c #968861",
"u. c #9A8B64",
"i. c #928D6D",
"p. c #9D8E6A",
"a. c #9A9265",
"s. c #95916B",
"d. c #9C916E",
"f. c #878971",
"g. c #848D7E",
"h. c #928E71",
"j. c #9C8F70",
"k. c #89907E",
"l. c #969172",
"z. c #9B9474",
"x. c #95957E",
"c. c #9C967A",
"v. c #9E9878",
"b. c #A08F60",
"n. c #A39362",
"m. c #A1916D",
"M. c #A59D6C",
"N. c #A39573",
"B. c #A69A76",
"V. c #A89976",
"C. c #A4977A",
"Z. c #A39B7C",
"A. c #A99B7D",
"S. c #ADA466",
"D. c #A6A36C",
"F. c #ABA26A",
"G. c #B1A666",
"H. c #B2A56C",
"J. c #B6AA6B",
"K. c #A6A272",
"L. c #A6A277",
"P. c #B2A672",
"I. c #B6AA74",
"U. c #869181",
"Y. c #939583",
"T. c #9C9A85",
"R. c #919789",
"E. c #94998B",
"W. c #9B9B8A",
"Q. c #9D9E92",
"!. c #A39C82",
"~. c #AC9E81",
"^. c #A19F89",
"/. c #9EA18C",
"(. c #9EA191",
"). c #A7A084",
"_. c #AEA184",
"`. c #A3A18A",
"'. c #AAA28A",
"]. c #ADA68B",
"[. c #ADA58E",
"{. c #AFA88C",
"}. c #B1A386",
"|. c #B1A388",
" X c #B2AA88",
".X c #A2A395",
"XX c #ADA692",
"oX c #ABA694",
"OX c #AEA994",
"+X c #AEA995",
"@X c #A5A69B",
"#X c #A9A798",
"$X c #A6A89D",
"%X c #AEA89A",
"&X c #ACAA9D",
"*X c #B0A993",
"=X c #B0AA9C",
"-X c #B0AB9C",
";X c #A5A7A1",
":X c #A6A9A4",
">X c #AAAAA3",
",X c #AFACA1",
"<X c #A6AAA9",
"1X c #ADAEA9",
"2X c #B1AEA4",
"3X c #AFB0AB",
"4X c #B0B1AA",
"5X c #B1B2AD",
/* pixels */
"5X1X3X,X,X,X&X%X#X#XXXoXXX~.XX^.T.) ~ ~ ~ ~ T.Z.).v.T.Z.v.!.v.v.v.v.c.z.z.z.z.d.s.z.l.s.w.w.w.0.0.) / / ) ) ^ ^ / ~ ^ C C C M M ",
"1X5X1X,X,X,X&X#X%X%XXXXXXX^.^.[.'.v.) ~ ~ ^ v.Z.L.!.Z.Z.Z.T.v.T.v.v.c.z.z.v.z.z.x.l.l.s.l.l.h.h.h.h.h.s.w.h.e.e.9.9.e.w.e.w.w.w.",
"3X5X3X3X,X,X&X-X%X%XXXXX[.[.|.[.'.).Z.) ~ ^ L.).L.!.L.T.L.v.L.v.v.v.v.c.z.v.z.z.z.l.z.l.l.l.l.h.h.h.h.h.h.w.h.w.e.h.w.w.e.e.f.w.",
"3X3X3X3X2X,X,X-X%X%XXXXXXXXXoX~._.).'.Z.) ^ !.!.!.!.L.Z.Z.!.v.v.Z.v.v.v.v.z.z.z.l.z.l.l.l.l.l.l.h.h.h.h.h.h.e.l.e.e.e.e.e.w.f.w.",
"5X5X3X2X2X2X2X-X-X%X*X%X[.[.[.'.].'.)._.!.w.~.~.~.!.A.Z.Z.v.Z.Z.v.v.v.v.v.v.z.v.l.z.z.l.l.h.x.l.l.h.s.h.l.e.e.w.h.e.h.e.f.f.f.e.",
"5X5X4X2X2X2X-X-X-X*X+X*XXX[.|.'.].).'._.~.~.~.~.~.~.A.~.Z.!.Z.Z.L.Z.L.v.v.v.v.z.v.z.z.z.z.z.h.l.l.a.a.a.a.s.l.e.w.e.w.e.e.e.e.e.",
"5X5X4X2X-X-X-X-X-X+X*X*XXX[.XX].'.'.'._._._.~.~.A.A.~.A.~.!.Z.Z.T.Z.v.v.v.v.v.z.z.l.z.z.l.z.l.l.s.4.4.4.>.s.h.e.h.e.h.w.w.e.e.w.",
"5X5X3X2X2X2X2X-X-X-X*XXX*X[.[.].]._.'.'._.~._.~.~.~.A.A.Z.A.A.A.A.A.v.v.v.v.v.v.c.c.z.z.z.l.l.l.l.4.4.4.s.h.h.e.h.h.e.e.e.f.w.e.",
"<X1X>X>X,X2X2X-X-X*X*X*X*X[.*X_.].]._._.}.~.~.A.~.~.~.A.~.A.A.A.Z.A.C.C.C.c.v.v.v.v.z.z.z.l.l.z.s.4.>.s.h.h.h.h.e.h.e.e.e.w.e.w.",
"<X>X>X>X>X&X-X-X-X*X*X*X*X[.].[._.'.]._.}.~.}.~.A.~.A.~.A.A.A.A.C.A.C.C.C.C.v.z.z.z.z.z.z.l.z.l.s.4.s.h.h.h.h.h.e.h.h.w.h.w.w.e.",
"<X>X>X>X,X&X-X-X-X-X*X*X*X*X].].].|.|.}.~._.~.~.~.~.~.C.A.A.C.C.C.C.C.C.C.C.z.c.z.v.z.z.z.l.z.l.z.s.h.l.h.h.h.h.h.e.h.h.e.e.e.w.",
"<X1X:X:X,X&X+X-X-X*X*X*X].*X].].'.[.~.|.}.~.~.~.A.~.~.A.~.C.A.i.6.C.A.C.C.B.v.c.z.z.z.z.z.z.l.s.z.l.l.l.h.l.h.h.h.e.e.e.e.e.w.e.",
":X:X:X>X&X&X&X-X-X*XXX X*X[.]._.~.|.~.~.~.~.~.~.~.A.~.C.A.C.i.7.9.C.C.C.C.C.v.c.v.z.z.z.l.l.z.l.s.l.l.s.l.h.h.e.h.e.e.e.h.e.e.8.",
":X:X>X$X&X&X&X-X*X*X*X*X*X X].].|.|.|.|.}.~.~.~.~.~.C.~.A.i.7.6.9.C.C.C.C.C.v.v.z.z.z.z.z.z.l.l.s.z.l.e.i.i.i.h.h.e.e.e.e.e.e.w.",
":X:X$X$X&X&X-X-X*X*X X+X*X].].].|.}.~.}.~.~.~.~.~.~.~.C.s.6.7.6.q.C.C.C.C.C.z.z.v.z.z.z.s.l.s.l.z.h.s.h.h.i.e.i.i.i.i.e.e.q.e.e.",
";X:X$X$X&X+X+X-X+X*X*X*X].].]. X|.}.}.}.~.}.~.~.~.~.C.p.6.6.6.6.i.N.C.C.N.C.N.z.v.z.z.z.z.l.l.h.i.s.i.h.i.h.i.h.h.Q e.e.e.q.e.9.",
":X$X$X@X#X%X+X+XOX{.*X{.].]._. X X~.}.~.~.~.~.~.A.A.s.7.6.6.6.%.e.N.N.C.N.C.C.j.d.z.z.z.i.z.z.h.i.i.i.s.i.e.s.i.9.e.i.e.e.q.e.q.",
";X$X@X@X#X#X+X+X+X{.{.{.{.]._.}.}._.}.~.}.~.~.A.A.t.9.6.9.6.Q 6.e.C.C.C.N.N.N.N.z.z.l.z.z.i.i.s.i.h.i.j.i.i.e.i.9.i.9.e.q.q.q.q.",
";X@X@X@X#X+X+XXX{.*X*X].{._._.}.}.}.}.~.}.~.~.A.i.9.7.6.6.%.6.R i.N.C.N.N.z.N.z.d.p.z.i.i.j.l.h.i.i.i.i.i.i.i.e.e.9.i.9.q.9.q.q.",
"@X@X@X@X@XXX+XXX*X*X].[.{. X X}.}.~.~.}.~.A.A.i.9.q.7.7.Q 6.%.6.9.N.C.N.N.N.m.z.m.z.s.z.i.l.i.i.i.i.i.i.e.t.i.e.i.9.9.9.9.q.q.q.",
"$X(.@X@X#XoXoX[.*X X[.{. X|.}.}.}.}.~.~.~.A.s.9.q.7.7.7.t.Q Q Q 9.N.N.N.N.N.z.N.d.m.i.s.l.i.s.h.i.i.i.i.i.e.e.t.e.q.q.9.q.q.q.6.",
";X@X(.(.W.W.OXOX*X XI.XX|.}.}.~.~.}.~.~.A.t.B.C.N.N.N.j.j.m.N.W d.N.N.N.N.z.m.p.p.z.p.a.i.s.i.i.i.i.t.i.e.t.e.t.t.9.9.9.9.6.6.Q ",
"@X(.(./.k.W.].].{.I.I.|.}.}.}.}.}.~.~.A.i.7.V.A.V.V.V.V.C.C.N.N.B.N.N.z.d.p.d.d.s.u.2.,.:.i.i.s.i.e.i.i.9.t.q.q.9.9.9.6.7.7.6.Z ",
"$X(.R.g.g.W.[.].I.J.I.}.}.|.}.~.~.~.A.i.9.7.V.V.C.V.V.V.N.V.V.N.N.m.N.d.N.d.p.p.p.2.o.,.,.;.t.e.i.t.9.q.9.9.9.9.7.7.6.6.6.6.6.Z ",
"(.E.U.g.g.Y.!.P.J.J.P.}.}.}.}.~.~.A.i.9.9.9.B.C.V.V.N.N.N.N.N.m.m.m.m.m.m.p.p.u.,.,.X.,.X.,.y.t.q.q.t.9.7.9.9.9.7.7.7.%.Q 7.R Z ",
"E.U.g.g.g.x.F.H.H.J.P.}.}.}.~.~.A.i.9.9.9.R N.B.V.V.N.N.N.N.m.m.m.m.p.p.p.u.u.1.,.X.X.} X.} } ;.r.r.7.r.7.9.Q E %.Q 7.%.R R R Z ",
"E.R.R.R.x.M.F.S.G.G.P.}.}.~._.A.i.9.9.7.7.Q N.V.V.N.N.V.m.N.m.m.p.m.p.p.p.p.,.X.X.X.X.X.} } } } -.r.Q 7.7.Q %.7.7.Q 7.Q R Q Z Z ",
"(.(.(./.D.F.S.S.G.H.H.~.}.L.A.i.9.9.9.9.7.r.N.V.N.N.V.m.m.m.m.m.p.p.p.p.b.,.X.X.X.X.} X.X.} | | { &.r.E 7.%.7.Q R R R R Z R Z V ",
"(.(.`.K.F.F.S.G.G.G.P.}.~.A.i.e.e.9.9.9.6.6.N.N.N.N.N.m.m.m.m.n.p.p.p.a.,.X.X.X.X.} | } }  .[ [ [ { &.%.7.R Q %.6.R R R R Z Z N ",
"(./.K.D.F.S.S.S.G.G.H.L.A.i.i.9.9.9.7.7.6.7.N.N.N.m.N.m.m.m.p.p.p.p.n.,.X.X.X...X.[ } | [ [ [ [ [ [ { *.&.E %.R R R R Z Z R Z N ",
"/.L.D.K.S.D.S.S.G.G.H.A.i.9.9.9.7.9.6.6.Q 7.m.N.N.m.m.m.m.m.p.p.p.:.X.X.X.....| X.}  .[ [ [ ] [ ] [ ] { $.R R R R R R R Z Z Z m ",
"L.L.L.L.L.B.D.K.F.F.B.s.e.e.e.9.7.7.6.6.%.9.m.N.m.m.m.m.m.m.p.p.5.X.X.X.X.X.| |  .} [ } [ [ [ [ [ ] ] ] ] Y E U U T V T V N N v ",
"Q.$X$X@X#X#X$X#X$XL.e.e.e.9.9.8.9.6.7.%.%.7.m.m.m.m.m.m.p.p.p.2.,.o.o. ..... . .} [ [ [ [ [ ' ' J  .J  .` G P Y T T T V V N N v ",
"(.#X#X+XOXoX#XOX/.8.8.e.e.9.9.8.9.6.6.%.%.7.m.m.m.m.p.p.m.b.5.o.o.o.o..... ...[  .[ [ [  .J  .J ' J ' J ` ` ] Y T Y V V N N n j ",
"(.@X@XOXOXOX{.T.9.8.e.e.9.9.e.;.6.7.%.%.%.&.m.m.m.m.m.p.p.5.o.o...........| ' .. .[ '  .' J  .' J  .J ' ' G G G L I N N N N b j ",
"(.;X@X#X#XOXT.0.8.e.e.9.9.9.9.%.9.%.%.%.%.%.m.m.m.m.p.b.5.o.o...o..... .....' [  . .J  .[ ' J ' ' J ' G ` G ` G J U N N N N v j ",
"Q.@X@X@X#XT.0.0.w.8.8.9.8.8.8.9.%.%.%.%.%.%.m.m.p.p.p.2.o.o.o.o.......| | | ' [ '  .J J ] ' ' ` J ' ' G ' G ' G G J n n v v v j ",
"(.@X.X#XT.0.( 0.0.8.%.8.%.8.%.%.%.&.%.%.U R m.m.p.m.3.o.o.o.o.........| | ' | [ [ [  .' ' ` ` `  .G G ' G G G G G G J K N k v j ",
"W.(..XW.) S ) 6.8.8.8.9.s.8.%.%.%.%.%.%.T R p.m.p.2.o.o.o.....o.o. . .| ' |  .[ [ [ ' ' ] ' ' ` G G G G ' G G G G F F H v m j s ",
"`.(.W.( ( / / ) 6.8.8.8.%.9.%.%.%.%.V / Y Y p.p.1.<.o.o.o.o...o.......| | [ [ ' [ [ ] ' ` ` ` ` G  .' G G G G G G F F D H v d a ",
"`.Y.f.S S S 0.S 6.8.6.6.6.%.&.%.%.%.%.V %./ :.4.<.o.o.o.o.o..... . . . .' [  .' ' ' ] ' ` ` ` ` ` ` ` _ G G G G G F F D 1 1 g p ",
"R.( S S S S S 0.6.6.6.6.6.%.%.*.+./ V %.V L 1.O.<.o.o.o.X.o.o..... . . . . .] ' ] [ ' ` ' ` ` ` G ` G G J G G G F F D 1 1 1 1 2 ",
"f.f.0.0.Q 0.q.f.e.9.9.B ! ! ! ~ c c c c c n 5.n.:.:.:.:.=.=.=.=.=.=.#.=.=.*.#.*.@.#.P P #.@.+.P P P P L L H 3 3 3 3 3 3 3 2 2 , ",
"x.c.l.x.x.j.z.z.N.N.N.9.! < 3 < u u l l u b u.p.u.p.u.u.t.u.u.-.-.-.-.-.E W -.W W E W W R U Y U I I U T I k p : , : - - & = & & ",
"A.m.V.N.N.N.N.N.C.N.N.N.8.x x z x u u u u c u.u.p.u.t.u.t.y.y.y.-.-.-.-.-.E E E E E R E Y U U Y U I U K N K k p - - = : & = = & ",
"C.V.m.m.z.N.N.N.N.N.N.N.m.;.x l z z u u u v u.u.u.u.u.t.u.r.r.-.-.-.W &.-.E E E E E Y Y Y U U U Y I U U I K I k 2 , - = = = = % ",
"N.N.m.V.m.N.m.N.m.N.N.V.M.m.i.z z < u u u v t.p.u.t.t.u.-.r.y.;.-.r.E -.E E E E Y Y E I U U Y U U I K K I N N k k 2 = - = = & % ",
"V.N.N.m.N.m.V.m.N.N.N.m.N.m.a.y.z u u u y v u.u.u.t.r.;.u.-.-.-.-.-.-.W E E W W E Y Y Y U U U U I U U K n k f g f p : = = % % % ",
"N.N.N.m.N.m.N.V.m.N.N.N.m.m.m.p.r.l < l < v u.;.y.y.y.y.y.;.-.-.W W W W W Y W Y E Y I I I Y Y I I I L N n k 2 : - - & > & & # * ",
"A.m.N.M.m.m.m.m.m.N.N.m.m.m.m.m.a.-.< < < v u.u.y.y.-.;.y.-.-.-.W W W W W W Y Y Y E Y Y I I I I I U N I K n h > - = & p * # & # ",
"C.m.m.N.j.N.m.m.m.p.m.N.m.m.m.p.p.u.-.l , v ;.-.;.;.y.r.-.-.r.W W W W Y W Y Y Y E T Y Y Y I I I K I L n K k n f > & & p 2 * # & ",
"h.m.m.p.m.m.p.m.p.m.m.m.m.m.p.m.p.p.p.-.< v ;.;.;.u.-.-.r.E -.r.W t.W W W Y Y Y W I Y I Y I I I I K n n k n j j p > & 2 p > * # ",
"i.m.p.m.p.m.p.p.m.m.m.V.m.m.n.m.p.u.u.u.-.K u.t.-.;.-.r.-.-.W -.-.W W W W Y Y W Y Y Y I I I I K n n n k k k j g f p * p t i > : ",
"j.p.p.m.p.m.m.m.p.m.n.<.<.<.<.5.p.u.u.u.y.;.;.b.u.-.;.-.-.-.*.-.W W W E Y Y Y I I I I I I I I K K n n k k k v g g a a p p p p r ",
"N.j.m.p.p.p.p.p.m.p.n.<.<.<.5.p.u.p.u.;.;.u.;.W -.-.-.-.-.*.W W W W E Y Y Y W I I I W I I K K f n K n n k k j j a a p p 2 p > p ",
"N.z.m.m.p.p.m.p.p.m.n.<.<.3.p.u.u.b.;.u.;.;.u.t.-.;.-.-.-.W -.W *.W Y Y Y W I Y W I I I K K K K n n k k g g g j p a p p t r p > ",
"C.m.m.p.p.p.p.p.p.p.n.<.3.p.p.u.p.p.W u.W u.;.W -.-.-.-.-.-.W *.Y Y Y Y E U U Y Y I I L I I K K n k k k k j s a s p p i i > r i ",
"N.N.j.m.p.p.m.p.t.p.b.3.u.u.p.u.m.W p.u.;.;.u.W -.-.-.*.W W *.E *.Y Y Y P Y Y U I I I K K K K K k k k k h h d a p p i p i i i r ",
"N.j.j.j.m.p.p.m.t.p.p.p.p.u.u.u.W m.W p.u.u.W u.-.;.-.-.*.E W E Y Y Y Y Y P Y I I I I K K K K h k k j f j h a p t t r i r r r : ",
"C.j.j.t.p.t.p.t.t.p.t.u.u.t.p.u.m.W p.W W ;.;.W ;.W W W -.E W E Y $.Y P Y I Y I I I K I K K K K f k j h h h p p p 2 i r r r r r ",
"j.Q Q Q Q Q Q Q Q Q t.Q Q W Q E E T T T T T T T I I K K m m m m k m m h f f f h h t s t s t t t r r r 7 7 ; 7 $ ; ; $ $ $ $ $ $ ",
"A A A A w w w 8 e q q q q q q q 0 0 0 0 6 0 4 6 5 5 4 4 5 5 4 4 4 4 4 4 @ @ @ 4 + + 4 + + O O O O o o X X X . . . . .           ",
"A A A e 8 w 0 0 e A q 0 0 0 0 9 6 6 6 6 4 6 4 6 6 4 8 4 4 4 4 4 4 4 4 4 + + + @ + + + + + O O O o o o X X . . . . . .           ",
"A A A w 8 8 8 0 q 0 0 0 0 9 9 6 6 6 6 q 4 6 6 6 6 6 5 5 5 4 5 4 5 4 4 4 4 @ @ @ 4 + + + + + + O O O o o o o o o . o . o o . .   "
};
