/* XPM */
static char *result[] = {
/* columns rows colors chars-per-pixel */
"200 50 61 1 ",
"  c #16E500",
". c #1CE500",
"X c #23E500",
"o c #2DE500",
"O c #35E500",
"+ c #39E500",
"@ c #45E500",
"# c #4EE500",
"$ c #53E500",
"% c #59E600",
"& c #FFF155",
"* c #FFF15A",
"= c #FFF164",
"- c #FFF169",
"; c #FFF174",
": c #FFF179",
"> c #5EF2FF",
", c #66F1FF",
"< c #6FF2FF",
"1 c #72F1FF",
"2 c #79F1FF",
"3 c #FFF183",
"4 c #FFF189",
"5 c #FFF194",
"6 c #FFF19C",
"7 c #FFF1A2",
"8 c #FBF1AB",
"9 c #FBF1B3",
"0 c #FCF1BC",
"q c #80F2FF",
"w c #8EF1FF",
"e c #94F1FF",
"r c #9DF1FF",
"t c #ABF1F6",
"y c #A1F1FF",
"u c #AAF1FC",
"i c #B3F1F3",
"p c #B9F1F1",
"a c #B0F1FF",
"s c #BFF0FF",
"d c #FBF1C3",
"f c #FAF1CC",
"g c #FAF1D3",
"h c #F9F1DB",
"j c #C2F1F2",
"k c #CBF1F4",
"l c #C7F1FF",
"z c #CCF1FF",
"x c #D4F1F2",
"c c #DAF1F2",
"v c #DAF1FF",
"b c #FCF1E3",
"n c #F6F1EC",
"m c #F9F1EC",
"M c #E3F1F3",
"N c #EBF1F1",
"B c #E2F1FE",
"V c #EAF2FA",
"C c #F2F1F2",
"Z c #F8F1F1",
"A c None",
/* pixels */
"AAAAAAAAAAAAAAAAAAAAAAAAAAAAAAAAAAAAAAAAAAAAAAAAAAAAAAAAAAAAAAAAAAAAAAAAAAAAAAAAAAAAAAAAAAAAAAAAAAAAAAAAAAAAAAAAAAAAAAAAAAAAAAAAAAAAAAAAAAAAAAAAAAAAAAAAAAAAAAAAAAAAAAAAAAAAAAAAAAAAAAAAAAAAAAAAAAAAAAAA",
"AAAAAAAAAAAAAAAAAAAAAAAAAAAAAAAAAAAAAAAAAAAAAAAAAAAAAAAAAAAAAAAAAAAAAAAAAAAAAAAAAAAAAAAAAAAAAAAAAAAAAAAAAAAAAAAAAAAAAAAAAAAAAAAAAAAAAAAAAAAAAAAAAAAAAAAAAAAAAAAAAAAAAAAAAAAAAAAAAAAAAAAAAAAAAAAAAAAAAAAA",
"AAAAAAAAAAAAAAAAAAAAAAAAAAAAAAAAAAAAAAAAAAAAAAAAAAAAAAAAAAAAAAAAAAAAAAAAAAAAAAAAAAAAAAAAAAAAAAAAAAAAAAAAAAAAAAAAAAAAAAAAAAAAAAAAAAAAAAAAAAAAAAAAAAAAAAAAAAAAAAAAAAAAAAAAAAAAAAAAAAAAAAAAAAAAAAAAAAAAAAAA",
"AAAAAAAAAAAAAAAAAAAAAAAAAAAAAAAAAAAAAAAAAAAAAAAAAAAAAAAAAAAAAAAAAAAAAAAAAAAAAAAAAAAAAAAAAAAAAAAAAAAAAAAAAAAAAAAAAAAAAAAAAAAAAAAAAAAAAAAAAAAAAAAAAAAAAAAAAAAAAAAAAAAAAAAAAAAAAAAAAAAAAAAAAAAAAAAAAAAAAAAA",
"AAAAAAAAAAAAAAAAAAAAAAAAAAAAAAAAAAAAAAAAAAAAAAAAAAAAAAAAAAAAAAAAAAAAAAAAAAAAAAAAAAAAAAAAAAAAAAAAAAAAAAAAAAAAAAAAAAAAAAAAAAAAAAAAAAAAAAAAAAAAAAAAAAAAAAAAAAAAAAAAAAAAAAAAAAAAAAAAAAAAAAAAAAAAAAAAAAAAAAAA",
"AAAAAAAAAAAAAAAAAAAAAAAAAAAAAAAAAAAAAAAAAAAAAAAAAAAAAAAAAAAAAAAAAAAAAAAAAAAAAAAAAAAAAAAAAAAAAAAAAAAAAAAAAAAAAAAAAAAAAAAAAAAAAAAAAAAAAAAAAAAAAAAAAAAAAAAAAAAAAAAAAAAAAAAAAAAAAAAAAAAAAAAAAAAAAAAAAAAAAAAA",
"AAAAAAAAAAAAAAAAAAAAAAAAAAAAAAAAAAAAAAAAAAAAAAAAAAAAAAAAAAAAAAAAAAAAAAAAAAAAAAAAAAAAAAAAAAAAAAAAAAAAAAAAAAAAAAAAAAAAAAAAAAAAAAAAAAAAAAAAAAAAAAAAAAAAAAAAAAAAAAAAAAAAAAAAAAAAAAAAAAAAAAAAAAAAAAAAAAAAAAAA",
"AAAAAAAAAAAAAAAAAAAAAAAAAAAAAAAAAAAAAAAAAAAAAAAAAAAAAAAAAAAAAAAAAAAAAAAAAAAAAAAAAAAAAAAAAAAAAAAAAAAAAAAAAAAAAAAAAAAAAAAAAAAAAAAAAAAAAAAAAAAAAAAAAAAAAAAAAAAAAAAAAAAAAAAAAAAAAAAAAAAAAAAAAAAAAAAAAAAAAAAA",
"AAAAAAAAAAAAAAAAAAAAAAAAAAAAAAAAAAAAAAAAAAAAAAAAAAAAAAAAAAAAAAAAAAAAAAAAAAAAAAAAAAAAAAAAAAAAAAAAAAAAAAAAAAAAAAAAAAAAAAAAAAAAAAAAAAAAAAAAAAAAAAAAAAAAAAAAAAAAAAAAAAAAAAAAAAAAAAAAAAAAAAAAAAAAAAAAAAAAAAAA",
"AAAAAAAAAAAAAAAAAAAAAAAAAAAAAAAAAAAAAAAAAAAAAAAAAAAAAAAAAAAAAAAAAAAAAAAAAAAAAAAAAAAAAAAAAAAAAAAAAAAAAAAAAAAAAAAAAAAAAAAAAAAAAAAAAAAAAAAAAAAAAAAAAAAAAAAAAAAAAAAAAAAAAAAAAAAAAAAAAAAAAAAAAAAAAAAAAAAAAAAA",
"AAAAAAAAAAAAAAAAAAAAAAAAAAAAAAAAAAAAAAAAAAAAAAAAAAAAAAAAAAAAAAAAAAAAAAAAAAAAAAAAAAAAAAAAAAAAAAAAAAAAAAAAAAAAAAAAAAAAAAAAAAAAAAAAAAAAAAAAAAAAAAAAAAAAAAAAAAAAAAAAAAAAAAAAAAAAAAAAAAAAAAAAAAAAAAAAAAAAAAAA",
"AAAAAAAAAAAAAAAAAAAAAAAAAAAAAAAAAAAAAAAAAAAAAAAAAAAAAAAAAAAAAAAAAAAAAAAAAAAAAAAAAAAAAAAAAAAAAAAAAAAAAAAAAAAAAAAAAAAAAAAAAAAAAAAAAAAAAAAAAAAAAAAAAAAAAAAAAAAAAAAAAAAAAAAAAAAAAAAAAAAAAAAAAAAAAAAAAAAAAAAA",
"AAAAAAAAAAAAAAAAAAAAAAAAAAAAAAAAAAAAAAAAAAAAAAAAAAAAAAAAAAAAAAAAAAAAAAAAAAAAAAAAAAAAAAAAAAAAAAAAAAAAAAAAAAAAAAAAAAAAAAAAAAAAAAAAAAAAAAAAAAAAAAAAAAAAAAAAAAAAAAAAAAAAAAAAAAAAAAAAAAAAAAAAAAAAAAAAAAAAAAAA",
"AAAAAAAAAAAAAAAAAAAAAAAAAAAAAAAAAAAAAAAAAAAAAAAAAAAAAAAAAAAAAAAAAAAAAAAAAAAAAAAAAAAAAAAAAAAAAAAAAAAAAAAAAAAAAAAAAAAAAAAAAAAAAAAAAAAAAAAAAAAAAAAAAAAAAAAAAAAAAAAAAAAAAAAAAAAAAAAAAAAAAAAAAAAAAAAAAAAAAAAA",
"AAAAAAAAAAAAAAAAAAAAAAAAAAAAAAAAAAAAAAAAAAAAAAAAAAAAAAAAAAAAAAAAAAAAAAAAAAAAAAAAAAAAAAAAAAAAAAAAAAAAAAAAAAAAAAAAAAAAAAAAAAAAAAAAAAAAAAAAAAAAAAAAAAAAAAAAAAAAAAAAAAAAAAAAAAAAAAAAAAAAAAAAAAAAAAAAAAAAAAAA",
"AAAAAAAAAAAAAAAAAAAAAAAAAAAAAAAAAAAAAAAAAAAAAAAAAAAAAAAAAAAAAAAAAAAAAAAAAAAAAAAAAAAAAAAAAAAAAAAAAAAAAAAAAAAAAAAAAAAAAAAAAAAAAAAAAAAAAAAAAAAAAAAAAAAAAAAAAAAAAAAAAAAAAAAAAAAAAAAAAAAAAAAAAAAAAAAAAAAAAAAA",
"AAAAAAAAAAAAAAAAAAAAAAAAAAAAAAAAAAAAAAAAAAAAAAAAAAAAAAAAAAAAAAAAAAAAAAAAAAAAAAAAAAAAAAAAAAAAAAAAAAAAAAAAAAAAAAAAAAAAAAAAAAAAAAAAAAAAAAAAAAAAAAAAAAAAAAAAAAAAAAAAAAAAAAAAAAAAAAAAAAAAAAAAAAAAAAAAAAAAAAAA",
"AAAAAAAAAAAAAAAAAAAAAAAAAAAAAAAAAAAAAAAAAAAAAAAAAAAAAAAAAAAAAAAAAAAAAAAAAAAAAAAAAAAAAAAAAAAAAAAAAAAAAAAAAAAAAAAAAAAAAAAAAAAAAAAAAAAAAAAAAAAAAAAAAAAAAAAAAAAAAAAAAAAAAAAAAAAAAAAAAAAAAAAAAAAAAAAAAAAAAAAA",
"AAAAAAAAAAAAAAAAAAAAAAAAAAAAAAAAAAAAAAAAAAAAAAAAAAAAAAAAAAAAAAAAAAAAAAAAAAAAAAAAAAAAAAAAAAAAAAAAAAAAAAAAAAAAAAAAAAAAAAAAAAAAAAAAAAAAAAAAAAAAAAAAAAAAAAAAAAAAAAAAAAAAAAAAAAAAAAAAAAAAAAAAAAAAAAAAAAAAAAAA",
"AAAAAAAAAAAAAApZZ8AAAAAAAAAAAAAAAAAAAAAAAAAAAAAAAAAAAAAAAAcZZ5AAAAAAAAAAAAAAAAAAAAAAAAAAAAAAAAAAAAAAAAAAAAAAAAAAAAAAAAAAAAAAAAAAAAAAAAAAAAAAAAAAAAAAAAAAAAAAAAAAAAAAAAAAAAAAAAAAAAAAAAAAAAAAAAAAAAAAAAAA",
"AAAAAAAAAAAAAANZZ5AAAAAAAAAAAAAAAAAAAAAAAAAAAAAAAAAAcZZ4AAZZZ:AAAAAAAAAAAAAAAAAAAAAAAAAAAAAAAAAAAAAAAAAAAAAAAAAAAAAAAAAAAAAAAAAAAAAAAAAAAAAAAAAAAAAAAAAAAAAAAAAAAAAAAAAAAAAAAAAAAAAAAAAAAAAAAAAAAAAAAAAA",
"AAAAAAAAAAAAAAZZZ;AAAAAAAAAAAAAAAAAAAAAAAAAAAAAAAAAAZZZ=AAAAAAAAAAAAAAAAAAAAAAAAAAAAAAAAAAAAAAAAAAAAAAAAAAAAAAAA++@A++@AAAAAAAAAAAAAAAA++#AAAAAAAAAAAAAAAAAAAAAO@AAAAAAAAAAAAAAAAAAA++@AAAAAAAAAAAAAAAAA",
"AAAAAAAAAAAAAqZZZAAAAAAlVZbdAAAAAlVnb9AAAAAzVZmfAAAZZZZnAeZZbAAAlVZbdAAAeZZgAzNgAAAAAAAAAAAAAAAAAAAAAAAAAAAAAAAA++@A++@AAAAAAAAAAAAAAAA++#AAAAAAAAAAAAAAAAAAAAo@AAAAAAAAAAAAAAAAAAAA++@AAAAAAAAAAAAAAAAA",
"AAAAAAAAAAAAArZZhAAAAAcZZZZZdAAAMZZZZZ6AAANZZZmZ0A2ZZZZhAtZZ9AAcZZZZZ0AAtZZmZZZZ5AAAAAAAAAAAAAAAAAAAAAAAAAAAAAAA++@A++@AAAAAAAAAAAAAAAA++@AAAAAAAAAAAAAAAAAAAAAAAAAAAAAAAAAAAAAAAAAAAAAAAAAAAAAAAAAAAAAA",
"AAAAAAAAAAAAApZZ8AAAAuZZ4ACZZAAjZZ4ACZgAAxZnA1ZZmAAtZZ7AAcZZ5AaZZ4ACZZAAcZZ6AkZZ5AAAAAAAAAAAAAAAoO++@AAAAOO++AAA++@A++@AAOO++AAAAAAoO@o++@AAO+++AAAAAA++$X%AAoO++AAA++$A++@A++@oO+AA++@AAo+++AAA++#oO+AA",
"AAAAAAAAAAAAANZZ5AAAAZZZAAZZZAAZZZAAZZhA>ZZdA1ZZhAAcZZ4AAZZZ:AZZZAAZZZAAZZZ=ANZZ:AAAAAZZ-AAAAAAA+++++@AAO+O+++AA++@A++@Ao+++++AAAAA++O+++#AOO++++AAAAA++++%Ao+++++AA++$A++@A++++++$A++@Ao+++++AA++++O+#A",
"AAAAAAAAAAAAAZZZ;AAAqZZhA1ZZmAqZZhA1ZZ9AwZZ6AuZZ0AAZZZ=A1ZZZAqZZhA1ZZmA1ZZmAAZZZ*AAAA<ZZAAAAAAA.++AX++A ++A.++AA++@A++@A++$ ++%AAA ++$A++#A++# ++%AAAA++++%A++% ++%A++$A++@A+O@A++@A++@A++$ ++$A++@A++@A",
"AAAAAAAAAAAAqZZZAAAArZm8AeZZdAyZZ8AAAAAAAAAlvZZZ6A1ZZmAAwZZbArZZ8AeZndAeZZfA1ZZnAAAAAeZgAAAAAAA ++$AAAA ++A.++%A++@A++@X++++++$AAA ++$A++#.++++++#AAAA+++AA ++O+++$A++%A++#A++$A++@A++@X++%A++$A++$A++@A",
"AAAAAAAAAAAArZZhAAAAjZZ5AiZZ6AjZZ5AAAAAAAlCZZZZZ3AeZZfAAtZZ9AjZZ5AiZZ6AtZZ7AeZZ0AAAAAAAAAAAAAAAAo++@AAAAAAo+++%A++@A++@X++++++$AAA ++%A++@.++++++#AAAA++#AA ++++++$A++$A++@A++$A++@A++@X++%A++$A++#A++@A",
"AAAAAAAAAAAApZZ8AAAACZZ;AcZZ3ANZZ;AtZZ&AkZZ6AZZZ*AtZZ7AAcZZ5ACZZ;AcZZ3AcZZ3ApZZ6AAAAAAAAAAAAAAAAAAO++@AAO++++@%A++@A++@X++%AAAAAAA ++%A++#.++%AAAAAAAA++#AA ++%AAAAA++$A++@A++#AO+@A++@X++%A++$A++#A++@A",
"AAAAAAAAAAAANZZ5AAAAZZZAAZZZ&AZZCAAcZbA>ZZgA1ZZnAAcZZ4AAZZZ:AZZZAAZZZ&AZZZ=AMZZ3AAAAAAAAAAAAAAAAAAAX++A ++A.++%A++@A++@X+O%A++#AAA ++$A++#.++%AO+#AAAA++#AA ++%A++#A++$A++@A++$A++@AO+@X++%A++$A++#A++@A",
"AAAAAAAAAAAAZnZ;AAA2ZZhA1ZZhA1ZZhAAZZ7AwZZ6AeZZ0AAZZZ=A1ZZZA2ZZhA1ZZhA1ZZnAAZZZ&AAAAAAAAAAAAAAA ++AX++A ++A.++%A++@A++@A++$A++$AAA ++$A++#A++#A++%AAAA++#AAA++#A++$A++#A++@A++$A++@A++@A++# ++%A++#A+O@A",
"AAAAAAAAAAAqZZZZZ6AqZZfAuZZ5A1ZZgAeZm*AyZZ6AjZZ6A,ZZZAAeZZbA2ZZdAuZZ5AeZZfA2ZZmAAAAAeZgAAAAAAAAA++++++AA++++++%A++@A++@Ao+++++AAAAA+++O++@AoO++++AAAAA++#AAAo+++++AAO++O++@A++#AO+@A++@AoO++++AA++#A++@A",
"AAAAAAAAAAArZZZZZ3AACZZZZZdAAANZZZZZ4AAyZZZZCZZ3A1ZZZZAtZZ9AAZZZZZZdAAtZZ6AeZZ0AAAAAtZ7AAAAAAAAAAO+++AAAo+@o++%A++@A++@AAOO++AAAAAAoO@o++#AAO+++AAAAAA++#AAAAOO++AAAXO@O++@A++#A++@A++@AAO++@AAA++#A++@A",
"AAAAAAAAAAApZZZZZ*AAABNmh9AAAAAvCmgAAAAAvm9ANZZ&AAzCZgAcZZ5AAAvCmh9AAAcZZ3AiZZ6AAAAAcZ4AAAAAAAAAAAAAAAAAAAAAAAAAAAAAAAAAAAAAAAAAAAAAAAAAAAAAAAAAAAAAAAAAAAAAAAAAAAAAAAAAAAAAAAAAAAAAAAAAAAAAAAAAAAAAAAAA",
"AAAAAAAAAAAAAAAAAAAAAAAAAAAAAAAAAAAAAAAAAAAAAAAAAAAAAAAAAAAAAAAAAAAAAAAAAAAAAAAAAAAAAAAAAAAAAAAAAAAAAAAAAAAAAAAAAAAAAAAAAAAAAAAAAAAAAAAAAAAAAAAAAAAAAAAAAAAAAAAAAAAAAAAAAAAAAAAAAAAAAAAAAAAAAAAAAAAAAAAA",
"AAAAAAAAAAAAAAAAAAAAAAAAAAAAAAAAAAAAAAAAAAAAAAAAAAAAAAAAAAAAAAAAAAAAAAAAAAAAAAAAAAAAAAAAAAAAAAAAAAAAAAAAAAAAAAAAAAAAAAAAAAAAAAAAAAAAAAAAAAAAAAAAAAAAAAAAAAAAAAAAAAAAAAAAAAAAAAAAAAAAAAAAAAAAAAAAAAAAAAAA",
"AAAAAAAAAAAAAAAAAAAAAAAAAAAAAAAAAAAAAAAAAAAAAAAAAAAAAAAAAAAAAAAAAAAAAAAAAAAAAAAAAAAAAAAAAAAAAAAAAAAAAAAAAAAAAAAAAAAAAAAAAAAAAAAAAAAAAAAAAAAAAAAAAAAAAAAAAAAAAAAAAAAAAAAAAAAAAAAAAAAAAAAAAAAAAAAAAAAAAAAA",
"AAAAAAAAAAAAAAAAAAAAAAAAAAAAAAAAAAAAAAAAAAAAAAAAAAAAAAAAAAAAAAAAAAAAAAAAAAAAAAAAAAAAAAAAAAAAAAAAAAAAAAAAAAAAAAAAAAAAAAAAAAAAAAAAAAAAAAAAAAAAAAAAAAAAAAAAAAAAAAAAAAAAAAAAAAAAAAAAAAAAAAAAAAAAAAAAAAAAAAAA",
"AAAAAAAAAAAAAAAAAAAAAAAAAAAAAAAAAAAAAAAAAAAAAAAAAAAAAAAAAAAAAAAAAAAAAAAAAAAAAAAAAAAAAAAAAAAAAAAAAAAAAAAAAAAAAAAAAAAAAAAAAAAAAAAAAAAAAAAAAAAAAAAAAAAAAAAAAAAAAAAAAAAAAAAAAAAAAAAAAAAAAAAAAAAAAAAAAAAAAAAA",
"AAAAAAAAAAAAAAAAAAAAAAAAAAAAAAAAAAAAAAAAAAAAAAAAAAAAAAAAAAAAAAAAAAAAAAAAAAAAAAAAAAAAAAAAAAAAAAAAAAAAAAAAAAAAAAAAAAAAAAAAAAAAAAAAAAAAAAAAAAAAAAAAAAAAAAAAAAAAAAAAAAAAAAAAAAAAAAAAAAAAAAAAAAAAAAAAAAAAAAAA",
"AAAAAAAAAAAAAAAAAAAAAAAAAAAAAAAAAAAAAAAAAAAAAAAAAAAAAAAAAAAAAAAAAAAAAAAAAAAAAAAAAAAAAAAAAAAAAAAAAAAAAAAAAAAAAAAAAAAAAAAAAAAAAAAAAAAAAAAAAAAAAAAAAAAAAAAAAAAAAAAAAAAAAAAAAAAAAAAAAAAAAAAAAAAAAAAAAAAAAAAA",
"AAAAAAAAAAAAAAAAAAAAAAAAAAAAAAAAAAAAAAAAAAAAAAAAAAAAAAAAAAAAAAAAAAAAAAAAAAAAAAAAAAAAAAAAAAAAAAAAAAAAAAAAAAAAAAAAAAAAAAAAAAAAAAAAAAAAAAAAAAAAAAAAAAAAAAAAAAAAAAAAAAAAAAAAAAAAAAAAAAAAAAAAAAAAAAAAAAAAAAAA",
"AAAAAAAAAAAAAAAAAAAAAAAAAAAAAAAAAAAAAAAAAAAAAAAAAAAAAAAAAAAAAAAAAAAAAAAAAAAAAAAAAAAAAAAAAAAAAAAAAAAAAAAAAAAAAAAAAAAAAAAAAAAAAAAAAAAAAAAAAAAAAAAAAAAAAAAAAAAAAAAAAAAAAAAAAAAAAAAAAAAAAAAAAAAAAAAAAAAAAAAA",
"AAAAAAAAAAAAAAAAAAAAAAAAAAAAAAAAAAAAAAAAAAAAAAAAAAAAAAAAAAAAAAAAAAAAAAAAAAAAAAAAAAAAAAAAAAAAAAAAAAAAAAAAAAAAAAAAAAAAAAAAAAAAAAAAAAAAAAAAAAAAAAAAAAAAAAAAAAAAAAAAAAAAAAAAAAAAAAAAAAAAAAAAAAAAAAAAAAAAAAAA",
"AAAAAAAAAAAAAAAAAAAAAAAAAAAAAAAAAAAAAAAAAAAAAAAAAAAAAAAAAAAAAAAAAAAAAAAAAAAAAAAAAAAAAAAAAAAAAAAAAAAAAAAAAAAAAAAAAAAAAAAAAAAAAAAAAAAAAAAAAAAAAAAAAAAAAAAAAAAAAAAAAAAAAAAAAAAAAAAAAAAAAAAAAAAAAAAAAAAAAAAA",
"AAAAAAAAAAAAAAAAAAAAAAAAAAAAAAAAAAAAAAAAAAAAAAAAAAAAAAAAAAAAAAAAAAAAAAAAAAAAAAAAAAAAAAAAAAAAAAAAAAAAAAAAAAAAAAAAAAAAAAAAAAAAAAAAAAAAAAAAAAAAAAAAAAAAAAAAAAAAAAAAAAAAAAAAAAAAAAAAAAAAAAAAAAAAAAAAAAAAAAAA",
"AAAAAAAAAAAAAAAAAAAAAAAAAAAAAAAAAAAAAAAAAAAAAAAAAAAAAAAAAAAAAAAAAAAAAAAAAAAAAAAAAAAAAAAAAAAAAAAAAAAAAAAAAAAAAAAAAAAAAAAAAAAAAAAAAAAAAAAAAAAAAAAAAAAAAAAAAAAAAAAAAAAAAAAAAAAAAAAAAAAAAAAAAAAAAAAAAAAAAAAA",
"AAAAAAAAAAAAAAAAAAAAAAAAAAAAAAAAAAAAAAAAAAAAAAAAAAAAAAAAAAAAAAAAAAAAAAAAAAAAAAAAAAAAAAAAAAAAAAAAAAAAAAAAAAAAAAAAAAAAAAAAAAAAAAAAAAAAAAAAAAAAAAAAAAAAAAAAAAAAAAAAAAAAAAAAAAAAAAAAAAAAAAAAAAAAAAAAAAAAAAAA",
"AAAAAAAAAAAAAAAAAAAAAAAAAAAAAAAAAAAAAAAAAAAAAAAAAAAAAAAAAAAAAAAAAAAAAAAAAAAAAAAAAAAAAAAAAAAAAAAAAAAAAAAAAAAAAAAAAAAAAAAAAAAAAAAAAAAAAAAAAAAAAAAAAAAAAAAAAAAAAAAAAAAAAAAAAAAAAAAAAAAAAAAAAAAAAAAAAAAAAAAA"
};
