/* XPM */
static char *f9ea07776c4444eaf985c18d3660f879wn7rTPcO2sSih5Y1[] = {
/* columns rows colors chars-per-pixel */
"64 64 228 2 ",
"   c None",
".  c black",
"X  c #1F1A13",
"o  c #241D15",
"O  c #291E14",
"+  c #251E19",
"@  c #2B1C13",
"#  c #25211B",
"$  c #2D241C",
"%  c #2A2216",
"&  c #332414",
"*  c #32261D",
"=  c #342A1E",
"-  c #3A2C1D",
";  c #3B2317",
":  c #2D2521",
">  c #2E2820",
",  c #342B22",
"<  c #3A2E23",
"1  c #352620",
"2  c #3D3123",
"3  c #3C332A",
"4  c #36302B",
"5  c #492B18",
"6  c #522F1D",
"7  c #4C321A",
"8  c #57381E",
"9  c #793117",
"0  c #402C23",
"q  c #4F2E22",
"w  c #443325",
"e  c #43352A",
"r  c #4A352B",
"t  c #43392E",
"y  c #4C3B2D",
"u  c #4C3C26",
"i  c #543524",
"p  c #593622",
"a  c #533C25",
"s  c #533C2C",
"d  c #5D3C2A",
"f  c #5B3827",
"g  c #4C3D31",
"h  c #413931",
"j  c #563E31",
"k  c #623F2A",
"l  c #683B26",
"z  c #763D24",
"x  c #5A432C",
"c  c #4E4336",
"v  c #544333",
"b  c #5B4434",
"n  c #5B4A36",
"m  c #5C4539",
"M  c #5A4A3B",
"N  c #5F513B",
"B  c #6A422C",
"V  c #65432B",
"C  c #76472C",
"Z  c #654433",
"A  c #6A4933",
"S  c #664A39",
"D  c #694636",
"F  c #744B33",
"G  c #7C4D34",
"H  c #734D3A",
"J  c #774C36",
"K  c #6B513B",
"L  c #75543D",
"P  c #7B543C",
"I  c #7B5034",
"U  c #5F5144",
"Y  c #645343",
"T  c #6E5444",
"R  c #6D574A",
"E  c #735B43",
"W  c #745C4B",
"Q  c #7E5E49",
"!  c #765644",
"~  c #735C51",
"^  c #786248",
"/  c #6B6155",
"(  c #736352",
")  c #7B6C5B",
"_  c #7E6958",
"`  c #8B4C31",
"'  c #884B36",
"]  c #86553B",
"[  c #875639",
"{  c #95533C",
"}  c #945A3B",
"|  c #9A5B3D",
" . c #86432C",
".. c #A25537",
"X. c #8C5D45",
"o. c #865946",
"O. c #945D43",
"+. c #985844",
"@. c #A95E4C",
"#. c #83614B",
"$. c #8C6249",
"%. c #8C6446",
"&. c #946244",
"*. c #9C6245",
"=. c #95634A",
"-. c #9D6A4C",
";. c #986849",
":. c #846353",
">. c #876A53",
",. c #956D52",
"<. c #9E6B54",
"1. c #976754",
"2. c #8A7359",
"3. c #9A745B",
"4. c #96795E",
"5. c #9C734D",
"6. c #A56D49",
"7. c #AA6B4B",
"8. c #AA6845",
"9. c #AB714E",
"0. c #A36D53",
"q. c #AC6C54",
"w. c #BC6551",
"e. c #BC6C55",
"r. c #A37256",
"t. c #AB7355",
"y. c #A4745B",
"u. c #A4785C",
"i. c #AE7955",
"p. c #B37454",
"a. c #B97253",
"s. c #B37957",
"d. c #B57659",
"f. c #B47B5B",
"g. c #BC7C5C",
"h. c #BD7857",
"j. c #B36C4D",
"k. c #8C7A6A",
"l. c #957966",
"z. c #AB7D62",
"x. c #A47E67",
"c. c #B47C62",
"v. c #BB7E62",
"b. c #C27D5C",
"n. c #C77656",
"m. c #D17A5F",
"M. c #C27E62",
"N. c #CA7C60",
"B. c #BC825F",
"V. c #998166",
"C. c #968776",
"Z. c #8E8275",
"A. c #A6836C",
"S. c #A98367",
"D. c #B48364",
"F. c #BC8363",
"G. c #BB866A",
"H. c #B7896A",
"J. c #A5907C",
"K. c #B89378",
"L. c #AD8D77",
"P. c #C2825F",
"I. c #C8865F",
"U. c #C48464",
"Y. c #CB8464",
"T. c #CC8965",
"R. c #CD876A",
"E. c #C48B6B",
"W. c #CC8C6A",
"Q. c #C58868",
"!. c #D38A64",
"~. c #D28D6B",
"^. c #D98C66",
"/. c #C7936B",
"(. c #D4916D",
"). c #DB976E",
"_. c #C89676",
"`. c #D49371",
"'. c #D99573",
"]. c #DC9B7A",
"[. c #D89C76",
"{. c #DC8F71",
"}. c #E49C79",
"|. c #E39B79",
" X c #F09576",
".X c #D9A07C",
"XX c #E4A47E",
"oX c #E9A77E",
"OX c #B99C85",
"+X c #AE9881",
"@X c #B9A289",
"#X c #BEA290",
"$X c #C29C84",
"%X c #DD9E81",
"&X c #D5A583",
"*X c #D8B397",
"=X c #D0A88C",
"-X c #E6A682",
";X c #E5AA83",
":X c #EAAB89",
">X c #F6AB86",
",X c #EBB289",
"<X c #F6B58B",
"1X c #EDBE9E",
"2X c #EEBB94",
"3X c #F2B693",
"4X c #F4BC95",
"5X c #F4BC9B",
"6X c #FCBB9C",
"7X c #E7AE94",
"8X c #D5BDA7",
"9X c #F9BDA0",
"0X c #F7C39C",
"qX c #FBC39D",
"wX c #FFC4A4",
"eX c #FDCBA5",
"rX c #F2CDAA",
"tX c #FFCDAA",
"yX c #F6C6A5",
"uX c #FFD3AD",
"iX c #FFCEB4",
"pX c #FED5B4",
"aX c #FFDDBD",
"sX c #FED2B9",
"dX c #EBC6A8",
"fX c #F5DBC3",
"gX c #FFE6C6",
"hX c white",
/* pixels */
"                                                                                                                                ",
"                                                                                                                                ",
"                                                                                                                                ",
"                                                                                                                                ",
"                                                                                                                                ",
"                                                                                                                                ",
"                                                                                                                                ",
"                                                                                      V.S.8 7 a x V                             ",
"                                                                                @X@XK x n ^ N y u w 5 E                         ",
"                                                                          K J.K.2.C.8XfX^ x w - & - e w K                       ",
"                                                                        n k.C.^ ) ) v c w ( 2 3 e < , & w 7                     ",
"                                                                      Y R J.E ^ n v ( x 2 - % , , % % = % % &                   ",
"                                                                    c C.@X^ x w - 2 - $ % / Z.2 e v < 2 t = $ &                 ",
"                                                                    / Z.N n c = = = $ # 3 3 $ % X & 3 > o $ % $ 2               ",
"                                                                  ) = ( c n c 4 = % % > % = , X # X # % X o = X 2 x             ",
"                                                                  M / U ( k.K c = = > % , = > # : X $ : o o % * X =             ",
"                                                  . .           N U v Z.V.+X_ Y g 3 < < , * , $ # o $ % : + + + : o             ",
"                                              . . . .           U R ) R l.K.OX>.T b g t r w < = $ > < < + o o + X , $           ",
"                                            . . hXhX. .         - 2 y >.=XpXpX&XK.x.o.Q #.S x b j m b r 0 O X o # + :           ",
"                                        . . . hXhXhX  . hX      = c m dXgXpXpXeX1X&X_._.D.y.3.u.y.x.,.o.D w o o $ + <           ",
"                                    . . hXhXhXhXhXhXhX. .       3 t 2.rXuXuXeX0X5X;X].`./.Q.Q.F.U.F.B.r.X.Z 0 o : # +           ",
"                                . . . hXhXhXhX. hXhXhXhX.       4 c S.rXeXqX<XoXoX|.].`.~.~.T.T.W.U.B.g.t.o.b & , $ #           ",
"                              . . . hXhXhX  . . . . hXhX. .     4 t L.rXqX4X-X-X;X-X-X.X(.(.T.T.T.Q.P.B.f.<.! S 3 3 +           ",
"                          . . hXhXhXhXhXhX. . hX. hXhXhXhX. .   t u S.dX0X4X5X4X3X3X3X,X).(.I.T.I.I.U.U.F.t.X.S - $ o           ",
"                      . . . hXhXhX  hXhX. . hXhXhXhX. . hXhX. . c e x.1XyXqXuXpXgXaXaXqX,X|.(.~.!.T.W.W.U.s.=.Q w 1 $           ",
"                    . . . hXhXhX  hX  hX. . hX. . . . . hXhX. . $ 3 x.yXtXpXpXuXeXqX<XoXoX|.(.~.T.T.T.~.W.F.y.o.~ < <           ",
"              . . . . hXhXhXhXhX. . hX  . . hXhX. hX. . hXhX  . $ & $XrXuXuX0X,XoX).).!.!.^.Y.T.T.I.Y.T.W.Q.G.z.J.0 h           ",
"            . . . hXhXhX  . . hX. . . hXhX. . hXhXhX. . hXhXhX. . = *XrX2X/.s.6.8.j.8.h.b.I.I.n.8.*.} } &.6.r.G.+Xj 4           ",
"          . . hXhXhXhX. . . . hXhX. . hXhX. . . . . . . hXhX. . . - 8X.X9.*.X.P F J ] 7.p.h.a.7.[ B p k ! X.+.q.$Xb <           ",
"        . . hXhXhXhX. . . . hXhXhXhX. . hXhXhX. . hXhXhX. .   W :.a *X6.} l F Z d f F +.s.U.d.} C 5 q f k l P =.H.S g           ",
"        . . hXhX. . . . . hXhXhXhXhXhX. . hXhXhXhXhX. . .     L z b &X*.X.l R * 0 D J [ B.].R.o.k f ; & S k J X.S.k.b           ",
"          . . hX. . hXhX. . hXhXhXhXhX. . hXhXhXhX. . .       s 5 3.*Xd.0.1.:.r m H o.y.`.sX%X0.H f 0 3 ) o.1.y.H.$Xm           ",
"            . hXhXhXhXhX. . . hXhXhXhXhXhXhX. . .             c T _.yX1XF.z.0.<.0.<.y.v.9XiX7Xe.<.o.o.o.=.<.f.F.E.OXT R         ",
"            . . hXhXhXhXhX. . hXhXhXhXhXhX. . .               < T K.qXtX1XE.E.F.c.v.v.R.9XfX-XM.c.c.q.c.F.F.Q.E./.$XF R         ",
"              . hXhXhXhXhXhX. . hXhXhXhX. . hX.                 T K.:X3X3X`.g.M.Q.U.M.|.wXsX-Xh.v.v.v.c.M.R.~.W.W.$XZ m         ",
"              . . hXhXhXhXhX  hXhX. . . . . hX. .               M ,.E.'.'.~.W.R.R.U.Y.5XtXtX%XN.c.v.M.M.Q.N.Y.T.E.K.y.a         ",
"                . . hXhXhXhXhXhX. . .     . hXhX.               h A.D.U.T.T.~.~.R.Y.n.6XwX9X|.M.d.M.M.M.M.N.U.U.G.H.D.          ",
"                  . . hXhXhXhX. .           . hX. .               y x.c.v.U.~.`.~.R.^.pXiX6X{.M.c.v.b.M.M.U.g.v.H.=.p           ",
"                  . . hX. . . .             . hXhX.                 4.z.c.U.`.'.~.~. X X<X Xm.U.e.g.b.M.M.b.g.F.H.a             ",
"                    . . .                     . hXhX.               b x.F.Q.%X-X|.-X~...n.m.e.9 @.g.b.M.U.g.F.D.L.              ",
"                    . .                       . . hX.               g l.H.[.;X,X0X2X,X| ' { { +.q.g.B.P.U.B.B.D.S.              ",
"                                                . hX. .               3.D..XXX[.,X(./.[ B G G l C 8.8.B.B.F.F.r.l.              ",
"                                                . . hX. .             :.S./.[..X/./.i.-.+.0.<.X.] ] &.5.D.B.u.,.b               ",
"                                                  . hXhX.             M 2._.H.;.} ` `  .{ +.{ +.X.' [ I [ &.;.$.s               ",
"                                                  . . hX. .             E %.5.&.6.t.+.@.@.+.{ +.+.X.+.B %.%.>.L                 ",
"                                                    . . hX.             0 ^ I &.s.g.a.e.w.w.w.@.q.d.d.X.A P A                   ",
"                                                      . hX. .             e D I s.P.a.6.` z z *.q.d.t.G A D                     ",
"                                                      . . hX. .             b L 9.U.T.T.Y.Q.d.d.b.g.*.H K                       ",
"                                                        . hXhX.               d [ 9.P.~.N.m.b.h.d.0.X.f H                       ",
"                                                        . . hXR.R.R.R.        L x [ 6.p.a.b.j.| [ $.A L                         ",
"                                                          . . R.tXtXR.          o.7 d G ' } O.V Z 6 L                           ",
"                                                            . R.tXtXR.R.            6 i p 6 i i V                               ",
"                                                              R.tXR.tXR.                                                        ",
"                                                            R.tXtXtXtXR.                                                        ",
"                                                          R.tXtXtXtXR.R.R.                                                      ",
"                                                          R.tXtXtXR.tXtXtXR.                                                    ",
"                                                          R.R.R.R.tXtXtXtXR.R.                                                  ",
"                                                            R.tXtXtXR.R.tXtXR.                                                  ",
"                                                            R.tXtXR.tXtXtXtXR.                                                  ",
"                                                              R.R.tXtXtXtXR.tXR.                                                ",
"                                                              R.tXtXtXtXR.tXtXtXR.                                              ",
"                                                                R.R.R.tXtXtXtXR.                                                ",
"                                                                  R.tXtXtXR.R..                                                 ",
"                                                                    R.tXR.. hX.                                                 "
};
