/* XPM */
static char *result[] = {
/* columns rows colors chars-per-pixel */
"64 64 228 2 ",
"   c black",
".  c #1F1A13",
"X  c #241D15",
"o  c #291E14",
"O  c #251E19",
"+  c #2B1C13",
"@  c #25211B",
"#  c #2D241C",
"$  c #2A2216",
"%  c #332414",
"&  c #32261D",
"*  c #342A1E",
"=  c #3A2C1D",
"-  c #3B2317",
";  c #2D2521",
":  c #2E2820",
">  c #342B22",
",  c #3A2E23",
"<  c #352620",
"1  c #3D3123",
"2  c #3C332A",
"3  c #36302B",
"4  c #492B18",
"5  c #522F1D",
"6  c #4C321A",
"7  c #57381E",
"8  c #793117",
"9  c #402C23",
"0  c #4F2E22",
"q  c #443325",
"w  c #43352A",
"e  c #4A352B",
"r  c #43392E",
"t  c #4C3B2D",
"y  c #4C3C26",
"u  c #543524",
"i  c #593622",
"p  c #533C25",
"a  c #533C2C",
"s  c #5D3C2A",
"d  c #5B3827",
"f  c #4B3D31",
"g  c #413931",
"h  c #563E31",
"j  c #623F2A",
"k  c #683B26",
"l  c #763D24",
"z  c #5A432C",
"x  c #4E4336",
"c  c #544333",
"v  c #5B4434",
"b  c #5B4A36",
"n  c #5C4539",
"m  c #5A4A3B",
"M  c #5F513B",
"N  c #6A422C",
"B  c #65432B",
"V  c #76472C",
"C  c #654433",
"Z  c #6A4933",
"A  c #664A39",
"S  c #694636",
"D  c #744B33",
"F  c #7C4D34",
"G  c #734D3A",
"H  c #774C36",
"J  c #6B513B",
"K  c #75543D",
"L  c #7B543C",
"P  c #7B5034",
"I  c #5F5144",
"U  c #645343",
"Y  c #6E5444",
"T  c #6D574A",
"R  c #735B43",
"E  c #745C4B",
"W  c #7E5E49",
"Q  c #765644",
"!  c #735C51",
"~  c #786248",
"^  c #6B6155",
"/  c #736352",
"(  c #7B6C5B",
")  c #7E6958",
"_  c #8B4C31",
"`  c #884B36",
"'  c #86553B",
"]  c #875639",
"[  c #95533C",
"{  c #945A3B",
"}  c #9A5B3D",
"|  c #86432C",
" . c #A25537",
".. c #8C5D45",
"X. c #865946",
"o. c #945D43",
"O. c #985844",
"+. c #A95E4C",
"@. c #83614B",
"#. c #8C6249",
"$. c #8C6446",
"%. c #946244",
"&. c #9C6245",
"*. c #95634A",
"=. c #9D6A4C",
"-. c #986849",
";. c #846353",
":. c #876A53",
">. c #956D52",
",. c #9E6B54",
"<. c #976754",
"1. c #8A7359",
"2. c #9A745B",
"3. c #96795E",
"4. c #9C734D",
"5. c #A56D49",
"6. c #AA6B4B",
"7. c #AA6845",
"8. c #AB714E",
"9. c #A36D53",
"0. c #AC6C54",
"q. c #BC6551",
"w. c #BC6C55",
"e. c #A37256",
"r. c #AB7355",
"t. c #A4745B",
"y. c #A4785C",
"u. c #AE7955",
"i. c #B37454",
"p. c #B97253",
"a. c #B37957",
"s. c #B57659",
"d. c #B47B5B",
"f. c #BC7C5C",
"g. c #BD7857",
"h. c #B36C4D",
"j. c #8C7A6A",
"k. c #957966",
"l. c #AB7D62",
"z. c #A47E67",
"x. c #B47C62",
"c. c #BB7E62",
"v. c #C27D5C",
"b. c #C77656",
"n. c #D17A5F",
"m. c #C27E62",
"M. c #CA7C60",
"N. c #BC825F",
"B. c #998166",
"V. c #968776",
"C. c #8E8275",
"Z. c #A6836C",
"A. c #A98367",
"S. c #B48364",
"D. c #BC8363",
"F. c #BB866A",
"G. c #B7896A",
"H. c #A5907C",
"J. c #B89378",
"K. c #AD8D77",
"L. c #C2825F",
"P. c #C8865F",
"I. c #C48464",
"U. c #CB8464",
"Y. c #CC8965",
"T. c #CD876A",
"R. c #C48B6B",
"E. c #CC8C6A",
"W. c #C58868",
"Q. c #D38A64",
"!. c #D28D6B",
"~. c #D98C66",
"^. c #C7936B",
"/. c #D4916D",
"(. c #DB976E",
"). c #C89676",
"_. c #D49371",
"`. c #D99573",
"'. c #DC9B7A",
"]. c #D89C76",
"[. c #DC8F71",
"{. c #E49C79",
"}. c #E39B79",
"|. c #F09576",
" X c #D9A07C",
".X c #E4A47E",
"XX c #E9A77E",
"oX c #B99C85",
"OX c #AE9881",
"+X c #B9A289",
"@X c #BEA290",
"#X c #C29C84",
"$X c #DD9E81",
"%X c #D5A583",
"&X c #D8B397",
"*X c #D0A88C",
"=X c #E6A682",
"-X c #E5AA83",
";X c #EAAB89",
":X c #F6AB86",
">X c #EBB289",
",X c #F6B58B",
"<X c #EDBE9E",
"1X c #EEBB94",
"2X c #F2B693",
"3X c #F4BC95",
"4X c #F4BC9B",
"5X c #FCBB9C",
"6X c #E7AE94",
"7X c #D5BDA7",
"8X c #F9BDA0",
"9X c #F7C39C",
"0X c #FBC39D",
"qX c #FFC4A4",
"wX c #FDCBA5",
"eX c #F2CDAA",
"rX c #FFCDAA",
"tX c #F6C6A5",
"yX c #FFD3AD",
"uX c #FFCEB4",
"iX c #FED5B4",
"pX c #FFDDBD",
"aX c #FED2B9",
"sX c #EBC6A8",
"dX c #F5DBC3",
"fX c #FFE6C6",
"gX c white",
"hX c None",
/* pixels */
"hXhXhXhXhXhXhXhXhXhXhXhXhXhXhXhXhXhXhXhXhXhXhXhXhXhXhXhXhXhXhXhXhXhXhXhXhXhXhXhXhXhXhXhXhXhXhXhXhXhXhXhXhXhXhXhXhXhXhXhXhXhXhXhX",
"hXhXhXhXhXhXhXhXhXhXhXhXhXhXhXhXhXhXhXhXhXhXhXhXhXhXhXhXhXhXhXhXhXhXhXhXhXhXhXhXhXhXhXhXhXhXhXhXhXhXhXhXhXhXhXhXhXhXhXhXhXhXhXhX",
"hXhXhXhXhXhXhXhXhXhXhXhXhXhXhXhXhXhXhXhXhXhXhXhXhXhXhXhXhXhXhXhXhXhXhXhXhXhXhXhXhXhXhXhXhXhXhXhXhXhXhXhXhXhXhXhXhXhXhXhXhXhXhXhX",
"hXhXhXhXhXhXhXhXhXhXhXhXhXhXhXhXhXhXhXhXhXhXhXhXhXhXhXhXhXhXhXhXhXhXhXhXhXhXhXhXhXhXhXhXhXhXhXhXhXhXhXhXhXhXhXhXhXhXhXhXhXhXhXhX",
"hXhXhXhXhXhXhXhXhXhXhXhXhXhXhXhXhXhXhXhXhXhXhXhXhXhXhXhXhXhXhXhXhXhXhXhXhXhXhXhXhXhXhXhXhXhXhXhXhXhXhXhXhXhXhXhXhXhXhXhXhXhXhXhX",
"hXhXhXhXhXhXhXhXhXhXhXhXhXhXhXhXhXhXhXhXhXhXhXhXhXhXhXhXhXhXhXhXhXhXhXhXhXhXhXhXhXhXhXhXhXhXhXhXhXhXhXhXhXhXhXhXhXhXhXhXhXhXhXhX",
"hXhXhXhXhXhXhXhXhXhXhXhXhXhXhXhXhXhXhXhXhXhXhXhXhXhXhXhXhXhXhXhXhXhXhXhXhXhXhXhXhXhXhXhXhXhXhXhXhXhXhXhXhXhXhXhXhXhXhXhXhXhXhXhX",
"hXhXhXhXhXhXhXhXhXhXhXhXhXhXhXhXhXhXhXhXhXhXhXhXhXhXhXhXhXhXhXhXhXhXhXhXhXhXhXhXhXhXhX3.A.7 6 z z B hXhXhXhXhXhXhXhXhXhXhXhXhXhX",
"hXhXhXhXhXhXhXhXhXhXhXhXhXhXhXhXhXhXhXhXhXhXhXhXhXhXhXhXhXhXhXhXhXhXhXhXhXhXhXhX+X+XJ z b / M y y q 4 R hXhXhXhXhXhXhXhXhXhXhXhX",
"hXhXhXhXhXhXhXhXhXhXhXhXhXhXhXhXhXhXhXhXhXhXhXhXhXhXhXhXhXhXhXhXhXhXhXhXhXJ H.J.1.V.7XdX~ z q = % = w q J hXhXhXhXhXhXhXhXhXhXhX",
"hXhXhXhXhXhXhXhXhXhXhXhXhXhXhXhXhXhXhXhXhXhXhXhXhXhXhXhXhXhXhXhXhXhXhXhXb j.V.~ ( ( c x 6 ^ q 2 w , > % q 6 hXhXhXhXhXhXhXhXhXhX",
"hXhXhXhXhXhXhXhXhXhXhXhXhXhXhXhXhXhXhXhXhXhXhXhXhXhXhXhXhXhXhXhXhXhXhXU T H.R ~ b c / z 1 * $ > > $ $ * $ $ % hXhXhXhXhXhXhXhXhX",
"hXhXhXhXhXhXhXhXhXhXhXhXhXhXhXhXhXhXhXhXhXhXhXhXhXhXhXhXhXhXhXhXhXhXx V.+X~ z q = 1 = # $ ^ C.1 w c , 1 2 * # % hXhXhXhXhXhXhXhX",
"hXhXhXhXhXhXhXhXhXhXhXhXhXhXhXhXhXhXhXhXhXhXhXhXhXhXhXhXhXhXhXhXhXhX^ C.M b x * * * # @ 2 2 # $ . % 2 : $ # # # 1 hXhXhXhXhXhXhX",
"hXhXhXhXhXhXhXhXhXhXhXhXhXhXhXhXhXhXhXhXhXhXhXhXhXhXhXhXhXhXhXhXhX( * / x b x 3 * $ $ : $ * > . @ . @ $ . X * X 1 z hXhXhXhXhXhX",
"hXhXhXhXhXhXhXhXhXhXhXhXhXhXhXhXhXhXhXhXhXhXhXhXhXhXhXhXhXhXhXhXhXm ^ I / j.J x * * : $ > * : @ ; O # ; X . $ # X * hXhXhXhXhXhX",
"hXhXhXhXhXhXhXhXhXhXhXhXhXhXhXhXhXhXhXhXhXhXhXhXhXhXhXhXhXhXhXhXI I c C.C.J.) U f w , 2 < & & # . X # X : O O O # X hXhXhXhXhXhX",
"hXhXhXhXhXhXhXhXhXhXhXhXhXhXhXhXhXhXhXhXhXhXhXhXhXhXhXhXhXhXhXhXU U ( T 3.J.+X:.Y v t r e q , , : : , , O X X O . > # hXhXhXhXhX",
"hXhXhXhXhXhXhXhXhXhXhXhXhXhXhXhXhXhXhX  hXhXhXhXhXhXhXhXhXhXhXhX= 1 t :.*XiXiX%XJ.z.X.X.;.C z v h v v t q o X X @ O # hXhXhXhXhX",
"hXhXhXhXhXhXhXhXhXhXhXhXhXhXhXhXhXhX      hXhXhXhXhXhXhXhXhXhXhX* x n sXfXiXiXwX<X%X).J.S.y.2.y.t.z.>.X.S 9 X O ; O > hXhXhXhXhX",
"hXhXhXhXhXhXhXhXhXhXhXhXhXhXhXhXhX    gX    hXhXhXhXhXhXhXhXhXhX2 r 1.eXyXyXwX9X4X-X'._.^.W.W.D.W.D.S.e...C 9 X ; O O hXhXhXhXhX",
"hXhXhXhXhXhXhXhXhXhXhXhXhXhXhXhX    gXgXhX    hXhXhXhXhXhXhXhXhX2 x A.eXwX0X,XXX.X}.'._./.E.Y.Y.E.I.I.d.r.X.s & : : @ hXhXhXhXhX",
"hXhXhXhXhXhXhXhXhXhXhXhXhXhXhX    gXgXgXgXhX    hXhXhXhXhXhXhXhX3 w K.eX9X3X=X=X-X=X.X.X(.E.Y.Y.Y.Y.L.f.d.9.L m 2 2 O hXhXhXhXhX",
"hXhXhXhXhXhXhXhXhXhXhXhXhXhX    gXgXgXgXgXgXgX    hXhXhXhXhXhXhXr y A.sX9X1X4X3X2X2X2X>X(./.P.Y.P.P.I.I.D.r...A < & o hXhXhXhXhX",
"hXhXhXhXhXhXhXhXhXhXhXhXhX    gXgXgX      gXgXgX    hXhXhXhXhXhXx r A.<X9X9XiXiXfXpXpX0X>X}./.!.Y.Y.Y.Y.I.f.*.W e & * hXhXhXhXhX",
"hXhXhXhXhXhXhXhXhXhXhXhX    gXgXhX      hXgXgXgXgX    hXhXhXhXhX$ 2 k.tXrXiXiXyXwX0X,XXXXX}._.~.Q.E.E./.E.N.t.X.! > > hXhXhXhXhX",
"hXhXhXhXhXhXhXhXhXhXhX    gXgXgX    gXhXgX    hXgXgX    hXhXhXhX# & #XrXyXyX9X>XXX(.[.Q.Q.~.Y.Q.Y.P.U.Y.W.W.F.z.H.9 g hXhXhXhXhX",
"hXhXhXhXhXhXhXhXhXhX    gXgXgXgX    gXgX        gXgXhX    hXhXhX> * &XeX9X^.a.7.7.8.7.g.v.P.v.v.7.} { { %.5.r.F.oXh 3 hXhXhXhXhX",
"hXhXhXhXhXhXhXhXhX    gXgXhXgXgX    gX    gX    gXgXgX    hXhXhXf = 7X X5.&.X.L G F ' 7.p.g.p.6.] N i B Q O.o.9.#Xv , hXhXhXhXhX",
"hXhXhXhXhXhXhXhX    gXgXhX  hXgX    gXgXgXgX    gXgX    hXhXhXE ;.y &X5.{ k Z Z d i D O.d.I.s.o.V 4 0 d j k L *.G.A f hXhXhXhXhX",
"hXhXhXhXhXhXhX    gXgXgX      hXgX            gXgX    hXhXhXhXK l v %X&.o.k Y < w S G ] N.'.W.` j d - % n j L ..A.j.v hXhXhXhXhX",
"hXhXhXhXhXhX    gXgXgXgXgX      gXgX        gXgX    hXhXhXhXhXa 4 2.&Xd.9.<.;.e n G ' t._.aX$X9.Q d 9 2 ) X.<.t.G.#Xv hXhXhXhXhX",
"hXhXhXhXhX    gXgXhX  hXgXgX      gXgXgXgXgXgX    hXhXhXhXhXhXx Y ).9X9XS.l.9.,.,.,.t.c.8XuX;Xs.9.X.X.X.*.9.d.F.R.oXJ T hXhXhXhX",
"hXhXhXhX    gXgXhX      gXgXgX      gXgXgXgX    hXhXhXhXhXhXhX> Y J.tXrX<XR.R.D.c.c.c.!.8XdX=Xm.x.x.9.x.S.W.I.R.^.#XG E hXhXhXhX",
"hXhXhX    gXgXhX    gXgXgXgXgXgX      gXgX    hXhXhXhXhXhXhXhXhXT J.;X2X2X_.c.m.W.m.m.}.qXaX=Xw.c.c.c.c.m.U.E.E.E.#Xj v hXhXhXhX",
"hXhX    gXgXhX        gXgXgXgXgXgX  hXgX    hXhXhXhXhXhXhXhXhXhXn >.E._.`./.E.U.T.I.U.4XqXuX=Xm.c.c.m.m.I.U.T.U.R.J.z.u hXhXhXhX",
"hX    gXgXgX    gX      gXgXgXgXgXgXgX      hXhXhXhXhXhXhXhXhXhXr Z.S.I.U.E.!.T.T.U.b.4X8XqX}.c.s.c.m.m.m.M.U.I.F.G.S.hXhXhXhXhX",
"hXhX    gXgXgX  gXgX      gXgXgXgXgX    gX    hXhXhXhXhXhXhXhXhXhXf z.c.c.U._./.!.T.~.aXuX5X[.m.s.c.m.c.m.I.f.c.G.*.i hXhXhXhXhX",
"hXhXhX    gXgXgXgXgXgX      gXgXgX        gX    hXhXhXhXhXhXhXhXhXhXk.y.c.I.!.`.~./.|.|.,X|.n.m.c.b.c.m.m.v.f.D.G.p hXhXhXhXhXhX",
"hXhXhXhX    gXgXgXgXgXgX    gXgX    hXhX    gX    hXhXhXhXhXhXhXhXhXv A.S.W.$X=X{.=X!. .b.n.w.8 O.M.b.m.I.f.D.S.K.hXhXhXhXhXhXhX",
"hXhXhXhXhX    gXgXgXgXgXgXhXgX    hXhXhXhX    gX    hXhXhXhXhXhXhXhXf k.G.]..X>X9X9X>X{ ` [ [ O.0.f.f.L.I.I.D.S.Z.hXhXhXhXhXhXhX",
"hXhXhXhXhXhX    gXgXgXgXgXgX    hXhXhXhXhXhX    gX    hXhXhXhXhXhXhXhX2.N. X-X].>X^.^._ D F F k V 7.6.f.N.D.D.4.k.hXhXhXhXhXhXhX",
"hXhXhXhXhXhXhX    gXgXgXgX    hXhXhXhXhXhXhXhX    gX    hXhXhXhXhXhXhX;.A.^. X X^.^.u.=.o.9.,...' X.%.4.u.N.y.>.C hXhXhXhXhXhXhX",
"hXhXhXhXhXhXhXhX    hXgX    hXhXhXhXhXhXhXhXhXhX    gX    hXhXhXhXhXhXm 1.).G.&.{ _ _ | [ O.[ O.o.| ] P $.%.-.#.t hXhXhXhXhXhXhX",
"hXhXhXhXhXhXhXhXhX        hXhXhXhXhXhXhXhXhXhXhXhX    gX    hXhXhXhXhXhXR $.4.%.5.r.O.+.+.O.` O.X.O.o.S $.$.:.K hXhXhXhXhXhXhXhX",
"hXhXhXhXhXhXhXhXhXhX    hXhXhXhXhXhXhXhXhXhXhXhXhXhX    gX    hXhXhXhXhX9 ~ D %.a.N.p.w.q.b.q.+.0.s.r.o.Z L Z hXhXhXhXhXhXhXhXhX",
"hXhXhXhXhXhXhXhXhXhXhXhXhXhXhXhXhXhXhXhXhXhXhXhXhXhXhX    gX    hXhXhXhXhXw S L a.L.p.5.| l l +.0.f.i.F Z Z hXhXhXhXhXhXhXhXhXhX",
"hXhXhXhXhXhXhXhXhXhXhXhXhXhXhXhXhXhXhXhXhXhXhXhXhXhXhXhX    gX    hXhXhXhXhXc L 8.I.Y.Y.m.W.s.s.v.f.o.G J hXhXhXhXhXhXhXhXhXhXhX",
"hXhXhXhXhXhXhXhXhXhXhXhXhXhXhXhXhXhXhXhXhXhXhXhXhXhXhXhXhX    gX    T.T.E.hXhXs ] 8.L.E.U.M.v.f.s.9...s G hXhXhXhXhXhXhXhXhXhXhX",
"hXhXhXhXhXhXhXhXhXhXhXhXhXhXhXhXhXhXhXhXhXhXhXhXhXhXhXhXhXhX    gXT.rXrXT.hXhXK z ] 5.i.p.b.h.} ] ..S K hXhXhXhXhXhXhXhXhXhXhXhX",
"hXhXhXhXhXhXhXhXhXhXhXhXhXhXhXhXhXhXhXhXhXhXhXhXhXhXhXhXhXhXhX    T.rXrXT.T.hXhXX.6 k F [ { %.k B 5 Q hXhXhXhXhXhXhXhXhXhXhXhXhX",
"hXhXhXhXhXhXhXhXhXhXhXhXhXhXhXhXhXhXhXhXhXhXhXhXhXhXhXhXhXhXhXhX  T.rXT.rXrXT.hXhXhX4 u u 5 5 u C hXhXhXhXhXhXhXhXhXhXhXhXhXhXhX",
"hXhXhXhXhXhXhXhXhXhXhXhXhXhXhXhXhXhXhXhXhXhXhXhXhXhXhXhXhXhXhXhXhXhXT.rXrXrXT.T.hXhXhXhXhXhXhXhXhXhXhXhXhXhXhXhXhXhXhXhXhXhXhXhX",
"hXhXhXhXhXhXhXhXhXhXhXhXhXhXhXhXhXhXhXhXhXhXhXhXhXhXhXhXhXhXhXhXhXT.rXrXrXT.rXrXT.hXhXhXhXhXhXhXhXhXhXhXhXhXhXhXhXhXhXhXhXhXhXhX",
"hXhXhXhXhXhXhXhXhXhXhXhXhXhXhXhXhXhXhXhXhXhXhXhXhXhXhXhXhXhXhXhXT.rXrXrXT.rXrXrXT.T.hXhXhXhXhXhXhXhXhXhXhXhXhXhXhXhXhXhXhXhXhXhX",
"hXhXhXhXhXhXhXhXhXhXhXhXhXhXhXhXhXhXhXhXhXhXhXhXhXhXhXhXhXhXhXhXT.rXrXT.rXrXrXT.rXrXT.hXhXhXhXhXhXhXhXhXhXhXhXhXhXhXhXhXhXhXhXhX",
"hXhXhXhXhXhXhXhXhXhXhXhXhXhXhXhXhXhXhXhXhXhXhXhXhXhXhXhXhXhXhXhXhXT.T.rXrXrXT.rXrXrXT.T.hXhXhXhXhXhXhXhXhXhXhXhXhXhXhXhXhXhXhXhX",
"hXhXhXhXhXhXhXhXhXhXhXhXhXhXhXhXhXhXhXhXhXhXhXhXhXhXhXhXhXhXhXhXhXhXT.rXrXT.rXrXrXT.rXrXT.hXhXhXhXhXhXhXhXhXhXhXhXhXhXhXhXhXhXhX",
"hXhXhXhXhXhXhXhXhXhXhXhXhXhXhXhXhXhXhXhXhXhXhXhXhXhXhXhXhXhXhXhXhXhXhXT.T.rXrXrXT.rXrXrXT.hXhXhXhXhXhXhXhXhXhXhXhXhXhXhXhXhXhXhX",
"hXhXhXhXhXhXhXhXhXhXhXhXhXhXhXhXhXhXhXhXhXhXhXhXhXhXhXhXhXhXhXhXhXhXhXhXT.rXrXT.rXrXrXT.  hXhXhXhXhXhXhXhXhXhXhXhXhXhXhXhXhXhXhX",
"hXhXhXhXhXhXhXhXhXhXhXhXhXhXhXhXhXhXhXhXhXhXhXhXhXhXhXhXhXhXhXhXhXhXhXhXhXT.T.rXrXrXT.gX  hXhXhXhXhXhXhXhXhXhXhXhXhXhXhXhXhXhXhX",
"hXhXhXhXhXhXhXhXhXhXhXhXhXhXhXhXhXhXhXhXhXhXhXhXhXhXhXhXhXhXhXhXhXhXhXhXhXhXT.rXrXT.    hXhXhXhXhXhXhXhXhXhXhXhXhXhXhXhXhXhXhXhX",
"hXhXhXhXhXhXhXhXhXhXhXhXhXhXhXhXhXhXhXhXhXhXhXhXhXhXhXhXhXhXhXhXhXhXhXhXhXhXhXT.E.hXhXhXhXhXhXhXhXhXhXhXhXhXhXhXhXhXhXhXhXhXhXhX",
"hXhXhXhXhXhXhXhXhXhXhXhXhXhXhXhXhXhXhXhXhXhXhXhXhXhXhXhXhXhXhXhXhXhXhXhXhXhXhXhXhXhXhXhXhXhXhXhXhXhXhXhXhXhXhXhXhXhXhXhXhXhXhXhX"
};
