/* XPM */
static char *result[] = {
/* columns rows colors chars-per-pixel */
"64 64 68 1 ",
"  c #5D5D5D",
". c #6E8CB4",
"X c #978986",
"o c #948F8C",
"O c #9C8D88",
"+ c #96918F",
"@ c #9C948D",
"# c #9D9692",
"$ c #9D9995",
"% c #9F9B99",
"& c #A1948C",
"* c #A2998F",
"= c #A19692",
"- c #A89791",
"; c #A49B94",
": c #A99D95",
"> c #A49E9A",
", c #AA9E99",
"< c #B09F98",
"1 c #ABA096",
"2 c #A6A19D",
"3 c #ACA39C",
"4 c #B1A59D",
"5 c #B3A99E",
"6 c #B8A89F",
"7 c #A6A3A1",
"8 c #ACA6A2",
"9 c #AEA9A5",
"0 c #AEABA9",
"q c #B2A6A2",
"w c #B8A7A4",
"e c #B3AAA4",
"r c #B9ADA5",
"t c #B3ADAA",
"y c #BAAEAA",
"u c #B7B0A7",
"i c #BCB1A6",
"p c #B5B1AD",
"a c #BBB3AD",
"s c #B5B3B1",
"d c #BBB5B2",
"f c #BDB9B5",
"g c #BDBBBA",
"h c #C1AFA9",
"j c #C0B1A7",
"k c #C2B4AD",
"l c #C4B9AE",
"z c #C2B6B2",
"x c #C3BAB4",
"c c #CABCB6",
"v c #C3BDBA",
"b c #CABDB9",
"n c #C5C1BE",
"m c #CBC2BD",
"M c #D2C4BD",
"N c #D5C9BF",
"B c #C4C3C2",
"V c #CAC5C2",
"C c #CDC8C6",
"Z c #CDCBCA",
"A c #D6C5C1",
"S c #D2C9C4",
"D c #D2CDCB",
"F c #D6D0CE",
"G c #DCD2CC",
"H c #D6D4D3",
"J c #DAD6D3",
"K c white",
/* pixels */
"d5ak;dv7pt1ui;@1a1d22:50223  ......  sgtpJut2lxeVSdft523t3;e:;87",
"3t2:8:138eap95d3125030292p2  ......  v0ur0GxaGe2Nx;q:35221%23t32",
"321%23p32adne332i3dtp2p$38#  ......  dpdlan4a0Jklawa522:;:1221a;",
";;:122;a3s4dul0u120p5088312  ......  va34m5fndn53tts9;88s1l22$7d",
"8s3d31$7fd5na5t3r928uu3t520  ......  u5dpduufapsae2t38tp%9@81u7p",
"p%0@8;p2ppiaratv27>*g3e2223  ......  puxmln1aand25u3gs:idau38ea8",
"pdau38eiendapu301i35pg13t17  ......  lipanniupsttt3i9anumtCdgp3p",
"imrCsvp2puepaade@k+ie*ek5$9  ......  mp8panpg4i5sta8015xmllxuti8",
"cmllcuui5ag3mglti8a95#px;:t  ....K.  nNfuuffiauugua235epetxmtcaa",
"p8exnecap0uun8aaugp52;89;88  ...K..  fspgnn5aurefau1efuu5x0fxa0g",
"p5n0dca9vduZna85niuC3p5s9e8  ..K...  35Dsuiuuaunpu;ti3itn3fVufnl",
"tn3gntgcfumulunpuln5u982aeC  .K....  induufaasd5u5ni4d8d8sxugdda",
"a3dgufxdaauspnspc0195e-t322  ......  jfmafsuusfuuva2ai38tvaxaafa",
"50naxlafaai5spfuie0pstut3,3  ......  pintlan1uaa3s3862ppplxt8lui",
"pplxt3atiudge%u5pgdptttt0p8  ......  amffvZ2ff5ps8a9esui3e5et2a0",
"a495et2atfu3510p5ge1spt53B:  ......  dnaufn3nsuupduu59t343t;$;3p",
"333t;;>3p5ugaua21u3t15:z38e  ......  esnaiv35anna5288t,e98u&;e,8",
"e0et&:0;5nupu2p85;09:tes#$2  ......  unfdeai50uup48032>2&3d3se83",
"2@3p5sq83585ap085p2ree3t88t  ......  c3un3u0i:2uuu3e33;550733$>t",
"35p813$>p04ut828p9787q078$1  ......  8dV3u3t0a1f321;2$;d,,0;*508",
"et2:e;237988tsp58e228:3e53>  ......  18a:p105a24032;2905dt3$8822",
"321%>,p3208uu54@e9s9qrt5>++  ......  aft5525152t585p4$p0tu25rtft",
":*::22;k;850ep20pe8aet8>8t3  ......  up55;#u335a81p79d2eldnndit4",
"9s3x31$7f55aep21su>qt;%a3@p  ......  dpp1up99tt80@85138dix0dpnnr",
"p%9#81p2s3a33d227253e;30tsu  ......  5pu2tr8;tt3t530:fe3p58d8a0r",
"pdip358i9011p;7d08i-9;whfhv  ......  2u*8umee0e32p;a733d09ta4ap5",
"rmtCsgp3p880;t3p,#p22;3d30n  ......  e50et9:5#5p0s2228d15l9u9e52",
"lmlxxitu951p20957#p#3t13vv3  ......  utp82:a1t9;2540582,2a3u5gs5",
"a8exntcaa3a:1t3p8dd5325;12Z  ......  puaep1eet23e3@e:trtB54aga13",
"p5n0dcu5g533512;@=-;;;84@1e  ......  attt5at3e3:e@928271ppu5121e",
"en2fmpfmfs0pp,015t23ve*8a8t  ......  m3a0z*t5;;3a$3354t>22338228",
"d8dxigdda9u3us3t@38kd338:es  ......  ;388t2223:*ti#2389e;;1350>1",
"e0naxlaxd;,4=tdp8,9:><d;o>,  ......  duti0e38pp,a3@;2af3t:p0$t$e",
"pplxt8atry<qqtyq9g8sgqyfq0-  ......  lxnef3e:78xs38,ee3er30;d2t:",
"i3e5et2ae5;wq97<d,t#>>d8q8y  ......  S3pt8333;2;;te,8pn0338r;;;>",
"333t;$;2t5zt8q8g8y8>7>q,#zt  ......  39s7t9k293a5q;cl*05a-3@%*e5",
"t8eu&;t,832e,yo0yy92,tq8=9=  ......  t333;ee505ivat9vmnf0n5d8p:$",
"2&3s5pq8,qC*7,w0>8;88p,wq7y  ......  9277uu899et8mvc;p*f8f;78331",
"75y713;>twy,s<q>788q028q9>8  ......  08e2p8eu8p3dt3t0554d3upnu38",
"d220;$8e3d9570q788;,8q=>87w  ......  a20p129s0eissa9easSfup232n0",
"wap2,98>7hty0v7-,87q7t=807q  ......  vqt32swdtae38p3sps3;pp90405",
"0qe89itfwqs8w77d7,q8qq>8<8>  ......  tVw-tty0ff059ptaauade3e3ts>",
",eeqew59w,-yq8w%s,,qq,>7,t,  ......  yt4t99Baa0v8i55d98ppe31t572",
"Vedyt:y4y>s0qd00qqq0,wd,,,d  ......  zVatwwtfe5ied1ua8ya5%2e1p35",
"dBtq9wwbqg-,gws70ww0%s>,vqs  ......  8yx8sfxs99ye8dket88589,p9$8",
"dyy7,>9sgwwgZdww7g>70qz,0wt  ......  d99tt9tddtit3v887s3yy9t0p22",
"xtkyyq9ygzd0swbzws-yyz00sVd  ......  7ed99,shd0xtkteqawdd5dz5tad",
"zeBww4stwwwbZwggh>0wvzbg8dw  ......  iysBsydtyefCtlrtyBvzbg>dvmt",
"sDsxzqszvnzB,dvzqys80wt<gVw  ......  vtD<t8qd,vtCnvmxwBxxdfbnCBz",
"3Dvdbc8zCVcdnvbdddzmZnhvv=s  ......  kt-dy8dsB8VkCMfhb8Bhabvnbgw",
"FzVDdwvtBzzzzZBzyxswvvBhzVB  ......  8ws<dzCzBvbxfJSds8nybyvdbvZ",
"cgbGHwp<zdndBsVvDvwHzgzhzzV  ....K.  qyfqpq,mfwdVkyvzBhyvBsMzngn",
"vCnavdzmtzgtbgBbZyaVyzazwCt  ...K..  sbvh<gd<Bzckz4tzVtazzdbbgvy",
"bnh7tbVqdbdzgABBvxxzbwkvdbV  ..K...  zy8dtyzt7tp7zgmd,yyvgzmZzwg",
"bqyfms70sbdyVBdtfdvkkVfwhsA  .K....  yy80qvzzdswnady4zf9gzgzywbw",
"dvvxd8cdwygngdqAazVCgwdBgqA  ......  z0Bwpswmd7vtqd7svd8wdwqpst,",
",8edqnzn0wygwdww95ttmydz8sy  ......  dybyt788y,gd0dq>>wq078>,9y8",
"94v4t7azw00,sgwt5deikgk0cnw  ......  wds7fOtp8s08qy+,<#8,09=t2>8",
"qdyk9at78wwgdtvw41tzgtzwavC  ......  BA>eedfB8kg7s87wt90877;+s80",
"pwv8qqtv08gBtwdqv08wvd9adzw  ......  qydp8wq0qdw%0<y>09tsqww80X0",
"tt9,8qteitplf8fr8a5w9qadqyw  ......  >>>2yfedApssq,0,8p<28>s8s+>",
"k5dkt-3xsaxitdvraekybdyxqkf  ......  h,dfM,3Az>7dw,,pd8q7td2,#7>",
"stpzy3212apfniavt80h0ynwddt  ......  zx-ksGazdwBz%,#y>8,7q8=y8q>",
"eey9t4ete3ipdgiaqaq8<wzk9v<  ......  adzcdnt,syps8qt7770qyw<888#"
};
