/* XPM */
static char *_7e118dbfbf243709efa30e5e2ac8908NsPHSGkOZq2MpUw0[] = {
/* columns rows colors chars-per-pixel */
"64 64 122 2 ",
"   c #ED1C24",
".  c #978986",
"X  c #948F8C",
"o  c #9C8D88",
"O  c #96918F",
"+  c #9C938D",
"@  c #9D9692",
"#  c #9E9996",
"$  c #9F9B99",
"%  c #A1948C",
"&  c #A2998F",
"*  c #A19692",
"=  c #A89791",
"-  c #A49B94",
";  c #A99D95",
":  c #A49E9A",
">  c #AA9E99",
",  c #B09F98",
"<  c #ABA096",
"1  c #A6A19D",
"2  c #ACA39C",
"3  c #B1A59D",
"4  c #B4A99E",
"5  c #B8A89F",
"6  c #A6A3A1",
"7  c #ACA5A2",
"8  c #ADA9A5",
"9  c #AEABA9",
"0  c #B2A6A2",
"q  c #B8A7A4",
"w  c #B3AAA4",
"e  c #B9ADA5",
"r  c #B3ADAA",
"t  c #BAAEAA",
"y  c #B7B0A7",
"u  c #BCB1A6",
"i  c #B5B1AD",
"p  c #BBB2AC",
"a  c #BEB5AD",
"s  c #BDB6AF",
"d  c #BFB6AE",
"f  c #B5B2B0",
"g  c #B4B3B1",
"h  c #B5B3B2",
"j  c #B6B5B3",
"k  c #B8B3B0",
"l  c #B9B5B1",
"z  c #B8B5B2",
"x  c #B9B5B2",
"c  c #BBB5B2",
"v  c #BDB4B0",
"b  c #BEB4B0",
"n  c #BCB7B3",
"m  c #BAB7B5",
"M  c #BBB7B5",
"N  c #BFB7B4",
"B  c #BFB8B1",
"V  c #BEB8B2",
"C  c #BBB8B7",
"Z  c #BCB8B5",
"A  c #BEB9B4",
"S  c #BDB9B6",
"D  c #BBBAB9",
"F  c #BFBBB8",
"G  c #BDBBBA",
"H  c #BFBCBA",
"J  c #BFBDBC",
"K  c #C0AEA8",
"L  c #C0B1A7",
"P  c #C5B7AB",
"I  c #C0B5AD",
"U  c #C2B4AD",
"Y  c #C0B5AF",
"T  c #C1B6AF",
"R  c #C8B3AD",
"E  c #C4B8AE",
"W  c #C5B8AF",
"Q  c #C2B6B2",
"!  c #C2B8B1",
"~  c #C1BBB5",
"^  c #C3BBB4",
"/  c #C0B8B7",
"(  c #C4BBB5",
")  c #C6BAB5",
"_  c #CABCB5",
"`  c #CABDB5",
"'  c #C0BDB9",
"]  c #C0BDBB",
"[  c #C3BDBB",
"{  c #C5BFB9",
"}  c #C0BEBD",
"|  c #C9BDBA",
" . c #C4C0BC",
".. c #C5C1BE",
"X. c #C6C2BE",
"o. c #CBC2B9",
"O. c #CAC2BB",
"+. c #CBC2BD",
"@. c #CBC3BF",
"#. c #D3C4BD",
"$. c #D5C9BF",
"%. c #C5C2C0",
"&. c #C6C2C0",
"*. c #C4C3C2",
"=. c #C7C5C4",
"-. c #CAC5C2",
";. c #CFC7C2",
":. c #CDC8C6",
">. c #CFC9C6",
",. c #CCCBCA",
"<. c #D6C5C1",
"1. c #D2C8C2",
"2. c #D0CAC6",
"3. c #D2CDCA",
"4. c #D6D1CE",
"5. c #DBD1CB",
"6. c #DED2CB",
"7. c #DBD1CC",
"8. c #D6D3D2",
"9. c #DAD5D1",
"0. c #DCD6D2",
"q. c #DCD6D5",
/* pixels */
"x 4 p d - d F 2 g r > t u - + < d < p 2 1 < 3 r 1 1 2 1 < 2 $ ! d d ' Z N j D r i 0.r r 1 d ~ w =.1.N M r 2 < 3 i 1 ; w ; 1 2 6 ",
"2 t 1 ; w - - 8 7 w d j 8 3 n 2 < 1 7 8 2 9 1 6 1 i 1 1 9 d r 2 F d e P Q F w r e 8 6.) d 5.w 2 $.! : 0 ; 2 3 1 1 < $ 1 < 9 1 1 ",
"2 1 < $ 1 1 i 2 6 u Z ^ y 2 2 2 y 2 n r i 1 i # 2 8 + 8 1 y o.< p ~  .{ >.Q g M ^ d X.2 d w 0.! P p q p 3 2 1 - - < < 1 1 - d ; ",
"- - ; < 1 1 - d 2 i 2 Z y P 8 r < 1 r 8 7 r 7 8 2 < 1 4 @ 1 d o.X.%.>.d t { n < 3 O.w n F j %.2 1 r t g 9 - 7 8 j < d 1 2 @ 6 Z ",
"7 g < ! 1 2 @ 6 Z n e B i 4 r 2 e 8 : w i y 2 i 3 1 8 1 i # 1 u e X.+.>.M u 0 x r d y u p d y j x w < w 2 6 y i $ 8 + 7 < i 1 i ",
"i $ 9 + 1 ; i 1 i i u p e d r F : 7 : * Z 1 w < 1 1 3 y 1 8 3 8 j ` r p e r u Q -.B ~ 2 j d  .Z 2 3 i 8 ' j ; p x p i 2 8 8 i 4 ",
"i x p r 3 8 w u 8 ! x d x 8 2 9 2 p ; 4 i ' 2 2 y < 1 1 2 : i 1 r 4 ` p d ! u r d X. .u p e j r r r 2 y 8 d ' w @.t >.x Z i 2 y ",
"u O.e 2.j F i 1 i y w i n d d w + B + u w & 4 T 2 1 8 1 B y 9 4 i w u ^ d ` i 8 i d  .i D 2 u 2 j t i 2 8 < w ` +.P B ^ u r u 8 ",
"! +.E B ^ u r u 8 T ~ 2 -.Z ! 8 y 9 p w 2 & i ! - - 8 u ) ;.y =.Z } j 3 ! X.;.x i u n n i u i t F y d 7 2 w 2 p 8 w ~ X.t ! x T ",
"p 9 w !  .y E n p 8 y r X.8 d T u x i 2 1 - 8 7 - 8 8 r 1 y t r x d 4.@.y F j d F  .T y u u e w n x u < w Z y i 3 ) 9 Z ^ u 8 F ",
"i 0  .9 ! ` p 8 } d y ,.X.d 6 2 X.p y ;.2 i 4 i 8 w 8 r 1 d 8 d 3.e -.x d 6 2 4.d y d t y p i ) y y - 7 T 2 i w =.2 Z -.i F ) F ",
"w X.2 Z -.r Z ` F y +.y E u O.g y E X.4 i 8 8 1 T w ,.2 p ! J y X.d i T 2 y X.B i y F i d x B 2 y w  .u 2 d 7 d 7 j ^ y Z d n d ",
"d 7 j ! i Z d B p d i i r  .j i ` 9 2 8 2 w & r 1 1 2 Z e 9 u 2 p -.1 i u T B O.i d g 8 y x Z r y J u 1 d u < 8 9 X.u ! d j ~ d ",
"8 w F d ~ d n Z B y u w j i Z r u 8 8 j d r i i 1 ; < w w ~ e w t i ~ y 8.y u ' 8 ~ d  .< i d n < j 2 8 5 1 i i i ! ~ t 2 d r e ",
"i i ! ~ t 2 d r r r d D y - y 2 d F d i 8 i t 9 9 9 9 < t i 2 +.7 8  .T F d X.M n  .3.1 n T w y j 7 d 7 w g y u 2 w w w r : d 9 ",
"u 2 w w 4 r : d 8 B t 2 4 2 8 p 7 D 3 2 Z i i 3 3 %.; r d 9 2 >.e 4 p u i B X.d y F  .2 X.j y y y x y i 4 8 r 2 3 2 9 - - - 2 r ",
"2 2 2 r - - : 2 y y y Z d r d 1 < r < t < 2 < Z 2 8 8 1 8 d  .1 < j < 8 x 3 j *.u y  .< 4 d  .X.p < 2 9 7 r 1 w 9 w r % ; w : 7 ",
"t 9 w r % ; 9 - 3 ~ y x t 1 y 8 4 - 9 9 ; r w j + # 2 < F 1 2 : 2 ` y O.d p  .F B r d u 4 w i y i 8 7 w 1 1 - 1 + < p 7 g w 7 < ",
": % 2 i 3 j 0 7 2 w 8 4 p i 8 7 < y 1 p 0 9 2 r 7 7 9 < 2 2 - ~ y i p d =. .2 4 ~ 7 u 9 y - 1 d i e 2 7 2 2 & 8 0 y 7 < 2 * 1 r ",
"2 7 i 7 < 2 # : i 8 3 y 8 8 1 8 i r 6 6 7 w 7 7 6 # < 2 - 1 4 B 8 r 6 x y 3 d =.2 r 1 u 8 p $ B 2 1 < - 1 - - n 1 - 9 - & 8 r 7 ",
"3 t 1 - w ; - 7 6 w 6 7 r x i w 8 e 1 - 7 ; < w 3 2 1 4 @ p < p 2 d 2 8 y 1 2 d - y < r 4 p 1 4 8 2 < * 1 9 8 w x 9 2 - 8 7 - 1 ",
"2 2 2 $ : 2 r 2 1 8 8 y y w < + w 7 j 9 2 t r w 1 O O 2 2 1 i - B i < i ` i Z i w w 1 2 < 4 2 8 2 8 8 i 3 $ i 7 t u 6 8 t e Z r ",
"- - ; ; 1 1 - Q < 8 2 r 8 y 1 r 9 w 7 d w r 7 : 6 y 2 r + ; 1 w r < y X.2 p y 8 2 - * u 2 1 8 i 9 < i 1 4 B 1 r T Z Z X.Z y r 4 ",
"8 j 2 ! 2 2 @ 6 Z 2 4 d 8 x 1 < j u : 7 r - : p 3 + 9 - 7 * 7 d i i y w i B p u 2 y i 8 8 w p 8 w + 7 w 2 1 2 B u ) 9 Z y X. .t ",
"i $ 9 + 2 < i 6 i 3 j 2 < Z 1 $ 6 1 w 2 w = 2 r r j i #.1 r ^ e 9 i i i ` 4 i y 2 i y 2 - i 8 2 i 8 2 r - B 4 2 i 2 8 j 7 p 8 y ",
"y Z y i 2 8 8 u 8 8 < < p # 7 Z                 D e     i 1 * 2     d 8             +.w                     2 Z 8 8 w d 3 p i 2 ",
"e +.u :.j F i 2 i 2 3 9 1 w 2 i                 < 9     8 Z i n     u u             8 ;                     d ; w ^ 8 u 8 4 3 2 ",
"! +.E B ! u r u 8 8 < i 1 8 9 3     i - 1 r < 7 { '     i # t X.    1 t i u     2 1 ; d 1 w w -     2 r 2 w 1 1 2 y 2 y w  .j 8 ",
"x 8 w ^ { r ` i p 2 d ; < 8 2 i     p 2 2 1 4 - 2 :     t < 7 j     ^ E 8 i     7 y 2 8 t r 1 1     + 8 ; r t r =.4 4 d ^ d - 2 ",
"p 2  .9 Z ) p 8 ' w 2 2 3 2 2 -             7 < + < w <         - ! r 2 < d     p w p y < w 2 <     8 1 7 1 1 < i r r 4 < 1 < e ",
"w %.1 ^ -.i Z ` B x r i p - r <             - 7 Q 0 i x         r i 2 r 4 +.    8 A * r 2 ; - 2     2 2 0 3 e 1 1 1 2 2 9 - 1 7 ",
"d 7 j ~ t Z T B j 7 w 2 i i 2 9     9 p Z < w 7 - 0     8 @ r 3     T r j #     1 i 1 1 1 2 < @     # 2 < 7 9 r & - < < 2 8 1 1 ",
"w 8 { p ^ d g ^ p - > > : r t k     7 > : 3 v : O :     * 0 7 /     7 r 7.T     u 9 w 2 7 i i <     + - 1 u Z 2 i ; i 8 # w - 9 ",
"i i ^ ! t 7 T w e t 3 q 0 r t 0                 2 w     7 > t >     0 r             2 8 ; 7 2 N     7 2 r w 2 w e 2 r : j 1 r - ",
"u 7 w 4 w 9 2 N w 2 ; q 0 9 6 ,                 0 7     : t q 7     r >             2 2 2 - 1 -     q : 7 r X.w 2 3 7 e - - ; : ",
"2 3 2 9 - - - 2 i 3 ) r : 0 7 C 7 g 7 : 7 * w > * / r > 9 7 6 9 u : 0 0 2 7 7 g 8 8 8 d 1 8 2 d 2 0 - | d - r 7 p @ > + $ & t 2 ",
"w 9 0 i + ; r - 7 ; 7 w > t X 9 t r 7 1 > r 0 7 * q @ 0 6 q 7 * w r : 7 r r 2 2 2 < 4 w 8 r 2 u  .d r w F #.=.B r  .w d 8 r < # ",
"1 + 1 u 4 x 2 8 2 3 ,.= > > w 9 : 7 - 0 7 k = q q 6 r 6 6 6 7 * 7 r : - w 7 1 6 1 i i 2 7 7 e r 7 O.X.! ; r * Q 7 j - 6 3 2 < 1 ",
"7 0 i 7 ; 2 - 1 r 0 r - j 7 0 > > 0 7 0 9 1 0 7 0 : 7 7 > 7 * r w w x 8 9 8 8 w 1 i 3 w u 7 i 7 B 7 7 w 9 2 4 2 Z < y i X.y 2 8 ",
"N : : 9 @ - 2 r 2 p r w : r 0 6 7 7 : > 7 0 @ - 7 7 w + : 0 6 b 7 7 0 7 i d 1 8 i 1 1 8 j 9 w y j j d 8 8 n d >.j i x $ 7 2 ' 8 ",
"3 k r 7 : w 7 - 7 K r t 9 / 6 * > 7 7 0 6 q @ 6 9 6 0 * 6 , / 0 F -.t ' } | 0 w 2 > k 0 n r d w < 8 i 2 i i x 2 ; p y 8 8 2 9 8 ",
"w w w 6 w r r N r 0 g 7 q 7 6 v 6 > 0 7 7 q : 9 > 7 : 6 0 : 6 6 0 q [ w H r -.w > 9 w k r N M 8 4 8 i r i d t d n w 2 8 7 i i 1 ",
"> r w 3 q t w 7 0 = > K 7 8 0 : g 6 > 0 0 6 : 6 7 9 > 7 6 r 0 : = Q t 8 / t r 0 r 0 0 *.d i 9 { 7 u 3 4 x 8 2 i i w 1 < y 3 2 1 ",
"-.w N t r ; r 3 t : g 9 0 Q 9 9 0 0 9 7 > q n > > = c : f p *.q j / w Q t / -.t g q r r Z w 3 t w x < y p w i i 2 - 2 y 1 p 2 3 ",
"Q %.9 q 7 q e ) 0 / > > G 0 t 6 9 q q 9 * g = 7 } 0 g t j t 9 q Q k 7 0 0 7 t / 7 r C / k w 7 p t 8 M d 9 w 7 7 5 7 8 - j 8 # 7 ",
"j t p 7 > : 7 g / q q b ,.b q t 6 / : 6 9 0 S ; 9 t q g 0 6 b q q 0 r v j v 9 0 g r r w v c r p w < ^ 7 7 7 x 2 e r r r 8 i < 1 ",
"Q r t t r 0 r t / / / 9 b w | C q j = t t / 9 9 g -.C 0 S 0 > g r w 2 1 t 6 q v 7 7 > g v j 0 ) r d r w q t t g x 2 n ) q r i x ",
"^ w %.q w 3 p r q 9 q / ,.q C / K 6 9 q } R | / 0 v q | 0 0 j :.Q w 9 2 r t g g %.g t n r t 0 / >.r Q e r r %.| ) | } : p ' +.r ",
"r 8.r S Q 0 r / | | / -.> D / / 0 t k 7 0 t r , C @.0 / Q t r Q t *.f 0 t S r 4., w 7 0 S > / t ,.+.^ -.) w } [ Q Q N ) -.-.*.S ",
"7 3.J N +.) 7 / ,.-.| t | } | Q v k Q -.,.*.K / [ @ c / t 7 [ -.r j [ / 0 Q 9 = ) k 2 k c } 7 -.I =.#.M t | 0 } Q t ) [ %.| [ q ",
"3.) <.3.n q -.r *.) Q Q Q ,.*.Q t / f 0 / / -.R R =.*./ Q *./ * t S / 0 f 0 q k 0 f k 2.Q *.N %.Q Q q.>.v g 7 [ t | t } k | / ,.",
"| F } 7.8.0 t > Q k [ k -.r -.J 3.[ t 4.v / / Q / Q -.| -.) Q / | ,.| t t 0 t C 0 t q ; -.C q v -.p t { Q %.Q t N *.c <.N -.S -.",
"| -.' v [ v ) ` t / } r | C %.| 3.k I -.t Q t ) 0 ,.r -.[ Q / / -.} K t / t | } t , } j > %.Q | E S 0 0 ) *.r c / Q S | | } / K ",
"| *.T > r ) -.0 v / n v F 1.*.*./ S Q ) _ t t } v <.-.*.Q | r ,.v -./ -.} / t 0 k w K / g 7 r t 7 I F -.v > t t [ S Q | -./ 0 H ",
"| 7 t ) -.M : r g / C t | *.v j M c ' Q I 1.C q K f <.| t S q R *.) / -.S t t w 9 0 [ Q I Q v r %.p k t 7 Q S 7 } Q S Q t q | t ",
"j | Q } N 7 N M q K H | H Q 0 ,.t Q 1.-.F q v *.j 0 <.| +.v *./ 8.R / ,./ N 7 } q t k w +.g 6 / w 0 M 7 v / N 7 q p r 0 j t r > ",
"> 8 w g 0 J Q +.r q t C 0 M w q 8 8 w r +.t C ) 9 k t -.K r 0 j q.t t / q b t | t r 7 6 7 g > ' C 0 v 6 * : 0 8 9 7 7 : * 7 t 7 ",
"0 3 ' 3 r 7 p N t 9 8 0 k / r t 4 d w u Q F K w / | q / t g -.K / / b r / t C g > F o r t 0 g r 6 9 t @ > 0 * 6 : 9 w - f 6 : 7 ",
"0 n t d 9 t e 6 6 0 t / k r { w 2 2 r N M r ^ r Q | -.v v w 0 / = | v S / H <.: w w k x %.7 n } 7 g 7 > q t w 9 0 7 6 - + g 7 9 ",
"t r { 2 0 w r } 0 7 J J r w p q ^ 9 3 q F x w p t N r } / Q t 0 b g t 0 7 9 q C i 7 t 0 9 0 k 0 : 9 0 i $ w 0 r k 7 q 0 6 9 . 9 ",
"r w 9 ; 7 0 r w i r i E H 2 N e 7 i 4 e r 0 Q k 0 t q 0 I 3 , ) I K k v q : : = 1 p Z q M <.g t g 9 > 0 > 7 r 7 : 8 : g 7 g @ * ",
"K q Q Q r ; 2 Q u B ! u r N ^ e u r T t [ k e / 0 Q k q ) 7 C > r t 7 t <.Q ; k Z <.> 2 1.S 1 0 t q > 6 v j 2 0 7 p g 6 : @ 7 : ",
"p w i Z p 2 > 3 : p i B ^ t d ' r 3 9 t 0 t -.3 k N t w t q 2 ; 7 2 r Q > ) [ = I r 5.Q Q k 0 *.Q : > @ t > 8 > 6 0 7 * t 7 7 : ",
"r w r 9 r 1 0 w w 7 i i Z n T n 3 Q 3 7 0 q ) t 0 } , 3 ) [ | 0 e k o ) Q t M Q | p %.r : t t 9 g 7 0 r 6 6 > 6 9 t q , 2 7 7 $ "
};
