/* XPM */
static char *result[] = {
/* columns rows colors chars-per-pixel */
"64 64 199 2 ",
"   c black",
".  c gray10",
"X  c #313131",
"o  c #3C3B3B",
"O  c gray27",
"+  c #4E4D4E",
"@  c #545454",
"#  c #5D5D5D",
"$  c #646464",
"%  c #6E6E6E",
"&  c #747474",
"*  c #797979",
"=  c #9A4306",
"-  c #9B4008",
";  c #9C480C",
":  c #9E4B14",
">  c #9E4A16",
",  c #A5460D",
"<  c #A44C0C",
"1  c #AA4D0C",
"2  c #AA530D",
"3  c #A54D11",
"4  c #AB4E13",
"5  c #A14F1E",
"6  c #B44E15",
"7  c #A65214",
"8  c #AC5314",
"9  c #AB5A14",
"0  c #A4541D",
"q  c #AC551B",
"w  c #A35A1D",
"e  c #AD5A1A",
"r  c #B25414",
"t  c #B85616",
"y  c #B45B15",
"u  c #B95D15",
"i  c #B2561C",
"p  c #B45B1C",
"a  c #BA5D1B",
"s  c #AC611D",
"d  c #B56117",
"f  c #BC6216",
"g  c #B5621C",
"h  c #BB641C",
"j  c #BC6A1C",
"k  c #A55121",
"l  c #AF5521",
"z  c #AD5C23",
"x  c #B25D23",
"c  c #BB5E24",
"v  c #B45F29",
"b  c #AE6426",
"n  c #B46423",
"m  c #BB6422",
"M  c #B56922",
"N  c #BD6B24",
"B  c #B3642A",
"V  c #B46B2C",
"C  c #BC6C2A",
"Z  c #BB742A",
"A  c #BD732C",
"S  c #BC6F33",
"D  c #BF7932",
"F  c #B87538",
"G  c #BC7C3C",
"H  c #C2631D",
"J  c #C36B1C",
"K  c #C4711D",
"L  c #C36724",
"P  c #C36C23",
"I  c #C26D2B",
"U  c #CA6E29",
"Y  c #C47325",
"T  c #C97424",
"R  c #C17A27",
"E  c #CA7A25",
"W  c #C4732B",
"Q  c #CA752B",
"!  c #C57B2E",
"~  c #CB7B2C",
"^  c #D17D2C",
"/  c #C47333",
"(  c #CA7433",
")  c #C47B34",
"_  c #CA7C33",
"`  c #C47D3A",
"'  c #CD7D3B",
"]  c #D27737",
"[  c #D27D35",
"{  c #D27D3B",
"}  c #C47F40",
"|  c #CC7E42",
" . c #D0822F",
".. c #C78135",
"X. c #CC8335",
"o. c #C6823B",
"O. c #CB843B",
"+. c #CD893B",
"@. c #D28435",
"#. c #D4843D",
"$. c #D8863B",
"%. c #D48B3D",
"&. c #DA8B3D",
"*. c #D7933E",
"=. c #C28244",
"-. c #CC8642",
";. c #CD8B44",
":. c #CC864A",
">. c #C58949",
",. c #CD8C4C",
"<. c #D38542",
"1. c #D58C43",
"2. c #DA8C43",
"3. c #D28D4A",
"4. c #CF914F",
"5. c #D59343",
"6. c #DA9544",
"7. c #DA9947",
"8. c #D59349",
"9. c #D9954A",
"0. c #D69B4D",
"q. c #DC9A4B",
"w. c #CF9251",
"e. c #CD9759",
"r. c #D59A50",
"t. c #DA9B52",
"y. c #D69B58",
"u. c #E5954B",
"i. c #E29C4D",
"p. c #DDA455",
"a. c #DBA65E",
"s. c #E1A34F",
"d. c #E4A354",
"f. c #E1A45B",
"g. c #E6A95C",
"h. c #EDAB5D",
"j. c #DB9E60",
"k. c #D9A365",
"l. c #E4AA61",
"z. c #ECB56C",
"x. c #F0B96E",
"c. c #9A8B87",
"v. c #96918F",
"b. c #9C948D",
"n. c #9D9692",
"m. c #9C9997",
"M. c #9D9B9B",
"N. c #A4998F",
"B. c #A09592",
"V. c #A59C95",
"C. c #A99D95",
"Z. c #A49E9A",
"A. c #AA9E99",
"S. c #B09F98",
"D. c #ADA197",
"F. c #A6A19D",
"G. c #ACA39C",
"H. c #B1A59D",
"J. c #B3A89E",
"K. c #A6A3A1",
"L. c #ACA5A2",
"P. c #AEA9A5",
"I. c #AEABA9",
"U. c #B2A6A2",
"Y. c #B8A7A3",
"T. c #B4AAA4",
"R. c #BAADA5",
"E. c #B3ADAA",
"W. c #BAAEA9",
"Q. c #B7B0A7",
"!. c #BDB1A7",
"~. c #B5B1AE",
"^. c #BCB3AD",
"/. c #B5B3B1",
"(. c #BBB5B2",
"). c #BDB9B5",
"_. c #BDBBBA",
"`. c #C2B4AD",
"'. c #C5B8AF",
"]. c #C2B6B2",
"[. c #C3BAB4",
"{. c #CABCB5",
"}. c #C3BDBB",
"|. c #CDBDB9",
" X c #C5C1BE",
".X c #CCC2BD",
"XX c #D3C7BF",
"oX c #D5C9BF",
"OX c #C4C1C0",
"+X c #CBC5C2",
"@X c #CEC8C6",
"#X c #CCCBCA",
"$X c #D1C9C4",
"%X c #D3CECB",
"&X c #DCD2CC",
"*X c #D9D5D3",
"=X c #EDEDED",
"-X c gray94",
";X c white",
/* pixels */
"(.J.^.`.V.^._.F.~.~.D.Q.!.V.b.D.^.D.Q.G.G.F.J.~.F.F.F.F.G.H.m.[.^.'. X~.^.^.).~.Q.*X~.E.F.^._.J.+XoX(._.E.J.D.H.E.F.D.J.V.F.H.K.",
"G.E.F.D.J.V.D.K.K.T.^.~.P.J.(.G.H.F.L.I.D.I.F.K.F.~.F.D.P.!.P.G. X^.!.`.}._.P.E.R.P.&X[.^.&XR.G.oX).D.J.C.G.L.G.F.G.M.F.D.I.G.M.",
"G.F.D.m.F.F.~.G.G.^.(._.R.G.G.F.!.G.(.E.~.F./.m.P.G.b.P.F.^. XD.^. X_. X@X).~._. X!. XD.`.I.*X^.`.^.U.^.H.F.F.V.N.V.D.F.F.D.^.D.",
"V.V.V.D.F.F.D.^.G./.H.).E.'.P.Q.D.F.I.I.F.~.G.P.G.V.F.J.n.F.`..X X XXX^.Q._.^.D.J..XJ.). X(. XH.G.E.E./.P.V.L.P./.G.`.F.F.n.K.).",
"K./.D.).F.D.n.F.(.).R.).^.J.T.G.R.L.F.H.E.Q.G.~.J.F.P.G.I.m.F.Q.R. X.X$X[.Q.H.^.P.(.Q.Q.).^.^./.^.P.Z.E.G.L.E.^.Z.P.b.L.F.^.F.~.",
"~.F.P.b.F.D.~.F.~.~.Q.^.Q.^.E._.F.L.F.N.).G.T.P.b.G.D.~.F./.~.!.^.Q.).~.}.F.L.[.XX). XD.P.b.F.D.~.K.~.E.Q.(.R.(.E._.F.L.G.P.^.J.",
"~.(.^.E.G.T.P.^.                    H.J.~._.D.^.Q.J.G.P.Q.                    ~.^..X_.!.^.~.G.L.E.^.                    ).~.F.~.",
"R..XR.@X/._.~.  # @ O # + @ @ %   ^.v.Q.T.N.J.Q.#X/._.~.  $ @ O # O @ @ %   ^.L./.^. X^.Q.@X^.}.~.  # @ O # O @ @ %   ^.!.T.Q.P.",
"]..X'.].[.!.  @ # & @ $ * $ o   Q.P.^.P.G.N.~.'.].[.!.  @ # & @ $ * $ o   ^.P.).~.!.).^.`.'.[.Q.  @ # & @ $ * $ o   Q.P.Q.[.^.^.",
"^.L.R.}.}.                    `.Q.).~.J.F.F.J.T.[. X                    !.!.).Q._. X[.Q.Q.[. X                    '.!._.[.^.I._.",
"~.H.}.I.].  # @ O # O @ @ %   G. X!.E.@XD.~.J. XI.).  # @ O @ O @ @ %   G. X^.%XQ.Q.^.Q. XP.).  # @ O # O @ @ %   G. X^.Q.[. X'.",
"E.OXX X +X  @ @ @ $ # $ $ *   /.X X .XJ.E.P.L.X X +X  @ @ @ $ $ $ $ *   ~.X X ^./.Q._.^.X X @X  @ @ @ $ $ $ $ *   ~.X X ).).(.^.",
"^.H.X X .   @ # & + $ * $ o   . X X G.T.H.T.N.X X .   @ # & + $ * $ o   . X X  X^.)./.~.X X .   @ # & + $ * $ o   . X X ^./. XQ.",
"P.P.X X .   # @ + # & % @ @   . X X P.~.(.E.E.X X .   # @ + # & & @ @   . X X  XQ.).Q. XX X .   # @ + # & % @ @   . X X F.[.Q.!.",
"/./.X X M.  & @ @ $ $ + @ #   T.X X ^.~.E.E.E.X X M.  & @ @ $ $ @ @ #   H.X X )./. X#XG.X X M.  & @ @ $ $ + @ #   H.X X P.F.^.P.",
"^.H.X X M.  # # $ $ + $ O @   ^.X X T.G.(.~.E.X X M.  # # $ $ + # O @   ^.X X ].Q.[. XD.X X M.  # # $ $ + $ O @   ^.X X V.M.D.^.",
"F.H.M.M.M.  # $ @ # O $ + %   F.D.E.A.T.S.G.D.M.V.M.  # $ @ # O $ + %   Z.G.I.OX^.~.}.G.M.M.M.  # $ @ # O $ + %   F.D.E.V.E.Z.L.",
"e y r y C z > 5 : = A I -.P L I | z S / c t L W W [ W @.X.@. . .N N N P g D t.O.6.O.b V A _ ` ) g ) A s M M 8.y.a.g.9.-.I { -.` ",
"m 4 H L x v > k 5 : g p ) W 1 W V 7 ' ( r a U P W { L I $.&.&.$...! ! ! X.o.t.` ` 2.s V Z g m h 9 N g 9 e 7 1.k.y.f.t.-.( ( ) ` ",
"m t # # = =X=X=X=X=X=X=X=X=X=X=X=X=X] L r h P # # { =X=X=X=X=X=X=X=X=X=X=X=X=X5.A &.9 M # # I =X=X=X=X=X=X=X=X=X=X=X=X=X( ' o.o.",
") W # # m =X;X=X;X;X;X;X;X=X;X=X;X=Xu f N Y P # # @.=X;X=X;X;X;X;X;X=X;X=X;X=XN y y h d # # i =X;X=X;X;X;X;X;X=X;X=X;X=X( | <.<.",
"D W # # i =X=X=X=X=X=X=X=X=X=X=X=X=Xy j j Q ! # # &.=X=X=X=X=X=X=X=X=X=X=X=X=Xj P y m h # # N =X=X=X=X=X=X=X=X=X=X=X=X=XW _ Z o.",
"` M N C g =X;X=X;X=X;X=X;X=X;X=X;X=Xj j j j ~ W [ $.=X;X=X;X=X;X=X;X=X;X=X;X=XN N y N m g g g =X;X=X;X=X;X=X;X=X;X=X;X=X/ 2.! o.",
"o.Z X.R Z =X=X=X=X=X=X=X=X=X=X=X=X=XY T T j ( W _ 2.=X=X=X=X=X=X=X=X=X=X=X=X=XP U N I N m g g =X=X=X=X=X=X=X=X=X=X=X=X=XC <.A o.",
"A <.) ~ Y h P N P N h m P T T J H f W j Q [ [ W X.2.[  .@.~ @.@.j h h h f j g m m g g g N h m m x c m a 7 8 t.t.p.g.d.1.C <./ O.",
"e C 7 7 ; # # # # # # # # # # # # # # 1 m U Q T %.2.# # # # # # # # # # # # # # e 8 d 9 g g g # # # # # # # # # # # # # # ' C D ",
"q 7 x q - M.M.M.M.M.M.M.M.M.M.M.M.M.M.< d P J Z X.- M.M.M.M.M.M.M.M.M.M.M.M.M.M.N N P P P j - M.m.M.M.M.M.M.M.M.m.M.M.M.M./ B A ",
"C n n g - - M.M.M.M.M.M.M.M.M.M.M.f t r f N T Y @.- - M.M.M.M.M.M.M.M.M.M.M.T P N L a f f y - - M.M.M.M.M.M.M.M.m.M.M.8.V -.W =.",
"n i c c q - - - - OXOXOXOXOX3 < p i 6 8 h W $.@.@.&.- - - - OXOX}.OXOXh s I h y h a 8 y p c 8 - - - - OXOXOXOX}.p.h.6.! C 2.) 8.",
"q 7 c x q r a < - - - - - v - 8 c r 4 4 L P X.X.X.$.Y 2.X.- - - - - e p 8 m r m h 8 m I N N N W z n - - - - - f.t.d.&.~ C #.X.,.",
"z v l q l 8 8 q , l 3 p , , 8 a 8 , , r h P Q ~ @.$.~ 2.~ @.! W N I g m c p N N W W I Y ~ Q N W j W g j Q C 9.g.p.d.i.2.I X...:.",
"                                                                                                                                ",
"G b B x m Z 5.X.O.A A W Z N _ j j f J j j j j H U H K K j K E T P W W W ^ <.<.X.7.p.t.< < 7 ; ; 9 s ; e 7 3 ; 3 = 3 9 < 7 ; 3 z ",
"G V B v m _ 9.X.O.%.) _ X.~ ~ T Y E K E @.K T T E J K @.~  .T @.P P P Q Q $.6.%.q.q.8.; 3 = ; i 2 9 q 3 i m 4 7 8 8 8 < < x 0 k ",
"` V S C m #.9.o.@.= OXOX}. XOX .K E E E E E E K K J T f K ^ - OX}.OXOXOXT W #.&.i.f.9.3 ; 3 3 ; 4 3 3 - OXOXOXOXOX< 8 3 i i ; 0 ",
"G S S n n - M.M.M.M.M.M.M.M.M.M.M.M.m.K T J ^ K J K - M.M.M.M.Z.Z.M.M.M.M.M.M.M.7.f.t.e 7 q q = M.M.M.M.M.M.M.M.M.M.M.M.M.3 : w ",
";.G B e - M.# # # # # # # # # # # # # T H H J J J - V.# # # # # # # # # # # # # 7.p.0.3 < 7 - M.# # # # # # # # # # # # # 7 z B ",
"4.-.b m - # # # # # # # # # # # # # H f u H H u f - # # # # # # # # # # # # # 1.7.s.7.W g g - # # # # # # # # # # # # # W N N C ",
">.} A W - - - - - W a H H h H P a u H H H a u u H - - - - - a P _ P $.Y J 5.9.%.1.5.+.! &.@.- - - - - $.] ( ' W ! 6.! .._ ! ) ( ",
"j.G o.V W -X-X=X-X=X=X=X=X=X-X-X-X-Xr r a t t t t 6 -X-X=X-X=X=X=X=X=X-X=X-X-X+.5.7.1.Y ..N m -X-X=X-X=X=X=X=X=X=X=X-X-X/ C / S ",
">.y.>.Z ) -X;X-X;X-X;X-X;X-X;X-X;X-Xm p r r a a a t -X;X-X;X-X;X-X;X-X;X-X;X-X+.q.8.%.C _ X.#.-X;X-X;X-X;X-X;X-X;X-X;X-X' C <.:.",
"F =.4.w w -X-X=X-X=X-X=X-X=X-X=X-X=X8 # # < 8 r 2 < -X-X=X-X=X-X-X-X=X-X=X-X-X5.# # %.N W W _ -X-X=X-X=X-X-X-X=X-X=X-X-XN # # } ",
"w.w.G V C -X;X-X;X-X;X;X;X;X;X-X;X-X1 # # / W m m g -X;X-X;X-X;X;X;X;X;X-X;X-X7.# # _ P ! _ ! -X;X-X;X-X;X;X;X;X;X-X;X-X_ # # 4.",
"F =.G o.R -X-X-X-X=X-X=X-X-X-X=X-X-X6 # # 3.D n ' ( -X-X-X-X=X-X-X-X-X-X-X-X-X6.# # +...p.x.a.-X-X=X-X=X-X-X-X-X-X=X-X-X<.# # k.",
"F G =.` *.i.~ O.q.8.j N j u y 1 y t 1 4 9 1.O.C #._ 8 C N n / S P U U L H &.u.$.6.d.5.1.8.p.a.a.*.;.8.6.P W o.G 3.-.8.' { ' ,.e.",
">.=.:.,.5.d.R ~ s.9.d y h a f r 2 t H L g X.X.I ( / e C C q / / J W L f J 1.2.%.i.s.0.9.r.r.l.z.%.;.5.%.Q _ +.A 1.-.2._ { <.,.k.",
"}.E.`.W.~.M.M.M.  # @ O @ + @ # %   V.W.W.].I.I.E.+XM.M.M.  # @ O # O @ @ %   C.!.!.A./.(.(.P.M.M.M.  # @ O # O @ @ %   A.W.W.).",
"].T.}.W.T.X X M.  @ @ @ $ # $ $ &   E.X X ].}.[.P.(.X X M.  @ @ @ $ # $ $ *   E.X X W.(.E.E.J.X X M.  @ @ @ $ $ $ $ &   I.X X E.",
"~.%X/.}.].X X M.  @ # & + $ * $ o   ).X X W.E.A.].+XX X M.  @ # % + $ * $ o   (.X X I.U.(.A.}.X X M.  @ # & + $ * $ o   ).X X [.",
"G.%X).(.}.X X .   # @ + # & & @ @   . X X .X`.].}.B.X X .   # @ + $ & % @ @   . X X A.(./.OXL.X X .   # @ + # & & @ @   . X X Y.",
"%X{.+X%X(.X X .   & @                     }.OX`.].OXX X .   & @                     (.@X].OX}.X X .   & @                     #X",
"|.).}.&X*XX X M.  #   @ @ @ # $ $ $ *   X _.].].{.].X X M.  #   @ @ @ $ # % $ &   X U.A..X_.Y.X X M.  #   @ @ @ $ # $ $ *   X OX",
"}.$X}.`.}.M.M.M.    & @ + & @ % @     OXW.[.W.].U.@XM.M.M.    & @ + % @ % @     +XW.}./.U.OX^.M.M.M.    & @ + & @ % @     +XW.`.",
"|.OX^.A.E.E.M.M.                    }.].|.U.`.}.(..XE.M.M.                    }.[.|.`.[.E.K.W.I.M.M.                    [.].{.(.",
"}.U.W._..XE.M.M.M.M.  M.M.M.M.  _.(.}.`.].+X).Y.`./.Y.M.M.M.M.  M.M.M.M.  _.(.OX`.`.[.`.].(.(.E.M.M.M.M.  M.M.M.M.  _.].}.`.`.T.",
"(.}.}.[.).I.M.M.X   M.M.M.M.U.$X  X .X@X).W.(..X(.U.I.M.M.X   M.M.M.M.T.@X  X |.#X).(.I..X/.F.E.M.M.X   M.M.M.M.T.$X  X .X#X).A.",
"A.I.T./.U.T.M.M.X   M.M.E./.T.R.  X E.E..XW./.[.U./.E.M.M.X   M.M.T.(.T.T.  X W.R..XL.L.L.W.A.E.M.M.X   M.M.E.(.T.T.  X T.E..XL.",
"U.H.}.H.I.L.(.].W.P.E.H./.).T.T.J.).T.^.`._.`.E.}.}.U.].W.(.OXW._.}.^.E.(.W.]./.L.).c.E./.L./.E.L.I.W.m.A.U.B.G.A.I.T.V.~.K.A.L.",
"U./.`.!.I.~.E.K.L.U.E.).).E.}.R.G.G.E.].).E.].T.^.}.+X].(.T.Y.}.V.}.].).].}.$XZ.T.T.~.)..XL.`._.K.~.L.A.Y.U.I.U.U.K.A.V.v.~.K.I.",
"W.T.}.G.U.T.E.}.U.L.}.}.E.T.^.T.[.P.T.Y.}./.T.^.^.].I.}._.`.Y.I.W./.W.U.L.I.W.(.E.L.W.U.I.L.(.U.Z.I.U.E.Z.E.I.T./.P.Y.U.K.I.c.E.",
"E.T.U.A.G.U.E.T.^.~.~.`.).H.).J.K.^.H.R.U.U.].(.Y.W.T.U.`.S.S.{.`.].)./.Y.Z.C.V.K.W.].T.).$X~.(.(.I.A.L.A.L.W.L.F.L.A./.L./.v.V.",
"`.U.(.].E.C.G.].^.^.`.`.E.(.}.!.~.E.'.R..X/.R.[.U.(.).Y.}.G._.A.W.Y.K.`.+X`.A.(.).oXG.F.$X].M.L.E.Y.A.A./.(.G.U.L.~./.K.G.n.L.V.",
"~.E./.).~.H.F.D.D.~.~.). XQ.^.}.E.J.I.W.P.W.OXU.(.).W.T.R.T.G.A.A.L.U.[.Z.].[.C.^.~.&X`.`.(.U.OX].Z.A.B.W.Z.L.A.K.I.L.B.W.L.I.Z.",
"T.T.E.T.E.G.T.E.P.G.Q.^.^._.^.^.H.^.H.L.U.Y.[.W.U.}.S.S.].}.|.U.W.~.c.{.`.`.(.].{.(.OXT.G.E.W.E.~.I.U.E.K.K.G.L.I.Y.U.S.G.L.L.m."
};
