/* XPM */
static char *result[] = {
/* columns rows colors chars-per-pixel */
"64 64 71 1 ",
"  c #5F4E2B",
". c #705623",
"X c #467347",
"o c #747474",
"O c #5D8F5F",
"+ c #ECEC67",
"@ c #978986",
"# c #9C8D88",
"$ c #96918F",
"% c #9C948D",
"& c #9C9691",
"* c #9D9996",
"= c #9D9B9B",
"- c #A1948C",
"; c #A4998F",
": c #A09592",
"> c #A59C95",
", c #A99D95",
"< c #A49E9A",
"1 c #AA9E9A",
"2 c #B09F98",
"3 c #ACA096",
"4 c #A6A19D",
"5 c #ACA39C",
"6 c #B1A59D",
"7 c #B4A99F",
"8 c #A6A4A2",
"9 c #ACA5A2",
"0 c #AEA9A5",
"q c #ADABAA",
"w c #B2A6A2",
"e c #B8A7A4",
"r c #B3ABA4",
"t c #B9ADA5",
"y c #B3ADAA",
"u c #BAAEAA",
"i c #B7B0A7",
"p c #BCB0A6",
"a c #B5B1AD",
"s c #BBB3AD",
"d c #B5B3B1",
"f c #BBB5B2",
"g c #BDB9B6",
"h c #BEBBBA",
"j c #C1B4AD",
"k c #C8B3AD",
"l c #C5B8AE",
"z c #C2B6B2",
"x c #C3BAB4",
"c c #CABCB5",
"v c #C3BDBB",
"b c #C9BDBA",
"n c #A1CBA2",
"m c #C5C1BE",
"M c #CBC2BD",
"N c #D3C4BD",
"B c #D5C9BF",
"V c #DB83D8",
"C c #C4C1C0",
"Z c #CBC5C2",
"A c #CDC8C6",
"S c #CCCBCA",
"D c #D6C5C1",
"F c #D1C9C4",
"G c #D2CDCA",
"H c #D6D1CE",
"J c #DCD2CC",
"K c #D6D3D2",
"L c #DBD6D3",
"P c gray89",
"I c white",
/* pixels */
"f7sj;sh8ai6yp3%3p3s4437q444436*zszxsfahasLar4sxrZFggy630y4,r,388",
"5y4,0,398rsdr5d5645y5q485a44qsr5hljlgvqrr0JxgJr4Bz>w455543=43q54",
"543=44a58ifxi555a5gra4d=50%08ac3sxhmAsagcsm6jqLllsws558>;3,45>s>",
">;,3443s5f5gij0i3=yy9y595,57*4jMmZAssms55M7gxgm55yud9>w9d5l44&8g",
"0d5z43&8fgtga7r97r47ii5i7404a*4ptmMAgiwfysstssadsr3q99yd=0%93i4a",
"a=0%44a4dipfpsig48=;h4i54<7i3069aMistipxZzx5fsms55a5nd,ufsa500s0",
"afsi50rp7mfsaa5q5s57ah35i4945<u1i5csszpysmvkiafaar9iujvtMiAfgy5a",
"pMtAfga4airiffsr%l$pr%rs5>94nfywsrpmsci0uzCzn5s7dia9u1ezMlxxiip9",
"zMllzpip9fx9mglqiqs74>az>>qixAiAhnzelvFfasfsisiigis45r7s0rgmixfi",
"s0rxmilfs0uymrajpga74>09>9ra4iryffHDuhdsgmxpii7igfi3ifia6myfcsun",
"a5mqgcs0nzuSmf95miiZ3a7d0r0r5s7sGuZfs99Hsisyijimai&ii5arm5gZyzbb",
"rZ4gZigcbsbuliMailm7a094s7Z0sxhaCfys9tbcaigfaff5i7ml5s9s5fgphzff",
"f5fgiggfsjydanbfc0505r;y444hp9i5uA3apsnbssdiiagiinz1ap3rrhszsdzs",
"0rmsxlsgsstrfyhepr0ffyai51570mpryumrGypm0msm4ifs5f9qt4aaacxy9zyt",
"algi8jrpifht<u9sgfaqayyqa03ys5M5qcsmsmsgmF5gg7adqswefis707wy1srd",
"507ry4srgy57<qu9hr5gir75C,yj05Ai7sjdmmsifm5maiiistyw9q555r><<5a5",
"75q><>4ypigsiss3a3y363g5ww49fm43g50M0aZsiv5rsmms64r9r4rqwi-,y456",
"0ri;,y19gpai4s=73qq,rrd&*43h<5<7mtpssmhsrspsiiyi60r<4<<-5d5dw855",
"%3a5ar85r57soq05a4prr6qq9y>553hs0osAc5rx8pos>4siy5096,96u955>4ao",
"7mszsfxssprof=7>q0>yrd%&4,h<5>5xo7m9fmspvos=7>qq,qra%*43h<5>5xo6",
"vsxsfzsssrot5shsiryyqyqr3ys9m90ois4pvgiyoi5shsaqytyqaq3ys4M9qo0x",
"IIIIIIIIIoIIIIIIIIIIIIIIIIIIIIoIIIIIIIIoIIIIIqIIIIIIIIIIIIIIoIII",
"IIIIIIIIoIIIIIIIIIIIIIIIIIIIIoIIIIIIIIoIIIIIIqIIIIIIIIIIIIIoIIII",
"IIIIIIIoIIIIIIIIIIIIIIIIIIIIoIIIIIIIIoIIIIIIIqIIIIIIIIIIIIoIIIII",
"IIIIIIoIIIIIIIIIIIIIIIVIIIIoIIIIIIIIoIIIIIIIIqIIIIIIIOnIIoIIIIII",
"IIIIIoIIIIIIOIIIIIIIIVVVIIoIIIIIIIIoIIIIIIIIIqIIIIIIOOOnoIIIIIII",
"IIIIooooooooOOooooOooV=VooIIIIIIIIoooooooooooooooooOOnOOIIIIIIII",
"IIIIoIIIIIIIIOOOOIOVV+++VVIIIIIIIIoIIIIIIIIIIIIIIIOOOOOoIIIIIIII",
"IIIIoIIIIIIIIoIIOOVV=+++=VVIIIIIIIoIIIIIIIIoIIIIInOnOOIoIIIIIIII",
"IIIIoIIIIIIIoIIIPnOVV+++VVIIIIIIIooIIIIIIIoIIIII.OOOOIIoIIIIIIIo",
"IIICoIIIIIIoIIIPPnOnnV=VIoIIIIIIomoIIIIIIoIIIII..nOnIIIoIIIIIIoI",
"IICCoIIIIIoIIIIPPOOOOVVVIoIIIIIoCCoIIIIIoIIIIIC....IIIIoIIIIIoII",
"ICCCoIIIIoIIIIIPPOOOnnVOOoIIIIoCvCoIIIIoIIIIIhC ..IIIIIoIIIIoIII",
"PCCCoIIIoIIIIIIPPnOnnOIOIoIIIoPCCCoIIIoIIIIIPCCCCIIIIIIoIIIoIIII",
"PvCCoIIoIIIIIIIPPOOIIOIIIoIIoIPvCCoIIoIIIIIIPCCCIIIIIIIoIIoIIIII",
"PCChoIoIIIIIIIIIIOIIIOOIIoIoIIPCCCoIoIIIIIIPPPPIIIIIIIIoIoIIIIII",
"PCCvooIIIIIIIIIIOOIIIIOIIooIIIPCCCooIIIIIIIIPIIIIIIIIIIooIIIIIII",
"PCCCoooooooooooOOoooooOoooIIIIPCCCooooooooooooooooooooooIIIIIIII",
"PCCCCCCCCCCCCvXXCCvCCXXCIIIIIIPhhmCCCCCCCCCCCqCCCCCChIIIIIIIIIII",
"PCCCCCCCCCvCCXXCCCCCXXCIIIIIIIPCCCCCCCvCCCCCCqmCCvCCIIIIIIIIIIII",
"oooooooooooooooooooooooooooooooooooooooooooooooooooooooooooooooo",
"PPPPPPPPPPPPPPPPPPPPPIIIIIIIIIPPPPPPPPPPPPPPqPPPPPIIIIIIIIIIIIII",
"IIIIIIIIIIIIIIIIIIIIIIIIIIIIIIIIIIIIIIIIIIIqIIIIIIIIIIIIIIIIIIII",
"IIIIIIIIIIIIIIIIIIIIIIIIIIIIIIIIIIIIIIIIIIqIIIIIIIIIIIIIIIIIIIII",
"jC0w9eebwh:1hed1qeww:u<1C9dydeqezu9ww9uz4uhzdw9srqdzryq9790>d9>9",
"fuf81:qyzwezAfeu1v=809z1euua99fewwyfdfq0dyywffysr5x998a5utqdqa<<",
"hykuaeeuhbzqdeZfed,jufqqdCgwze9yay1<u8ws9q1dsfqxrlyrwuudf6fzwusg",
"zehue1daeqwbSedfk8qwCkCv0feCwwfAfyy1ussdCdufyy7xAyztyumbzbv<dvby",
"aHavzwahbbzZ<fhzwuf9eua1zZefkfqzuCd9uvyS1y0wf1zuSCxMc0mvzffbCACz",
"9Svdmx9zCAvsbCvzffzCSCezC:dhd9CCydhz9su>zu2dfvqZjZZxub9mkscCCbve",
"HzZGfemeCzzzzGCzuzswhvCkzZZzzCz:uhzwd9es6dgFfCbCvxLFfs9muCuvuMvS",
"bhcJKeu9zfZfSyCCSvuKfzvjzzZbbbfvbAbjuwufwue,mh0fZsubfmjuzCfNgmgC",
"vFmsCjzbuvCyvzZCSsfZuzuzeSaCbzhfZCjuzsbCu6vdwCsbjg60zZyuvsfbMCzu",
"bCu1ycAwdzfszZCCvzzzbezvuZZZjCeSzCzCCzywgytzy8uu9jvCf1uuvvjbSzwh",
"b9uhCf4ydcfuZCfyzfvzjZgejdDvehezCbvCfdu0qwcfjffevsdtwzhqhzvhuebe",
"fbvzf9xfwuhbhfeGdzbAgtfmfwDbDfCzKkzSzfqCeudeCf8hywg9uvf9eu0edu09",
"1qrswCzbqesgefwer0ryMssz9duAj0qfLuzzefdbuq980u1hf0f4:<w9q09=>0r0",
"96v6y8sguqq1fhyy7srsjhjyxbezusCuzvuyfuzd1h#ys9dy0ye&1w:91qy:u819",
"wfssquy89euhgybe55yfgyzysCAffeez:CzfzCD=rrafC9sh8d01uyq0981>$a8q",
"urv5wryvw9hhyrswzqrevdrsuzyhvsueudue8qeza9uwqwfe<qwy<wwyf0ew9q@y",
"yy9,5wyrarilh5gp9irtywzdeuewj61xujgfe:<<8sgrfFsfd01018u6881d9d$>",
"j7gly,5zsfljrfgtsrltbdtxwfgrx9h1uu4uDz1zfB15Dz=9ue11ss999af<1*q:",
"aydgs5434sagmismrrqu9uZ6ffuete9195yz1zc>jaJjzdwCz<1&u<914q9:u50<",
"reywy5ryr5sasgss6s69wexu0b25zcbwys#cjuffbsCy4uyyd0wy88900ew299q&"
};
