/* XPM */
static char *result[] = {
/* columns rows colors chars-per-pixel */
"64 64 63 1 ",
"  c #4B4545",
". c #7B94C4",
"X c #8F8484",
"o c #948F8C",
"O c #96928F",
"+ c #9C948D",
"@ c #9E9691",
"# c #9E9996",
"$ c #9D9B9B",
"% c #A0948B",
"& c #A4998F",
"* c #A09693",
"= c #A89791",
"- c #A49B94",
"; c #A99D95",
": c #A49E9A",
"> c #AA9E9A",
", c #B09F98",
"< c #ACA096",
"1 c #A6A19D",
"2 c #ACA39C",
"3 c #B1A59D",
"4 c #B3A89E",
"5 c #B8A89F",
"6 c #A7A4A2",
"7 c #ACA5A2",
"8 c #AEA9A5",
"9 c #ADABAA",
"0 c #B1A6A2",
"q c #B3AAA4",
"w c #B9ACA5",
"e c #B3ADAA",
"r c #BAAEAA",
"t c #BDB1A7",
"y c #B5B1AD",
"u c #BCB3AD",
"i c #B5B3B2",
"p c #BBB5B2",
"a c #BDB9B6",
"s c #BDBBBA",
"d c #C1AFA9",
"f c #C0B1A7",
"g c #C2B4AD",
"h c #C4B8AE",
"j c #C2B6B2",
"k c #C3BAB4",
"l c #C9BBB5",
"z c #C3BDBB",
"x c #CABDBA",
"c c #C6C1BE",
"v c #CBC2BE",
"b c #D5C5BE",
"n c #C5C3C3",
"m c #CBC5C2",
"M c #CDC8C6",
"N c #CDCBCA",
"B c #D6C5C1",
"V c #D0C9C6",
"C c #D2CDCC",
"Z c #D6D0CE",
"A c #DDD3CF",
"S c #D6D4D3",
"D c white",
/* pixels */
"p4ug-us6yy2et<O<u<u<1<4y1111<4  XDDDDDDDDDDDDDDDDDDDDDDDDDDDDDDD",
"2e1<q-<26quyq3p241191i-61y1<qy  XDDDDDDDDDDDDDDDDDDDDDDDD$DDDDDD",
"11<$:1y36yakq222u<aee7e#48&96y  XDDDDDDDDDDDDDDDDDDDDDDD$$DDDDDD",
";&-<11<u<p3pyh8e<19989871<12#1  XDDDDDDDDDDDDDDDDDDDDDD$D$DDDDDD",
"8i<j11@6aawku4q2q8<4ey7e2167y&  XDDDDDDDDDDDDDDDDDDDDD$DD$DDDDDD",
"y:8+1<y1yetpwuez18$&a24<114y<8  XDDDDDDDDDDDDDDDDDDDD$DDD$DDDDDD",
"ypue34qy4aatu929<t24ya<2y<616#  XDDDDDDDDDDDDDDDDDDD$DDDD$DDDDDD",
"tvwMisy1yyqyuihqOhOuq&wu2-81ay  XDDDDDDDDDDDDDDDDDD$DDDDD$DDDDDD",
"hchahtqt4aa7cah9t8u48&ya&-9tlM  XDDDDDDDDDDDDDDDDD$DDDDD$$DDDDDD",
"i4qhc4ciy4t9c4yhwae41#86<88e<y  XDDDDDDDDDDDDDDDD$DDDDD$.$DDDDDD",
"i4c9hkt8cutNnu67ctqM2y4i88791u  XDDDDDDDDDDDDDDD$DDDDD$..$DDDDDD",
"qn4scyhcaycthtvyqcc4e94<u5N3uk  XDDDDDDDDDDDDDD$DDDDD$...$DDDDDD",
"u7ahtaaayhyiysuic8<43q&e112sw7  XDDDDDDDDDDDDD$DDDDD$....$DDDDDD",
"49cykuuauttqiyaqt88pawye2124qz  XDDDDDDDDDDDD#DDDDD$....D$DDDDDD",
"yyhhq8hetyusq#t4pzuy9ee99y8<eu  XDDDDDDDDDDD$DDDDD$......$DDDDDD",
"y48q481u8aq4419u2s8<aee33n-eh8  XDDDDDDDDDD#DDDDD$....D..$DDDDDD",
"2449---1eqtauyu1<y2e<4<a38828u  XDDDDDDDDD$$$$$$$........$DDDDDD",
"q88y+<9<4styy1y74-94<94i@#1<s1  XDDDDDDDDD$DDDDD$...D...$DDDDDDD",
"1+<i2i464474yy964y1t8q2976e-21  XDDDDDDDDD$DDDDD$......$DDDDDDDD",
"74y1<2-1984tq418y46628962#<2-1  XDDDDDDDDD$DDDDD$.....$DDDDDDDDD",
"4e1<q<<16468qpp48q128<<43213@e  XDDDDDDDDD$DDDDD$....$DDDDDDDDDD",
"21<#11e21999q42+q7i74yy41OO21<  XDDDDDDDDD$DDDDD$...$DDDDDDDDDDD",
"1&<<121u-4499y19eq6iwy2$1t2y@-  XDDDDDDDDD$DDDDD$..$DDDDDDDDDDDD",
"6i1h11@2a24a4u21iu:4e#:u2Oy-1;  XDDDDDDDDD$DDDDD$.$DDDDDDDDDDDDD",
"i17+6<y2y2p22a:-11q2q-2qeiyb1e  XDDDDDDDDD$DDDDD$$DDDDDDDDDDDDDD",
"yaue248y881<i&6a92y<8-qdadkyy1  XDDDDDDDDD$DDDDD$DDDDDDDDDDDDDDD",
"wvwMyhe<p248<82e1+e11-<a18c17s  XDDDDDDDDD$DDDD$DDDDDDDDDDDDDDDD",
"hvhacyqt88<y19846@u@1y<3zc2-y1  XDDDDDDDDD$DDD$DDDDDDDDDDDDDDDDD",
"u8qkcwctt<i<<82u4ia4213-<1ZMw<  XDDDDDDDDD$DD$DDDDDDDDDDDDDDDDDD",
"y3c9ucy8s4222<1-+@&&<-83+<e171  XDDDDDDDDD$D$DDDDDDDDDDDDDDDDDDD",
"qn1sv9kcsi9ya<9<4e13aw&6h0ype2  XDDDDDDDDD$$DDDDDDDDDDDDDDDDDDDD",
"u4iktahaa1q4yu29+28ui227-8y18@  XDDDDDDDDD$DDDDDDDDDDDDDDDDDDDDD",
"q9cukhujr:>0*epe6>9;:3p:O*>>*0  XDDDDDDDDDDDDDDDDDDDDDDDD$DDDDDD",
"yyhke8uerr,00er0rs6ys2rp09=67>  XDDDDDDDDDDDDDDDDDDDDDDD$$DDDDDD",
"u244qe2uq3=w08>0u:r@::p707p0:d  XDDDDDDDDDDDDDDDDDDDDDD$D$DDDDDD",
"232e-#:1e3je709j6u6:6:r>*ze>98  XDDDDDDDDDDDDDDDDDDDDD$DD$DDDDDD",
"q8qe%<9-7<1q,ro9re0:>y00*e@060  XDDDDDDDDDDDDDDDDDDDD$DDD$DDDDDD",
"1+2u3iq620M=6>0917-07y=00:r>6>  XDDDDDDDDDDDDDDDDDDD$DDDD$DDDDDD",
"73y6<2-1eqe:i60>60708:,08:7706  XDDDDDDDDDDDDDDDDDD$DDDDD$DDDDDD",
"p118-&2e2pq0>90676->87::76q+$0  XDDDDDDDDDDDDDDDDD$DDDDD$$DDDDDD",
"3pe7:q6-6d9i9j$>>07,7e*>760*:0  XDDDDDDDDDDDDDDDD$DDDDD$.$DDDDDD",
"8qw6qeear0r0e66j6>0780>907:67*  XDDDDDDDDDDDDDDD$DDDDD$..$DDDDDD",
">qq0qr4qr=>r009$y6>80>$0>9>67e  XDDDDDDDDDDDDDD$DDDDD$...$DDDDDD",
"mwpee;e3d$i90d900088>9p>>>j>ip  XDDDDDDDDDDDDD$DDDDD$....$DDDDDD",
"rm807qwl0s>>sei>9r00*i=6z0irir  XDDDDDDDDDDDD$DDDDD$....D$DDDDDD",
"prp7>:8yj00jVj0r>s:990j>9r9r>6  XDDDDDDDDDDD$DDDDD$......$DDDDDD",
"zedry,qrjlj9i0xp0i=rrje9ins0l0  XDDDDDDDDDD$DDDDD$....D..$DDDDDD",
"k0zre0per90lZ0sjd690njzj0rrx00  XDDDDDDDDD$$$$$$$........$DDDDDD",
"yCyzj0ysxxjn>pzj0ri70rr7pm0pjj  XDDDDDDDDD$DDDDD$...D...$DDDDDDD",
"7Czpxj7jMmxrnzxpppjvNndjx*isi6  XDDDDDDDDD$DDDDD$......$DDDDDDDD",
"ZjvVprnenjjjjVnjrjp0szndjmMsjx  XDDDDDDDDD$DDDDD$.....$DDDDDDDDD",
"xszAS0r,jpmininzCzrZjpjjjjvxnl  XDDDDDDDDD$DDDDD$....$DDDDDDDDDD",
"xVcrcpjxejsexsnxNrrmrjrj0Venlj  XDDDDDDDDD$DDDDD$...$DDDDDDDDDDD",
"xcg>9xm8pxpjzmnnzzzjxruzjmMmjx  XDDDDDDDDD$DDDDD$..$DDDDDDDDDDDD",
"z7ravi>eixirvnjejpzggvjwdiBzrs  XDDDDDDDDD$DDDDD$.$DDDDDDDDDDDDD",
"pxzkp7xp0rsxsj0VyjvNawpnp0Blmp  XDDDDDDDDD$DDDDD$$DDDDDDDDDDDDDD",
">9qpqzjv99rs0p0r87eevrpj7yrMgq  XDDDDDDDDD$DDDDD$DDDDDDDDDDDDDDD",
"03s3e6upr0e7is0r4pqugzdexxqjry  XDDDDDDDDD$DDDD$DDDDDDDDDDDDDDDD",
"0pru7ue600rjaexq42ejpejepzmpp0  XDDDDDDDDD$DDD$DDDDDDDDDDDDDDDDD",
"rex20qez07zsequ0k800zp8uujecag  XDDDDDDDDD$DD$DDDDDDDDDDDDDDDDDD",
"ee0;70equeyhs3pw6u3wq0jp0rq3h3  XDDDDDDDDD$D$DDDDDDDDDDDDDDDDDDD",
"g3phe=2kuujfepzwuqhrcyrj0jjqx1  XDDDDDDDDD$$DDDDDDDDDDDDDDDDDDDD",
"peiau21<1uypztuxe07d0yn0pprqwq  XDDDDDDDDD$DDDDDDDDDDDDDDDDDDDDD",
"qqe7e2qeq2yyaauu0u370wkd8c,,ps  XDDDDDDDDDDDDDDDDDDDDDDDDDDDDDDD"
};
