/* XPM */
static char *result[] = {
/* columns rows colors chars-per-pixel */
"64 64 195 2 ",
"   c #381F1A",
".  c #3D221E",
"X  c #282726",
"o  c #322B24",
"O  c #302D28",
"+  c #2B3C2C",
"@  c #343A25",
"#  c #393926",
"$  c #3A3C2A",
"%  c #3E3E38",
"&  c #44261D",
"*  c #49261E",
"=  c #45291E",
"-  c #492A1F",
";  c #482620",
":  c #472A20",
">  c #4C2C22",
",  c #522E24",
"<  c #433426",
"1  c #493629",
"2  c #4D3529",
"3  c #4D392C",
"4  c #533225",
"5  c #5B3425",
"6  c #513529",
"7  c #5B3429",
"8  c #56382E",
"9  c #533D31",
"0  c #61352F",
"q  c #643A2C",
"w  c #185D3B",
"e  c #3D4027",
"r  c #3D4129",
"t  c #2D4C35",
"y  c #394731",
"u  c #324E35",
"i  c #355237",
"p  c #395338",
"a  c #026A3D",
"s  c #3E6E36",
"d  c #42442A",
"f  c #594336",
"g  c #5F4A3C",
"h  c #545D38",
"j  c #61473C",
"k  c #614B3D",
"l  c #2A564D",
"z  c #2C5F56",
"x  c #026F41",
"c  c #0D6C43",
"v  c #1C6B46",
"b  c #037444",
"n  c #097446",
"m  c #037847",
"M  c #0B7648",
"N  c #047B4A",
"B  c #0A7B4C",
"V  c #0F7F50",
"C  c #187D52",
"Z  c #2A654D",
"A  c #306F4E",
"S  c #2A5D79",
"D  c #256664",
"F  c #2B6677",
"G  c #475B47",
"H  c #624D41",
"J  c #645A4E",
"K  c #5E6F5A",
"L  c #6A7251",
"P  c #736E68",
"I  c #91332F",
"U  c #A02A27",
"Y  c #925438",
"T  c #887035",
"R  c #8B764B",
"E  c #BC7557",
"W  c #6E863F",
"Q  c #04814D",
"!  c #0A814F",
"~  c #068551",
"^  c #0B8552",
"/  c #078A54",
"(  c #0C8A56",
")  c #0C8E59",
"_  c #148355",
"`  c #198456",
"'  c #178758",
"]  c #118D5A",
"[  c #1B8B5A",
"{  c #04965C",
"}  c #0D935C",
"|  c #00995E",
" . c #0D995F",
".. c #12925D",
"X. c #10985F",
"o. c #288E59",
"O. c #259B5E",
"+. c #0E9760",
"@. c #059E63",
"#. c #0E9C62",
"$. c #129561",
"%. c #109D63",
"&. c #229462",
"*. c #389967",
"=. c #0FA165",
"-. c #11A266",
";. c #11A768",
":. c #13A86A",
">. c #34A171",
",. c #66AB47",
"<. c #49A469",
"1. c #57AA71",
"2. c #72A569",
"3. c #60B178",
"4. c #918275",
"5. c #81A877",
"6. c #D08752",
"7. c #EC9157",
"8. c #306DAA",
"9. c #3D75B7",
"0. c #7B5A96",
"q. c #417ACA",
"w. c #9267B8",
"e. c #6FC693",
"r. c #4588E1",
"t. c #6AA9F8",
"y. c #9A8B87",
"u. c #88938A",
"i. c #96918F",
"p. c #9C948D",
"a. c #9D9692",
"s. c #9D9995",
"d. c #9F9C99",
"f. c #A1948C",
"g. c #A2998F",
"h. c #A19691",
"j. c #A49B94",
"k. c #A99D95",
"l. c #A8929B",
"z. c #A49E9A",
"x. c #AA9E99",
"c. c #95B986",
"v. c #ABA097",
"b. c #A6A19D",
"n. c #ACA39C",
"m. c #B1A59D",
"M. c #B4A99E",
"N. c #A6A3A1",
"B. c #ACA6A2",
"V. c #ADA9A5",
"C. c #AEABA9",
"Z. c #B2A6A1",
"A. c #B8A7A4",
"S. c #B3ABA4",
"D. c #B9ADA5",
"F. c #B3AEAA",
"G. c #BAAEAA",
"H. c #B7B0A7",
"J. c #BCB1A6",
"K. c #B5B1AD",
"L. c #BBB3AC",
"P. c #B6B3B1",
"I. c #BBB5B2",
"U. c #BDB9B5",
"Y. c #BDBBBA",
"T. c #C4ADA6",
"R. c #C2B5AD",
"E. c #C8B3AD",
"W. c #C5B8AE",
"Q. c #C2B7B2",
"!. c #C3BAB4",
"~. c #CABDB5",
"^. c #C3BDBA",
"/. c #C9BEBA",
"(. c #9AD49D",
"). c #A2C894",
"_. c #C5C1BE",
"`. c #CBC2BD",
"'. c #D2C4BD",
"]. c #D5CABD",
"[. c #B1BAC0",
"{. c #CBB2E7",
"}. c #C4C2C2",
"|. c #CAC5C2",
" X c #CEC8C5",
".X c #CBCACA",
"XX c #D2C9C4",
"oX c #DFCFC6",
"OX c #D2CECA",
"+X c #D6D1CE",
"@X c #DCD1CB",
"#X c #D9CEDD",
"$X c #DBD6D3",
"%X c #DBD6D4",
"&X c #F1E7DF",
/* pixels */
"I.M.L.R.j.L.^.b.P.F.v.K.J.v.i.v.R.v.J.n.b.v.M.C.b.b.b.b.n.n.d.Q.L.W.^.I.I.K.Y.F.L.%XH.F.b.R.Y.S.|.XXI.!.F.M.b.M.F.z.k.V.k.z.B.b.",
"n.F.b.k.Z.k.v.B.B.Z.L.P.Z.M.I.b.v.b.B.C.n.C.b.V.b.K.b.n.V.L.F.n._.L.D.W.!.^.C.F.D.V.@X^.L.@XS.v.].Q.z.Z.v.b.M.b.b.v.z.b.v.C.b.b.",
"b.b.v.d.b.b.K.n.N.L.I.U.S.n.n.n.K.n.U.H.H.b.K.s.M.B.p.V.N.K.!.v.L.^.!.^. XI.K.!.!.L._.n.R.C.$XW.Q.L.A.I.n.n.b.h.h.v.k.b.b.k.W.k.",
"k.h.k.v.b.b.k.L.v.P.M.U.H.W.V.H.v.b.C.C.V.C.B.B.b.v.b.M.h.b.W.`._._. XR.L.^.I.v.m.`.M.U.Y.U._.n.v.F.A.P.V.j.S.V.P.n.W.b.b.a.N.U.",
"V.P.v.Q.b.v.a.N.U.U.H.U.L.M.F.b.D.V.z.S.H.H.n.K.m.b.V.B.C.j.b.D.D._.`.OXU.L.m.L.H.I.H.J.U.U.J.P.I.S.k.F.n.N.F.K.d.V.p.B.k.K.b.K.",
"K.z.V.p.N.v.K.b.K.H.J.L.D.L.H.^.b.N.z.f.Y.v.F.v.b.b.B.H.b.B.M.B.K.`.F.J.A.K.J.!.`.U.!.n.L.L.Y.I.v.n.L.n.Y.P.v.J.I.L.H.B.V.Z.J.V.",
"K.I.L.F.b.V.S.L.Z.!.U.L.I.H.b.C.v.L.n.S.P.U.v.n.S.v.N.v.M.d.H.v.H.Z.~.K.L.!.J.F.I.`._.J.H.K.K.F.P.F.n.H.V.L._.H.`.F. XI.U.K.b.K.",
"J.`.F.XXI.!.K.b.K.K.Z.K.L.L.I.D.p.W.i.J.Z.h.S.L.n.b.V.b.I.K.V.F.K.Z.J.!.R.~.K.V.H.I._.K.U.m.L.M.P.F.K.V.F.v.M.Q.`.W.Q.!.J.H.J.V.",
"!.`.W.Q.!.J.S.J.V.I.U.n.|.U.W.V.H.V.L.Z.n.j.K.Q.h.k.V.J.!. XF..XU._.K.Z.W.`.].U.K.J.U.I.J.L.F.F.U.H.J.B.n.M.Z.L.V.S.!._.F.~.L.L.",
"J.V.S.!.`.H.!.L.J.F.K.H._.V.K.W.J.U.H.V.b.j.V.B.j.V.V.F.v.L.S.C.U.I.+X`.H.Y.P.K.U._.!.H.L.J.M.J.U.P.J.v.S.U.F.K.m.^.C.I.!.L.F.Y.",
"K.V.`.C.U.!.J.F.Y.I.J..X_.I.V.b._.J.F.|.n.K.M.P.V.F.B.F.v.I.M.L.OXH.|.L.I.n.n.@XI.H.I.S.H.L.F.`.K.H.j.V.J.n.K.S._.b.!.|.H.!.!.!.",
"F._.b.U.`.F.U._.U.H.`.H.W.J.`.K.F.W.`.M.H.V.V.b.I.M. XV.L.Q.Y.L.`.I.K.I.b.H.`.L.H.H.U.I.K.I.W.n.H.M.!.R.M.I.V.L.B.I.!.L.U.I.I.I.",
"L.n.I.U.J.U.U.I.I.L.J.K.H._.P.P._.V.n.F.B.S.k.F.v.b.b.^.D.V.J.n.L.|.b.L.J.L.U._.J.U.P.H.H.K.Y.F.J.Y.K.b.L.J.v.V.S.^.J.!.I.I.!.L.",
"Z.F._.L.!.L.L.!.L.L.J.S.P.K.U.S.J.Z.V.L.I.S.F.H.b.x.v.M.S.^.J.V.H.H.!.F.OXH.J._.H.U.L._.b.H.L.L.n.P.n.V.H.v.K.K.K.!.!.F.n.I.H.H.",
"P.H.W.!.K.B.L.F.J.H.I.Y.F.j.H.M.L.Y.I.K.F.F.F.F.C.C.V.v.F.L.n.`.B.S.^.U._.I.`.U.P._..Xb.U.U.M.K.K.B.I.V.S.P.J.L.m.Z.S.S.F.b.L.F.",
"J.m.V.S.Z.F.v.I.V.U.S.n.M.b.V.L.B.U.V.v.U.H.F.m.V.}.k.K.R.S.b. XH.M.J.R.K.U._.L.H.!._.n.`.P.H.H.H.I.J.H.M.V.V.b.n.M.C.k.s.j.v.K.",
"b.m.n.F.j.j.z.x.K.S.H.U.L.H.I.b.v.H.v.F.v.n.v.Q.b.Z.Z.b.Z.U._.b.v.I.b.F.I.V.I.}.L.H.^.n.S.J._._.K.n.B.V.V.S.b.S.V.S.F.f.k.S.z.B.",
"F.V.S.F.f.k.S.z.M.^.F.L.H.b.H.B.M.z.C.S.x.F.S.P.a.a.b.v.Y.b.v.b.m.!.D.`.J.J._.U.W.F.L.J.M.S.F.J.P.M.B.V.v.b.z.z.f.n.P.m.P.Z.V.v.",
"b.f.n.P.Z.P.B.B.b.H.M.S.L.K.V.B.b.F.b.D.Z.S.n.F.V.B.F.j.n.b.v.U.H.H.K.L..X!.n.S.U.b.H.F.J.k.b.L.H.F.v.S.B.n.h.B.Z.F.B.x.n.h.z.K.",
"n.Z.F.B.v.n.j.z.H.V.n.J.F.B.b.V.K.F.B.B.B.Z.C.N.B.s.k.n.k.b.M.I.C.H.N.U.H.M.R.|.m.K.v.K.C.H.d.Q.v.b.v.z.b.a.v.I.z.z.C.j.f.V.F.n.",
"Z.F.b.k.S.k.z.B.N.S.N.B.H.K.K.M.M.F.b.b.B.k.v.S.M.n.z.M.h.F.n.F.n.J.b.C.L.v.M.I.k.P.v.C.M.L.b.M.F.n.v.j.b.V.C.S.I.K.n.k.F.n.b.b.",
"n.b.n.j.z.z.F.n.b.V.V.S.H.S.m.a.V.B.I.V.B.G.F.Z.z.i.i.n.b.b.L.k.I.H.n.K.!.K.U.C.M.M.b.M.v.M.b.F.b.V.Z.K.m.d.K.V.Z.S.N.V.F.S.U.F.",
"k.h.k.k.b.b.k.L.v.B.M.C.V.K.b.V.C.S.B.K.S.F.B.z.B.H.b.C.f.k.N.M.F.v.H._.n.H.K.M.B.k.p.K.n.b.V.J.V.v.K.b.V.I.b.V.W.U.!._.U.H.F.M.",
"V.P.n.!.b.v.a.B.U.n.M.I.V.L.b.v.P.L.z.Z.F.j.z.L.n.p.K.j.B.k.V.L.K.F.H.F.F.U.K.J.n.H.H.V.V.H.F.V.F.p.V.m.n.n.M.L.L.!.C.I.K._._.D.",
"P.d.V.a.N.v.H.b.K.n.I.n.n.U.d.d.N.b.S.n.S.h.n.C.F.P.K.'.b.F.!.J.F.K.K.H.~.M.K.H.v.C.H.B.j.K.F.n.K.V.b.F.k.Q.S.v.L.b.B.L.B.J.C.H.",
"J.U.K.H.M.V.V.K.S.V.n.v.J.s.V.U.F.b.D.k.F.h.A.R.U.T.!.K.K.b.f.b.!.F.I.V.K.v.K.h.B.K.`.S.F.Z.Z.n.k.H.k.L.N.n.n.U.F.V.F.L.M.L.K.B.",
"D.`.F. XI.U.K.n.K.n.M.V.b.S.M.H.k.a.F.b.b.k.v.U.b.V._.b.B.Y.I.L.v.V.J.J.H.M.n.C.F.V.V.k.M.p.V.K.C.U.d.b.b.B.U.k.M.!.V.J.V.H.M.b.",
"!.`.W.Q.U.J.S.J.V.V.v.K.b.V.M.v.N.a.K.h.b.F.v.B.^._.n.k.K.d.H._.K.F.n.F.H.L.H.K.B.v.k.L.v.F.S.j.b.b.M.F.n.V.b.b.b.J.n.H.Z.!.P.B.",
"- > - > > 4 : > : . . . . . .   .     . o . . & 2 k k k k k k k G.U.U.W.V.K.K.L.F.K.v.V.F.F.b.b.F.m.p.Z.z.F.D.F.}.M.M.L.!.I.v.n.",
"> > > 4 4 > : > > > > > - = = = & ; ; ; ; * ; > 6 j k k k k g g j.W.F.n.v.I.S.S.K.Z.L.J.m.S.n.k.Z.p.V.b.B.N.b.v.K.F.F.M.v.b.v.S.",
", 4 - - > > - - > > > > - - = = & & & & * & & * 6 f 3 2 f k k k F.K.n.K.A.`.B.L.F.L.k.F.m.h.j.n.L.s.v.B.Z.m.D.b.b.n.n.n.V.k.b.B.",
"p p p p p i i i i i i i i u u u u u u u y t u y 3 3 < 3 3 f k k C.B.R.G.P.k.b.B.b.F.b.b.b.n.v.h.D.J.s.b.v.B.C.F.h.h.v.n.M.V.b.b.",
"} ( ] } ( ( ( ( ( ^ ^ ^ ^ ! ^ ^ ^ V ^ V ^ V V v $ o # 1 3 9 g H Z.!.N.K.@XQ.K.F.L.V.S.v.C.K.P.x.L.b.p.h.v.L.P.m.F.k.K.V.s.F.a.S.",
"......X...] ] } ] } ....] ] ] ^ ] ^ ] V _ V n w X X . 1 1 9 g H B.N.S.A.|.R.^.^.S.U.v.S.k.N.B.Q.P.v.B.m.S.F.B.D.D.n.C.z.I.b.F.k.",
"Q a Q a m m a Q m b m b b b b b x x x x x m m v + X O < < f j H oXV.F.x.^.XXm.F.F.B.m.b.b.k.b.k.z.F.S.x.B.F._.F.n.Z.B.D.j.k.b.z.",
"Q / Q Q Q Q Q Q Q N m Q m m m N m m m m m N B B v t + + < 8 6 2 D.z.B.Z.n.n.V.K.N.F.V.L.b.V.v.I.n.S.h.~.I.k.V.n.G.h.v.p.j.g.S.n.",
"{ / / { / / / / ^ ^ ^ ^ ^ ! ! ! V N ^ N V N V B N c w v $ , - : S.F.z.N.F.F.v.b.m.k.M.S.M.F.M.L.`.L.F.Z._.`._.U.H.Y.Z.L.V.K.v.a.",
") ) ( ( ) / ) / ( ( ^ ( ( ^ ^ ^ ^ ^ ^ / ~ V ~ B m x n C $ , * ; B.F.x.j.S.B.B.N.N.K.H.B.B.B.M.F.B.`._.!.k.F.j.W.V.U.j.B.b.n.n.b.",
"} } } } / } } / ) ) ) ( ^ ( ) ^ ^ ^ ^ ^ ~ V V N x n V C $ , & & S.S.P.C.V.C.V.S.b.K.M.V.K.B.K.b.U.B.B.F.V.b.M.m.U.b.H.P._.H.b.S.",
"} } } } } } ) } ) ) ) ) ) ) ^ ^ ( ( ^ ^ ~ V V B x n ^ C $ , & & B.B.Z.Z.P.L.b.V.K.n.d.B.I.C.F.J.I.P.L.V.F.L.I.XXP.K.P.j.B.n.U.F.",
"{ } ..} } } ) ) ) ) } ) ) ) ( ( ( ( ^ ^ ^ ^ V N x n ^ C # , & & Q.|.G./.Y./.A.F.x.z.L.Z.U.C.L.F.v.V.K.n.K.L.U.n.k.L.J.V.V.M.C.B.",
" . .}  .}  .} } } } ) ) ) ) ) ) ) ( ) ^ ^ ^ ~ V x n ^ ` # > - & Z.Z.^.F.Y.F.|.F.l.F.F.L.H.U.U.V.m.V.K.F.L.L.F.L.I.Z.b.F.B.F.P.z.",
" . .X. . . . .} } ) +.) ) ) ) ) ) ^ ) ^ ( / ^ N x n ^ _ @ > ; . l.I.G.B.^.G.F.Z.F.S.V.}.L.K.F.!.V.J.M.M.I.B.n.K.H.F.b.v.F.V.N.b.",
"%.%.X. . . . . .$.} } ) } ) ) ) ) ) ) ^ ( / / V b M ^ ` @ > & & I.Q.F.Q.F.Q.|.G.F.F.A.S.!.Z.Z.D.Z.I.v.H.L.V.K.P.V.j.v.S.v.L.v.M.",
"#.#.+.+. .+.+.+.+.} } } } ) ) ) ) ) ) ( ( ( V V x n ( ` @ , > . Q.L.V.B.Z.V.G.Q.B.K.U.Y.P.Z.B.L.F.B.U.L.V.F.V.B.m.B.V.x.K.V.j.N.",
"=.#.=.#. .+.+.#.+.+.+.} } } } ) ) ) ) ) ( ^ / V b M ( ' @ > > & A.Z.A.I.P.I.C.V.K.F.F.F.P.I.F.L.S.m.^.B.B.N.P.v.G.G.V.F.V.P.k.b.",
"=.#.#.#.#.+.#.#.$.+.} +.} +.) } ) ) ) ) ) ) / V b B ( ' e 4 , : K.S.x.N.G.N.A.I.N.C.x.G.Q.P.S.!.F.Q.F.S.A.L.G.L.I.m.I.Q.S.F.I.I.",
"=.@.@.| | { } ] o.o.*.&.} } } } } ) ) ) ( / / ~ b B ( ' $ 4 4 > I.F.C.x.G.G.G.P.}.P.G.I.S.G.Z.Y. XA.W.D.A.F.}.}.Q./.^.z.I.^./.F.",
"2.5.c.c.).(.(.(.(.3.e.>.+. . .} } ) { ) ) ) ) ~ b B ( ` r 4 4 > G.}.P.C.I.Q.F.OXx.A.V.Z.I.x.Q.F. X}.^.`.Q.F.^.^.Q.I.U./.}.|.}.Q.",
"3.1.<.<.*.O...X.| | { {  . . .} } } ) +.) ) ) ~ b B ] ' e 7 4 , F.P.Y.Q.B.I.A.l.U.G.B.P.I.}.V.|.L. X'.U.G.`.Z.}.T.I.~.^.}./.^.A.",
";.-.-.-.-.-.-.#.=.=. .=.+.+.} } } } } ) ) } / ~ m B ] ` r 7 4 > G.Y.Q.Z.G.B.A.P.m.G.Q.XXI.}.^./.!.U.%XXXI.G.B.}.G./.G.^.G./.^..X",
":.;.-.;.-.;.%.-.=.#.=. .#.+.+.+.+.} } } ) ) / ~ m B ] [ d q 7 > /..X/.G.G.A.G.I.A.F.S.l.`.Y.A.I.}.R.G.^.I.}.E.G.Q.}.U.|.Q.}.Q.}.",
":.;.=.;.=.=.#.#.#.#.=.%.#.#.#.+. . . .) } ) / ~ m B ) [ d q 4 4 '.}.T.G.Q.P./.}.G.n.^.P.Z.Y.Q./.E.Q.Z.F.Q.}.F.G.Q.Q.Q./.|.}.Q.G.",
";.;.=.#.$.] $.%.-.-.%.#.=.#.#.+. . . .} } } ) / m ! ] [ d q 5 , I.}.Q.}./.Q.G.B.U.A.L.!.F.B.F.G.B.Q.!.}.Q.x.G.G.^.^.Q./..XQ.Z.U.",
";.%.$.C D S D '  .%.-.%.#.#.#.#. . . . .} ) ) ~ m ! } [ d q 0 , }./.}./.P.I.G.B.C.Z.!.Q.Q.I.I.A.^.L.P.G.n.Q.Y.V.Y.Q.[.Q.G.A./.A.",
"#.' Z l 9.r.9.D } %.=.#.=.#.%.#. .}  .} } } ) / m ^ ) [ d q 5 4 #XE.Y..XQ.I.V.}.A.K.I.S.|.P.N.^.F.Z.I.B.I.!.I.B.A.G.A.Z.P.P.A.B.",
"A L R J t.t.r.F .. .=.%.%.=.%. .+.+.+.} } } / / m ! ..[ d q 5 4 @XG.G.^.A.I.G.^.G.F.B.N.B.I.x.Y.P.Z.I.B.l.z.Z.V.C.V.B.z.k.V.F.B.",
"G 6.7.6.P q.8.z ..%.%.%.%.%. .=.#.#.+. .} } } / m ! } [ d q 5 4 Q.Y.G.K.U.G.I.I.x.Y.y.F.G.Z.G.K.V.F.G.i.z.Z.h.N.b.C.V.h.K.b.b.n.",
"W 6.7.7.4.[.u.Z ] =.=.=.=.#.%.%.#.+.+. . .} { / m ! X.[ d q 5 4 l.}.U.I.^.Y.XXl.S.S.P.U.}.N.Q.[.N.K.V.x.S.G.C.V.B.N.N.l.i.K.B.C.",
",.T E Y T.&X].K [ =.-.=.=.=.%.%.+.+.+. .} } ) / N ! } [ d q 5 4 G.G.G.A.B.V.D.U.F.B.G.Z.C.Z.G.A.d.C.Z.F.z.Z.S.A.P.Z.A.A.N.C.y.C.",
").w.w.0.w.E Y h ..%.=.=.=.=.#. .#.#. . . .} ) / N ! } [ d q 5 4 R.L.I.I.A.j.z.k.N.L.U.S.I.XXG.I.P.C.x.Z.x.N.G.m.N.B.z.P.V.P.i.z.",
"R w.{.+XJ 0 # l ..%.=.=.=.=.=.=.#.#.+.+.} { ) / Q ! X.[ r 7 , , G.A.B.L.|.E.x.I.Q.'.x.x.XXU.b.B.G.A.x.N.I.P.B.Z.N.K.I.x.x.a.N.j.",
"I i.%X_.% X X Z ..%.=.=.=.=. .=. .#. . . .} } / N ! X.[ r 7 , , B.b.A.Q.x.Q.!.k.L.P.@XL.Q.L.Z.}.U.l.x.h.G.x.B.x.N.F.B.h.G.B.F.l.",
"U h 2.s 4.P X Z ..%.=.=.=.=.=. .#. .X. . .} } / N ! ..[ $ 7 5 , G.P.y.~.Q.G.I.Q.~.Q.}.D.b.F.F.F.P.V.Z.F.N.N.n.N.F.Z.Z.n.n.B.B.s."
};
