/* XPM */
static char *result[] = {
/* columns rows colors chars-per-pixel */
"64 64 89 1 ",
"  c black",
". c #262625",
"X c #353231",
"o c #3A3633",
"O c #3C3836",
"+ c #3E3C3B",
"@ c #413E3C",
"# c #45413E",
"$ c #434240",
"% c #5A5552",
"& c #666361",
"* c #6C6561",
"= c #6B6866",
"- c #6C6B6A",
"; c #726E6B",
": c #76726E",
"> c #7A736D",
", c #777472",
"< c #7B7572",
"1 c #7E7975",
"2 c #7D7A79",
"3 c #807771",
"4 c #837B76",
"5 c #817D7B",
"6 c #8A837D",
"7 c #838280",
"8 c #8B8685",
"9 c #8F8984",
"0 c #8F8B88",
"q c #978986",
"w c #958F8C",
"e c #95918F",
"r c #9C938D",
"t c #9D9692",
"y c #9D9995",
"u c #9E9B9A",
"i c #A1948C",
"p c #A2998F",
"a c #A39792",
"s c #A49B95",
"d c #A99D95",
"f c #A49E9A",
"g c #AA9E99",
"h c #B09F98",
"j c #ACA096",
"k c #A6A19D",
"l c #ACA39C",
"z c #B1A59D",
"x c #B3A99E",
"c c #A6A3A1",
"v c #ABA6A2",
"b c #ADA9A5",
"n c #AEABA9",
"m c #B2A6A2",
"M c #B8A7A3",
"N c #B3ABA4",
"B c #B9ADA5",
"V c #B3ADAA",
"C c #BAAEAA",
"Z c #B7B0A7",
"A c #BCB1A6",
"S c #B5B1AD",
"D c #BBB3AD",
"F c #B6B3B2",
"G c #BBB5B2",
"H c #BDB9B6",
"J c #BEBBBA",
"K c #C2B4AD",
"L c #C8B3AD",
"P c #C4B8AE",
"I c #C2B6B2",
"U c #C3BAB4",
"Y c #CABCB6",
"T c #C3BDBA",
"R c #C9BDBA",
"E c #C5C1BE",
"W c #CBC2BD",
"Q c #D5C9BF",
"! c #C5C3C2",
"~ c #CBC5C2",
"^ c #CDC8C6",
"/ c #CDCBCA",
"( c #D6C5C1",
") c #D1C9C4",
"_ c #D2CDCB",
"` c #D6D0CE",
"' c #DCD1CB",
"] c #D6D3D2",
"[ c #DED6D3",
/* pixels */
"GxDKsDJkSSjZDjrjDjDlkjlnllkklluUDPJDGDJZF[VNkKHN~)GUVlkxZkdmddvc",
"lVkdmdjvvNDSmlGljklnlnkbkSkjbSNlEDAPTJnVBb'TG'NlQUfmjlllklukkVlk",
"lkjukkSlcDGUZkllDlGNSlSylltnlSEjDTJE)GkX              ;ssdjkkdDd",
"ssdjkkjDlSlJZPnZjknVvnvbbjllyjKWEWWPDnX              =mvFjPkktcH",
"vFjUlktkJDZUDxNvNvlNSZjVllblVukZBT~)vX              :vVDubrvjSkS",
"SfbrldSkSSZDBDNJkvupJlNkkklSlbxlDWVlX              ;JFdSGDSlvbDN",
"SGDVlvNDNUGDDSlnjDzNSJllZjbkluZjSlBo              ;ZbDEBWZ^DJSkS",
"ZWB^FTSkSZNSDDDVrKeZxpxPlulkHSbZSdo              >SvNjNPWPUUZZAl",
"UWPHUZZAbHJlWJHNSbDxlsSHsdNDY~D!n@              1ZSllxvDvVURVUDD",
"DvNUEZUDAbZZEvDDZGSxlymvsbvNkSNc+              >HGAdNHZSlYnHUDZJ",
"SzEnIUANEDA/WDvlEAZ^jSxFbNvVlDd+              >EVZtZDjZN!lH~ZUUH",
"VElU~VHEHZWSPZWFZPWNSnvkDN^lDV+              <HlZxEKzHnDlHTZJHHD",
"DvGJZJPGDDZSVTFFEbjbvbdNkklJlo              ,DHVDJSkSAjmNEDUDDED",
"mNEDUDDHDSAZFSHZANbDHNSZlgld+              6jSDDlGlvBlSSSPUSlDZZ",
"GSPUZvDSASDJZuZlDJDSNVVVnnsO              8lGDNDFvDvVSZDlNxmNkDN",
"SlxxNNkDZGZlxjnDlJblGSSmlHo              1ElWFZSZGAZxbNlllnsfskS",
"kzlVduslSAZJDZDkjSjSjllIsO              <ZEjxDEEGllvvNkNvmSidVfv",
"NbvSidndlHZDZkSvzknNjVvbo              1PVSAxNZSSxbblkkkilGlFlvl",
"krjGzFvvlZlxDSnvlSkZmNs@              ;ZTlZNZdkDZZlbkldlmScjjdfS",
"lmSvjlskSnzSNvkvZNvkvf+              :DWlZlSbDsHjkjkkssGkdnssvNl",
"mNkdmddlkNvvNDDNvNfldO              <jxDsSjnmDkxbjjkkvbNGnljvbfk",
"lklukkSlknvZZNlrmbFk+              ,USJnNxlljxkNvnbSlsSnNNklZNHV",
"dddjlkdDsvxnbSkbSNu$              :ElSSlldsSlllDvjSvxGkNPJEEGSNm",
"vFjUkktcJlxGxGkjFbO              :ZNZHDAlZSvbSZnbpvllklHZTnGSWEZ",
"FunrvjSkSlGllHukuO              :VGSYxSSjnZvsSNlnvlVdHxlZlbFvDbA",
"SGSZlxvDbbjjDuvn+              =UVDbSjZpvS^mNbmlkSsDcllHNNZDxDSk",
"AEZ^FJSlSvlnsNd$              >FjbZZZmlnNbbdxplSSSkkkbHdNUvAbxvl",
"PWLUUDNAbNjSkk@              &NESVjDSAVSvldDjVVsllzVlvkfkDjZNEGv",
"DvNUENPDDlDdr#              ;jvSCHHPNSSDNSjvVNkvNlrmfVBN!mxDUDjl",
"SxEnHYDbJxkk+              &lllNsUVljDNNVxDDjmldNrbcvgvjSZVNjkjN",
"N!lHWSHEUGk#              -FVvlKVSlZMElDnHdbmdslSsllxzVfllljvkkv",
"DvGHZJPDGu@              &SlvsVvnvKDFslbcNkvkldpBZyllvbVpujjxbkk",
"vNEDTKGUV+              %sdlazcTmUcD'KSVDVmlvSFgDlrakDHzNgSbubtN",
"SSPTNvDV@              .,2>,2>53,<35w88028>5>,197>13441NBlnfDlVd",
"DxbxNNfD                                               NlmvBsdkf",
"ljlndsfk                                               vCadtupVl",
"VvmSidVd                                               UnExDlSjt",
"kilDvFmv                                               GvHsvvljk",
"vzScjjsf                                               zGlSSEZlb",
"GkknssvN                                               )HSSullJS",
"mDSlfvvk                                               lsDSNnlnv",
"bNNcNSVD                                               DDNlbkZSk",
"gVNmMVNm                                               SSNkjZNvl",
"~MGCVdSz                                               FlkjZkDjl",
"K~nzNmMR                                               vxvvsFnsc",
"GCSvgfvV                                               lDCnVvFdk",
"JVKCShVCbMcfvfCvacqggvuucFcaVutuffrefta;               DGlGYmCDG",
"UmEVMmGVCbmT_mFUKkVmTITUbGVRmMF/GVvhCSS,               RURJfGTEV",
"S_STImSJRRT!gGRHmCCvmCVmG~MIIGnIC!FmCTV8               TIGGR!^!I",
"v_TGRYcI!^RCRJRGGFI~/TMITtFJGcRRnFTIvKV*               !KDUT!RTM",
"`IW_GM!V!IIIJ/!ICTFmJT!LI~!JITIaCJImFmm<               EBRCTSWT/",
"RJT']mChII~F!V!R/RC]IHJLLI~R~RGJR/RCCmC2               CU!G(IEHE",
"R)JKJIIRnRTVRTER/CD~CUCIM!V!RIJI~TKCISR5               DTIGRRJTK",
"REKlVR^mGIGGI/!!TTUIRMKTI~~~LRM/I!IEEIC;               CTJKR/JmG",
"TvCHRGcnFRGCR!GVIGTKK~UVLF(TCJMI!IT!FSD;               nJITGCMRM",
"GRTUGvTGMCJRJIM/SIW^HBGRFm(R~FEI`LJ/TIv5               vMCVmFCVl",
"gbNGm!IRnMCHMFMMbvZVWDSIvFC^KVnG[KIIMGC5               bnvvfgvVv",
"vzTxVcDHCnnvFJVVxDNDKJLnRRMGCC!CIJCFGCJ,               lgnVaVkfm",
"mGCDvDVvvMVHHVRmzlVGHVUVGT^GFMMUaRJGJJ(=               NvvcaeSvn",
"CVTlmNVTmcRJVMGmTbmMTFNDCIVTHKVMCFMMvnM2               VFbMmvnqn",
"VnNdmmVNSVSKJzHxvSmMVmDGmCMhKhhTKKGGMau*               mfnfFvFea",
"KzIKValHDDPKVGUADNPCEDCUmIJVRcJgCCcC(Lg4               nvVFfgyvf",
"CVSHDlljjDSHEZDRVmvKvCTmGHMMBMvhgcMIgIIgKF'DIGm!UfgtCfvgcnmaCmbf",
"CVVvVlmVblDSGJDDmCzvmMIKNTgmITRmMFrYGCIGYD!NlSVVFvmVgcvvnMbhvvvy"
};
