/* XPM */
static char *result[] = {
/* columns rows colors chars-per-pixel */
"64 64 65 1 ",
"  c #978986",
". c #9C8D88",
"X c #96918F",
"o c #9C948D",
"O c #9D9692",
"+ c #9E9995",
"@ c #9F9B99",
"# c #A1948C",
"$ c #A2998F",
"% c #A19692",
"& c #A89791",
"* c #A49B94",
"= c #A99D95",
"- c #A49E9A",
"; c #AA9E99",
": c #B09F98",
"> c #ABA096",
", c #A6A19D",
"< c #ACA39C",
"1 c #B1A59D",
"2 c #B4A99E",
"3 c #B8A89F",
"4 c #A6A3A1",
"5 c #ACA5A2",
"6 c #ADA9A5",
"7 c #AEABA9",
"8 c #B2A6A2",
"9 c #B8A7A4",
"0 c #B3AAA4",
"q c #B9ADA5",
"w c #B3ADAA",
"e c #BAAEAA",
"r c #B7B0A7",
"t c #BCB1A6",
"y c #B5B1AD",
"u c #BBB3AD",
"i c #B5B3B2",
"p c #BBB5B2",
"a c #BDB9B5",
"s c #BEBBBA",
"d c #C1AFA9",
"f c #C2B4AD",
"g c #C8B3AD",
"h c #C5B8AE",
"j c #C2B6B2",
"k c #C3BAB4",
"l c #CABCB5",
"z c #C3BDBB",
"x c #C9BDBA",
"c c #C5C1BE",
"v c #CBC2BD",
"b c #D3C4BD",
"n c #D5C9BF",
"m c #C5C3C2",
"M c #CAC5C2",
"N c #CDC8C6",
"B c #CCCBCA",
"V c #D6C5C1",
"C c #D1C9C4",
"Z c #DFCFC6",
"A c #D2CDCB",
"S c #D6D1CE",
"D c #DCD1CB",
"F c #D6D3D2",
"G c #DBD6D3",
/* pixels */
"p2uf*us4yw>rt>o>u>u,,>27,<,,>2@kphcupusryGy0,pz2MCpz01,1r,>6=>54",
"<w,=6=>550uy0<i<<,1w,w,4,y,>6u7>cuqhks7wt7ZkuD0<nj>5,<1,,<@,>7,-",
"<,>@,>y<,ypc0,<<u<a0y<i+24O64yv>ulscCpyakuc1h7Dpjr1p1<4*$>>,,=p>",
"**=>,,=p<p1prh7r>@w7<w46<>,2$,uvccNursu<1v2psac1<wqi6*65i>j,,+4p",
"5i>j,,+,ap2cu205q6-0yr<w<,46wO,t3cvBkr0prprrhpuip0>7550y@7o5>y,y",
"y@6o<>y,yrtutuws-5-$a,0>,,2y>6>6uvwuqytjvkc>pusp<1y<zi>rpyy<16r6",
"ypuy<00r6cpuu7<7<r>0ys<<r,<,2@y>y2lyuhtwpcctrriyw05t4uztvtNusy<y",
"tvqNisy,rr0ypuh0ohXt0$0h2@4<ay66y0tjhvy5rpcrs<u1iry5r>0kvhjjtrt6",
"hvhpjtrt6ps<csh7r6u6<$yp*=7rlNrBpcy2hznayraprut0arr6126u60zc0hpu",
"u00kcrhpu6rrc6yhtsy1,>04+50w>rw7ppSvrsiiachrurqrapr>0pry<cwplu6s",
"y1c7pku0cutBcu5<ctrN<y2i0660,u2uSrNyu22Aprurrurcyt$6u<r0c<sMrcca",
"0m<kMypcarvrhrvyrhc2r65,uqN6ujsrcpru,rvuyraprpa<r2ch<u6u1iatauau",
"p<aarshpuuriyziil7>660$0,,,a37r<uN>rrfavrai6rparrzr,ut>67cuktpau",
"60cykupjuut0pwart07yp0yy<;<20ct0wrc0Swtcwhpc>rpp<i<7q,yyrhkw2urr",
"pyhkr5hwtypar@r<uspy0yww7y0>wu<v66cpcucaazB<aa2ry6u50iru16200,u7",
"r16226,u7ar<2>7u5s2<iyw2<m=7f6<Bq3rhyacurac>cirryyur260<<17=@*<y",
"<<>w=-*-rrraurp,>r>w1<>j<50<5pz,>u,rp6pcrtz<0uccu1,750,060y#=0-6",
"070yo=w-<krpr,w52*70=w0io@,>s,>,1c2vtrcshwut200ry166,,,,o<p<y56>",
",o>y1i85<r62uy75<y,r8w<w55y*>5>zrruuNc>rz<r7r=,trr>6<1*11y4><*-w",
"<0y5><+-y61r06,6y04458744+><=,<p7r4ar<ac<y<r7u,a<,>=,o,p-=7**60<",
"00,=0==54054ryy227,<5=>01<,1*w60<u<7u><p*i>w2u,17<>*,760p7<,6<,,",
"<,<@,-y<@76rrr<o66y6<ew8-XX<<,y>pr<ylyaw22,<>0,0<62y<+y700,1w0pw",
"*=>=,,=u>51w6y,7w05u0w5-<t<7o$51w,rc<yy15*$r<<6r6<y,6p,0hazcarw2",
"5i>j<>+4a<2p6u<>iy-6w*-u<Xy*5=6uyrr0yart<rr76rw66o61<<1ptc7pycct",
"y@7o<>y,y1p<<a,+4,0<0*<7qieb,wkq0yyrl2yr<7t5*y01w6<y=p2<r<6p5u7q",
"ypry<07r67>>y*4a05t$0$0dsekyy,#,l0p6y<0*4yv0060<,y*p4<<a06wt1uy<",
"tvrNpay<y417*0<y;oy,<@<a<7c<5suy,7rtr2<7076=2$1ywy@,,6p>0h6r<r2<",
"kvhjkr0t62>y,7714OyO,w=<kc<*y-wcy0<ryury<<=u,07*<<10<6,,,u<r6zi5",
"r00kc0kpu<p=>7,y0pu5<<2=<,SNr>5pwzah6yyr0y>600,50<O2=yw0v61pcu>>",
"y5c7plu2s2<<1>>,oO===+<1o>6<5,<2&jw<>uwwy0ut<2<>6o7,5,<>yrr2>,>0",
"wm<jMracap7rp=w>1w,<s0$5u8yp0<<uwy<w3v<u7u*08=*>y+><11w,,<<<5*,6",
"u<pstsppp4r<ri<7o<8up<15=6757*w675hei*<64w,,,5>$wt+<<56w&+>>27,,",
"60crkhpkp-=1Oyie4;7;-1p*X-;;%84s6k<yDhwwt72>6yy>u<o&,ua<w=y6+0+0",
"yyhz05u0qe:98ee8ws5ys<ua<8*47&e84<8wvjkz6s<0>46pi<<<00<0q<w-i<w*",
"u<020w-p0>%q80;5e-eO--i585p8%e95Z6w;kC6y76<,<=,=>70-5yc7<85q*=,-",
"<1<7=+*<w8jw555a5u4-4-9;Oke;7744t-58655y506p,6,u<0&xh$71u$=o@$0<",
"w68y#=0-6><6;9X7ew8-;y86%wO8495%7w-500,<<>1r102ucy60cvcswz2p6w,O",
",#>y1i65>0N&;;w7<4*85y&99,w45;8%<w--05<4<yy<66076vcc=r*h4a*51<<>",
"51y5><*,w8w-i58;45565,;88-5584%i00i67760,y<0y5y<p6<07<2<a<rizr<6",
"p,-7*$505uw2;w7456%;70%-540#@7-e5501yu,7y>45p70tpiu66puCari@<,zw",
"8pw5-6<-5d7i5z-%;8;859%5558%-8j8jMexzx878-i8pyu0>6y<iup<*yr77<71",
"00050ewp98i8954p4;8557-584-45%4488zws7M0&weywpa727y0uuwup0<6<yy,",
";0088w00e@;e577-y-;984-54w;54w84=jq7ze78w88murwz6t10i65yy2<>r24<",
"M0pww=w194979e788877;9i;;&p-epm9ij0jejMyw9wws01q0u>tr0wu<,,r,u<<",
"uM7889qx8s&;s9i;5988%e&4s7ieie79jy5885ek5waji76ew5au6w54256-i7+5",
"pey5;-6wj89sBp9e4s4777p;9w9i84e998wpip97ie70ppwu0<z655p<ee6w6y,>",
"zwdee8wesxp7i9xj9i&eej77iMs8j98iy0;4e49e47;idiwk6h008eqpp1pj0wyp",
"j9c008ye979xB9isd479zjzx8i9x58iBpw7:eeiimiyfew8aNwhqwemzkxz-uzvw",
"wFwkj8yzxzjm;izj8ep59ew;sx9sgp7jezi8ezwB:w78a;jwBMkvk0czjpaxmMmj",
"5Bzazx5jMMxemzxjppjzBmdjx%ise5zmwisj5p9;pe:iim5Mhmbaev8mfelzmxz9",
"SkMAi9mwmjfljBmpeji8szmdjMmzzmj%esz8i89i8yjCjmzcskFCpu8cexecevzB",
"lszDF9e:jpMimimxBxeFjajjjjxxxxizxBzde89a8e8;ca9pMhezpmdejmavamjz",
"zMcecpjx9zzwximmBeuMekej9BwmljspVmdejixmd:zi<mfxfj88kMwyzjpxMzzd",
"xcf;wxM9ixijzVmmzjzjxqecjxBmjz9Bimjmzj98pwekw5we4jzcp-eezsjxmz8p",
"x5eaci;7ixievmjwjasfdVk0diVzds9jmxzxipe578zjjii9zupe8ja7sjsae9x9",
"jczkj5zp7esxsj9NyjvBsqpci9VxvaxjFgsBzj5m9ei0bi4ze8i5ezp59e98ii95",
";70p8zjxw9ea9p99610rvypj5eeMje5pGedz9iexe7545e-za9p5%-78755-=505",
"51z175ua9775is0w2u0ujsdwxc0jeemejzewseji<s.wy8iw579O;8%<;7w%e445",
"8puu7uw559wpswx0<1wpawjwpzMji98z&xpszsV@08ipm5fs5i5-9e77544*Xw47",
"e0z<88wz85zzw9y9z609kp7upj7mjue8ii99579au5w878i9@78y@88wi89857 w",
"qw8=85w0uwyhs<pq5y8908jy8e98d8:xdfia9---,uj0aViii5;7;5e<-7-i5iX%",
"u8ajw=<jupjuwpzqu0hecpqj8fj8z<a;ee<evg;jsV;<Vj-5i9;;pi<85yi-<O5-",
"pwyaw<<>>ryjctukw87d5ec8pae0d8-:4<ej-jj&uwDppp8mj@;Oe-8;475%e57-",
"00w8w<0w05rrpsup8e1589xe8c:<jcx8ei.ljepjlfmw-eewi59w-455799:555O"
};
