/* XPM */
static char *result[] = {
/* columns rows colors chars-per-pixel */
"64 64 205 2 ",
"   c #241E1E",
".  c #25211F",
"X  c #183728",
"o  c #382D22",
"O  c #3B3833",
"+  c #4A2B1F",
"@  c #4B2C21",
"#  c #522E23",
"$  c #4C3328",
"%  c #543124",
"&  c #533329",
"*  c #57392C",
"=  c #4B3A33",
"-  c #15422E",
";  c #19402F",
":  c #144A32",
">  c #1A4833",
",  c #3D4A2F",
"<  c #294D3B",
"1  c #3D4A32",
"2  c #324A3B",
"3  c #3A5639",
"4  c #3D593C",
"5  c #424D34",
"6  c #554333",
"7  c #564837",
"8  c #435B3D",
"9  c #644D3C",
"0  c #65503E",
"q  c #195D41",
"w  c #225E43",
"e  c #3B5840",
"r  c #1B6245",
"t  c #176846",
"y  c #037E4B",
"u  c #16734D",
"i  c #1A7B54",
"p  c #2A6447",
"a  c #2F7050",
"s  c #297955",
"d  c #6F554A",
"f  c #74584A",
"g  c #466949",
"h  c #527251",
"j  c #6C6855",
"k  c #5B6176",
"l  c #8D321A",
"z  c #B0342F",
"x  c #D13F38",
"c  c #E42E2A",
"v  c #AD4B48",
"b  c #95727C",
"n  c #C54746",
"m  c #F94545",
"M  c #E0665F",
"N  c #03834E",
"B  c #09824F",
"V  c #048651",
"C  c #098551",
"Z  c #048A53",
"A  c #088B54",
"S  c #098F58",
"D  c #188556",
"F  c #158B5B",
"G  c #1B8B5B",
"H  c #05965C",
"J  c #0C945D",
"K  c #0E995F",
"L  c #15935B",
"P  c #12925D",
"I  c #268557",
"U  c #228A5D",
"Y  c #348D56",
"T  c #24945F",
"R  c #1D8F61",
"E  c #0E9760",
"W  c #0E9B62",
"Q  c #119661",
"!  c #1B9562",
"~  c #119D63",
"^  c #1B9B65",
"/  c #199E69",
"(  c #259963",
")  c #329C62",
"_  c #3C9A63",
"`  c #04A766",
"'  c #0FA165",
"]  c #0EA569",
"[  c #0DAB6A",
"{  c #11A265",
"}  c #1BA367",
"|  c #14A867",
" . c #12A569",
".. c #1AA66B",
"X. c #13AB6D",
"o. c #19A96B",
"O. c #14B16E",
"+. c #15AE71",
"@. c #15B473",
"#. c #18B474",
"$. c #24A669",
"%. c #2CA469",
"&. c #34A468",
"*. c #37A274",
"=. c #46904E",
"-. c #459D67",
";. c #579A66",
":. c #559D6A",
">. c #4C9971",
",. c #679D6B",
"<. c #75936B",
"1. c #46A368",
"2. c #4BA56C",
"3. c #58A46A",
"4. c #5BA875",
"5. c #67A673",
"6. c #74AB78",
"7. c #67B179",
"8. c #78B77D",
"9. c #86AA7B",
"0. c #84B07E",
"q. c #C2BA5E",
"w. c #D7BC7A",
"e. c #DFD473",
"r. c #EFDE73",
"t. c #6AB787",
"y. c #76BA84",
"u. c #77B593",
"i. c #7C91BA",
"p. c #79C18B",
"a. c #96928F",
"s. c #9C948D",
"d. c #9E9791",
"f. c #9D9A97",
"g. c #A1948C",
"h. c #A7988C",
"j. c #A29790",
"k. c #A49B94",
"l. c #A99E95",
"z. c #A49E9A",
"x. c #A99E99",
"c. c #87B383",
"v. c #8DBB8A",
"b. c #97B887",
"n. c #B4B58B",
"m. c #ACA097",
"M. c #A6A19D",
"N. c #ABA39C",
"B. c #B1A69D",
"V. c #B4A99E",
"C. c #A6A4A1",
"Z. c #ACA6A2",
"A. c #ADA9A5",
"S. c #AEACAA",
"D. c #B1A6A1",
"F. c #B3ABA4",
"G. c #B9AEA5",
"H. c #B3AEAA",
"J. c #B9AFA9",
"K. c #B7B0A7",
"L. c #BCB1A6",
"P. c #B5B1AD",
"I. c #BBB3AC",
"U. c #B6B4B2",
"Y. c #BBB5B2",
"T. c #BDB9B5",
"R. c #BDBBBA",
"E. c #C1AFA9",
"W. c #C2B6AD",
"Q. c #C5B8AE",
"!. c #C3B9B3",
"~. c #C3BAB4",
"^. c #CBBEB5",
"/. c #C3BEBA",
"(. c #D4B6B2",
"). c #85C18B",
"_. c #95C28B",
"`. c #8CCC9A",
"'. c #99C693",
"]. c #A9C997",
"[. c #A4CB99",
"{. c #B4C998",
"}. c #A7D19E",
"|. c #B9CFA4",
" X c #BBD9AB",
".X c #AFE1A5",
"XX c #C1D8A7",
"oX c #C6C1BD",
"OX c #CBC2BC",
"+X c #D4C7BE",
"@X c #D5D0B9",
"#X c #C9E6B1",
"$X c #C5C2C1",
"%X c #CBC6C2",
"&X c #CDC8C5",
"*X c gray79",
"=X c #D1CAC4",
"-X c #D3CECA",
";X c #C0D6C3",
":X c #DBD3CB",
">X c #DBD6D2",
",X c #E7DDCD",
"<X c #DDE4D6",
"1X c #F0F0CB",
"2X c #F8F2E8",
/* pixels */
"Y.B.I.I.k.Y./.C.P.J.B.F.L.x.s.l.I.m.I.N.M.m.V.S.M.M.N.M.N.B.f.~.Y.W./.Y.Y.U.R.H.I.>XH.F.M.W.~.F.*X=XY.~.F.D.x.N.J.M.l.D.l.x.A.C.",
"N.J.M.m.D.l.l.Z.C.F.I.P.F.N.Y.N.N.M.N.S.N.S.M.C.M.P.M.M.A.I.F.m./.I.E.Q.~.R.S.H.G.S.:X/.Y.:XD.N.=XW.z.D.l.Z.A.N.M.m.f.M.m.H.Z.f.",
"N.M.m.f.z.M.H.N.C.I.Y./.F.N.N.N.I.m.T.D.P.N.P.f.N.Z.s.S.C.P.^.m.P.~.~./.&XW.U.Y.~.I.oXB.W.S.>XW.!.J.D.W.B.x.z.k.k.l.x.M.C.l.I.l.",
"k.k.l.m.M.C.x.I.x.Y.N.T.P.W.A.J.m.M.S.H.Z.S.A.Z.C.m.m.B.f.M.W.oX%X$X&XW.J./.Y.x.N.OXV.Y.~.Y.$XB.x.S.J.U.A.k.F.A.U.m.!.M.M.d.C.R.",
"A.U.x.!.N.M.d.C.T.Y.F.~.I.V.H.N.F.F.z.A.P.F.N.P.B.M.C.Z.P.d.M.L.J./.OX=X~.J.D.Y.S.I.I.K.Y.I.P.P.Y.F.l.F.A.Z.G.P.z.A.a.Z.k.P.M.P.",
"U.f.A.d.N.k.P.M.P.P.L.I.G.I.H./.z.A.z.k.T.M.H.m.M.M.V.P.m.S.B.Z.Y.^.J.P.J.H.G.~.+XT.oXm.Y.I.oXY.x.B.P.Z.R.U.x.P.Y.I.P.N.D.D.I.A.",
"P.Y.I.H.Z.D.F.I.F./.Y.I.I.H.N.S.m.L.B.F.P./.m.N.H.m.C.M.N.z.P.m.H.D.^.U.I.Q.E.H.I.OXoXL.K.P.Y.P.U.H.Z.F.A.I./.G.OXF.&XY.Y.P.N.P.",
"G.OXG.=XY.T.P.M.P.K.H.P.I.Y.I.F.s.I.a.L.D.j.F.I.V.k.Z.M.Y.P.S.V.Y.D.L.~.W.OXP.Z.P.I.oXP.T.B.I.D.Y.F.J.A.F.l.F.!.OXQ.!.~.L.H.L.A.",
"Q.%XQ.~.~.L.F.J.A.I.R.N.%XT.W.H.P.A.I.A.N.j.P.!.k.l.S.J.~.%XJ.*XT.$XU.B.Q.oX&XT.P.L.Y.Y.P.I.F.F.T.K.P.Z.V.V.D.I.F.F.~./.J.~.Y.I.",
"J.A.F.~.OXF.~.Y.I.H.L.F.oXA.I.I.L.Y.P.B.M.m.A.Z.k.A.Z.H.M.I.F.H.Y.I.>XOXK.R.U.I.T.oX!.K.L.I.G.F.T.I.K.m.F.Y.H.P.D./.S.Y./.L.A./.",
"U.D./.S.T.~.Y.F.R.I.L.*XoXI.Z.N.OXI.F.&Xm.P.V.U.A.F.A.J.N.I.N.I.-XL.$XY.I.Z.V.-XY.K.I.F.L.I.G./.P.L.k.A.I.N.P.F.$XN.R.%XH./.^.T.",
"F.$XN.T.%XJ.~.~.Y.I.OXP.Q.K.OXU.F.Q.%XF.P.A.Z.M.I.F.%XD.I.~.R.I.$XY.P.L.N.K.oXY.P.F./.Y.I.Y.Y.Z.K.V./.W.B.I.Z.Y.N.Y.~.J.T.Y.Y.Y.",
"Y.Z.Y.T.H.R.W.Y.Y.W.H.U.P.|.Y.U.~.S.m.A.Z.F.k.H.x.C.z.R.G.A.G.D.J.&Xm.P.L.W.T.oXI.I.U.S.K.Y.R.K.I.R.P.m.P.E.m.D.F.~.P.!.I.I./.I.",
"D.F./.J.~.W.Y.~.I.J.J.D.Y.P.R.S.I.D.S.I.Y.F.H.J.N.x.x.F.F./.G.F.F.J.oXF.-XS.L.OXP.~.I.oXN.K.I.I.N.U.M.A.G.x.P.P.U.^.~.H.A.I.F.G.",
"P.U.~.~.J.C.Y.F.G.J.Y.R.F.z.J.D.I.R.Y.H.H.H.J.S.H.S.F.m.H.P.Z.oXA.A./.Y.oXI.oXT.Y.oX-XN.Y.I.F.I.U.Z.I.A.F.U.G.P.Z.D.F.F.F.z.W.F.",
"I.B.D.F.F.F.x.Y.F.T.G.B.D.x.S.J.Z.R.F.m.T.P.H.D.N.$Xl.H.W.A.N.&XG.V.I.W.P.~.oXI.P.I.oXM.oXU.K.K.P.I.L.P.V.S.F.N.B.N.S.k.z.z.N.H.",
"N.N.Z.F.k.k.z.x.P.G.K.T.I.P.I.M.m.S.m.J.m.N.m.T.N.D.D.C.Z.Y./.Z.m.Y.m.H.Y.A.Y.$XL.I./.N.F.L.oX/.P.N.N.A.A.F.z.F.F.F.H.g.x.F.k.A.",
"F.F.F.H.g.x.H.k.N./.L.P.F.N.P.Z.V.m.S.A.x.H.F.U.a.f.N.m.R.x.m.z.V.~.F.OXK.I.oXT.Y.F.I.L.F.F.K.P.P.V.Z.F.x.M.z.z.g.C.P.D.Y.Z.A.x.",
"z.g.x.J.Z.U.Z.Z.m.F.A.V.I.P.S.N.N.H.M.G.F.F.x.H.A.Z.J.k.N.Z.l.~.P.H.I.I.*X~.N.F./.N.P.S.L.k.M.I.H.J.N.A.C.B.k.Z.D.P.C.x.N.k.z.H.",
"A.D.U.C.x.N.k.M.P.A.B.K.H.Z.M.S.P.H.C.Z.C.F.S.C.Z.f.l.N.k.M.B.T.S.H.C.T.K.V.W.%XN.J.m.G.H.P.k.Y.N.N.m.k.z.k.k.Y.k.x.S.k.j.A.F.Z.",
"D.J.z.k.D.l.x.Z.M.F.Z.Z.F.P.P.D.D.F.x.x.D.l.x.D.D.N.z.D.k.J.Z.G.m.I.N.H.I.m.A.I.l.P.N.S.V.I.M.V.S.N.m.k.M.A.A.F.Y.S.Z.l.F.A.k.C.",
"Z.C.m.z.z.x.H.N.M.S.Z.H.J.F.B.s.F.A.U.A.Z.G.J.D.z.a.a.N.M.m.P.x.I.P.N.P.~.P.T.S.F.V.N.N.m.D.M.H.N.Z.A.P.V.d.P.S.F.G.M.A.F.F.T.F.",
"k.k.l.x.C.C.x.I.l.A.V.S.D.P.M.S.S.F.C.Y.D.U.A.z.C.G.N.H.s.k.C.B.H.m.H.oXN.L.P.V.N.k.s.P.N.N.Z.I.S.m.P.C.A.Y.M.F.!.T././.T.J.H.D.",
"A.Y.m.!.z.m.j.C.T.N.D.Y.D.Y.C.m.U.Y.z.F.H.k.f.I.B.a.H.k.C.l.A.P.P.P.K.V.P.Y.P.L.N.K.I.A.S.G.F.A.A.s.Z.V.N.M.V.I.J.~.S.U.P.%X/.G.",
"H.z.A.d.Z.l.P.C.P.N.Y.N.m.T.z.f.C.x.D.N.S.k.x.S.J.U.P.=XM.F.~.G.S.P.Y.P.!.D.P.P.m.F.J.A.k.S.F.Z.H.D.C.H.l.T.F.m.I.N.A.U.Z.L.S.G.",
"P.Y.P.H.N.D.A.J.D.S.m.m.Y.k.C.R.S.C.J.l.F.h.G.E.T.G.~.J.J.C.j.C.!.F.I.A.I.m.K.j.A.H.%XD.H.F.D.Z.M.H.k.Y.C.N.N.T.F.A.H.I.B.I.P.Z.",
"J.^.G.&XY.R.H.x.P.Z.Z.A.k.H.Z.H.k.d.J.z.C.k.x.Y.C.S.oXN.Z.R.P.Y.M.S.L.I.K.A.N.S.F.S.A.k.V.j.Z.P.H.U.z.M.M.A.Y.x.F.W.A.L.A.F.Z.N.",
"~.%XQ.W.~.J.J.G.A.D.m.P.z.F.A.B.C.d.U.j.N.J.x.C.~./.N.k.P.M.F.oXI.F.N.F.P.L.H.I.Z.N.l.T.x.F.F.k.N.N.B.F.N.A.M.z.C.I.m.J.V./.Y.Z.",
"@ @ + + @ @ @ @ @ @ + @ @ @ @ @ $ @ @ @ @ & & & & & # # & d f f f f d * $ & & & & & & # @ @ @ @ @ @ @ @ @ @ @ @ + + + + + @ @ @ ",
"@ @ + # # @ # @ @ @ @ @ @ + @ @ @ @ @ @ @ @ # @ # # # + @ d 0 9 9 0 0 & + + + # # @ # @ @ @ @ @ @ @ @ @ + @ + @ @ # # + + @ + @ ",
"# # # % # # # # # # # # # # # # # # # # # # # # # # # # & 7 7 6 6 6 9 * % % % # # # # # # # # # # & # # # % % % % @ + # % # % % ",
", , , , 1 1 , 1 1 1 5 1 1 1 5 1 1 1 1 1 1 1 1 5 5 1 5 5 5 7 7 o o * 7 8 4 4 4 8 4 e e 3 3 3 3 3 4 4 4 4 4 4 3 3 3 3 3 3 3 3 3 3 ",
"L F L L L P L L F Q P F L F Q Q Q F Q Q L Q ! Q ! Q L L G 4 =   . O 4 L J P J L P P J P J L P P K P J Q P J P J L J J S L J J F ",
"J Q J J P P P K Q E Q Q Q Q Q E Q Q Q E Q E Q Q E E W ~ F w O . . O p P K Q Q Q E E Q Q P W Q Q ~ E E Q Q E E Q J P P Q P P J P ",
"C B B B B C V B C C C C C C C C C C C C C C Z C C C Z Z A D p 2 2 p D N N V N N V N N N N N N V y N N y y y y y N y y y y y y y ",
"N V N V N N V V V V V Z V Z V V Z Z Z Z Z Z Z V V Z V Z Z S F F D L H Z Z Z Z Z Z Z Z Z Z Z Z Z A Z Z Z Z Z V V V Z Z V N N N N ",
"A S S A A S S S S J S J J J H J J J J S H H J H H J J H J J E E P K K K H J J J J J H J J H J J J J J S J S H J S S J S S S S S ",
"S J J J J J J J J J J J J J J J E E E J E E J J E J J E W J W E W K K K W W E J W J J E E J E E J J J J J J J J J J P S J S S J ",
"J J J J J J J J J E E E J E E K W E E E E W W E E W W W W ~ ~ ~ W K K K W W W E W W E E E E E E E E J J S ( G J E J J S S J P J ",
"P E J P E E ~ W J W E E W K K W E E E W W E E W W E W W K ~ K ~ ~ ~ W W K W W W W W E E E E E J V I 4.v.c.u.*.P E E E E E J J J ",
"W E K W W W J W W W W W ~ ~ ~ ~ ' W ~ W W W { ~ ~ ~ ~ ~ W { ~ ~ ~ W { ~ { ~ ~ K K P ( -.;.;.5.v.b.).7.T G ^ W W E E E E E E E H ",
"E W K ~ ~ W W ~ W W ~ ~ ~ ~ ~ ' ' ' ' ~  .W W { { ~ { ' { { { ~ ' ~ ~ ~ K D Y ;.9.].v.6.6.6.4.) K H { W { ~ W W W E W W E E E E ",
"~ ~ ~ ~ ~ ~ ~ W W { W  .' { { { ' { W ~ { ' {  .{ { { { K ~ K ( -.:.;.<.b.}.`.p.3._ ^ ^ ~ { { ' { ' ' W { K ' W W ' W W W W W E ",
"W W W W ' ' { ' ' ~  .~ { { { {  .{  . .{ '  .{ { K L Y ,.c.[.[.{._.y.7.3.&.{ ` {  .' ' { { ' ' ' { { { ' { W ' W W W ' W W W W ",
"' W { W W { ' { ~  .{  .{ { {  .{ { ~ P ( _ :.,.9.b.}. X|.c.3.) %.} o. . .X.{ { { { { { { { { { { ' { ' { ' ' ~ W ' ' W ' W W W ",
"{ ~ { ' { { { {  .~  .~ / / / Q U -.0.].{.{.'.'.).8.2.} ` ] {  . . . . . . .| [  . .[  .| { ] ] ' { ' { ' ' ' ' ] ' ' ' ' W W ' ",
"' { { ' ' { { { / Q R F u r : - <.XX[.8.1.) $.}  .|  . . .|  .] X.o. . .o.X. . . . . .{  . . .{  . .{  . . .' '  .' '  .{ { { { ",
"{ W ~ / ! F u t q q X - : u i G P H `  . .X.X. .X.X. .X.o.[ ] +.X. .X.X.X. .|  .o. . .[  . . .[ ]  . .{ ]  . . .{ ' { { ' ' ] ' ",
"G i q : X w < q q i R R / / ] X./ +.+.+.] +.+. . .+. .+.X.X.X.+.X.X. .X.X.o. .[ | | | | ' | ' | / } $.%.&.&.2.2.2.3.3.3.;.3.;.,.",
"X < w s i R R / / ] ] X.X.] ]  .] +.] / +.] / +.+. .+. . .+. ./ } ( ^ ! T T -.3.3.6.8.0.0._._.[.'.}.}.[.].}.{.].'._.).).p.y.t.7.",
"R Q E ~ ] ] W ] ] / ] / / ! / / / R / R R U s i i i u r t q : q : > : : g  X#X#X#XXX.X]._.8.7.3.1.1._ ) %.&.&.%.$.$.o.O.o.| | | ",
"] ] J i u u u t t t r r w q q : ; X X X X X > q w r p a s s i i F G ! Q ( &.$.} | ` ` ` ` [ [ [ | O.| O.| X.X.X.O.| | |  . .| { ",
"+.~ q e 2 2 e < 2 w w w q r u i i Q / R @.@.#.#.......+...+.+.X.+.+.+.+.O.O.O.@.O.X.O.o.O.[ O.[ X.O.[ [ O.X.X.X.X.X.X.X.X. .X. .",
"X...P F R F Q Q Q ../ ....+...+.+.@.+.+.@.#.#.#.#.+.+.+.+.+.@.@.@.@.@.+.O.#.O.O.O.O.@.O.O.O.O.O.O.X.+.X.@.X.+.X.X.+.[ [ X.X.X.X.",
"X.+.] +.] +.] +.+.X.+.+.+.+.+.+.@.@.@.@.@.@.#.#.+.@.@.@.#.#.#.@.@.#.@.+.@.O.#.X.@.X.O.@.@.[ [ @.O.[ @.+.[ +.X.X.X.+.X.+.X. .X.[ ",
"X.X.+.+.] +.+.+.+.+.+.+.+.#.+.#.@.@.@.@.@.@.#.#.#.@.@.@.+.#.#.@.#.#.O.@.#.#.@.@.@.@.@.X.[ @.@.@.O.O.[ +.+.X.@.X.X.+.+.O.X.X.| { ",
"+.[ [ +.+.+.+.+.+.+.#.+.+.#.@.@.#.#.#.#.#.#.#.#.#.#.#.#.#.#.#.#.#.#.#.@.#.#.@.@.@.@.@.@.@.@.@.[ @.X.X.+.+.+.O.X.@.X.X.+.[  . .G ",
"+.+.+.+.+.+.+.+.+.+.+.+.#.#.#.+.#.#.#.#.#.#.#.#.#.#.#.#.#.#.#.#.@.@.#.@.#.#.@.@.@.@.@.@.@.@.@.[ @.@.@.+.O.O.O.+.X.@.@.X. .Q I a ",
"+.+.+.@.@.+.@.+.+.@.@.+.@.@.@.@.#.#.#.#.#.#.#.#.#.#.#.#.#.#.#.#.@.#.@.@.#.@.#.@.@.@.@.@.@.@.@.@.@.O.+.@.#.+.+.O.@.+. .{ U a h =.",
"[ +.+.+.+.+.@.@.@.@.@.@.@.@.@.#.#.#.#.#.#.#.#.#.#.#.#.#.#.#.#.#.@.#.#.@.@.@.@.@.@.@.@.@.@.@.@.@.@.@.#.O.#.O.O.O.X.] F h h g  X.X",
"[ +.+.+.+.+.+.O.@.@.@.+.@.@.+.@.#.#.#.#.#.#.#.#.#.#.#.#.#.#.#.#.@.#.#.@.#.@.@.@.@.@.@.@.@.@.@.@.@.@.O.O.@.X.X.o.! s h n.e.q.@X1X",
"t.*.] +.+.+.O.O.+.@.@.@.@.+.@.@.#.#.#.#.#.#.#.#.#.#.#.#.#.#.#.#.#.#.#.@.#.#.#.@.@.@.@.@.@.@.@.@.@.@.#.O.@.@.X.U j f j :X1Xr.j q.",
"<X;XT  .@.@.[ @.@.@.+.@.@.@.@.@.#.#.#.#.#.#.#.#.#.#.#.#.#.#.#.#.#.#.#.@.@.@.#.#.@.@.@.@.@.@.#.@.#.@.#.@.@.X.W j z c x (.,Xw.l z ",
"2X<X>. .[ +.@.@.+.@.@.+.@.@.@.@.#.#.#.#.#.#.#.#.#.#.#.#.#.#.#.#.#.#.#.#.#.@.@.#.@.@.@.@.@.@.#.#.#.@.@.@.@.+.E j M m c b i.k v n "
};
