/* XPM */
static char *result[] = {
/* columns rows colors chars-per-pixel */
"64 64 183 2 ",
"   c #2F2B1D",
".  c #342D1D",
"X  c #3D331F",
"o  c #1F2E25",
"O  c #2B2723",
"+  c #342C25",
"@  c #3D3122",
"#  c #363D26",
"$  c #383C26",
"%  c #35372B",
"&  c #39332C",
"*  c #363E28",
"=  c #3C3E29",
"-  c #43261C",
";  c #45291E",
":  c #4A2A1E",
">  c #422720",
",  c #452921",
"<  c #4B2C22",
"1  c #532E24",
"2  c #423426",
"3  c #4E3025",
"4  c #453825",
"5  c #493B27",
"6  c #42332C",
"7  c #49362A",
"8  c #4C3A2B",
"9  c #543125",
"0  c #583224",
"q  c #543228",
"w  c #583228",
"e  c #533B2C",
"r  c #185939",
"t  c #304725",
"y  c #3C422B",
"u  c #3F4136",
"i  c #026B3E",
"p  c #594435",
"a  c #5D4937",
"s  c #5E4B3D",
"d  c #614B3B",
"f  c #4E7429",
"g  c #676D30",
"h  c #7E643D",
"j  c #2C5F4D",
"k  c #305B49",
"l  c #036F41",
"z  c #086C41",
"x  c #186743",
"c  c #037444",
"v  c #0A7447",
"b  c #037946",
"n  c #057748",
"m  c #0A7749",
"M  c #047B4A",
"N  c #097C4C",
"B  c #1A7E4F",
"V  c #097F50",
"C  c #177E51",
"Z  c #1B7D51",
"A  c #1F7F58",
"S  c #266748",
"D  c #296E58",
"F  c #366454",
"G  c #247550",
"H  c #395B60",
"J  c #5E4D41",
"K  c #52564F",
"L  c #4C6C4E",
"P  c #747040",
"I  c #475A72",
"U  c #557561",
"Y  c #81412F",
"T  c #93412A",
"R  c #8D556A",
"E  c #D04F41",
"W  c #639C2E",
"Q  c #56AD3D",
"!  c #07824E",
"~  c #09824F",
"^  c #068551",
"/  c #0A8552",
"(  c #078A54",
")  c #0B8B56",
"_  c #0C8E59",
"`  c #1B8355",
"'  c #188756",
"]  c #148D5A",
"[  c #1B8B5A",
"{  c #0D935C",
"}  c #0C995F",
"|  c #13925D",
" . c #208356",
".. c #0E9760",
"X. c #0E9C61",
"o. c #119762",
"O. c #119E63",
"+. c #0FA164",
"@. c #11A266",
"#. c #11A468",
"$. c #12A86A",
"%. c #7D8357",
"&. c #57BB43",
"*. c #71A14F",
"=. c #79A754",
"-. c #5FC147",
";. c #BDAF42",
":. c #B79A78",
">. c #BAB462",
",. c #C59059",
"<. c #C4B356",
"1. c #DDD148",
"2. c #E5D654",
"3. c #FCEE58",
"4. c #6A519A",
"5. c #77718C",
"6. c #8665B1",
"7. c #8F5FD1",
"8. c #9267CC",
"9. c #AB73E8",
"0. c #988C89",
"q. c #94978E",
"w. c #9C938D",
"e. c #9D9692",
"r. c #9E9995",
"t. c #9F9A98",
"y. c #A1948C",
"u. c #A1998F",
"i. c #A19691",
"p. c #A89791",
"a. c #A49B94",
"s. c #A99D95",
"d. c #A49E9A",
"f. c #AA9E9A",
"g. c #ABA097",
"h. c #A5A19D",
"j. c #ACA39D",
"k. c #B1A59D",
"l. c #B3A99E",
"z. c #B8A89F",
"x. c #A6A3A1",
"c. c #ACA5A2",
"v. c #ADA9A5",
"b. c #AEABA9",
"n. c #B2A6A2",
"m. c #B8A7A4",
"M. c #B3AAA4",
"N. c #B9ACA4",
"B. c #B3ADAA",
"V. c #BAAEAA",
"C. c #B7B0A7",
"Z. c #BCB1A6",
"A. c #B6B1AD",
"S. c #BBB2AD",
"D. c #B6B3B2",
"F. c #BBB5B2",
"G. c #BDB9B5",
"H. c #BEBBBA",
"J. c #E4B999",
"K. c #C4B2AA",
"L. c #C1B4AD",
"P. c #C5B8AF",
"I. c #C2B6B2",
"U. c #C3BAB5",
"Y. c #CABCB5",
"T. c #C3BDBB",
"R. c #C9BDBA",
"E. c #C8C5B2",
"W. c #C5C1BE",
"Q. c #CBC2BD",
"!. c #D2C4BD",
"~. c #D5C9BF",
"^. c #C5C3C2",
"/. c #CAC5C2",
"(. c #CDC9C6",
"). c #CDCBCA",
"_. c #D1C9C4",
"`. c #D2CDCA",
"'. c #D6D1CE",
"]. c #DCD1CB",
"[. c #D6D3D2",
"{. c #DBD6D3",
"}. c #F2E2CC",
/* pixels */
"Y *.&.Q t & o F | @.+.+.+.+.+.} X.X.....} { { ( b ! { [ y w q q F.I.T.F.F.A.H.C.S.{.C.B.d.L.H.n./._.F.T.B.l.d.l.B.h.g.v.s.s.j.h.",
"T =.-.Q P l.q.F | @.@.@.+.+.X.X.X.......{ { { ( ! ! | [ y w 1 1 H.L.N.P.U.T.b.B.N.b.].T.D.].M.j.~.U.h.k.a.j.l.h.h.g.t.h.h.B.h.h.",
"E g W f :.}.].U | O.@.@.+.+.O.O.X.X.o...{ | { ( M ~ | [ y w 1 < S.Y.H.T.(.S.D.F.U.S.W.k.L.b.].S.P.S.z.S.k.j.h.a.a.s.s.j.h.h.S.g.",
"J.<.1.;.,.J.E.U [ O.@.@.+.+.O.O.X.X.X...} { _ ( M ) { [ = w 1 q W.W.(.L.S.W.S.j.k.E.l.G.W.F.W.l.j.B.M.D.v.a.v.v.D.g.I.h.g.r.x.G.",
"%.2.3.2.h R K H ] +.+.+.+.+.+.} X.X.X...} } ( ( M ~ _ [ y 0 1 1 C.W.Q.(.G.C.z.D.C.F.C.Z.S.F.S.D.S.M.a.M.v.v.C.A.t.b.w.c.g.C.x.A.",
"L >.1.>.6.8.6.H | +.+.+.+.} +.} } X.X.{ { { } ( M ! { [ y 9 1 q S.Y.A.S.N.A.Z.U.Q.P.T.h.F.S.T.F.j.j.A.v.H.A.s.C.D.S.C.l.l.v.A.v.",
"A L P K 6.9.7.I ] O.+.} +.+.} } } } { } { { { ( M ! { [ y 1 1 9 C.v.Y.A.S.I.Z.B.S.W.W.Z.C.A.D.C.A.B.l.C.v.S.W.Z.Q.N._.D.H.C.h.A.",
"O.| Z k 5.6.4.D { O.+.+.+.} +.} } } } { } ( ( ( M ! | [ y 9 : 9 S.M.K.U.L.E.A.c.A.F.W.A.G.l.C.l.D.M.A.x.v.g.l.U./.P.I.U.C.M.Z.v.",
"$.#.o.' S F G ] O.+.+.+.O.} } } X.......{ _ ) ( b ~ _ [ y 1 , q G.^.A.n.P.T.(.G.A.C.S.F.S.S.C.B.H.C.A.j.j.l.l.S.v.M.U.Q.M.U.F.S.",
"$.#.#.@.O.} } +.O.O.+.X.} X.+.} ..{ { { { { ) ( b ~ _ [ y 1 : 3 D.S.'.Q.C.H.D.S.H.W.U.Z.S.C.m.C.G.A.Z.g.M.F.B.A.c.E.b.F.U.S.b.W.",
"$.#.#.@.#.@.+.+.+.+.+.X.O.} X.X.} { { { _ _ ( ^ b N ] [ y < : 1 '.Z./.S.S.c.c.`.F.C.S.C.C.S.B.E.A.Z.r.B.Z.h.C.B.W.j.G./.b.E.U.U.",
"$.#.@.@.@.@.+.+.X.X.X.X.} } } } } { { { _ _ ) ( b N ) ' y < ; 1 W.F.A.S.j.Z.W.G.A.C.G.F.S.F.F.j.C.l.W.Z.l.P.b.S.c.F.G.V.G.F.F.F.",
"#.#.@.@.+.+.+.+.X.X.} } } } } } { { { { _ _ ( ^ b N ] ' * : : < S./.h.S.Z.L.H.E.C.P.D.C.A.A.G.C.A.H.S.h.S.Z.g.v.B.W.S.T.S.S.U.S.",
"#.#.@.+.+.+.+.X.@.O.} } } } { { { { _ _ ) _ ^ ^ c N ) ' y : ; < C.C.U.B.'.B.Z.E.C.G.S.W.h.C.F.F.g.D.h.b.Z.h.C.A.A.P.I.M.v.S.C.C.",
"@.@.X.+.+.} O.O.} } } } } { { { { | _ _ _ ) ( ^ c N ] ` * : ; < v.v.E.F.W.S.W.G.D.W.).h.S.F.l.A.A.v.S.l.M.A.C.Z.j.v.l.M.B.d.S.B.",
"+.@.X.X.} O.} +.} } } } { } { { { _ { { ) ) / ^ c m ) ` * ; : , N.l.S.S.A.G.W.S.A.U.W.g.Q.G.C.C.C.A.S.C.l.b.M.h.j.l.B.a.i.d.j.A.",
"X.+.X.X.X.X.X...} { { { { { { { _ _ _ ) ) ) / ^ c n ) ` * ; : ; g.H.j.v.F.v.F.W.S.C.W.j.M.Z.W.W.S.l.h.v.c.B.a.n.v.M.A.y.a.M.a.v.",
"X.X.X.X.X...X...} { } { { { { _ _ _ _ ) ) ) / N c m ) ` # < < < l.U.l.!.Z.C.W.T.P.M.S.Z.l.B.C.C.A.v.c.v.j.x.h.h.y.j.S.k.D.M.c.j.",
"X.X.X.....X.{ ..{ { { { { { _ _ _ _ ) ) ) / / ^ c n / ` $ < 3 < C.b.A.S.(.E.h.M.H.j.C.b.C.s.h.S.C.M.j.M.j.j.a.l.k.A.x.s.j.u.d.C.",
"X.X.} } ..{ ..{ { { { { _ _ _ _ _ _ ) ) ) / / N l m / ` = 1 1 < b.B.x.G.C.c.L./.l.C.j.N.b.S.r.P.h.j.s.d.h.u.t.D.d.h.v.d.u.v.b.c.",
"X.X.{ { { { { { { { { _ _ _ _ _ ) ) ) ) / / ! N l v / Z @ 1 1 < j.S.h.B.S.d.v.S.a.D.g.b.l.S.v.j.B.g.h.a.h.v.b.M.D.B.j.h.M.v.d.h.",
"{ ..{ { { { { { { _ _ _ _ _ _ ) ) ) ' ) / / ~ N l v / ` = 1 1 < L.C.g.A.E.A.G.B.l.l.h.j.g.l.h.B.j.b.l.B.l.r.A.b.M.Z.h.j.M.M.F.B.",
"{ { ..{ { { { _ { _ _ ) ) ) ) / / ) / / / ~ ~ N i v / C # 1 1 < M.h.C.W.j.C.A.v.j.s.u.A.h.j.M.A.v.j.A.h.j.G.h.C.P.G.H.W.G.C.M.M.",
"{ { _ { { _ { _ _ _ _ ) _ ) ) ) ) / ) / / / ~ b i v / B % 1 1 : S.A.C.M.A.S.S.Z.g.C.A.v.v.M.B.v.v.y.v.l.j.j.j.S.C.T.B.F.A.W.W.Z.",
"( } ( { ( { _ _ _ _ ) ) ) / / ) / / / / ~ ~ ~ N c i ' B $ 1 1 : b.A.D.C.Y.l.A.C.j.b.N.j.h.C.M.j.b.l.j.B.a.F.l.j.C.j.b.S.v.S.b.N.",
"{ ( ( { _ _ ( _ ( ( ( ) ) / / / / / / ^ ~ ~ N N v i z B $ < : < U.C.S.B.A.j.C.u.c.A.Q.M.M.v.l.j.h.B.d.S.v.j.j.G.M.b.M.Z.l.A.A.j.",
"( ( ( ( ) ) ( / ~ ! ! ! / ^ V V V N N N N N N N N z r x = 1 ; > h.v.C.Z.C.l.c.b.B.v.v.s.l.u.l.A.B.A.h.h.h.v.G.g.l.U.v.Z.v.C.l.h.",
"M M M M M b b b b b b c c c c c c c c l c c m N j * % % 2 e e 8 A.C.h.N.A.S.M.A.c.j.s.S.h.M.v.d.j.j.j.B.j.v.h.h.j.A.j.C.l.U.D.v.",
"( ^ / / ~ ~ / ~ / ~ N ! N ! V N N N N N m m l x o O + 6 6 p d s C.W.U.P.M.A.A.S.M.A.g.v.M.B.h.j.M.j.w.M.a.A.M.M./.M.l.S.H.S.g.j.",
"{ { _ { _ { _ _ _ _ ) ) ) ) / / / / / ^ / V c j O O + 6 7 8 d s i.S.B.j.a.S.M.M.A.l.S.C.j.M.j.s.M.w.b.h.c.h.j.g.C.M.M.l.g.h.j.l.",
"` [  . .`  .` ` ` ` `  . .Z A Z A B B B Z Z Z S u & 6 7 8 e s J B.A.j.B.z.Q.c.S.b.F.u.b.k.s.a.j.A.r.g.j.n.k.M.d.x.j.h.k.v.s.h.v.",
"5 5 8 5 5 5 5 4 4 2 X X @ . .   . . . . @ @ 2 7 5 8 7 7 7 p a J b.v.L.S.A.d.j.v.j.A.h.j.h.j.g.u.C.Z.r.h.j.v.v.B.a.r.g.g.l.b.d.h.",
"0 9 0 0 0 0 9 9 0 1 1 < < < - - > , < < 1 1 1 1 q p e q p d p J M.I.x.S.].L.A.B.S.v.M.g.v.A.A.j.S.j.0.s.h.S.D.k.B.s.A.v.r.v.r.M.",
"0 0 0 0 0 0 9 9 1 1 1 1 < < - , < < < q q q 1 q q J J d d d d J x.h.n.M.Q.I.T.W.v.G.g.B.g.x.v.I.A.j.j.j.M.M.l.M.m.c.A.a.D.j.B.d.",
"3 9 < 3 3 3 < < 1 < < , - - > > , > , , > > , < 8 J J J J J J J ].v.A.f.U.(.j.C.B.j.j.j.j.a.h.a.a.B.M.h.v.B.W.v.j.j.c.N.g.u.h.d.",
"h.g.l.v.g.r.d.j.B.k.I.B.j.n.c.F.c.S.x.s.x.s.M.s.e.T.B.f.b.n.c.b.Z.s.c.n.j.c.v.A.v.b.v.S.h.v.j.S.l.c.s.Y.S.a.B.l.Z.a.j.w.d.u.M.j.",
"N.v.l.C.y.s.B.d.v.g.j.v.f.V.0.b.V.B.n.x.f.B.n.v.i.B.e.m.f.b.b.0.B.B.i.v.B.B.h.h.k.g.l.B.j.B.l.S.T.A.C.v.W.Q./.G.B.W.n.S.v.C.h.e.",
"h.y.j.D.k.A.j.v.f.n.(.p.f.f.B.B.h.x.p.n.h.S.s.m.n.x.M.h.c.f.n.i.j.B.x.a.M.v.j.j.h.A.C.j.v.v.l.B.v.Q.W.U.s.C.u.G.v.G.d.x.j.j.g.h.",
"c.n.B.c.g.j.a.h.A.n.B.d.D.x.n.f.x.c.c.v.b.d.f.c.M.d.v.c.n.x.i.B.M.M.D.c.b.v.v.M.h.A.l.v.A.v.A.j.F.v.j.b.v.j.l.j.F.h.C.A.W.C.l.v.",
"D.h.d.b.a.u.v.M.j.F.v.z.d.B.n.x.c.c.a.s.v.n.d.s.c.x.M.w.t.b.x.V.c.c.v.M.A.S.h.b.A.h.h.j.F.b.M.A.F.D.F.l.b.F.S._.D.A.D.d.j.g.H.b.",
"z.D.A.j.d.M.c.d.b.K.b.F.b.I.d.t.j.j.x.n.x.m.t.c.x.x.m.t.t.n.I.b.U./.V.R.^.T.n.b.k.h.B.M.F.C.S.M.g.v.A.j.D.A.G.j.g.S.S.v.v.l.b.v.",
"B.n.M.c.v.C.M.F.m.n.D.f.B.x.x.H.x.f.m.x.c.m.t.b.n.c.d.c.n.t.x.n.k.m.R.b.H.B./.m.p.B.B.V.B.F.G.b.l.v.A.B.S.S.M.S.F.l.h.v.j.C.A.t.",
"s.B.M.k.n.M.n.b.m.d.f.V.n.c.b.d.D.f.f.n.n.f.t.c.f.B.f.x.x.b.n.t.s.S.B.c.T.V.B.k.b.n.b.^.S.A.B.T.c.C.k.l.G.v.j.A.C.M.j.g.B.l.x.j.",
"/.m.F.A.B.s.S.k.V.t.V.b.m.V.b.n.n.n.b.n.f.m.F.f.d.p.I.x.V.F.^.m.D.U.B.U.B.I./.V.B.V.V.b.U.v.l.N.M.S.h.Z.Z.v.A.A.v.r.h.Z.h.S.g.v.",
"L.^.b.m.M.n.N.Y.n.H.f.f.H.m.D.f.b.m.n.n.t.D.f.f.T.n.D.V.D.m.m.b.I.S.c.n.n.c.V.I.f.A.G.I.D.b.v.V.N.v.D.I.M.B.n.c.z.c.c.s.A.b.d.h.",
"D.V.S.x.f.d.b.A.I.n.m.F.).F.m.V.n.H.t.b.b.c.I.d.b.V.b.V.n.x.F.m.n.n.B.F.D.F.B.v.A.V.M.b.F.F.B.S.B.j.I.v.v.x.D.j.S.B.b.A.v.A.h.h.",
"U.B.K.V.B.k.B.V.H.T.D.b.D.m.R.H.m.D.p.V.V.I.b.b.D.^.H.n.R.n.f.D.A.M.f.h.V.x.m.V.c.b.f.D.L.D.B.U.B.P.M.M.M.V.B.S.D.k.F.I.l.B.S.F.",
"T.n.T.V.B.c.S.M.m.m.m.R.).m.D.I.I.t.b.m.T.I.T.T.n.D.m.R.n.n.D.).F.B.b.k.V.V.D.D.^.D.B.I.M.V.n.G.(.M.U.C.M.B.W.Q.I.R.T.d.S.T.Q.B.",
"B.`.A.U.I.k.D.T.R.T.I.(.d.F.^.I.n.V.F.c.n.V.V.f.I./.m.I.I.I.b.I.V.^.D.n.V.T.B.`.f.M.b.n.G.h.U.V.(.^.Y.Q.Y.M.T.T.I.G.D.R.^./.^.I.",
"c.`.T.F.^.I.n.I././.R.V.R.H.R.F.F.F.L.R.).^.V.I.T.e.D.H.D.c.T.R.B.D.H.I.c.L.b.p.I.B.k.D.D.W.c.^.L.(.Q.F.V.Q.c.^.L.V.R.W.^.R.T.m.",
"'.I./.`.D.m.R.B.^.I.I.I.I.).W.L.V.T.D.n.H.T.^.K.I.^.^.T.I.^.F.t.V.H.I.n.D.n.m.D.f.F.I.(.I.W.T.R.U.U.{._.F.V.c.W.V.R.V.T.D.Q.T.).",
"R.G.T.{.[.m.V.j.I.F.^.F.(.B.^.^.).T.V.[.I.F.T.L.Y.I.^.R.R.R.F.R.R.(.R.F.V.n.V.G.m.V.n.s.Q.H.B.F./.S.V.W.F.W.L.V.I.^.F.!.I.W.I.^.",
"R._.T.S.T.I.Y.R.B.I.H.B.T.H.^.R.).V.L./.V.I.V.T.m./.b./.R.I.H.F./.^.K.V.I.D.R.T.V.n.T.D.n.^.S.Y.I.G.n.n.U./.B.S.T.I.F.R.R.H.T.V.",
"!.T.L.f.b.R./.v.F.R.F.L.I.(.^.^.G.T.I.I.Y.M.L.T.I./.(./.I.R.m.).F.^.H.R.T.I.V.n.F.M.V.I.B.x.V.V.x.L.H.Q.D.s.V.V.T.H.L.R.(.T.m.F.",
"T.c.V.F.Q.D.f.B.D.R.D.V.^.(.L.B.I.G.T.L.K./.I.M.K.D.!.R.m.I.m.I.T.R.T.R.F.D.V.b.b.m.T.I.I.D.D.m.W.S.F.V.n.G.G.b.H.I.T.I.V.m.R.m.",
"D.R.T.T.F.c.T.F.c.V.H.R.H.F.m.(.V.I./.(.G.V.D.Q.D.n.!.R./.H.T.I.[.K.H.).U.F.n.W.n.V.D.n.!.D.x.T.B.n.G.j.F.U.F.c.B.V.B.n.D.B.B.j.",
"j.c.M.F.m.W.I.W.B.m.V.I.m.F.B.m.b.v.M.M.Q.S.S.I.c.D.V./.L.V.c.F.{.V.K.I.m.F.V.T.V.B.x.c.c.V.f.H.D.B.F.x.i.d.m.b.b.c.c.d.s.n.M.c.",
"c.k.T.k.b.x.S.H.V.b.b.f.D.H.m.B.l.S.M.S.L.H.L.b.R.R.m.I.V.V.^.V.I.T.D.D.H.V.I.D.j.H.0.B.S.n.D.B.n.b.m.e.f.n.i.j.f.b.b.i.B.x.h.c.",
"n.F.Z.S.v.S.M.c.c.m.B.H.H.B.R.b.k.g.B.F.G.B.U.B.S.T.(.F.D.m.m.T.d.R.I.D.H.T._.t.M.n.F.F.^.c.L.T.x.D.v.f.B.m.b.v.n.x.j.a.0.B.c.b.",
"V.M.T.j.n.M.M.W.c.n.T.H.B.m.V.n.T.v.n.m.U.F.B.S.F.I.B.H.T.S.m.b.V.D.m.m.c.b.m.I.A.c.B.n.b.c.D.n.d.b.n.B.d.v.v.M.D.c.m.n.x.b.0.B.",
"B.B.c.s.j.M.B.M.A.C.A.L.H.k.F.N.c.A.M.N.b.n.L.D.n.V.m.k.L.k.f.Y.V.L.F.D.m.t.p.f.x.V.U.n.I._.D.D.D.c.j.c.j.x.V.k.h.b.d.S.b.D.0.d.",
"L.m.G.L.B.p.j.F.A.F.P.K.B.F.U.Z.S.M.P.N.R.F.V.U.k.I.G.M.Y.h.I.x.V.V.f.K.!.I.f.F.F._.f.j.!.I.d.c.V.m.f.x.F.D.j.v.c.B.D.d.h.i.x.d.",
"S.B.D.G.A.j.h.k.j.S.A.F.W.Z.S.W.B.k.c.K.c.V.W.n.F.G.V.m.K.n.j.f.x.n.B.I.f.I.T.p.V.F.'.I.I.D.n.W.I.d.f.i.V.f.c.f.x.b.n.i.V.k.c.h.",
"M.n.B.v.B.j.M.M.M.j.A.A.S.H.S.S.c.S.n.c.n.m.I.K.v.R.f.j.I.T.R.k.V.D.0.R.L.V.F.I.Y.F.Q.M.j.B.B.B.D.c.n.V.f.x.x.c.b.m.n.j.c.v.x.t."
};
