/* XPM */
static char *_b4e64aebd664bd88e182cabedc0332frXvyVPM2yR0p767H[] = {
/* columns rows colors chars-per-pixel */
"64 64 107 2 ",
"   c #4B4545",
".  c #7B94C4",
"X  c #8F8484",
"o  c #948F8C",
"O  c #96928F",
"+  c #9C948D",
"@  c #9E9691",
"#  c #9E9996",
"$  c #9D9B9B",
"%  c #A0948B",
"&  c #A4998F",
"*  c #A09693",
"=  c #A89791",
"-  c #A49B94",
";  c #A99D95",
":  c #A49E9A",
">  c #AA9E9A",
",  c #B09F98",
"<  c #ACA096",
"1  c #A6A19D",
"2  c #ACA39C",
"3  c #B1A59D",
"4  c #B3A89E",
"5  c #B8A89F",
"6  c #A7A4A2",
"7  c #ACA5A2",
"8  c #AEA9A5",
"9  c #ADABAA",
"0  c #B1A6A2",
"q  c #B3AAA4",
"w  c #B9ACA5",
"e  c #B3ADAA",
"r  c #BAAEAA",
"t  c #BDB1A7",
"y  c #B5B1AD",
"u  c #BCB3AD",
"i  c #B5B3B2",
"p  c #BBB5B2",
"a  c #BDB6B2",
"s  c #BAB7B5",
"d  c #BCB5B4",
"f  c #BCB7B4",
"g  c #BFB6B5",
"h  c #BBB8B6",
"j  c #BFB8B4",
"k  c #BDB9B6",
"l  c #BDB9B7",
"z  c #BBBAB9",
"x  c #BFBAB8",
"c  c #BEBAB9",
"v  c #BEBBBB",
"b  c #BDBCBB",
"n  c #BFBCBB",
"m  c #C0AEA8",
"M  c #C1AFA9",
"N  c #C0B1A7",
"B  c #C1B2AE",
"V  c #C2B4AD",
"C  c #C2B5AD",
"Z  c #C4B8AE",
"A  c #C2B6B2",
"S  c #C1B6B4",
"D  c #C0B6B5",
"F  c #C3B9B3",
"G  c #C3BAB4",
"H  c #C0BBB6",
"J  c #C5B8B6",
"K  c #C7BBB7",
"L  c #C9B9B5",
"P  c #C8BDB7",
"I  c #C3BDB8",
"U  c #C1BDBB",
"Y  c #C4BEB9",
"T  c #C0BEBD",
"R  c #C2BFBF",
"E  c #C5BEBD",
"W  c #C6BEBC",
"Q  c #C8BBB9",
"!  c #CABEBA",
"~  c #C6C1BD",
"^  c #C5C1BF",
"/  c #C9C0BB",
"(  c #CBC2BE",
")  c #CAC3BF",
"_  c #CEC3BE",
"`  c #D3C5BC",
"'  c #C4C3C2",
"]  c #C4C3C3",
"[  c #C7C6C5",
"{  c #CBC3C1",
"}  c #C8C3C2",
"|  c #CDC3C0",
" . c #CAC5C2",
".. c #CAC5C3",
"X. c #CFC6C0",
"o. c #CDC5C4",
"O. c #CBC8C6",
"+. c #CBC9C7",
"@. c #CDCBCA",
"#. c #D6C5C1",
"$. c #D0C9C6",
"%. c #D2CDCB",
"&. c #D1CFCE",
"*. c #D6D0CE",
"=. c #DDD3CF",
"-. c #D6D4D3",
";. c white",
/* pixels */
";.;.;.;.;.;.;.;.;.;.;.;.;.;.;.;.;.;.;.;.;.;.;.;.;.;.;.;.;.;.;.;.;.;.;.;.;.;.;.;.;.;.;.;.;.;.;.;.;.;.;.;.;.;.;.;.;.;.;.;.;.;.;.;.",
";.;.;.;.;.;.;.;.;.;.;.;.;.;.;.;.;.;.;.;.;.;.;.;.;.;.;.;.;.;.;.;.;.;.;.;.;.;.;.;.;.;.;.;.;.;.;.;.;.;.;.;.;.;.;.;.;.;.;.;.;.;.;.;.",
";.;.;.;.;.;.;.;.;.;.;.;.;.;.;.;.;.;.;.;.;.;.;.;.;.;.;.;.;.;.;.;.;.;.;.;.;.;.;.;.;.;.;.;.;.;.;.;.;.;.;.;.;.;.;.;.;.;.;.;.;.;.;.;.",
";.;.;.;.;.;.;.;.;.;.;.;.;.;.;.;.;.;.;.;.;.;.;.;.;.;.;.;.;.;.;.;.;.;.;.;.;.;.;.;.;.;.;.;.;.;.;.;.;.;.;.;.;.;.;.;.;.;.;.;.;.;.;.;.",
";.;.;.;.;.;.;.;.;.;.;.;.;.;.;.;.;.;.;.;.;.;.;.;.;.;.;.;.;.;.;.;.;.;.;.;.;.;.;.;.;.;.;.;.;.;.;.;.;.;.;.;.;.;.;.;.;.;.;.;.;.;.;.;.",
";.;.;.;.;.;.;.;.;.;.;.;.;.;.;.;.;.;.;.;.;.;.;.;.;.;.;.;.;.;.;.;.;.;.;.;.;.;.;.;.;.;.;.;.;.;.;.;.;.;.;.;.;.;.;.;.;.;.;.;.;.;.;.;.",
";.;.;.;.;.;.;.;.;.;.;.;.;.;.;.;.$ $ $ $ $ $ $ $ $ $ $ $ $ $ $ $ ;.;.;.;.;.;.;.;.;.;.;.;.;.;.;.$ $ $ $ $ $ $ $ $ $ $ $ $ $ $ $ ;.",
";.;.;.;.;.;.;.;.;.;.;.;.;.;.;.$ . . . ;.. . . . $ ;.;.;.;.;.$ ;.;.;.;.;.;.;.;.;.;.;.;.;.;.;.$ . . . ;.. . . . $ ;.;.;.;.;.$ ;.;.",
";.;.;.;.;.;.;.;.;.;.;.;.;.;.$ . . . . . . . . $ ;.;.;.;.;.$ ;.;.;.;.;.;.;.;.;.;.;.;.;.;.;.$ . . . . . . . . $ ;.;.;.;.;.$ ;.;.;.",
";.;.;.;.;.;.;.;.;.;.;.;.;.$ . . . ;.. . . . $ ;.;.;.;.;.$ ;.;.;.;.;.;.;.;.;.;.;.;.;.;.;.$ . . . ;.. . . . $ ;.;.;.;.;.$ ;.;.;.;.",
";.;.;.;.;.;.;.;.;.;.;.;.$ . . . . . . . . $ ;.;.;.;.;.$ ;.;.;.;.;.;.;.;.;.;.;.;.;.;.;.$ . . . . . . . . $ ;.;.;.;.;.$ ;.;.;.;.;.",
";.;.;.;.;.;.;.;.;.;.;.$ . . . ;.. . . . $ ;.;.;.;.;.$ ;.;.;.;.;.;.;.;.;.;.;.;.;.;.;.$ . . . ;.. . . . $ ;.;.;.;.;.$ ;.;.;.;.;.;.",
";.;.;.;.;.;.;.;.;.;.$ . . . . . . . . $ ;.;.;.;.;.$ ;.;.;.;.;.;.;.;.;.;.;.;.;.;.;.$ . . . . . . . . $ ;.;.;.;.;.$ ;.;.;.;.;.;.;.",
";.;.;.;.;.;.;.;.;.$ . . . . . . . . $ ;.;.;.;.;.$ ;.;.;.;.;.;.;.;.;.;.;.;.;.;.;.$ . . . . . . . . $ ;.;.;.;.;.$ ;.;.;.;.;.;.;.;.",
";.;.;.;.;.;.;.;.$ . . . . . . . . $ ;.;.;.;.;.$ ;.;.;.;.;.;.;.;.;.;.;.;.;.;.;.$ . . . . . . . . $ ;.;.;.;.;.$ ;.;.;.;.;.;.;.;.;.",
";.;.;.;.;.;.;.$ $ $ $ $ $ $ $ $ $ ;.;.;.;.;.$ ;.;.;.;.;.;.;.;.;.;.;.;.;.;.;.$ $ $ $ $ $ $ $ $ $ ;.;.;.;.;.$ ;.;.;.;.;.;.;.;.;.;.",
";.;.;.;.;.;.$ ;.;.;.;.;.;.;.;.;.$ ;.;.;.;.$ ;.;.;.;.;.;.;.;.;.;.;.;.;.;.;.$ ;.;.;.;.;.;.;.;.;.$ ;.;.;.;.$ ;.;.;.;.;.;.;.;.;.;.;.",
";.;.;.;.;.$ ;.;.;.;.;.;.;.;.;.;.$ ;.;.;.$ ;.;.;.;.;.;.;.;.;.;.;.;.;.;.;.$ ;.;.;.;.;.;.;.;.;.;.$ ;.;.;.$ ;.;.;.;.;.;.;.;.;.;.;.;.",
";.;.;.;.$ ;.;.;.;.;.;.;.;.;.;.;.$ ;.;.$ ;.;.;.;.;.;.;.;.;.;.;.;.;.;.;.$ ;.;.;.;.;.;.;.;.;.;.;.$ ;.;.$ ;.;.;.;.;.;.;.;.;.;.;.;.;.",
";.;.;.$ ;.;.;.;.;.;.;.;.;.;.;.;.$ ;.$ ;.;.;.;.;.;.;.;.;.;.;.;.;.;.;.$ ;.;.;.;.;.;.;.;.;.;.;.;.$ ;.$ ;.;.;.;.;.;.;.;.;.;.;.;.;.;.",
";.;.$ ;.;.;.;.;.;.;.;.;.;.;.;.;.$ $ ;.;.;.;.;.;.;.;.;.;.;.;.;.;.;.$ ;.;.;.;.;.;.;.;.;.;.;.;.;.$ $ ;.;.;.;.;.;.;.;.;.;.;.;.;.;.;.",
";.$ $ $ $ $ $ $ $ $ $ $ $ $ $ $ $ ;.;.;.;.;.;.;.;.;.;.;.;.;.;.;.$ $ $ $ $ $ $ $ $ $ $ $ $ $ $ $ ;.;.;.;.;.;.;.;.;.;.;.;.;.;.;.;.",
";.;.;.;.;.;.;.;.;.;.;.;.;.;.;.;.;.;.;.;.;.;.;.;.;.;.;.;.;.;.;.;.;.;.;.;.;.;.;.;.;.;.;.;.;.;.;.;.;.;.;.;.;.;.;.;.;.;.;.;.;.;.;.;.",
";.;.;.;.;.;.;.;.;.;.;.;.;.;.;.;.;.;.;.;.;.;.;.;.;.;.;.;.;.;.;.;.;.;.;.;.;.;.;.;.;.;.;.;.;.;.;.;.;.;.;.;.;.;.;.;.;.;.;.;.;.;.;.;.",
";.;.;.;.;.;.;.;.;.;.;.;.;.;.;.;.;.;.;.;.;.;.;.;.;.;.;.;.;.;.;.;.;.;.;.;.;.;.;.;.;.;.;.;.;.;.;.;.;.;.;.;.;.;.;.;.;.;.;.;.;.;.;.;.",
";.;.;.;.;.;.;.;.;.;.;.;.;.;.;.;.;.;.;.;.;.;.;.;.;.;.;.;.;.;.;.;.;.;.;.;.;.;.;.;.;.;.;.;.;.;.;.;.;.;.;.;.;.;.;.;.;.;.;.;.;.;.;.;.",
";.;.;.;.;.;.;.;.;.;.;.;.;.;.;.;.;.;.;.;.;.;.;.;.;.;.;.;.;.;.;.;.;.;.;.;.;.;.;.;.;.;.;.;.;.;.;.;.;.;.;.;.;.;.;.;.;.;.;.;.;.;.;.;.",
";.;.;.;.;.;.;.;.;.;.;.;.;.;.;.;.;.;.;.;.;.;.;.;.;.;.;.;.;.;.;.;.;.;.;.;.;.;.;.;.;.;.;.;.;.;.;.;.;.;.;.;.;.;.;.;.;.;.;.;.;.;.;.;.",
";.;.;.;.;.;.;.;.;.;.;.;.;.;.;.;.;.;.;.;.;.;.;.;.;.;.;.;.;.;.;.;.;.;.;.;.;.;.;.;.;.;.;.;.;.;.;.;.;.;.;.;.;.;.;.;.;.;.;.;.;.;.;.;.",
";.;.;.;.;.;.;.;.;.;.;.;.;.;.;.;.;.;.;.;.;.;.;.;.;.;.;.;.;.;.;.;.;.;.;.;.;.;.;.;.;.;.;.;.;.;.;.;.;.;.;.;.;.;.;.;.;.;.;.;.;.;.;.;.",
";.;.;.;.;.;.;.;.;.;.;.;.;.;.;.;.;.;.;.;.;.;.;.;.;.;.;.;.;.;.;.;.;.;.;.;.;.;.;.;.;.;.;.;.;.;.;.;.;.;.;.;.;.;.;.;.;.;.;.;.;.;.;.;.",
"X X X X X X X X X X X X X X X X X X X X X X X X X X X X X X X X X X X X X X X X X X X X X X X X X X X X X X X X X X X X X X X X ",
"                                                                                                                                ",
"                                                                                                                                ",
"Y 0 1 3 g 0 r r a g E D L E 7 d 0 0 7 r g e $ > 8 6 2 q 8 u - 3 # 6 6 < : l 1 e - - < y < 2 1 u 8 y ^ 7 F p y _ y : 8 @ 1 i t 3 ",
"D m Y B x u r B X.r B L | D i D > J 7 i r 7 7 1 : 2 6 6 9 - 8 @ q q 2 r y 7 y 1 7 + 1 # < 1 n 8 Z r 8 w p 1 < G a 2 1 e - 1 8 2 ",
"3 q q 3 ' a p $.Q E )  .Q D U D | 7 r e : 1 7 @ % 0 6 0 1 q 6 2 2 y 2 O.- 2 y ` - 9 7 2 2 * 2 1 9 2 4 x 2 y e t 1 1 y 1 4 8 < 1 ",
", w a w q o.q r #.#.O.e o.} i 0 r g e i g > > 0 q 6 r * w u - > i y q *.2 ^ I y 9 2 @ 1 ; e 2 0 - q < 1 O.3 8 e 8 8 2 9 1 @ 1 1 ",
"E g a r g E ) e 7 p _ O.d | * | g o.r 0 > e 7 7 6 : 1 q D 7 7 : 7 8 < 1 n 8 w i + w O 2 - 6 # 0 ' y 1 1 w q 7 - - < 1 < < 8 y 1 ",
"q a 0 3 r g P 7 p B a 0 L D J c 0 e 9 U > > 3 6 2 q q * * 7 7 + - a + 2 I 2 z t 2 2 1 4 6 8 + 7 3 8 2 1 u 8 1 @ 4 e 1 2 1 4 1 1 ",
"r 3 F p u q 9 A E r E J M M D , J 9 > > 6 7 9 > : 0 0 7 > 0 x - 6 2 3 - 2 l m 9 u : 0 q 6 e i D 4 e y y 1 i 1 x u 1 < y 1 # 6 9 ",
"J ) w p e D m d D d r r J } r e E 9 g > g @ > * $ 7 = 0 q a r s 3 - 8 4 2 < q 2 - 6 e 2 8 3 8 > e q y & 8 4 4 y q < q 2 8 y < q ",
"w u p 0 g e U r r { r D v U R r B g 8 r 0 > 9 e 0 1 i e : : 7 > < w @ 1 e - = - - e r ; q q e 2 y e 8 q 9 y - & & x 1 t y 1 9 : ",
"2 0 E q U x m | d A L m D J @.q E u 9 @ 6 0 7 7 8 0 7 > 1 : x : s x < 2 1 6 q q e q q 2 1 4 2 2 f 8 h 4 y < 1 7 q y n y 1 y 2 1 ",
"7 u r w w d r r o.A J } %.0 { 6 0 B 6 0 7 0 0 0 > 0 0 1 : - u ; u 2 - 3 * 1 & 3 q u 8 2 1 t q q < y i q 4 ) 4 4 t 4 & 4 y q 9 1 ",
"3 8 Z 4 0 9 q q { E d M r d p g 9 > $ 0 8 > 0 6 - 7 - 0 7 e 6 9 8 2 & p y y r q : 7 y 1 6 1 9 < q u 9 < ) e y f O 2 1 1 y h 1 u ",
"u 3 w y q 2 d 7 D D D d Q D g r : i D r 0 6 > 7 6 7 7 e r 1 x 1 2 9 % s @ + 6 1 y q 8 q q y - y k x q 9 Z u l 8 u u 6 8 : 2 2 < ",
"4 q u 6 I 3 0 7 r D x @.@.r B 0 B 0 7 0 7 g > > 7 7 : r 7 u q 1 + 3 % q 6 1 q 6 i 9 q 8 y 2 q < 1 u t ~ 4 ~ t y + < : q < t 4 u ",
"u ^ w 5 q q r q _ e ' E E g B D g g e > 8 : g - 6 > e 7 a 2 q y 9 < - y 4 y h # < 8 + 4 9 4 4 1 u 2 q y y 4 Z 9 4 9 x 4 9 < 4 - ",
"a a l a u Y w q e a ' [ o.' Q H g ! q p 9 q 6 : 0 7 r o 7 6 t u 4 9 2 2 6 4 6 1 1 1 4 y 1 9 8 u 8 t z h ~ 6 y Z Z 4 q 9 9 4 y O ",
"p w a 4 0 e l p A [ ` H e o.Y s q w s r u 7 6 U e 6 > r 3 8 e e y : < e 9 q 1 i i y 4 s 1 i 1 t < 1 y ~ t y 2 k i 9 Z 4 / 1 4 < ",
"h ^ e G r s i w l _ g Y [ x ) : o.d o.x 7 0 r 8 : s : > 2 q 4 $ y u 2 < 1 1 u < 4 q y q 8 u y u 4 q h 8 Z [ ~ ~ y h q u 4 y 8 t ",
"y h t Z n l > l J r g e s A r  .J e s > 9 u 2 u 3 > = 8 e w q 3 2 u 2 & y 8 1 2 s 8 y 2 e 4 y h 2 h 7 y t +.e 4 y t Z H k H y e ",
"e y F y ~ u 9 u x d s U  .D F U 0 g 0 > e > y e e r o.2 F - 2 < q 9 4 u < 8 < u q 4 8 6 4 2 t t q h t t ~ y y x q s q 4 4 y Z < ",
"3 y l r 1 q 8 q u J J F a A [ ! q F 0 I : - 6 N p 0 0 ; 2 2 t - 2 y 8 2 8 2 9 2 2 6 q q 8 t x 5 x y u u e Z 7 Z y H y x h u 4 e ",
"4 < y y 8 2 w e q i d r A ] [ Q r g J 3 w r w 8 2 e 2 7 y q r u f x n u 4 y 8 y x < 1 1 y 2 8 y q t u u k ~ y 8 y 4 y h < 6 2 y ",
"w 3 D q ] 6 s E p e 0 Q 3 e D H e r i F 0 7 D : 8 1 1 < 2 u e Z f ~ 4 u t 1 t 1 1 u 2 2 1 1 1 2 u e ~ u / 8 u t 2 u 6 6 Z < 6 6 ",
"0 1 2 e e w u G Q : } J r ' 7 e r r 7 w r 0 e 6 8 & 8 8 < 1 u y u x t ~ y y 8 y O 1 y 1 < 4 8 # 1 u t u u t / q y 4 y @ # y 1 ~ ",
"2 2 ; 7 q r 7 n 6 s Y u w 0 J 0 2 0 : q > r r 7 & 2 f - # 8 2 k x 8 H q t x 4 - < 1 1 < 1 i < # e 2 t H e ~ q t H 4 < < 1 1 < u ",
"e u e 7 0 8 e 0 d | r U -.p _ A r r > 7 e 0 q : < < 4 + < q y H t ) H ~ k h 7 6 1 1 : 8 < 4 + < 8 t / y / k / / i 2 6 6 1 1 8 & ",
"7 G D ; 2 u 3 a A c > u =.%.g G q u 1 3 u 8 6 8 8 1 i y 9 4 ~ t H H 9 H ~ ` e + H 1 < < 1 u y 9 4 Z u k k 8 k t ~ y + x < # < t ",
"e i a q Q r n q H r A E F | Y e I V p e u q q 9 1 y 1 4 2 8 / Z u 2 ~ 8 / 4 t 2 < & < 1 i 2 4 < 8 ~ / i 1 ~ q / t y 8 < < 1 1 Z ",
"e e 3 e e g 3 7 E 7 _ $.h P &.&.e e t ' 5 y q u 1 4 + 8 4 2 y 9 2 ] 2 4 ) ~ s 1 i < 2 e 4 + 8 4 2 i 8 4 ~ 4 2 ~ ) f 1 i & 1 q 4 ",
"q t B e r 0 7 > g Y Q E L &.2 i F l f u  .< 7 e y 2 1 t 2 t i q u q y t / q y y 1 < 2 e 1 1 q 2 u i 4 y q y u ~ t y i 1 < 1 4 y "
};
