/* XPM */
static char *result[] = {
/* columns rows colors chars-per-pixel */
"64 64 55 1 ",
"  c #4B4545",
". c #8F8484",
"X c #948F8C",
"o c #9E918D",
"O c #9E9592",
"+ c #9F9997",
"@ c #9F9A98",
"# c #A09693",
"$ c #A89791",
"% c #A49A94",
"& c #AA9C96",
"* c #A59D9A",
"= c #AA9E9A",
"- c #ACA096",
"; c #A5A09D",
": c #ACA29D",
"> c #B1A59D",
", c #B8A89F",
"< c #A7A3A1",
"1 c #ACA5A2",
"2 c #AEA9A5",
"3 c #ADABA9",
"4 c #B2A6A2",
"5 c #B4AAA4",
"6 c #BAABA4",
"7 c #B3ADAA",
"8 c #BAAEAA",
"9 c #BEB0A7",
"0 c #B5B1AD",
"q c #BCB2AD",
"w c #B5B3B2",
"e c #BCB5B2",
"r c #BDB9B6",
"t c #BEBBBA",
"y c #C0B1A7",
"u c #C1B3AD",
"i c #C4B8AF",
"p c #C2B6B2",
"a c #C3B9B5",
"s c #C9BBB5",
"d c #C4BDBB",
"f c #CABDBA",
"g c #C5C0BE",
"h c #CBC2BE",
"j c #C5C4C3",
"k c #CBC5C2",
"l c #CCC8C6",
"z c #CECCCB",
"x c #D6C5C1",
"c c #D0C9C6",
"v c #D2CDCB",
"b c #D6D0CE",
"n c #DDD3CF",
"m c #D6D6D6",
"M c white",
/* pixels */
"MMMMMMMMMMMMMMMMMMMMMMMMMMMMMMM.  dp:-d58a611>q>e9tr09:262:7>755",
"MMMMMMMMMMMMMMMMMMMMMMMMMMMMMMM.  5656ee>g8492>3gq6gr90->;:0tw7q",
"MMMMMMMMMMMMMMMMMMMMMMMMMMMMMMM.  1s6re4a8ed6i5q9re79qr0r--0qr>q",
"MMMMMMMMMMMMMMMMMMMMMMMMMMMMMMM.  >u>58,ee4765q1,r>rg05050>:-250",
"MMMMMMMMMMMMMMMMMMMMMMMMMMMMMMM.  qtg5eeq2ea622a5q55tg:2g05>>g5q",
"MMMMMMMMMMMMMMMMMMMMMMMMMMMMMMM.  4eelfe7s7re7:45g0rr55:;5q3q9e>",
"MMMMMMMMMMMMMMMMMMMMMMMMMMMMMMM.  88p5ff78duq4e466tq>339re:3>t>>",
"MMMMMMMMMMMMMMMMMMMMMMMMMMMMMMM.  5pl80<pe8h754355w5r057geg2e53;",
"MMMMMMMMMMMMMMMMMMMMMMMMMMMMMMM.  ecsx4ege8rzhp8c4ptftq4es1rarge",
"MMMMMMMMMMMMMMMMMMMMMMMMMMMMMMM.  a8dxwu8ek8udee0ejh8edw5;whrq1s",
"MMMMMMMMMMMMMMMMMMMMMMMMMMMMMMM.  guklhudu8ssptdjjkaqedq2hg5:9gh",
"MMMMMMMMMMMMMMMMMMMMMMMMMMMMMMM.  psk7l4p8p8ju8zfjrf7da7gsqg9glg",
"MMMMMMMMMMMMMMMMMMMMMMMMMMMMMMM.  shskesufreb8dzgk7jekup:85mndts",
"MMMMMMMMMMMMMMMMMMMMMMMMMMMMMMM.  jpajkeujdd4wp8ujztpppg5d6evksb",
"MMMMMMMMMMMMMMMMMMMMMMMMMMMMMMM.  1wteOfpyglheeuugggqdkla1sgetv:",
"MMMMMMMMMMMMMMMMMMMMMMMMMMMMMMM.  eue7ke:7841e84pae*jaddaw:us7m7",
"MMMMMMMMMMMMMMMMMMMMMMMMMMMMMMM.  44h4e4adpg43;ude4vd4583q:74g6p",
"MMMMMMMMMMMMMMMMMMMMMMMMMMMMMMM.  4p4tjw33p8u*84eg4e7esp87408u7d",
"MMMMMMMMMMMMMMMMMMMMMMMMMMMMMMM.  <48874=p43<<p177pcr44pw4*:1q8e",
"MMMMMMMMMMMMMMMMMMMMMMMMMMMMMMM.  8w7w4d=*wO4481=87t==a1a64443jq",
"MMMMMMMMMMMMMMMMMMMMMMMMMMMMMMM.  e8*p=*=w7=224443e430*8>0%07p6k",
"MMMMMMMMMMMMMMMMMMMMMMMMMMMMMMM.  7<=*341*=45=<w*314q&$8255,447=",
"MMMMMMMMMMMMMMMMMMMMMMMMMMMMMMM.  +11*4=3*41=4=1e<<7:017e5q2<642",
"MMMMMMMMMMMMMMMMMMMMMMMMMMMMMMM.  =<#413=#714<:=$;a3q7y1;14;13e4",
"MMMMMMMMMMMMMMMMMMMMMMMMMMMMMMM.  3*o4<4*%22=%<1:>0;>3r:42O-2;;w",
"MMMMMMMMMMMMMMMMMMMMMMMMMMMMMMM.  1=41*41:;24111;::w;9>0;%>-;0>:",
"MMMMMMMMMMMMMMMMMMMMMMMMMMMMMMM.  *<*8<4,%0:4%1;35-;%l2-1>w>0:O;",
"MMMMMMMMMMMMMMMMMMMMMMMMMMMMMMM.  714#3#2>0-;1783X0-2;->;2-o0525",
"MMMMMMMMMMMMMMMMMMMMMMMMMMMMMMM.  23:7a#;5;;;1q:r1>13i>0-*@-3:>:",
"MMMMMMMMMMMMMMMMMMMMMMMMMMMMMMM.  8*3814>w;;O5;q>;225--7e;23,>>9",
"MMMMMMMMMMMMMMMMMMMMMMMMMMMMMMM.                                ",
"MMMMMMMMMMMMMMMMMMMMMMMMMMMMMMM.                                ",
"MMMMMMMMMMMMMMMMMMMMMMMMMMMMMMM.................................",
"MMMMMMMMMMMMMMMMMMMMMMMMMMMMMMmMMMMMMMMMMMMMMMMMMMMMMMMMMMMMMMMM",
"MMMMMMMMMMMMMMMMMMMMMMMMMMMMMmMMMMMMMMMMMMMMMMMMMMMMMMMMMMMMMMMM",
"MMMMMMMMMMMMMMMMMMMMMMMMMMMMmMMMMMMMMMMMMMMMMMMMMMMMMMMMMMMMMMMM",
"MMMMMMMMMMMMMMMMMMMMMMMMMMMmMMMMMMMMMMMMMMMMMMMMMMMMMMMMMMMMMMMM",
"MMMMMMMMMMMMMMMMMMMMMMMMMMmMMMMMMMMMMMMMMMMMMMMMMMMMMMMMMMMMMMMM",
"MMMMMMMMMMMMMMMMMMMMMMMMMmMMMMMMMMMMMMMMMMMMMMMMMMMMMMMMMMMMMMMM",
"MMMMMMMMMMMMMMMMMMMMMMMMmMMMMMMMMMMMMMMMMMMMMMMMMMMMMMMMMMMMMMMM",
"MMMMMMMMMMMMMMMMMMMMMMMmMMMMMMMMMMMMMMMMMMMMMMMMMMMMMMMMMMMMMMMM",
"MMMMMMMMMMMMMMMMMMMMMMmMMMMMMMMMMMMMMMMMMMMMMMMMMMMMMMMMMMMMMMMM",
"MMMMMMMMMMMMMMMMMMMMMmMMMMMMMMMMMMMMMMMMMMMMMMMMMMMMMMMMMMMMMMMM",
"MMMMMMMMMMMMMMMMMMMMmMMMMMMMMMMMMMMMMMMMMMMMMMMMMMMMMMMMMMMMMMMM",
"MMMMMMMMMMMMMMMMMMMmMMMMMMMMMMMMMMMMMMMMMMMMMMMMMMMMMMMMMMMMMMMM",
"MMMMMMMMMMMMMMMMMMmMMMMMMMMMMMMMMMMMMMMMMMMMMMMMMMMMMMMMMMMMMMMM",
"MMMMMMMMMMMMMMMMMmMMMMMMMMMMMMMMMMMMMMMMMMMMMMMMMMMMMMMMMMMMMMMM",
"MMMMMMMMMMMMMMMMmMMMMMMMMMMMMMMMMMMMMMMMMMMMMMMMMMMMMMMMMMMMMMMM",
"MMMMMMMMMMMMMMMmMMMMMMMMMMMMMMMMMMMMMMMMMMMMMMMMMMMMMMMMMMMMMMMM",
"MMMMMMMMMMMMMMmMMMMMMMMMMMMMMMMMMMMMMMMMMMMMMMMMMMMMMMMMMMMMMMMM",
"MMMMMMMMMMMMMmMMMMMMMMMMMMMMMMMMMMMMMMMMMMMMMMMMMMMMMMMMMMMMMMMM",
"MMMMMMMMMMMMmMMMMMMMMMMMMMMMMMMMMMMMMMMMMMMMMMMMMMMMMMMMMMMMMMMM",
"MMMMMMMMMMMmMMMMMMMMMMMMMMMMMMMMMMMMMMMMMMMMMMMMMMMMMMMMMMMMMMMM",
"MMMMMMMMMMmMMMMMMMMMMMMMMMMMMMMMMMMMMMMMMMMMMMMMMMMMMMMMMMMMMMMM",
"MMMMMMMMMmMMMMMMMMMMMMMMMMMMMMMMMMMMMMMMMMMMMMMMMMMMMMMMMMMMMMMM",
"MMMMMMMMmMMMMMMMMMMMMMMMMMMMMMMMMMMMMMMMMMMMMMMMMMMMMMMMMMMMMMMM",
"MMMMMMMmMMMMMMMMMMMMMMMMMMMMMMMMMMMMMMMMMMMMMMMMMMMMMMMMMMMMMMMM",
"MMMMMMmMMMMMMMMMMMMMMMMMMMMMMMMMMMMMMMMMMMMMMMMMMMMMMMMMMMMMMMMM",
"MMMMMmMMMMMMMMMMMMMMMMMMMMMMMMMMMMMMMMMMMMMMMMMMMMMMMMMMMMMMMMMM",
"MMMMmMMMMMMMMMMMMMMMMMMMMMMMMMMMMMMMMMMMMMMMMMMMMMMMMMMMMMMMMMMM",
"MMMmMMMMMMMMMMMMMMMMMMMMMMMMMMMMMMMMMMMMMMMMMMMMMMMMMMMMMMMMMMMM",
"MMmMMMMMMMMMMMMMMMMMMMMMMMMMMMMMMMMMMMMMMMMMMMMMMMMMMMMMMMMMMMMM",
"MmMMMMMMMMMMMMMMMMMMMMMMMMMMMMMMMMMMMMMMMMMMMMMMMMMMMMMMMMMMMMMM",
"mMMMMMMMMMMMMMMMMMMMMMMMMMMMMMMMMMMMMMMMMMMMMMMMMMMMMMMMMMMMMMMM"
};
