/* XPM */
static char *result[] = {
/* columns rows colors chars-per-pixel */
"64 64 27 1 ",
"  c #352E2E",
". c #382F2F",
"X c #36302F",
"o c #372F30",
"O c #382F31",
"+ c #373131",
"@ c #3C3434",
"# c #3E3837",
"$ c #3F3738",
"% c #3F3939",
"& c #413636",
"* c #413837",
"= c #413738",
"- c #443B3B",
"; c #493E3E",
": c #47403F",
"> c #4A403F",
", c #463F40",
"< c #4A3F40",
"1 c #474140",
"2 c #4B4242",
"3 c #4E4846",
"4 c #4F4848",
"5 c #514545",
"6 c #524847",
"7 c #524748",
"8 c #524949",
/* pixels */
"@-5-=2-2&-2-2528@#-=;-;->-3--225;=2>%2---22;;;-5-28-@-;=-23-,-21",
"-,&&+-@=2=>=3@=22-+++;@,;@--=-*32=*.=-%;---&--2;=@+@;&--==;:&=&2",
"12-2-=+=2.;2@-,&--%-2#+-5;-5&&>@2-=22@@->&@-o%=@:2&>8++@->-2+#-=",
"22-2&2-=2&=-$-;O:-X2+2-@=+=&&;-==3@2#-;=;+-----@=-->@;@;-@=;22@=",
"@1@-+&&-82@2&-=;@2--@===;1,7+2&;===5%*2222+-=2-==1:>#&-&8---*22@",
"1-%@;32<---*@.=>2*+-2;-5@-1=;+&-22%+-=@2=--=-&;2-2@---,7@-1=@@22",
"-1:%---=-=----=>%>=%--8=;2-1-+;--:,+21-;-@2=-&2,-%-@-52&-==2&*;>",
"#-+2&6-@==&&;.--=---*8-X;---;*2-X-.3#2-O--%-&*,5@:+5*2=->-2@*&->",
">-=3@=--@%@3-+-2>*@-=@2-*=&-2@=,-->--=-%#=@2-=-22---12--#-=2-@--",
"-2-62o2.2-+*222--=>>=@8 ;-+=5=-=#--2-=2@-5#-2-,@*-+2=-8=--@=;2>-",
"@&--@@&-2-8&@&3@;==;=+->&=2&+----=2-@.@32-2&--1@@>==@=+-5;;&+=-;",
"-;2=25-.+>X>2--=1,2@=22#==o;;&-=-:1==11=;2@-3%@->1-%=12-%2=,3-.#",
"2-@32*.-2=+@-,,-3=3=-2@2>2=;$3@-3--;-;=2@;=-=8--::-35-@%2=-2@3$&",
"&1&2+&-3-@;2--@-+-1----:@=*>--@-::@;->==;@;-12@2:%-;--O2+&*%%-.,",
"@@+@;=;<6@2=--=2@-&@21=-5@=3@-28=*@=22538:=-1@=2-#$%-5>-5&-$%*@-",
"&&;-&22@&5%,=+3=;@-@%1-=--2;2@-#-=@-=3-@-216@=21%==@-2-=-2=;212-",
"@=53=--2-;%@22:2+2>>=&-3*1--22>:-@>-=2;-=;3==>-;=233@=;1-21:-685",
"-@@+%;$-@=;>@--2-2&+&--->;-;-=-*-+*X=;%12--22=*;&=@ @2:,-=2=@-%2",
"@=%:2+-;;2,-=&-.@>2-2===;&;-+=--%-->2;=#@&:>==;+=,;22@@-=@;>-&-.",
"2=-=+2-#=@@==32-2=%-$1-%&+=@;-2=>;=2@-#=;@-==3;&-;@5@-1=1=--@2-+",
"=-@2-=--53-7&5;-==&;-=3&3112.2-;@--5=>=25:@5+2==-%+--=*=8-@3-2=;",
"2;+@*;;6+---@--;3-+%;=;2-*2-.&-5>3++;2--+==@&.+--:-:-;@2+-@@&@*>",
"%2@=2,;=-;=2&&2;-2;2-;5-2-%2*.-;--&--=--=322-&-;--=-;=2=2-::-+2*",
"=2@-=8-@>3=*-+;-==-2&52&-%@@;-2-@#&2:-%==-%%2&;2.,@3&5%@-;->-&;2",
"#22:2-22+-@;2-@-@&;--@2;-;==;@%-2-@::-=@&.&;-==3*52-----&-+;;=-2",
"=%-2@%3O--&-->;=@2@--@2&25+-;;2@*212:=2+--@---2----1%@:@<-+;-;2-",
"*=@-;=*;;22-%&12&+&;=+==--3--=;@@-*2=+#2;;5&->-;.*:=-@-=252@=@2@",
":32#--=+@;@;22o@:6--=7-=&&+2;-@+@:--&2-+@-.25-&-->:-==2*@;@2%;-.",
"@--@--+--;-&@2,@-%25--+--2=>@;---==-;2@;*=-@----22#->@@>--#=$2=-",
"*%12X#=-&+2-;;=2@:-;@&@1&=---- -,--;*-+8;-@--$@-=2@-1#@=++=;--@@",
"@;*=@2=---22-2$2*@=+-7325-2-3--,@@@$-3>-,=-@1-+2#@=@2:2=8=-22@-2",
"-+&.--2-@8@-@@-%@@=>-2-@---;-@,$@@2;--@:-22;-&3:1=:-->=-;2=2-+1-",
"&-5-@;=-&-5,2---@=22-;=-&=4--;;8.&-==2----3-;228-112;2&-@2==8-23",
"2=-+--@=-@5=*2*2-$&.&;-2;---@&---&@@*-,--:===2*-;-&.&5@2-2-223-;",
"===22-;-2=+2=+5X,-22-=;;;2;;#>----238*==-==-++;.*;=52@@==@&>@.2@",
"83@2+=;&:$2&>2@;--#-@--&+&@;-2--2-+==2---&,&2>;*>-%>@;--#@==-3*@",
"@2----@->2@>&;;-=$;@&=&&;---*6.-=-@>;>--;3-3@2@=-=%;;@;@22=2@;-&",
"22*-;-=<+;--&&>@;2=;-&=5+--&-@@-#-@==*>;+-&=&@-=2-%:--@6+=;-;-&;",
"-==#--5@-211-@;-321:<->-2:-1=*=;-2-@;;2&=2:-&.-=-3@%=<2=-;2--+25",
"-:&=+2%+--%@-&25@2-5+3%.-2=-&.-;+>+;-3=$23+@;.3;=2@:@22---;--&;5",
">-#----1@--=2--2;;->#;>:&=+-2,$3*@-221&3$=+>>*=3*2-;-@--@@&-8-O-",
">%=>-+6@&-%@--=--@=--#2+<2+&=2-=@123;@8+-;X23--->2-2@@8-,3O-;2-&",
"--->-@#>2;;;.-1-=-2*@@@2-58--23&&--@@&-2225--2;;+*--@@@&<26--&2-",
"-85>-2=@.;O2---@-22=@2*@&;&--@@@*25----&=-.2==O,;21%=13X-- -;-=@",
"2=@@*- 5-;@*--=-$@--;-@5-;@-@-%2-@#=2= ,@3;;-=---@=--;.-;3@&@;-@",
"-1@2-&+=++-=-,@-@3-2-=@>$$-2-@+2@1#-+@.3=@-*=;@-;:-2@&.2====%3@=",
"*@=&;>2=2=@2-=+3-@=+-,;13=--1-%5#+>%@2=-3=,=:,%1@@@:@2-=8%=--@;2",
"@&-=@#*+-2=2=+-=@==-@31#&-%2=@3-==-=@;;-;--,1@-2=*&==:-1==2;2+2%",
"*-2-@-21&25-23;2@122@---=-22;3:3@-2@=;&1-122;;52@-1-*;-2*->=823-",
"-%@+*;-@2;--&=-23=+---@1--,%:-==2=@+@2@--%@%=2-5-=@@-2-==2;*=--2",
"@3-51-=&@-+;@>=@-=135#@--,2--=;@-;23;.=>;2;=@=--#>&88%@2-*=;--3-",
"-2+-*=-,*+@;=>;&22%2&=--&@2-2-@@=;+2@=2%=@%*::&-22-2@=-%%-#+=2-@",
"=-#2>--=2-@8@6-;@22-=-;=5;--%42>+2--$--=23=8&2=-*3+2=-;=22+1@3&-",
"-%@--2-;@22-=@2>-2-%-&%<@2==@@*>*-%&=--2*&-+&*@--=@->;=2@-2@=@-;",
"=----2;=-1---+>;@-=;;,5@;&=2-*&>--%@2--2-;=--.-;22-%-&-;2-%2&-@;",
"%--2@;--3-=@2&2-@6--+23@&2-%-@:;-5@2=3-=23:%-@;-&--8-2=+--=*;-;;",
";-&>---2O-=:-.@2--;>--->@-%=;=&1-1->----.-=56@;->-@2-$-@@%%--@=2",
"=3*3--2=<>+=221-----@*6-;>@----%=--:#X2@&;+--=,-*2--=@3@--+=;21=",
"@==-+=-;;;;&=@:=--=&@@+>-52=+=-@=;=-=+#=-25= ;6-@*%2@o+222-=@:2=",
"=63-@2,@@-@-2;@$28-=@-2@,;@3-1@@=33+=6-=%;+:*-+@;32-=22o@=@2--#+",
"2-322-+5;=--=2---@%-8-@-&&*;-:$:1-2;8-*>2=--=3-2-,2-2;.12>@@-3@2",
"-2-2+2@2;.----+-%-+5-1@;-@---:+---@;%>+1==:=@-&=,2=6+=@1>+22--@=",
"--=@@;>1;-@---=5-@=--,2-5@--2=#5@.*=>2-=2=--2=#2-.-+@;=-5%--==@2",
"2&&+-2---;;2-%:->+=@==-@-2%2=-12-=%=-*;@@2-&%@2=&&*@%;2@13-2=+22"
};
