/* XPM */
static char *_f2d5ee5d4dc401bb95758b482671c81odQHEXrRaVxgIUBG[] = {
/* columns rows colors chars-per-pixel */
"64 64 123 2 ",
"   c #FFF200",
".  c #978986",
"X  c #948F8C",
"o  c #9C8D88",
"O  c #96918F",
"+  c #9C948D",
"@  c #9D9692",
"#  c #9D9995",
"$  c #9F9B99",
"%  c #A1948C",
"&  c #A2998F",
"*  c #A09692",
"=  c #A89791",
"-  c #A49B94",
";  c #A99D95",
":  c #A49E9A",
">  c #AA9E99",
",  c #B09F98",
"<  c #ABA096",
"1  c #A6A19D",
"2  c #ACA39C",
"3  c #B1A59D",
"4  c #B4A99E",
"5  c #B8A89F",
"6  c #A6A3A1",
"7  c #ACA5A2",
"8  c #ADA9A5",
"9  c #AEABA9",
"0  c #B2A6A2",
"q  c #B8A7A4",
"w  c #B3AAA4",
"e  c #B9ADA5",
"r  c #B3ADAA",
"t  c #BAAEAA",
"y  c #B7B0A7",
"u  c #BCB1A6",
"i  c #B5B1AD",
"p  c #BBB2AC",
"a  c #BEB5AD",
"s  c #BDB6AF",
"d  c #BFB6AE",
"f  c #B5B2B0",
"g  c #B4B3B1",
"h  c #B5B3B2",
"j  c #B6B5B3",
"k  c #B8B3B0",
"l  c #B9B5B1",
"z  c #B8B5B2",
"x  c #B9B5B2",
"c  c #BBB5B2",
"v  c #BDB4B0",
"b  c #BEB4B0",
"n  c #BCB7B3",
"m  c #BDB7B3",
"M  c #BAB7B5",
"N  c #BBB7B5",
"B  c #BFB7B4",
"V  c #BFB8B1",
"C  c #BBB8B7",
"Z  c #BCB8B5",
"A  c #BEB9B4",
"S  c #BBBAB9",
"D  c #BFBBB8",
"F  c #BFBCBA",
"G  c #BFBDBC",
"H  c #C0B1A7",
"J  c #C5B7AB",
"K  c #C1B4AD",
"L  c #C0B5AD",
"P  c #C0B5AF",
"I  c #C1B6AE",
"U  c #C1B6AF",
"Y  c #C8B3AD",
"T  c #C4B8AE",
"R  c #C2B7B0",
"E  c #C2B6B2",
"W  c #C2B8B1",
"Q  c #C3B9B4",
"!  c #C1BBB5",
"~  c #C3BBB4",
"^  c #C0B8B7",
"/  c #C4BBB5",
"(  c #C6BAB5",
")  c #CABCB5",
"_  c #CABDB5",
"`  c #C0BCB8",
"'  c #C0BDB9",
"]  c #C0BDBB",
"[  c #C3BDBB",
"{  c #C5BFB9",
"}  c #C0BEBD",
"|  c #C9BDBA",
" . c #C4C0BC",
".. c #C5C1BE",
"X. c #C6C2BE",
"o. c #C7C2BE",
"O. c #CBC2B9",
"+. c #CAC2BB",
"@. c #CBC2BD",
"#. c #CBC3BF",
"$. c #D3C4BD",
"%. c #D5C9BF",
"&. c #C5C2C0",
"*. c #C6C2C0",
"=. c #C4C3C2",
"-. c #C7C5C4",
";. c #CAC5C2",
":. c #CFC7C2",
">. c #CDC8C6",
",. c #CFC9C6",
"<. c #CCCBCA",
"1. c #D6C5C1",
"2. c #D2C8C2",
"3. c #D1C9C4",
"4. c #D0CAC6",
"5. c #DFCFC6",
"6. c #D2CDCB",
"7. c #D6D1CE",
"8. c #DBD1CB",
"9. c #DED2CB",
"0. c #D6D3D2",
"q. c #DCD6D2",
"w. c #DCD6D5",
/* pixels */
"x 4 p d - d D 6 i r < r u < + < d < p 2 1 ; 3 r 1 1 2 1 2 2 - ! d d } x m k S r i q.r r 1 U ! w ;.2.x ! r 3 1 3 y 1 < 8 - 1 1 1 ",
"2 t 1 ; w ; ; 7 7 w d i w 2 m 1 < 1 1 i 1 r 1 6 1 i 1 1 8 u r 2 D d e J ! } r r e 8 9.~ x 8.e 1 %.~ : 0 < 2 3 1 1 < - 1 < i 2 1 ",
"2 1 < $ 1 1 i 1 6 u N D u 1 2 2 y 2 n r i 1 i # 2 8 + 8 1 i +.2 u ! F { 3.^ r ^ ! d +.3 U 8 q.U J t 0 U 2 2 1 * - < ; 1 1 ; s ; ",
"- - ; < 1 1 ; d 2 i 3 Z y J 8 r < 1 r 9 2 r 8 8 1 < 1 4 - 1 L +.X.&.:.R t ` x < 2 +.4 V ! Z X.2 2 r r f 8 - r 8 j < U 1 1 @ 6 C ",
"7 j 2 U 1 2 @ 6 C V e V d 4 r 1 e 8 : w i u 2 r 4 1 9 2 r # 1 y e ~ ;.,.m p 0 x r U i e d d i j k w < r 1 8 r i # 8 + 7 < i 1 i ",
"i $ 8 + 1 ; i 1 i i e d w d r ! 1 6 : & C 2 w : 1 1 3 y 1 8 3 6 x +.r u e r e _ #.V D 2 j p ! n 2 3 p 1 D j ; i C s i 2 8 w i 3 ",
"i x p r 3 8 w u w D j U d 9 2 9 2 u < w i D 2 2 y 1 1 1 2 $ i < r r _ s d U e r d X.X.u y i j r r r 1 y 8 p ` e +.t :.x D i 2 i ",
"u +.e ,.j D i 1 i y w r x s R w + U O u w & 4 d 2 < 8 1 V i y 4 i w u Z d _ i w i d X.i Z 3 u 3 j t d 7 w ; w _ #.J V ~ u w u 8 ",
"W #.J ~ ~ u r u 8 d Z 2 o.Z T 8 y 8 d 8 1 & i R & ; 8 u ! 2.t <.V F x 0 T +.:.n i u n n y p i r D y y 8 3 4 3 i 8 w ! +.t ! x u ",
"p 8 w !  .r T d d 8 t r o.8 i T y V i 4 1 - w 7 - 8 8 r 1 i w 9 x d 7.#.y F C i F  .~ y u y q y x d y ; w V y i 3 ~ 9 C ! u 9 F ",
"i 0 +.9 d ~ d 8 F d t <.X.d 8 2 +.i r :.< i 4 j 8 w 8 r 2 d 3 d 6.r ;.d T 1 2 7.s y p w w d y +.f y # w y 2 y r =.1 ! ;.i Z ~ ! ",
"w X.1 ! ;.r Z _ D y X.y T y +.i y T ;.4 i 8 8 1 d w ,.2 i W ` u o.d r d 1 y O.s i w D s s j V 2 y 4 X.d 3 d 8 x 7 n V u Z T Z x ",
"d 7 j W t Z d n p d y j r  .j i _ 9 2 8 2 w * r 1 1 2 S e 8 r 2 p #.1 i u U D  .u V j 8 i s C w u S u : p u < 4 r ` u W U d Z d ",
"8 w F p ! d d C d i u w j i Z r u w 8 i Z y i y 2 ; ; w w { e r t i ~ y 7.r u o.i C s o.2 y s d 2 j 1 9 w 1 i i i W ! t 7 d r t ",
"i i W ~ w 7 d r e i d S y $ y 3 i Z d i r r t 9 9 i w 2 r p 2 +.7 8  .U  .s +.Z j o.:.1 s d w i i 8 n 8 w s p s 2 w w w r : u 8 ",
"p 2 w r w r 1 u r x y 2 4 < 9 p 8 F 8 < n i r 3 2 =.; 9 U 8 2 6.e 4 p u i V F s i s  .2 X.j y y r x u y 3 8 w 1 3 2 9 - - : 2 i ",
"1 3 2 r ; - - 1 i w y N d y p 1 < r < t < 2 2 V 1 0 8 1 w n ` 1 ; V 1 8 s 8 C o.d y ~ 2 4 d X.~ d 2 7 8 8 w : w 8 w i + ; r ; 7 ",
"w w w r + ; r : 3 D y d r 1 r 8 4 < 9 r ; r w i + # 1 < ` : 2 : 3 _ u +.u i o.Z s r d u 4 8 i y i 2 7 w 1 1 1 : % < p 3 j 7 7 < ",
"1 % 2 p 0 j 7 7 2 y 3 4 p i 9 2 1 y 1 u 7 w 2 r 2 8 i - 2 1 < ` y 9 u s >.V 2 w Z 1 y r u ; 1 U t r < 8 7 2 & 8 0 i 7 ; 2 # 1 r ",
"7 3 r 6 ; 2 - : i 8 3 i r 2 1 9 i r 6 6 7 w 8 6 8 $ - 2 ; : 4 n 8 i 6 Z y 8 d ;.3 r 2 i 8 i - s 2 2 < : 1 & ; n : : 9 - & 3 r 7 ",
"4 t 1 ; w ; : 7 6 8 8 6 r d p 4 8 w 1 2 7 ; 2 w 3 1 1 3 - r 2 t 2 p 2 9 s < 2 d ; j < 9 w U 1 3 8 2 < # 1 8 9 4 x i 2 1 8 2 1 1 ",
"1 1 1 $ 1 ; r 2 1 8 2 y r w 2 @ w 8 j 8 0 e r 3 1 O + 2 1 1 d ; s i < i _ i S 9 4 4 1 3 < w 1 r 2 8 4 i 3 # i 9 w 4 1 8 t w Z y ",
"; - ; < 1 1 ; d < 8 4 r 4 i 6 8 9 w 7 i w r 7 : 1 u 2 9 + & 7 7 r < y X.2 y i 3 3 & & i 1 1 4 i 8 3 i 1 8 C 1 8 U D Z X.x i r 4 ",
"8 j < _ 1 < @ 6 N 1 4 d 8 i 1 < j u - w r : $ p 2 + i - 7 ; 7 p i i y w i V i u 2 y i 8 8 y w 8 8 + 8 3 < 2 2 V u ! r V i #.` t ",
"i : 8 + 7 ; i 6 i 1 x 2 2 Z : $ 6 1 w 2 r - 2 9 t j i +.1 r / e 9 i j r _ 4 i y < r e 7 - i r 2 r 8 7 r ; Z 4 2 u 1 8 j 7 p 8 u ",
"i x i i 7 7 w u             6 C                     / i r 6         d 8 i 2             w 8 w 2                     w d 2 p i 1 ",
"e #.e :.x ! i 1             2 i                     X.1 7 S         y u w 8             4 - 1 i                     8 u 8 w 4 1 ",
"T #.J Z ! u     8 w < i 1 r 8 2 6 @ i -     < 6 ` X.1 ;     r X.j t     i p     7 2 ; d     t - 2 1 2 w     1 : 6 d 2 r 4 ! V 8 ",
"d 8 w / { t     u 1 x = < r 2 i 8 C n 2     3 ; < 1 6.<.    7 x r F     w i     8 i 2 8     1 1 w 3 + w     t r #.8 2 d ! d ; 2 ",
"p 2 { 9 n / d 8         2 2 2 - + + = -     3 3 % < w 2                 < d             2 w 2 ; w + 8 1     1 < i i w 4 < 1 2 w ",
"r &.1 ! ;.r Z _         n ; r < 3 9 2 2     ; 6 Z 0 r x                 4 +.            3 ; - 2 i # ; 7     w : 1 2 2 3 6 < 1 8 ",
"d : C ! u S W x x 7 w 2     1 i % 2 8 d     2 7 ; 7 f 2     r 7 9 7     j $     7 r     : 7 ; - e u # 2     8 r & - < 2 w 9 $ < ",
"8 r ` d ! U N Z x ; > >     t r 6 > 8 ;     k - O - = ,     6 } 0 /     8.U     u 8     8 i i < V 2 + -     S 3 t ; i 8 : t @ w ",
"i i T ! t 7             0 r t 0 r } 7 f     t ^ 0 9 : 6     t > 6 2     :.d     8 Z 2 8     7 Z f 2 7 ;     2 w e 1 r : i 1 i * ",
"u 2 w 4 w 8             0 8 7 0 t : r #     f 7 0 7 g 8     q 7 5.8     ! 3.    r 3 2 1     1 - : r w ;      .r 2 w 7 e < & < : ",
"1 3 1 9 ; - - 1 r 3 R r 6 0 7 ^ 6 p 8 : 6 - r > * ^ r > 9 8 6 0 t : 7 0 2 7 8 g 6 r 8 d 1 8 1 d 2 0 - | s * r 2 p % < O $ @ t 2 ",
"t 8 4 i % ; y - 7 ; 7 8 > t X 8 t r 0 : > t 0 8 * 0 @ w 6 q 9 O 9 r - 7 r r 1 2 3 < 4 w 3 r 8 u +.p r 8 ` $.X.V r  .2 d 8 i < # ",
"1 + 2 d 2 j w 7 2 3 ,.= > > r 9 2 6 - 0 7 f = q q 6 t : 7 : 0 * 2 r 6 : w 7 1 6 1 i i 2 8 8 q t 8 #.D _ ; r - ~ 8 S - 8 2 2 < 1 ",
"7 7 r 6 < 2 - 1 r 0 i : f 7 7 > 6 7 7 0 8 : > 0 0 - 8 7 , 7 * r w w x 7 8 9 w w 2 i 8 3 y 8 f 1 x 7 2 r 8 2 w 2 n < y i X.y 2 8 ",
"n 1 ; 9 - * 2 r 2 d 8 5 > 9 8 6 7 7 : ; 8 8 - : 8 6 w + : 9 : v 7 7 0 7 f d 1 8 i 1 $ 8 x 9 8 p x j d 8 8 Z d 2.j i i 1 1 2 F 9 ",
"0 x r 7 ; 8 7 : 0 H 9 N 9 ^ : = > 0 > 0 6 q * 0 7 6 0 * : 0 E 0 ! :.t | } | q w 7 : f q m r d w 2 8 i < j i x 2 - i p 8 8 3 8 8 ",
"w w w 6 8 t t n 0 8 h > q 7 8 C 7 : q 7 8 8 : 9 0 7 : 6 7 * 6 6 0 0 [ r } 9 ;.w = r r f r m m 8 3 8 i r d u t n p r 1 8 1 i i 1 ",
"; r w 0 w r 3 8 q > > t 7 8 9 - k 6 > 8 0 6 $ 6 > r > 6 7 r 0 : ; v r 7 m t r q r 0 0 } p i r ] 8 u 2 w f 8 7 i i 4 1 < r 4 8 1 ",
";.w n t r ; r 3 t $ t 9 q t 9 8 0 , 9 8 > q v > : > v > f N =.q x ^ q R t R ;.t r r t r ! w 3 e w d < u u 8 r p 2 1 2 u < p < 2 ",
"p :.r 3 0 q e / 0 ^ : > D q f 6 9 q q 7 * f = > } 8 h t h q 9 q R k 7 0 0 7 t ^ 2 f C ^ k q 8 t w 8 j R w r w 6 3 8 8 ; j 6 : 8 ",
"k t i 7 > : 0 f ^ q q ^ <.v q q 6 m : 7 9 7 ^ > r q q f 0 6 v q q 0 r v h k 9 8 f r 9 w v k r p w 2 ! 8 7 6 f 2 t t 9 9 8 i - 1 ",
"^ r U t r 0 q t ^ ^ ^ 9 v q | ^ q f = ^ t ^ 9 9 f ;.h q ^ 8 0 g r w > 6 t 6 q v 8 8 > k c c 8 / r K t w 0 t r p x 3 n ~ w t d x ",
"/ 0 } r q 0 k r r q 0 ^ <.q ^ ^ t 6 9 0 | ^ | ^ 8 C q | 0 0 f ;.n r 9 , t t f h =.g t k r e 0 D :.r R e t r X.{ ( | } - x F | r ",
"f 6.f ] E 0 r ^ | | E -.> m } ^ 0 t v 7 0 t t > ^ ;.q C Y c 9 ( t #.f 0 t C r 7.> q 8 0 m 7 ( r <.#./ #.( q } { / m C | ;.-.=.E ",
"2 6.{ x =.( 7 R ;.;.( t =.} | t N k K =.<.=.q ^ ] * f ^ f 6 } #.r f [ ^ 7 Y r = ^ r 0 k f } 7 -.n -.$.m t ;.7 } K p ( | =.| ^ q ",
"7./ :.3.f q =.q -.E K ( ^ <.=.E t E k 0 ] ^ ;.Y E ;.;.^ ^ | ^ = t C E 8 f 0 q f , k C 3.R -.} | ! ! w.3.x t q &.q | t [ t $.[ <.",
") m } q.q.0 r 0 E E -.N -.f &.| 6.[ t 0.E N ^ Y Y ^ ;.| ;.| f E #.<.| v t 0 t C q f q = #.C q m ;.K t ] x &.K q / -.C #.m =.N =.",
"| ,.[ t [ E E | r E } r | C -.| 6.t t #.t ^ t ( 0 <.r -.| E ^ ^ #.} Y t E f | [ e , } f , } K | U ^ > r ( ;.r k [ E N | | =.( t ",
"$.[ K 8 8 | <.0 v [ m p ^ 1.=.} ] ^ ^ / | q t &.K ;.:.=.Y =.r <.b =.c =.] E t 7 N r t / f 7 r t 2 K { #.v : r t [ ^ E | ;.C q C ",
"[ 7 t C | C : 9 f ( N t ;.;.N r N E { K Y :.R q K v 1.| q C q Y =.^ [ | C k t w 9 0 ( n Y f N 0 &.t f t 0 ^ R w } E [ C t 0 | q ",
"f | ^ ( ^ 7 ( c q v C | F N q ,.k R ;.<.m w k ;.f 8 1.( #.C =.E 0.Y ^ <.^ E 8 } q r m q ;.f 6 D r 0 x 7 k ^ N 7 q t q 0 k f q 7 ",
"7 6 w p 0 } ! { 9 q v C q N 0 q 8 7 t t :.r f R 7 p t ;.Y r 7 k w.H H ^ q b f | t r 6 6 8 t > } N 8 p 7 : : 0 8 8 7 6 - > 9 r 8 ",
"0 3 G q r 7 k m q 9 9 , f C q t 4 d 8 e K G U w / #.0 ^ t k &.t ^ ^ f r ^ t ^ f 2 S o r f 0 v 9 7 9 t @ - 0 * 6 : 8 0 * r 6 > 2 ",
"0 x t t 8 k e 7 7 q r m ^ r } r 3 2 r R m r R r v | <.v h q q ( > | ^ C ^ } 1.* w 0 r R &.7 n } 7 r 8 : q q 9 w 7 6 6 > X f 7 9 ",
"t r { 3 0 0 r ` 8 7 [ } r w t 0 ! 8 8 q ] k r p f ^ r [ ^ p r q t f q q 8 9 q C p 8 r 0 w 7 f q $ 9 0 i $ w 0 t c 8 q 0 7 9 . 9 ",
"t w 8 ; 0 7 r w i w i J D 3 n e 6 i 4 q w 0 R k q t 0 0 K , , E H K C k q : = : 6 p ^ w m 1.m k f 8 > 8 7 6 t > : 7 : f 8 f X - ",
"t q ^ U r ; 2 / p d ~ H r ^ m e t t / e { k t ] 0 p ^ q ( 6 C 8 t t 6 t #.Y : E ^ 1.> 2 1.^ : 6 n q > > t N 7 0 7 i N : > # 7 : ",
"p r f m i 2 : 3 : p i Z X.u U ] r 0 8 e 0 k { 3 v ^ t 0 H q 7 , 6 > q E : ( | = p r 8.R N k q } E : > * t : 7 > 6 9 7 * t 7 7 : ",
"w w r w r 2 0 e 0 7 i r n x U d 0 p 3 7 0 q | t 0 [ , 3 R ] | 0 t k % | t t E c ( v &.w 6 t t r f 7 8 r : 6 7 7 8 t q , 7 7 7 # "
};
