/* XPM */
static char *de960398a6144bc48e302e6f74cfee18xwhO6VJTD4xu7gaE[] = {
/* columns rows colors chars-per-pixel */
"64 64 133 2 ",
"   c black",
".  c #262625",
"X  c #353231",
"o  c #3A3633",
"O  c #3C3836",
"+  c #3E3D3C",
"@  c #413E3C",
"#  c #45413E",
"$  c #434240",
"%  c #5A5552",
"&  c #666361",
"*  c #6C6561",
"=  c #6B6866",
"-  c #6C6B6A",
";  c #716B66",
":  c #726E6B",
">  c #76726E",
",  c #7B736D",
"<  c #777472",
"1  c #7B7572",
"2  c #7E7975",
"3  c #7D7A79",
"4  c #837B76",
"5  c #817D7B",
"6  c #8B837D",
"7  c #838280",
"8  c #8B8684",
"9  c #8F8984",
"0  c #8F8B88",
"q  c #978986",
"w  c #988C87",
"e  c #958F8C",
"r  c #95918F",
"t  c #9C938D",
"y  c #9D9692",
"u  c #9D9995",
"i  c #9E9B9A",
"p  c #A1948C",
"a  c #A2998F",
"s  c #A39692",
"d  c #A49B95",
"f  c #A99E96",
"g  c #A49E9A",
"h  c #AA9E9A",
"j  c #B09F98",
"k  c #ABA097",
"l  c #A5A19D",
"z  c #ABA39C",
"x  c #B1A59D",
"c  c #B3A99E",
"v  c #A6A3A1",
"b  c #ACA6A2",
"n  c #ADA9A5",
"m  c #AEABA9",
"M  c #B2A6A2",
"N  c #B8A7A3",
"B  c #B3AAA4",
"V  c #B9ADA5",
"C  c #B3AEAA",
"Z  c #BAAEAA",
"A  c #B7B0A7",
"S  c #BCB1A6",
"D  c #B6B1AD",
"F  c #BBB2AC",
"G  c #BDB5AC",
"H  c #BFB5AD",
"J  c #BDB5AF",
"K  c #B5B2B0",
"L  c #B4B3B2",
"P  c #B6B3B2",
"I  c #B8B3B0",
"U  c #B8B4B1",
"Y  c #B9B5B2",
"T  c #BBB5B2",
"R  c #BAB6B3",
"E  c #BEB5B0",
"W  c #BFB6B0",
"Q  c #BAB7B5",
"!  c #BEB8B2",
"~  c #BBB8B7",
"^  c #BCB8B5",
"/  c #BDB9B5",
"(  c #BFBBB7",
")  c #BBBAB9",
"_  c #BDBBB9",
"`  c #BEBBBA",
"'  c #BFBCBA",
"]  c #BFBDBB",
"[  c #BFBDBC",
"{  c #C5B7AB",
"}  c #C1B3AD",
"|  c #C2B6AE",
" . c #C8B3AD",
".. c #C4B9AE",
"X. c #C2B7B0",
"o. c #C2B6B3",
"O. c #C3B9B4",
"+. c #C1BBB5",
"@. c #C3BBB5",
"#. c #C0B8B7",
"$. c #C6BAB5",
"%. c #C9BBB6",
"&. c #CABDB5",
"*. c #CCBFB6",
"=. c #C0BCB8",
"-. c #C3BDBB",
";. c #C5BFB9",
":. c #C0BEBD",
">. c #C9BDBA",
",. c #C4C0BC",
"<. c #C5C1BE",
"1. c #C6C2BE",
"2. c #CAC2BB",
"3. c #CBC2BD",
"4. c #CBC3BF",
"5. c #D2C2BC",
"6. c #C5C2C0",
"7. c #C5C3C3",
"8. c #C7C5C4",
"9. c #CAC5C2",
"0. c #CFC7C2",
"q. c #CCC8C6",
"w. c #CFC9C6",
"e. c #CCCBCA",
"r. c #D6C5C1",
"t. c #D2C8C2",
"y. c #D2C9C4",
"u. c #D0CAC6",
"i. c #D1CBCA",
"p. c #DBD0CA",
"a. c #D6D2D1",
"s. c #DCD6D2",
"d. c #DFD6D4",
/* pixels */
"Y M G G d G / b D C z C } f t k S z F z z d z m l l z l z x u +.G X.:.X.Y L _ C G d.C B l T _ Z 9.0.G =.C x f z C l f M f k b v ",
"z V l f B d l z b B G L b x Y z c l z m z m k b z D l z m Z B z :.3 : 6 1 1 1 4 5 r 6 9 8 q 8 9 D 3 8 1 5 , 1 3 8 6 , 3 , 4 5 l ",
"z v A / O.V z z k A z ^ A D z D u b n t m b D 2.z G $._ ;.u.T l X                             k D               +             f ",
"G k Y x ^ D { C C k g C m b m b b z k l x u l G 2.1.,.t...A m X                             ; M b             + z             ^ ",
"v _ / V O.F c B z V n l n D A z A z k n b C d l Z A ,.4.t.n X                             > b A L           + B n             D ",
"v D C A G V T C _ l z l a _ l V l l l b D f n x b D 2.B z X                             > _ L f A         + M g d             M ",
"Z B +.Y G T m z m k G k B D / k z D k b f b g C k C M A O                             > C z G =.V       + z d b x             D ",
"z D D B A G Y G C t } r A Z a c G b d b z Y D B B G d o                             , D b B k V $.    + d d b X.+             b ",
"A b / =.n ,._ G n A n G b z d D =.d d m A $.u.Z q.n +                             3 D A b z c x G   + z f M b +             + G ",
"| F M A D 3.b G | A ) D c l d B l d n M C l A B v +                             , ^ Y S k C +.C D + V v n C +             + / [ ",
"B =.G V q.,.G b z 2.G B 0.z D x Y B M b C z G d O                             , %.D V f B A z C B $./ +.=.+             + D C ^ ",
"2.=.D 3.D ..A 3.D B { 9.M D n n l G V q.z G C +                             1 +.b A M _ { z G n G C ;.m +             + D 9.,.G ",
"D D G A D n ,.Y L *.m z n z A a D l l l =.z O                             < G / C A _ G f D A k B A z +             @ Q z F n G ",
"=.G G A V Y D / B S M m G Y B D D l h k f O                             6 k C G G x L b m V k D L B +             + C S c F @ V ",
"C V C X._ D d A z T =.G D n D C m C C l O                             8 v Y G B A D b G b V Y A F +             + +.b S n +   C ",
"} C / C z x l m G b _ c z Y D C M z Q o                             4 =.z 6.Y C D C ! A D x n n z             + x z m f +     D ",
"k D S A / G C | z k m k C k z k / d O                             , D =.z V G ,.,.G z v b b B l B             B B B D +       b ",
"f b _ A G C l B b c l m B k C B n X                             3 ..C D A c n A C L x n B l l k g             g p z +         z ",
"b z C z M D D m b z D l V M B s +                             ; V =.b A A A d z } C A k b b c a n             b b +           C ",
"l m B x F Z b l m D B b b z l +                             ; ..0.x C k A m D i ..z z z d l t l T             Y @             z ",
"n l B b b B L D M M A l k f O                             1 k M G z C k m c G b x m z k l l b n M             +               v ",
"z l m z B A B x t B b D l +                             > =.D ^ m B c l z k z z B l n c D x d D n B C v M C C n C V v b Z B / C ",
"G z n c m n D l C m B i $                             > ,.z A D B z d t A z z x D b z D l n / l C ..^ +.*.Q Z n { ^ +.2.^ A C c ",
"l Y z B ! c G l k L n O                             > A V D / G S k D G m m A C b Z t n x z z b T Z *.m Q D 9.G D *.m Q D 9.,.V ",
"l D z G k z Q g u i O                             : C Y C %.z D D k n S b d D b x D b z m d Y c z D z n Y b A k Z z b ! b F n S ",
"D B m z k Y i n m #                             = $.C G n F k D t b D 9.Z B n c x l D d Y b z x Q B n B S x G / B n C S x G D l ",
"z D z c n d B f $                             < L k n D Z A M z n D n n d z a b D n Y l l l b ) k V ..n G B C f B ..b A n c n z ",
"A n n z D l l @                             & C ,.G C z V F A C G b z d G l A B d z z x B b M l l l D x C M +.f l D x C B ,.^ z ",
"G D z G d t #                             ; f b Y C / +.{ B D D F B F k B A C l b M k t M f C C B ,.M x G $.G C 9.b B G =.G d c ",
"n =.n z a @                             * b b h B d O.C z f Y B C C M A A z B z f B y n v b v z k D A C b k l k D C V x k l z c ",
"3.! Y z #                             - G B b z } C D b C B 2.z F m G d Z x p d k F y k b M x B l z z z z n f l l z z x m k l b ",
"G Y i #                             * L l B u C x m b G Z Y d z b b C l b l z k d D S y z z b n C s d f z x m C s d k z z m i k ",
"-.C O                             % i f k t x l ;.M %.v C p.T C C A B B k n D L k G z t s f G ) x C f C m u n x C f D n u n u B ",
"B $                             . < 3 , 1 3 > 6 4 < 1 4 5 r 8 e 0 4 8 1 5 , 1 2 8 7 , 3 1 5 4 b N V b C f F b N N z C l G z C d ",
"E                                                                                             z B z b b B d d B z b b V d d l g ",
"k                                                                                             s M Z a k y d s b F s k t d d V z ",
"f                                                                                             ,./ C [ M G B C / C ,.M G b D f u ",
"n                                                                                             ^ T n ) d b b z T b ^ d z b z z k ",
"g                                                                                             z z / k C L [ A x Q z D D ,.A l b ",
"C                                                                                             D u.T D F d b z u.L D Y d b z ,.m ",
"f                                                                                             G z d G G n n x z d G D n n z m b ",
"/                                                                                             M ..Q b z B b C G Q M z b b A D l ",
"n                                                                                             V C F B z f C M D D c z k D z b z ",
"M                                                                                             d T z d h C f F U z l z A z G z z ",
"=.                                                                                            M b c b b d L b v c b B d Y m u b ",
"C                                                                                             C l D S n L M L z Z Z n L n D k g ",
"Z m N v g v d Z b s h q h h b d i l L b y M d t v g g w y g y g ;                             M F / z | %.M C F Y x T X.M Z D Y ",
"C Z m M >.u.M Q ~  .v m C ,.X.:.+.n X.Z >.M M L 0.Y C m M C Z K <                             >.6.X.;.,.g T :.3.X.>.:.g F :.3.C ",
"-.>.9.o.8.h K -.X.M } K b M Z C j ~ >.N #.} X.m #.Z >.L N Z #.m 8                             / =.#.T ~ >.9.8.#.#.#.~ >.0.8.7.o.",
"X.8.8.$.U 3.:.>.} I K o.4.i.-.} #.:.u U #.K v -.>.C L :.#.b } N *                             F 6.} Z %.>.8.>.6.X.Z >.-.<.>.-.N ",
"Z <.X.#.#.o.i.8.#.Z #.K N #.T 8.} } 7.q.-.#.>.#.s Z #.#.v U b N 2                             >.6.Z >.Z -.T 3.-.N >.Z -.I 4.-.e.",
"h X. .8.U 7.K 9.-.i.-.Z a.o.#.#. .$.X.8.%.9.>.I :.0.e.>.Z } N Z 3                             6.Z #.6.~ *.E 9.Z -.6.^ *.T 4.~ <.",
"-.m >.#.K >.~ 8.3.i.Z } 8.} X.Z o.N 8.C 8.$.o.#.#.>.<.Z Z $.K >.5                             O.Z -.E T >.>.:.U #.U #.>.>.:.>.Z ",
"N Z $.T Z #.y.8.<.~ #.#.#.>.N } :.F t.q.>.} <.Z e.T 6.#.3.>.~ N :                             _ Z -.-.} >.8.-.Z >.-.} >.8.-.M ~ ",
"L L >.^ Z >.e.F K T #.:.} X.3.#.Z } ^ r.>.Z ~ B $.-.%.-.<.L U  .:                             -.m :.#.-.#.Z N b :.#.~ T Z Z %.Z ",
"U M Z _ -.-.E M i.K T 3.i.~ N T >.E b r.$.u._ >.#.a. .#.e.~ o.b 5                             F b M Z C M U U b Z Z Z M C Z Z h ",
"=.C C Z / M T B M b b C V 3.C ^ $.b Z Z w.o.C b E d.Z Z ;.B T C 5                             b m m b b g h M b b b v d h b B m ",
"_ Z n C x F _ C Z N Q M F } -.} B :.>.M T Z Z <.Z -.-.Z Z / Z / 2                             C b h m B s C v b h C C s C v h b ",
"b b M C T Q D *.M M h m #.~ C #.C Z :.0.T T N M >.s >.^ ~ #.:.r.=                             v M b v v g e L b b b v d e L v m ",
":.M b ;.:.C B A M #.B N N o.U C X.Z +.C <.~ E Z m L U N M b m N 2                             B Z U M N M v b Z U b N M b m q C ",
"M C C U $._ x / V b C x N C M E Q x Z B x } x h $.} } E Y V f f ;                             b h g b l C b L b g b g C b L r d ",
"o.U E X.S C G / V F C $.N 3.U V $.M G _ N >.b ^ h Z Z v F y.} h 2                             C b b L ^ g b u M b L ^ g h u b d ",
"U C L #.D z f x f F D =.;.V E -.C x m Z M Z 8.x E ^ N M N N b h h b M o.g o.*.d F C p.F -.U M 8.X.g h y Z g b h v m b s Z b b g ",
"B N C b C z B V M b Z C Q ~ | F x Z x b M N $.Z M :.j M X.=.*.M N U t *.F S / T >.E 9.C z C Z B L b M C g b b b m N N j b b b i "
};
