/* XPM */
static char *result[] = {
/* columns rows colors chars-per-pixel */
"64 64 62 1 ",
"  c #4B4545",
". c #8F8484",
"X c #948F8C",
"o c #96928F",
"O c #9C948D",
"+ c #9E9691",
"@ c #9E9996",
"# c #9F9B99",
"$ c #A0948B",
"% c #A4998F",
"& c #A09693",
"* c #A89791",
"= c #A49B94",
"- c #A99D95",
"; c #A49E9A",
": c #AA9E9A",
"> c #B09F98",
", c #ACA096",
"< c #A6A19D",
"1 c #ACA39C",
"2 c #B1A59D",
"3 c #B3A89E",
"4 c #B8A89F",
"5 c #A7A4A2",
"6 c #ACA5A2",
"7 c #AEA9A5",
"8 c #ADABAA",
"9 c #B1A6A2",
"0 c #B3AAA4",
"q c #B9ACA5",
"w c #B3ADAA",
"e c #BAAEAA",
"r c #BDB1A7",
"t c #B5B1AD",
"y c #BCB3AD",
"u c #B5B3B2",
"i c #BBB5B2",
"p c #BDB9B6",
"a c #BDBBBA",
"s c #C1AFA9",
"d c #C0B1A7",
"f c #C2B4AD",
"g c #C4B8AE",
"h c #C2B6B2",
"j c #C3BAB4",
"k c #C9BBB5",
"l c #C3BDBB",
"z c #CABDBA",
"x c #C6C1BE",
"c c #CBC2BE",
"v c #D5C5BE",
"b c #C5C3C3",
"n c #CBC5C2",
"m c #CDC8C6",
"M c #CDCBCA",
"N c #D6C5C1",
"B c #D0C9C6",
"V c #D2CDCC",
"C c #D6D0CE",
"Z c #DDD3CF",
"A c #D6D4D3",
"S c white",
/* pixels */
"i3yf=ya<uw,wd,o,g,t,<,385<5<,3  .SSSSSSSSSSSSSSSSSSSSSSSSSSSSSSS",
"1w<,0=,660yt03u11,18<u;5,u<,7t  .SSSSSSSSSSSSSSSSSSSSSSSSSSSSSSS",
"1<,#;<t1<yiaq13<t1p0w6t@67O75r  .SSSSSSSSSSSSSSSSSSSSSSSSSSSSSSS",
"===,<<,y1u3iwg80,<885w53<,<3#<  .SSSSSSSSSSSSSSSSSSSSSSSSSSSSSSS",
"6u,g<<+5ppqjy30100<0wr1w3,538#  .SSSSSSSSSSSSSSSSSSSSSSSSSSSSSSS",
"t<7O<,t<twryqywl<1#%a10,<#6t,7  .SSSSSSSSSSSSSSSSSSSSSSSSSSSSSSS",
"tiyw230y3piyiw18,y10tp118,5,6#  .SSSSSSSSSSSSSSSSSSSSSSSSSSSSSSS",
"qcwBuat<tt0tyyi0ogor0%3i3;7<pt  .SSSSSSSSSSSSSSSSSSSSSSSSSSSSSSS",
"gxxggr0r3pp6xpg8r7y71%tj@,8rkm  .SSSSSSSSSSSSSSSSSSSSSSSSSSSSSSS",
"y33px3xut3r8x3tgrpw0<=71,17t<t  .SSSSSSSSSSSSSSSSSSSSSSSSSSSSSSS",
"t3l8glr7xyrMxy56xy0m1t3u6728,t  .SSSSSSSSSSSSSSSSSSSSSSSSSSSSSSS",
"8x3pxtgxptxrgrxu0gn3w77<yqM2tk  .SSSSSSSSSSSSSSSSSSSSSSSSSSSSSSS",
"y3uptggprgtutlyux7,320%0<<,ar6  .SSSSSSSSSSSSSSSSSSSSSSSSSSSSSSS",
"38xypyupurt3utp0r08uiwtt1<139x  .SSSSSSSSSSSSSSSSSSSSSSSSSSSSSSS",
"utgpt3g0ttpp0#t3yayt8tw0887,wt  .SSSSSSSSSSSSSSSSSSSSSSSSSSSSSSS",
"t30370<y7g033,8r1a01utt23b,8g7  .SSSSSSSSSSSSSSSSSSSSSSSSSSSSSSS",
"1310,@#,t0rpg0y<,t,r,3,p19717i  .SSSSSSSSSSSSSSSSSSSSSSSSSSSSSSS",
"037tO,7<3pttt<t63=87,83uO#<,a<  .SSSSSSSSSSSSSSSSSSSSSSSSSSSSSSS",
"<O1i2t353033rt86385r0018658,11  .SSSSSSSSSSSSSSSSSSSSSSSSSSSSSSS",
"53t<,3#<873t77<7t35517856@,,%<  .SSSSSSSSSSSSSSSSSSSSSSSSSSSSSSS",
"00#,7,#1<3570uy370<17,,321<3=0  .SSSSSSSSSSSSSSSSSSSSSSSSSSSSSSS",
"11<#<,w1<838073O01u81yt1<oo1<<  .SSSSSSSSSSSSSSSSSSSSSSSSSSSSSSS",
"<%,,<1<y=7380u58w0<y3t7;5w18+=  .SSSSSSSSSSSSSSSSSSSSSSSSSSSSSSS",
"7u,p11+<p13p3y<,uy<7w##y2+8=1-  .SSSSSSSSSSSSSSSSSSSSSSSSSSSSSSS",
"t#7O<,u<u1i11p=#<<010=1wwuwv<0  .SSSSSSSSSSSSSSSSSSSSSSSSSSSSSSS",
"tiyt137r38,<u=5p81r,7=0spslwt5  .SSSSSSSSSSSSSSSSSSSSSSSSSSSSSSS",
"qcqmypw,t737=01t<Ow<1=,p17x16p  .SSSSSSSSSSSSSSSSSSSSSSSSSSSSSSS",
"gcgpxr7r71,t<8735@w@<t,1jx1=t<  .SSSSSSSSSSSSSSSSSSSSSSSSSSSSSSS",
"y73xx3xyy,i-,01u3ui31<2=1<CM0,  .SSSSSSSSSSSSSSSSSSSSSSSSSSSSSSS",
"t3x8yxy3a71111,=O+%%,=72O,0115  .SSSSSSSSSSSSSSSSSSSSSSSSSSSSSSS",
"0b1jcwaxpywuy,w,30<3aq%5y3ttw6  .SSSSSSSSSSSSSSSSSSSSSSSSSSSSSSS",
"y1uarppyi501tu18O18yu116=7t50+  .SSSSSSSSSSSSSSSSSSSSSSSSSSSSSSS",
"00xtlyihy;:2@usi5:7:;>i;+&::&9  .SSSSSSSSSSSSSSSSSSSSSSSSSSSSSSS",
"utgjw6ywee>99ee9wl5ta9ep68*55:  .SSSSSSSSSSSSSSSSSSSSSSSSSSSSSSS",
"y37330<y0:*q97;:y:w&;;i696e8;e  .SSSSSSSSSSSSSSSSSSSSSSSSSSSSSSS",
"1118,==1w9hw596a5y5;5;0:&he:88  .SSSSSSSSSSSSSSSSSSSSSSSSSSSSSSS",
"q67t$-0;9,59:eX9ew95:w99&0+999  .SSSSSSSSSSSSSSSSSSSSSSSSSSSSSSS",
"<O1y6u9719m*::w8:5=96t*095q55:  .SSSSSSSSSSSSSSSSSSSSSSSSSSSSSSS",
"13t<,,=;w0y;u59:56667<:99;6695  .SSSSSSSSSSSSSSSSSSSSSSSSSSSSSSS",
"i<<8=%7w1i63:u9566*:70&;65w$&8  .SSSSSSSSSSSSSSSSSSSSSSSSSSSSSSS",
"9i86;71<6s8e8l;&:6695w&:859&;:  .SSSSSSSSSSSSSSSSSSSSSSSSSSSSSSS",
"79q60twy99u98:5i5:9669:8:9:59#  .SSSSSSSSSSSSSSSSSSSSSSSSSSSSSSS",
":0099w09e*:e999;t6:9::;5:8:56w  .SSSSSSSSSSSSSSSSSSSSSSSSSSSSSSS",
"nqiww-w3e;u89h889977:ei:::h;ui  .SSSSSSSSSSSSSSSSSSSSSSSSSSSSSSS",
"fn8900qk9a::aeu:8999&e::l9uwue  .SSSSSSSSSSSSSSSSSSSSSSSSSSSSSSS",
"uey5:;0wh99hnh9e9a5688a:wwwe:6  .SSSSSSSSSSSSSSSSSSSSSSSSSSSSSSS",
"l8fee9weakh8u9za9e:eeh89una9k9  .SSSSSSSSSSSSSSSSSSSSSSSSSSSSSSS",
"k9lq09twe99kC9ias589lhll9i9z99  .SSSSSSSSSSSSSSSSSSSSSSSSSSSSSSS",
"wVuhh9wlzzlb:ilh9eu69ew>az9ahi  .SSSSSSSSSSSSSSSSSSSSSSSSSSSSSSS",
"6Vlizh7hMbzezazihuhcMbsll&iae6  .SSSSSSSSSSSSSSSSSSSSSSSSSSSSSSS",
"ChnVpel9bhhhiMbhehu9albshnbkhb  .SSSSSSSSSSSSSSSSSSSSSSSSSSSSSSS",
"zalZA9e9hynununlVleAhilshhclnl  .SSSSSSSSSSSSSSSSSSSSSSSSSSSSSSS",
"zBxylijzwhatzibzMeenejeh9Bwbkh  .SSSSSSSSSSSSSSSSSSSSSSSSSSSSSSS",
"zly:wzm9ikiilnbbllhkkeeliNnbsb  .SSSSSSSSSSSSSSSSSSSSSSSSSSSSSSS",
"z6epzu<8ukiecnithilffNpesuNzsi  .SSSSSSSSSSSSSSSSSSSSSSSSSSSSSSS",
"illkp6ki9ealah9BthcMp0ixu9NzBi  .SSSSSSSSSSSSSSSSSSSSSSSSSSSSSSS",
":70i0lhxwwea9i9976wqcyih6temf0  .SSSSSSSSSSSSSSSSSSSSSSSSSSSSSSS",
"62a3w5yie889uaee3i9yfaswzz0hqy  .SSSSSSSSSSSSSSSSSSSSSSSSSSSSSSS",
"9iey7ew699ehpez931wiiwjwilnii0  .SSSSSSSSSSSSSSSSSSSSSSSSSSSSSSS",
"ewz100wl95law0y9j794li7yyhwxpf  .SSSSSSSSSSSSSSSSSSSSSSSSSSSSSSS",
"ww9-69w0ywtfa9iq5t3qw9ii9e02f2  .SSSSSSSSSSSSSSSSSSSSSSSSSSSSSSS",
"s9ihw-1jtyjfwijqyqgeliqh9hh0l1  .SSSSSSSSSSSSSSSSSSSSSSSSSSSSSSS",
"ywipt11,,twilryl077s9ex6iie9r0  .SSSSSSSSSSSSSSSSSSSSSSSSSSSSSSS",
"00w7w19q06ytppyy9y2690zs9l>9tp  .SSSSSSSSSSSSSSSSSSSSSSSSSSSSSSS"
};
