/* XPM */
static char *result[] = {
/* columns rows colors chars-per-pixel */
"64 64 175 2 ",
"   c #122C1E",
".  c #3B231C",
"X  c #142D22",
"o  c #153525",
"O  c #173C28",
"+  c #173E2B",
"@  c #252E25",
"#  c #292827",
"$  c #322B24",
"%  c #352C28",
"&  c #263E2E",
"*  c #3A3626",
"=  c #363827",
"-  c #393927",
";  c #323C2B",
":  c #3C3B2A",
">  c #393E33",
",  c #45261C",
"<  c #48271F",
"1  c #46281F",
"2  c #4B2A1F",
"3  c #452C22",
"4  c #4B2C22",
"5  c #512E22",
"6  c #443224",
"7  c #4F3126",
"8  c #44342A",
"9  c #413F2A",
"0  c #4C392B",
"q  c #533124",
"w  c #583327",
"e  c #513429",
"r  c #5A3428",
"t  c #523B2E",
"y  c #4C3730",
"u  c #0E492E",
"i  c #174631",
"p  c #1D4632",
"a  c #144F36",
"s  c #0C5233",
"d  c #145936",
"f  c #135639",
"g  c #1B583C",
"h  c #35422D",
"j  c #3A462E",
"k  c #3C482F",
"l  c #224633",
"z  c #264835",
"x  c #2C4937",
"c  c #224F38",
"v  c #2C533F",
"b  c #215C3F",
"n  c #006435",
"m  c #0F623F",
"M  c #046F3F",
"N  c #40412B",
"B  c #584436",
"V  c #5B4538",
"C  c #5D4C3C",
"Z  c #624B3D",
"A  c #036F40",
"S  c #186745",
"D  c #146B45",
"F  c #1C6C45",
"G  c #047544",
"H  c #097546",
"J  c #027947",
"K  c #0B7748",
"L  c #047C4A",
"P  c #0A7C4C",
"I  c #15764E",
"U  c #19714C",
"Y  c #147B4E",
"T  c #1B7C4F",
"R  c #157D51",
"E  c #1C7D52",
"W  c #226445",
"Q  c #236946",
"!  c #5F4D43",
"~  c #614E42",
"^  c #05824D",
"/  c #0A814F",
"(  c #058550",
")  c #0B8452",
"_  c #078A54",
"`  c #0B8B56",
"'  c #0C8E59",
"]  c #138454",
"[  c #1D8355",
"{  c #158857",
"}  c #1D8957",
"|  c #158759",
" . c #138C5A",
".. c #1C8B5A",
"X. c #0D935C",
"o. c #0E985F",
"O. c #11935D",
"+. c #0E9660",
"@. c #0E9B62",
"#. c #139460",
"$. c #1A9260",
"%. c #119B62",
"&. c #349C69",
"*. c #0FA265",
"=. c #0FA46A",
"-. c #0FA96C",
";. c #10A366",
":. c #11A669",
">. c #11A96C",
",. c #13AD70",
"<. c #3AA572",
"1. c #4EA074",
"2. c #948F8C",
"3. c #96928F",
"4. c #9C948D",
"5. c #9E9691",
"6. c #9D9996",
"7. c #9F9B99",
"8. c #A1948C",
"9. c #A4998F",
"0. c #A19692",
"q. c #A89791",
"w. c #A49B94",
"e. c #A99D95",
"r. c #A49E9A",
"t. c #AA9E99",
"y. c #B09F98",
"u. c #ACA096",
"i. c #A6A19D",
"p. c #ACA39C",
"a. c #B1A59D",
"s. c #B4A99E",
"d. c #B8A89F",
"f. c #A6A3A1",
"g. c #ACA5A2",
"h. c #AEA9A5",
"j. c #AEABA9",
"k. c #B2A6A2",
"l. c #B3ABA4",
"z. c #B9ADA5",
"x. c #B3ADAA",
"c. c #BAAEA9",
"v. c #B7B0A7",
"b. c #BCB1A6",
"n. c #B5B1AD",
"m. c #BBB3AC",
"M. c #B5B3B2",
"N. c #BBB5B2",
"B. c #BDB9B6",
"V. c #BDBBBA",
"C. c #C1AFA9",
"Z. c #C0B1A7",
"A. c #C2B4AD",
"S. c #C5B8AE",
"D. c #C2B6B2",
"F. c #C3BAB4",
"G. c #CABCB5",
"H. c #C3BDBA",
"J. c #CABEBA",
"K. c #B4D3BC",
"L. c #C6C1BE",
"P. c #CBC2BD",
"I. c #D5C5BE",
"U. c #C5C3C2",
"Y. c #CBC5C2",
"T. c #CDC8C6",
"R. c #CDCBCA",
"E. c #D6C5C1",
"W. c #D0C9C5",
"Q. c #D2CECB",
"!. c #D6D1CE",
"~. c #DDD2CC",
"^. c #D6DECF",
"/. c #D6D4D3",
"(. c #DBD6D2",
/* pixels */
"N.s.m.A.w.m.V.f.n.x.u.v.b.u.4.u.m.u.m.p.i.u.a.j.i.i.i.i.p.a.6.F.N.S.H.m.B.m.V.x.N.(.x.x.i.A.B.l.Y.W.N.F.j.p.i.a.x.i.e.h.e.i.g.i.",
"p.x.i.e.l.e.e.g.g.l.N.n.l.p.N.p.p.i.p.j.i.n.i.f.p.n.i.p.h.m.h.p.L.m.z.S.F.V.j.l.z.h.~.F.m.~.l.p.E.F.r.g.e.p.s.p.i.p.7.i.e.j.p.i.",
"p.i.u.7.i.i.n.p.f.m.N.F.l.p.p.i.v.p.N.l.n.p.n.6.p.p.5.h.i.n.P.u.m.G.V.L.R.m.M.B.F.m.H.a.A.j.(.S.A.m.k.A.a.p.f.w.9.e.e.i.i.r.m.e.",
"w.w.e.u.i.i.e.m.p.M.p.B.v.S.h.n.u.i.n.j.p.j.g.h.f.u.i.s.w.i.Z.P.L.L.T.m.b.H.m.p.a.P.k.D.H.N.L.p.p.x.c.M.h.w.k.h.M.p.S.p.p.5.f.B.",
"g.M.u.S.i.i.5.i.B.N.v.F.m.s.l.g.l.l.r.l.n.l.p.n.s.i.j.p.j.w.i.v.z.L.P.T.B.c.s.N.v.m.b.z.S.N.m.n.m.l.u.h.p.g.x.m.w.h.3.g.u.n.i.n.",
"M.7.h.4.p.e.n.i.n.n.b.m.z.m.v.V.i.g.7.9.V.p.l.i.i.i.s.n.i.h.a.g.m.P.l.m.z.n.z.F.P.B.K.y.M.m.V.N.p.p.n.h.K.M.q.m.N.m.n.p.h.h.m.a.",
"n.N.m.x.p.h.l.m.l.F.N.m.m.n.p.j.u.m.p.s.n.B.u.p.v.u.i.i.p.7.v.u.n.a.P.m.m.S.b.x.m.P.L.b.v.n.M.n.n.l.a.v.g.A.H.z.P.v.T.M.V.n.i.n.",
"b.P.x.W.N.V.n.i.n.v.h.n.m.m.N.l.3.S.3.b.l.9.l.A.p.i.f.i.B.n.v.h.n.l.b.F.m.G.n.h.n.N.L.n.B.a.b.a.M.x.n.g.k.t.l.D.P.S.S.G.v.l.b.h.",
"F.P.S.F.F.b.v.b.h.N.F.p.Y.B.S.h.v.h.m.h.p.w.n.D.5.e.h.v.F.P.n.T.B.L.M.s.S.J.W.N.x.c.B.m.n.m.x.x.V.v.n.p.p.s.h.m.h.x.F.L.x.S.m.m.",
"m.h.x.F.L.v.F.m.m.l.x.x.L.h.n.S.b.B.n.a.i.w.h.g.w.g.l.n.i.m.l.j.M.N.!.P.z.K.M.m.H.L.F.b.m.b.d.v.B.M.b.u.s.F.x.n.a.F.j.N.G.m.k.K.",
"n.a.F.j.N.F.b.l.K.m.z.R.L.m.g.p.G.m.x.T.p.n.s.n.h.l.a.x.p.m.s.m.Q.v.Y.m.m.p.s.Q.m.v.m.l.v.m.v.L.n.z.9.j.m.p.v.l.U.p.B.Y.x.F.G.D.",
"l.L.p.B.Y.n.B.L.D.c.P.c.S.b.L.M.x.S.P.k.v.j.h.i.B.z.T.h.m.F.V.n.L.B.n.m.i.v.L.m.n.v.V.m.m.m.B.p.v.s.L.Z.a.N.h.m.p.B.B.m.B.D.N.M.",
"m.g.B.B.b.V.N.N.N.m.v.M.n.L.n.M.G.h.y.k.a.l.q.x.i.i.i.B.z.h.v.p.m.T.u.n.v.b.B.P.m.B.M.j.v.m.V.v.b.K.c.q.m.b.u.h.l.H.m.F.D.N.F.m.",
"l.h.H.m.F.m.m.F.m.m.b.s.M.n.B.l.z.d.j.M.N.l.n.x.p.e.p.l.l.H.b.l.x.z.L.v.Q.n.b.L.v.B.m.L.u.n.m.m.p.M.p.j.v.p.n.n.M.S.F.x.g.m.x.z.",
"n.n.S.F.v.g.N.x.b.v.N.V.x.w.v.a.M.K.m.n.j.n.x.x.j.j.h.u.x.m.p.P.h.h.L.B.L.m.P.B.M.L.R.i.m.m.v.n.n.h.m.h.l.n.x.m.p.l.k.l.x.r.m.x.",
"m.a.h.l.l.h.p.m.l.B.l.p.s.i.j.m.g.B.l.p.N.n.x.s.p.U.e.x.A.h.p.R.d.d.m.b.n.B.L.m.n.F.L.u.Y.M.v.v.x.M.c.c.s.h.l.p.a.p.j.r.w.w.p.x.",
"p.p.p.j.e.w.w.i.n.v.v.B.m.v.N.i.u.v.p.l.u.p.p.D.p.g.h.i.g.N.L.i.u.B.p.h.N.k.m.J.m.v.L.p.s.m.L.L.m.p.g.h.g.h.p.l.h.h.n.8.e.l.r.g.",
"l.h.l.x.8.e.x.r.g.F.v.m.v.i.j.g.s.e.j.l.e.x.l.M.5.6.p.u.V.p.u.r.s.F.d.P.m.c.H.K.F.l.m.b.s.l.v.n.n.s.g.l.i.i.i.i.8.p.M.p.M.k.g.p.",
"i.4.p.m.k.M.g.g.p.l.h.s.m.n.j.g.p.n.i.m.l.l.p.x.g.g.x.e.p.p.e.V.v.j.m.m.T.F.s.h.V.p.v.l.m.9.i.m.x.x.p.g.g.a.w.a.a.n.f.u.p.w.i.x.",
"p.l.x.g.e.p.w.r.n.l.p.v.l.h.i.h.n.l.f.f.g.h.g.g.g.6.u.u.w.i.s.N.h.n.g.B.x.h.m.Y.s.v.i.m.h.m.5.V.p.p.e.e.i.5.w.N.r.e.j.w.9.h.l.p.",
"l.l.i.e.l.e.e.g.f.l.f.g.l.n.m.s.h.l.i.p.g.e.p.k.s.p.w.h.w.x.p.x.p.m.p.j.m.u.p.m.w.M.u.j.s.m.i.s.l.p.u.i.i.g.h.l.M.n.p.e.h.p.i.i.",
"p.i.p.7.i.r.x.p.i.h.h.v.n.l.p.4.l.h.M.h.g.z.x.k.r.3.3.p.i.i.m.u.N.v.p.n.G.m.V.j.s.a.i.p.e.l.i.l.i.h.h.n.s.w.n.h.l.v.i.h.x.l.B.x.",
"e.w.e.e.i.i.e.m.e.g.s.j.l.n.i.j.j.l.g.n.l.x.g.r.g.x.p.j.4.e.p.a.x.u.v.L.p.n.n.a.p.w.9.n.p.p.l.n.h.u.n.f.p.N.i.l.S.B.F.L.B.v.x.s.",
"f.M.p.F.p.p.5.f.B.p.s.N.l.n.i.p.n.m.r.k.x.w.r.m.p.3.n.w.p.e.h.m.n.v.x.l.v.N.n.v.s.v.n.h.h.v.l.h.l.5.g.a.p.i.h.N.m.F.j.N.n.L.L.z.",
"n.i.h.3.g.i.n.i.n.p.M.p.p.B.w.r.f.i.s.p.l.w.p.j.x.M.x.I.i.x.F.x.x.v.m.v.G.s.n.v.p.j.v.g.w.n.l.p.n.a.f.n.w.B.s.p.n.p.h.M.g.m.h.v.",
"n.N.m.n.a.h.s.n.s.j.u.u.M.w.h.M.j.g.m.q.h.w.z.C.B.C.F.n.n.i.8.p.F.x.N.h.n.p.v.5.g.n.P.l.l.l.l.p.i.n.w.m.f.p.p.B.l.h.l.m.s.m.n.p.",
"z.P.z.T.M.F.n.p.M.p.a.j.w.l.p.n.r.5.n.i.i.w.u.B.p.h.L.p.g.V.m.M.u.h.n.b.x.s.p.j.l.j.h.e.s.9.p.n.j.M.r.i.i.g.N.u.l.S.g.b.h.v.h.p.",
"S.P.S.F.F.b.j.b.h.h.u.n.i.j.h.p.f.5.n.4.i.x.u.p.F.H.p.r.n.r.x.L.M.l.p.x.n.m.v.n.p.p.e.N.i.l.x.w.p.p.s.h.p.l.i.i.i.m.p.v.h.F.M.a.",
"m.h.l.F.L.l.F.m.b.p.M.q.u.x.p.n.l.N.N.k.p.p.a.e.p.i.!.T.l.u.g.m.C Z Z Z Z Z Z 6 1 . . . . . . . . . . . . . 1 1 6 2 7 2 4 4 4 4 ",
"n.p.H.j.B.G.m.h.K.h.p.p.p.a.p.e.4.4.q.w.e.7.h.a.4.u.l.p.g.f.p.l.C Z Z C Z Z Z e 2 < 1 1 , , , , 1 3 4 4 7 6 2 7 5 2 q q q 4 4 4 ",
"x.U.p.F.Y.l.V.G.D.M.x.m.m.t.x.e.a.x.i.p.V.x.9.p.B.k.n.M.l.g.p.m.! Z Z B 0 0 V e 4 4 , , , , , , < 3 4 4 2 2 5 2 2 2 2 2 2 2 q 5 ",
"m.p.N.V.v.V.S.N.m.g.k.p.x.M.p.x.4.p.l.m.N.u.p.g.w.a.n.f.h.w.x.g.! Z V 0 0 0 y 8 ; h ; ; h h h h ; h h h j j j h h h h k k j j k ",
"l.j.L.m.F.A.M.F.C.r.y.k.7.j.D.c.f.t.j.q.r.y.N.r.3.7.t.y.0.k.f.J.! ~ t 0 6 6 % > Q R R ] Y ] ] ] ] ] ]  .] ] ] ]  . .]  . . ... .",
"n.n.S.F.x.g.A.x.c.c.y.k.k.c.c.k.x.V.g.M.V.k.c.B.y.j.q.f.j.q.c.y.~ Z t 0 8 $ # @ b G ] ] / ) ] ` ` ] `  . . .' O.O. .O. . .O.X.O.",
"m.p.h.s.l.l.r.N.j.k.t.k.k.j.f.y.A.r.j.0.7.r.N.k.k.g.c.j.7.c.k.k.~ Z V 3 8 % # & F G G G H M H H K K H L L L L L L L P L ^ ^ / / ",
"p.p.p.j.e.w.w.p.x.y.D.x.t.k.f.N.f.m.h.t.f.7.k.f.0.D.x.f.j.k.f.f.t 0 t * ; ; x Q K P L G G G J G J G J J J K ^ ^ ^ ^ ^ ^ ^ ^ ^ ^ ",
"l.h.l.x.8.e.l.r.k.t.g.g.y.c.2.j.c.n.k.i.t.c.k.k.0.x.0.k.k.k.j.0.1 2 5 9 S d m Y P P P P ^ P P P ^ ^ ^ ) ) ( _ ) _ _ _ _ _ _ _ ` ",
"i.8.p.m.g.N.k.g.t.k.T.q.f.q.c.j.t.f.0.k.g.M.q.k.k.f.c.f.f.t.k.0.3 2 4 - T H n G P / / ) / ) ( ) ) ` / ` ` ` ` ` ` ` ` ` ` ' ' X.",
"g.k.n.f.t.p.w.r.x.k.c.r.M.f.k.t.f.g.g.h.h.r.t.k.k.r.g.g.f.f.0.x.4 5 q - T ) H M P / P / ) ) ) ) ` ) ` ` ` ` ` ' ` ' ` X.' X.X.X.",
"N.i.r.j.w.0.k.k.g.D.j.k.f.j.k.f.g.h.q.t.j.k.7.r.k.f.k.4.7.j.t.D.3 q q - T / H M P P ) ) ) ) ` ) ` ` ` ` ` ' ' ' ' X.X.X.X.X.X.X.",
"a.N.j.g.r.h.g.e.f.C.j.c.j.V.f.0.t.k.g.k.g.c.0.f.k.f.k.0.f.t.D.k.4 q q = E ` K A P ) ) ) ) ) ] ' ' ` ' ' ' ` X.X.X.X.X.X.X.X.o.o.",
"l.k.l.g.l.c.l.B.c.k.M.k.c.f.f.D.f.t.k.t.g.k.r.j.f.f.t.f.k.7.f.f.4 5 q * E ) K A P P ) ) ) ` ' ) ' ' ' ' ' X.' X.X.X.o.o.X.o.o.o.",
"t.x.l.k.l.c.l.h.c.q.q.D.k.k.j.7.M.f.t.j.k.t.r.f.f.c.t.f.f.x.k.7.4 5 q - E ` K A L ) ) ) ` ` ` ` ' ' ' X.X.X.X.X.X.X.o.@.o.@.@.@.",
"Y.l.N.c.x.q.x.a.c.7.M.j.k.c.j.k.k.k.k.g.t.k.M.y.t.q.D.r.c.N.U.c.3 5 5 : E ` P A P ) ) ` ` ` ' ' ' ' ' ' X.X.X.o.o.o.o.o.@.@.@.@.",
"D.U.j.k.k.l.z.G.k.V.q.t.V.c.c.t.j.c.k.j.0.c.t.t.U.k.M.c.M.c.j.k.3 5 5 : [ ` P A ( ) ` ` ` ` ' ' ' ' #.X.X.X.o.X.o.o.%.o.@.*.@.*.",
"M.c.m.g.t.r.g.n.D.k.k.D.U.N.k.c.f.V.t.f.j.j.V.t.k.x.j.c.y.f.D.k.6 5 < = E ` K G P _ ` ) ' ' ' ' ' ' X.X.X.o.o.o.@.o.o.o.@.@.@.*.",
"D.x.A.c.x.k.j.m.V.J.N.j.N.c.J.V.k.c.q.c.c.D.j.j.M.Y.M.k.D.k.k.M.3 4 < - [ ' K G ( ) ' ' ' ` ' ' X.X.X.+.O.o.o.o.@.@.%.%.*.@.*.*.",
"F.k.H.c.k.k.m.x.c.j.k.J.E.k.V.D.C.f.j.k.U.D.J.D.k.V.k.E.k.k.M.Y.3 4 < * [ ' P H ( _ ` ' ' ' ' X.X.X.X.+.o.o.*.o.@.@.%.%.*.*.*.%.",
"M.Q.M.D.D.k.M.D.J.J.D.U.r.N.H.D.k.c.M.g.k.c.c.g.V.E.k.N.C.D.j.D.4 < 4 : [ X.P J ( _ ` ` ` X.X.' +.X.o.+.+.@.@.@.@.@.@.@.@.%.#.#.",
"k.R.H.N.J.D.g.D.U.T.J.C.U.H.J.D.N.N.D.P.R.U.C.D.J.3.M.V.N.f.U.U.4 < 4 - [ ` P G ( _ ` X.X.' X.X.O.+.o.+.+.+.+.@.#.#.| I D b c l ",
"!.D.Y.Q.N.c.J.j.U.D.D.D.B.R.U.N.c.D.N.k.V.H.U.C.D.U.U.J.D.U.D.7.3 < 5 - } ' / G ( ` ` X.' X.X.X.O.X.'  .| R I D u o O z v g S E ",
"J.B.J.~./.k.c.k.D.N.T.M.U.M.Y.H.R.J.c./.D.N.D.D.D.D.U.J.J.J.N.H.7 < 4 h [ ` / J _ ' ` X.' X.{ ] D m f i o     p W U R | $.%.%.=.",
"J.R.H.N.H.N.D.J.k.V.V.M.J.V.U.U.R.c.N.Y.c.D.c.D.k.R.x.U.J.D.D.N.7 < 4 : } ' / J _ X.' X.X.` s o X o + a S R  .#.%.%.;.%.=.=.-.=.",
"J.L.D.t.j.J.T.k.N.J.N.C.D.E.U.U.V.H.D.D.G.c.N.H.C.E.T.U.D.J.c.R.7 4 5 j } ' ^ L _ _ ` X.X.X./ m I ) ' %.%.%.@.*.%.;.>.>.,.-.-.-.",
"J.k.c.B.J.N.r.j.M.J.M.c.E.U.C.x.N.D.H.A.C.E.D.c.C.c.E.H.c.V.k.D.e 2 5 9 ..X.^ J _ ` X.X.X.X.X.X.#.o.@.@.%.@.=.;.>.;.=.,.=.-.-.-.",
"N.H.H.D.D.g.H.N.k.c.V.H.V.D.k.R.c.D.Y.T.B.x.N.P.V.g.E.J.E.M.J.D.q 4 w : ..X.) J _ ` X.X.X.X.@.X.@.@.@.@.;.=.;.;.;.>.=.=.,.-.,.,.",
"t.j.l.M.k.H.D.H.x.k.c.B.k.N.k.k.g.g.x.z.P.c.N.D.g.N.c.T.D.x.g.N.q 4 5 : ..X./ P _ X.X.X.o.o.o.@.o.*.*.*.;.;.;.:.:.>.:.>.>.,.,.>.",
"k.a.H.a.x.g.m.H.c.j.j.k.N.V.c.c.s.N.l.m.D.V.C.j.J.J.k.D.c.c.U.c.5 5 w 9 ..O.) J _ X.X.X.o.o.@.@.*.o.*.*.;.;.;.:.:.:.>.>.>.>.,.,.",
"k.N.c.A.j.c.l.f.g.k.c.B.B.c.J.k.a.p.j.A.B.x.D.l.N.H.T.N.N.k.k.G.e 4 5 N ..o./ P _ X.X.X.X.o.o.@.o.*.*.*.;.;.;.:.:.>.>.:.>.,.,.,.",
"c.x.H.g.k.k.x.L.k.g.H.V.x.k.N.k.H.k.k.z.H.M.j.A.c.D.j.H.H.C.c.j.7 5 w N ..o.) J _ _ X.o.o.o.@.@.@.*.*.;.*.;.;.;.>.>.>.>.=.,.>.>.",
"x.x.g.e.k.g.x.l.m.l.M.S.V.k.N.z.g.x.k.z.h.k.A.N.k.c.k.k.A.a.t.G.7 5 w N ..#.) L _ X.X.X.X.@.@.@.@.@.*.*.*.-.;.-.:.>.>.>.,.>.>.>.",
"C.d.N.D.x.e.p.D.m.N.D.m.x.N.H.c.m.l.S.c.H.N.c.F.k.D.H.k.J.p.B.t.7 5 w 9 ..+.P L _ X.X.o.X.@.@.@.@.*.*.*.*.;.-.-.:.>.>.>.,.>.;.<.",
"m.x.M.B.n.p.r.a.r.m.x.D.H.z.c.J.x.k.j.c.k.c.U.k.N.D.c.k.C.k.g.t.7 5 r 9 ..+.) L _ o.X.o.@.@.@.@.*.@.*.*.;.*.;.-.:.:.>.>.>.>.&.K.",
"l.l.x.k.x.p.k.z.k.g.m.x.B.B.m.N.k.N.y.g.k.z.F.C.h.L.y.y.D.H.J.k.e 5 r 9 ..X.) L _ _ X.X.X.o.@.@.@.@.@.*.;.;.;.:.:.-.>.>.>.%.1.^."
};
