/* XPM */
static char *_c39dba41dfb43c4c516bb5614dba517vJsnzrppe2pvnbfD[] = {
/* columns rows colors chars-per-pixel */
"64 64 218 2 ",
"   c #1E1E1E",
".  c #1F1F20",
"X  c #201F20",
"o  c #242325",
"O  c #292829",
"+  c #302F2F",
"@  c #373637",
"#  c #3B3534",
"$  c #3E3935",
"%  c #453D35",
"&  c #483F36",
"*  c #433E3A",
"=  c #3E403F",
"-  c #474037",
";  c #494037",
":  c #45423B",
">  c #4C433A",
",  c #4F483E",
"<  c #50463D",
"1  c #51493F",
"2  c #3B3E43",
"3  c #3E4B5F",
"4  c #4B4441",
"5  c #4D4943",
"6  c #47484A",
"7  c #544C42",
"8  c #584E44",
"9  c #544E49",
"0  c #575046",
"q  c #5A5146",
"w  c #56504A",
"e  c #5C544A",
"r  c #5F584E",
"t  c #454C54",
"y  c #434D5B",
"u  c #4C4F58",
"i  c #4B5356",
"p  c #4C545B",
"a  c #575756",
"s  c #5B5652",
"d  c #5D5954",
"f  c #60564B",
"g  c #62594E",
"h  c #645D53",
"j  c #685E53",
"k  c #635E5A",
"l  c #676056",
"z  c #696156",
"x  c #65625C",
"c  c #6B635A",
"v  c #6F685E",
"b  c #70675E",
"n  c #716A5F",
"m  c #4C5865",
"M  c #545C63",
"N  c #455875",
"B  c #596369",
"V  c #56687C",
"C  c #656364",
"Z  c #6A6663",
"A  c #6C6A66",
"S  c #6C6C6A",
"D  c #736D63",
"F  c #796F66",
"G  c #716E6A",
"H  c #6E706E",
"J  c #767066",
"K  c #797266",
"L  c #74726C",
"P  c #7B766B",
"I  c #7D796C",
"U  c #676C73",
"Y  c #737372",
"T  c #797671",
"R  c #7B7A74",
"E  c #757378",
"W  c #7C7D7C",
"Q  c #837C6D",
"!  c #837D72",
"~  c #887F73",
"^  c #817E7A",
"/  c #868073",
"(  c #8A8375",
")  c #85837D",
"_  c #8A857C",
"`  c #8D897D",
"'  c #91877B",
"]  c #958B7D",
"[  c #998D7E",
"{  c #506E90",
"}  c #56769B",
"|  c #6A7685",
" . c #767A84",
".. c #6B7C97",
"X. c #827F87",
"o. c #7E8187",
"O. c #6E839A",
"+. c #778798",
"@. c #5F8BBD",
"#. c #6A86A9",
"$. c #788BA5",
"%. c #7A92A9",
"&. c #6A8CB8",
"*. c #768DB8",
"=. c #7796B9",
"-. c #5F91CA",
";. c #668EC2",
":. c #6592CC",
">. c #6A95CA",
",. c #7497C2",
"<. c #6C9AD4",
"1. c #679AD8",
"2. c #719CD4",
"3. c #7CA2CA",
"4. c #6CA0DE",
"5. c #75A4DB",
"6. c #5F9EE3",
"7. c #649CE2",
"8. c #6BA3E3",
"9. c #67A4E9",
"0. c #77AAE3",
"q. c #74ACEB",
"w. c #79B1EF",
"e. c #7BB4F2",
"r. c #6BDFE8",
"t. c #838484",
"y. c #878887",
"u. c #8C8A84",
"i. c #84848B",
"p. c #8D8D8B",
"a. c #948D82",
"s. c #918E89",
"d. c #8E918A",
"f. c #9B9585",
"g. c #92928B",
"h. c #9B968B",
"j. c #9C998D",
"k. c #858994",
"l. c #8A8B95",
"z. c #8C9199",
"x. c #939494",
"c. c #9D9C94",
"v. c #95989C",
"b. c #A29A86",
"n. c #A09788",
"m. c #A49B8C",
"M. c #AA9D8C",
"N. c #A49E93",
"B. c #9FA19C",
"V. c #ABA28E",
"C. c #A3A195",
"Z. c #ADA292",
"A. c #A2A19B",
"S. c #B4A596",
"D. c #B7A998",
"F. c #BDAE9B",
"G. c #BEB09C",
"H. c #8897A5",
"J. c #8A9CAA",
"K. c #9799A2",
"L. c #849CB4",
"P. c #8B9DB4",
"I. c #959FB4",
"U. c #99A6A9",
"Y. c #8AA1B6",
"T. c #8BA3BA",
"R. c #8AA5BD",
"E. c #93A4B2",
"W. c #9DA9B3",
"Q. c #94A9BD",
"!. c #9DACBB",
"~. c #9EB0BD",
"^. c #A8A8A6",
"/. c #B6AEA4",
"(. c #BCB3A3",
"). c #B5B2AA",
"_. c #BDB5AA",
"`. c #BFB8AC",
"'. c #B5B3B3",
"]. c #BDBAB3",
"[. c #C1AF9C",
"{. c #C1B19D",
"}. c #C2B4A2",
"|. c #C0B7AA",
" X c #C1BAAD",
".X c #C9BBAC",
"XX c #C4BDB2",
"oX c #C1BFB9",
"OX c #C6C0B4",
"+X c #C9C2B6",
"@X c #C4C2BB",
"#X c #CBC4BB",
"$X c #D0C8BD",
"%X c #88A7C7",
"&X c #93ACC4",
"*X c #9AAFC4",
"=X c #9AB2C8",
"-X c #83ABD8",
";X c #97B6D4",
":X c #A7B9C8",
">X c #B3BDC7",
",X c #A2BDD6",
"<X c #81B8F1",
"1X c #B7C1C9",
"2X c #ABC2D7",
"3X c #B2C3D3",
"4X c #B5C6D7",
"5X c #C9C8C4",
"6X c #D2CDC3",
"7X c #D8D4CC",
"8X c #C5D0DB",
"9X c #DBD9D2",
"0X c #D4D7DB",
"qX c #E8E6DE",
"wX c #D0DAE2",
"eX c #DAE5E6",
"rX c #E3E6E8",
"tX c #EAEBED",
/* pixels */
"9 a a s d d d s a a d x x A S Y H H Y H H H v A A H H I W o.) t.d.z.z.u.u.u.d.x.d.p.y.y.y.y.o.t.t.t.t.W W R R E E L Y S S S S C ",
"d C k Z Z A S A A A G G S Y T L I Y R I L H H H H H L H L L H T R o.o.o.W ) d.o.R H A A S S S S G S Z Z Z k k d s s w w 9 9 9 4 ",
"k C Z Z A A L L T R ^ ^ ^ ) t.) ) ` ` ` _ ` ` ) _ u.` u.d.u.a.d.d.g.c.B.B.U.r.U.c.g.s.d.p.d.d.d.s.y.u.t.X.^ ^ ^ ^ T E F G G A A ",
"* * : 4 5 7 w s h k Z F K I V.j./ / (.(.).).`.).).`. X).).OX).s.B.A.^.).].7XeX@X)./.).^.).g.u.) h.m.~ ^ ! T L G A A Z Z C k C k ",
"% : : 4 5 5 7 0 0 h h c n D V.V.Q / G.OX#XOX$X#XOX6X7X$X7X7X6Xu.).9XqX9XqX9X$X9X9X9X@X9X6XM.( J M.S.F D b z h h d w w w 5 5 5 4 ",
"$ % : : : 5 7 9 0 e h h z c V.[ I Q G. XOXOXOXOXOXOX+XOX$X+X#X` V.$X5X$X XOXOXOX#XXXoX@X@XM.( Z M.m.n c z h g s e w 7 5 5 4 4 4 ",
"= : : > 5 5 7 9 0 e r h l l V.V.K Q {. X XOX X X XOX`.OX+X+X$X) b.$XoX XOX X XOXXXoX@X].@Xb./ c M.b.z k k h s w w w 9 5 5 4 4 > ",
"> > 5 5 5 9 w w e e r h h h V.[ K Q {.OX X X X X XOXOXOX+XOX$X) b.5X@XOX X X X XOX@X5X5X#Xf.R x m.n.x x k h h s s w w 9 7 5 5 5 ",
", , 0 1 i 0 0 r r r r h h d b.b.K Q G.OX X X X X X XXXXXXXXX#X^ f.].7X].OX`.OX`. X].@X].oXf.R d N.n.k k k k k s s r w w w w 9 7 ",
"0 0 0 0 0 e r r r r r h h r b.[ n K G. X`. X X X XXXXXXXXXXXXX^ f.oX6X].OX`._.OX`.`.`.].XX[ I l m.m.Z b j k j g g s r w e w w 9 ",
"0 0 q e e r r r r r r h h h [ b.n K D.OX X X`.(. XXX X|.XXXX.X! f.OX].oX_.`.OX X`.oX`.XX].' I x m.s.k c c k j j h s h r r r e w ",
"e e e e r r r r h h h h h r [ j.n K V.|. X(. X X_. X`._.XX|.XXT f.#X`.@XOX X_.|.`._.`.`.XX~ P C m.a.c c c c c j h h h h f g f e ",
"e e r r r r h r r h h h h h ] j.v K D.`. X|.|. X XXX_. X`.]._.G f.@X`.`.XX`. X X`.)._._.|.~ K C m.a.c c c c j j j k h k h g g s ",
"r r r r r h h h h l d h h r j.[ n K V.}.|.|._.(.(.|. X_.|.|._.G ] OX`./.OX_._.|. X_./._.|.Q J x h.s.b b c c c c z j j j h h g g ",
"r g r g r h h h h h h l l h [ j.D J V.|._._._._._._._._.`._.(.G ] _.OX/.XX`._._._./. X(.|.Q D x M.X.b b c c c c z z j j h h h g ",
"g g r h h h h h h l l l l d [ j.D D V.}.|.|.|._.}._._._.|.(._.F a.OX`.`.OX`._._._./._.|.|.~ z x n.a.c b b b c c z z j j j h h h ",
"g h h h h h h h l l h l h d a.f.L J V.{.{.(.(.G.(.(.G.(.(.(.}.D ] (.|..X(.(.(.(._.(.(.|.(./ l A n.' k b b b b b j j j j j j j g ",
"r h f h h h h h h l l l l h ` f.J J V.{.}.}.(.(.G.(.G.}.(.G.{.D [ [.|.|.(.(.G.(.(.(.(.(.(./ l J h.! j c b b j b j b b j j j j j ",
"g h r h h h k h h l l h l h ( j.J J V.{.}.{.}.{.{.F.{.{.F.F.{.Z ] }.(.|.{.}.(.(.G.G.(.(.G.Q l H h.Q j c b j z c b b j z j j j f ",
"f h h h h h l l l l h l h h ( f.J J ] m.M.M.V.V.M.m.M.M.M.M.M.D ' S.S.D.S.M.Z.S.D.S.D.D.D.J l L h.Q j c z z z c j j j z j j j j ",
"g g h h h l l h l h l l l h _ h.F F K K J J D D n n D n v n n n D D D D K K K F D v D J J J l L h.! j j j c j z j j j j j j j j ",
"r d r h h h l l l l l l h h _ j.K K Q ( ( ( ( Q Q / / Q Q / Q c F ( ( ( u.` ~ ! P J J P I K x L j.! j j c j j c z j j j j j j j ",
"r g h l h h h l h l l l l h ` j.L J M.{.{.G.G.F.F.[.F.F.F.F.F.c ' [.D.F..X}.G.G.}.}.G.G.G.L x R c.! h j j j j j j j j j j j j j ",
"r h d h h h l l l l l l h h ` j.I K V.{.{.{.{.G.G.G.G.F.F.F.[.n ] D.S.F.F.{.G.G.F.G.G.}.G.D d ^ c.! g j j j j j j j j j j g j g ",
"e h g h r l l l l l l l l h ` j.^ L V.{.{.{.{.{.{.G.G.G.F.F.[.c [ [.F.[.{.F.{.F.F.F.[.}.[.G e ) [ Q f j j j j j j j g j j g j f ",
"r r d h l l l l l l l l l h ` B._ L V.{.{.{.{.{.{.G.G.G.F.F.[.n [ F.D.[.F.[.F.{.{.F.(.F.{.G d t.M.Q f j j j j j j j j g g j f j ",
"r r h h r l l l l c l l l h _ C.p.I f.{.{.{.G.G.[.G.D.[.{.F.[.n ] [.S.F.{.F.F.F.[.F.F.G.}.L k t.M.b j j j j j j j j j j j f j f ",
"r r g h l l g l l l z l l h ^ C.s.P b.}.{.{.{.G.G.G.G.{.[.F.[.J [ D.[.D.G.G.F.F.}.(.F.}.}.P k t.C.b f f j f f j j f g g f j g f ",
"r r h l h l l l l l l l l l ! B.s.R b.{.{.{.{.G.F.F.G.{.G.{.{.D ] [.D.(.}.}.}.}.G.F.G.G.D.T k d.A.n g g j j f j j f g j g g g g ",
"r r r h h h l l l c c z l h ! B.g./ j.{.}.{.G.G.{.[.G.G.G.G.F.P ] D.(.S.F.XX$X.XOXG.{.G.D.R d x.^.G g g f j j f f j f g g g g f ",
"r g h h h l l l l l l l l h W B.g.R / ` ` / I / / / I P K I I A n Q ~ _ a.m.m.h.[ [ [ f.` L d x.A.D g g f j j f j f j g g g f f ",
"r r r l d l l l l c l c l h ^ B.z.  i T.&X;X2X;X2X=X=X&X;XR.&XB  .P.*X:X=X&XP.&XR.Q.R.T.+.= = K.U.n f g j f f j f j g g g f g f ",
"r r r h h l l l z l z c l h ) U.H.. 2 O.$.L.%XP.&XL.T.=X;X%XY.i | Y.=.&X;X2X4X2X,X,X,XR...o @ E.W.e f f g g f j f f g g f g g f ",
"r h h h h l l l l z c x l h _ ~.H.. + +.%.%.T.L.L.&XY.P.T.%XL.y | =.%X&X%X3X1X4X:XI.:Xz. .X @ !.W.8 f f f f g f f g f f f f f f ",
"h r r l h h l l z c z z c l o.~.J.X o O.$.#.H.,.5.-X%X-X3.3.5.N } 8.%.H.=.3X4X4X>Xz.K.K. .. @ Q.W.8 f f f f f f g g f f f f f f ",
"r r r h h h h l l l v x l h o.~.H.o o &.;.:.5.w.<X<X<X<X0.w.8.N } 8.#.%.=.3X3X3X*Xk.k.i. .. O &X~.1 8 f f f f f f f f f f f f f ",
"e e h r l h l l x l c c l l o.=XJ.o O <.9.e.7.<.w.e.e.e.e.q.<.N } 9.=.H.-X3X3X:X*Xk.i.l. .. + !.~.1 8 f f f f f f f f f f f 8 f ",
"r h l l l l l l z z x c l h H ~.J.o + >.7.9.5.:.8.w.q.q.w.q.8.N O.9.2.+.Y.U.'.^.K.X. .X.| . 6 Q.~.1 8 f q f f f 8 f f 8 8 f 8 f ",
"r r l h h h h l l z l z l h H ~.J.o + >.7.7.1.<.8.8.1.8.q.9.1.3 { 6.>.+.R.%.W.^.i.l. .X.V X u Q.~.8 f f q f q q f f f f f 8 8 f ",
"r e r r h h h l l x z z l k H =XJ.o # :.6.1.<.;.8.4.1.<.8.7.7.N } 6.>.+.3.T.'.B.X.X.X.i.U X u !.~.1 1 f q f f f f 8 8 f 8 f 8 f ",
"e e r r r h h h l l l z l h S ~.J.O # ;.1.7.7.2.2.2.<.@.:.-.;.3 { 6.4.%.%X..^.v.X.l.X.X.B o M Q.Z.8 8 f 8 f f 8 8 f 8 8 f f 8 f ",
"e e e r r r h h h h l l l h U 1XK.O % ;.2.5.0.2.>.2.&.#.;.:.;.y { -.@.o.$.X.k.k. .X.E E U o M &XU.< 8 8 8 8 8 8 f 8 f 8 8 8 8 8 ",
"e e e e r r r h d h h l l h H ~.I.+ % *.&.=.*.,.,.,.&.&.;.@.#.m V #.#.O.X.X.X.X.X.v.i.l.C O M Q.U.1 8 8 f 8 8 f 8 f 8 f 8 8 8 8 ",
"0 0 0 e e r r r h h h l h r H 2XE.@ $ I.P.P.$...+.#.#.#.....#.u U $.o.z.K.K.^.>X1X>X5X5Xi.O M &XE.1 8 8 8 f 8 8 8 8 8 8 8 f 8 8 ",
"0 0 0 0 e e e d r r h h h r H 1XJ.@ + # * # $ # $ % $ $ + = + = $ : * * 4 4 4 4 4 * * # O o y &XE., 1 1 8 8 8 8 8 8 8 8 8 8 8 8 ",
"7 0 0 e e e e e r r r d r r H 2X%.t p p u u u y t y p M M M B B M B M M M p u u t u t 6 2 t u P.E., 1 q 8 8 8 8 8 8 8 8 8 8 8 8 ",
"0 , 0 0 0 0 e e e r r r r r Y =XY.1X8X8X8XwXwXwXwXeXeXrXqXtX2X%.eXtXtXtXtXtXrX0X0X0X0X0X0XI.R.T.E.1 1 f 8 8 8 8 8 8 8 8 < 8 8 8 ",
"1 1 , 0 , 0 0 0 w e e r r e s U W W W o.o.t.t.i.y.y.u.d.d.d.B H x.A.'.'.'.'.'.'.'.'.'.'.'.l.| | Y 1 1 1 8 8 8 < 8 8 8 < 8 8 < 8 ",
"7 1 7 1 , 0 1 0 0 0 e e e e 0 e e e r r r r e e e e 0 0 0 0 , 0 0 0 0 0 0 7 0 , 7 0 1 , , , 1 1 0 1 0 7 8 8 < 7 8 < 8 < < < 8 < ",
"7 0 0 0 0 0 , 0 1 0 0 0 0 e e e e e e r r e e e e 0 e 0 0 0 0 0 0 0 0 0 0 0 7 0 7 1 0 0 0 0 0 1 0 1 0 1 8 8 7 8 8 < < 8 < 8 < < ",
"0 1 0 0 0 1 , 7 7 0 0 0 0 e 0 e r e e r e e e e e 0 0 0 0 0 0 0 0 5 0 1 0 0 1 0 0 7 0 1 1 0 1 0 8 8 8 1 8 & 7 < < 8 < < < < 8 8 ",
"1 0 7 1 7 0 , 7 1 0 7 0 0 0 0 e 0 r 0 0 e e 0 e 0 e 0 0 0 0 0 0 0 0 0 0 0 5 0 0 7 7 , 0 0 1 0 1 1 7 8 1 7 < 7 7 8 < 8 < 8 8 < < ",
"0 1 0 , 0 , 7 1 , 5 7 0 0 0 0 e e e 0 e 0 e e 0 0 0 0 0 0 0 0 0 1 0 1 0 0 , 0 1 7 0 1 7 1 1 0 0 1 7 1 7 1 8 < 8 8 < 8 < < < < 8 ",
"7 0 1 , 0 0 0 1 0 7 7 7 0 e 0 0 e 0 e 0 0 0 0 0 0 0 0 0 0 , , 0 0 1 0 1 0 , , 0 1 7 7 1 1 0 1 1 7 1 8 1 1 1 7 8 < < < < < < < < ",
"0 0 , 0 0 0 0 0 0 7 0 0 0 e 0 e 0 0 0 0 0 1 q e 0 0 0 0 0 0 , 0 0 0 0 1 0 0 , 0 1 , , 0 1 1 1 1 7 7 1 1 1 8 < < < < < < < < < < ",
", 0 0 1 0 0 0 7 7 0 0 0 0 0 0 0 0 0 0 0 0 0 1 0 0 0 0 5 , 0 0 , , 1 0 , , 0 1 , 0 0 , , 0 1 1 1 < 1 1 1 < < < < < < < < < < < < ",
"0 1 0 1 0 0 0 1 0 , 0 0 , 0 0 0 r 1 e 1 e 1 0 0 0 0 1 0 1 e e 1 0 , 1 0 , 0 , 1 1 1 1 1 1 1 1 1 < < < < < > < < < < < < < < & < ",
"1 0 1 0 1 1 1 q , 0 , 7 0 , , , 1 1 1 1 e 1 0 q 1 1 0 0 1 1 1 1 0 , , 0 1 1 0 1 1 < 1 1 1 1 < < < < < < < > < > < < < & & < < & ",
", 0 1 1 0 0 q 1 0 0 , , , 0 , 0 1 1 1 1 1 1 q 1 0 1 q 1 q 1 1 1 , 0 , , , , , , < < < < 1 < < 1 < < < > > > > < 4 < > < & < & < ",
", , , 1 , , 1 q , , , 0 , , , , 1 1 1 1 1 1 1 0 1 1 1 1 1 1 1 , , , , , , , , , < < < < > < > > < & > < < & > > > > & > < & & & ",
", , , , , 1 1 1 1 1 , , , , , , , , , , 1 1 , , 1 , , , , , > , > > > > , , : > > > > > > > > > > > & < > & > > > > ; & & 4 & & ",
": , , , , 1 1 1 1 , , , , , , , , > > , , > > > , , > , > , > > > > > > : > > > > > > & ; > > > & > > & > > & > & ; & & & & & & ",
", > , > , > , > , > > > > > , , > ; ; > > > ; > > > > > ; , , > > > ; ; ; ; - > ; & ; ; ; > & & & & & & ; ; ; & & & % % % % % % ",
"; > > > ; > ; > > > > > - > > : > > ; > ; ; > ; - - - > ; , , , , > , , > > > > > > > ; > ; > & > & & > & & & & & * % % % % % % "
};
