/* XPM */
static char *_47aac703ca64d1d93b07e2eaf62c7d4FDXIoV9VHfN31kaZ[] = {
/* columns rows colors chars-per-pixel */
"64 64 68 1 ",
"  c #97816E",
". c #968471",
"X c #998775",
"o c #9B8976",
"O c #95877C",
"+ c #988679",
"@ c #97887D",
"# c #9D8B7C",
"$ c #A08E7E",
"% c #A3917E",
"& c #968D85",
"* c #9C8D83",
"= c #988F88",
"- c #9B9086",
"; c #9C938B",
": c #9D9691",
"> c #9F9892",
", c #9F9E9E",
"< c #A18F82",
"1 c #A49384",
"2 c #A89786",
"3 c #A4958B",
"4 c #A8978D",
"5 c #A2988E",
"6 c #AA9A8C",
"7 c #B19E8F",
"8 c #A49C94",
"9 c #AD9D93",
"0 c #A49E9A",
"q c #AE9F98",
"w c #B09F94",
"e c #B09F98",
"r c #A7A096",
"t c #ACA196",
"y c #A6A19D",
"u c #ADA39B",
"i c #AFA89F",
"p c #B2A196",
"a c #B3A59B",
"s c #B8A79D",
"d c #B3A89F",
"f c #B9A99F",
"g c #A6A3A2",
"h c #ABA6A3",
"j c #AEA9A5",
"k c #ABA7A8",
"l c #AEABAB",
"z c #B2A7A0",
"x c #B8A7A0",
"c c #B5ABA3",
"v c #BBACA3",
"b c #B4AEAB",
"n c #B8AFA8",
"m c #BAB0A7",
"M c #B6B0AD",
"N c #BBB3AB",
"B c #AEADB2",
"V c #B1AFB3",
"C c #AFB2B6",
"Z c #AFB3B9",
"A c #B3B2B4",
"S c #BAB5B2",
"D c #B1B4BA",
"F c #B2B8BE",
"G c #C0AFA5",
"H c #C1B0A6",
"J c #C0B6AD",
"K c #C0B8AF",
/* pixels */
"44w27277ws77p77psspfsp7sGHfssfGfffssHHmmnmmmNNMMmNbSbMVlSVAVBDBB",
"44w2222ewespp77psssfspsffHfssfGfGfspHHvHvmcmMNMMMbNAbVVlVVAABABB",
"4494447ewwfe77sssssGsspffGffsffGGfsfmKvmccmmNSNMbbASMSbbSASBBZBB",
"44ww774ewfwwf77ssfsGfssffHffsffffs7GmNmvmmcmNNNSbbMSbMBVAADVBZBB",
"49w4w47wpswws77sfffGfspfGGffsfffffpfmKmmccmmSSNSSbMVbMbBSSDBBDBB",
"49w4w77esfpss77pfGfGffpfGffffsffvaasKHmmmcdmNNSmnbSSVSMlVVVBBVBB",
"99www47wwsp7fp7fffffff7sGHffffGfGsavHKHmmdcmNNNSnbSSbVVkSDDBBDVV",
"4wwww79ewss7s77sfffGfGsffHffffffvfsvKKNmmcdmSNNSMbMMMSVlSVDBDVBV",
"9wewww7sefwsew7psssGssffGGfsvfHffssfKJmmmvcmKNSNbbnAMVVlVSABBCBC",
"4wwwewwesswssswssfffffffGGfsfvvffffmKKmmmvcNSKSScbbNMVblDAlBBAVC",
"wwwwew7esfwesspssffGfGffGffsffHfsffHmKmmcmcmNSSSlbbASAllAAbBBDCD",
"9wewwwweswwspwsfffsfsfffGGffffHfsaGmNKmNcicmNSSMbnbMbMblSVBlVVVV",
"4wewwwwesssffesfGfffsGssfGffffHffsfvNKcmcicmNMNMbbxMMMBlAAlBVVVV",
"wweeewwess7eswwGffsssfssGvfffvmfffvvmJmNcicmNNSSbblMSbblVAbBVVVV",
"4weeew7seseffesffGsfsffsGfffvvHvfvvmNKmvddcMNKSSlnbbAMllASllVbBB",
"wwseew7eesessswGvvffsffsGGfffvHfvfmmHKmvdvmmSNKAbSbbMMMlSAkllVBB",
"w9eesewepssssssfxvsvsvffvffGffnfffmmNJmmmcnNNNNSxbbbSMbbVAkbBVAB",
"e4esepwpdssaxpsfvvssssfsHffffGnvvvmvNNmmmmcmNSSMbnbMbbVbAAkVlllB",
"eeeepwwssxesvssGvvsffvssmvfffvvffdmJmNcmcddcNNSmbnbbbbbbASVBCllA",
"e9eepewszseafppxvxsfsfspmffasfvvdsmNvJmccimmMSNMbMxbnblkbSbbblll",
"e9xepswaxa9asssfvxsfefssvffffdcvvfmmNNmdcdnmNNNmbnbcbbbzVSllAlCl",
"eesasewxvp9xsspxvasvsessnssfvfvdvfmmNJvcciMcMNSMbnvbbblzMAjblllb",
"eeappewpcewxseefxxexessdvvfvvvdvcdmNmKmcdincNNMmlbnbnbklbSllVkll",
"eeaesaexzaeexssfxcsssaspvdvfnmmcmdmmmNcmdicnMNMMxbbbbbxkASlbblll",
"eqeeqepzcxpxasaxcxvzsaxaxsxsmmcccdmmmNvcddcmMNNmbcclbzzjbSlMllll",
"zexaaeqaxzpcasexxcxvsxxddfxdfcmdmdcmmNmmcccnMNMbcbbcbkjjbAjbbkll",
"aeaeauqancadszpsdczxaxpdvsxzcmmdcdcmmNdmcddbNNNcbzbcbzhjMSjbVhkk",
"uuazaq9eccpzdxpxxmcnsvaddsddccvicdcmmNdmcimMMMMccbbbcbhbASllbhlj",
"uuuadq9unswdpdpsccccdddvzaaddccaddccmmmccidmmMnjllbzbjzjMSllbhkl",
"uuuuuq9anxpddpeaicccdxddxadzdncadddmmmccmccnMMncccMccjjjMSjllhhl",
"qupuuq9uxcadappsadcmaddczdzcdcndcddmmmcbcimMmMnjlcbjjjilMSjblhhl",
"uyuuuqwazcpdqeedaddcddcxxuzzdxmddidcmmccdddmNMnlccMzcjullSlbjhkl",
"ayduutqdccaaaeepcddmaiddddidicddcimdmmccdxcmMbbdbiMcchulMNjjlgkj",
"uudpuqqdccddxaadccccdimmddddvmvddddcmmimcumbMcbccjbjjihlMMljhggj",
"uauuuuqunnzzeeazdcccdidmmiiiccddddimmccMiuccnbcjjicjhjibMSjjjyyj",
"uuduuqtuvvzzaapdamccidmnmdiucvdidiudmidciuicjiiijibihiiblMhjyyyl",
"uuudytudxnaiauaddcdcuaccdciidddddaicmiiddudcciiaiicuhiillMhghyyh",
"auaut9tdccdipqpudddcidmcddiafcddiudcmiidiuiicduyhuzturyiiluryu0g",
"uuuuttudccudt99aicddiamdcditdvduitaccuiauuddiuuturirrruiuir0r0:r",
"udupyttaccuut99aazidiidmddapucdautudmtuituciiuutr8trr5rrri88::>>",
"yauuqytddcuut66uiddzduccdduwpcidtttaduuu9tduutt565y483q88r55;>:>",
"uuautqtddmuupt9udddudtacdmttpdatpttadtuuttdui956939443585r5;;;>>",
"ttatttuuacuupt9paaddatdmdct9ppiip6tad9uttptuu56661433155553;;=::",
"yauttuuudctutp6auuidarfdddpttpppp9pip9tt96ttq64533413*15>r5>;&;:",
"ttttt8uuidtatt6ptiudutddfdt6pupppttpt69t6w996311133<31;85r5>;&;>",
"9tytq5autdpp679tpfuutpaaddt76tppw9tut99w6679611-113111155535;=::",
"8qtrt6autdwt997tuutdu9adadp9pttp966at666626631-%1<4<1-1;55;>;=;:",
"89t9r6tutaw999tp7uti99pddaw9p6p7966a66962262%%%%<<4<1-3555;;;==:",
"t9r999tttu9964q9ptpu94padar677t7626t616621221$%$111**335:51;=&=>",
"rrq686ttttqq66696pta56puat96r6666277611121111##$*14<3<*355;;=*;>",
"89966959ptt644696wap619tst6966669267611111111#-#*11*<*1;55=;;=;>",
"6989969q9p964449wttt646tut4666222166212$1#%1*o#$<*411**3;3=;&=;0",
"969443699w69444969p9411p772522223%162<111%*1#$##<11<1**;;;-;*=:y",
"4544434499494136t5666126763111%1%$%22%1$%##1#1#1#11****;;;-;;=>y",
"3443424429241<<662621116221%1%%%$o$21$$#$#%1##*#$-1**O**5-;::;0y",
"3341<<<222121$1221241$%622%#%%%%#o$2%$$####111%#*11*<***5;:>:;0,",
"<11$1##13111$#$12%22$#$1%%##o%%oo #%%#%o###*1%#o*<<*<**588>08>0,",
"*<1$$##111#$##$$%$1%##o%%#ooooooo o%%%%ooo1#1$*#*3<<<**58880080y",
"**$##oo*$$##+oo$%#%%oXo%%o..oooo .X%%#$OoX$-1##o*3**<*38u>0000yy",
"90y00qrrqyttqr8qrrrrrrrrrrruuuyiyiyhhhhjjjjgjklkkkBBBVVDCCCDZZFF",
"0080r8rrr88r88885r558888rrrryyyiyyihgghhhhhjkkllbBBVDDDDZZDZZDFF",
"5>:555>3>5555>35r588888rrrrrrryyyggyghhhgghhkkklBBVVVVVZZZZZZZDD",
"58558>3>5;3;55355rrrr8rruuyyiyiyhiihhhhlllCllllVVDDDDVZVVVZZDZDD",
"OOO@@#@###&@oO@#@@Oo@o@-;#;-@&;;;>>8>88rr,::::0000g0,:00,gkgkgg,"
};
