/* XPM */
static char *result[] = {
/* columns rows colors chars-per-pixel */
"200 50 72 1 ",
"  c #010101",
". c #060708",
"X c #07080A",
"o c #090B0C",
"O c #0D0F12",
"+ c #0E1115",
"@ c #121215",
"# c #12161A",
"$ c #16191D",
"% c #1A1C1F",
"& c #161B22",
"* c #191E25",
"= c #182027",
"- c #1D232B",
"; c #1F2731",
": c #21252B",
"> c #27292D",
", c #282A2F",
"< c #212730",
"1 c #242B34",
"2 c #2A2D33",
"3 c #262E39",
"4 c #2C3034",
"5 c #27303B",
"6 c #2A323D",
"7 c #32373F",
"8 c #33383F",
"9 c #2C3542",
"0 c #2F3945",
"q c #363C43",
"w c #393F46",
"e c #323D4B",
"r c #34414F",
"t c #3E434C",
"y c #374453",
"u c #394655",
"i c #3A4857",
"p c #394658",
"a c #3B495A",
"s c #40464F",
"d c #414750",
"f c #454B55",
"g c #4B525D",
"h c #4F5661",
"j c #525964",
"k c #545C69",
"l c #57606B",
"z c #59616D",
"x c #5C6571",
"c c #5F6875",
"v c #616B77",
"b c #646D7A",
"n c #66707E",
"m c #68717F",
"M c #697281",
"N c #848484",
"B c #8C8C8C",
"V c #939393",
"C c #9B9B9B",
"Z c #A2A2A2",
"A c #ACACAC",
"S c #B4B4B4",
"D c #BDBDBD",
"F c #C3C3C3",
"G c #CACACA",
"H c #D4D4D4",
"J c gray87",
"K c #E3E3E3",
"L c #EDEDED",
"P c #F4F4F4",
"I c #FFFFFF",
"U c None",
/* pixels */
"UUUUUUUUUUUUUUUUUUUUUUUUUUUUUUUUUUUUUUUUUUUU UUUUUUUUUUUUUUUUUUUUUUUUUUUUUUUUUUUUUUUUUUUUUUUUUUUUUUUUUUUUUUUUUUUUUUUUUUUUUUUUUUUUUUUUUUUUUUUUUUUUUUUUUUUUUUUUUUUUUUUUUUUUUUUUUUUUUUUUUUUUUUUUUUUUUUUUUUU",
"UUUUUUUUUUUUUUUUUUUUUUUUUUUUUUUUUUUUUUUUUU   UUUUUUUUUUUUUUUUUUUUUUUUUUUUUUUUUUUUUUUUUUUUUUUUUUUUUUUUUUUUUUUUUUUUUUUUUUUUUUUUUUUUUUUUUUUUUUUUUUUUUUUUUUUUUUUUUUUUUUUUUUUUUUUUUUUUUUUUUUUUUUUUUUUUUUUUUUU",
"UUUUUUUUUUUUUUUUUUUUUUUUUUUUUUUUUUUUUUUUU  -# UUUUUUUUUUUUUUUUUUUUUUUUUUUUUUUUUUUUUUUUUUUUUUUUUUUUUUUUUUUUUUUUUUUUUUUUUUUUUUUUUUUUUUUUUUUUUUUUUUUUUUUUUUUUUUUUUUUUUUUUUUUUUUUUUUUUUUUUUUUUUUUUUUUUUUUUUU",
"UUUUUUUUUUUUUUUUUUUUUUUUUUUUUUUUUUUUUUUU X1ueX UUUUUUUUUUUUUUUUUUUUUUUUUUUUUUUUUUUUUUUUUUUUUUUUUUUUUUUUUUUUUUUUUUUUUUUUUUUUUUUUUUUUUUUUUUUUUUUUUUUUUUUUUUUUUUUUUUUUUUUUUUUUUUUUUUUUUUUUUUUUUUUUUUUUUUUUU",
"UUUUUUUUUUUUUUUUUUUUUUUUUUUUUUUUUUUUUU  O0iuu5. UUUUUUUUUUUUUUUUUUUUUUUUUUUUUUUUUUUUUUUUUUUUUUUUUUUUUUUUUUUUUUUUUUUUUUUUUUUUUUUUUUUUUUUUUUUUUUUUUUUUUUUUUUUUUUUUUUUUUUUUUUUUUUUUUUUUUUUUUUUUUUUUUUUUUUUU",
"UUUUUUUUUUUUUUUUUUUUUUUUUUUUUUUUUUUUU  &euyypeO UUUUUUUUUUUUUUUUUUUUUUUUUUUUUUUUUUUUUUUUUUUUUUUUUUUUUUUUUUUUUUUUUUUUUUUUUUUUUUUUUUUUUUUUUUUUUUUUUUUUUUUUUUUUUUUUUUUUUUUUUUUUUUUUUUUUUUUUUUUUUUUUUUUUUUUU",
"UUUUUUUUUUUUUUUUUUUUUUUUUUUUUUUUUUUU .1uuyyp0+ UUUUUUUUUUUUUUUUUUUUUUUUUUUUUUUUUUUUUUUUUUUUUUUUUUUUUUUUUUUUUUUUUUUUUUUUUUUUUUUUUUUUUUUUUUUUUUUUUUUUUUUUUUUUUUUUUUUUUUUUUUUUUUUUUUUUUUUUUUUUUUUUUUUUUUUUU",
"UUUUUUUUUUUUUUUUUUUUUUUUUUUUUUUUUUU O6uuyuu1X UUUUUUUUUUUUUUUUUUUUUUUUUUUUUUUUUUUUUUUUUUUUUUUUUUUUUUUUUUUUUUUUUUUUUUUUUUUUUUUUUUUUUUUUUUUUUUUUUUUUUUUUUUUUUUUUUUUUUUUUUUUUUUUUUUUUUUUUUUUUUUUUUUUUUUUUUU",
"UUUUUUUUUUUUUUUUUUUUUUUUUUUUUUUUU  &euyypr-  UUUUUUUUUUUUUUAPIIIIGUUUUBFFFFUUUUUUUUUUBFFFFUUUUUUZFFFFUUUUUUUUGPIIIPZUUUUFFFFFFFGFFFFFGBUUBFFFFFFFFFFFNUUUNFGFFFFSBUUUUUUUUUUUUUUUUUUUUUNHPIIPHVUUUUUUUUU",
"UUUUUUUUUUUUUUUUUUUUUUUUUUUUUUUU X;yuyyp0+  UUUUUUUUUUUUUCIIIIIIIIHUUUDIIIIUUUUUUUUUUDIIIIUUUUUUKIIIIUUUUUUFIIIIIIIIKUUUIIIIIIIIIIIIIIFUUDIIIIIIIIIIIDUUUDIIIIIIIIIPUUUUUUUUUUUUUUUUUUFIIIIIIIIJUUUUUUUU",
"UUUUUUUUUUUUUUUUUUUUUUUUUUUUUUU O5uuyyu3X UUUUUUUUUUUUUUDIIIIIIIIIJUUUDIIIIUUUUUUUUUUDIIIIUUUUUUJIIIIUUUUULIIIIIIIIILUUUIIIIIIIIIIIIIIFUUDIIIIIIIIIIIDUUUDIIIIIIIIIIIUUUUUUUUUUUUUUUUAIIIIIIIIIIKUUUUUUU",
"UUUUUUUUUUUUUUUUUUUUUUUUUUUUU  #epyupy-  UUUUUUUUUUUUUUUIIIIIIIIIIKUUUDIIIIUUUUUUUUUUDIIIIUUUUUUKIIIIUUUUNIIIIIIIIIILUUUIIIIIIIIIIIIIIFUUDIIIIIIIIIIIDUUUDIIIIIIIIIIIPUUUUUUUUUUUUUUUPIIIIIIIIIIIUUUUUUU",
"UUUUUUUUUUUUUUUUUUUUUUUUUUUU .*yuyype$  UUUUUUUUUUUUUUUIIIIIIIPSDPKUUUDIIIIUUUUUUUUUUDIIIIUUUUUUJIIIIUUUUPIIIIIHVCHILUUUDDDDHIIIIPDDDDNUUDIIIIGCCCCCCUUUUDIIIIDALIIIIIAUUUUUUUUUUUUUUIIIIICNLIIIIHUUUUUU",
"UUUUUUUUUUUUUUUUUUUUUUUUUUU o6pyyyu3o UUUUUUUUUUUUUUUUBIIIIILUUUUUUUUUDIIIIUUUUUUUUUUDIIIIUUUUUUJIIIIUUUUIIIIICUUUUUSUUUUUUUUIIIIFUUUUUUUDIIIIUUUUUUUUUUUDIIIIUUUGIIIIPUUUUUUUUUUUUUCIIIICUUUIIIIPUUUUUU",
"UUUUUUUUUUUUUUUUUUUUUUUUUUU +yyyuy<  UUUUUUUUUUUUUUUUUPIIIIPUUUUUUUUUUDIIIIUUUUUUUUUUDIIIIUUUUUUJIIIIUUUUIIIIHUUUUUUUUUUUUUUUIIIIDUUUUUUUDIIIIUUUUUUUUUUUFIIIIUUUUIIIIIUUUUUUUUUUUUUDIIIIUUUUJIIIIUUUUUU",
"UUUUUUUUUUUUUUUUUUUUUUUU  U  -uae$  UUUUUUUUUUUUUUUUUUIIIIIBUUUUUUUUUUDIIIIUUUUUUUUUUDIIIIUUUUUUJIIIIUUUZIIIIUUUUUUUUUUUUUUUUIIIIFUUUUUUUDIIIIUUUUUUUUUUUDIIIIUUUUHIIIIUUUUUUUUUUUUUHIIIIUUUUZIIIIUUUUUU",
"UUUUUUUUUUUUUUUUUUUUUUU O. @@.29o UUUUUUUUUUUUUUUUUUUNIIIIIUUUUUUUUUUUDIIIIUUUUUUUUUUDIIIIUUUUUUJIIIIUUUDIIIIUUUUUUUUUUUUUUUUIIIIDUUUUUUUDIIIIUUUUUUUUUUUDIIIIUUUUAIIIIUUUUUUUUUUUUUKIIIPUUUUVIIIIUUUUUU",
"UUUUUUUUUUUUUUUUUUUUU  $j4 #X .. UUUUUUUUUUUUUUUUUUUUFIIIIGUUUUUUUUUUUDIIIIUUUUUUUUUUDIIIIUUUUUUKIIIIUUUAIIIICUUUUUUUUUUUUUUUIIIIFUUUUUUUDIIIIUUUUUUUUUUUDIIIIUUUUCIIIIUUUUUUUUUUUUUCDDSCUUUUBIIIIUUUUUU",
"UUUUUUUUUUUUUUUUUUUU  2kmh.  U  UUUUUUUUUUUUUUUUUUUUULIIIIVUUUUUUUUUUUDIIIIUUUUUUUUUUDIIIIUUUUUUJIIIIUUUBIIIIHUUUUUUUUUUUUUUUIIIIDUUUUUUUDIIIIUUUUUUUUUUUDIIIIUUUUCIIIIUUUUUUUUUUUUUUUUUUUUUUZIIIIUUUUUU",
"UUUUUUUUUUUUUUUUUUU Xqbng$.  UUUUUUUUUUUUUUUUUUUUUUUUIIIIIUUUUUUUUUUUUDIIIIUUUUUUUUUUDIIIIUUUUUUJIIIIUUUUIIIIIUUUUUUUUUUUUUUUIIIIFUUUUUUUDIIIIUUUUUUUUUUUDIIIIUUUUDIIIIUUUUUUUUUUUUUUUUUUUUUUFIIIIUUUUUU",
"UUUUUUUUUUUUUUUUU  $gnvwXo0- UUUUUUUUUUUUUUUUUUUUUUUUIIIIIUUUUUUUUUUUUDIIIIUUUUUUUUUUDIIIIUUUUUUJIIIIUUUUIIIIILUUUUUUUUUUUUUUIIIIDUUUUUUUDIIIIUUUUUUUUUUUFIIIIUUUULIIIIUUUUUUUUUUUUUUUUUUUUUUIIIIIUUUUUU",
"UUUUUUUUUUUUUUUU  1xnz> #ey*  UUUUUUUUUUUUUUUUUUUUUUUIIIIIUUUUUUUUUUUUDIIIIUUUUUUUUUUDIIIIUUUUUUJIIIIUUUUSIIIIIHUUUUUUUUUUUUUIIIIFUUUUUUUDIIIIUUUUUUUUUUUDIIIIUUUBIIIIHUUUUUUUUUUUUUUUUUUUUUHIIIIFUUUUUU",
"UUUUUUUUUUUUUUU X8vbh$ *ye+  UUUUUUUUUUUUUUUUUUUUUUUUIIIIIUUUUUUUUUUUUDIIIIUUUUUUUUUUDIIIIUUUUUUJIIIIUUUUULIIIIIHUUUUUUUUUUUUIIIIDUUUUUUUFIIIISUUUUUUUUUUDIIIINUDIIIIIUUUUUUUUUUUUUUUUUUUHPIIIIIIUUUUUUU",
"UUUUUUUUUUUUU  $gbvwoX6i1X UUUUUUUUUUUUUUUUUUUUUUUUUUIIIIIUUUUUUUUUUUUDIIIIUUUUUUUUUUDIIIIUUUUUUKIIIIUUUUUUIIIIIIGUUUUUUUUUUUIIIIFUUUUUUUDIIIIIIIIIIKUUUUDIIIIIIIIIIIKUUUUUUUUUUUUUUUUUUBIIIIIIIZUUUUUUU",
"UUUUUUUUUUUU  :lmx2 Oeu-  UUUUUUUUUUUUUUUUUUUUUUUUUUUIIIIPUUUUUUUUUUUUDIIIIUUUUUUUUUUDIIIIUUUUUUJIIIIUUUUUUUIIIIIISUUUUUUUUUUIIIIDUUUUUUUDIIIIIIIIIIKUUUUDIIIIIIIIIIPUUUUUUUUUUUUUUUUUUUBIIIIIIVUUUUUUUU",
"UUUUUUUUUUU .qxmh% =ye#  UUUUUUUUUUUUUUUUUUUUUUUUUUUUIIIIPUUUUUUUUUUUUDIIIIUUUUUUUUUUDIIIIUUUUUUJIIIIUUUUUUUUIIIIIICUUUUUUUUUIIIIFUUUUUUUDIIIIIIIIIIKUUUUDIIIIIIIIIBUUUUUUUUUUUUUUUUUUUUBIIIIIIISUUUUUUU",
"UUUUUUUUUU OfbbfoX1a9o UUUUUUUUUUUUUUUUUUUUUUUUUUUUUUIIIIIUUUUUUUUUUUUDIIIIUUUUUUUUUUDIIIIUUUUUUJIIIIUUUUUUUUBIIIIIIUUUUUUUUUIIIIDUUUUUUUDIIIIPLKKKLFUUUUDIIIIIIIIIUUUUUUUUUUUUUUUUUUUUUUZDLIIIIICUUUUUU",
"UUUUUUUU  :kbx4 +0y-. UUUUUUUUUUUUUUUUUUUUUUUUUUUUUUUIIIIIUUUUUUUUUUUUDIIIIUUUUUUUUUUDIIIIUUUUUUJIIIIUUUUUUUUUCIIIIILUUUUUUUUIIIIFUUUUUUUDIIIIUUUUUUUUUUUDIIIIPIIIIAUUUUUUUUUUUUUUUUUUUUUUUUFIIIIIUUUUUU",
"UUUUUUU .8vbj& *yr#  UUUUUUUUUUUUUUUUUUUUUUUUUUUUUUUUIIIIIUUUUUUUUUUUUDIIIIUUUUUUUUUUDIIIIUUUUUUJIIIIUUUUUUUUUUSIIIIICUUUUUUUIIIIDUUUUUUUDIIIIUUUUUUUUUUUDIIIIVIIIIPUUUUUUUUUUUUUUUUUUUUUUUUUIIIIIUUUUUU",
"UUUUUU OsmbfoX<p9+  UUUUUUUUUUUUUUUUUUUUUUUUUUUUUUUUUIIIIIUUUUUUUUUUUUDIIIIUUUUUUUUUUDIIIIUUUUUUKIIIIUUUUUUUUUUUJIIIILUUUUUUUIIIIFUUUUUUUDIIIIUUUUUUUUUUUDIIIIUJIIIIUUUUUUUUUUUUUUUUUUUUUUUUUFIIIIBUUUUU",
"UUUU  :jmz4 @0u<.    UUUUUUUUUUUUUUUUUUUUUUUUUUUUUUUUIIIIIUUUUUUUUUUUUDIIIIUUUUUUUUUUFIIIIUUUUUUJIIIIUUUUUUUUUUUUIIIIIUUUUUUUIIIIDUUUUUUUDIIIIUUUUUUUUUUUDIIIIUUIIIIHUUUUUUUUUUUUUUUUUUUUUUUUCIIIICUUUUU",
"UUU  4vmk* &ea9  UU  UUUUUUUUUUUUUUUUUUUUUUUUUUUUUUUUIIIIICUUUUUUUUUUUDIIIIUUUUUUUUUUDIIIIUUUUUUJIIIIUUUUUUUUUUUUPIIIIUUUUUUUIIIIFUUUUUUUDIIIIUUUUUUUUUUUDIIIIUUIIIIIUUUUUUUUUUUUUUUUUUUUUUUUNIIIIAUUUUU",
"UU .sbbf@ :yuy&  UU  UUUUUUUUUUUUUUUUUUUUUUUUUUUUUUUUKIIIILUUUUUUUUUUUDIIIIUUUUUUUUUUDIIIIUUUUUUKIIIIUUUUUUUUUUUUFIIIIUUUUUUUIIIIDUUUUUUUDIIIIUUUUUUUUUUUDIIIIUUFIIIIVUUUUUUUUUUUUUUUUUUUUUUUUIIIISUUUUU",
"UU 2bvq.X6uuuy+  UU  UUUUUUUUUUUUUUUUUUUUUUUUUUUUUUUUAIIIIIUUUUUUUUUUUDIIIIUUUUUUUUUUSIIIIUUUUUUPIIIIUUUUUUUUUUUUVIIIINUUUUUUIIIIFUUUUUUUDIIIIUUUUUUUUUUUDIIIIUUUIIIILUUUUUUUUUUUUUULLPLUUUUUBIIIICUUUUU",
"UU fz: $eiyuyy# UU  UUUUUUUUUUUUUUUUUUUUUUUUUUUUUUUUUUIIIIIZUUUUUUUUUUDIIIIUUUUUUUUUUAIIIIUUUUUUPIIIIUUUUUUUUUUUUAIIIIUUUUUUUIIIIDUUUUUUUDIIIIUUUUUUUUUUUDIIIIUUUPIIIIUUUUUUUUUUUUUUIIIIUUUUUZIIIINUUUUU",
"UU ># -yiuyyyu-    UUUUUUUUUUUUUUUUUUUUUUUUUUUUUUUUUUUIIIIIIUUUUUUUUUUDIIIIUUUUUUUUUUVIIIIZUUUUUIIIIPUUUUUUUUUUUUPIIIIUUUUUUUIIIIFUUUUUUUDIIIIUUUUUUUUUUUDIIIIUUUZIIIISUUUUUUUUUUUUUIIIIZUUUUKIIIIUUUUUU",
"UU  o6auuyyyyu6  UUUUUUUUUUUUUUUUUUUUUUUUUUUUUUUUUUUUUDIIIIIIUUUUUUUUUDIIIIUUUUUUUUUUUIIIILUUUUVIIIIHUUUUSHUUUUUSIIIIIUUUUUUUIIIIDUUUUUUUDIIIIUUUUUUUUUUUDIIIIUUUUIIIIIUUUUUUUUUUUUUIIIILUUUUIIIIIUUUUUU",
"UUU #9*+&euyyueo UUUUUUUUUUUUUUUUUUUUUUUUUUUUUUUUUUUUUUIIIIIIIPGFPKUUUDIIIIZUUUUUUUUUUIIIIIKVVSIIIIIAUUUUSIIHCCKIIIIIFUUUUUUUIIIIFUUUUUUUDIIIIZUUUUUUUUUUDIIIIUUUUJIIIIUUUUUUUUUUUUUIIIIIDUULIIIIPUUUUUU",
"UUU  X   &yyyyu@ UUUUUUUUUUUUUUUUUUUUUUUUUUUUUUUUUUUUUUSIIIIIIIIIIKUUUDIIIIIIIIIIIZUUUPIIIIIIIIIIIIIUUUUUSIIIIIIIIIIIUUUUUUUUIIIIDUUUUUUUFIIIIIIIIIIIDUUUDIIIIUUUUNIIIIHUUUUUUUUUUUUGIIIIIIIIIIIIBUUUUUU",
"UUUUUUUUU 0uyya- UUUUUUUUUUUUUUUUUUUUUUUUUUUUUUUUUUUUUUUJIIIIIIIIIKUUUDIIIIIIIIIIIZUUUUIIIIIIIIIIIIKUUUUUSIIIIIIIIIICUUUUUUUUIIIIFUUUUUUUDIIIIIIIIIIIDUUUDIIIIUUUUUIIIIIUUUUUUUUUUUUUIIIIIIIIIIIPUUUUUUU",
"UUUUUUUUU 1ayyu9 UUUUUUUUUUUUUUUUUUUUUUUUUUUUUUUUUUUUUUUUGIIIIIIIIJUUUDIIIIIIIIIIIZUUUUUIIIIIIIIIIHUUUUUUAIIIIIIIIICUUUUUUUUUIIIIFUUUUUUUDIIIIIIIIIIIDUUUDIIIIUUUUUFIIIIVUUUUUUUUUUUUCIIIIIIIIIKUUUUUUUU",
"UUUUUUUUU #uyyyro UUUUUUUUUUUUUUUUUUUUUUUUUUUUUUUUUUUUUUUUUHIIIIIPCUUUSIIIIIIIIIIIVUUUUUUGPIIIIILNUUUUUUUUULIIIIIJUUUUUUUUUUUIIIISUUUUUUUSIIIIIIIIIIISUUUSIIIIUUUUUUIIIIHUUUUUUUUUUUUUUKIIIIIPAUUUUUUUUU",
"UUUUUUUUU oeuyyu& UUUUUUUUUUUUUUUUUUUUUUUUUUUUUUUUUUUUUUUUUUUUUUUUUUUUUUUUUUUUUUUUUUUUUUUUUUUUUUUUUUUUUUUUUUUUUUUUUUUUUUUUUUUUUUUUUUUUUUUUUUUUUUUUUUUUUUUUUUUUUUUUUUUUUUUUUUUUUUUUUUUUUUUUUUUUUUUUUUUUUU",
"UUUUUUUUUU 5ayyu3 UUUUUUUUUUUUUUUUUUUUUUUUUUUUUUUUUUUUUUUUUUUUUUUUUUUUUUUUUUUUUUUUUUUUUUUUUUUUUUUUUUUUUUUUUUUUUUUUUUUUUUUUUUUUUUUUUUUUUUUUUUUUUUUUUUUUUUUUUUUUUUUUUUUUUUUUUUUUUUUUUUUUUUUUUUUUUUUUUUUUUU",
"UUUUUUUUUU *uyyueXUUUUUUUUUUUUUUUUUUUUUUUUUUUUUUUUUUUUUUUUUUUUUUUUUUUUUUUUUUUUUUUUUUUUUUUUUUUUUUUUUUUUUUUUUUUUUUUUUUUUUUUUUUUUUUUUUUUUUUUUUUUUUUUUUUUUUUUUUUUUUUUUUUUUUUUUUUUUUUUUUUUUUUUUUUUUUUUUUUUUUU",
"UUUUUUUUUU Oyuyy& UUUUUUUUUUUUUUUUUUUUUUUUUUUUUUUUUUUUUUUUUUUUUUUUUUUUUUUUUUUUUUUUUUUUUUUUUUUUUUUUUUUUUUUUUUUUUUUUUUUUUUUUUUUUUUUUUUUUUUUUUUUUUUUUUUUUUUUUUUUUUUUUUUUUUUUUUUUUUUUUUUUUUUUUUUUUUUUUUUUUUU",
"UUUUUUUUUUUXea0+  UUUUUUUUUUUUUUUUUUUUUUUUUUUUUUUUUUUUUUUUUUUUUUUUUUUUUUUUUUUUUUUUUUUUUUUUUUUUUUUUUUUUUUUUUUUUUUUUUUUUUUUUUUUUUUUUUUUUUUUUUUUUUUUUUUUUUUUUUUUUUUUUUUUUUUUUUUUUUUUUUUUUUUUUUUUUUUUUUUUUUU",
"UUUUUUUUUUU 36o UUUUUUUUUUUUUUUUUUUUUUUUUUUUUUUUUUUUUUUUUUUUUUUUUUUUUUUUUUUUUUUUUUUUUUUUUUUUUUUUUUUUUUUUUUUUUUUUUUUUUUUUUUUUUUUUUUUUUUUUUUUUUUUUUUUUUUUUUUUUUUUUUUUUUUUUUUUUUUUUUUUUUUUUUUUUUUUUUUUUUUUU",
"UUUUUUUUUUU X  UUUUUUUUUUUUUUUUUUUUUUUUUUUUUUUUUUUUUUUUUUUUUUUUUUUUUUUUUUUUUUUUUUUUUUUUUUUUUUUUUUUUUUUUUUUUUUUUUUUUUUUUUUUUUUUUUUUUUUUUUUUUUUUUUUUUUUUUUUUUUUUUUUUUUUUUUUUUUUUUUUUUUUUUUUUUUUUUUUUUUUUUU",
"UUUUUUUUUUUU  UUUUUUUUUUUUUUUUUUUUUUUUUUUUUUUUUUUUUUUUUUUUUUUUUUUUUUUUUUUUUUUUUUUUUUUUUUUUUUUUUUUUUUUUUUUUUUUUUUUUUUUUUUUUUUUUUUUUUUUUUUUUUUUUUUUUUUUUUUUUUUUUUUUUUUUUUUUUUUUUUUUUUUUUUUUUUUUUUUUUUUUUUU"
};
