/* XPM */
static char *result[] = {
/* columns rows colors chars-per-pixel */
"200 50 70 1 ",
"  c #010000",
". c #0C0201",
"X c #140303",
"o c #1C0503",
"O c #230505",
"+ c #2D0706",
"@ c #2B0806",
"# c #330706",
"$ c #390606",
"% c #320806",
"& c #3A0907",
"* c #360A08",
"= c #3B0A09",
"- c #440A07",
"; c #430909",
": c #4B0A09",
"> c #510708",
", c #540D0B",
"< c #590E0B",
"1 c #5E100C",
"2 c #640D0C",
"3 c #6B0E0C",
"4 c #710E0C",
"5 c #7C0F0E",
"6 c #6C100D",
"7 c #74110E",
"8 c #7C100F",
"9 c #7E1110",
"0 c #800E0E",
"q c #8A0F0F",
"w c #82110F",
"e c #92110F",
"r c #990F10",
"t c #861311",
"y c #8C1411",
"u c #941311",
"i c #9C1512",
"p c #A31512",
"a c #AB1614",
"s c #AB1813",
"d c #B51714",
"f c #B51815",
"g c #BD1916",
"h c #C41B16",
"j c #CD1C17",
"k c #C51B18",
"l c #CC1D18",
"z c #D41D17",
"x c #DA1D17",
"c c #D31C18",
"v c #D91E18",
"b c #DF2018",
"n c #E42019",
"m c #848484",
"M c #8C8C8C",
"N c #939393",
"B c #9C9C9C",
"V c #A4A4A4",
"C c #AFAFAF",
"Z c #B4B4B4",
"A c #BCBCBC",
"S c #C2C2C2",
"D c #CBCBCB",
"F c #D3D3D3",
"G c #DBDBDB",
"H c #E3E3E3",
"J c #ECECEC",
"K c #F3F3F3",
"L c #FFFFFF",
"P c None",
/* pixels */
"PPPPPPPPPPPPPPPPPPPPPPPPPPPPPPPPPPPPPPPPPPPPPPPPPPPPPPPPPPPPPPPPPPPPPPPPPPPPPPPPPPPPPPPPPPPPPPPPPPPPPPPPPPPPPPPPPPPPPPPPPPPPPPPPPPPPPPPPPPPPPPPPPPPPPPPPPPPPPPPPPPPPPPPPPPPPPPPPPPPPPPPPPPPPPPPPPPPPPPPP",
"PPPPPPPPPPPPPPPPPPPPPPPPPPPPPPPPPPPPPPPPPPPPPPPPPPPPPPPPPPPPPPPPPPPPPPPPPPPPPPPPPPPPPPPPPPPPPPPPPPPPPPPPPPPPPPPPPPPPPPPPPPPPPPPPPPPPPPPPPPPPPPPPPPPPPPPPPPPPPPPPPPPPPPPPPPPPPPPPPPPPPPPPPPPPPPPPPPPPPPPP",
"PPPPPPPPPPPPPPPPPPPPPPPPPPPPPPPPPPPPPPPPPPPPPPPPPPPPPPPPPPPPPPPPPPPPPPPPPPPPPPPPPPPPPPPPPPPPPPPPPPPPPPPPPPPPPPPPPPPPPPPPPPPPPPPPPPPPPPPPPPPPPPPPPPPPPPPPPPPPPPPPPPPPPPPPPPPPPPPPPPPPPPPPPPPPPPPPPPPPPPPP",
"PPPPPPPPPPPPPPPPPPPPPPPPPPPPPPPPPPPPPPPPPPPPPPPPPPPPPPPPPPPPPPPPPPPPPPPPPPPPPPPPPPPPPPPPPPPPPPPPPPPPPPPPPPPPPPPPPPPPPPPPPPPPPPPPPPPPPPPPPPPPPPPPPPPPPPPPPPPPPPPPPPPPPPPPPPPPPPPPPPPPPPPPPPPPPPPPPPPPPPPP",
"PP.:1<<<<<<<<<<<<<<<<<<<<<1<<<<<<<,<1,,,,,<<P;-;o   PPPPPPPPPPPPPPPPPPPPPPPPPPPPPPPPPPPPPPPPPPPPPPPPPPPPPPPPPPPPPPPPPPPPPPPPPPPPPPPPPPPPPPPPPPPPPPPPPPPPPPPPPPPPPPPPPPPPPPPPPPPPPPPPPPPPPPPPPPPPPPPPPPPP",
"P osbczcccccccczzbzzccczcczcccccbcblcccccvccdp9$.  PPPPPPPPPPPPPPPPPPPPPPPPPPPPPPPPPPPPPPPPPPPPPPPPPPPPPPPPPPPPPPPPPPPPPPPPPPPPPPPPPPPPPPPPPPPPPPPPPPPPPPPPPPPPPPPPPPPPPPPPPPPPPPPPPPPPPPPPPPPPPPPPPPPPP",
"P Xpvllllllllllcgfgjlllllllllzcgsshlcllllllar2X  PPPPPPPPPPPPPPPPPPPPPPPPPPPPPPPPPPPPPPPPPPPPPPPPPPPPPPPPPPPPPPPPPPPPPPPPPPPPPPPPPPPPPPPPPPPPPPPPPPPPPPPPPPPPPPPPPPPPPPPPPPPPPPPPPPPPPPPPPPPPPPPPPPPPPPP",
"PP.7xlllllllclu-oX.2lzjllllljp,X..o:ujjlllfi<X PPPPPPPPPPPPPPPPPPPPPPPPPPPPPPPPPPPPPPPPPPPPPPPPPPPPPPPPPPPPPPPPPPPPPPPPPPPPPPPPPPPPPPPPPPPPPPPPPPPPPPPPPPPPPPPPPPPPPPPPPPPPPPPPPPPPPPPPPPPPPPPPPPPPPPPPP",
"PP Oszjlllljh<.    PPifhjlcg3.      .,gclja3o PPPPPPPPPPPPPPPPPPPPPPPPPPPPPPPPPPPPPPPPPPPPPPPPPPPPPPPPPPPPPPPPPPPPPPPPPPPPPPPPPPPPPPPPPPPPPPPPPPPPPPPPPPPPPPPPPPPPPPPPPPPPPPPPPPPPPPPPPPPPPPPPPPPPPPPPPP",
"PPP X2hzlljj<  PPPPPPP.:hjg<  PPPPPP  -gchr+ PPPPPPPPPPPPPPZSSSSSABPPPPPPPPPPPZSSSSSZNPPPPPPPPZSSSSSSSSSSPPPPPPPPNSSSPPPPPPPPZSSSSSABPPPPPPPPPSSSSPPPPPPASSVPPPPPPSSSVPPPPPNSSSPPPPPSSSSPPPPPPPSSSAMPPPP",
"PPPP  *sbkbiX PPPPPPPP  wcq. PPPPPPPP  1ch2. PPPPPPPPPPPPPPLLLLLLLLLLMPPPPPPPPKLLLLLLLLKPPPPPPKLLLLLLLLLLPPPPPPPPKLLLPPPPPPPPKLLLLLLLLLMPPPPPPLLLLPPPPPPLLLLPPPPPALLLFPPPPPKLLLPPPPPLLLLHPPPPPPLLLLVPPPP",
"PPPPP  *sbk2 PPPPPPPPPP &h: PPPPPPPPPP Oij& PPPP PPPPPPPPPPKLLLLLLLLLLGPPPPPPPLLLLLLLLLLLPPPPPLLLLLLLLLLLPPPPPPPPLLLLNPPPPPPPLLLLLLLLLLLGPPPPPKLLLBPPPPPLLLLPPPPPGLLLVPPPPPLLLLNPPPPSLLLLPPPPPNLLLLPPPPP",
"PPPPPPP :ca# PPPPPPPPPP Oso PPPPPPPPPPP <dO PPP   PPPPPPPPPLLLLLLLLLLLLAPPPPPPLLLLLLLLLLLGPPPPLLLLLLLLLLLPPPPPPPPLLLLSPPPPPPPKLLLLLLLLLLLAPPPPDLLLSPPPPPLLLLPPPPPLLLLPPPPPPLLLLDPPPPPLLLLmPPPPFLLLLPPPPP",
"PPPPPPP OipXPPPPPPPPPPP oi. PPPPPPPPPPP =uo PPP . PPPPPPPPPLLLLFPZKLLLLLPPPPPPKLLLDPBLLLLLPPPPKLLLFPPPPPPPPPPPPPBLLLLLPPPPPPPLLLLFPZKLLLLLPPPPBLLLJPPPPVLLLLPPPPPLLLLPPPPPBLLLLKPPPPPLLLLFPPPPLLLLZPPPPP",
"PPPPPPPP.2uXPPPPPPPPPPP ou. PPPPPPPPPPP +8XPPP .2O PPPPPPPPKLLLCPPPKLLLLDPPPPPLLLLCPPPLLLLBPPPKLLLCPPPPPPPPPPPPPFLLLLLPPPPPPPKLLLCPPPKLLLLDPPPPLLLLPPPPDLLLLVPPPPLLLLPPPPPFLLLLLPPPPPCLLLLPPPPLLLLPPPPPP",
"PPP  PPP ;9XPPPPPPPPPPP ou. PPPPPPPPPPP @3XPPP +u:.PPPPPPPPLLLLCPPPPLLLLLPPPPPLLLLCPPPKLLLSPPPLLLLZPPPPPPPPPPPPPLLLLLLPPPPPPPLLLLCPPPPLLLLLPPPPLLLLPPPPKLLLLDPPPPLLLKPPPPPLLLLLLPPPPPPLLLLPPPMLLLLPPPPPP",
"PP    PP #4XPPPPPPPPPPP ou. PPPPPPPPPPP @3XPPP ,r4X PPPPPPPLLLLCPPPPCLLLLPPPPPKLLLCPPPSLLLHPPPLLLLCPPPPPPPPPPPPPLLLLLLVPPPPPPKLLLCPPPPCLLLLPPPPLLLLPPPPLLLLLKPPPBLLLSPPPPPLLLLLLVPPPPPJLLLAPPDLLLDPPPPPP",
"PP @# PP #4XPPPPPPPPPPP Oi. PPPPPPPPPPP @3XPPP #0,.PPPPPPPPKLLLCPPPPPLLLLVPPPPLLLLCPPPCLLLKPPPKLLLCPPPPPPPPPPPPPLLLLLLGPPPPPPLLLLZPPPPPLLLLVPPPJLLLPPPPLLLLLLPPPSLLLBPPPPPLLLLLLGPPPPPNLLLLPPLLLLPPPPPPP",
"PPX9y PP %4XPPPPPPPPPPP +sX PPPPPPPPPPPP*9XPPP  .  PPPPPPPPLLLLCPPPPPLLLLDPPPPLLLLCPPPCLLLHPPPLLLLZPPPPPPPPPPPPZLLLGLLLPPPPPPKLLLCPPPPPLLLLDPPPALLLVPPPLLLLLLPPPHLLLPPPPPZLLLGLLLPPPPPPLLLLPPLLLLPPPPPPP",
"P Xip  P %4XPPPPPPPPPPP -gO PPPPPPPPPPPPtp.PPPPP  PPPPPPPPPLLLLCPPPPPLLLLKPPPPKLLLZPPPDLLLDPPPLLLLZPPPPPPPPPPPPJLLKBLLLPPPPPPLLLLCPPPPPLLLLKPPPNLLLDPPVLLLLLLPPPLLLLPPPPPJLLKVLLLPPPPPPGLLLBPLLLGPPPPPPP",
"PP oo PP %4XPPPPPPPPPPP 3j; PPPPPPPPPPPP<uXPPPPPPPPPPPPPPPPLLLLZPPPPPHLLLLPPPPLLLLZPPPLLLLCPPPLLLLCPPPPPPPPPPPPLLLFPLLLPPPPPPKLLLCPPPPPHLLLLPPPPLLLJPPDLLLLLLBPPLLLLPPPPPLLLFPLLLPPPPPPPLLLGZLLLNPPPPPPP",
"PPP  PPP +4XPPPPPPPPPP  pc5 PPPPPPPPPPP +3XPPPPPPPPPPPPPPPPKLLLCPPPPPDLLLLPPPPKLLLCPPVLLLLPPPPKLLLZPPPPPPPPPPPPLLLZPLLLZPPPPPLLLLZPPPPPDLLLLPPPPLLLLPPKLLGLLLSPPLLLHPPPPPLLLZPLLLZPPPPPPLLLLKLLLPPPPPPPP",
"PPPPPPPP %4XPPPPPPPPPP Xgbp. PPPPPPPPPPP2uXPPPPPPPPPPPPPPPPLLLLCPPPPPALLLLPPPPKLLLKNHLLLLLPPPPKLLLKSSSSSPPPPPPMLLLmPLLLJPPPPPKLLLCPPPPPALLLLPPPPLLLLPPLLLZHLLJPPLLLZPPPPMLLLmPLLLJPPPPPPALLLLLLKPPPPPPPP",
"PPPPPPPP #4XPPPPPPPPPP  6s< PPPPPPPPPPPP7i.PPPPPPPPPPPPPPPPKLLLCPPPPPZLLLLPPPPLLLLLLLLLLLPPPPPLLLLLLLLLLVPPPPPDLLLPPLLLLPPPPPLLLLZPPPPPZLLLLPPPPHLLLPPLLLMSLLLPVLLLMPPPPDLLLPPLLLLPPPPPPPLLLLLLVPPPPPPPP",
"PPPPPPPP +8%PPPPPPPPPPP     PPPPPPPPPPP @4XPPPPPPPPPPPPPPPPLLLLCPPPPPCLLLLPPPPLLLLLLLLLJPPPPPPLLLLLLLLLLCPPPPPLLLLPPJLLLPPPPPLLLLCPPPPPCLLLLPPPPZLLLMPLLLPVLLLPALLLPPPPPLLLLPPJLLLPPPPPPPLLLLLLPPPPPPPPP",
"PPPPPPPP +i2PPPPPPPPPPPPP PPPPPPPPPPPPP @3XPPPPPPPPPPPPPPPPLLLLCPPPPPZLLLLPPPPKLLLLLLLLPPPPPPPKLLLLLLLLLVPPPPPLLLLPPDLLLNPPPPLLLLZPPPPPZLLLLPPPPMLLLCMLLLPPLLLPGLLLPPPPPLLLLPPDLLLNPPPPPPVLLLLLPPPPPPPPP",
"PPPPPPPP +0+PPPPPPPPPPPPPPPPPPPPPPPPPPP @3XPPPPPPPPPPPPPPPPKLLLCPPPPPZLLLLPPPPKLLLLLLLLPPPPPPPLLLLFPPPPPPPPPPPLLLFPPBLLLDPPPPLLLLCPPPPPZLLLLPPPPPLLLDZLLLPPLLLPLLLLPPPPPLLLFPPVLLLDPPPPPPPLLLLAPPPPPPPPP",
"PPPPPPPP *4XPPPPPPPPPPPPPPPPPPPPPPPPPPP @3XPPPPPPPPPPPPPPPPLLLLCPPPPPALLLLPPPPLLLLSLLLLFPPPPPPKLLLCPPPPPPPPPPVLLLVPPPLLLKPPPPKLLLCPPPPPALLLLPPPPPLLLJDLLKPPLLLALLLFPPPPVLLLVPPPLLLLPPPPPPPLLLLNPPPPPPPPP",
"PPPPPPPP =tOPPPPPPPPPPPPPPPPPPPPPPPPPPP @3XPPPPPPPPPPPPPPPPKLLLCPPPPPFLLLLPPPPLLLLCZLLLLPPPPPPKLLLCPPPPPPPPPPGLLLPPPPLLLLPPPPKLLLCPPPPPDLLLLPPPPPLLLLKLLDPPLLLJLLLVPPPPGLLLPPPPLLLLPPPPPPPLLLLNPPPPPPPPP",
"PPPPPPPP ,p# PPPPPPPPPPPPPPPPPP PPPPPPP @2XPPPPPPPPPPPPPPPPLLLLCPPPPPHLLLLPPPPKLLLCPLLLLBPPPPPLLLLCPPPPPPPPPPLLLLPPPPLLLLPPPPLLLLZPPPPPJLLLLPPPPPFLLLLLLBPPGLLLLLLPPPPPLLLLPPPPLLLLPPPPPPPLLLLNPPPPPPPPP",
"PPPPPPPP.7k: PPPPPPPPPPPPPPPPP   PPPPPP @3XPPPPPPPPPPPPPPPPKLLLCPPPPPLLLLHPPPPLLLLCPJLLLJPPPPPLLLLZPPPPPPPPPPLLLLZVBBLLLLVPPPKLLLCPPPPPLLLLHPPPPPCLLLLLLPPPZLLLLLLPPPPPLLLLZBVBLLLLVPPPPPPLLLLNPPPPPPPPP",
"PPPPPPP Oix8 PPPPPPPPPPPPPPPPP o PPPPPP @6XPPPPPPPPPPPPPPPPLLLLCPPPPPLLLLZPPPPLLLLZPNLLLLPPPPPKLLLCPPPPPPPPPmLLLLLLLLLLLLGPPPLLLLCPPPPPLLLLZPPPPPPLLLLLLPPPMLLLLLLPPPPmLLLLLLLLLLLLGPPPPPPLLLLNPPPPPPPPP",
"PPPPPPP @gxe.PPPPPPPPPPPPPPPP oiX PPPPP @3XPPPPPPPPPPPPPPPPLLLLZPPPPmLLLLMPPPPLLLLCPPLLLLAPPPPLLLLCPPPPPPPPPALLLLLLLLLLLLLPPPLLLLCPPPPmLLLLMPPPPPPLLLLLLPPPPLLLLLKPPPPALLLLLLLLLLLLLPPPPPPLLLLNPPPPPPPPP",
"PPPPPPP X7g< PPPPPPPPPPPPPPPP :v- PPPPP @3XPPPPPPPPPPPPPPPPKLLLCPPPPHLLLLPPPPPKLLLZPPFLLLLPPPPKLLLZPPPPPPPPPKLLLLLLLLLLLLLPPPLLLLCPPPPHLLLLPPPPPPPLLLLLJPPPPLLLLLSPPPPKLLLLLLLLLLLLLPPPPPPLLLLNPPPPPPPPP",
"PPPPPPPP     PPPPPPPPPPPPPPPP o6X PPPPP @3XPPPPPPPPPPPPPPPPLLLLCPPPFLLLLKPPPPPKLLLCPPPLLLLPPPPKLLLCPPPPPPPPPLLLLPPPPPPLLLLPPPLLLLZPPPFLLLLKPPPPPPPKLLLLSPPPPLLLLLBPPPPLLLLPPPPPPLLLLPPPPPPLLLLNPPPPPPPPP",
"PPPPPPPPP  PPPPPPPPPPPPPPPPPPP   PPPPPP @7XPPPPPPPPPPPPPPPPKLLLHPBHLLLLLNPPPPPLLLLCPPPLLLLGPPPLLLLZPPPPPPPPPLLLLPPPPPPJLLLZPPKLLLHPNHLLLLLNPPPPPPPFLLLLBPPPPHLLLLPPPPPLLLLPPPPPPJLLLZPPPPPLLLLNPPPPPPPPP",
"PPPPPPPPPPPPPPPPPPPPPPPPPPPPPPPPPPPPPPP *yo PPPPPPPPPPPPPPPLLLLLLLLLLLLJPPPPPPLLLLCPPPZLLLLPPPLLLLLLLLLLLPPBLLLKPPPPPPSLLLJPPKLLLLLLLLLLLJPPPPPPPPVLLLLPPPPPZLLLLPPPPBLLLKPPPPPPSLLLJPPPPPLLLLNPPPPPPPPP",
"PPPPPPPPPPPPPPPPPPPPPPPPPPPPPPPPPPPPPPP :aO PPPPPPPPPPPPPPPLLLLLLLLLLLLPPPPPPPKLLLZPPPPLLLLBPPKLLLLLLLLLLPPFLLLSPPPPPPMLLLLPPLLLLLLLLLLLLPPPPPPPPPPLLLLPPPPPMLLLLPPPPFLLLSPPPPPPMLLLLPPPPPLLLLNPPPPPPPPP",
"PPPPPPPPPPPPPPPPPPPPPPPPPPPPPPPPPPPPPPP.2h= PPPPPPPPPPPPPPPLLLLLLLLLLGPPPPPPPPLLLLCPPPPJLLLKPPLLLLLLLLLLLPPLLLLMPPPPPPPLLLLPPLLLLLLLLLLGPPPPPPPPPPPLLLLPPPPPPLLLHPPPPLLLLMPPPPPPPLLLLPPPPPLLLLNPPPPPPPPP",
"PPPPPPPPPPPPPPPPPP  PPPPPPPPPPPPPPPPPP oux< PPPPPPPPPPPPPPPJLLLKJGZMPPPPPPPPPPJLLLVPPPPNLLLLPPJLLLLLLLLLLPPLLLLPPPPPPPPLLLLPPJLLLLJGZMPPPPPPPPPPPPPLLLJPPPPPPLLLZPPPPLLLLPPPPPPPPLLLLPPPPPLLLLMPPPPPPPPP",
"PPPPPPPPPPPPPPPPPP  PPPPPPPPPPPPPPPPPP Opn3.PPPPPPPPPPPPPPPPPPPPPPPPPPPPPPPPPPPPPPPPPPPPPPPPPPPPPPPPPPPPPPPPPPPPPPPPPPPPPPPPPPPPPPPPPPPPPPPPPPPPPPPPPPPPPPPPPPPPPPPPPPPPPPPPPPPPPPPPPPPPPPPPPPPPPPPPPPPP",
"PPPPPPPPPPPPPPPPP .  PPPPPPPPPPPPPPPPPP.:u# PPPPPPPPPPPPPPPPPPPPPPPPPPPPPPPPPPPPPPPPPPPPPPPPPPPPPPPPPPPPPPPPPPPPPPPPPPPPPPPPPPPPPPPPPPPPPPPPPPPPPPPPPPPPPPPPPPPPPPPPPPPPPPPPPPPPPPPPPPPPPPPPPPPPPPPPPPPP",
"PPPPPPPPPPPPPPPPP ,$ PPPPPPPPPPPPPPPPPP     PPPPPPPPPPPPPPPPPPPPPPPPPPPPPPPPPPPPPPPPPPPPPPPPPPPPPPPPPPPPPPPPPPPPPPPPPPPPPPPPPPPPPPPPPPPPPPPPPPPPPPPPPPPPPPPPPPPPPPPPPPPPPPPPPPPPPPPPPPPPPPPPPPPPPPPPPPPP",
"PPPPPPPPPPPPPPPP .53XPPPPPPPPPPPPPPPPPPPPPPPPPPPPPPPPPPPPPPPPPPPPPPPPPPPPPPPPPPPPPPPPPPPPPPPPPPPPPPPPPPPPPPPPPPPPPPPPPPPPPPPPPPPPPPPPPPPPPPPPPPPPPPPPPPPPPPPPPPPPPPPPPPPPPPPPPPPPPPPPPPPPPPPPPPPPPPPPPPP",
"PPPPPPPPPPPPPPPP  :$.PPPPPPPPPPPPPPPPPPPPPPPPPPPPPPPPPPPPPPPPPPPPPPPPPPPPPPPPPPPPPPPPPPPPPPPPPPPPPPPPPPPPPPPPPPPPPPPPPPPPPPPPPPPPPPPPPPPPPPPPPPPPPPPPPPPPPPPPPPPPPPPPPPPPPPPPPPPPPPPPPPPPPPPPPPPPPPPPPPP",
"PPPPPPPPPPPPPPPPP    PPPPPPPPPPPPPPPPPPPPPPPPPPPPPPPPPPPPPPPPPPPPPPPPPPPPPPPPPPPPPPPPPPPPPPPPPPPPPPPPPPPPPPPPPPPPPPPPPPPPPPPPPPPPPPPPPPPPPPPPPPPPPPPPPPPPPPPPPPPPPPPPPPPPPPPPPPPPPPPPPPPPPPPPPPPPPPPPPPP",
"PPPPPPPPPPPPPPPPPPPPPPPPPPPPPPPPPPPPPPPPPPPPPPPPPPPPPPPPPPPPPPPPPPPPPPPPPPPPPPPPPPPPPPPPPPPPPPPPPPPPPPPPPPPPPPPPPPPPPPPPPPPPPPPPPPPPPPPPPPPPPPPPPPPPPPPPPPPPPPPPPPPPPPPPPPPPPPPPPPPPPPPPPPPPPPPPPPPPPPPP",
"PPPPPPPPPPPPPPPPPPPPPPPPPPPPPPPPPPPPPPPPPPPPPPPPPPPPPPPPPPPPPPPPPPPPPPPPPPPPPPPPPPPPPPPPPPPPPPPPPPPPPPPPPPPPPPPPPPPPPPPPPPPPPPPPPPPPPPPPPPPPPPPPPPPPPPPPPPPPPPPPPPPPPPPPPPPPPPPPPPPPPPPPPPPPPPPPPPPPPPPP",
"PPPPPPPPPPPPPPPPPPPPPPPPPPPPPPPPPPPPPPPPPPPPPPPPPPPPPPPPPPPPPPPPPPPPPPPPPPPPPPPPPPPPPPPPPPPPPPPPPPPPPPPPPPPPPPPPPPPPPPPPPPPPPPPPPPPPPPPPPPPPPPPPPPPPPPPPPPPPPPPPPPPPPPPPPPPPPPPPPPPPPPPPPPPPPPPPPPPPPPPP",
"PPPPPPPPPPPPPPPPPPPPPPPPPPPPPPPPPPPPPPPPPPPPPPPPPPPPPPPPPPPPPPPPPPPPPPPPPPPPPPPPPPPPPPPPPPPPPPPPPPPPPPPPPPPPPPPPPPPPPPPPPPPPPPPPPPPPPPPPPPPPPPPPPPPPPPPPPPPPPPPPPPPPPPPPPPPPPPPPPPPPPPPPPPPPPPPPPPPPPPPP"
};
