/* XPM */
static char *result[] = {
/* columns rows colors chars-per-pixel */
"200 50 71 1 ",
"  c #00D462",
". c #00D46E",
"X c #00D472",
"o c #00D47C",
"O c #FFF155",
"+ c #FFF15A",
"@ c #FFF164",
"# c #FFF169",
"$ c #FFF174",
"% c #FFF179",
"& c #00D482",
"* c #00D48C",
"= c #00D492",
"- c #00D49D",
"; c #00D5A1",
": c #00D4AD",
"> c #00D4B2",
", c #00D4B9",
"< c #00D4C4",
"1 c #00D4CB",
"2 c #00D4D2",
"3 c #00D4DD",
"4 c #00D4E4",
"5 c #00D4EA",
"6 c #00D4F5",
"7 c #00D4FF",
"8 c #5EF2FF",
"9 c #66F1FF",
"0 c #6FF2FF",
"q c #72F1FF",
"w c #79F1FF",
"e c #FFF183",
"r c #FFF189",
"t c #FFF194",
"y c #FFF19C",
"u c #FFF1A2",
"i c #FBF1AB",
"p c #FBF1B3",
"a c #FCF1BC",
"s c #80F2FF",
"d c #8EF1FF",
"f c #94F1FF",
"g c #9DF1FF",
"h c #ABF1F6",
"j c #A1F1FF",
"k c #AAF1FC",
"l c #B3F1F3",
"z c #B9F1F1",
"x c #B0F1FF",
"c c #BFF0FF",
"v c #FBF1C3",
"b c #FAF1CC",
"n c #FAF1D3",
"m c #F9F1DB",
"M c #C2F1F2",
"N c #CBF1F4",
"B c #C7F1FF",
"V c #CCF1FF",
"C c #D4F1F2",
"Z c #DAF1F2",
"A c #DAF1FF",
"S c #FCF1E3",
"D c #F6F1EC",
"F c #F9F1EC",
"G c #E3F1F3",
"H c #EBF1F1",
"J c #E2F1FE",
"K c #EAF2FA",
"L c #F2F1F2",
"P c #F8F1F1",
"I c None",
/* pixels */
"IIIIIIIIIIIIIIIIIIIIIIIIIIIIIIIIIIIIIIIIIIIIIIIIIIIIIIIIIIIIIIIIIIIIIIIIIIIIIIIIIIIIIIIIIIIIIIIIIIIIIIIIIIIIIIIIIIIIIIIIIIIIIIIIIIIIIIIIIIIIIIIIIIIIIIIIIIIIIIIIIIIIIIIIIIIIIIIIIIIIIIIIIIIIIIIIIIIIIIII",
"IIIIIIIIIIIIIIIIIIIIIIIIIIIIIIIIIIIIIIIIIIIIIIIIIIIIIIIIIIIIIIIIIIIIIIIIIIIIIIIIIIIIIIIIIIIIIIIIIIIIIIIIIIIIIIIIIIIIIIIIIIIIIIIIIIIIIIIIIIIIIIIIIIIIIIIIIIIIIIIIIIIIIIIIIIIIIIIIIIIIIIIIIIIIIIIIIIIIIIII",
"IIIIIIIIIIIIIIIIIIIIIIIIIIIIIIIIIIIIIIIIIIIIIIIIIIIIIIIIIIIIIIIIIIIIIIIIIIIIIIIIIIIIIIIIIIIIIIIIIIIIIIIIIIIIIIIIIIIIIIIIIIIIIIIIIIIIIIIIIIIIIIIIIIIIIIIIIIIIIIIIIIIIIIIIIIIIIIIIIIIIIIIIIIIIIIIIIIIIIIII",
"IIIIIIIIIIIIIIIIIIIIIIIIIIIIIIIIIIIIIIIIIIIIIIIIIIIIIIIIIIIIIIIIIIIIIIIIIIIIIIIIIIIIIIIIIIIIIIIIIIIIIIIIIIIIIIIIIIIIIIIIIIIIIIIIIIIIIIIIIIIIIIIIIIIIIIIIIIIIIIIIIIIIIIIIIIIIIIIIIIIIIIIIIIIIIIIIIIIIIIII",
"IIIIIIIIIIIIIIIIIIIIIIIIIIIIIIIIIIIIIIIIIIIIIIIIIIIIIIIIIIIIIIIIIIIIIIIIIIIIIIIIIIIIIIIIIIIIIIIIIIIIIIIIIIIIIIIIIIIIIIIIIIIIIIIIIIIIIIIIIIIIIIIIIIIIIIIIIIIIIIIIIIIIIIIIIIIIIIIIIIIIIIIIIIIIIIIIIIIIIIII",
"IIIIIIIIIIIIIIIIIIIIIIIIIIIIIIIIIIIIIIIIIIIIIIIIIIIIIIIIIIIIIIIIIIIIIIIIIIIIIIIIIIIIIIIIIIIIIIIIIIIIIIIIIIIIIIIIIIIIIIIIIIIIIIIIIIIIIIIIIIIIIIIIIIIIIIIIIIIIIIIIIIIIIIIIIIIIIIIIIIIIIIIIIIIIIIIIIIIIIIII",
"IIIIIIIIIIIIIIIIIIIIIIIIIIIIIIIIIIIIIIIIIIIIIIIIIIIIIIIIIIIIIIIIIIIIIIIIIIIIIIIIIIIIIIIIIIIIIIIIIIIIIIIIIIIIIIIIIIIIIIIIIIIIIIIIIIIIIIIIIIIIIIIIIIIIIIIIIIIIIIIIIIIIIIIIIIIIIIIIIIIIIIIIIIIIIIIIIIIIIIII",
"IIIIIIIIIIIIIIIIIIIIIIIIIIIIIIIIIIIIIIIIIIIIIIIIIIIIIIIIIIIIIIIIIIIIIIIIIIIIIIIIIIIIIIIIIIIIIIIIIIIIIIIIIIIIIIIIIIIIIIIIIIIIIIIIIIIIIIIIIIIIIIIIIIIIIIIIIIIIIIIIIIIIIIIIIIIIIIIIIIIIIIIIIIIIIIIIIIIIIIII",
"IIIIIIIIIIIIIIIIIIIIIIIIIIIIIIIIIIIIIIIIIIIIIIIIIIIIIIIIIIIIIIIIIIIIIIIIIIIIIIIIIIIIIIIIIIIIIIIIIIIIIIIIIIIIIIIIIIIIIIIIIIIIIIIIIIIIIIIIIIIIIIIIIIIIIIIIIIIIIIIIIIIIIIIIIIIIIIIIIIIIIIIIIIIIIIIIIIIIIIII",
"IIIIIIIIIIIIIIIIIIIIIIIIIIIIIIIIIIIIIIIIIIIIIIIIIIIIIIIIIIIIIIIIIIIIIIIIIIIIIIIIIIIIIIIIIIIIIIIIIIIIIIIIIIIIIIIIIIIIIIIIIIIIIIIIIIIIIIIIIIIIIIIIIIIIIIIIIIIIIIIIIIIIIIIIIIIIIIIIIIIIIIIIIIIIIIIIIIIIIIII",
"IIIIIIIIIIIIIIIIIIIIIIIIIIIIIIIIIIIIIIIIIIIIIIIIIIIIIIIIIIIIIIIIIIIIIIIIIIIIIIIIIIIIIIIIIIIIIIIIIIIIIIIIIIIIIIIIIIIIIIIIIIIIIIIIIIIIIIIIIIIIIIIIIIIIIIIIIIIIIIIIIIIIIIIIIIIIIIIIIIIIIIIIIIIIIIIIIIIIIIII",
"IIIIIIIIIIIIIIIIIIIIIIIIIIIIIIIIIIIIIIIIIIIIIIIIIIIIIIIIIIIIIIIIIIIIIIIIIIIIIIIIIIIIIIIIIIIIIIIIIIIIIIIIIIIIIIIIIIIIIIIIIIIIIIIIIIIIIIIIIIIIIIIIIIIIIIIIIIIIIIIIIIIIIIIIIIIIIIIIIIIIIIIIIIIIIIIIIIIIIIII",
"IIIIIIIIIIIIIIIIIIIIIIIIIIIIIIIIIIIIIIIIIIIIIIIIIIIIIIIIIIIIIIIIIIIIIIIIIIIIIIIIIIIIIIIIIIIIIIIIIIIIIIIIIIIIIIIIIIIIIIIIIIIIIIIIIIIIIIIIIIIIIIIIIIIIIIIIIIIIIIIIIIIIIIIIIIIIIIIIIIIIIIIIIIIIIIIIIIIIIIII",
"IIIIIIIIIIIIIIIIIIIIIIIIIIIIIIIIIIIIIIIIIIIIIIIIIIIIIIIIIIIIIIIIIIIIIIIIIIIIIIIIIIIIIIIIIIIIIIIIIIIIIIIIIIIIIIIIIIIIIIIIIIIIIIIIIIIIIIIIIIIIIIIIIIIIIIIIIIIIIIIIIIIIIIIIIIIIIIIIIIIIIIIIIIIIIIIIIIIIIIII",
"IIIIIIIIIIIIIIIIIIIIIIIIIIIIIIIIIIIIIIIIIIIIIIIIIIIIIIIIIIIIIIIIIIIIIIIIIIIIIIIIIIIIIIIIIIIIIIIIIIIIIIIIIIIIIIIIIIIIIIIIIIIIIIIIIIIIIIIIIIIIIIIIIIIIIIIIIIIIIIIIIIIIIIIIIIIIIIIIIIIIIIIIIIIIIIIIIIIIIIII",
"IIIIIIIIIIIIIIIIIIIIIIIIIIIIIIIIIIIIIIIIIIIIIIIIIIIIIIIIIIIIIIIIIIIIIIIIIIIIIIIIIIIIIIIIIIIIIIIIIIIIIIIIIIIIIIIIIIIIIIIIIIIIIIIIIIIIIIIIIIIIIIIIIIIIIIIIIIIIIIIIIIIIIIIIIIIIIIIIIIIIIIIIIIIIIIIIIIIIIIII",
"IIIIIIIIIIIIIIIIIIIIIIIIIIIIIIIIIIIIIIIIIIIIIIIIIIIIIIIIIIIIIIIIIIIIIIIIIIIIIIIIIIIIIIIIIIIIIIIIIIIIIIIIIIIIIIIIIIIIIIIIIIIIIIIIIIIIIIIIIIIIIIIIIIIIIIIIIIIIIIIIIIIIIIIIIIIIIIIIIIIIIIIIIIIIIIIIIIIIIIII",
"IIIIIIIIIIIIIIIIIIIIIIIIIIIIIIIIIIIIIIIIIIIIIIIIIIIIIIIIIIIIIIIIIIIIIIIIIIIIIIIIIIIIIIIIIIIIIIIIIIIIIIIIIIIIIIIIIIIIIIIIIIIIIIIIIIIIIIIIIIIIIIIIIIIIIIIIIIIIIIIIIIIIIIIIIIIIIIIIIIIIIIIIIIIIIIIIIIIIIIII",
"IIIIIIIIIIIIIIIIIIIIIIIIIIIIIIIIIIIIIIIIIIIIIIIIIIIIIIIIIIIIIIIIIIIIIIIIIIIIIIIIIIIIIIIIIIIIIIIIIIIIIIIIIIIIIIIIIIIIIIIIIIIIIIIIIIIIIIIIIIIIIIIIIIIIIIIIIIIIIIIIIIIIIIIIIIIIIIIIIIIIIIIIIIIIIIIIIIIIIIII",
"IIIIIIIIIIIIIIzPPiIIIIIIIIIIIIIIIIIIIIIIIIIIIIIIIIIIIIIIIIZPPtIIIIIIIIIIIIIIIIIIIIIIIIIIIIIIIIIIIIIIIIIIIIIIIIIII777=I777=IIIIIIIIIIIIIIIIIIII777&IIIIIIIIIIIIIII777;IIIIIIIIIIIIIIIIIIIIIIIIIIIIIIIIIII",
"IIIIIIIIIIIIIIHPPtIIIIIIIIIIIIIIIIIIIIIIIIIIIIIIIIIIZPPrIIPPP%IIIIIIIIIIIIIIIIIIIIIIIIIIIIIIIIIIIIIIIIIIIIIIIIIII777=I777=IIIIIIIIIIIIIIIIIIII777&IIIIIIIIIIIIIII777;IIIIIIIIIIIIIIIIIIIIIIIIIIIIIIIIIII",
"IIIIIIIIIIIIIIPPP$IIIIIIIIIIIIIIIIIIIIIIIIIIIIIIIIIIPPP@IIIIIIIIIIIIIIIIIIIIIIIIIIIIIIIIIIIIIIIIIIIIIIIIIIIIIIIII777=I777=IIIIIIIIIIIIIIIIIIII777&IIIIIIIIIIIIIIIIIIIIIIIIIIIIIIIIIIIIIIIIIIIIIIIIIIIIII",
"IIIIIIIIIIIIIsPPPIIIIIIBKPSvIIIIIBKDSpIIIIIVKPFbIIIPPPPDIfPPSIIIBKPSvIIIfPPnIVHnIIIIIIIIIIIIIII77763IIIII7765:III777=I777=III7763IIIIIIIII76<I777&III7763IIIIIIII777;IIII7763IIII777.I7772777II777IIIIII",
"IIIIIIIIIIIIIgPPmIIIIIZPPPPPvIIIGPPPPPyIIIHPPPFPaIwPPPPmIhPPpIIZPPPPPaIIhPPFPPPPtIIIIIIIIIIIII7777775II7777777=II777=I777=I7777777&IIIIII77777777&I7777777&IIIIII777;II7777777&II777XI777*777.I771IIIIII",
"IIIIIIIIIIIIIzPPiIIIIkPPrILPPIIMPPrILPnIICPDIqPPFIIhPPuIIZPPtIxPPrILPPIIZPPyINPPtIIIIIIIIIIIII77<I777*I776I7774II777=I777=I777oI774IIIIII777&I777&I777oI774IIIIII777;II777oI774II777XI777*I77=I77;IIIIII",
"IIIIIIIIIIIIIHPPtIIIIPPPIIPPPIIPPPIIPPmI8PPvIqPPmIIZPPrIIPPP%IPPPIIPPPIIPPP@IHPP%IIIIIPP#IIII777,I777=I775I7777II777=I777=I777 I777IIIIII777 I777&I777 I777IIIIII777;II777 I777II777XI777*I77;777oIIIIII",
"IIIIIIIIIIIIIPPP$IIIsPPmIqPPFIsPPmIqPPpIdPPyIkPPaIIPPP@IqPPPIsPPmIqPPFIqPPFIIPPP+IIII0PPIIIII7777>IIIII775I7777II777=I777=I777 I777.IIIII777 I777&I777 I777XIIIII777;II777 I777.I777XI777*I77<776IIIIIII",
"IIIIIIIIIIIIsPPPIIIIgPFiIfPPvIjPPiIIIIIIIIIBAPPPyIqPPFIIdPPSIgPPiIfPDvIfPPbIqPPDIIIIIfPnIIIIII77775>IIIIII77777II777=I777=I77777777oIIIII777 I777&I77777777oIIIII777;II77777777oI777XI777*II76771IIIIIII",
"IIIIIIIIIIIIgPPmIIIIMPPtIlPPyIMPPtIIIIIIIBLPPPPPeIfPPbIIhPPpIMPPtIlPPyIhPPuIfPPaIIIIIIIIIIIIIII777772III7777777II777=I777=I77777777oIIIII777 I777&I77777777oIIIII777;II77777777oI777.I777*II7777,IIIIIII",
"IIIIIIIIIIIIzPPiIIIILPP$IZPPeIHPP$IhPPOINPPyIPPP+IhPPuIIZPPtILPP$IZPPeIZPPeIzPPyIIIIIIIIIIIIIIII77777=I777=7777II777=I777=I777 IIIIIIIIII777 I777&I777 IIIIIIIIII777;II777 IIIIII777XI777*I776776IIIIIII",
"IIIIIIIIIIIIHPPtIIIIPPPIIPPPOIPPLIIZPSI8PPnIqPPDIIZPPrIIPPP%IPPPIIPPPOIPPP@IGPPeIIIIIIIIIIIIIIIIII777:I776I7777II777=I777=I777 I777oIIIII777 I777&I777 I777oIIIII777;II777 I777oI777XI777*I77<777.IIIIII",
"IIIIIIIIIIIIPDP$IIIwPPmIqPPmIqPPmIIPPuIdPPyIfPPaIIPPP@IqPPPIwPPmIqPPmIqPPDIIPPPOIIIIIIIIIIIIII77>I777>I775I7777II777=I777=I777 I777XIIIII777 I777&I777 I777XIIIII777;II777 I777XI777XI777*I77;777-IIIIII",
"IIIIIIIIIIIsPPPPPyIsPPbIkPPtIqPPnIfPF+IjPPyIMPPyI9PPPIIfPPSIwPPvIkPPtIfPPbIwPPFIIIIIfPnIIIIIII771I777;I776I7777II777=I777=I777&I777IIIIII777&I777&I777&I777IIIIII777;II777&I777II777*I777*I77=I771IIIIII",
"IIIIIIIIIIIgPPPPPeIILPPPPPvIIIHPPPPPrIIjPPPPLPPeIqPPPPIhPPpIIPPPPPPvIIhPPyIfPPaIIIIIhPuIIIIIII7777776II77777777II777=I777=I7777777:IIIIII77777777&I7777777:IIIIII777-II7777777:II77777777=777.I777IIIIII",
"IIIIIIIIIIIzPPPPP+IIIJHFmpIIIIIALFnIIIIIAFpIHPPOIIVLPnIZPPtIIIALFmpIIIZPPrIlPPyIIIIIZPrIIIIIIII77764IIII76>I777II777=I777=III7765,IIIIIIII76<I777&III7765,IIIIIII777-IIII7765,IIII76<I7772777II777*IIIII",
"IIIIIIIIIIIIIIIIIIIIIIIIIIIIIIIIIIIIIIIIIIIIIIIIIIIIIIIIIIIIIIIIIIIIIIIIIIIIIIIIIIIIIIIIIIIIIIIIIIIIIIIIIIIIIIIIIIIIIIIIIIIIIIIIIIIIIIIIIIIIIIIIIIIIIIIIIIIIIIII7777oIIIIIIIIIIIIIIIIIIIIIIIIIIIIIIIIIII",
"IIIIIIIIIIIIIIIIIIIIIIIIIIIIIIIIIIIIIIIIIIIIIIIIIIIIIIIIIIIIIIIIIIIIIIIIIIIIIIIIIIIIIIIIIIIIIIIIIIIIIIIIIIIIIIIIIIIIIIIIIIIIIIIIIIIIIIIIIIIIIIIIIIIIIIIIIIIIIIII776:IIIIIIIIIIIIIIIIIIIIIIIIIIIIIIIIIIII",
"IIIIIIIIIIIIIIIIIIIIIIIIIIIIIIIIIIIIIIIIIIIIIIIIIIIIIIIIIIIIIIIIIIIIIIIIIIIIIIIIIIIIIIIIIIIIIIIIIIIIIIIIIIIIIIIIIIIIIIIIIIIIIIIIIIIIIIIIIIIIIIIIIIIIIIIIIIIIIIIIIIIIIIIIIIIIIIIIIIIIIIIIIIIIIIIIIIIIIIII",
"IIIIIIIIIIIIIIIIIIIIIIIIIIIIIIIIIIIIIIIIIIIIIIIIIIIIIIIIIIIIIIIIIIIIIIIIIIIIIIIIIIIIIIIIIIIIIIIIIIIIIIIIIIIIIIIIIIIIIIIIIIIIIIIIIIIIIIIIIIIIIIIIIIIIIIIIIIIIIIIIIIIIIIIIIIIIIIIIIIIIIIIIIIIIIIIIIIIIIIII",
"IIIIIIIIIIIIIIIIIIIIIIIIIIIIIIIIIIIIIIIIIIIIIIIIIIIIIIIIIIIIIIIIIIIIIIIIIIIIIIIIIIIIIIIIIIIIIIIIIIIIIIIIIIIIIIIIIIIIIIIIIIIIIIIIIIIIIIIIIIIIIIIIIIIIIIIIIIIIIIIIIIIIIIIIIIIIIIIIIIIIIIIIIIIIIIIIIIIIIIII",
"IIIIIIIIIIIIIIIIIIIIIIIIIIIIIIIIIIIIIIIIIIIIIIIIIIIIIIIIIIIIIIIIIIIIIIIIIIIIIIIIIIIIIIIIIIIIIIIIIIIIIIIIIIIIIIIIIIIIIIIIIIIIIIIIIIIIIIIIIIIIIIIIIIIIIIIIIIIIIIIIIIIIIIIIIIIIIIIIIIIIIIIIIIIIIIIIIIIIIIII",
"IIIIIIIIIIIIIIIIIIIIIIIIIIIIIIIIIIIIIIIIIIIIIIIIIIIIIIIIIIIIIIIIIIIIIIIIIIIIIIIIIIIIIIIIIIIIIIIIIIIIIIIIIIIIIIIIIIIIIIIIIIIIIIIIIIIIIIIIIIIIIIIIIIIIIIIIIIIIIIIIIIIIIIIIIIIIIIIIIIIIIIIIIIIIIIIIIIIIIIII",
"IIIIIIIIIIIIIIIIIIIIIIIIIIIIIIIIIIIIIIIIIIIIIIIIIIIIIIIIIIIIIIIIIIIIIIIIIIIIIIIIIIIIIIIIIIIIIIIIIIIIIIIIIIIIIIIIIIIIIIIIIIIIIIIIIIIIIIIIIIIIIIIIIIIIIIIIIIIIIIIIIIIIIIIIIIIIIIIIIIIIIIIIIIIIIIIIIIIIIIII",
"IIIIIIIIIIIIIIIIIIIIIIIIIIIIIIIIIIIIIIIIIIIIIIIIIIIIIIIIIIIIIIIIIIIIIIIIIIIIIIIIIIIIIIIIIIIIIIIIIIIIIIIIIIIIIIIIIIIIIIIIIIIIIIIIIIIIIIIIIIIIIIIIIIIIIIIIIIIIIIIIIIIIIIIIIIIIIIIIIIIIIIIIIIIIIIIIIIIIIIII",
"IIIIIIIIIIIIIIIIIIIIIIIIIIIIIIIIIIIIIIIIIIIIIIIIIIIIIIIIIIIIIIIIIIIIIIIIIIIIIIIIIIIIIIIIIIIIIIIIIIIIIIIIIIIIIIIIIIIIIIIIIIIIIIIIIIIIIIIIIIIIIIIIIIIIIIIIIIIIIIIIIIIIIIIIIIIIIIIIIIIIIIIIIIIIIIIIIIIIIIII",
"IIIIIIIIIIIIIIIIIIIIIIIIIIIIIIIIIIIIIIIIIIIIIIIIIIIIIIIIIIIIIIIIIIIIIIIIIIIIIIIIIIIIIIIIIIIIIIIIIIIIIIIIIIIIIIIIIIIIIIIIIIIIIIIIIIIIIIIIIIIIIIIIIIIIIIIIIIIIIIIIIIIIIIIIIIIIIIIIIIIIIIIIIIIIIIIIIIIIIIII",
"IIIIIIIIIIIIIIIIIIIIIIIIIIIIIIIIIIIIIIIIIIIIIIIIIIIIIIIIIIIIIIIIIIIIIIIIIIIIIIIIIIIIIIIIIIIIIIIIIIIIIIIIIIIIIIIIIIIIIIIIIIIIIIIIIIIIIIIIIIIIIIIIIIIIIIIIIIIIIIIIIIIIIIIIIIIIIIIIIIIIIIIIIIIIIIIIIIIIIIII",
"IIIIIIIIIIIIIIIIIIIIIIIIIIIIIIIIIIIIIIIIIIIIIIIIIIIIIIIIIIIIIIIIIIIIIIIIIIIIIIIIIIIIIIIIIIIIIIIIIIIIIIIIIIIIIIIIIIIIIIIIIIIIIIIIIIIIIIIIIIIIIIIIIIIIIIIIIIIIIIIIIIIIIIIIIIIIIIIIIIIIIIIIIIIIIIIIIIIIIIII",
"IIIIIIIIIIIIIIIIIIIIIIIIIIIIIIIIIIIIIIIIIIIIIIIIIIIIIIIIIIIIIIIIIIIIIIIIIIIIIIIIIIIIIIIIIIIIIIIIIIIIIIIIIIIIIIIIIIIIIIIIIIIIIIIIIIIIIIIIIIIIIIIIIIIIIIIIIIIIIIIIIIIIIIIIIIIIIIIIIIIIIIIIIIIIIIIIIIIIIIII",
"IIIIIIIIIIIIIIIIIIIIIIIIIIIIIIIIIIIIIIIIIIIIIIIIIIIIIIIIIIIIIIIIIIIIIIIIIIIIIIIIIIIIIIIIIIIIIIIIIIIIIIIIIIIIIIIIIIIIIIIIIIIIIIIIIIIIIIIIIIIIIIIIIIIIIIIIIIIIIIIIIIIIIIIIIIIIIIIIIIIIIIIIIIIIIIIIIIIIIIII"
};
