/* XPM */
static char *result[] = {
/* columns rows colors chars-per-pixel */
"200 50 78 1 ",
"  c #1D2F17",
". c #1C2D19",
"X c #193415",
"o c #1F341B",
"O c #1F381C",
"+ c #21351C",
"@ c #233B1E",
"# c #263622",
"$ c #263F21",
"% c #2A3D25",
"& c #22401C",
"* c #264321",
"= c #294522",
"- c #274B22",
"; c #2A4D23",
": c #2D4229",
"> c #31462B",
", c #324A2C",
"< c #2C5224",
"1 c #2E5B26",
"2 c #305726",
"3 c #315D26",
"4 c #315529",
"5 c #325E28",
"6 c #2E6126",
"7 c #326326",
"8 c #336A27",
"9 c #336428",
"0 c #356B29",
"q c #386D2A",
"w c #367227",
"e c #367229",
"r c #39732B",
"t c #3B7B2C",
"y c #3D7830",
"u c #3C812B",
"i c #40892E",
"p c #418230",
"a c #428931",
"s c #4A8F39",
"d c #479132",
"f c #499433",
"g c #4A9B34",
"h c #4D9C38",
"j c #4DA135",
"k c #4DA439",
"l c #50A539",
"z c #53AD3A",
"x c #55B33C",
"c c #56BA3C",
"v c #58BB3D",
"b c #5DC33F",
"n c #5DC641",
"m c #5FCA41",
"M c #61CC42",
"N c #60D343",
"B c #65D945",
"V c #68DE47",
"C c #69E748",
"Z c #70F24A",
"A c #73F94D",
"S c #848484",
"D c #8B8B8B",
"F c #939393",
"G c #9B9B9B",
"H c #A3A3A3",
"J c #AEAEAE",
"K c #B1B1B1",
"L c #BEBEBE",
"P c #C1C1C1",
"I c #CCCCCC",
"U c #D5D5D5",
"Y c gray86",
"T c #E4E4E4",
"R c #EBEBEB",
"E c #F4F4F4",
"W c #FFFFFF",
"Q c None",
/* pixels */
"QQQQQQQQQQQQQQQQQQQQQQQQQ+@Q@@+Q+QQQQQQQQQQQQQQQQQQQQQQQQQQQQQQQQQQQQQQQQQQQQQQQQQQQQQQQQQQQQQQQQQQQQQQQQQQQQQQQQQQQQQQQQQQQQQQQQQQQQQQQQQQQQQQQQQQQQQQQQQQQQQQQQQQQQQQQQQQQQQQQQQQQQQQQQQQQQQQQQQQQQQQQ",
"QQQQQQQQQQQQQQQQQQQQQ@&=4422;;;2<<=+@QQQQQQQQQQQQQQQQQQQQQQQQQQQQQQQQQQQQQQQQQQQQQQQQQQQQQQQQQQQQQQQQQQQQQQQQQQQQQQQQQQQQQQQQQQQQQQQQQQQQQQQQQQQQQQQQQQQQQQQQQQQQQQQQQQQQQQQQQQQQQQQQQQQQQQQQQQQQQQQQQQQ",
"QQQQQQQQQQQQQQQQQQQ*;&<&;2<&--;<4;;;;;=QQQQQQQQQQQQQQQQQQQQQQQQQQQQQQQQQQQQQQQQQQQQQQQQQQQQQQQQQQQQQQQQQQQQQQQQQQQQQQQQQQQQQQQQQQQQQQQQQQQQQQQQQQQQQQQQQQQQQQQQQQQQQQQQQQQQQQQQQQQQQQQQQQQQQQQQQQQQQQQQQ",
"QQQQQQQQQQQQQQQQ+@;<<;<<;;<;;-<<;;;;;<<<#.QQQQQQQQQQQQQQQQQQQQQQQQQQQQQQQQQQQQQQQQQQQQQQQQQQQQQQQQQQQQQQQQQQQQQQQQQQQQQQQQQQQQQQQQQQQQQQQQQQQQQQQQQQQQQQQQQQQQQQQQQQQQQQQQQQQQQQQQQQQQQQQQQQQQQQQQQQQQQQ",
"QQQQQQQQQQQQQQQ;=<<&2<1<<779q07171<<;<-;<;=QQQQQQQQQQQQQQQQQQQQQQQQQQQQQQQQQQQQQQQQQQQQQQQQQQQQQQQQQQQQQQQQQQQQQQQQQQQQQQQQQQQQQQQQQQQQQQQQQQQQQQQQQQQQQQQQQQQQQQQQQQQQQQQQQQQQQQQQQQQQQQQQQQQQQQQQQQQQQ",
"QQQQQQQQQQQQQ#;<4;<&<q9q975<57<577r05<-=-<<=QQQQQQQQQQQQQQQQQQQQQQQQQQQQQQQQQQQQQQQQQQQQQQQQQQQQQQQQQQQQQQQQQQQQQQQQQQQQQQQQQQQQQQQQQQQQQQQQQQQQQQQQQQQQQQQQQQQQQQQQQQQQQQQQQQQQQQQQQQQQQQQQQQQQQQQQQQQQ",
"QQQQQQQQQQQQ%--<;&27985<;;-<;<<-;<27q77;<<<;;#QQQQQQQQQQQQQQQQQQQQQQQQQQQQQQQQQQQQQQQQQQQQQQQQQQQQQQQQQQQQQQQQQQQQQQQQQQQQQQQQQQQQQQQQQQQQQQQQQQQQQQQQQQQQQQQQQQQQQQQQQQQQQQQQQQQQQQQQQQQQQQQQQQQQQQQQQQ",
"QQQQQQQQQQQ<<-<;41r31--<;;<1&-<<<2&--3781;;;;49QQQQQQQQQQQQQQQQQQQQQQQQQQQQQQQQQQQQQQQQQQQQQQQQQQQQQQQQQQQQQQQQQQQQQQQQQQQQQQQQQQQQQQQQQQQQQQQQQQQQQQQQQQQQQQQQQQQQQQQQQQQQQQQQQQQQQQQQQQQQQQQQQQQQQQQQQ",
"QQQQQQQQQQ@79<-<1q22;24&2<;;---2<<-;;;<781<&2flyQQQQQQQQQQQQQQQQQQQQQQQQQQQQQQQQQQQQQQQQQQQQQQQQQQQQQQQQQQQQQQQQQQQQQQQQQQQQQQQQQQQQQQQQQQQQQQQQQQQQQQQQQQQQQQQQQQQQQQQQQQQQQQQQQQQQQQQQQQQQQQQQQQQQQQQQ",
"QQQQQQQQQ%;<57169<;<<&=;529075891<<;;-<<568<dzxlQQQQQQQQQQKPPPQQQQQQQQQQQQQHEWWWUGQQQQQQQQQQQQQQFRWWWEHQQQQQQQQFPPPQQQQQQPPPPPPPPPPPPPQQKPPPQQQQQQQQHEWWEUGQQQQQQQQQKPPPQQQQQQKPPPQQQQQQQQQQQQQQQQQQQQQQ",
"QQQQQQQQQ-;;<8t6<-<<;<7q8857<2778q77<<;--<3jzzzxsQQQQQQQQQEWWWKQQQQQQQQQQQWWWWWWWWEQQQQQQQQQQQQEWWWWWWWQQQQQQQQEWWWQQQQQQWWWWWWWWWWWWWQQEWWWKQQQQQQWWWWWWWWEQQQQQQQQEWWWUQQQQQWWWWJQQQQQQQQQQQQQQQQQQQQQ",
"QQQQQQQQ;<<;<900<-&<2q97;;;-<<;=<-788<;;<<gxvzzzx0QQQQQQQQEWWWJQQQQQQQQQQWWWWWWWWWWWQQQQQQQQQQWWWWWWWWWQQQQQQQQWWWWFQQQQQWWWWWWWWWWWWWQQEWWWJQQQQQWWWWWWWWWWWQQQQQQQEWWWWQQQQQWWWWJQQQQQQQQQQQQQQQQQQQQQ",
"QQQQQQQ$;4;<67<68;<6952;;--<2<;-;;-2571-<dzxxxxzxhQQQQQQQQWWWWJQQQQQQQQQRWWWWWWWWWWWRQQQQQQQQEWWWWWWWWWQQQQQQQQWWWWIQQQQQWWWWWWWWWWWWWQQWWWWJQQQQRWWWWWWWWWWWTQQQQQQWWWWWSQQQQWWWWJQQQQQQQQQQQQQQQQQQQQQ",
"QQQQQQQ*<;419<;;1q962;;;;;;<<;<;-<;<<177fzxzxxxzzxyQQQQQQQEWWWJQQQQQQQQQWWWWWFQDEWWWWQQQQQQQHWWWWWRGQFTQQQQQQQGWWWWEQQQQQQQQQYWWWWQQQQQQEWWWJQQQQWWWWWFQFEWWWWQQQQQQEWWWWUQQQQWWWWKQQQQQQQQQQQQQQQQQQQQQ",
"QQQQQQQ;;;<q<;;-1ww<;-&<258980095<-;;-1gxxzzzxczzxVQQQQQQQWWWWJQQQQQQQQHWWWWGQQQSWWWWKQQQQQQEWWWWYQQQQQQQQQQQQUWWWWWQQQQQQQQQKWWWTQQQQQQEWWWJQQQHWWWWGQQQSWWWWKQQQQQWWWWWWQQQQWWWWJQQQQQQQQQQQQQQQQQQQQQ",
"QQQQQQ;--;81<<-<1768<-23r99<<<280q2-;<fxcxzzxzccMBmfQQQQQQEWWWKQQQQQQQQTWWWEQQQQQRWWWEQQQQQQWWWWEQQQQQQQQQQQQQWWWWWWQQQQQQQQQKWWWTQQQQQQWWWWKQQQTWWWEQQQQQRWWWEQQQQQEWWWWWSQQQWWWWJQQQQQQQQQQQQQQQQQQQQQ",
"QQQQQ+<<;28<;;159<<17187<<-<-;--2559<fzxzczzznbChkr;QQQQQQEWWWKQQQQQQQQWWWWIQQQQQJWWWWQQQQQKWWWWDQQQQQQQQQQQQQWWWWWWHQQQQQQQQKWWWTQQQQQQEWWWJQQQWWWWIQQQQQJWWWWQQQQQWWWWWWYQQQWWWWJQQQQQQQQQQQQQQQQQQQQQ",
"QQQQQ=;<;07-=0hM6--<8t1<;;<<-<<<-<<7jzxzzxccmMxpt;;;*QQQQQWWWWJQQQQQQQQWWWWHQQQQQSWWWWQQQQQEWWWWQQQQQQQQQQQQQQWWWWWWYQQQQQQQQKWWWTQQQQQQWWWWJQQQWWWWHQQQQQSWWWWQQQQQEWWWWWWQQQWWWWJQQQQQQQQQQQQQQQQQQQQQ",
"QQQQQ;-;50;;;rZCf--<0q8<;;<<98<<&<2fxcxzxcNxxr-<9<;;#QQQQQWWWWJQQQQQQQQWWWWDQQQQQQWWWWQQQQQWWWWEQQQQQQQQQQQQQKWWWYWWWQQQQQQQQKWWWTQQQQQQEWWWJQQQWWWWSQQQQQQWWWWQQQQQEWWWWWWSQQWWWWJQQQQQQQQQQQQQQQQQQQQQ",
"QQQQ+;;;5q;;;1xv7-<654771608998822dzcxcxnxii;;;<e1;;;QQQQQEWWWJQQQQQQQQWWWWQQQQQQQWWWWSQQQQWWWWPQQQQQQQQQQQQQRWWEHWWWQQQQQQQQKWWWTQQQQQQWWWWKQQQWWWWQQQQQQQWWWWSQQQQWWWWWWWYQQWWWWKQQQQQQQQQQQQDREJQQQQQ",
"QQQQ -<<91<;;90;;;<82-;qr8<<;<<4wgxxxbvzy<<81-<<59<-;QQQQQEWWWJQQQQQQQQWWWWQQQQQQQWWWWGQQQQWWWWFQQQQQQQQQQQQQWWWUQWWWQQQQQQQQJWWWTQQQQQQEWWWJQQQWWWWQQQQQQQWWWWGQQQQEWWWWWWWQQWWWWJQQQQQQQQQQQQWWWWSQQQQ",
"QQQQ*2<-8<;<<82;;;95;-;8r8<;;&;<fccxzli9---85<<=59-<<@QQQQEWWWKQQQQQQQSWWWWQQQQQQQWWWWHQQQQWWWWSQQQQQQQQQQQQQWWWJQWWWKQQQQQQQKWWWTQQQQQQEWWWKQQSWWWWQQQQQQQWWWWHQQQQWWWWRWWWSQEWWWJQQQQQQQQQQQDWWWWYQQQQ",
"QQQQ-<<<9<;448;;;;q7;;<q<98;23<fzxvtr;79;-;<q2;-26<<4OQQQQWWWWKQQQQQQQDWWWWQQQQQQQWWWWHQQQQWWWWQQQQQQQQQQQQQDWWWSQWWWRQQQQQQQKWWWTQQQQQQWWWWJQQDWWWWQQQQQQQWWWWHQQQQEWWWKWWWUQRWWWJQQQQQQQQQQQQWWWWGQQQQ",
"QQQQ=<<<q;;;2q<;;50-2;85<<8t8wjgztq9;;2r<<-58<<;<8<<<=QQQQEWWWJQQQQQQQFWWWWQQQQQQQWWWWJQQQDWWWWQQQQQQQQQQQQQIWWWQQWWWWQQQQQQQKWWWTQQQQQQEWWWJQQFWWWWQQQQQQQWWWWJQQQQWWWWQWWWWQTWWWKQQQQQQQQQQQQLWWTQQQQQ",
"QQQQ=;;<r<&227<<;10;;;e2-&8r9udi;;2q<;&w2&;274-<1q<-;=QQQQEWWWJQQQQQQQFWWWWQQQQQQQWWWWKQQQFWWWWQQQQQQQQQQQQQWWWWQQRWWWQQQQQQQJWWWTQQQQQQEWWWKQQFWWWWQQQQQQQWWWWKQQQQWWWWQYWWWQYWWWJQQQQQQQQQQQQQQQQQQQQQ",
"QQQQ;;&582<&<8<<;16;;101<<97ww8<-;99;;<72<4<8;;-50<-;@QQQQWWWWJQQQQQQQDWWWWQQQQQQQWWWWHQQQFWWWWQQQQQQQQQQQQQWWWEQQIWWWFQQQQQQKWWWTQQQQQQWWWWJQQDWWWWQQQQQQQWWWWHQQQQEWWWQDWWWHIWWWKQQQQQQQQQQQQQQQQQQQQQ",
"QQQQ&-<584;;<841<17<<;07-<5u78u<--91<4<82;<28&-<;0<;-@QQQQEWWWJQQQQQQQSWWWWQQQQQQQWWWWKQQQDWWWWQQQQQQQQQQQQQWWWUQQHWWWIQQQQQQKWWWTQQQQQQEWWWJQQSWWWWQQQQQQQWWWWKQQQQWWWWQQWWWRPWWWJQQQQQQQQQQQQQQQQQQQQQ",
"QQQQ<-<<8<;<292&-<r<;;71<<81qw88<<97;;2q;<;782;;<8<<<=QQQQWWWWKQQQQQQQQWWWWQQQQQQQWWWWJQQQQWWWWDQQQQQQQQQQQHWWWHQQQWWWEQQQQQQKWWWTQQQQQQEWWWJQQQWWWWQQQQQQQWWWWHQQQQEWWWQQTWWWTWWWJQQQQQQQQQQQQQQQQQQQQQ",
"QQQQ*2;;q<&;<q1--<81<-;8172<-;<7980-=<77;<&8q<=;19;<<+QQQQEWWWKQQQQQQQQWWWWQQQQQQQWWWWHQQQQWWWWGQQQQQQQQQQQYWWWQQQQWWWWQQQQQQJWWWTQQQQQQWWWWJQQQWWWWQQQQQQQWWWWHQQQQEWWWQQFWWWWWWWJQQQQQQQQQQQQQQQQQQQQQ",
"QQQQ=2<;7224<9<-;;08--<6r5<;-;;<wt1-;<r3&<;7522;75;<2 QQQQWWWWJQQQQQQQQWWWWQQQQQQQWWWWFQQQQWWWWKQQQQQQQQQQQWWWWQQQQWWWWQQQQQQKWWWTQQQQQQEWWWJQQQWWWWQQQQQQQWWWWFQQQQEWWWQQQWWWWWWWJQQQQQQQQQQQQQQQQQQQQQ",
"QQQQ+=;;97<<-1q-<;<91<<87846;;58rw9<<5722&4q<-<;85<;;QQQQQEWWWJQQQQQQQQWWWWDQQQQQQWWWWQQQQQWWWWEQQQQQQQQQQQWWWWKGHGWWWWHQQQQQKWWWTQQQQQQEWWWKQQQWWWWDQQQQQQWWWWQQQQQWWWWQQQTWWWWWWJQQQQQQQQQQQQQQQQQQQQQ",
"QQQQQ<;;79<&;195<;;76181<<89ee99<&79179&4<59-;;184;-=QQQQQWWWWJQQQQQQQQWWWWHQQQQQQWWWWQQQQQWWWWWQQQQQQQQQQSWWWWWWWWWWWWYQQQQQKWWWTQQQQQQWWWWJQQQWWWWHQQQQQQWWWWQQQQQEWWWQQQFWWWWWWKQQQQQQQQQQQQQQQQQQQQQ",
"QQQQQ*;;502=;;88<;;;0e6<;;;<2<<;;;<0w0--;4q1-;;<q<;;@QQQQQWWWWJQQQQQQQQEWWWUQQQQQFWWWWQQQQQYWWWWGQQQQQQQQQLWWWWWWWWWWWWWQQQQQKWWWTQQQQQQEWWWJQQQEWWWIQQQQQFWWWWQQQQQEWWWSQQQWWWWWWJQQQQQQQQQQQQQQQQQQQQQ",
"QQQQQ+<;;18-;;,97-;<8e61;;<;--<--<59t9;;<96<<;<82<<;QQQQQQEWWWKQQQQQQQQIWWWEQQQQQUWWWWQQQQQFWWWWEQQQQQQQQQEWWWWWWWWWWWWWQQQQQKWWWTQQQQQQWWWWKQQQUWWWEQQQQQUWWWWQQQQQWWWWSQQQTWWWWWJQQQQQQQQQQQQQQQQQQQQQ",
"QQQQQ+;<;17<<<-215<6<;9974<;-;;<<076;67<561<<<16<&2=QQQQQQWWWWJQQQQQQQQGWWWWDQQQQWWWWUQQQQQQWWWWWTQQQQQQQQWWWWQQQQQQWWWWQQQQQKWWWTQQQQQQEWWWJQQQFWWWWFQQQQWWWWUQQQQQEWWWDQQQFWWWWWJQQQQQQQQQQQQQQQQQQQQQ",
"QQQQQQ;<;;78<<--79e1<--108q1605q051--<9e61&<;<q1;;-@QQQQQQEWWWKQQQQQQQQQWWWWWQQQRWWWWDQQQQQQUWWWWWTFQQJQQQWWWWQQQQQQRWWWKQQQQKWWWTQQQQQQWWWWJQQQQWWWWWQQQRWWWWDQQQQQEWWWFQQQQWWWWWKQQQQQQQQQQQQDEEKQQQQQ",
"QQQQQQQ;<-<07;-;<r872&4&;<15165<2;-;-<7ew;&<<87<-<;QQQQQQQWWWWWWWWWWWQQQTWWWWWWWWWWWWQQQQQQQQWWWWWWWWWWQQGWWWEQQQQQQLWWWRQQQQJWWWTQQQQQQEWWWJQQQQTWWWWWWWWWWWWQQQQQQWWWWFQQQQTWWWWJQQQQQQQQQQQQWWWWDQQQQ",
"QQQQQQQ=<<<27<;29<717<<<;;-<;-;;-;<-<717781;57<<<;@QQQQQQQEWWWWWWWWWWQQQQWWWWWWWWWWWGQQQQQQQQGWWWWWWWWWQQUWWWPQQQQQQDWWWWQQQQKWWWTQQQQQQEWWWKQQQQQWWWWWWWWWWWGQQQQQQEWWWGQQQQDWWWWKQQQQQQQQQQQDWWWWUQQQQ",
"QQQQQQQQ<<<-96794<;2985;;---<;<;;;<5821=<78199&2<;QQQQQQQQWWWWWWWWWWWQQQQSWWWWWWWWWPQQQQQQQQQQHWWWWWWWWQQWWWWDQQQQQQQWWWWQQQQKWWWTQQQQQQWWWWJQQQQQSWWWWWWWWWPQQQQQQQEWWWGQQQQQWWWWJQQQQQQQQQQQQWWWWGQQQQ",
"QQQQQQQQ+<--<8w7;;;;2899<1-<<<qjp<9q72;-;<8t9&<<<QQQQQQQQQRWWWWWWWWWWQQQQQQIWWWWWRSQQQQQQQQQQQQQIWWWWWRQQWWWWQQQQQQQQWWWWQQQQHWWWYQQQQQQRWWWHQQQQQQQIWWWWWRSQQQQQQQQRWWWDQQQQQTWWWHQQQQQQQQQQQQIWWYQQQQQ",
"QQQQQQQQQ,;;<9e61-;;<=55889078bAcr<2<;;;;67e9<--:QQQQQQQQQQQQQQQQQQQQQQQQQQQQQQQQQQQQQQQQQQQQQQQQQQQQQQQQQQQQQQQQQQQQQQQQQQQQQQQQQQQQQQQQQQQQQQQQQQQQQQQQQQQQQQQQQQQQQQQQQQQQQQQQQQQQQQQQQQQQQQQQQQQQQQQ",
"QQQQQQQQQ.;49<;879<<;-<&;<2512zMk;--;<<<776<90<,QQQQQQQQQQQQQQQQQQQQQQQQQQQQQQQQQQQQQQQQQQQQQQQQQQQQQQQQQQQQQQQQQQQQQQQQQQQQQQQQQQQQQQQQQQQQQQQQQQQQQQQQQQQQQQQQQQQQQQQQQQQQQQQQQQQQQQQQQQQQQQQQQQQQQQQQ",
"QQQQQQQQQQX81<--18q2;&<24<;;;;&t1;;;-;2q71-;<96QQQQQQQQQQQQQQQQQQQQQQQQQQQQQQQQQQQQQQQQQQQQQQQQQQQQQQQQQQQQQQQQQQQQQQQQQQQQQQQQQQQQQQQQQQQQQQQQQQQQQQQQQQQQQQQQQQQQQQQQQQQQQQQQQQQQQQQQQQQQQQQQQQQQQQQQQ",
"QQQQQQQQQQQX;<-<<<79944&;;;;;;4-;;;;27982;<;<;QQQQQQQQQQQQQQQQQQQQQQQQQQQQQQQQQQQQQQQQQQQQQQQQQQQQQQQQQQQQQQQQQQQQQQQQQQQQQQQQQQQQQQQQQQQQQQQQQQQQQQQQQQQQQQQQQQQQQQQQQQQQQQQQQQQQQQQQQQQQQQQQQQQQQQQQQQ",
"QQQQQQQQQQQQ.,<<;;;51q77<;-;<<-<;29901<-;4<<:QQQQQQQQQQQQQQQQQQQQQQQQQQQQQQQQQQQQQQQQQQQQQQQQQQQQQQQQQQQQQQQQQQQQQQQQQQQQQQQQQQQQQQQQQQQQQQQQQQQQQQQQQQQQQQQQQQQQQQQQQQQQQQQQQQQQQQQQQQQQQQQQQQQQQQQQQQQ",
"QQQQQQQQQQQQQQ+4<;=-&2588q85qq77q709<;--;<<QQQQQQQQQQQQQQQQQQQQQQQQQQQQQQQQQQQQQQQQQQQQQQQQQQQQQQQQQQQQQQQQQQQQQQQQQQQQQQQQQQQQQQQQQQQQQQQQQQQQQQQQQQQQQQQQQQQQQQQQQQQQQQQQQQQQQQQQQQQQQQQQQQQQQQQQQQQQQ",
"QQQQQQQQQQQQQQQQ;;<-2<;<;225725<<<;;;<;;-=QQQQQQQQQQQQQQQQQQQQQQQQQQQQQQQQQQQQQQQQQQQQQQQQQQQQQQQQQQQQQQQQQQQQQQQQQQQQQQQQQQQQQQQQQQQQQQQQQQQQQQQQQQQQQQQQQQQQQQQQQQQQQQQQQQQQQQQQQQQQQQQQQQQQQQQQQQQQQQ",
"QQQQQQQQQQQQQQQQQQ;;<<;;<;<--;;;;<;;<<;=QQQQQQQQQQQQQQQQQQQQQQQQQQQQQQQQQQQQQQQQQQQQQQQQQQQQQQQQQQQQQQQQQQQQQQQQQQQQQQQQQQQQQQQQQQQQQQQQQQQQQQQQQQQQQQQQQQQQQQQQQQQQQQQQQQQQQQQQQQQQQQQQQQQQQQQQQQQQQQQQ",
"QQQQQQQQQQQQQQQQQQQ@$-;;;4<-;;<<2;---@ QQQQQQQQQQQQQQQQQQQQQQQQQQQQQQQQQQQQQQQQQQQQQQQQQQQQQQQQQQQQQQQQQQQQQQQQQQQQQQQQQQQQQQQQQQQQQQQQQQQQQQQQQQQQQQQQQQQQQQQQQQQQQQQQQQQQQQQQQQQQQQQQQQQQQQQQQQQQQQQQQ",
"QQQQQQQQQQQQQQQQQQQQQQQ$;=--;=;<*$$QQQQQQQQQQQQQQQQQQQQQQQQQQQQQQQQQQQQQQQQQQQQQQQQQQQQQQQQQQQQQQQQQQQQQQQQQQQQQQQQQQQQQQQQQQQQQQQQQQQQQQQQQQQQQQQQQQQQQQQQQQQQQQQQQQQQQQQQQQQQQQQQQQQQQQQQQQQQQQQQQQQQQ"
};
