/* XPM */
static char *result[] = {
/* columns rows colors chars-per-pixel */
"200 50 92 1 ",
"  c #473F63",
". c #443F75",
"X c #4A405A",
"o c #474062",
"O c #45406A",
"+ c #444071",
"@ c #43407A",
"# c #FFF155",
"$ c #FFF15A",
"% c #FFF164",
"& c #FFF169",
"* c #FFF174",
"= c #FFF179",
"- c #383F94",
"; c #363F99",
": c #423F80",
"> c #473F8C",
", c #3F4087",
"< c #3C408C",
"1 c #374096",
"2 c #394093",
"3 c #364098",
"4 c #39409D",
"5 c #2F40A6",
"6 c #3040A4",
"7 c #3741A9",
"8 c #2D40BB",
"9 c #3340BD",
"0 c #414080",
"q c #4141A5",
"w c #4440B8",
"e c #173FFF",
"r c #1C3FFF",
"t c #2F3FE7",
"y c #303FE2",
"u c #273FFF",
"i c #2D3FFE",
"p c #2C40DA",
"a c #3140D7",
"s c #1640FF",
"d c #1B40FF",
"f c #2E40EC",
"g c #2D40F3",
"h c #2440FF",
"j c #2C40FF",
"k c #3440FF",
"l c #3F41FF",
"z c #5EF2FF",
"x c #66F1FF",
"c c #6FF2FF",
"v c #72F1FF",
"b c #79F1FF",
"n c #FFF183",
"m c #FFF189",
"M c #FFF194",
"N c #FFF19C",
"B c #FFF1A2",
"V c #FBF1AB",
"C c #FBF1B3",
"Z c #FCF1BC",
"A c #80F2FF",
"S c #8EF1FF",
"D c #94F1FF",
"F c #9DF1FF",
"G c #ABF1F6",
"H c #A1F1FF",
"J c #AAF1FC",
"K c #B3F1F3",
"L c #B9F1F1",
"P c #B0F1FF",
"I c #BFF0FF",
"U c #FBF1C3",
"Y c #FAF1CC",
"T c #FAF1D3",
"R c #F9F1DB",
"E c #C2F1F2",
"W c #CBF1F4",
"Q c #C7F1FF",
"! c #CCF1FF",
"~ c #D4F1F2",
"^ c #DAF1F2",
"/ c #DAF1FF",
"( c #FCF1E3",
") c #F6F1EC",
"_ c #F9F1EC",
"` c #E3F1F3",
"' c #EBF1F1",
"] c #E2F1FE",
"[ c #EAF2FA",
"{ c #F2F1F2",
"} c #F8F1F1",
"| c None",
/* pixels */
"||||||||||||||||||||||||||||||||||||||||||||||||||||||||||||||||||||||||||||||||||||||||||||||||||||||||||||||||||||||||||||||||||||||||||||||||||||||||||||||||||||||||||||||||||||||||||||||||||||||||",
"||||||||||||||||||||||||||||||||||||||||||||||||||||||||||||||||||||||||||||||||||||||||||||||||||||||||||||||||||||||||||||||||||||||||||||||||||||||||||||||||||||||||||||||||||||||||||||||||||||||||",
"||||||||||||||||||||||||||||||||||||||||||||||||||||||||||||||||||||||||||||||||||||||||||||||||||||||||||||||||||||||||||||||||||||||||||||||||||||||||||||||||||||||||||||||||||||||||||||||||||||||||",
"||||||||||||||||||||||||||||||||||||||||||||||||||||||||||||||||||||||||||||||||||||||||||||||||||||||||||||||||||||||||||||||||||||||||||||||||||||||||||||||||||||||||||||||||||||||||||||||||||||||||",
"||||||||||||||||||||||||||||||||||||||||||||||||||||||||||||||||||||||||||||||||||||||||||||||||||||||||||||||||||||||||||||||||||||||||||||||||||||||||||||||||||||||||||||||||||||||||||||||||||||||||",
"||||||||||||||||||||||||||||||||||||||||||||||||||||||||||||||||||||||||||||||||||||||||||||||||||||||||||||||||||||||||||||||||||||||||||||||||||||||||||||||||||||||||||||||||||||||||||||||||||||||||",
"||||||||||||||||||||||||||||||||||||||||||||||||||||||||||||||||||||||||||||||||||||||||||||||||||||||||||||||||||||||||||||||||||||||||||||||||||||||||||||||||||||||||||||||||||||||||||||||||||||||||",
"||||||||||||||||||||||||||||||||||||||||||||||||||||||||||||||||||||||||||||||||||||||||||||||||||||||||||||||||||||||||||||||||||||||||||||||||||||||||||||||||||||||||||||||||||||||||||||||||||||||||",
"||||||||||||||||||||||||||||||||||||||||||||||||||||||||||||||||||||||||||||||||||||||||||||||||||||||||||||||||||||||||||||||||||||||||||||||||||||||||||||||||||||||||||||||||||||||||||||||||||||||||",
"||||||||||||||||||||||||||||||||||||||||||||||||||||||||||||||||||||||||||||||||||||||||||||||||||||||||||||||||||||||||||||||||||||||||||||||||||||||||||||||||||||||||||||||||||||||||||||||||||||||||",
"||||||||||||||||||||||||||||||||||||||||||||||||||||||||||||||||||||||||||||||||||||||||||||||||||||||||||||||||||||||||||||||||||||||||||||||||||||||||||||||||||||||||||||||||||||||||||||||||||||||||",
"||||||||||||||||||||||||||||||||||||||||||||||||||||||||||||||||||||||||||||||||||||||||||||||||||||||||||||||||||||||||||||||||||||||||||||||||||||||||||||||||||||||||||||||||||||||||||||||||||||||||",
"||||||||||||||||||||||||||||||||||||||||||||||||||||||||||||||||||||||||||||||||||||||||||||||||||||||||||||||||||||||||||||||||||||||||||||||||||||||||||||||||||||||||||||||||||||||||||||||||||||||||",
"||||||||||||||||||||||||||||||||||||||||||||||||||||||||||||||||||||||||||||||||||||||||||||||||||||||||||||||||||||||||||||||||||||||||||||||||||||||||||||||||||||||||||||||||||||||||||||||||||||||||",
"||||||||||||||||||||||||||||||||||||||||||||||||||||||||||||||||||||||||||||||||||||||||||||||||||||||||||||||||||||||||||||||||||||||||||||||||||||||||||||||||||||||||||||||||||||||||||||||||||||||||",
"||||||||||||||||||||||||||||||||||||||||||||||||||||||||||||||||||||||||||||||||||||||||||||||||||||||||||||||||||||||||||||||||||||||||||||||||||||||||||||||||||||||||||||||||||||||||||||||||||||||||",
"||||||||||||||||||||||||||||||||||||||||||||||||||||||||||||||||||||||||||||||||||||||||||||||||||||||||||||||||||||||||||||||||||||||||||||||||||||||||||||||||||||||||||||||||||||||||||||||||||||||||",
"||||||||||||||||||||||||||||||||||||||||||||||||||||||||||||||||||||||||||||||||||||||||||||||||||||||||||||||||||||||||||||||||||||||||||||||||||||||||||||||||||||||||||||||||||||||||||||||||||||||||",
"||||||||||||||||||||||||||||||||||||||||||||||||||||||||||||||||||||||||||||||||||||||||||||||||||||||||||||||||||||||||||||||||||||||||||||||||||||||||||||||||||||||||||||||||||||||||||||||||||||||||",
"||||||||||||||L}}V||||||||||||||||||||||||||||||||||||||||^}}M||||||||||||||||||||||||||||||||||||||||||||||||||||||||||||||||||||||||||||||||||||||||||||||||||||||||||||||||||||||||||||||||||||||||||",
"||||||||||||||'}}M||||||||||||||||||||||||||||||||||^}}m||}}}=||||||||||||||||||||||||||||||||||||||||||||||||||||||||||||||||jjj2|||||||||||jjj0||||||jjj0|||||||||||||||||||||||||||||||||||||||||||||",
"||||||||||||||}}}*||||||||||||||||||||||||||||||||||}}}%||||||||||||||||||||||||||||||||||||||||||||||||||||||||||||||||||||||jjj2|||||||||||jjj0||||||jjj0|||||||||||||||||||||||||||||||||||||||||||||",
"|||||||||||||A}}}||||||Q[}(U|||||Q[)(C|||||![}_Y|||}}}})|D}}(|||Q[}(U|||D}}T|!'T||||||||||||||||||||||||||||||||||||||||||||||jjj2|||||||||||jjj@||||||jjj0|||||||||||||||||||||||||||||||||||||||||||||",
"|||||||||||||F}}R|||||^}}}}}U|||`}}}}}N|||'}}}_}Z|b}}}}R|G}}C||^}}}}}Z||G}}_}}}}M|||||||||||||||||||||||||||||||||||||||||||||jjj2|||ujiy||||jjj7djg9||jjjqdjg9|hjjo|ejj6|||||||||||||||||||||||||||||||",
"|||||||||||||L}}V||||J}}m|{}}||E}}m|{}T||~})|v}}_||G}}B||^}}M|P}}m|{}}||^}}N|W}}M|||||||||||||||||||||||||||||||||||||||||||||jjj2|sjjjjjj2||jjjijjjj+|jjjijjjjwdjj:|ejj-|||||||||||||||||||||||||||||||",
"|||||||||||||'}}M||||}}}||}}}||}}}||}}R|z}}U|v}}R||^}}m||}}}=|}}}||}}}||}}}%|'}}=|||||}}&|||||||||||||||||||||||||||||||||||||jjj2|hjj@|jjj||jjj2|jjj2|jjj2|jjj3djj1|ejj0|||||||||||||||||||||||||||||||",
"|||||||||||||}}}*|||A}}R|v}}_|A}}R|v}}C|S}}N|J}}Z||}}}%|v}}}|A}}R|v}}_|v}}_||}}}$||||c}}||||||||||||||||||||||||||||||||||||||jjj2|jjj |jjjO|jjj:|jjj1|jjj:|hjj2|jj6|rjjo|||||||||||||||||||||||||||||||",
"||||||||||||A}}}||||F}_V|D}}U|H}}V|||||||||Q/}}}N|v}}_||S}}(|F}}V|D})U|D}}Y|v}})|||||D}T||||||||||||||||||||||||||||||||||||||jjj2|jjjo|jjj.|jjj0|hjj1|jjj0|hjj2|jj8|rjj||||||||||||||||||||||||||||||||",
"||||||||||||F}}R||||E}}M|K}}N|E}}M|||||||Q{}}}}}n|D}}Y||G}}C|E}}M|K}}N|G}}B|D}}Z||||||||||||||||||||||||||||||||||||||||||||||jjj2|jjjo|jjj@|jjj0|hjj1|jkj0|hjj1|hjp|ujj||||||||||||||||||||||||||||||||",
"||||||||||||L}}V||||{}}*|^}}n|'}}*|G}}#|W}}N|}}}$|G}}B||^}}M|{}}*|^}}n|^}}n|L}}N||||||||||||||||||||||||||||||||||||||||||||||jjj2|jjjo|jjj@|jjj0|hjj1|jjj0|hjj3|ejj|djp||||||||||||||||||||||||||||||||",
"||||||||||||'}}M||||}}}||}}}#|}}{||^}(|z}}T|v}})||^}}m||}}}=|}}}||}}}#|}}}%|`}}n||||||||||||||||||||||||||||||||||||||||||||||jjj2|jjko|jjj@|jjj0|hjj1|jjj0|hjj2|sjjlhj8||||||||||||||||||||||||||||||||",
"||||||||||||})}*|||b}}R|v}}R|v}}R||}}B|S}}N|D}}Z||}}}%|v}}}|b}}R|v}}R|v}})||}}}#||||||||||||||||||||||||||||||||||||||||||||||jjj2|jjjo|jjj.|jjj0|hjj1|jjj0|hjj2||jjkhj6||||||||||||||||||||||||||||||||",
"|||||||||||A}}}}}N|A}}Y|J}}M|v}}T|D}_$|H}}N|E}}N|x}}}||D}}(|b}}U|J}}M|D}}Y|b}}_|||||D}T|||||||||||||||||||||||||||||||||||||||jjj2|jjjo|jjjo|jjj:|hjj-|jjj:|hjj-||jjjjj4||||||||||||||||||||||||||||||||",
"|||||||||||F}}}}}n||{}}}}}U|||'}}}}}m||H}}}}{}}n|v}}}}|G}}C||}}}}}}U||G}}N|D}}Z|||||G}B|||||||||||||||||||||||||||||||||||||||jjj2|hjj0|jjg||jjj2|hjj<|jjj2|jjj<||hjjjj0||||||||||||||||||||||||||||||||",
"|||||||||||L}}}}}$|||]'_RC|||||/{_T|||||/_C|'}}#||!{}T|^}}M|||/{_RC|||^}}n|K}}N|||||^}m|||||||||||||||||||||||||||||||||||||||jjj2|djjjjjj3||jjjijjjjX|jjjijjjjX||djjjjO||||||||||||||||||||||||||||||||",
"||||||||||||||||||||||||||||||||||||||||||||||||||||||||||||||||||||||||||||||||||||||||||||||||||||||||||||||||||||||||||||||jjj2||djjjy7|||jjj>djf4||jjj>dhf4|||djjjj|||||||||||||||||||||||||||||||||",
"|||||||||||||||||||||||||||||||||||||||||||||||||||||||||||||||||||||||||||||||||||||||||||||||||||||||||||||||||||||||||||||||||||||||||||||||||||||||||||||||||hjjkj8|||||||||||||||||||||||||||||||||",
"|||||||||||||||||||||||||||||||||||||||||||||||||||||||||||||||||||||||||||||||||||||||||||||||||||||||||||||||||||||||||||||||||||||||||||||||||||||||||||||||||hjjga||||||||||||||||||||||||||||||||||",
"||||||||||||||||||||||||||||||||||||||||||||||||||||||||||||||||||||||||||||||||||||||||||||||||||||||||||||||||||||||||||||||||||||||||||||||||||||||||||||||||||||||||||||||||||||||||||||||||||||||||",
"||||||||||||||||||||||||||||||||||||||||||||||||||||||||||||||||||||||||||||||||||||||||||||||||||||||||||||||||||||||||||||||||||||||||||||||||||||||||||||||||||||||||||||||||||||||||||||||||||||||||",
"||||||||||||||||||||||||||||||||||||||||||||||||||||||||||||||||||||||||||||||||||||||||||||||||||||||||||||||||||||||||||||||||||||||||||||||||||||||||||||||||||||||||||||||||||||||||||||||||||||||||",
"||||||||||||||||||||||||||||||||||||||||||||||||||||||||||||||||||||||||||||||||||||||||||||||||||||||||||||||||||||||||||||||||||||||||||||||||||||||||||||||||||||||||||||||||||||||||||||||||||||||||",
"||||||||||||||||||||||||||||||||||||||||||||||||||||||||||||||||||||||||||||||||||||||||||||||||||||||||||||||||||||||||||||||||||||||||||||||||||||||||||||||||||||||||||||||||||||||||||||||||||||||||",
"||||||||||||||||||||||||||||||||||||||||||||||||||||||||||||||||||||||||||||||||||||||||||||||||||||||||||||||||||||||||||||||||||||||||||||||||||||||||||||||||||||||||||||||||||||||||||||||||||||||||",
"||||||||||||||||||||||||||||||||||||||||||||||||||||||||||||||||||||||||||||||||||||||||||||||||||||||||||||||||||||||||||||||||||||||||||||||||||||||||||||||||||||||||||||||||||||||||||||||||||||||||",
"||||||||||||||||||||||||||||||||||||||||||||||||||||||||||||||||||||||||||||||||||||||||||||||||||||||||||||||||||||||||||||||||||||||||||||||||||||||||||||||||||||||||||||||||||||||||||||||||||||||||",
"||||||||||||||||||||||||||||||||||||||||||||||||||||||||||||||||||||||||||||||||||||||||||||||||||||||||||||||||||||||||||||||||||||||||||||||||||||||||||||||||||||||||||||||||||||||||||||||||||||||||",
"||||||||||||||||||||||||||||||||||||||||||||||||||||||||||||||||||||||||||||||||||||||||||||||||||||||||||||||||||||||||||||||||||||||||||||||||||||||||||||||||||||||||||||||||||||||||||||||||||||||||",
"||||||||||||||||||||||||||||||||||||||||||||||||||||||||||||||||||||||||||||||||||||||||||||||||||||||||||||||||||||||||||||||||||||||||||||||||||||||||||||||||||||||||||||||||||||||||||||||||||||||||",
"||||||||||||||||||||||||||||||||||||||||||||||||||||||||||||||||||||||||||||||||||||||||||||||||||||||||||||||||||||||||||||||||||||||||||||||||||||||||||||||||||||||||||||||||||||||||||||||||||||||||"
};
