/* XPM */
static char *result[] = {
/* columns rows colors chars-per-pixel */
"200 50 72 1 ",
"  c #5D0000",
". c #650000",
"X c #6A0000",
"o c #740000",
"O c #7A0000",
"+ c #830000",
"@ c #8A0000",
"# c #930000",
"$ c #9C0000",
"% c #A30000",
"& c #AB0000",
"* c #B50000",
"= c #BB0000",
"- c #C20000",
"; c #CA0000",
": c #D30000",
"> c #DB0000",
", c #E40000",
"< c #EB0000",
"1 c #F50000",
"2 c #FF0000",
"3 c #FFF155",
"4 c #FFF15A",
"5 c #FFF164",
"6 c #FFF169",
"7 c #FFF174",
"8 c #FFF179",
"9 c #5EF2FF",
"0 c #66F1FF",
"q c #6FF2FF",
"w c #72F1FF",
"e c #79F1FF",
"r c #FFF183",
"t c #FFF189",
"y c #FFF194",
"u c #FFF19C",
"i c #FFF1A2",
"p c #FBF1AB",
"a c #FBF1B3",
"s c #FCF1BC",
"d c #80F2FF",
"f c #8EF1FF",
"g c #94F1FF",
"h c #9DF1FF",
"j c #ABF1F6",
"k c #A1F1FF",
"l c #AAF1FC",
"z c #B3F1F3",
"x c #B9F1F1",
"c c #B0F1FF",
"v c #BFF0FF",
"b c #FBF1C3",
"n c #FAF1CC",
"m c #FAF1D3",
"M c #F9F1DB",
"N c #C2F1F2",
"B c #CBF1F4",
"V c #C7F1FF",
"C c #CCF1FF",
"Z c #D4F1F2",
"A c #DAF1F2",
"S c #DAF1FF",
"D c #FCF1E3",
"F c #F6F1EC",
"G c #F9F1EC",
"H c #E3F1F3",
"J c #EBF1F1",
"K c #E2F1FE",
"L c #EAF2FA",
"P c #F2F1F2",
"I c #F8F1F1",
"U c None",
/* pixels */
"UUUUUUUUUUUUUUUUUUUUUUUUUUUUUUUUUUUUUUUUUUUUUUUUUUUUUUUUUUUUUUUUUUUUUUUUUUUUUUUUUUUUUUUUUUUUUUUUUUUUUUUUUUUUUUUUUUUUUUUUUUUUUUUUUUUUUUUUUUUUUUUUUUUUUUUUUUUUUUUUUUUUUUUUUUUUUUUUUUUUUUUUUUUUUUUUUUUUUUUU",
"UUUUUUUUUUUUUUUUUUUUUUUUUUUUUUUUUUUUUUUUUUUUUUUUUUUUUUUUUUUUUUUUUUUUUUUUUUUUUUUUUUUUUUUUUUUUUUUUUUUUUUUUUUUUUUUUUUUUUUUUUUUUUUUUUUUUUUUUUUUUUUUUUUUUUUUUUUUUUUUUUUUUUUUUUUUUUUUUUUUUUUUUUUUUUUUUUUUUUUUU",
"UUUUUUUUUUUUUUUUUUUUUUUUUUUUUUUUUUUUUUUUUUUUUUUUUUUUUUUUUUUUUUUUUUUUUUUUUUUUUUUUUUUUUUUUUUUUUUUUUUUUUUUUUUUUUUUUUUUUUUUUUUUUUUUUUUUUUUUUUUUUUUUUUUUUUUUUUUUUUUUUUUUUUUUUUUUUUUUUUUUUUUUUUUUUUUUUUUUUUUUU",
"UUUUUUUUUUUUUUUUUUUUUUUUUUUUUUUUUUUUUUUUUUUUUUUUUUUUUUUUUUUUUUUUUUUUUUUUUUUUUUUUUUUUUUUUUUUUUUUUUUUUUUUUUUUUUUUUUUUUUUUUUUUUUUUUUUUUUUUUUUUUUUUUUUUUUUUUUUUUUUUUUUUUUUUUUUUUUUUUUUUUUUUUUUUUUUUUUUUUUUUU",
"UUUUUUUUUUUUUUUUUUUUUUUUUUUUUUUUUUUUUUUUUUUUUUUUUUUUUUUUUUUUUUUUUUUUUUUUUUUUUUUUUUUUUUUUUUUUUUUUUUUUUUUUUUUUUUUUUUUUUUUUUUUUUUUUUUUUUUUUUUUUUUUUUUUUUUUUUUUUUUUUUUUUUUUUUUUUUUUUUUUUUUUUUUUUUUUUUUUUUUUU",
"UUUUUUUUUUUUUUUUUUUUUUUUUUUUUUUUUUUUUUUUUUUUUUUUUUUUUUUUUUUUUUUUUUUUUUUUUUUUUUUUUUUUUUUUUUUUUUUUUUUUUUUUUUUUUUUUUUUUUUUUUUUUUUUUUUUUUUUUUUUUUUUUUUUUUUUUUUUUUUUUUUUUUUUUUUUUUUUUUUUUUUUUUUUUUUUUUUUUUUUU",
"UUUUUUUUUUUUUUUUUUUUUUUUUUUUUUUUUUUUUUUUUUUUUUUUUUUUUUUUUUUUUUUUUUUUUUUUUUUUUUUUUUUUUUUUUUUUUUUUUUUUUUUUUUUUUUUUUUUUUUUUUUUUUUUUUUUUUUUUUUUUUUUUUUUUUUUUUUUUUUUUUUUUUUUUUUUUUUUUUUUUUUUUUUUUUUUUUUUUUUUU",
"UUUUUUUUUUUUUUUUUUUUUUUUUUUUUUUUUUUUUUUUUUUUUUUUUUUUUUUUUUUUUUUUUUUUUUUUUUUUUUUUUUUUUUUUUUUUUUUUUUUUUUUUUUUUUUUUUUUUUUUUUUUUUUUUUUUUUUUUUUUUUUUUUUUUUUUUUUUUUUUUUUUUUUUUUUUUUUUUUUUUUUUUUUUUUUUUUUUUUUUU",
"UUUUUUUUUUUUUUUUUUUUUUUUUUUUUUUUUUUUUUUUUUUUUUUUUUUUUUUUUUUUUUUUUUUUUUUUUUUUUUUUUUUUUUUUUUUUUUUUUUUUUUUUUUUUUUUUUUUUUUUUUUUUUUUUUUUUUUUUUUUUUUUUUUUUUUUUUUUUUUUUUUUUUUUUUUUUUUUUUUUUUUUUUUUUUUUUUUUUUUUU",
"UUUUUUUUUUUUUUUUUUUUUUUUUUUUUUUUUUUUUUUUUUUUUUUUUUUUUUUUUUUUUUUUUUUUUUUUUUUUUUUUUUUUUUUUUUUUUUUUUUUUUUUUUUUUUUUUUUUUUUUUUUUUUUUUUUUUUUUUUUUUUUUUUUUUUUUUUUUUUUUUUUUUUUUUUUUUUUUUUUUUUUUUUUUUUUUUUUUUUUUU",
"UUUUUUUUUUUUUUUUUUUUUUUUUUUUUUUUUUUUUUUUUUUUUUUUUUUUUUUUUUUUUUUUUUUUUUUUUUUUUUUUUUUUUUUUUUUUUUUUUUUUUUUUUUUUUUUUUUUUUUUUUUUUUUUUUUUUUUUUUUUUUUUUUUUUUUUUUUUUUUUUUUUUUUUUUUUUUUUUUUUUUUUUUUUUUUUUUUUUUUUU",
"UUUUUUUUUUUUUUUUUUUUUUUUUUUUUUUUUUUUUUUUUUUUUUUUUUUUUUUUUUUUUUUUUUUUUUUUUUUUUUUUUUUUUUUUUUUUUUUUUUUUUUUUUUUUUUUUUUUUUUUUUUUUUUUUUUUUUUUUUUUUUUUUUUUUUUUUUUUUUUUUUUUUUUUUUUUUUUUUUUUUUUUUUUUUUUUUUUUUUUUU",
"UUUUUUUUUUUUUUUUUUUUUUUUUUUUUUUUUUUUUUUUUUUUUUUUUUUUUUUUUUUUUUUUUUUUUUUUUUUUUUUUUUUUUUUUUUUUUUUUUUUUUUUUUUUUUUUUUU1222222222UUUUUUUUU;,1222UUUUUUUUUU;,12222UUUUUUU@22222222UUUUU122222UUUUUUUUUUUUUUUUU",
"UUUUUUUUUUUUUUUUUUUUUUUUUUUUUUUUUUUUUUUUUUUUUUUUUUUUUUUUUUUUUUUUUUUUUUUUUUUUUUUUUUUUUUUUUUUUUUUUUUUUUUUUUUUUUUUUU 22222222222UUUUUU#<22222222UUUUUU#<22222222UUUUUU=22222222UUUU 22222UUUUUUUUUUUUUUUUUU",
"UUUUUUUUUUUUUUUUUUUUUUUUUUUUUUUUUUUUUUUUUUUUUUUUUUUUUUUUUUUUUUUUUUUUUUUUUUUUUUUUUUUUUUUUUUUUUUUUUUUUUUUUUUUUUUUUU@222222222222UUUU#22222222222UUUU#22222222222UUUUU122222222UUUU@22222UUUUUUUUUUUUUUUUUU",
"UUUUUUUUUUUUUUUUUUUUUUUUUUUUUUUUUUUUUUUUUUUUUUUUUUUUUUUUUUUUUUUUUUUUUUUUUUUUUUUUUUUUUUUUUUUUUUUUUUUUUUUUUUUUUUUUU%222222222222UUU.122222222222UUUX222222222222UUUU@222222222UUUU%22222UUUUUUUUUUUUUUUUUU",
"UUUUUUUUUUUUUUUUUUUUUUUUUUUUUUUUUUUUUUUUUUUUUUUUUUUUUUUUUUUUUUUUUUUUUUUUUUUUUUUUUUUUUUUUUUUUUUUUUUUUUUUUUUUUUUUUU;22222U.22222UUU=22222U@22222UUU-22222UU222222UUU=222222222UUUU;22222UUUUUUUUUUUUUUUUUU",
"UUUUUUUUUUUUUUUUUUUUUUUUUUUUUUUUUUUUUUUUUUUUUUUUUUUUUUUUUUUUUUUUUUUUUUUUUUUUUUUUUUUUUUUUUUUUUUUUUUUUUUUUUUUUUUUUU122222UU22222UUU122222U+22222UUU222222UU22222UUUU12222-2222UUUU122222UUUUUUUUUUUUUUUUUU",
"UUUUUUUUUUUUUUUUUUUUUUUUUUUUUUUUUUUUUUUUUUUUUUUUUUUUUUUUUUUUUUUUUUUUUUUUUUUUUUUUUUUUUUUUUUUUUUUUUUUUUUUUUUUUUUUU 22222UUo22222UUO22222UU$22222UU+22222UUX22222UUU@22222;2222UUU 22222UUUUUUUUUUUUUUUUUUU",
"UUUUUUUUUUUUUUxIIpUUUUUUUUUUUUUUUUUUUUUUUUUUUUUUUUUUUUUUUUAIIyUUUUUUUUUUUUUUUUUUUUUUUUUUUUUUUUUUUUUUUUUUUUUUUUUU@22222UU-22222UU$22222UU=22222UU$22222UU#22222UUU=2222U<2222UUU@22222UUUUUUUUUUUUUUUUUUU",
"UUUUUUUUUUUUUUJIIyUUUUUUUUUUUUUUUUUUUUUUUUUUUUUUUUUUAIItUUIII8UUUUUUUUUUUUUUUUUUUUUUUUUUUUUUUUUUUUUUUUUUUUUUUUUU%222222222222UUU-22222UU<22222UU-22222UU&22222UUU12222U22222UUU%22222UUUUUUUUUUUUUUUUUUU",
"UUUUUUUUUUUUUUIII7UUUUUUUUUUUUUUUUUUUUUUUUUUUUUUUUUUIII5UUUUUUUUUUUUUUUUUUUUUUUUUUUUUUUUUUUUUUUUUUUUUUUUUUUUUUUU;22222222222UUUU122222UU222222UU122222UU:22222UU@22222U22222UUU;22222UUUUUUUUUUUUUUUUUUU",
"UUUUUUUUUUUUUdIIIUUUUUUVLIDbUUUUUVLFDaUUUUUCLIGnUUUIIIIFUgIIDUUUVLIDbUUUgIImUCJmUUUUUUUUUUUUUUUUUUUUUUUUUUUUUUUU12222222222UUUUU22222UU+22222UUU22222UUUUUUUUUUU=2222Uo22222UUU122222UUUUUUUUUUUUUUUUUUU",
"UUUUUUUUUUUUUhIIMUUUUUAIIIIIbUUUHIIIIIuUUUJIIIGIsUeIIIIMUjIIaUUAIIIIIsUUjIIGIIIIyUUUUUUUUUUUUUUUUUUUUUUUUUUUUUU 222222222222UUU+22222UU$22222UU+22222UUUUUUUUUUU12222U@2222UUU 22222UUUUUUUUUUUUUUUUUUUU",
"UUUUUUUUUUUUUxIIpUUUUlIItUPIIUUNIItUPImUUZIFUwIIGUUjIIiUUAIIyUcIItUPIIUUAIIuUBIIyUUUUUUUUUUUUUUUUUUUUUUUUUUUUUU@2222222222222UU%22222UU=22222UU%22222UUUUUUUUUU+22222U$2222UUU@22222UUUUUUUUUUUUUUUUUUUU",
"UUUUUUUUUUUUUJIIyUUUUIIIUUIIIUUIIIUUIIMU9IIbUwIIMUUAIItUUIII8UIIIUUIIIUUIII5UJII8UUUUUII6UUUUUUUUUUUUUUUUUUUUUU%22222UU,22222UU-22222UU<22222UU-22222UU&22222UU=2222UU%2222UUU%22222UUUUUUUUUUUUUUUUUUUU",
"UUUUUUUUUUUUUIII7UUUdIIMUwIIGUdIIMUwIIaUfIIuUlIIsUUIII5UwIIIUdIIMUwIIGUwIIGUUIII4UUUUqIIUUUUUUUUUUUUUUUUUUUUUUU;22222UU,22222UU122222UU222222UU122222UU:22222UU12222UU*2222UUU;22222UUUUUUUUUUUUUUUUUUUU",
"UUUUUUUUUUUUdIIIUUUUhIGpUgIIbUkIIpUUUUUUUUUVSIIIuUwIIGUUfIIDUhIIpUgIFbUgIInUwIIFUUUUUgImUUUUUUUUUUUUUUUUUUUUUUU122222UU222222UU22222UU+22222UUU22222UUU222222U+222222222222UUU122222UUUUUUUUUUUUUUUUUUUU",
"UUUUUUUUUUUUhIIMUUUUNIIyUzIIuUNIIyUUUUUUUVPIIIIIrUgIInUUjIIaUNIIyUzIIuUjIIiUgIIsUUUUUUUUUUUUUUUUUUUUUUUUUUUUUU 22222UUo22222UUO22222UU$22222UUO22222UUX22222UU*222222222222UU 22222UUUUUUUUUUUUUUUUUUUUU",
"UUUUUUUUUUUUxIIpUUUUPII7UAIIrUJII7UjII3UBIIuUIII4UjIIiUUAIIyUPII7UAIIrUAIIrUxIIuUUUUUUUUUUUUUUUUUUUUUUUUUUUUUU@22222UU$22222UU#22222UU-22222UU#22222UU$22222UU1222222222222UU@22222UUUUUUUUUUUUUUUUUUUUU",
"UUUUUUUUUUUUJIIyUUUUIIIUUIII3UIIPUUAIDU9IImUwIIFUUAIItUUIII8UIIIUUIII3UIII5UHIIrUUUUUUUUUUUUUUUUUUUUUUUUUUUUUU%22222UU,22222UU$22222UX22222UUU#22222UU>22222U+2222222222222UU%222222222UUUUUUUUUUUUUUUUU",
"UUUUUUUUUUUUIFI7UUUeIIMUwIIMUwIIMUUIIiUfIIuUgIIsUUIII5UwIIIUeIIMUwIIMUwIIFUUIII3UUUUUUUUUUUUUUUUUUUUUUUUUUUUUU;2222222222222UU+222222222222UUU@222222222222UU=22222UU#22222UU;22222222UUUUUUUUUUUUUUUUUU",
"UUUUUUUUUUUdIIIIIuUdIInUlIIyUwIImUgIG4UkIIuUNIIuU0IIIUUgIIDUeIIbUlIIyUgIInUeIIGUUUUUgImUUUUUUUUUUUUUUUUUUUUUUU1222222222222UUUU12222222222UUUUU22222222222UUU122222UU%22222UU122222222UUUUUUUUUUUUUUUUUU",
"UUUUUUUUUUUhIIIIIrUUPIIIIIbUUUJIIIIItUUkIIIIPIIrUwIIIIUjIIaUUIIIIIIbUUjIIuUgIIsUUUUUjIiUUUUUUUUUUUUUUUUUUUUUU 2222222222222UUUUO122222222UUUUUU#122222222UUU+22222UUU*22222U 222222222UUUUUUUUUUUUUUUUUU",
"UUUUUUUUUUUxIIIII4UUUKJGMaUUUUUSPGmUUUUUSGaUJII3UUCPImUAIIyUUUSPGMaUUUAIIrUzIIuUUUUUAItUUUUUUUUUUUUUUUUUUUUUU@22222222222UUUUUUUU>11222UUUUUUUUUU>11222UUUUU*22222UUU:22222U@222222222UUUUUUUUUUUUUUUUUU",
"UUUUUUUUUUUUUUUUUUUUUUUUUUUUUUUUUUUUUUUUUUUUUUUUUUUUUUUUUUUUUUUUUUUUUUUUUUUUUUUUUUUUUUUUUUUUUUUUUUUUUUUUUUUUUUUUUUUUUUUUUUUUUUUUUUUUUUUUUUUUUUUUUUUUUUUUUUUUUUUUUUUUUUUUUUUUUUUUUUUUUUUUUUUUUUUUUUUUUUUU",
"UUUUUUUUUUUUUUUUUUUUUUUUUUUUUUUUUUUUUUUUUUUUUUUUUUUUUUUUUUUUUUUUUUUUUUUUUUUUUUUUUUUUUUUUUUUUUUUUUUUUUUUUUUUUUUUUUUUUUUUUUUUUUUUUUUUUUUUUUUUUUUUUUUUUUUUUUUUUUUUUUUUUUUUUUUUUUUUUUUUUUUUUUUUUUUUUUUUUUUUU",
"UUUUUUUUUUUUUUUUUUUUUUUUUUUUUUUUUUUUUUUUUUUUUUUUUUUUUUUUUUUUUUUUUUUUUUUUUUUUUUUUUUUUUUUUUUUUUUUUUUUUUUUUUUUUUUUUUUUUUUUUUUUUUUUUUUUUUUUUUUUUUUUUUUUUUUUUUUUUUUUUUUUUUUUUUUUUUUUUUUUUUUUUUUUUUUUUUUUUUUUU",
"UUUUUUUUUUUUUUUUUUUUUUUUUUUUUUUUUUUUUUUUUUUUUUUUUUUUUUUUUUUUUUUUUUUUUUUUUUUUUUUUUUUUUUUUUUUUUUUUUUUUUUUUUUUU222222222222222222222222222222222222222222222222222222222222222222222222222222UUUUUUUUUUUUUU",
"UUUUUUUUUUUUUUUUUUUUUUUUUUUUUUUUUUUUUUUUUUUUUUUUUUUUUUUUUUUUUUUUUUUUUUUUUUUUUUUUUUUUUUUUUUUUUUUUUUUUUUUUUUUUUUUUUUUUUUUUUUUUUUUUUUUUUUUUUUUUUUUUUUUUUUUUUUUUUUUUUUUUUUUUUUUUUUUUUUUUUUUUUUUUUUUUUUUUUUUU",
"UUUUUUUUUUUUUUUUUUUUUUUUUUUUUUUUUUUUUUUUUUUUUUUUUUUUUUUUUUUUUUUUUUUUUUUUUUUUUUUUUUUUUUUUUUUUUUUUUUUUUUUUUUUUUUUUUUUUUUUUUUUUUUUUUUUUUUUUUUUUUUUUUUUUUUUUUUUUUUUUUUUUUUUUUUUUUUUUUUUUUUUUUUUUUUUUUUUUUUUU",
"UUUUUUUUUUUUUUUUUUUUUUUUUUUUUUUUUUUUUUUUUUUUUUUUUUUUUUUUUUUUUUUUUUUUUUUUUUUUUUUUUUUUUUUUUUUUUUUUUUUUUUUUUUUUUUUUUUUUUUUUUUUUUUUUUUUUUUUUUUUUUUUUUUUUUUUUUUUUUUUUUUUUUUUUUUUUUUUUUUUUUUUUUUUUUUUUUUUUUUUU",
"UUUUUUUUUUUUUUUUUUUUUUUUUUUUUUUUUUUUUUUUUUUUUUUUUUUUUUUUUUUUUUUUUUUUUUUUUUUUUUUUUUUUUUUUUUUUUUUUUUUUUUUUUUUUUUUUUUUUUUUUUUUUUUUUUUUUUUUUUUUUUUUUUUUUUUUUUUUUUUUUUUUUUUUUUUUUUUUUUUUUUUUUUUUUUUUUUUUUUUUU",
"UUUUUUUUUUUUUUUUUUUUUUUUUUUUUUUUUUUUUUUUUUUUUUUUUUUUUUUUUUUUUUUUUUUUUUUUUUUUUUUUUUUUUUUUUUUUUUUUUUUUUUUUUUUUUUUUUUUUUUUUUUUUUUUUUUUUUUUUUUUUUUUUUUUUUUUUUUUUUUUUUUUUUUUUUUUUUUUUUUUUUUUUUUUUUUUUUUUUUUUU",
"UUUUUUUUUUUUUUUUUUUUUUUUUUUUUUUUUUUUUUUUUUUUUUUUUUUUUUUUUUUUUUUUUUUUUUUUUUUUUUUUUUUUUUUUUUUUUUUUUUUUUUUUUUUUUUUUUUUUUUUUUUUUUUUUUUUUUUUUUUUUUUUUUUUUUUUUUUUUUUUUUUUUUUUUUUUUUUUUUUUUUUUUUUUUUUUUUUUUUUUU",
"UUUUUUUUUUUUUUUUUUUUUUUUUUUUUUUUUUUUUUUUUUUUUUUUUUUUUUUUUUUUUUUUUUUUUUUUUUUUUUUUUUUUUUUUUUUUUUUUUUUUUUUUUUUUUUUUUUUUUUUUUUUUUUUUUUUUUUUUUUUUUUUUUUUUUUUUUUUUUUUUUUUUUUUUUUUUUUUUUUUUUUUUUUUUUUUUUUUUUUUU",
"UUUUUUUUUUUUUUUUUUUUUUUUUUUUUUUUUUUUUUUUUUUUUUUUUUUUUUUUUUUUUUUUUUUUUUUUUUUUUUUUUUUUUUUUUUUUUUUUUUUUUUUUUUUUUUUUUUUUUUUUUUUUUUUUUUUUUUUUUUUUUUUUUUUUUUUUUUUUUUUUUUUUUUUUUUUUUUUUUUUUUUUUUUUUUUUUUUUUUUUU",
"UUUUUUUUUUUUUUUUUUUUUUUUUUUUUUUUUUUUUUUUUUUUUUUUUUUUUUUUUUUUUUUUUUUUUUUUUUUUUUUUUUUUUUUUUUUUUUUUUUUUUUUUUUUUUUUUUUUUUUUUUUUUUUUUUUUUUUUUUUUUUUUUUUUUUUUUUUUUUUUUUUUUUUUUUUUUUUUUUUUUUUUUUUUUUUUUUUUUUUUU",
"UUUUUUUUUUUUUUUUUUUUUUUUUUUUUUUUUUUUUUUUUUUUUUUUUUUUUUUUUUUUUUUUUUUUUUUUUUUUUUUUUUUUUUUUUUUUUUUUUUUUUUUUUUUUUUUUUUUUUUUUUUUUUUUUUUUUUUUUUUUUUUUUUUUUUUUUUUUUUUUUUUUUUUUUUUUUUUUUUUUUUUUUUUUUUUUUUUUUUUUU",
"UUUUUUUUUUUUUUUUUUUUUUUUUUUUUUUUUUUUUUUUUUUUUUUUUUUUUUUUUUUUUUUUUUUUUUUUUUUUUUUUUUUUUUUUUUUUUUUUUUUUUUUUUUUUUUUUUUUUUUUUUUUUUUUUUUUUUUUUUUUUUUUUUUUUUUUUUUUUUUUUUUUUUUUUUUUUUUUUUUUUUUUUUUUUUUUUUUUUUUUU"
};
