/* XPM */
static char *result[] = {
/* columns rows colors chars-per-pixel */
"200 50 73 1 ",
"  c #546B00",
". c #596D00",
"X c #676C00",
"o c #696C00",
"O c #726C00",
"+ c #7B6B00",
"@ c #846C00",
"# c #8C6C00",
"$ c #946C00",
"% c #9D6C00",
"& c #A36C00",
"* c #AB6C00",
"= c #B46C00",
"- c #BD6C00",
"; c #C16C00",
": c #CA6C00",
"> c #D46C00",
", c #DB6C00",
"< c #E56C00",
"1 c #EB6C00",
"2 c #F56C00",
"3 c #FF6C00",
"4 c #FFF155",
"5 c #FFF15A",
"6 c #FFF164",
"7 c #FFF169",
"8 c #FFF174",
"9 c #FFF179",
"0 c #5EF2FF",
"q c #66F1FF",
"w c #6FF2FF",
"e c #72F1FF",
"r c #79F1FF",
"t c #FFF183",
"y c #FFF189",
"u c #FFF194",
"i c #FFF19C",
"p c #FFF1A2",
"a c #FBF1AB",
"s c #FBF1B3",
"d c #FCF1BC",
"f c #80F2FF",
"g c #8EF1FF",
"h c #94F1FF",
"j c #9DF1FF",
"k c #ABF1F6",
"l c #A1F1FF",
"z c #AAF1FC",
"x c #B3F1F3",
"c c #B9F1F1",
"v c #B0F1FF",
"b c #BFF0FF",
"n c #FBF1C3",
"m c #FAF1CC",
"M c #FAF1D3",
"N c #F9F1DB",
"B c #C2F1F2",
"V c #CBF1F4",
"C c #C7F1FF",
"Z c #CCF1FF",
"A c #D4F1F2",
"S c #DAF1F2",
"D c #DAF1FF",
"F c #FCF1E3",
"G c #F6F1EC",
"H c #F9F1EC",
"J c #E3F1F3",
"K c #EBF1F1",
"L c #E2F1FE",
"P c #EAF2FA",
"I c #F2F1F2",
"U c #F8F1F1",
"Y c None",
/* pixels */
"YYYYYYYYYYYYYYYYYYYYYYYYYYYYYYYYYYYYYYYYYYYYYYYYYYYYYYYYYYYYYYYYYYYYYYYYYYYYYYYYYYYYYYYYYYYYYYYYYYYYYYYYYYYYYYYYYYYYYYYYYYYYYYYYYYYYYYYYYYYYYYYYYYYYYYYYYYYYYYYYYYYYYYYYYYYYYYYYYYYYYYYYYYYYYYYYYYYYYYYY",
"YYYYYYYYYYYYYYYYYYYYYYYYYYYYYYYYYYYYYYYYYYYYYYYYYYYYYYYYYYYYYYYYYYYYYYYYYYYYYYYYYYYYYYYYYYYYYYYYYYYYYYYYYYYYYYYYYYYYYYYYYYYYYYYYYYYYYYYYYYYYYYYYYYYYYYYYYYYYYYYYYYYYYYYYYYYYYYYYYYYYYYYYYYYYYYYYYYYYYYYY",
"YYYYYYYYYYYYYYYYYYYYYYYYYYYYYYYYYYYYYYYYYYYYYYYYYYYYYYYYYYYYYYYYYYYYYYYYYYYYYYYYYYYYYYYYYYYYYYYYYYYYYYYYYYYYYYYYYYYYYYYYYYYYYYYYYYYYYYYYYYYYYYYYYYYYYYYYYYYYYYYYYYYYYYYYYYYYYYYYYYYYYYYYYYYYYYYYYYYYYYYY",
"YYYYYYYYYYYYYYYYYYYYYYYYYYYYYYYYYYYYYYYYYYYYYYYYYYYYYYYYYYYYYYYYYYYYYYYYYYYYYYYYYYYYYYYYYYYYYYYYYYYYYYYYYYYYYYYYYYYYYYYYYYYYYYYYYYYYYYYYYYYYYYYYYYYYYYYYYYYYYYYYYYYYYYYYYYYYYYYYYYYYYYYYYYYYYYYYYYYYYYYY",
"YYYYYYYYYYYYYYYYYYYYYYYYYYYYYYYYYYYYYYYYYYYYYYYYYYYYYYYYYYYYYYYYYYYYYYYYYYYYYYYYYYYYYYYYYYYYYYYYYYYYYYYYYYYYYYYYYYYYYYYYYYYYYYYYYYYYYYYYYYYYYYYYYYYYYYYYYYYYYYYYYYYYYYYYYYYYYYYYYYYYYYYYYYYYYYYYYYYYYYYY",
"YYYYYYYYYYYYYYYYYYYYYYYYYYYYYYYYYYYYYYYYYYYYYYYYYYYYYYYYYYYYYYYYYYYYYYYYYYYYYYYYYYYYYYYYYYYYYYYYYYYYYYYYYYYYYYYYYYYYYYYYYYYYYYYYYYYYYYYYYYYYYYYYYYYYYYYYYYYYYYYYYYYYYYYYYYYYYYYYYYYYYYYYYYYYYYYYYYYYYYYY",
"YYYYYYYYYYYYYYYYYYYYYYYYYYYYYYYYYYYYYYYYYYYYYYYYYYYYYYYYYYYYYYYYYYYYYYYYYYYYYYYYYYYYYYYYYYYYYYYYYYYYYYYYYYYYYYYYYYYYYYYYYYYYYYYYYYYYYYYYYYYYYYYYYYYYYYYYYYYYYYYYYYYYYYYYYYYYYYYYYYYYYYYYYYYYYYYYYYYYYYYY",
"YYYYYYYYYYYYYYYYYYYYYYYYYYYYYYYYYYYYYYYYYYYYYYYYYYYYYYYYYYYYYYYYYYYYYYYYYYYYYYYYYYYYYYYYYYYYYYYYYYYYYYYYYYYYYYYYYYYYYYYYYYYYYYYYYYYYYYYYYYYYYYYYYYYYYYYYYYYYYYYYYYYYYYYYYYYYYYYYYYYYYYYYYYYYYYYYYYYYYYYY",
"YYYYYYYYYYYYYYYYYYYYYYYYYYYYYYYYYYYYYYYYYYYYYYYYYYYYYYYYYYYYYYYYYYYYYYYYYYYYYYYYYYYYYYYYYYYYYYYYYYYYYYYYYYYYYYYYYYYYYYYYYYYYYYYYYYYYYYYYYYYYYYYYYYYYYYYYYYYYYYYYYYYYYYYYYYYYYYYYYYYYYYYYYYYYYYYYYYYYYYYY",
"YYYYYYYYYYYYYYYYYYYYYYYYYYYYYYYYYYYYYYYYYYYYYYYYYYYYYYYYYYYYYYYYYYYYYYYYYYYYYYYYYYYYYYYYYYYYYYYYYYYYYYYYYYYYYYYYYYYYYYYYYYYYYYYYYYYYYYYYYY<<3YYYYYYYYY<<3YYYYYYYYYYYYYY<<3YYYYYYYYYYYYYYYYYYYYYYYYYYYYYY",
"YYYYYYYYYYYYYYYYYYYYYYYYYYYYYYYYYYYYYYYYYYYYYYYYYYYYYYYYYYYYYYYYYYYYYYYYYYYYYYYYYYYYYYYYYYYYYYYYYYYYYYYYYYYYYYYYYYYYYYYYYYYYYYYYYYYYYYYYYY<<3YYYYYYYYY<<3YYYYYYYYYYYYYY<<3YYYYYYYYYYYYYYYYYYYYYYYYYYYYYY",
"YYYYYYYYYYYYYYYYYYYYYYYYYYYYYYYYYYYYYYYYYYYYYYYYYYYYYYYYYYYYYYYYYYYYYYYYYYYYYYYYYYYYYYYYYYYYYYYYYYYYYYYYYYYYYYYYYYYYYYYYYYYYYYYYYYYYYYYYYY<<3YYYYYYYYYYYYYYYYYYYYYYYYYY<<3YYYYYYYYYYYYYYYYYYYYYYYYYYYYYY",
"YYYYYYYYYYYYYYYYYYYYYYYYYYYYYYYYYYYYYYYYYYYYYYYYYYYYYYYYYYYYYYYYYYYYYYYYYYYYYYYYYYYYYYYYYYYYYYYYYYYYYYYYYYYYYYYYYYY-,13YYYY-,13YYY<<3Y<<3Y<<3YY-,13YYY<<3Y<<3+3YYYY%,3*<<3YY-,13YYYYYYYYYYYYYYYYYYYYYYYY",
"YYYYYYYYYYYYYYYYYYYYYYYYYYYYYYYYYYYYYYYYYYYYYYYYYYYYYYYYYYYYYYYYYYYYYYYYYYYYYYYYYYYYYYYYYYYYYYYYYYYYYYYYYYYYYYYYYY;<<<<2YY=<<<<<YY<<3Y<<3Y<<3Y=<<<<<YY<<3Y<<3>3YYYY<<<<<<3Y-<<<<<YYYYYYYYYYYYYYYYYYYYYYY",
"YYYYYYYYYYYYYYYYYYYYYYYYYYYYYYYYYYYYYYYYYYYYYYYYYYYYYYYYYYYYYYYYYYYYYYYYYYYYYYYYYYYYYYYYYYYYYYYYYYYYYYYYYYYYYYYYYY<<3X<<YY<<3X<<3Y<<3Y<<3Y<<3Y<<3o<<3Y<<3Y<<<<3YYY <<3Y<<3Y<<3.<<3YYYYYYYYYYYYYYYYYYYYYY",
"YYYYYYYYYYYYYYYYYYYYYYYYYYYYYYYYYYYYYYYYYYYYYYYYYYYYYYYYYYYYYYYYYYYYYYYYYYYYYYYYYYYYYYYYYYYYYYYYYYYYYYYYYYYYYYYYY.<<3Y<<3 <<3Y<<3Y<<3Y<<3Y<<3@<<3Y<<3Y<<3Y<<2YYYYY.<<3Y<<3O<<<<<<3YYYYYYYYYYYYYYYYYYYYYY",
"YYYYYYYYYYYYYYYYYYYYYYYYYYYYYYYYYYYYYYYYYYYYYYYYYYYYYYYYYYYYYYYYYYYYYYYYYYYYYYYYYYYYYYYYYYYYYYYYYYYYYYYYYYYYYYYYY.<<3YYYY.<<3Y<<3Y<<3Y<<3Y<<3@<<3Y<<3Y<<3Y<<3YYYYY.<<3Y<<3O<<<<<<3YYYYYYYYYYYYYYYYYYYYYY",
"YYYYYYYYYYYYYYYYYYYYYYYYYYYYYYYYYYYYYYYYYYYYYYYYYYYYYYYYYYYYYYYYYYYYYYYYYYYYYYYYYYYYYYYYYYYYYYYYYYYYYYYYYYYYYYYYY.<<3Y,<3.<<3Y<<3Y<<3Y<<3Y<<3@<<3Y<<3Y<<3Y<<3YYYYY.<<3Y<<3O<<3YYYYYYYYYYYYYYYYYYYYYYYYYY",
"YYYYYYYYYYYYYYYYYYYYYYYYYYYYYYYYYYYYYYYYYYYYYYYYYYYYYYYYYYYYYYYYYYYYYYYYYYYYYYYYYYYYYYYYYYYYYYYYYYYYYYYYYYYYYYYYY <<3Y,<Y.<<3Y<<3Y<<3Y<<3Y<<3@<<3Y<<3Y<<3Y<<3YYYYY.<<3Y<<3O<<3Y,<3YYYYYYYYYYYYYYYYYYYYYY",
"YYYYYYYYYYYYYYcUUaYYYYYYYYYYYYYYYYYYYYYYYYYYYYYYYYYYYYYYYYSUUuYYYYYYYYYYYYYYYYYYYYYYYYYYYYYYYYYYYYYYYYYYYYYYYYYYYY<<3Y<<YY<<3o<<3Y<<3Y<<3Y<<3Y<<3o<<3Y<<3Y<<3YYYYY <<3Y<<3Y<<3Y<<3YYYYYYYYYYYYYYYYYYYYYY",
"YYYYYYYYYYYYYYKUUuYYYYYYYYYYYYYYYYYYYYYYYYYYYYYYYYYYSUUyYYUUU9YYYYYYYYYYYYYYYYYYYYYYYYYYYYYYYYYYYYYYYYYYYYYYYYYYYY=<<<<3YY-<<<<<YY<<<<<<3Y<<3Y-<<<<<YY<<3Y<<3YYYYYY<<<<<<3Y=<<<<<YYYYYYYYYYYYYYYYYYYYYYY",
"YYYYYYYYYYYYYYUUU8YYYYYYYYYYYYYYYYYYYYYYYYYYYYYYYYYYUUU6YYYYYYYYYYYYYYYYYYYYYYYYYYYYYYYYYYYYYYYYYYYYYYYYYYYYYYYYYYY;<13YYYY:,13YYY$>3=<<3Y<<3YY:,13YYY<<3Y<<3YYYYYY%,3&<<3YY-><3YYYYYYYYYYYYYYYYYYYYYYYY",
"YYYYYYYYYYYYYfUUUYYYYYYCPUFnYYYYYCPGFsYYYYYZPUHmYYYUUUUGYhUUFYYYCPUFnYYYhUUMYZKMYYYYYYYYYYYYYYYYYYYYYYYYYYYYYYYYYYYYYYYYYYYYYYYYYYYYYYYYYYYYYYYYYYYYYYYYYYYYYYYYYYYYYYYYYYYYYYYYYYYYYYYYYYYYYYYYYYYYYYYY",
"YYYYYYYYYYYYYjUUNYYYYYSUUUUUnYYYJUUUUUiYYYKUUUHUdYrUUUUNYkUUsYYSUUUUUdYYkUUHUUUUuYYYYYYYYYYYYYYYYYYYYYYYYYYYYYYYYYYYYYYYYYYYYYYYYYYYYYYYYYYYYYYYYYYYYYYYYYYYYYYYYYYYYYYYYYYYYYYYYYYYYYYYYYYYYYYYYYYYYYYY",
"YYYYYYYYYYYYYcUUaYYYYzUUyYIUUYYBUUyYIUMYYAUGYeUUHYYkUUpYYSUUuYvUUyYIUUYYSUUiYVUUuYYYYYYYYYYYYYYYYYYYYYYYYYYYYYYYYYYYYYYYYYYYYYYYYYYYYYYYYYYYYYYYYYYYYYYYYYYYYYYYYYYYYYYYYYYYYYYYYYYYYYYYYYYYYYYYYYYYYYYY",
"YYYYYYYYYYYYYKUUuYYYYUUUYYUUUYYUUUYYUUNY0UUnYeUUNYYSUUyYYUUU9YUUUYYUUUYYUUU6YKUU9YYYYYUU7YYYYYYYYYYYYYYYYYYYYYYYYYYYYYYYYYYYYYYYYYYYYYYYYYYYYYYYYYYYYYYYYYYYYYYYYYYYYYYYYYYYYYYYYYYYYYYYYYYYYYYYYYYYYYYY",
"YYYYYYYYYYYYYUUU8YYYfUUNYeUUHYfUUNYeUUsYgUUiYzUUdYYUUU6YeUUUYfUUNYeUUHYeUUHYYUUU5YYYYwUUYYYYYYYYYYYYYYYYYYYYYYYYYYYYYYYYYYYYYYYYYYYYYYYYYYYYYYYYYYYYYYYYYYYYYYYYYYYYYYYYYYYYYYYYYYYYYYYYYYYYYYYYYYYYYYYY",
"YYYYYYYYYYYYfUUUYYYYjUHaYhUUnYlUUaYYYYYYYYYCDUUUiYeUUHYYgUUFYjUUaYhUGnYhUUmYeUUGYYYYYhUMYYYYYYYYYYYYYYYYYYYYYYYYYYYYYYYYYYYYYYYYYYYYYYYYYYYYYYYYYYYYYYYYYYYYYYYYYYYYYYYYYYYYYYYYYYYYYYYYYYYYYYYYYYYYYYYY",
"YYYYYYYYYYYYjUUNYYYYBUUuYxUUiYBUUuYYYYYYYCIUUUUUtYhUUmYYkUUsYBUUuYxUUiYkUUpYhUUdYYYYYYYYYYYYYYYYYYYYYYYYYYYYYYYYYYYYYYYYYYYYYYYYYYYYYYYYYYYYYYYYYYYYYYYYYYYYYYYYYYYYYYYYYYYYYYYYYYYYYYYYYYYYYYYYYYYYYYYY",
"YYYYYYYYYYYYcUUaYYYYIUU8YSUUtYKUU8YkUU4YVUUiYUUU5YkUUpYYSUUuYIUU8YSUUtYSUUtYcUUiYYYYYYYYYYYYYYYYYYYYYYYYYYYYYYYYYYYYYYYYYYYYYYYYYYYYYYYYYYYYYYYYYYYYYYYYYYYYYYYYYYYYYYYYYYYYYYYYYYYYYYYYYYYYYYYYYYYYYYYY",
"YYYYYYYYYYYYKUUuYYYYUUUYYUUU4YUUIYYSUFY0UUMYeUUGYYSUUyYYUUU9YUUUYYUUU4YUUU6YJUUtYYYYYYYYYYYYYYYYYYYYYYYYYYYYYYYYYYYY<<3YYYYYYYYYYYYYYYYYYYYYYYYYYYYYYYYYYYYYYYYYYYYYYYYYYYYYYYYYYYYYYYYYYYYYYYYYYYYYYYYY",
"YYYYYYYYYYYYUGU8YYYrUUNYeUUNYeUUNYYUUpYgUUiYhUUdYYUUU6YeUUUYrUUNYeUUNYeUUGYYUUU4YYYYYYYYYYYYYYYYYYYYYYYYYYYYYYYYYYYY<<3YYYYYYYYYYYYYYYYYYYYYYYYYYYYYYYYYYYYYYYYYYYYYY%<<YYYYYYYYYYYYYYYYYYYYYYYYYYYYYYYY",
"YYYYYYYYYYYfUUUUUiYfUUmYzUUuYeUUMYhUH5YlUUiYBUUiYqUUUYYhUUFYrUUnYzUUuYhUUmYrUUHYYYYYhUMYYYYYYYYYYYYYYYYYYYYYYYYYYYYY<<3YYYYYYYYYYYYYYYYYYYYYYYYYYYYYYYYYYYYYYYYYYYYYY&<<YYYYYYYYYYYYYYYYYYYYYYYYYYYYYYYY",
"YYYYYYYYYYYjUUUUUtYYIUUUUUnYYYKUUUUUyYYlUUUUIUUtYeUUUUYkUUsYYUUUUUUnYYkUUiYhUUdYYYYYkUpYYYYYYYYYYYYYYYYYYYYYYYYYYYYY<<3YY;,13YYYYYY<<3@,3Y+>3YY<<3Y<<3YY;,13YYY<<3+3+<<<<YY-,13YYYYYYYYYYYYYYYYYYYYYYYYY",
"YYYYYYYYYYYcUUUUU5YYYLKHNsYYYYYDIHMYYYYYDHsYKUU4YYZIUMYSUUuYYYDIHNsYYYSUUtYxUUiYYYYYSUyYYYYYYYYYYYYYYYYYYYYYYYYYYYYY<<3Y:<<<<<YYYYY<<1,<<2><<3Y<<3Y<<3Y-<<<<<YY<<3>3+<<<<Y-<<<<<YYYYYYYYYYYYYYYYYYYYYYYY",
"YYYYYYYYYYYYYYYYYYYYYYYYYYYYYYYYYYYYYYYYYYYYYYYYYYYYYYYYYYYYYYYYYYYYYYYYYYYYYYYYYYYYYYYYYYYYYYYYYYYYYYYYYYYYYYYYYYYY<<3@<<Y+<<YYYYY<<3Y<<3Y<<3Y<<3Y<<3Y<<3.<<3Y<<<<3Y%<<YY<<3.<<3YYYYYYYYYYYYYYYYYYYYYYY",
"YYYYYYYYYYYYYYYYYYYYYYYYYYYYYYYYYYYYYYYYYYYYYYYYYYYYYYYYYYYYYYYYYYYYYYYYYYYYYYYYYYYYYYYYYYYYYYYYYYYYYYYYYYYYYYYYYYYY<<3#<<Y+<<3YYYY<<3Y<<3Y><3Y<<3Y<<3+<<<<<<3Y<<2YYY%<<Y <<<<<<3YYYYYYYYYYYYYYYYYYYYYYY",
"YYYYYYYYYYYYYYYYYYYYYYYYYYYYYYYYYYYYYYYYYYYYYYYYYYYYYYYYYYYYYYYYYYYYYYYYYYYYYYYYYYYYYYYYYYYYYYYYYYYYYYYYYYYYYYYYYYYY<<3YYY-,<<3YYYY<<3Y<<3Y><3Y<<3Y<<3@<<<<<<3Y<<3YYY%<<Y.<<<<<<3YYYYYYYYYYYYYYYYYYYYYYY",
"YYYYYYYYYYYYYYYYYYYYYYYYYYYYYYYYYYYYYYYYYYYYYYYYYYYYYYYYYYYYYYYYYYYYYYYYYYYYYYYYYYYYYYYYYYYYYYYYYYYYYYYYYYYYYYYYYYYY<<3Y-<2><<3YYYY<<3Y<<3Y><3Y<<3Y<<3@<<3YYYYY<<3YYY%<<Y.<<3YYYYYYYYYYYYYYYYYYYYYYYYYYY",
"YYYYYYYYYYYYYYYYYYYYYYYYYYYYYYYYYYYYYYYYYYYYYYYYYYYYYYYYYYYYYYYYYYYYYYYYYYYYYYYYYYYYYYYYYYYYYYYYYYYYYYYYYYYYYYYYYYYY<<3@<<Yo<<3YYYY<<3Y<<3Y><3Y<<3Y<<3@<<3Y,<3Y<<3YYY%<<Y <<3Y,<3YYYYYYYYYYYYYYYYYYYYYYY",
"YYYYYYYYYYYYYYYYYYYYYYYYYYYYYYYYYYYYYYYYYYYYYYYYYYYYYYYYYYYYYYYYYYYYYYYYYYYYYYYYYYYYYYYYYYYYYYYYYYYYYYYYYYYYYYYYYYYY<<3#<<Y+<<3YYYY<<3Y<<3Y><3Y<<3Y<<3Y<<3Y<<3Y<<3YYY%<<YY<<3Y<<3YYYYYYYYYYYYYYYYYYYYYYY",
"YYYYYYYYYYYYYYYYYYYYYYYYYYYYYYYYYYYYYYYYYYYYYYYYYYYYYYYYYYYYYYYYYYYYYYYYYYYYYYYYYYYYYYYYYYYYYYYYYYYYYYYYYYYYYYYYYYYY<<3Y<<<<<<3YYYY<<3Y<<3Y><3Y<<<<<<3Y=<<<<<YY<<3YYY$<<<Y=<<<<<YYYYYYYYYYYYYYYYYYYYYYYY",
"YYYYYYYYYYYYYYYYYYYYYYYYYYYYYYYYYYYYYYYYYYYYYYYYYYYYYYYYYYYYYYYYYYYYYYYYYYYYYYYYYYYYYYYYYYYYYYYYYYYYYYYYYYYYYYYYYYYY<<3Y&,3*<<3YYYY<<3Y<<3Y><3Y$,3=<<3YY-,<2YYY<<3YYYY:<<YY-,<2YYYYYYYYYYYYYYYYYYYYYYYYY",
"YYYYYYYYYYYYYYYYYYYYYYYYYYYYYYYYYYYYYYYYYYYYYYYYYYYYYYYYYYYYYYYYYYYYYYYYYYYYYYYYYYYYYYYYYYYYYYYYYYYYYYYYYYYYYYYYYYYYYYYYYYYYYYYYYYYYYYYYYYYYYYYYYYYYYYYYYYYYYYYYYYYYYYYYYYYYYYYYYYYYYYYYYYYYYYYYYYYYYYYY",
"YYYYYYYYYYYYYYYYYYYYYYYYYYYYYYYYYYYYYYYYYYYYYYYYYYYYYYYYYYYYYYYYYYYYYYYYYYYYYYYYYYYYYYYYYYYYYYYYYYYYYYYYYYYYYYYYYYYYYYYYYYYYYYYYYYYYYYYYYYYYYYYYYYYYYYYYYYYYYYYYYYYYYYYYYYYYYYYYYYYYYYYYYYYYYYYYYYYYYYYY",
"YYYYYYYYYYYYYYYYYYYYYYYYYYYYYYYYYYYYYYYYYYYYYYYYYYYYYYYYYYYYYYYYYYYYYYYYYYYYYYYYYYYYYYYYYYYYYYYYYYYYYYYYYYYYYYYYYYYYYYYYYYYYYYYYYYYYYYYYYYYYYYYYYYYYYYYYYYYYYYYYYYYYYYYYYYYYYYYYYYYYYYYYYYYYYYYYYYYYYYYY",
"YYYYYYYYYYYYYYYYYYYYYYYYYYYYYYYYYYYYYYYYYYYYYYYYYYYYYYYYYYYYYYYYYYYYYYYYYYYYYYYYYYYYYYYYYYYYYYYYYYYYYYYYYYYYYYYYYYYYYYYYYYYYYYYYYYYYYYYYYYYYYYYYYYYYYYYYYYYYYYYYYYYYYYYYYYYYYYYYYYYYYYYYYYYYYYYYYYYYYYYY",
"YYYYYYYYYYYYYYYYYYYYYYYYYYYYYYYYYYYYYYYYYYYYYYYYYYYYYYYYYYYYYYYYYYYYYYYYYYYYYYYYYYYYYYYYYYYYYYYYYYYYYYYYYYYYYYYYYYYYYYYYYYYYYYYYYYYYYYYYYYYYYYYYYYYYYYYYYYYYYYYYYYYYYYYYYYYYYYYYYYYYYYYYYYYYYYYYYYYYYYYY",
"YYYYYYYYYYYYYYYYYYYYYYYYYYYYYYYYYYYYYYYYYYYYYYYYYYYYYYYYYYYYYYYYYYYYYYYYYYYYYYYYYYYYYYYYYYYYYYYYYYYYYYYYYYYYYYYYYYYYYYYYYYYYYYYYYYYYYYYYYYYYYYYYYYYYYYYYYYYYYYYYYYYYYYYYYYYYYYYYYYYYYYYYYYYYYYYYYYYYYYYY",
"YYYYYYYYYYYYYYYYYYYYYYYYYYYYYYYYYYYYYYYYYYYYYYYYYYYYYYYYYYYYYYYYYYYYYYYYYYYYYYYYYYYYYYYYYYYYYYYYYYYYYYYYYYYYYYYYYYYYYYYYYYYYYYYYYYYYYYYYYYYYYYYYYYYYYYYYYYYYYYYYYYYYYYYYYYYYYYYYYYYYYYYYYYYYYYYYYYYYYYYY"
};
