/* XPM */
static char *result[] = {
/* columns rows colors chars-per-pixel */
"200 50 75 1 ",
"  c #00FF46",
". c #00FF4D",
"X c #00FF54",
"o c #00FF5C",
"O c #00FF66",
"+ c #00FF6A",
"@ c #00FF74",
"# c #00FF7C",
"$ c #FFF155",
"% c #FFF15A",
"& c #FFF164",
"* c #FFF169",
"= c #FFF174",
"- c #FFF179",
"; c #00FF84",
": c #00FF8A",
"> c #00FF93",
", c #00FF9C",
"< c #00FFA5",
"1 c #00FFAC",
"2 c #00FFB4",
"3 c #00FFBC",
"4 c #00FFC4",
"5 c #00FFCB",
"6 c #00FFD4",
"7 c #00FFDA",
"8 c #00FFE4",
"9 c #00FFEA",
"0 c #00FFF4",
"q c #00FFFC",
"w c #5EF2FF",
"e c #66F1FF",
"r c #6FF2FF",
"t c #72F1FF",
"y c #79F1FF",
"u c #FFF183",
"i c #FFF189",
"p c #FFF194",
"a c #FFF19C",
"s c #FFF1A2",
"d c #FBF1AB",
"f c #FBF1B3",
"g c #FCF1BC",
"h c #80F2FF",
"j c #8EF1FF",
"k c #94F1FF",
"l c #9DF1FF",
"z c #ABF1F6",
"x c #A1F1FF",
"c c #AAF1FC",
"v c #B3F1F3",
"b c #B9F1F1",
"n c #B0F1FF",
"m c #BFF0FF",
"M c #FBF1C3",
"N c #FAF1CC",
"B c #FAF1D3",
"V c #F9F1DB",
"C c #C2F1F2",
"Z c #CBF1F4",
"A c #C7F1FF",
"S c #CCF1FF",
"D c #D4F1F2",
"F c #DAF1F2",
"G c #DAF1FF",
"H c #FCF1E3",
"J c #F6F1EC",
"K c #F9F1EC",
"L c #E3F1F3",
"P c #EBF1F1",
"I c #E2F1FE",
"U c #EAF2FA",
"Y c #F2F1F2",
"T c #F8F1F1",
"R c None",
/* pixels */
"RRRRRRRRRRRRRRRRRRRRRRRRRRRRRRRRRRRRRRRRRRRRRRRRRRRRRRRRRRRRRRRRRRRRRRRRRRRRRRRRRRRRRRRRRRRRRRRRRRRRRRRRRRRRRRRRRRRRRRRRRRRRRRRRRRRRRRRRRRRRRRRRRRRRRRRRRRRRRRRRRRRRRRRRRRRRRRRRRRRRRRRRRRRRRRRRRRRRRRRR",
"RRRRRRRRRRRRRRRRRRRRRRRRRRRRRRRRRRRRRRRRRRRRRRRRRRRRRRRRRRRRRRRRRRRRRRRRRRRRRRRRRRRRRRRRRRRRRRRRRRRRRRRRRRRRRRRRRRRRRRRRRRRRRRRRRRRRRRRRRRRRRRRRRRRRRRRRRRRRRRRRRRRRRRRRRRRRRRRRRRRRRRRRRRRRRRRRRRRRRRRR",
"RRRRRRRRRRRRRRRRRRRRRRRRRRRRRRRRRRRRRRRRRRRRRRRRRRRRRRRRRRRRRRRRRRRRRRRRRRRRRRRRRRRRRRRRRRRRRRRRRRRRRRRRRRRRRRRRRRRRRRRRRRRRRRRRRRRRRRRRRRRRRRRRRRRRRRRRRRRRRRRRRRRRRRRRRRRRRRRRRRRRRRRRRRRRRRRRRRRRRRRR",
"RRRRRRRRRRRRRRRRRRRRRRRRRRRRRRRRRRRRRRRRRRRRRRRRRRRRRRRRRRRRRRRRRRRRRRRRRRRRRRRRRRRRRRRRRRRRRRRRRRRRRRRRRRRRRRRRRRRRRRRRRRRRRRRRRRRRRRRRRRRRRRRRRRRRRRRRRRRRRRRRRRRRRRRRRRRRRRRRRRRRRRRRRRRRRRRRRRRRRRRR",
"RRRRRRRRRRRRRRRRRRRRRRRRRRRRRRRRRRRRRRRRRRRRRRRRRRRRRRRRRRRRRRRRRRRRRRRRRRRRRRRRRRRRRRRRRRRRRRRRRRRRRRRRRRRRRRRRRRRRRRRRRRRRRRRRRRRRRRRRRRRRRRRRRRRRRRRRRRRRRRRRRRRRRRRRRRRRRRRRRRRRRRRRRRRRRRRRRRRRRRRR",
"RRRRRRRRRRRRRRRRRRRRRRRRRRRRRRRRRRRRRRRRRRRRRRRRRRRRRRRRRRRRRRRRRRRRRRRRRRRRRRRRRRRRRRRRRRRRRRRRRRRRRRRRRRRRRRRRRRRRRRRRRRRRRRRRRRRRRRRRRRRRRRRRRRRRRRRRRRRRRRRRRRRRRRRRRRRRRRRRRRRRRRRRRRRRRRRRRRRRRRRR",
"RRRRRRRRRRRRRRRRRRRRRRRRRRRRRRRRRRRRRRRRRRRRRRRRRRRRRRRRRRRRRRRRRRRRRRRRRRRRRRRRRRRRRRRRRRRRRRRRRRRRRRRRRRRRRRRRRRRRRRRRRRRRRRRRRRRRRRRRRRRRRRRRRRRRRRRRRRRRRRRRRRRRRRRRRRRRRRRRRRRRRRRRRRRRRRRRRRRRRRRR",
"RRRRRRRRRRRRRRRRRRRRRRRRRRRRRRRRRRRRRRRRRRRRRRRRRRRRRRRRRRRRRRRRRRRRRRRRRRRRRRRRRRRRRRRRRRRRRRRRRRRRRRRRRRRRRRRRRRRRRRRRRRRRRRRRRRRRRRRRRRRRRRRRRRRRRRRRRRRRRRRRRRRRRRRRRRRRRRRRRRRRRRRRRRRRRRRRRRRRRRRR",
"RRRRRRRRRRRRRRRRRRRRRRRRRRRRRRRRRRRRRRRRRRRRRRRRRRRRRRRRRRRRRRRRRRRRRRRRRRRRRRRRRRRRRRRRRRRRRRRRRRRRRRRRRRRRRRRRRRRRRRRRRRRRRRRRRRRRRRRRRRRRRRRRRRRRRRRRRRRRRRRRRRRRRRRRRRRRRRRRRRRRRRRRRRRRRRRRRRRRRRRR",
"RRRRRRRRRRRRRRRRRRRRRRRRRRRRRRRRRRRRRRRRRRRRRRRRRRRRRRRRRRRRRRRRRRRRRRRRRRRRRRRRRRRRRRRRRRRRRRRRRRRRRRRRRRRRRRRRRRRRRRRRRRRRRRRRRRRRRRRRRRRRRRRRRRRRRRRRRRRRRRRRRRRRRRRRRRRRRRRRRRRRRRRRRRRRRRRRRRRRRRRR",
"RRRRRRRRRRRRRRRRRRRRRRRRRRRRRRRRRRRRRRRRRRRRRRRRRRRRRRRRRRRRRRRRRRRRRRRRRRRRRRRRRRRRRRRRRRRRRRRRRRRRRRRRRRRRRRRRRRRRRRRRRRRRRRRRRRRRRRRRRRRRRRRRRRRRRRRRRRRRRRRRRRRRRRRRRRRRRRRRRRRRRRRRRRRRRRRRRRRRRRRR",
"RRRRRRRRRRRRRRRRRRRRRRRRRRRRRRRRRRRRRRRRRRRRRRRRRRRRRRRRRRRRRRRRRRRRRRRRRRRRRRRRRRRRRRRRRRRRRRRRRRRRRRRRRRRRRRRRRRRRRRRRRRRRRRRRRRRRRRRRRRRRRRRRRRRRRRRRRRRRRRRRRRRRRRRRRRRRRRRRRRRRRRRRRRRRRRRRRRRRRRRR",
"RRRRRRRRRRRRRRRRRRRRRRRRRRRRRRRRRRRRRRRRRRRRRRRRRRRRRRRRRRRRRRRRRRRRRRRRRRRRRRRRRRRRRRRRRRRRRRRRRRRRRRRRRRRRRRRRRRRRRRRRRRRRRRRRRRRRRRRRRRRRRRRRRRRRRRRRRRRRRRRRRRRRRRRRRRRRRRRRRRRRRRRRRRRRRRRRRRRRRRRR",
"RRRRRRRRRRRRRRRRRRRRRRRRRRRRRRRRRRRRRRRRRRRRRRRRRRRRRRRRRRRRRRRRRRRRRRRRRRRRRRRRRRRRRRRRRRRRRRRRRRRRRRRRRRRRRRRRRRRRRRRRRRRRRRRRRRRRRRRRRRRRRRRRRRRRRRRRRRRRRRRRRRRRRRRRRRRRRRRRRRRRRRRRRRRRRRRRRRRRRRRR",
"RRRRRRRRRRRRRRRRRRRRRRRRRRRRRRRRRRRRRRRRRRRRRRRRRRRRRRRRRRRRRRRRRRRRRRRRRRRRRRRRRRRRRRRRRRRRRRRRRRRRRRRRRRRRRRRRRRRRRRRRRRRRRRRRRRRRRRRRRRRRRRRRRRRRRRRRRRRRRRRRRRRRRRRRRRRRRRRRRRRRRRRRRRRRRRRRRRRRRRRR",
"RRRRRRRRRRRRRRRRRRRRRRRRRRRRRRRRRRRRRRRRRRRRRRRRRRRRRRRRRRRRRRRRRRRRRRRRRRRRRRRRRRRRRRRRRRRRRRRRRRRRRRRRRRRRRRRRRRRRRRRRRRRRRRRRRRRRRRRRRRRRRRRRRRRRRRRRRRRRRRRRRRRRRRRRRRRRRRRRRRRRRRRRRRRRRRRRRRRRRRRR",
"RRRRRRRRRRRRRRRRRRRRRRRRRRRRRRRRRRRRRRRRRRRRRRRRRRRRRRRRRRRRRRRRRRRRRRRRRRRRRRRRRRRRRRRRRRRRRRRRRRRRRRRRRRRRRRRRRRRRRRRRRRRRRRRRRRRRRRRRRRRRRRRRRRRRRRRRRRRRRRRRRRRRRRRRRRRRRRRRRRRRRRRRRRRRRRRRRRRRRRRR",
"RRRRRRRRRRRRRRRRRRRRRRRRRRRRRRRRRRRRRRRRRRRRRRRRRRRRRRRRRRRRRRRRRRRRRRRRRRRRRRRRRRRRRRRRRRRRRRRRRRRRRRRRRRRRRRRRRRRRRRRRRRRRRRRRRRRRRRRRRRRRRRRRRRRRRRRRRRRRRRRRRRRRRRRRRRRRRRRRRRRRRRRRRRRRRRRRRRRRRRRR",
"RRRRRRRRRRRRRRRRRRRRRRRRRRRRRRRRRRRRRRRRRRRRRRRRRRRRRRRRRRRRRRRRRRRRRRRRRRRRRRRRRRRRRRRRRRRRRRRRRRRRRRRRRRRRRRRRRRRRRRRRRRRRRRRRRRRRRRRRRRRRRRRRRRRRRRRRRRRRRRRRRRRRRRRRRRRRRRRRRRRRRRRRRRRRRRRRRRRRRRRR",
"RRRRRRRRRRRRRRbTTdRRRRRRRRRRRRRRRRRRRRRRRRRRRRRRRRRRRRRRRRFTTpRRRRRRRRRRRRRRRRRRRRRRRRRRRRRRRRRRRRRRRRRRRR86541RRRR555;RRRR555#R7551RRRq7542>RR95555555,R555555+R5555442RRRRRRRRR96544<RRRRRRRRRRRRRRRRR",
"RRRRRRRRRRRRRRPTTpRRRRRRRRRRRRRRRRRRRRRRRRRRRRRRRRRRFTTiRRTTT-RRRRRRRRRRRRRRRRRRRRRRRRRRRRRRRRRRRRRRRRRRR5555553RRR555;RRRR555#R7551RR9555555:R85555555<R555555OR55555553RRRRRRR8555555<RRRRRRRRRRRRRRRR",
"RRRRRRRRRRRRRRTTT=RRRRRRRRRRRRRRRRRRRRRRRRRRRRRRRRRRTTT&RRRRRRRRRRRRRRRRRRRRRRRRRRRRRRRRRRRRRRRRRRRRRRRR75555555,RR555;RRRR555;R6551RR55555555R95555555,R555555+R55555555#RRRRRR555+R555oRRRRRRRRRRRRRRR",
"RRRRRRRRRRRRRhTTTRRRRRRAUTHMRRRRRAUJHfRRRRRSUTKNRRRTTTTJRkTTHRRRAUTHMRRRkTTBRSPBRRRRRRRRRRRRRRRRRRRRRRRR555:Rq554RR555;RRRR555#R7551RR555.R555RRRR555ORRR555;RRRR555;R755;RRRRRR555.R555+RRRRRRRRRRRRRRR",
"RRRRRRRRRRRRRlTTVRRRRRFTTTTTMRRRLTTTTTaRRRPTTTKTgRyTTTTVRzTTfRRFTTTTTgRRzTTKTTTTpRRRRRRRRRRRRRRRRRRRRRRR555#Rq555RR555;RRRR555#R7551RR555RR555.RRR555ORRR555;RRRR555;Rq55:RRRRRR555.R555+RRRRRRRRRRRRRRR",
"RRRRRRRRRRRRRbTTdRRRRcTTiRYTTRRCTTiRYTBRRDTJRtTTKRRzTTsRRFTTpRnTTiRYTTRRFTTaRZTTpRRRRRRRRRRRRRRRRRRRRRRR555#Rq555RR555;RRRR555#R7551RR555XRRRRRRRR555ORRR555;RRRR555;R755;RRRRRRRRRRR553RRRRRRRRRRRRRRRR",
"RRRRRRRRRRRRRPTTpRRRRTTTRRTTTRRTTTRRTTVRwTTMRtTTVRRFTTiRRTTT-RTTTRRTTTRRTTT&RPTT-RRRRRTT*RRRRRRRRRRRRRRR555@Rq555RR555;RRRR555;R7551RR7554>RRRRRRR555ORRR555555 R55555555+RRRRRRRRR5555oRRRRRRRRRRRRRRRR",
"RRRRRRRRRRRRRTTT=RRRhTTVRtTTKRhTTVRtTTfRjTTaRcTTgRRTTT&RtTTTRhTTVRtTTKRtTTKRRTTT%RRRRrTTRRRRRRRRRRRRRRRR555#RRRRRRR555;RRRR555#R7551RRR85553:RRRRR555ORRR555555 R5555553;RRRRRRRRRR55553RRRRRRRRRRRRRRRR",
"RRRRRRRRRRRRhTTTRRRRlTKdRkTTMRxTTdRRRRRRRRRAGTTTaRtTTKRRjTTHRlTTdRkTJMRkTTNRtTTJRRRRRkTBRRRRRRRRRRRRRRRR555@RRRRRRR555;RRRR555#R6551RRRRR8555>RRRR555ORRR555555 R55555552RRRRRRRRRRRq555@RRRRRRRRRRRRRRR",
"RRRRRRRRRRRRlTTVRRRRCTTpRvTTaRCTTpRRRRRRRAYTTTTTuRkTTNRRzTTfRCTTpRvTTaRzTTsRkTTgRRRRRRRRRRRRRRRRRRRRRRRR555#Rq555RR555;RRRR555#R7551RRRRRRq555.RRR555ORRR555;RRRR555;R655;RRRRRR555.R555#RRRRRRRRRRRRRRR",
"RRRRRRRRRRRRbTTdRRRRYTT=RFTTuRPTT=RzTT$RZTTaRTTT%RzTTsRRFTTpRYTT=RFTTuRFTTuRbTTaRRRRRRRRRRRRRRRRRRRRRRRR555#Rq555RR555;RRRR555;R7551RRRRRRR555@RRR555ORRR555;RRRR555;R055;RRRRRR555.R555#RRRRRRRRRRRRRRR",
"RRRRRRRRRRRRPTTpRRRRTTTRRTTT$RTTYRRFTHRwTTBRtTTJRRFTTiRRTTT-RTTTRRTTT$RTTT&RLTTuRRRRRRRRRRRRRRRRRRRRRRRR555#Rq555RR555;RRRR555#R6551RR555RR555#RRR555ORRR555;RRRR555;Rq55;RRRRRR555.R555#RRRRRRRRRRRRRRR",
"RRRRRRRRRRRRTJT=RRRyTTVRtTTVRtTTVRRTTsRjTTaRkTTgRRTTT&RtTTTRyTTVRtTTVRtTTJRRTTT$RRRRRRRRRRRRRRRRRRRRRRRR555:R0553RR555;RRRR555:R555,RR555XR555#RRR555ORRR555;RRRR555;Rq55:RRRRRR555XR555@RRRRRRRRRRRRRRR",
"RRRRRRRRRRRhTTTTTaRhTTNRcTTpRtTTBRkTK%RxTTaRCTTaReTTTRRkTTHRyTTMRcTTpRkTTNRyTTKRRRRRkTBRRRRRRRRRRRRRRRRR85555555:RR555555RR85555555#RR55555555+RRR555ORRR555555;R555;R055:RRRRRR655+R555.RRRRRRRRRRRRRRR",
"RRRRRRRRRRRlTTTTTuRRYTTTTTMRRRPTTTTTiRRxTTTTYTTuRtTTTTRzTTfRRTTTTTTMRRzTTaRkTTgRRRRRzTsRRRRRRRRRRRRRRRRRR5555552RRR555555RRR5555552RRRq5555552RRRR555ORRR555555;R555;Rq55:RRRRRRq555555,RRRRRRRRRRRRRRRR",
"RRRRRRRRRRRbTTTTT%RRRIPKVfRRRRRGYKBRRRRRGKfRPTT$RRSYTBRFTTpRRRGYKVfRRRFTTuRvTTaRRRRRFTiRRRRRRRRRRRRRRRRRRR9653<RRRR555555RRRR9654<RRRRRR7653<RRRRR555ORRR555555;R555;Rq55:RRRRRRRR7643,RRRRRRRRRRRRRRRRR",
"RRRRRRRRRRRRRRRRRRRRRRRRRRRRRRRRRRRRRRRRRRRRRRRRRRRRRRRRRRRRRRRRRRRRRRRRRRRRRRRRRRRRRRRRRRRRRRRRRRRRRRRRRRRRRRRRRRRRRRRRRRRRRRRRRRRRRRRRRRRRRRRRRRRRRRRRRRRRRRRRRRRRRRRRRRRRRRRRRRRRRRRRRRRRRRRRRRRRRRRR",
"RRRRRRRRRRRRRRRRRRRRRRRRRRRRRRRRRRRRRRRRRRRRRRRRRRRRRRRRRRRRRRRRRRRRRRRRRRRRRRRRRRRRRRRRRRRRRRRRRRRRRRRRRRRRRRRRRRRRRRRRRRRRRRRRRRRRRRRRRRRRRRRRRRRRRRRRRRRRRRRRRRRRRRRRRRRRRRRRRRRRRRRRRRRRRRRRRRRRRRRR",
"RRRRRRRRRRRRRRRRRRRRRRRRRRRRRRRRRRRRRRRRRRRRRRRRRRRRRRRRRRRRRRRRRRRRRRRRRRRRRRRRRRRRRRRRRRRRRRRRRRRRRRRRRRRRRRRRRRRRRRRRRRRRRRRRRRRRRRRRRRRRRRRRRRRRRRRRRRRRRRRRRRRRRRRRRRRRRRRRRRRRRRRRRRRRRRRRRRRRRRRR",
"RRRRRRRRRRRRRRRRRRRRRRRRRRRRRRRRRRRRRRRRRRRRRRRRRRRRRRRRRRRRRRRRRRRRRRRRRRRRRRRRRRRRRRRRRRRRRRRRRRRRRRRRRRRRRRRRRRRRRRRRRRRRRRRRRRRRRRRRRRRRRRRRRRRRRRRRRRRRRRRRRRRRRRRRRRRRRRRRRRRRRRRRRRRRRRRRRRRRRRRR",
"RRRRRRRRRRRRRRRRRRRRRRRRRRRRRRRRRRRRRRRRRRRRRRRRRRRRRRRRRRRRRRRRRRRRRRRRRRRRRRRRRRRRRRRRRRRRRRRRRRRRRRRRRRRRRRRRRRRRRRRRRRRRRRRRRRRRRRRRRRRRRRRRRRRRRRRRRRRRRRRRRRRRRRRRRRRRRRRRRRRRRRRRRRRRRRRRRRRRRRRR",
"RRRRRRRRRRRRRRRRRRRRRRRRRRRRRRRRRRRRRRRRRRRRRRRRRRRRRRRRRRRRRRRRRRRRRRRRRRRRRRRRRRRRRRRRRRRRRRRRRRRRRRRRRRRRRRRRRRRRRRRRRRRRRRRRRRRRRRRRRRRRRRRRRRRRRRRRRRRRRRRRRRRRRRRRRRRRRRRRRRRRRRRRRRRRRRRRRRRRRRRR",
"RRRRRRRRRRRRRRRRRRRRRRRRRRRRRRRRRRRRRRRRRRRRRRRRRRRRRRRRRRRRRRRRRRRRRRRRRRRRRRRRRRRRRRRRRRRRRRRRRRRRRRRRRRRRRRRRRRRRRRRRRRRRRRRRRRRRRRRRRRRRRRRRRRRRRRRRRRRRRRRRRRRRRRRRRRRRRRRRRRRRRRRRRRRRRRRRRRRRRRRR",
"RRRRRRRRRRRRRRRRRRRRRRRRRRRRRRRRRRRRRRRRRRRRRRRRRRRRRRRRRRRRRRRRRRRRRRRRRRRRRRRRRRRRRRRRRRRRRRRRRRRRRRRRRRRRRRRRRRRRRRRRRRRRRRRRRRRRRRRRRRRRRRRRRRRRRRRRRRRRRRRRRRRRRRRRRRRRRRRRRRRRRRRRRRRRRRRRRRRRRRRR",
"RRRRRRRRRRRRRRRRRRRRRRRRRRRRRRRRRRRRRRRRRRRRRRRRRRRRRRRRRRRRRRRRRRRRRRRRRRRRRRRRRRRRRRRRRRRRRRRRRRRRRRRRRRRRRRRRRRRRRRRRRRRRRRRRRRRRRRRRRRRRRRRRRRRRRRRRRRRRRRRRRRRRRRRRRRRRRRRRRRRRRRRRRRRRRRRRRRRRRRRR",
"RRRRRRRRRRRRRRRRRRRRRRRRRRRRRRRRRRRRRRRRRRRRRRRRRRRRRRRRRRRRRRRRRRRRRRRRRRRRRRRRRRRRRRRRRRRRRRRRRRRRRRRRRRRRRRRRRRRRRRRRRRRRRRRRRRRRRRRRRRRRRRRRRRRRRRRRRRRRRRRRRRRRRRRRRRRRRRRRRRRRRRRRRRRRRRRRRRRRRRRR",
"RRRRRRRRRRRRRRRRRRRRRRRRRRRRRRRRRRRRRRRRRRRRRRRRRRRRRRRRRRRRRRRRRRRRRRRRRRRRRRRRRRRRRRRRRRRRRRRRRRRRRRRRRRRRRRRRRRRRRRRRRRRRRRRRRRRRRRRRRRRRRRRRRRRRRRRRRRRRRRRRRRRRRRRRRRRRRRRRRRRRRRRRRRRRRRRRRRRRRRRR",
"RRRRRRRRRRRRRRRRRRRRRRRRRRRRRRRRRRRRRRRRRRRRRRRRRRRRRRRRRRRRRRRRRRRRRRRRRRRRRRRRRRRRRRRRRRRRRRRRRRRRRRRRRRRRRRRRRRRRRRRRRRRRRRRRRRRRRRRRRRRRRRRRRRRRRRRRRRRRRRRRRRRRRRRRRRRRRRRRRRRRRRRRRRRRRRRRRRRRRRRR",
"RRRRRRRRRRRRRRRRRRRRRRRRRRRRRRRRRRRRRRRRRRRRRRRRRRRRRRRRRRRRRRRRRRRRRRRRRRRRRRRRRRRRRRRRRRRRRRRRRRRRRRRRRRRRRRRRRRRRRRRRRRRRRRRRRRRRRRRRRRRRRRRRRRRRRRRRRRRRRRRRRRRRRRRRRRRRRRRRRRRRRRRRRRRRRRRRRRRRRRRR",
"RRRRRRRRRRRRRRRRRRRRRRRRRRRRRRRRRRRRRRRRRRRRRRRRRRRRRRRRRRRRRRRRRRRRRRRRRRRRRRRRRRRRRRRRRRRRRRRRRRRRRRRRRRRRRRRRRRRRRRRRRRRRRRRRRRRRRRRRRRRRRRRRRRRRRRRRRRRRRRRRRRRRRRRRRRRRRRRRRRRRRRRRRRRRRRRRRRRRRRRR",
"RRRRRRRRRRRRRRRRRRRRRRRRRRRRRRRRRRRRRRRRRRRRRRRRRRRRRRRRRRRRRRRRRRRRRRRRRRRRRRRRRRRRRRRRRRRRRRRRRRRRRRRRRRRRRRRRRRRRRRRRRRRRRRRRRRRRRRRRRRRRRRRRRRRRRRRRRRRRRRRRRRRRRRRRRRRRRRRRRRRRRRRRRRRRRRRRRRRRRRRR"
};
