/* XPM */
static char *_cf48bcdd41c4f25d284d619b48b58f5xFLH0gbEHqWUJwcd[] = {
/* columns rows colors chars-per-pixel */
"64 64 172 2 ",
"   c #343F3E",
".  c #36403E",
"X  c #38413E",
"o  c #353F41",
"O  c #354243",
"+  c #394342",
"@  c #37464A",
"#  c #3B4649",
"$  c #3A4C49",
"%  c #3A504D",
"&  c #3D5653",
"*  c #455255",
"=  c #475658",
"-  c #505B5F",
";  c #7B5742",
":  c #7D5B45",
">  c #7F5D48",
",  c #46665B",
"<  c #486E61",
"1  c #4D626B",
"2  c #586965",
"3  c #5E6B6B",
"4  c #467666",
"5  c #497465",
"6  c #457866",
"7  c #467768",
"8  c #4A7768",
"9  c #467A6B",
"0  c #497B6C",
"q  c #55776A",
"w  c #54796B",
"e  c #4F6672",
"r  c #556B76",
"t  c #5D6D71",
"y  c #457F70",
"u  c #497E70",
"i  c #636866",
"p  c #616C6C",
"a  c #6C6C6A",
"s  c #706E68",
"d  c #72716A",
"f  c #616E71",
"g  c #637275",
"h  c #66757A",
"j  c #69777B",
"k  c #66797E",
"l  c #6A797D",
"z  c #727C7C",
"x  c #7B7F7D",
"c  c #805D47",
"v  c #825F4A",
"b  c #84614D",
"n  c #88654F",
"m  c #866350",
"M  c #896552",
"N  c #906652",
"B  c #956B55",
"V  c #986E57",
"C  c #9A6F59",
"Z  c #9C725B",
"A  c #A1755E",
"S  c #8F7666",
"D  c #8F7866",
"F  c #8F7869",
"G  c #917766",
"H  c #947967",
"J  c #927768",
"K  c #937B6C",
"L  c #957E71",
"P  c #A17761",
"I  c #A37960",
"U  c #3F8576",
"Y  c #3F8579",
"T  c #438374",
"R  c #498374",
"E  c #43867A",
"W  c #49877A",
"Q  c #43897D",
"!  c #4A8A7D",
"~  c #518B7F",
"^  c #77877B",
"/  c #7B847C",
"(  c #988175",
")  c #9B867A",
"_  c #677B80",
"`  c #6A7D82",
"'  c #707F84",
"]  c #458D81",
"[  c #498E83",
"{  c #518E82",
"}  c #479084",
"|  c #4B9186",
" . c #4E9489",
".. c #549286",
"X. c #52968B",
"o. c #54998D",
"O. c #589A8F",
"+. c #5D9D94",
"@. c #6B8085",
"#. c #638C82",
"$. c #6A8D82",
"%. c #728286",
"&. c #728E83",
"*. c #7A8E82",
"=. c #74848A",
"-. c #639186",
";. c #689289",
":. c #6A948B",
">. c #759388",
",. c #758A91",
"<. c #798E95",
"1. c #7B8E98",
"2. c #649D96",
"3. c #6D9A91",
"4. c #7B9196",
"5. c #749E95",
"6. c #799F95",
"7. c #7D9498",
"8. c #7DA299",
"9. c #848582",
"0. c #888A86",
"q. c #868C8F",
"w. c #9C8A80",
"e. c #95978E",
"r. c #9C968C",
"t. c #95988E",
"y. c #9C9A8E",
"u. c #869096",
"i. c #8B9495",
"p. c #8C9C93",
"a. c #8C9898",
"s. c #929694",
"d. c #9E9791",
"f. c #949C95",
"g. c #9E9C92",
"h. c #949B9C",
"j. c #999C9D",
"k. c #A19D96",
"l. c #A39F99",
"z. c #A3A196",
"x. c #A5A29C",
"c. c #A8A59E",
"v. c #A5A89F",
"b. c #979FA1",
"n. c #999FA1",
"m. c #86A7A1",
"M. c #88A8A2",
"N. c #8BA9A4",
"B. c #9DA2A3",
"V. c #9EA7A9",
"C. c #A5A6A1",
"Z. c #AAA6A2",
"A. c #A7A8A2",
"S. c #AAAAA5",
"D. c #A3A7A9",
"F. c #A6ABAD",
"G. c #ADADAA",
"H. c #B2AEAB",
"J. c #AEB2AC",
"K. c #B3B2AE",
"L. c #ACAFB0",
"P. c #AEB0B1",
"I. c #B4B5B3",
"U. c #B6B9B4",
"Y. c #B9BAB6",
"T. c #B4B6B8",
"R. c #B7B9B9",
"E. c #BCBCBB",
"W. c #BEC0BC",
"Q. c #C1C2BE",
"!. c #BDC1C0",
"~. c #C2C2C2",
/* pixels */
"E.~.E.E.E.~.E.Q.W.N.2.+.+.2.!.~.~.Q.Q.Q.~.Q.Q.Q.~.~.Q.~.~.~.~.~.~.~.~.~.~.~.~.~.~.~.~.~.~.~.~.~.~.~.~.~.~.~.E.~.~.E.E.~.E.~.E.E.",
"E.E.E.~.~.E.~.E.N.2.+.+.2.+.W.W.Q.Q.Q.~.Q.Q.Q.Q.Q.Q.~.~.~.~.~.~.~.~.~.~.~.~.~.~.~.~.~.~.~.~.~.~.~.~.~.~.~.E.~.E.~.E.E.~.E.E.E.~.",
"!.E.E.E.~.E.!.N.2.2.2.2.2.2.W.!.Q.Q.~.Q.Q.Q.Q.Q.~.Q.Q.~.~.~.~.~.~.~.~.~.~.~.~.~.~.~.~.~.~.~.~.~.~.~.~.~.~.!.E.~.E.~.E.E.E.E.E.E.",
"N.E.E.E.E.!.E.V.u.1.<.1.7.7.U.!.Q.Q.Q.~.Q.Q.Q.Q.~.Q.Q.~.~.~.~.~.~.~.~.~.~.~.~.~.~.~.~.~.~.~.~.~.~.~.~.~.~.E.~.~.n.1.1.u.q.q.q.T.",
"+.M.E.E.E.E.!.E.V.<.4.4.4.4.I.~.Q.Q.Q.Q.Q.Q.Q.Q.~.Q.~.~.Q.~.~.~.~.L._ T.~.~.~.~.~.~.~.~.~.~.~.~.~.~.~.~.~.~.~.E.I._ 1 1 1 1 1 D.",
"O.O.M.R.E.E.E.E.E.V.<.7.7.7.I.E.E.Q.Q.E.Q.Q.Q.Q.~.~.~.Q.~.~.~.Q.L._ e R.~.~.~.~.~.~.~.~.~.~.~.~.~.~.~.~.~.~.E.E.E.T._ 1 - 1 - H.",
"o.O.O.m.E.E.E.E.W.E.V.4.4.4.I.W.E.Q.Q.Q.Q.Q.Q.Q.Q.Q.~.~.~.~.Q.K._ e ' !.~.~.~.~.~.~.~.~.~.~.~.~.~.~.~.~.E.E.~.~.E.~.P.g 1 1 1 L.",
"O.o.O.O.M.E.E.!.W.E.E.B.4.4.T.E.Q.Q.Q.Q.Q.Q.Y.Q.Q.Q.~.Q.~.~.Q.d e e M.~.~.~.~.~.~.~.~.~.~.~.~.~.~.~.~.~.E.~.E.E.E.E.E.P.f - 1 P.",
"o.o.o.o.o.M.R.W.E.!.!.E.V.7.I.E.Y.Q.Q.Q.E.Q.Q.Q.E.~.~.~.~.D.r e e e e T.~.~.~.!.~.~.~.~.~.~.E.E.~.~.E.~.~.E.E.E.E.E.E.E.H._ - T.",
"o.o.o.o.o.o.8.W.E.E.E.E.E.B.I.!.Q.E.E.Q.Y.Q.Q.Q.Q.~.E.~.D.1 e e e e _ T.~.~.~.~.~.E.E.~.~.E.~.~.E.~.E.E.E.~.E.E.~.E.E.E.E.P.a T.",
"o. . .o.o.o.o.8.E.E.E.!.E.E.E.E.Q.Q.Q.Y.Q.Y.Q.Q.Q.E.~.E.I.P.P.P.L.F.b.V.~.~.~.~.~.~.~.~.~.~.~.~.E.E.~.E.E.E.E.E.E.E.E.E.E.E.L.T.",
" .o.o.o.o.o.o.o.8.E.E.E.E.E.E.E.Y.Q.Y.Q.Y.Q.Q.Y.E.~.E.~.~.E.E.~.~.!.!.1.F.~.E.!.E.E.~.E.E.~.E.E.E.~.E.E.~.E.E.E.E.E.E.E.E.E.T.E.",
" . . .o.X.X.X.o.o.8.Y.Y.E.E.E.Y.Q.Y.Q.Q.Q.Q.Y.Q.E.E.~.Q.~.~.E.~.!.!.!.1.1.D.!.!.E.~.~.E.~.E.~.E.~.~.E.E.E.E.E.E.E.E.E.E.T.E.E.R.",
" . . . .X.X.X.o.o.o.8.Y.W.E.Q.Y.Y.E.Y.Y.Y.Y.Q.Q.E.Q.~.E.E.~.~.E.!.!.!.1.1.' F.E.E.E.E.E.~.E.E.E.E.E.E.E.E.E.E.E.E.E.I.E.T.E.E.E.",
" . . . . . . .X.X.X.o.8.Y.Y.Y.Y.Q.Y.Q.Y.Y.E.E.Y.Q.E.E.E.E.E.~.E.E.E.E.1.1.1.1.F.~.E.~.~.E.E.E.~.E.E.E.E.E.I.E.E.E.E.E.I.E.E.I.Y.",
"}  . . . .X. .X.X.X.o...8.Y.Y.E.Y.Y.Y.Q.Y.Y.Y.E.E.E.E.E.~.E.E.E.E.E.!.' ,.,.,.,.F.E.E.E.E.E.E.E.E.E.E.E.E.E.I.E.E.I.Y.Y.Y.I.E.I.",
"}  .|  .}  . . .X. .X.X.o.6.T.Y.Y.Y.Y.Y.Y.Q.Y.Y.Y.E.E.E.~.E.E.~.~.E.E.' ' 1.=.q.=.H.E.E.E.E.E.E.E.E.E.T.E.E.I.I.E.E.E.E.T.T.E.T.",
"} } }  . .}  . . . . .X.X.X.6.T.E.Y.Y.Y.Y.Y.Y.Y.Y.Y.E.E.E.E.E.E.E.E.E.T.T.T.H.H.P.H.E.E.E.E.R.E.E.E.E.E.E.E.E.H.q.q.u.u.j.u.u.d.",
"} } } } }  .} |  . . . .X.X.X.6.Y.Y.Y.Y.Y.Y.Y.Y.Y.E.E.E.E.E.E.E.E.E.E.E.E.E.E.E.E.E.E.E.E.R.I.E.E.E.T.E.E.I.I.E.l.=.=.' 1.' =.=.",
"] } [ } } }  .} | | | | | |  . .5.U.U.U.Y.Y.Y.Y.Y.Y.I.E.E.E.E.R.E.T.E.E.E.T.R.E.E.E.R.E.R.E.E.E.T.E.T.T.E.I.E.I.T.n.=.=.' ' x =.",
"Q ] } } } } } } | | | | | | X.|  .5.J.W.Y.U.U.U.Y.Y.Y.E.R.E.E.R.E.E.T.E.R.E.R.E.E.E.T.E.E.R.E.E.E.T.E.I.E.I.I.E.I.I.j.' ' ' ' 1.",
"Q ] ] ] } } [ } } } } | | [ | | | } 3.W.U.Y.U.U.Y.Y.Y.I.Y.E.R.E.T.E.E.E.E.E.R.E.T.E.T.T.R.R.R.I.I.E.I.E.I.T.I.I.R.I.T.d.' ' ' ' ",
"Q } } ] ] } ] ] ] ] [ [ [ [ [ | } |  .3.K.Y.K.Y.I.I.I.R.Y.Y.R.R.T.T.T.E.E.I.E.I.R.R.E.T.E.R.T.E.R.E.I.T.E.I.I.I.I.I.I.I.j.' ' ' ",
"Q Y Y ] Y Q ] Q ] ] ] ] [ [ [ [ } ! ~ ~ 3.K.K.K.I.I.I.R.R.R.R.R.E.E.T.T.R.R.R.R.R.R.R.T.T.T.I.I.I.I.I.I.I.I.E.I.I.I.T.T.P.j.' ' ",
"Q Q Q Y Y ] Y ] ] ] ] ] ] ] ] ] } } } | [ 3.J.I.K.I.I.U.T.T.R.I.T.T.I.E.I.E.I.T.I.T.T.I.R.I.I.I.T.I.T.I.K.U.U.I.I.K.K.Y.K.U.s.%.",
"Q Q Y Q ] ] Y ] Y ] ] Y ] ] ] ] ! } Q } ] [ :.P.U.K.I.K.I.T.I.R.T.T.E.T.I.T.I.I.T.I.R.I.R.I.I.T.I.I.I.I.I.U.K.I.K.Y.K.Y.K.K.K.i.",
"] Y Y ] Y Y Y ] Q Q ] Q ] ] ] ] ] ] } Q [ [ ] :.J.J.I.K.I.I.I.T.I.T.E.I.E.I.E.I.I.I.T.K.I.T.I.I.I.I.I.T.I.I.I.K.I.I.K.K.U.K.K.K.",
"] Y Y Y Y ] Y Q Y ] Y ] Q Q ] ] Q ] [ ] Q ] ] [ -.J.K.I.I.I.I.P.I.I.I.I.I.I.I.I.T.K.T.T.I.T.I.I.I.I.I.I.I.K.K.I.K.K.Y.K.K.U.K.K.",
"! Y Y Y E Y Q Y Q Q Q ] Q ] ] Q ] Q ] Q ] [ ] ! ! -.J.K.I.I.I.I.T.P.P.T.H.T.I.I.T.T.T.T.T.T.I.I.I.I.K.K.I.I.I.I.Y.K.K.K.K.K.U.K.",
"[ Y Y Y Y Y Q Q Y Q Q Q E ] Q Q Q Q Q Q Q Q ! ! ! ! -.J.I.K.I.T.H.T.T.L.I.I.T.H.P.T.K.K.K.K.K.K.P.P.I.I.I.L.L.K.K.K.K.Y.K.K.K.K.",
";.~ ~ { ..{ .... .X.....{ { { [ ..! ! ! ! ! W ! ! ! ~ :.a.a.h.h.n.n.n.n.n.j.n.n.n.n.n.n.n.B.B.B.B.B.n.n.C.C.x.K.K.K.K.K.K.K.K.K.",
"Z.#.T Y E Y E E Y Y Y Q Y Y ] E E E E Q Q W W W Q ! ! :.B._ _ @.` _ ' ' ` _ ' ' ` ` ` ` ` ` ` ' ` ` ` ` ` ` l z.K.K.K.K.K.K.K.K.",
"S.S.$.T U T U U U U U U U Q Q E Q T T ! E ! Q ! W [ W 3.P.n.` ` ` ` ` ` ` ` ` ` _ _ _ _ _ @._ _ _ ` ' l ` l ` l.H.H.K.H.I.K.K.K.",
"G.S.S.-.U T U U U U U U U U U E T Q Q T E ! R W W W W :.P.L.C.` ` _ ` _ ` ` _ ` _ k _ _ @._ ` ` ` ` l j ` l l Z.G.I.K.K.H.H.K.K.",
"S.S.J.S.;.T U U U U U E U Q Y T T Q Q Q E E W W W ~ W :.K.P.L.n.` ` ` _ _ _ _ _ _ _ k _ _ _ _ k l ` j ` ` l ' C.H.J.H.H.K.H.H.H.",
"S.S.S.S.S.>.U T U U U U U U T Y E T T T ! R W W W R W ;.P.H.H.P.n._ _ _ _ _ _ _ _ h _ _ _ _ k k l l j j ` l j Z.H.K.H.H.H.H.K.H.",
"A.A.G.A.S.J.>.E U U T U y U T T T T T Q E R E R R W W ;.G.G.J.L.H.j.` _ _ _ _ f k _ _ _ k k j j j l l j l l j Z.H.H.Z.H.H.H.H.H.",
"A.G.A.G.S.S.J.>.T T T U U U U E T Q T T E T R E E R W $.H.G.L.H.L.H.j._ _ _ _ _ h _ h _ k h j j j j j j j j j Z.H.H.H.H.H.H.H.H.",
"A.G.S.A.S.S.S.G.>.R U U y U U T T T T T T R R T T R R $.J.J.G.J.L.H.H.j._ _ f _ h h k h j h j j j g j j j j g S.H.H.H.H.H.H.H.H.",
"V.A.A.S.S.S.S.G.S.>.9 T U y U U T R R W T T R R R R R $.S.G.G.J.H.D.H.D.w._ f _ k g h h h h j j g j g j g j g Z.H.Z.H.H.Z.Z.H.H.",
"v.v.B.A.A.S.S.A.S.S.p.U U y U 9 T T T R R T R T 9 T R ~ H.J.J.S.H.D.H.H.G.f.h h g g g h h h h j j g g g g g g Z.H.Z.H.Z.H.H.Z.H.",
"v.v.v.v.A.A.A.S.Z.S.S.p.y y 9 T T T R T R 6 6 R R R R ^ S.S.S.G.D.H.H.Z.G.S.h.h g g h h h h g j g j j j g j l Z.Z.H.H.Z.Z.H.Z.Z.",
"x.B.v.v.v.A.A.A.A.A.A.Z.p.U 9 T T 6 T T 6 R T T R R R $.J.S.S.J.G.G.G.Z.G.G.G.h.h h t g g g h g j j g g g g j Z.H.Z.Z.H.Z.Z.H.Z.",
"x.x.x.x.x.v.A.A.C.S.S.Z.C.p.T 9 R T R 6 R T R 6 R R R ^ S.S.S.S.S.Z.L.Z.S.G.S.G.s.g t g g g g g g g j g j g z Z.Z.H.H.Z.H.H.Z.Z.",
"< w u 0 8 9 0 9 9 9 y 9 0 0 p.R 9 9 R 8 8 R 8 R R 6 R &.S.S.S.S.S.S.S.S.F.S.S.S.S.3 f g g g h g g p h g f h z Z.Z.Z.Z.Z.Z.Z.Z.Z.",
"# = 9 9 9 y y 9 y 9 9 y 9 0 v.f.R R 8 R R 6 6 R 8 R 8 &.S.S.S.S.S.S.S.S.S.S.S.S.D.- = t g g f h g j g g h f z c.Z.H.Z.c.Z.Z.Z.Z.",
"@ O & 7 9 9 7 9 9 9 y 9 y 0 v.v.f.0 8 R 0 8 8 R R 6 0 >.D.A.S.A.S.Z.Z.S.S.S.Z.Z.Z.- @ = t h t g g g f p f f x Z.Z.H.Z.H.Z.Z.Z.Z.",
"@ @ O & 6 9 7 7 7 9 7 7 9 0 v.v.v.g.8 T 9 T 6 6 8 0 8 &.v.A.Z.Z.C.C.Z.C.Z.S.S.D.C.* @ O * t f f g g f g f i x c.Z.Z.Z.c.c.c.Z.Z.",
"O @ O O % 4 8 7 7 9 7 9 6 9 v.z.v.v.g.R 6 6 8 8 8 4 0 *.x.c.c.c.c.c.c.Z.Z.C.Z.C.D.* o o o * f f 3 g 3 f g p ' c.Z.c.c.c.c.c.c.Z.",
"O O O O O $ 4 4 7 8 7 4 6 6 v.x.x.x.z.f.w 6 4 4 8 0 8 *.x.x.x.x.x.x.c.c.l.Z.C.Z.C.# o o o o * f 3 f 3 3 f 3 x c.c.c.c.c.c.c.c.c.",
"O O O O + O $ 5 6 4 4 4 4 8 v.z.x.x.z.z.t.w 5 4 5 8 8 ^ x.x.x.x.x.x.x.x.Z.x.c.l.l.a a i f i i f 3 3 f p 3 p L c.x.c.x.c.c.c.v.c.",
"O O O O O O   $ 5 4 4 4 4 7 z.z.z.x.z.z.z.e.w 5 5 8 8 *.z.z.k.z.l.x.l.x.x.x.C.l.C.l.x.B.l.c.c.c.0.g p 3 p 3 ' x.x.x.x.x.x.c.x.x.",
"O O O + + O O O $ 5 8 4 8 5 k.k.z.z.z.z.l.z.t.w 5 8 5 ^ z.z.z.z.l.z.z.z.l.C.x.C.l.C.l.C.B.l.Z.c.x.0.p p 3 3 9.x.l.c.c.l.z.x.c.l.",
"O . O O O     O   O , 4 5 5 z.z.z.z.g.g.g.g.g.t.q 5 < ^ k.k.z.z.k.k.l.l.l.l.l.l.C.l.l.l.l.c.l.c.x.x.9.p 3 3 9.l.c.l.l.c.x.z.l.c.",
"O     .             X , 5 < g.g.g.z.g.z.g.g.g.y.y.q 5 ^ k.g.z.g.g.z.l.l.l.l.l.l.C.l.C.l.c.l.B.l.x.x.l.x 3 2 9.l.l.l.l.l.l.l.l.c.",
"X O   O O O O         X , 5 g.g.g.g.g.g.y.g.g.y.y.y.q / g.g.g.g.g.g.g.g.l.l.l.l.l.l.l.l.l.l.l.l.x.l.j.l.x 3 9.l.c.l.c.l.l.l.l.l.",
". X X . . . . .         X , y.g.y.y.y.y.g.g.g.g.g.d.t./ g.y.g.y.g.g.k.g.g.l.g.z.j.l.l.l.k.k.l.l.l.l.l.l.l.x x l.z.l.l.l.l.l.l.l.",
"s d d s d d d d d d s s s d r.y.y.y.y.y.y.y.r.g.g.y.y.y.y.y.y.y.y.y.y.g.g.l.k.j.l.l.k.k.k.l.j.l.l.j.l.l.l.l.d.l.l.z.l.l.l.k.k.k.",
"y.r.r.r.y.r.t.r.r.r.r.y.r.r.r.r.y.r.y.r.y.r.r.d.y.r.r.r.y.y.t.y.y.y.y.g.d.k.k.g.l.d.k.j.j.l.d.l.l.k.l.l.k.k.d.l.l.l.l.l.l.c.d.d.",
"( ( H ( ( H Z ( H K H F D D H G D S S S H S J J S S G G D S D Z H H H H K H K K J K J K K K K K K K L L L L ) ) I ) ) ) I ) ) ) ",
"b n n n n n n n b b b b b b b b b b b b v v v v > > v b c c b b v b b b m m m m m m m m m m M m m m m m m m m N m N M N B M m m ",
"b b b b n n c n b b b b : b : : : > : : : : c > : : : : : : : : c c v v b v b v v m m v m m m m m m m m b b m m m m m m N m b b ",
"b b b b c b b n : c b : : b : : : ; ; : : : : : : : ; ; : : : : : : v v v m b v m v v m m m m m m m v m b b b b b b v v v v v v ",
"A A A A A A A V V V V V V V V V C C Z Z Z A A A Z A I A A A A A A A A P I P Z P P Z Z C C C Z P C C C C Z P C C Z C C C C B N N "
};
