/* XPM */
static char *_5db3a65608845bd8559f4a54368b2c6WCrZDRmE7EXH4bne[] = {
/* columns rows colors chars-per-pixel */
"64 64 109 2 ",
"   c #4B4545",
".  c #7B94C4",
"X  c #8F8484",
"o  c #948F8C",
"O  c #96928F",
"+  c #9C948D",
"@  c #9E9691",
"#  c #9E9996",
"$  c #9D9B9B",
"%  c #A0948B",
"&  c #A4998F",
"*  c #A09693",
"=  c #A89791",
"-  c #A49B94",
";  c #A99D95",
":  c #A49E9A",
">  c #AA9E9A",
",  c #B09F98",
"<  c #ACA096",
"1  c #A6A19D",
"2  c #ACA39C",
"3  c #B1A59D",
"4  c #B3A89E",
"5  c #B8A89F",
"6  c #A7A4A2",
"7  c #ACA5A2",
"8  c #AEA9A5",
"9  c #ADABAA",
"0  c #B1A6A2",
"q  c #B3AAA4",
"w  c #B9ACA5",
"e  c #B3ADAA",
"r  c #BAAEAA",
"t  c #BDB1A7",
"y  c #B5B1AD",
"u  c #BCB3AD",
"i  c #B5B3B1",
"p  c #B6B5B3",
"a  c #BAB3B2",
"s  c #B9B4B2",
"d  c #BBB4B2",
"f  c #BAB6B3",
"g  c #BDB5B1",
"h  c #BDB6B2",
"j  c #BEB7B3",
"k  c #B9B6B4",
"l  c #BDB6B5",
"z  c #BEB9B5",
"x  c #BDB9B6",
"c  c #BDBAB7",
"v  c #BBBABA",
"b  c #BDBBBA",
"n  c #BFBDBC",
"m  c #C1AFA9",
"M  c #C2B3AC",
"N  c #C2B3AD",
"B  c #C0B6AD",
"V  c #C2B6AE",
"C  c #C7B7AD",
"Z  c #C4B8AE",
"A  c #C2B6B2",
"S  c #C1B8B2",
"D  c #C4B9B2",
"F  c #C6B8B2",
"G  c #C0B9B5",
"H  c #C3B9B5",
"J  c #C0BAB4",
"K  c #C5BCB5",
"L  c #C9BBB5",
"P  c #C0B9B8",
"I  c #C1BDB9",
"U  c #C3BDB9",
"Y  c #C1BCBB",
"T  c #C3BCBA",
"R  c #C5BEBB",
"E  c #C3BEBC",
"W  c #C6BFBD",
"Q  c #CBBBB8",
"!  c #C9BDBA",
"~  c #CEBFBA",
"^  c #C3C0BF",
"/  c #C5C0BC",
"(  c #C4C0BD",
")  c #C7C1BD",
"_  c #C5C0BE",
"`  c #C6C1BE",
"'  c #CBC0BC",
"]  c #CAC1BE",
"[  c #CBC2BE",
"{  c #CBC4BF",
"}  c #D5C5BE",
"|  c #C3C1C0",
" . c #C5C3C3",
".. c #C8C4C1",
"X. c #CBC5C2",
"o. c #CAC6C3",
"O. c #CEC4C0",
"+. c #CFC8C5",
"@. c #CCC8C6",
"#. c #CDCBCA",
"$. c gray81",
"%. c #D6C5C1",
"&. c #D0C8C5",
"*. c #D0C9C7",
"=. c #D5CCC8",
"-. c #D6D0CE",
";. c #DDD3CF",
":. c #D6D5D5",
">. c white",
/* pixels */
"q u u r e 0 0 > a R ~ W Q =.0 e L T a a O.> 8 0 a 7 : q 2 u y 0 h e y u Z t y y 1 < 1 4 4 1 e < t p 8 u q y u Z y y p 7 ; 2 2 p ",
"q e 3 e e h 3 8 W 7 _ *.b F $.$.0 e r ..0 e q a : 0 % q < 3 y 9 2 _ 3 8 { _ y 1 p & 1 y 3 + 9 3 2 y 9 3 / 3 8 { ] u $ p - 1 e 4 ",
"e y l 0 U t E q U r u W U O.E e W m a q A q w i 1 e 2 0 3 8 Z _ f 2 / q Z w u 9 < < 2 : y 2 8 3 8 Z _ p 2 / 4 C t t 8 < < 2 < u ",
"q z A ; 2 u 3 d G G > u ;.=.h U e r 6 0 e 0 6 2 8 6 u y 8 4 K u z z 9 U Z +.y + z < # < 6 y y 8 4 K u z c 8 ) u @.y + Z < # < u ",
"e y e 7 0 q e 0 l ! e E :.a ! A q e > q e w q - : ; 3 + ; q e K t { u / I d 3 6 1 1 : 4 < < + < q t _ w { z / / p 2 7 1 1 $ e - ",
"2 2 = 0 0 u 6 ^ 7 a ! A 0 w F 0 0 0 : 0 ; e e q * 3 y ; $ q 7 u z e / y t u 8 < 2 1 1 ; 4 p ; @ e 1 u z 0 / q t z 8 < < 1 < < u ",
"q 6 2 e e e u A T : @.G r ! 7 i r e 0 w e 0 e 6 8 * 0 8 : 1 V h z z u K q y 8 y & 1 e 1 & 8 8 1 1 u u z c u / 4 y 8 y # 1 y 1 z ",
"w < G q E 6 l ] l e 0 ! > e G G e r i F 3 q A : q 1 7 1 2 u q H u / 8 f t 1 t 1 1 u 2 8 1 1 < 1 u e K z / 4 u t 1 t 1 1 u 2 2 1 ",
"0 : u r 0 7 r e 0 p a e F ^ o.! r P T 0 q w e 7 2 e 3 7 e q w a u I n u 4 y 8 y c < $ 1 y 2 2 y 4 t u y z n y 8 y q y d 2 1 1 p ",
"7 u h e 7 0 8 0 r T L T u A o.W 0 L 0 P : = 2 m u q 3 < 3 3 r - < p 0 < 8 6 8 4 1 8 9 q 8 q I w z y y Z y Z 8 J w / y z p u w e ",
"r y G i W e 8 u v l h E ..A T T 0 a 0 > e > e e e t o.6 F - 3 ; 0 9 2 z < 3 < p 4 4 4 6 4 4 w y q Z t y { w y J 8 p t w 3 u u < ",
"y A t V E G 3 z ! r u e a F r ..T e P > e u 7 a 0 : * 8 e w q 2 4 y 1 < y 9 < 2 z e 8 8 t 4 y J 2 v 4 y y #.q 4 t u u S z I p e ",
"f W e b e z i 0 Y ! T !  .b W > =.a @.l 0 0 e 8 1 d 1 ; 6 0 3 - e u 2 < 1 - y < 4 8 y q q u y u 4 y u 8 Z _ ) ) p u w u y w 8 u ",
"b w h 3 4 y b h l  .&.l i @.Y f q 0 a r V 6 6 U e 6 < r 0 0 y e y < 3 9 9 8 < p p y 4 p 8 y 1 q 1 - y / t u 8 z u y u 4 Z < 4 - ",
"u u z h r ' e 0 0 A  . .o.W ! T f O.q a 8 e 6 : 0 0 q o 7 6 r a 2 y 2 2 8 3 6 1 1 1 2 u 1 9 e g 8 u v p _ 7 u J u 4 y 4 8 2 p + ",
"u U w w 0 q r w &.e W W W A a G T l e > 8 - h - 6 1 9 q G < 0 e 9 < - y 3 y c # < e + 4 8 7 7 1 y < q p p 1 Z 8 0 9 I 1 y < 4 - ",
"4 e u 6 U 4 4 8 r l T #.=.r a 0 m 0 6 0 0 a 6 > 8 6 > r 7 m e 7 + 3 + q 6 > q 6 y y q q y 2 4 2 8 u p / 4 / w y + < 1 t < y 4 t ",
"u 4 w y 8 2 h 2 A l T e _ b l r : a T e 0 > > 7 6 7 6 e a : n > 2 8 % f # + 7 1 y q 6 8 w y - 9 z Z 4 8 / u f 4 u y 1 8 - 2 2 < ",
"4 9 Z 4 q e q q O.W H m r r l a 9 > 1 0 9 > 0 6 = 7 - 7 8 e 7 9 q 1 & h y e r q 1 7 i 1 6 1 8 2 q f 8 < { y y u O < 1 1 9 c 1 u ",
"2 t t q q h y t o.A F  .-.0 ..7 0 m 6 0 0 0 > 0 > 8 0 1 : @ y = u 2 ; 7 * 1 = 2 8 y 8 2 6 t q t < y p q 4 @.2 8 t q & q 9 w 9 2 ",
"7 0 W e G z V o.l r ~ r A Y @.0 | r 9 * 6 0 6 6 7 q 7 > 6 : E : f U ; 2 1 1 q q y 4 2 8 2 q < < z 8 p 4 y 2 1 4 8 y z y 8 y < 1 ",
"w r a 0 d e b r r O.e F l E W r G l 0 a r > 0 r 0 6 r y - : 7 , < w - 1 e - - - - y w < 8 e 8 2 y y e 4 8 y # & & J < y y 1 9 < ",
"F ! r u 7 A m l l l M r T | m e Q 9 l : a > > * - 7 ; 0 q f a a 2 ; 8 2 2 < w 2 $ 6 y < 9 2 8 < q q y < 4 4 4 y q < 8 2 9 8 1 4 ",
"u 3 G h a e e A W r Y F M M T > P 9 > > > 6 9 > - 7 0 7 > 7 l - 6 1 3 ; 2 z t 9 u : 4 0 7 8 p v 2 y y q 1 y 6 c g 7 < y 7 # 8 8 ",
"0 f 3 0 r a Q 7 a A a 0 F A T l 0 a 9 Y : > 0 6 0 0 0 = * 7 3 O ; u + 2 U 2 z e 2 2 1 4 2 8 @ 2 2 8 1 1 u q # & 4 9 < 2 6 7 < 6 ",
"W l A r G W ! a 7 r ] #.A o.@ O.a O.r 0 > 9 > 0 6 $ 6 9 T 7 8 - 8 q < 6 U 8 t i O t O 1 # 1 # 4 ) y 1 1 q 8 9 < < < 1 1 < 7 y 1 ",
", w z q e O.0 r %.%.@.e .. .r q 0 a 9 a A > > 0 0 7 r * e r - > y y 8 =.2 _ U y y 1 O 1 2 9 1 4 < 8 2 < { 8 4 9 2 6 8 6 1 + 1 1 ",
"3 q w 3  .l z O.Q T ..o.Q T n l O.0 a e > 6 6 * * 0 6 0 > 9 6 > 1 f 2 @.- 2 e %.& y 2 4 2 < < 1 9 2 q J 8 q q t 1 1 y 4 4 9 < 1 ",
"a m T M T a r M %.r M L ..z r A 0 P > a r 6 0 $ * 0 6 6 e > 9 * 8 q 2 e y 7 y 1 1 + 1 @ < 1 I 2 g y 4 t e < 1 / J 7 < 9 & 6 9 2 ",
"T 0 2 3 M q u q d l | S U ! 7 l 0 0 0 r a e $ 0 0 6 > 9 7 r = 0 # 7 7 - 1 z 6 w < & 2 y 1 1 1 c 8 u I 4 / g y { y $ 8 & 1 y y 4 ",
"                                                                                                                                ",
"                                                                                                                                ",
"X X X X X X X X X X X X X X X X X X X X X X X X X X X X X X X X X X X X X X X X X X X X X X X X X X X X X X X X X X X X X X X X ",
">.>.>.>.>.>.>.>.>.>.>.>.>.>.>.>.>.>.>.>.>.>.>.>.>.>.>.>.>.>.>.>.>.>.>.>.>.>.>.>.>.>.>.>.>.>.>.>.>.>.>.>.>.>.>.>.>.>.>.>.>.>.>.>.",
">.>.>.>.>.>.>.>.>.>.>.>.>.>.>.>.>.>.>.>.>.>.>.>.>.>.>.>.>.>.>.>.>.>.>.>.>.>.>.>.>.>.>.>.>.>.>.>.>.>.>.>.>.>.>.>.>.>.>.>.>.>.>.>.",
">.>.>.>.>.>.>.>.>.>.>.>.>.>.>.>.>.>.>.>.>.>.>.>.>.>.>.>.>.>.>.>.>.>.>.>.>.>.>.>.>.>.>.>.>.>.>.>.>.>.>.>.>.>.>.>.>.>.>.>.>.>.>.>.",
">.>.>.>.>.>.>.>.>.>.>.>.>.>.>.>.>.>.>.>.>.>.>.>.>.>.>.>.>.>.>.>.>.>.>.>.>.>.>.>.>.>.>.>.>.>.>.>.>.>.>.>.>.>.>.>.>.>.>.>.>.>.>.>.",
">.>.>.>.>.>.>.>.>.>.>.>.>.>.>.>.>.>.>.>.>.>.>.>.>.>.>.>.>.>.>.>.>.>.>.>.>.>.>.>.>.>.>.>.>.>.>.>.>.>.>.>.>.>.>.>.>.>.>.>.>.>.>.>.",
">.>.>.>.>.>.>.>.>.>.>.>.>.>.>.>.>.>.>.>.>.>.>.>.>.>.>.>.>.>.>.>.>.>.>.>.>.>.>.>.>.>.>.>.>.>.>.>.>.>.>.>.>.>.>.>.>.>.>.>.>.>.>.>.",
">.>.>.>.>.>.>.>.>.>.>.>.>.>.>.>.>.>.>.>.>.>.>.>.>.>.>.>.>.>.>.>.>.>.>.>.>.>.>.>.>.>.>.>.>.>.>.>.>.>.>.>.>.>.>.>.>.>.>.>.>.>.>.>.",
">.>.>.>.>.>.>.>.>.>.>.>.>.>.>.>.>.>.>.>.>.>.>.>.>.>.>.>.>.>.>.>.>.>.>.>.>.>.>.>.>.>.>.>.>.>.>.>.>.>.>.>.>.>.>.>.>.>.>.>.>.>.>.>.",
">.>.>.>.>.>.>.>.>.>.>.>.>.>.>.>.>.>.>.>.>.>.>.>.>.>.>.>.>.>.>.>.>.>.>.>.>.>.>.>.>.>.>.>.>.>.>.>.>.>.>.>.>.>.>.>.>.>.>.>.>.>.>.>.",
">.$ $ $ $ $ $ $ $ $ $ $ $ $ $ $ $ >.>.>.>.>.>.>.>.>.>.>.>.>.>.>.$ $ $ $ $ $ $ $ $ $ $ $ $ $ $ $ >.>.>.>.>.>.>.>.>.>.>.>.>.>.>.>.",
">.>.$ >.>.>.>.>.>.>.>.>.>.>.>.>.$ $ >.>.>.>.>.>.>.>.>.>.>.>.>.>.>.$ >.>.>.>.>.>.>.>.>.>.>.>.>.$ $ >.>.>.>.>.>.>.>.>.>.>.>.>.>.>.",
">.>.>.$ >.>.>.>.>.>.>.>.>.>.>.>.$ >.$ >.>.>.>.>.>.>.>.>.>.>.>.>.>.>.$ >.>.>.>.>.>.>.>.>.>.>.>.$ >.$ >.>.>.>.>.>.>.>.>.>.>.>.>.>.",
">.>.>.>.$ >.>.>.>.>.>.>.>.>.>.>.$ >.>.$ >.>.>.>.>.>.>.>.>.>.>.>.>.>.>.$ >.>.>.>.>.>.>.>.>.>.>.$ >.>.$ >.>.>.>.>.>.>.>.>.>.>.>.>.",
">.>.>.>.>.$ >.>.>.>.>.>.>.>.>.>.$ >.>.>.$ >.>.>.>.>.>.>.>.>.>.>.>.>.>.>.$ >.>.>.>.>.>.>.>.>.>.$ >.>.>.$ >.>.>.>.>.>.>.>.>.>.>.>.",
">.>.>.>.>.>.$ >.>.>.>.>.>.>.>.>.$ >.>.>.>.$ >.>.>.>.>.>.>.>.>.>.>.>.>.>.>.$ >.>.>.>.>.>.>.>.>.$ >.>.>.>.$ >.>.>.>.>.>.>.>.>.>.>.",
">.>.>.>.>.>.>.$ $ $ $ $ $ $ $ $ $ >.>.>.>.>.$ >.>.>.>.>.>.>.>.>.>.>.>.>.>.>.$ $ $ $ $ $ $ $ $ $ >.>.>.>.>.$ >.>.>.>.>.>.>.>.>.>.",
">.>.>.>.>.>.>.>.$ . . . . . . . . $ >.>.>.>.>.$ >.>.>.>.>.>.>.>.>.>.>.>.>.>.>.$ . . . . . . . . $ >.>.>.>.>.$ >.>.>.>.>.>.>.>.>.",
">.>.>.>.>.>.>.>.>.$ . . . . . . . . $ >.>.>.>.>.$ >.>.>.>.>.>.>.>.>.>.>.>.>.>.>.$ . . . . . . . . $ >.>.>.>.>.$ >.>.>.>.>.>.>.>.",
">.>.>.>.>.>.>.>.>.>.$ . . . . . . . . $ >.>.>.>.>.$ >.>.>.>.>.>.>.>.>.>.>.>.>.>.>.$ . . . . . . . . $ >.>.>.>.>.$ >.>.>.>.>.>.>.",
">.>.>.>.>.>.>.>.>.>.>.$ . . . >.. . . . $ >.>.>.>.>.$ >.>.>.>.>.>.>.>.>.>.>.>.>.>.>.$ . . . >.. . . . $ >.>.>.>.>.$ >.>.>.>.>.>.",
">.>.>.>.>.>.>.>.>.>.>.>.$ . . . . . . . . $ >.>.>.>.>.$ >.>.>.>.>.>.>.>.>.>.>.>.>.>.>.$ . . . . . . . . $ >.>.>.>.>.$ >.>.>.>.>.",
">.>.>.>.>.>.>.>.>.>.>.>.>.$ . . . >.. . . . $ >.>.>.>.>.$ >.>.>.>.>.>.>.>.>.>.>.>.>.>.>.$ . . . >.. . . . $ >.>.>.>.>.$ >.>.>.>.",
">.>.>.>.>.>.>.>.>.>.>.>.>.>.$ . . . . . . . . $ >.>.>.>.>.$ >.>.>.>.>.>.>.>.>.>.>.>.>.>.>.$ . . . . . . . . $ >.>.>.>.>.$ >.>.>.",
">.>.>.>.>.>.>.>.>.>.>.>.>.>.>.$ . . . >.. . . . $ >.>.>.>.>.$ >.>.>.>.>.>.>.>.>.>.>.>.>.>.>.$ . . . >.. . . . $ >.>.>.>.>.$ >.>.",
">.>.>.>.>.>.>.>.>.>.>.>.>.>.>.>.$ $ $ $ $ $ $ $ $ $ $ $ $ $ $ $ >.>.>.>.>.>.>.>.>.>.>.>.>.>.>.$ $ $ $ $ $ $ $ $ $ $ $ $ $ $ $ >.",
">.>.>.>.>.>.>.>.>.>.>.>.>.>.>.>.>.>.>.>.>.>.>.>.>.>.>.>.>.>.>.>.>.>.>.>.>.>.>.>.>.>.>.>.>.>.>.>.>.>.>.>.>.>.>.>.>.>.>.>.>.>.>.>.",
">.>.>.>.>.>.>.>.>.>.>.>.>.>.>.>.>.>.>.>.>.>.>.>.>.>.>.>.>.>.>.>.>.>.>.>.>.>.>.>.>.>.>.>.>.>.>.>.>.>.>.>.>.>.>.>.>.>.>.>.>.>.>.>.",
">.>.>.>.>.>.>.>.>.>.>.>.>.>.>.>.>.>.>.>.>.>.>.>.>.>.>.>.>.>.>.>.>.>.>.>.>.>.>.>.>.>.>.>.>.>.>.>.>.>.>.>.>.>.>.>.>.>.>.>.>.>.>.>.",
">.>.>.>.>.>.>.>.>.>.>.>.>.>.>.>.>.>.>.>.>.>.>.>.>.>.>.>.>.>.>.>.>.>.>.>.>.>.>.>.>.>.>.>.>.>.>.>.>.>.>.>.>.>.>.>.>.>.>.>.>.>.>.>.",
">.>.>.>.>.>.>.>.>.>.>.>.>.>.>.>.>.>.>.>.>.>.>.>.>.>.>.>.>.>.>.>.>.>.>.>.>.>.>.>.>.>.>.>.>.>.>.>.>.>.>.>.>.>.>.>.>.>.>.>.>.>.>.>.",
">.>.>.>.>.>.>.>.>.>.>.>.>.>.>.>.>.>.>.>.>.>.>.>.>.>.>.>.>.>.>.>.>.>.>.>.>.>.>.>.>.>.>.>.>.>.>.>.>.>.>.>.>.>.>.>.>.>.>.>.>.>.>.>."
};
