/* XPM */
static char *_7445f4eaa85403ebd34f104b7182abfYpSJz3cqMauLbpMV[] = {
/* columns rows colors chars-per-pixel */
"64 64 111 2 ",
"   c #4B4545",
".  c #7B94C4",
"X  c #8F8484",
"o  c #948F8C",
"O  c #96928F",
"+  c #9C948D",
"@  c #9E9691",
"#  c #9E9996",
"$  c #9D9B9B",
"%  c #A0948B",
"&  c #A4998F",
"*  c #A09693",
"=  c #A89791",
"-  c #A49B94",
";  c #A99D95",
":  c #A49E9A",
">  c #AA9E9A",
",  c #B09F98",
"<  c #ACA096",
"1  c #A6A19D",
"2  c #ACA39C",
"3  c #B1A59D",
"4  c #B3A89E",
"5  c #B8A89F",
"6  c #A7A4A2",
"7  c #ACA5A2",
"8  c #AEA9A5",
"9  c #ADABAA",
"0  c #B1A6A2",
"q  c #B3AAA4",
"w  c #B9ACA5",
"e  c #B3ADAA",
"r  c #B1AFAD",
"t  c #B9AEA9",
"y  c #BBAFAA",
"u  c #BCB1A7",
"i  c #BDB1A7",
"p  c #BEB0A6",
"a  c #B7B0A9",
"s  c #B3B0AD",
"d  c #B3B0AF",
"f  c #B4B0AC",
"g  c #B5B1AD",
"h  c #B6B2AD",
"j  c #B5B1AE",
"k  c #B5B2AF",
"l  c #B7B2AF",
"z  c #B6B3AF",
"x  c #BAB0A8",
"c  c #BAB1A8",
"v  c #BAB0AA",
"b  c #BFB5AB",
"n  c #BFB6AB",
"m  c #BBB2AC",
"M  c #BDB3AC",
"N  c #BBB5AF",
"B  c #BDB5AC",
"V  c #BCB5AE",
"C  c #B5B2B0",
"Z  c #B5B3B2",
"A  c #B6B5B3",
"S  c #BAB5B0",
"D  c #B9B4B2",
"F  c #B8B5B2",
"G  c #BBB5B2",
"H  c #BAB6B3",
"J  c #BDB7B2",
"K  c #BCB7B3",
"L  c #BAB7B5",
"P  c #BEB8B2",
"I  c #BBB8B7",
"U  c #BCB8B5",
"Y  c #BEBAB5",
"T  c #BDBBB9",
"R  c #BDBBBB",
"E  c #C1AFA9",
"W  c #C5B7AB",
"Q  c #C1B5AD",
"!  c #C2B4AD",
"~  c #C7B7AD",
"^  c #C4B8AE",
"/  c #C2B6B2",
"(  c #C1B8B0",
")  c #C4B9B2",
"_  c #C3B9B5",
"`  c #C1BBB5",
"'  c #C3BBB5",
"]  c #C0BAB6",
"[  c #C1BBB7",
"{  c #C9BBB5",
"}  c #C0BCB8",
"|  c #C4BDBB",
" . c #CABDBA",
".. c #C6C1BE",
"X. c #CBC0BC",
"o. c #CBC2BE",
"O. c #C8C4BF",
"+. c #CBC4BF",
"@. c #D5C5BE",
"#. c #C5C3C3",
"$. c #CBC5C2",
"%. c #CEC8C2",
"&. c #CCC8C6",
"*. c #CDCBCA",
"=. c #D6C5C1",
"-. c #D0C9C6",
";. c #D2CDCC",
":. c #D6D0CE",
">. c #DDD3CF",
",. c #D6D4D3",
"<. c white",
/* pixels */
"<.<.<.<.<.<.<.<.<.<.<.<.<.<.<.<.<.<.<.<.<.<.<.<.<.<.<.<.<.<.<.X     2 2 1 2 1 2 r q < 1 1 n < B < O < c e < w g 7 T S - B V 2 U ",
"<.<.<.<.<.<.$ <.<.<.<.<.<.<.<.<.<.<.<.<.<.<.<.<.<.<.<.<.<.<.<.X     v 9 < 1 g 1 1 1 9 1 r 2 2 < 2 F 4 8 g N q 7 7 < ; q ; 1 e 3 ",
"<.<.<.<.<.<.$ $ <.<.<.<.<.<.<.<.<.<.<.<.<.<.<.<.<.<.<.<.<.<.<.X     g 6 8 @ 8 2 # r 2 f e F 1 z 1 < 1 w ` U V 1 1 s > 1 : < 1 1 ",
"<.<.<.<.<.<.$ <.$ <.<.<.<.<.<.<.<.<.<.<.<.<.<.<.<.<.<.<.<.<.<.X     1 * 3 1 < 7 7 7 e 7 9 f < < a 9 W a Y 2 Z 2 Q ; 1 1 < ; & - ",
"<.<.<.<.<.<.$ <.<.$ <.<.<.<.<.<.<.<.<.<.<.<.<.<.<.<.<.<.<.<.<.X     @ s 2 9 1 3 a 1 c f 8 1 8 w 2 e 4 B P w P Y 2 @ 1 1 ^ < Z 9 ",
"<.<.<.<.<.<.$ <.<.<.$ <.<.<.<.<.<.<.<.<.<.<.<.<.<.<.<.<.<.<.<.X     8 1 g 2 1 1 < q 2 Y & $ 2 1 ` e N v N c s a 1 g - 7 + 9 $ s ",
"<.<.<.<.<.<.$ <.<.<.<.$ <.<.<.<.<.<.<.<.<.<.<.<.<.<.<.<.<.<.<.X     : 2 1 6 < 9 2 1 Y z 5 2 B < 9 2 9 S B a ` q V 8 q 2 v v L s ",
"<.<.<.<.<.<.$ <.<.<.<.<.$ <.<.<.<.<.<.<.<.<.<.<.<.<.<.<.<.<.<.X     g P 1 7 < 2 Q w & q u O V + w B N N a q g z 1 g ` Z %.w  .u ",
"<.<.<.<.<.<.$ $ <.<.<.<.<.$ <.<.<.<.<.<.<.<.<.<.<.<.<.<.<.<.<.X     +.X.a 9 ; - P g & 2 < S 9 s 9 ^ P O.2 ] P 8 u e v ^ P W +.) ",
"<.<.<.<.<.<.$ . $ <.<.<.<.<.$ <.<.<.<.<.<.<.<.<.<.<.<.<.<.<.<.X     v 1 s q 7 - 7 8 - 1 4 f Y v W v 8 ..a v 8 v V ) w ..` e 8 v ",
"<.<.<.<.<.<.$ . . $ <.<.<.<.<.$ <.<.<.<.<.<.<.<.<.<.<.<.<.<.<.X     B 1 e 2 q q g 4 Z 2 %.e c X.2 6 N O.&.s B | e B ' P 9 X.3 g ",
"<.<.<.<.<.<.$ . . . $ <.<.<.<.<.$ <.<.<.<.<.<.<.<.<.<.<.<.<.<.X     ^ B 7 $.w N 1 8 8 g 4 +.W e s +.c ^ w O.g P ) Y a $.Y 1 #.q ",
"<.<.<.<.<.<.$ . . . . $ <.<.<.<.<.$ <.<.<.<.<.<.<.<.<.<.<.<.<.X     7 v Y 1 1 1 e & q < q 2 9 ) Z U ..9 g a V V S P Y a ] Z 7 V ",
"<.<.<.<.<.<.$ <.. . . . $ <.<.<.<.<.$ <.<.<.<.<.<.<.<.<.<.<.<.X     ..q 4 < < 1 f g e N N 9 q v q Y s U q c v V Y N N ^ m | q q ",
"<.<.<.<.<.<.$ . . . . . . $ <.<.<.<.<.$ <.<.<.<.<.<.<.<.<.<.<.X     z e < q s s e e e e s N Y N 2 w - w T P e w e Q 7 v ` ^ s z ",
"<.<.<.<.<.<.$ . . <.. . . . $ <.<.<.<.<.$ <.<.<.<.<.<.<.<.<.<.X     8 ^ 9 - #.2 3 e f P 2 q T 7 N 9 1 4 1 w Y e V 2 9 w 4 e 2 v ",
"<.<.<.<.<.<.$ . . . . . . . . $ $ $ $ $ $ $ <.<.<.<.<.<.<.<.<.X     J 8 1 8 7 2 P ; 2 3 e 1 g < 1 V e n Y a w g 1 < - ; 9 1 3 1 ",
"<.<.<.<.<.<.<.$ . . . <.. . . $ <.<.<.<.<.$ <.<.<.<.<.<.<.<.<.X     1 T < 2 # @ g q e ; q 9 ; 4 < s 1 a S a T 2 < 9 ; + a q 8 w ",
"<.<.<.<.<.<.<.<.$ . . . . . . $ <.<.<.<.<.$ <.<.<.<.<.<.<.<.<.X     2 2 ; 9 7 7 r 2 q 7 w 2 e 2 2 8 s z 4 < c 1 7 8 g 3 m 2 % 1 ",
"<.<.<.<.<.<.<.<.<.$ . . . . . $ <.<.<.<.<.$ <.<.<.<.<.<.<.<.<.X     1 & 2 < # 7 7 8 q 7 6 7 q a 9 1 8 e c 4 8 z 1 # 2 < 6 g 0 2 ",
"<.<.<.<.<.<.<.<.<.<.$ . . . . $ <.<.<.<.<.$ <.<.<.<.<.<.<.<.<.X     e - 8 < 1 3 0 2 ; 7 2 1 q 8 4 N z f 2 8 4 1 7 1 - q ; 1 q q ",
"<.<.<.<.<.<.<.<.<.<.<.$ . . . $ <.<.<.<.<.$ <.<.<.<.<.<.<.<.<.X     > 1 2 + O 1 0 e w 0 8 Z 6 q + 2 4 v q 8 9 $ 1 9 ; > $ 2 1 2 ",
"<.<.<.<.<.<.<.<.<.<.<.<.$ . . $ <.<.<.<.<.$ <.<.<.<.<.<.<.<.<.X     - + 9 2 e 7 1 7 g w N 7 q 9 8 1 a 8 9 4 8 < ^ ; 1 1 < - - - ",
"<.<.<.<.<.<.<.<.<.<.<.<.<.$ . $ <.<.<.<.<.$ <.<.<.<.<.<.<.<.<.X     ; 7 - s O 2 m # - e 8 : g Z < 2 F 8 P 4 1 Y 1 # 1 2 ) 2 Z 8 ",
"<.<.<.<.<.<.<.<.<.<.<.<.<.<.$ $ <.<.<.<.<.$ <.<.<.<.<.<.<.<.<.X     e 1 @.a Z e 9 2 - q 2 q > 6 # 1 Y 2 2 N 2 z 1 g ; 7 + 9 # g ",
"<.<.<.<.<.<.<.<.<.<.<.<.<.<.<.$ <.<.<.<.<.$ <.<.<.<.<.<.<.<.<.X     1 g e ' m Y y q & q = t 7 9 Y 6 - g < < 9 q c e q 2 e m P s ",
"<.<.<.<.<.<.<.<.<.<.<.<.<.<.<.<.$ <.<.<.<.$ <.<.<.<.<.<.<.<.<.X     Y 8 2 ..q 2 Y < - 2 2 e @ > s < w - 9 2 7 a 1 a ) S -.w +.w ",
"<.<.<.<.<.<.<.<.<.<.<.<.<.<.<.<.<.$ <.<.<.$ <.<.<.<.<.<.<.<.<.X     : r - 2 | ] 7 < s 1 - r @ 6 3 9 9 1 z < 8 7 u e v Y ^ ^ +.) ",
"<.<.<.<.<.<.<.<.<.<.<.<.<.<.<.<.<.<.$ <.<.$ <.<.<.<.<.<.<.<.<.X     ; e &.:.1 < ; 3 1 2 2 P U q Z 2 e < ; N 2 B L ) e  .] e 8 a ",
"<.<.<.<.<.<.<.<.<.<.<.<.<.<.<.<.<.<.<.$ <.$ <.<.<.<.<.<.<.<.<.X     2 7 2 9 < + 3 7 - ; ; - + % - < 3 1 2 2 4 T q N ) Y 9  .3 s ",
"<.<.<.<.<.<.<.<.<.<.<.<.<.<.<.<.<.<.<.<.$ $ <.<.<.<.<.<.<.<.<.X     2 q Z g 8 V 1 - w ` 1 2 e 2 < s < g V 9 U F X.P e $.Y 2 #.q ",
"<.<.<.<.<.<.<.<.<.<.<.<.<.<.<.<.<.<.<.<.<.$ <.<.<.<.<.<.<.<.<.X     - e 1 g 7 ; 7 2 2 S V 8 2 + 9 2 g g 1 e 2 N N N Y t Y U 2 N ",
"<.<.<.<.<.<.$ <.<.<.<.<.<.<.<.<.<.<.<.<.<.<.<.<.<.<.<.<.<.<.<.X     2 # < ; - O > D , $ > 9 6 6 t D d * < ; ; M ] M Q ' M  .9 q ",
"<.<.<.<.<.<.$ $ <.<.<.<.<.<.<.<.<.<.<.<.<.<.<.<.<.<.<.<.<.<.<.X     - 9 1 ; q 2 I t 0 R t 6 R 0 0 E t 0 w 2 e y e V 7 e ] ) g g ",
"<.<.<.<.<.<.$ <.$ <.<.<.<.<.<.<.<.<.<.<.<.<.<.<.<.<.<.<.<.<.<.X     Q - 8 B 8 7 0 I > $ * r > / > 6 8 0 w - 2 e M > q q 4 q 2 v ",
"<.<.<.<.<.<.$ <.<.$ <.<.<.<.<.<.<.<.<.<.<.<.<.<.<.<.<.<.<.<.<.X     9 9 2 e ] @ > 0 $ 6 > 6 t 6 / 7 0 7 e ~ 3 e 2 : $ - r 2 3 2 ",
"<.<.<.<.<.<.$ <.<.<.$ <.<.<.<.<.<.<.<.<.<.<.<.<.<.<.<.<.<.<.<.X     q 7 4 * e & 0 0 t > 6 0 d t 8 o t > 7 : > 0 < e ; % a q 8 w ",
"<.<.<.<.<.<.$ <.<.<.<.$ <.<.<.<.<.<.<.<.<.<.<.<.<.<.<.<.<.<.<.X     : 7 1 e 1 4 0 * t 0 0 * 6 > 9 e > 6 = *.0 2 8 2 A 3 g 2 + : ",
"<.<.<.<.<.<.$ <.<.<.<.<.$ <.<.<.<.<.<.<.<.<.<.<.<.<.<.<.<.<.<.X     7 > 7 8 : q 0 0 $ 0 0 0 0 6 > 7 > D > t 0 r $ - 2 < 6 s 2 7 ",
"<.<.<.<.<.<.$ $ <.<.<.<.<.$ <.<.<.<.<.<.<.<.<.<.<.<.<.<.<.<.<.X     9 * + q 6 7 > $ 9 0 > * 6 0 7 0 d : 0 8 / 2 e 7 - * 9 > > J ",
"<.<.<.<.<.<.$ . $ <.<.<.<.<.$ <.<.<.<.<.<.<.<.<.<.<.<.<.<.<.<.X     7 : @ 0 6 7 0 * 0 7 0 6 > > - : _ 9 y e E 7 - 7 7 > 2 r J 3 ",
"<.<.<.<.<.<.$ . . $ <.<.<.<.<.$ <.<.<.<.<.<.<.<.<.<.<.<.<.<.<.X     * 7 0 : 7 , 9 $ 9 0 0 0 > 6 G 8 : 8 7 d 7 e P e t q 6 e q q ",
"<.<.<.<.<.<.$ . . . $ <.<.<.<.<.$ <.<.<.<.<.<.<.<.<.<.<.<.<.<.X     s 7 7 : 9 7 6 : > 0 0 6 6 D : e 0 0 t > = t 8 q q q 0 q q > ",
"<.<.<.<.<.<.$ . . . . $ <.<.<.<.<.$ <.<.<.<.<.<.<.<.<.<.<.<.<.X     S g : / = > > D e > 0 0 0 0 8 r G 0 9 t : w 3 g ; e e J q $.",
"<.<.<.<.<.<.$ <.. . . . $ <.<.<.<.<.$ <.<.<.<.<.<.<.<.<.<.<.<.X     t C e Z 7 | > > D * 0 0 0 9 > D t I > > R 0 ' w q 0 4 9 $.M ",
"<.<.<.<.<.<.$ . . . . . . $ <.<.<.<.<.$ <.<.<.<.<.<.<.<.<.<.<.X     7 3 g e t e > / 0 9 6 : R 0 e 0 G -._ 0 0 _ r 8 : , 7 m t S ",
"<.<.<.<.<.<.$ . . <.. . . . $ <.<.<.<.<.$ <.<.<.<.<.<.<.<.<.<.X     0 / 0 L $.d 9 9 / t D > t 0 G  .t t 9 /  ./ t e 0 e t ! r } ",
"<.<.<.<.<.<.$ . . . . . . . . $ $ $ $ $ $ $ <.<.<.<.<.<.<.<.<.X     0 0  .t J 0 _ | / | 0 9 : / | I 0 -.' 0 9 t e y 3 e e  .0 ] ",
"<.<.<.<.<.<.<.$ . . . <.. . . $ <.<.<.<.<.$ <.<.<.<.<.<.<.<.<.X     G ! ] 0 -.D , 9 t 0 8 D t 0 _ | D : #._  . .T d 0 / ' e ;.d ",
"<.<.<.<.<.<.<.<.$ . . . . . . $ <.<.<.<.<.$ <.<.<.<.<.<.<.<.<.X     6 D R g * | _ E #.*.| ! G L G  .|  .y { $.*.R 7  . .G _ *.0 ",
"<.<.<.<.<.<.<.<.<.$ . . . . . $ <.<.<.<.<.$ <.<.<.<.<.<.<.<.<.X     | _ _ #.$.! E #.| | 0 L I t _ #.*.' / / / #.t | 0 _ ;.$. .;.",
"<.<.<.<.<.<.<.<.<.<.$ . . . . $ <.<.<.<.<.$ <.<.<.<.<.<.<.<.<.X      .o. .$./  ./ T G _ ;.t  .*.| #.d #.I #.E _ > t 0 ,.>.| I  .",
"<.<.<.<.<.<.<.<.<.<.<.$ . . . $ <.<.<.<.<.$ <.<.<.<.<.<.<.<.<.X     /  .#.Z $.0 / E | t X.Q t ;.| $.}  .d | _ 9  . ./  .E  .-.| ",
"<.<.<.<.<.<.<.<.<.<.<.<.$ . . $ <.<.<.<.<.$ <.<.<.<.<.<.<.<.<.X     #.E  .-. ./ | E t { / _ } R #.#.$.| ! D { G 0 $.T 9 > / #. .",
"<.<.<.<.<.<.<.<.<.<.<.<.<.$ . $ <.<.<.<.<.$ <.<.<.<.<.<.<.<.<.X     ] t T =.D E t _  .! _ R D J d / #. .t D | D 9 : D $.] Z 0 | ",
"<.<.<.<.<.<.<.<.<.<.<.<.<.<.$ $ <.<.<.<.<.$ <.<.<.<.<.<.<.<.<.X     D  . .=.0 D #.D y I $.=./ M -.0 / T  .I y 0 D  .7 D _ R  .t ",
"<.<.<.<.<.<.<.<.<.<.<.<.<.<.<.$ <.<.<.<.<.$ <.<.<.<.<.<.<.<.<.X     e E -.t y 7 / J t $.t q 8 0 w 0 G 0 G y e q | _ #.0 D 0 9 > ",
"<.<.<.<.<.<.<.<.<.<.<.<.<.<.<.<.$ <.<.<.<.$ <.<.<.<.<.<.<.<.<.X     t t ] 0  .R 8 E R ! G 8 G 3 w e } D 3 8 9 y _ y > e 0 | , 0 ",
"<.<.<.<.<.<.<.<.<.<.<.<.<.<.<.<.<.$ <.<.<.$ <.<.<.<.<.<.<.<.<.X     t G G -. .G r ) e I / e 3 3 q  .r G ] e 0 7 7 t d e y t G 0 ",
"<.<.<.<.<.<.<.<.<.<.<.<.<.<.<.<.<.<.$ <.<.$ <.<.<.<.<.<.<.<.<.X     ! R | 9 ] M S q D | 0 0 8 ] q M w r T | 7 0 I d 0 0 0 | t e ",
"<.<.<.<.<.<.<.<.<.<.<.<.<.<.<.<.<.<.<.$ <.$ <.<.<.<.<.<.<.<.<.X     , ! 0 t t 0 J ! 0 8 w 3 g 7 w G 3 T W g e g w r 0 7 > 0 q r ",
"<.<.<.<.<.<.<.<.<.<.<.<.<.<.<.<.<.<.<.<.$ $ <.<.<.<.<.<.<.<.<.X     7 | 0 R E 0 ` t S  .w ^ w V w Y G e ! ' J t ] 2 = r / G 0 E ",
"<.<.<.<.<.<.<.<.<.<.<.<.<.<.<.<.<.<.<.<.<.$ <.<.<.<.<.<.<.<.<.X     8 E 0 y / G 3 ..m 7 m 9 4 9 ] S w  .Y e M ; , : 2 t ] D r V ",
"<.<.<.<.<.<.<.<.<.<.<.<.<.<.<.<.<.<.<.<.<.<.<.<.<.<.<.<.<.<.<.X     | _ , , | 8 E ) w 2 7 3 V 4 S M T Y e t 8 q e 0 7 q q r 0 w "
};
