/* XPM */
static char *result[] = {
/* columns rows colors chars-per-pixel */
"64 64 237 2 ",
"   c black",
".  c #301A0C",
"X  c #192808",
"o  c #153807",
"O  c #1B3E11",
"+  c #362B15",
"@  c #323714",
"#  c #2B3609",
"$  c #1A1137",
"%  c #15223B",
"&  c #27263C",
"*  c #23143A",
"=  c #580F0F",
"-  c #561716",
";  c #451F12",
":  c #650C0F",
">  c #6B0D11",
",  c #710E14",
"<  c #681417",
"1  c #7B1519",
"2  c #761317",
"3  c #68120E",
"4  c #4F311C",
"5  c #672218",
"6  c #7A2718",
"7  c #713410",
"8  c #7B1B21",
"9  c #671F21",
"0  c #5D3525",
"q  c #4E282C",
"w  c #652821",
"e  c #792527",
"r  c #693628",
"t  c #733528",
"y  c #733937",
"u  c #154106",
"i  c #1B4C18",
"p  c #28480E",
"a  c #2A4714",
"s  c #285118",
"d  c #344F18",
"f  c #35611E",
"g  c #226519",
"h  c #2B5326",
"j  c #395828",
"k  c #2C5A32",
"l  c #394B30",
"z  c #37652C",
"x  c #1D5A2B",
"c  c #444B18",
"v  c #4F501D",
"b  c #6A5017",
"n  c #464828",
"m  c #534C32",
"M  c #734629",
"N  c #6F4139",
"B  c #784C36",
"V  c #695033",
"C  c #456A2E",
"Z  c #646630",
"A  c #1C1541",
"S  c #2A1C43",
"D  c #0C2646",
"F  c #062B53",
"G  c #113256",
"H  c #342B4B",
"J  c #073566",
"K  c #183B68",
"L  c #053973",
"P  c #293864",
"I  c #453855",
"U  c #4A3D61",
"Y  c #12426A",
"T  c #36526B",
"R  c #584658",
"E  c #4A505A",
"W  c #765946",
"Q  c #694D43",
"!  c #7B6B5A",
"~  c #6F714E",
"^  c #51556B",
"/  c #675A6E",
"(  c #576678",
")  c #4B627D",
"_  c #7B7362",
"`  c #766978",
"'  c #696A6E",
"]  c #4B6D46",
"[  c #83171C",
"{  c #991E08",
"}  c #892509",
"|  c #952709",
" . c #8C3C01",
".. c #873417",
"X. c #983913",
"o. c #933010",
"O. c #BC381A",
"+. c #AB2F11",
"@. c #881D25",
"#. c #89292B",
"$. c #932E33",
"%. c #873535",
"&. c #943638",
"*. c #8A262F",
"=. c #B83727",
"-. c #C13113",
";. c #9C430B",
":. c #894A19",
">. c #915109",
",. c #A9500D",
"<. c #986314",
"1. c #946C16",
"2. c #A46B08",
"3. c #A7790A",
"4. c #A87B1A",
"5. c #BF620D",
"6. c #84572C",
"7. c #834B36",
"8. c #904C21",
"9. c #B45732",
"0. c #946424",
"q. c #C75335",
"w. c #903D40",
"e. c #87594B",
"r. c #895A54",
"t. c #904F4B",
"y. c #8C6C5D",
"u. c #846A5A",
"i. c #93655B",
"p. c #8B7258",
"a. c #A16557",
"s. c #8D6C60",
"d. c #9B6B68",
"f. c #8C7463",
"g. c #847C6C",
"h. c #8D7C6B",
"j. c #827665",
"k. c #937B6B",
"l. c #947567",
"z. c #847E72",
"x. c #837A79",
"c. c #957E74",
"v. c #61805E",
"b. c #AC8505",
"n. c #B79504",
"m. c #B38A18",
"M. c #AD8C12",
"N. c #A99525",
"B. c #C08803",
"V. c #C9A805",
"C. c #D2B612",
"Z. c #CA8F28",
"A. c #968448",
"S. c #8A816E",
"D. c #96826E",
"F. c #8C8373",
"G. c #8A8578",
"H. c #938473",
"J. c #9B8573",
"K. c #958B76",
"L. c #9A8B76",
"P. c #948B7B",
"I. c #9B8C7B",
"U. c #968479",
"Y. c #9D937E",
"T. c #9C9477",
"R. c #A2927E",
"E. c #A69A78",
"W. c #A79177",
"Q. c #AEA07D",
"!. c #A08B52",
"~. c #C2816C",
"^. c #CCB346",
"/. c #004B84",
"(. c #20608C",
"). c #506A87",
"_. c #69748A",
"`. c #877D84",
"'. c #738090",
"]. c #8B8885",
"[. c #948D82",
"{. c #9A8E82",
"}. c #948A85",
"|. c #9D9483",
" X c #96918B",
".X c #9C958B",
"XX c #989586",
"oX c #979692",
"OX c #9C9692",
"+X c #9D9A94",
"@X c #9D9B9A",
"#X c #999697",
"$X c #8F8D92",
"%X c #A29482",
"&X c #A29986",
"*X c #A49C8B",
"=X c #A99D8B",
"-X c #A69386",
";X c #A49D93",
":X c #A29D9A",
">X c #AA9D94",
",X c #AF9388",
"<X c #AAA28E",
"1X c #A7A48D",
"2X c #A6A195",
"3X c #ABA493",
"4X c #A6A19C",
"5X c #ABA59B",
"6X c #ADA99D",
"7X c #B2A695",
"8X c #B1A996",
"9X c #B3AB9C",
"0X c #B9AA9B",
"qX c #B9B19F",
"wX c #B1A38C",
"eX c #A19EA2",
"rX c #A6A4A2",
"tX c #A9A6A2",
"yX c #ADABA4",
"uX c #ABABAA",
"iX c #A8A7A8",
"pX c #B2ADA3",
"aX c #B1AFAA",
"sX c #B4B1A5",
"dX c #B9B3A4",
"fX c #B5B3AC",
"gX c #B9B6AB",
"hX c #BBB8AD",
"jX c #BABAA7",
"kX c #ADAFB0",
"lX c #B6B6B2",
"zX c #B9B9B5",
"xX c #BABAB9",
"cX c #BBB7B0",
"vX c #C8B4A6",
"bX c #D5D5AA",
"nX c None",
/* pixels */
"nXnXnXnXnXnXnXnXnXnXnXnXnXnXnXnXnXnXnXnXnXnXnXnXnXnXnXnXnXnXnXnXnXnXnXnXnXnXnXnXnXnXnXnXnXnXnXnXnXnXnXnXnXnXnXnXnXnXnXnXnXnXnXnX",
"nXnXnXnXnXnXnXnXnXnXnXnXnXnXnXnXnXnXnXnXnXnXnXnXnXnXnXnXnXnXnXnXnXnXnXnXnXnXnXnXnXnXnXnXnXnXnXnXnXnXnXnXnXnXnXnXnXnXnXnXnXnXnXnX",
"nXnXnXnXnXnXnXnXnXnXnXnXnXnXnXnXnXnXnXnXnXnXnXnXnXnXnXnXnXnXnXnXnXnXnXnXnXnXnXnXnXnXnXnXnXnXnXnXnXnXnXnXnXnXnXnXnXnXnXnXnXnXnXnX",
"nXnXnXnXnXnXnXnXnXnXnXnXnXnXnXnXnXnXnXnXnXnXnXnXnXnXnXnXnXnXnXnXnXnXnXnXnXnXnXnXnXnXnXnXnXnXnXnXnXnXnXnXnXnXnXnXnXnXnXnXnXnXnXnX",
"nXnXnXnXnXnXnXnXnXnXnXnXnXnXnXnXnXnXnXnXnXnXnXnXnXnXnXnXnXnXnXnXnXnXnXnXnXnXnXnXnXnXnXnXnXnXnXnXnXnXnXnXnXnXnXnXnXnXnXnXnXnXnXnX",
"nXnXnXnXnXnXnXnXnXnXnXnXnXnXnXnXnXnXnXnXnXnXnXnXnXnXnXnXnXnXnXnXnXnXnXnXnXnXnXnXnXnXnXnXnXnXnXnXnXnXnXnXnXnXnXnXnXnXnXnXnXnXnXnX",
"nXnXnXnXnXnXnXnXnXnXnXnXnXnXnXnXnXnXnXnXnXnXnXnXnXnXnXnXnXnXnXnXnXnXnXnXnXnXnXnXnXnXnXnXnXnXnXnXnXnXnXnXnXnXnXnXnXnXnXnXnXnXnXnX",
"nXnXnXnXnXnXnXnXnXnXnXnXnXnXnXnXnXnXnXnXnXnXnXnXnXnXnXnXnXnXnXnXnXnXnXnXnXnXnXnXnXnXnXnXnXnXnXnXnXnXnXnXnXnXnXnXnXnXnXnXnXnXnXnX",
"nXnXnXnXnXnXnXnXnXnXnXnXnXnXnXnXnXnXnXnXnXnXnXnXnXnXnXnXnXnXnXnXnXnXnXnXnXnXnXnXnXnXnXnXnXnXnXnXnXnXnXnXnXnXnXnXnXnXnXnXnXnXnXnX",
"nXnXnXnXnXnXnXnXnXnXnXnXnXnXnXnXnXnXnXnXnXnXnXnXnXnXnXnXnXnXnXnXnXnXnXnXnXnXnXnXnXnXnXnXnXnXnXnXnXnXnXnXnXnXnXnXnXnXnXnXnXnXnXnX",
"nXnXnXnXnXnXnXnXnXnXnXnXnXnXnXnXnXnXnXnXnXnXnXnXnXnXnXnXnXnXnXnXnXnXnXnXnXnXnXnXnXnXnXnXnXnXnXnXnXnXnXnXnXnXnXnXnXnXnXnXnXnXnXnX",
"nXnXnXnXnXnXnXnXnXnXnXnXnXnXnXnXnXnXnXnXnXnXnXnXnXnXnXnXnXnXnXnXnXnXnXnXnXnXnXnXnXnXnXnXnXnXnXnXnXnXnXnXnXnXnXnXnXnXnXnXnXnXnXnX",
"nXnXnXnXnXnXnXnXnXnXnXnXnXnXnXnXnXnXnXnXnXnXnXnXnXnXnXnXnXnXnXnXnXnX0XnXnXnXnXnXnXnXnXnXnXnXnXnXnXnXnXnXnXnXnXnXnXnXnXnXnXnXnXnX",
"nXnXnXnXnXnXnXnXnXnXnXnXnXnXnXnXnXnXnXnXnXnXnXnXnXnXnXnXnXnXnXnXo.O.q.q.q.~.nXnXnXnXnXnXnXnXnXnXnXnXnXnXnXnXnXnXnXnXnXnXnXnXnXnX",
"nXnXnXnXnXnXnXnXnXnXnXnXnXnXnXnXnXnXnXnXnXnXnXnXnXnXnXW l u u u f b ;.-.-.q.nXnXnXnXnXnXnXnXnXnXnXnXnXnXnXnXnXnXnXnXnXnXnXnXnXnX",
"nXnXnXnXnXnXnXnXnXnXnXnXnXnXnXnXnXnXnXnXnXnXnXnX1 @.#.M c p p f f p b X.-.-.9.nXnXnXnXnXnXnXnXnXnXnXnXnXnXnXnXnXnXnXnXnXnXnXnXnX",
"nXnXnXnXnXnXnXnXnXnXnXnXnXnX3XsXjXfXnXnXnXnX< 1 [ [ *.$.r # p C z p c 7 =.=.=.nXnXnXnXnXnXnXnXnXnXnXnXnXnXnXnXnXnXnXnXnXnXnXnXnX",
"nXnXnXnXnXnXnXnXnXnXnXnXnXnX1X8XsXfXfXfXpXd.e 1 2 1 [ @.5 + # o u s d 5 +.=.=.nXnXnXnXnXnXnXnXnXnXnXnXnXnXnXnXnXnXnXnXnXnXnXnXnX",
"nXnXnXnXnXnXnXnXnXnXnXnXnXnXnX3X5XyXfXfXaX,X%., > > , 8 5 0 c # p s d 7 { =.,.Z.^.nXnXnXnXnXnXnXnXnXnXnXnXnXnXnXnXnXnXnXnXnXnXnX",
"nXnXnXnXnXnXnXnXnXnXnXnXnXnXnXnX1X2X5XyXtX5Xd.e < , 2 8 t B Z Z v.~ Z 6 { +.O.Z.C.nXnXnXnXnXnXnXnXnXnXnXnXnXnXnXnXnXnXnXnXnXnXnX",
"nXnXnXnXnXnXnXnXnXnXnXnXnXnXnXnXnX&X*X>X>X>X{.r.y e e %.e.p.p.J.E.wXE.a.+.+.5.V.C.nXnXnXnXnXnXnXnXnXnXnXnXnXnXnXnXnXnXnXnXnXnXnX",
"nXnXnXnXnXnXnXnXnXnXnXnXnXnXnXnXnXnX{.{.-X;X{.c.s.r.r.s.J.J.k.r.a.qXvXwX9.2.B.V.V.nXnXnXnXnXnXnXnXnXnXnXnXnXnXnXnXnXnXnXnXnXnXnX",
"nXnXnXnXnXnXnXnXnXnXnXnXnXnXnXnXnXnXnXW.}.W.}.`.k.k.J.J.W.W.J.$.&.8XjXdXE.M.n.V.N.T nXnXnXnXnXnXnXnXnXnXnXnXnXnXnXnXnXnXnXnXnXnX",
"nXnXnXnXnXnXnXnXnXnXnXnXnXnXnXnXnXnXnXnXs.c.c.c.c.J.I.R.-X-XR.#.t.3X9XpXE.N.M.Z Y /.nXnXnXnXnXm a o C C j nXnXnXnXnXnXnXnXnXnXnX",
"nXnXnXnXnXnXnXnXnXnXnXnXnXnXnXnXnXnXnXD.l.y.h.D.H.I.R.%X%X%XW.$.R.=XtXtX=XA.l F L (.nXnXnXnX@ o o o o o u i h nXnXnXnXnXnXnXnXnX",
"nXnXnXnXnXnXnXnXnXnXnXnXnXnXnXnXnXnXe.j.j.h.c.U.P.K.I.R.R.%X%Xd.-X;X4XtX:X( F F J L nXnX+ X X X X X O O O s i i nXnXnXnXnXnXnXnX",
"nXnXnXnXnXnXnXnXnXnXnXnXnXnXnXe e - y Q ! H.U.K.c.I.I.%X%XR.%X%X&X>X4XtXeX( G F K nXnX+ X X + 4 ; 0 0 0 4 j k x v.nXnXnXnXnXnXnX",
"nXnXnXnXnXnXnXnXnXnXnXnXnXnX, 2 < - 9 y u.U.L.D.  H.I.R.|.%X{..X.X:XrXiXeX).K K _.nXnX# . . 5 8 8 *.$.$.y N E k ] nXnXnXnXnXnXnX",
"nXnXnXnXnXnXnXnXnXnXnXnXnX= , , : - 1 e.f.U.I.Y.H.Y.R.%X|.|.{..XOX>XtXiXeX_.^ P nXnXnX+ ; = : 3 6 ....6 @.*.y n j nXnXnXnXnXnXnX",
"nXnXnXnXnXnXnXnXnXnXnXnXnX7.2 2 1 8 #.t.l.U.L.R.I.R.|.&X&X.X.X.X:XeXtXiX#X` U H >XnXnX4 = 3 7 b >.3.3.<...1 *.y j nXnXnXnXnXnXnX",
"nXnXnXnXnXnXnXnXnXnXnXnXnXnX> 1 @.*.$.&.i.J.J.L.W.Y.Y.|..X.X.X+X:XeXyXtX`.U / x.=XR.u.m 7 b <.3.b.b.n.n.m.8.@.t n nXnXnXnXnXnXnX",
"nXnXnXnXnXnXnXnXnXnXnXnXnXnXnX, [ @.$.$.t.d.L.T.T.Y.|.|.&X;X:X:X>XtXiX`.U S S x.Y.E.g.B M 0.<.>. . .3.n.n.m...8 m nXnXnXnXnXnXnX",
"nXnXnXnXnXnXnXnXnXnXnXnXnXxXR.s.%.[ @.@.&.i.J.L.L.I.{.|..XOX+X:XeXtX#XU A $ A x.{.F.! W W 6...} } } } 2.n.n.8.#.W nXnXnXnXnXnXnX",
"nXnXnXnXnXnXnXnXnXnXnXnXnXE.H.S.h.u.%.%.t.i.k.U.P.P.I.XX.X*X:X>X>XeX` H S S $ x.{.H.F.j.! B r 0 < } | ;.b.M.:.M nXnXnXnXnXnXnXnX",
"nXnXnXnXnXnXnXnXnXnXnXnX&XL.H.h.h.f.f.y.j.f.j.h.H.K.I.{.|..X:X:XeXOXx.R I S I `.{.[.[.{.{.U./ % % q }  .3.M.:.t nXnXnXnXnXnXnXnX",
"nXnXnXnXnXnXnXnXnXnXnXnXI.P.F.h.k.h.h.f.f.f.f.h.h.F.P.{. X.XOX+X:XOX}.`.` / `.,X.X{.&X>X5X>X].T D % } ;.3.4.7.t nXnXnXnXnXnXnXnX",
"nXnXnXnXnXnXnXnXnXnXnX%XY.P.H.H.D.U.L.L.I.U.P.U.G.U.].}. XOXOX+X:X@X:X>X>X>X>X5X>X;X;X5XpXaX@XT F D } >.M.0.B nXnXnXnXnXnXnXnXnX",
"nXnXnXnXnXnXnXnXnXnXnX|.I.P.I.|.Y.%X-X=X=X=X-X.X{. X X.X.XoXOX:X:X:X>XeX:XyXyXyX5X>X>X6XpXlXiX) F D } ,.M.6.V nXnXnXnXnXnXnXnXnX",
"nXnXnXnXnXnXnXnXnXnX|.-XY.Y.R.&X*X=X<X7X8X9X6X6X2X>X;X*X*X>X5X4X:X4X>XtXtXpXpX7X5X7X5XyXfXlXkX).J & | 2.4.m @ nXnXnXnXnXnXnXnXnX",
"nXnXnXnXnXnXnXnXnXnX{.W.Y.%X&X&X=X=X=X7X8X0XpXpX9X7X5X6X9XpXpXpXpXpXpXpXpXpXsXpXpXdXsXfXlXxXkX).J q X.3.b @ z h nXnXnXnXnXnXnXnX",
"nXnXnXnXnXnXnXnXnXnX|.,XY.|.&X=X=X=X3X7X9X9XdX9X8X9XqXqXdXdXgXfXdXgXgXfXgXgXgXgXhXgXlXcXzXxXkX).G 5 X.3.0 a s g nXnXnXnXnXnXnXnX",
"nXnXnXnXnXnXnXnXnXnX|.W.Y.%X&X1X=X=X<XwX8X9X9X8X8X9XqXdXdXdXgXdXgXgXgXgXhXhXcXhXhXcXxXxXxXxX@XT J 6 ;.4.0 p f s k nXnXnXnXnXnXnX",
"nXnXnXnXnXnXnXnXnXnX&X+XY.%X%X&X*X1X<X<XwX5X8X7X8X9XqXjXgXhXgXgXgXgXgXgXhXhXcXhXjXxXxXxXxXxX'.Y F 6 >.M.5 d n G.nXnXnXnXnXnXnXnX",
"nXnXnXnXnXnXnXnXnXwX1X|.Y.Y.Y.%XR.*X=X1X<X3X<X3X7X8XqXqXdXdXdXdXdXgXgXcXhXcXhXlXcXzXzXcXzXzX'.Y D ..,.4.t M p.0XnXnXnXnXnXnXnXnX",
"nXnXnXnXnXnXnXnX1X=X|.P.Y.|.|.E.Y.|.Y.1X*X*X*X1X1X7X8X9X9XsXsXsXfXfXfXfXgXlXlXfXhXzXlXlXzXiX( G & 6 >.m.0.e.J.7XnXnXnXnXnXnXnXnX",
"nXnXnXnXnXnXnXnX<X1XY.F.T.E.Y.Y.E.Y.E.&X&X*X&X&X*X1X1X5X6X6X6XyXsXsXsXfXgXgXfXlXlXlXlXlXkX$XE H q y 7.A.!.W.7XqXnXnXnXnXnXnXnXnX",
"nXnXnXnXnXnXnXnX1X&XK.S.v.E.|.|.XX&X|.&X.X&X&X&X&X*X*X<X3X5X5X6X9XyXsXsXfXlXaXfXfXlXsXaXiX'.v.' R W y.W.Q.wX0XnXnXnXnXnXnXnXnXnX",
"nXnXnXnXnXnXnXnX1X|.G.g.j.U.T.Y.&X|.&X|.&X&X&X|.&X&X&X*X1X3X5X5X6XyX6XsXaXaXuXfXaXaXsX6X+XoXrX4XnXnXnXnXnXnXnXnXnXnXnXnXnXnXnXnX",
"nXnXnXnXnXnXnXnX=X&XK.g._ g.F.P.|.|.Y.[.|.|.|.|.*X&X*X*X*X2X3X2X6X6X6XyXsXyXuXuXpXuXrX+X+XtXdXnXnXnXnXnXnXnXnXnXnXnXnXnXnXnXnXnX",
"nXnXnXnXnXnXnXnX=X&XY.F.S.g.S.S.K.Y.Y.P.P.P.Y.XX|.*X|.*X*X1X;X3X1X4X6X6XyXyXyXyXuXyX+X@XtXfXhXnXnXnXnXnXnXnXnXnXnXnXnXnXnXnXnXnX",
"nXnXnXnXnXnXnXnXnX1XXXP.F.S.S.S.S.S.F.P.K.K.P.P.|.|.&X*X*X;X*X3X2X5X6X6X6X6XyXyXyX+X:XtXpXnXnXnXnXnXnXnXnXnXnXnXnXnXnXnXnXnXnXnX",
"nXnXnXnXnXnXnXnXnXnX>X|.P.F.S.S.S.S.j.j.g.S.F.K.Y.|.|.|.&X*X;X2X2X2X5X5X5XtX5X+XoX@XuXsXcXnXnXnXnXnXnXnXnXnXnXnXnXnXnXnXnXnXnXnX",
"nXnXnXnXnXnXnXnXnXnXnX1X.X%XT.F.F.F.g.j._ ! ! g.S.F.K.P.XX.X+X*X2X2X2X2X+X+XoXoXiXuXgXnXnXnXnXnXnXnXnXnXnXnXnXnXnXnXnXnXnXnXnXnX",
"nXnXnXnXnXnXnXnXnXnXnXnXnX*X|.XXP.P.G.F.z.g._ _ _ ! _ z.F.F.G.P.XXXX X X X X+X4XiXbXnXnXnXnXnXnXnXnXnXnXnXnXnXnXnXnXnXnXnXnXnXnX",
"nXnXnXnXnXnXnXnXnXnXnXnXnXnXnX1XwX*X|.XX{.P.H.F.v.x.z._ g.g.z.G.G.].]. X+X2XyXfXnXnXnXnXnXnXnXnXnXnXnXnXnXnXnXnXnXnXnXnXnXnXnXnX",
"nXnXnXnXnXnXnXnXnXnXnXnXnXnXnXnXjX9X6X3X;X*XwX.X;X{.{.[.].[.].[. X XeX2XrXuXnXnXnXnXnXnXnXnXnXnXnXnXnXnXnXnXnXnXnXnXnXnXnXnXnXnX",
"nXnXnXnXnXnXnXnXnXnXnXnXnXnXnXnXnXnXnXnXnXnXpX8X6X8X5X5X3X6X6X6X2X6X9XnXnXnXnXnXnXnXnXnXnXnXnXnXnXnXnXnXnXnXnXnXnXnXnXnXnXnXnXnX",
"nXnXnXnXnXnXnXnXnXnXnXnXnXnXnXnXnXnXnXnXnXnXnXnXnXnXnXnXnXnXnXnXnXnXnXnXnXnXnXnXnXnXnXnXnXnXnXnXnXnXnXnXnXnXnXnXnXnXnXnXnXnXnXnX",
"nXnXnXnXnXnXnXnXnXnXnXnXnXnXnXnXnXnXnXnXnXnXnXnXnXnXnXnXnXnXnXnXnXnXnXnXnXnXnXnXnXnXnXnXnXnXnXnXnXnXnXnXnXnXnXnXnXnXnXnXnXnXnXnX",
"nXnXnXnXnXnXnXnXnXnXnXnXnXnXnXnXnXnXnXnXnXnXnXnXnXnXnXnXnXnXnXnXnXnXnXnXnXnXnXnXnXnXnXnXnXnXnXnXnXnXnXnXnXnXnXnXnXnXnXnXnXnXnXnX",
"nXnXnXnXnXnXnXnXnXnXnXnXnXnXnXnXnXnXnXnXnXnXnXnXnXnXnXnXnXnXnXnXnXnXnXnXnXnXnXnXnXnXnXnXnXnXnXnXnXnXnXnXnXnXnXnXnXnXnXnXnXnXnXnX",
"nXnXnXnXnXnXnXnXnXnXnXnXnXnXnXnXnXnXnXnXnXnXnXnXnXnXnXnXnXnXnXnXnXnXnXnXnXnXnXnXnXnXnXnXnXnXnXnXnXnXnXnXnXnXnXnXnXnXnXnXnXnXnXnX",
"nXnXnXnXnXnXnXnXnXnXnXnXnXnXnXnXnXnXnXnXnXnXnXnXnXnXnXnXnXnXnXnXnXnXnXnXnXnXnXnXnXnXnXnXnXnXnXnXnXnXnXnXnXnXnXnXnXnXnXnXnXnXnXnX",
"nXnXnXnXnXnXnXnXnXnXnXnXnXnXnXnXnXnXnXnXnXnXnXnXnXnXnXnXnXnXnXnXnXnXnXnXnXnXnXnXnXnXnXnXnXnXnXnXnXnXnXnXnXnXnXnXnXnXnXnXnXnXnXnX"
};
