/* XPM */
static char *result[] = {
/* columns rows colors chars-per-pixel */
"64 64 238 2 ",
"   c black",
".  c #301A0C",
"X  c #192808",
"o  c #153807",
"O  c #1B3E11",
"+  c #362B15",
"@  c #323714",
"#  c #2B3609",
"$  c #1A1137",
"%  c #15223B",
"&  c #27263C",
"*  c #23143A",
"=  c #580F0F",
"-  c #561716",
";  c #451F12",
":  c #650C0F",
">  c #6B0D11",
",  c #710E14",
"<  c #681417",
"1  c #7B1519",
"2  c #761317",
"3  c #68120E",
"4  c #4F311C",
"5  c #672218",
"6  c #7A2718",
"7  c #713410",
"8  c #7B1B21",
"9  c #671F21",
"0  c #5D3525",
"q  c #4E282C",
"w  c #652821",
"e  c #792527",
"r  c #693628",
"t  c #733528",
"y  c #733937",
"u  c #154106",
"i  c #1B4C18",
"p  c #28480E",
"a  c #2A4714",
"s  c #285118",
"d  c #344F18",
"f  c #35611E",
"g  c #226319",
"h  c #2B5326",
"j  c #395828",
"k  c #2C5A32",
"l  c #394B30",
"z  c #37652B",
"x  c #1D5A2B",
"c  c #444B18",
"v  c #4F501D",
"b  c #6A5017",
"n  c #464828",
"m  c #534C32",
"M  c #734529",
"N  c #6F4139",
"B  c #784C36",
"V  c #695033",
"C  c #456A2E",
"Z  c #646630",
"A  c #1C1541",
"S  c #2A1C43",
"D  c #0C2646",
"F  c #062B53",
"G  c #113256",
"H  c #342B4B",
"J  c #073566",
"K  c #183B68",
"L  c #053973",
"P  c #293864",
"I  c #453855",
"U  c #4A3D61",
"Y  c #12426A",
"T  c #36526B",
"R  c #584658",
"E  c #4A505A",
"W  c #765946",
"Q  c #694D43",
"!  c #7B6B5A",
"~  c #6F714E",
"^  c #51556B",
"/  c #675A6E",
"(  c #576678",
")  c #4B627D",
"_  c #7B7362",
"`  c #766978",
"'  c #696A6E",
"]  c #4B6D46",
"[  c #83171C",
"{  c #991E08",
"}  c #892509",
"|  c #952709",
" . c #8C3C01",
".. c #873417",
"X. c #983913",
"o. c #933010",
"O. c #BC381A",
"+. c #AB2F11",
"@. c #881D25",
"#. c #89292B",
"$. c #932E33",
"%. c #873535",
"&. c #943638",
"*. c #8A262F",
"=. c #B83727",
"-. c #C13113",
";. c #9C430B",
":. c #894A19",
">. c #915109",
",. c #A9500D",
"<. c #986314",
"1. c #946C16",
"2. c #A46B08",
"3. c #A7790A",
"4. c #A87B1A",
"5. c #BF620D",
"6. c #84572C",
"7. c #834B36",
"8. c #904C21",
"9. c #B45732",
"0. c #946424",
"q. c #C75335",
"w. c #903D40",
"e. c #87594B",
"r. c #895A54",
"t. c #904F4B",
"y. c #8C6C5D",
"u. c #846A5A",
"i. c #93655B",
"p. c #8B7258",
"a. c #A16557",
"s. c #8D6C60",
"d. c #9B6B68",
"f. c #8C7463",
"g. c #847C6C",
"h. c #8D7C6B",
"j. c #827665",
"k. c #937B6B",
"l. c #947567",
"z. c #847E72",
"x. c #837A79",
"c. c #957E74",
"v. c #61805E",
"b. c #AC8505",
"n. c #B79504",
"m. c #B38A18",
"M. c #AD8C12",
"N. c #A99525",
"B. c #C08803",
"V. c #C9A805",
"C. c #D2B612",
"Z. c #CA8F28",
"A. c #968448",
"S. c #8A816E",
"D. c #80866F",
"F. c #96826E",
"G. c #8C8373",
"H. c #8B8579",
"J. c #938473",
"K. c #9B8573",
"L. c #958B76",
"P. c #9A8B76",
"I. c #948B7B",
"U. c #9B8C7B",
"Y. c #968479",
"T. c #9D937E",
"R. c #9C9477",
"E. c #A2927E",
"W. c #A69978",
"Q. c #A79177",
"!. c #AEA07D",
"~. c #A08B52",
"^. c #C2816C",
"/. c #CCB346",
"(. c #004B84",
"). c #20608C",
"_. c #506A87",
"`. c #69748A",
"'. c #877D84",
"]. c #738090",
"[. c #8B8885",
"{. c #948D82",
"}. c #9A8E82",
"|. c #948A85",
" X c #9D9483",
".X c #96918B",
"XX c #9C958B",
"oX c #989586",
"OX c #979692",
"+X c #9C9692",
"@X c #9D9A94",
"#X c #9D9B9A",
"$X c #999697",
"%X c #8F8D92",
"&X c #A29482",
"*X c #A29986",
"=X c #A49C8B",
"-X c #A99D8B",
";X c #A69386",
":X c #A49D93",
">X c #A29D9A",
",X c #AA9D94",
"<X c #AE9388",
"1X c #AAA28E",
"2X c #A7A48D",
"3X c #A6A195",
"4X c #ABA493",
"5X c #A6A19C",
"6X c #ABA59B",
"7X c #ADA99D",
"8X c #B2A695",
"9X c #B1A996",
"0X c #B3AB9C",
"qX c #B9AA9B",
"wX c #B9B19F",
"eX c #B1A38C",
"rX c #A19EA2",
"tX c #A6A4A2",
"yX c #A9A6A2",
"uX c #ADABA4",
"iX c #ABABAA",
"pX c #A8A7A8",
"aX c #B2ADA3",
"sX c #B1AFAA",
"dX c #B4B1A5",
"fX c #B9B3A4",
"gX c #B5B3AC",
"hX c #B9B6AB",
"jX c #BBB8AD",
"kX c #BABAA7",
"lX c #ADAFB0",
"zX c #B6B6B2",
"xX c #B9B9B5",
"cX c #BABAB9",
"vX c #BBB7B0",
"bX c #C8B4A6",
"nX c #D5D5AA",
"mX c None",
/* pixels */
"mXmXmXmXmXmXmXmXmXmXmXmXmXmXmXmXmXmXmXmXmXmXmXmXmXmXmXmXmXmXmXmXmXmXmXmXmXmXmXmXmXmXmXmXmXmXmXmXmXmXmXmXmXmXmXmXmXmXmXmXmXmXmXmX",
"mXmXmXmXmXmXmXmXmXmXmXmXmXmXmXmXmXmXmXmXmXmXmXmXmXmXmXmXmXmXmXmXmXmXmXmXmXmXmXmXmXmXmXmXmXmXmXmXmXmXmXmXmXmXmXmXmXmXmXmXmXmXmXmX",
"mXmXmXmXmXmXmXmXmXmXmXmXmXmXmXmXmXmXmXmXmXmXmXmXmXmXmXmXmXmXmXmXmXmXmXmXmXmXmXmXmXmXmXmXmXmXmXmXmXmXmXmXmXmXmXmXmXmXmXmXmXmXmXmX",
"mXmXmXmXmXmXmXmXmXmXmXmXmXmXmXmXmXmXmXmXmXmXmXmXmXmXmXmXmXmXmXmXmXmXmXmXmXmXmXmXmXmXmXmXmXmXmXmXmXmXmXmXmXmXmXmXmXmXmXmXmXmXmXmX",
"mXmXmXmXmXmXmXmXmXmXmXmXmXmXmXmXmXmXmXmXmXmXmXmXmXmXmXmXmXmXmXmXmXmXmXmXmXmXmXmXmXmXmXmXmXmXmXmXmXmXmXmXmXmXmXmXmXmXmXmXmXmXmXmX",
"mXmXmXmXmXmXmXmXmXmXmXmXmXmXmXmXmXmXmXmXmXmXmXmXmXmXmXmXmXmXmXmXmXmXmXmXmXmXmXmXmXmXmXmXmXmXmXmXmXmXmXmXmXmXmXmXmXmXmXmXmXmXmXmX",
"mXmXmXmXmXmXmXmXmXmXmXmXmXmXmXmXmXmXmXmXmXmXmXmXmXmXmXmXmXmXmXmXmXmXmXmXmXmXmXmXmXmXmXmXmXmXmXmXmXmXmXmXmXmXmXmXmXmXmXmXmXmXmXmX",
"mXmXmXmXmXmXmXmXmXmXmXmXmXmXmXmXmXmXmXmXmXmXmXmXmXmXmXmXmXmXmXmXmXmXmXmXmXmXmXmXmXmXmXmXmXmXmXmXmXmXmXmXmXmXmXmXmXmXmXmXmXmXmXmX",
"mXmXmXmXmXmXmXmXmXmXmXmXmXmXmXmXmXmXmXmXmXmXmXmXmXmXmXmXmXmXmXmXmXmXmXmXmXmXmXmXmXmXmXmXmXmXmXmXmXmXmXmXmXmXmXmXmXmXmXmXmXmXmXmX",
"mXmXmXmXmXmXmXmXmXmXmXmXmXmXmXmXmXmXmXmXmXmXmXmXmXmXmXmXmXmXmXmXmXmXmXmXmXmXmXmXmXmXmXmXmXmXmXmXmXmXmXmXmXmXmXmXmXmXmXmXmXmXmXmX",
"mXmXmXmXmXmXmXmXmXmXmXmXmXmXmXmXmXmXmXmXmXmXmXmXmXmXmXmXmXmXmXmXmXmXmXmXmXmXmXmXmXmXmXmXmXmXmXmXmXmXmXmXmXmXmXmXmXmXmXmXmXmXmXmX",
"mXmXmXmXmXmXmXmXmXmXmXmXmXmXmXmXmXmXmXmXmXmXmXmXmXmXmXmXmXmXmXmXmXmXmXmXmXmXmXmXmXmXmXmXmXmXmXmXmXmXmXmXmXmXmXmXmXmXmXmXmXmXmXmX",
"mXmXmXmXmXmXmXmXmXmXmXmXmXmXmXmXmXmXmXmXmXmXmXmXmXmXmXmXmXqXmXmXmXmXmXmXmXmXmXmXmXmXmXmXmXmXmXmXmXmXmXmXmXmXmXmXmXmXmXmXmXmXmXmX",
"mXmXmXmXmXmXmXmXmXmXmXmXmXmXmXmXmXmXmXmXmXmXmXmXmXmX^.q.q.q.-.X.mXmXmXmXmXmXmXmXmXmXmXmXmXmXmXmXmXmXmXmXmXmXmXmXmXmXmXmXmXmXmXmX",
"mXmXmXmXmXmXmXmXmXmXmXmXmXmXmXmXmXmXmXmXmXmXmXmXmXmX9.-.-.;.b f u u u c W mXmXmXmXmXmXmXmXmXmXmXmXmXmXmXmXmXmXmXmXmXmXmXmXmXmXmX",
"mXmXmXmXmXmXmXmXmXmXmXmXmXmXmXmXmXmXmXmXmXmXmXmXmX=.-.-.X.b d f f s p v M #.@.1 mXmXmXmXmXmXmXmXmXmXmXmXmXmXmXmXmXmXmXmXmXmXmXmX",
"mXmXmXmXmXmXmXmXmXmXmXmXmXmXmXmXmXmXmXmXmXmXmXmXmX=.=.=.7 c p z C p # 0 &.@.[ [ 1 < mXmXmXmXgXkXfX4XmXmXmXmXmXmXmXmXmXmXmXmXmXmX",
"mXmXmXmXmXmXmXmXmXmXmXmXmXmXmXmXmXmXmXmXmXmXmXmXmX=.=.+.7 d s u o # @ w @.[ 1 2 2 @.d.aXhXgXgXdX9X2XmXmXmXmXmXmXmXmXmXmXmXmXmXmX",
"mXmXmXmXmXmXmXmXmXmXmXmXmXmXmXmXmXmXmXmXmXmXmX/.Z.O.+.{ 5 d s p p c 4 w @., , > , %.<XsXgXgXuX7X4XmXmXmXmXmXmXmXmXmXmXmXmXmXmXmX",
"mXmXmXmXmXmXmXmXmXmXmXmXmXmXmXmXmXmXmXmXmXmXmXC.Z.O.+.| 7 Z v.~ Z V B e 8 2 < , 8 c.,XyXuX6X3X=XmXmXmXmXmXmXmXmXmXmXmXmXmXmXmXmX",
"mXmXmXmXmXmXmXmXmXmXmXmXmXmXmXmXmXmXmXmXmXmXmXC.V.5.+.+.a.*X4X<XF.p.p.e.%.e e y r.;X,X>X:X=X*XmXmXmXmXmXmXmXmXmXmXmXmXmXmXmXmXmX",
"mXmXmXmXmXmXmXmXmXmXmXmXmXmXmXmXmXmXmXmXmXmXmXV.V.B.5.9.eXkXwXa.i.k.K.K.i.r.r.s.c.XX+X;X;X}.mXmXmXmXmXmXmXmXmXmXmXmXmXmXmXmXmXmX",
"mXmXmXmXmXmXmXmXmXmXmXmXmXmXmXmXmXmXmXmXmXmXT N.V.n.m.Q.fXfX8X&.$.K.Q.Q.U.K.k.k.c.}.|.'.U.mXmXmXmXmXmXmXmXmXmXmXmXmXmXmXmXmXmXmX",
"mXmXmXmXmXmXmXmXmXmXmXj C z o O m mXmXmXmXmXY Y Z n.N.W.aX0X-Xt.#.E.Q.<X&XU.Y.K.c.K.c.i.mXmXmXmXmXmXmXmXmXmXmXmXmXmXmXmXmXmXmXmX",
"mXmXmXmXmXmXmXmXmXh i u o o o o o a mXmXmXmX).L F l p.2XyXyX,X;X%.Q.&X&XE.E.I.K.J.h.y.f.k.mXmXmXmXmXmXmXmXmXmXmXmXmXmXmXmXmXmXmX",
"mXmXmXmXmXmXmXmXx i s O X O o X X X X + mXmXL J F F ( >XyXyX,X&Xd.&XE.&XE.U.U.Y.Y.J.h.f._ e.mXmXmXmXmXmXmXmXmXmXmXmXmXmXmXmXmXmX",
"mXmXmXmXmXmXmX~ x k l 4 0 0 0 4 4 + X X + mXmXK F G ( rXpX,X>X;X&X&X X&X&XU.U.J.Y.K.G.! Q y - e e mXmXmXmXmXmXmXmXmXmXmXmXmXmXmX",
"mXmXmXmXmXmXmX] k m N y $.$.*.6 e < ; . @ mXmX`.K P ( rXiXrX>X;X;X}.U.&XE.U.J.  J.I.J.s.y w - < 2 2 mXmXmXmXmXmXmXmXmXmXmXmXmXmX",
"mXmXmXmXmXmXmXj n N *.@.[ ....6 : = = . + mXmXmXP ^ `.,XrXyX>X+XXX}. X X&XE.T.J.U.U.P.k.e.< : > , , = mXmXmXmXmXmXmXmXmXmXmXmXmX",
"mXmXmXmXmXmXmXj y *.8 ..<.3.2.>.:.7 5 - 4 mXmX-XH U `.$XyXyX>X>X+X.X=XXX X&XE.U.T.U.P.l.t.#.1 1 2 , 7.mXmXmXmXmXmXmXmXmXmXmXmXmX",
"mXmXmXmXmXmXmXn y 8 8.m.V.n.b.b.3.1.b r 0 f.<X-X`./ U '.rXiXyX,X@X:XXX=X*XE.E.R.E.F.c.a.&.$.#.@.1 < mXmXmXmXmXmXmXmXmXmXmXmXmXmX",
"mXmXmXmXmXmXmXm 8 ..m.n.b.b. . .>.>.1.M B v.W.E.c.S S I %XyXyXrX>X@X=XXX X XU.R.P.K.l.t.&.$.@.[ , mXmXmXmXmXmXmXmXmXmXmXmXmXmXmX",
"mXmXmXmXmXmXmXW $.8.n.n.2.| } } } } 7.W W ! G.}.x.$ $ * ^ $XtX6X>X:X+XXX X}.U.L.P.K.i.&.#.@.1 %.y.T.cXmXmXmXmXmXmXmXmXmXmXmXmXmX",
"mXmXmXmXmXmXmXmXt :.M.n. .} } 5 w r B ! j.S.H.}.x.$ * S H / >XrX>X:X;XXXXXU.I.L.Y.k.i.t.%.y i.h.F.F.W.mXmXmXmXmXmXmXmXmXmXmXmXmX",
"mXmXmXmXmXmXmXmX7 8.M.3.X.| q % G / I.}.oX}.I.}.'.I S I R x.+X>X>X:XXXXX}.I.L.J.h.j.f.s.y.f.f.h.h.J.I.&XmXmXmXmXmXmXmXmXmXmXmXmX",
"mXmXmXmXmXmXmXmXr 7.1.3.;.} % F T H.3X3X:X=X XXX<X'./ x.'.%X+X@X@X+X.XXX{.I.J.h.h.g.f.l.f.l.h.k.h.J.L.T.mXmXmXmXmXmXmXmXmXmXmXmX",
"mXmXmXmXmXmXmXmXmXB 0.M.;.} D F E #XdXuX,X,X:X,X,X,X>X>X>X:X@X>X#X@X.XXX|.|.Y.H.H.Y.Y.U.I.P.K.J.Y.J.I.U. XmXmXmXmXmXmXmXmXmXmXmX",
"mXmXmXmXmXmXmXmXmXV 6.M.,.} D G ) tXgXdXaX,X,X6XuXuXuXyXyX>X>X#X:X+X+XXX.X.X.XoXXX;X-X-X-X;X&XE.U.T.U.U. XmXmXmXmXmXmXmXmXmXmXmX",
"mXmXmXmXmXmXmXmXmX@ v 4.3.o.& J _.pXzXgXaX6X,X6XqXaX0XyX6X5X5X5X5X>X:X:X+X:X:X,X4X0XqX8X8X-X-X*X X&XT.T.;X XmXmXmXmXmXmXmXmXmXmX",
"mXmXmXmXmXmXmXmXh z @ b 3. .q J _.lXcXzXgXgXfXaXaXfXaXaXaXaXaXaXdXaXaX0X9X8X7X0XaXfX0X7X8XeX-X-X=X*X XT.Q. XmXmXmXmXmXmXmXmXmXmX",
"mXmXmXmXmXmXmXmXg d a r 3.X.5 J _.iXcXcXcXzXjXjXjXjXhXhXhXgXgXdXfXhXfXfXwX0X0X9XwXfX0X9X8X1X-X=X1X*X&X XQ. XmXmXmXmXmXmXmXmXmXmX",
"mXmXmXmXmXmXmXk d d a w M.;.6 G T #XcXcXcXcXzXjXjXjXjXjXhXhXhXkXhXhXhXfXfXwX0X9X9X0XaX9X8X1X-X1X-X*X&XT.;X&XmXmXmXmXmXmXmXmXmXmX",
"mXmXmXmXmXmXmXmXv.C d w 4.>...F Y ].cXcXcXcXxXjXjXvXxXkXjXhXhXhXfXhXfXhXfXwX0X9X4X8X8X8X2X1X2X2X*XE.T.T.:X*XmXmXmXmXmXmXmXmXmXmX",
"mXmXmXmXmXmXmXmX4Xf.M t 4.,.6 D K `.cXcXxXzXxXvXzXjXjXjXgXhXhXhXhXhXfXfXfXwX9X9X4X4X4X2X2X2X X*XW.T.T.T. X<X1XmXmXmXmXmXmXmXmXmX",
"mXmXmXmXmXmXmXmX8XK.t.0.M.;.7 H G ) pXzXzXzXxXxXzXkXzXhXgXgXkXdXaXaXaX0X0X9X4X1X=X=X=X2X*X*X*XW. XT.T.T.I. X2X2XmXmXmXmXmXmXmXmX",
"mXmXmXmXmXmXmXmXqXqXQ.~.A.7.y q l E %XzXzXzXzXjXgXlXzXgXkXsXdXdXaX0X7X7X9X4X2X=X*X*X*X*X*XT.T.W.T.T.R.R.G.U.2X2XmXmXmXmXmXmXmXmX",
"mXmXmXmXmXmXmXmXmXqXeX!.Q.y.W R ( ` [.pXdXkXgXgXgXgXgXgXsXuXdX7X7X6X6X4X2X2X*X*X*X*X*X*X*X*XT. X X XR.D.g.I.*X2XmXmXmXmXmXmXmXmX",
"mXmXmXmXmXmXmXmXmXmXmXmXmXmXmXmX#XrXOX#X5XuXgXlXgXiXgXsXdXuX7X7X6X6X3X2X=X*X*X*X*X*X*XXX X X*X X XR.J.j.g.I. X2XmXmXmXmXmXmXmXmX",
"mXmXmXmXmXmXmXmXmXmXmXmXmXmXmXmXmXgXyX#X@XyXsXiXdXuXdXuXuX7X7X7X4X3X:X2X=X*X*X*X&X XoXT.T.oX X XR.G.g.j.D.I. X2XmXmXmXmXmXmXmXmX",
"mXmXmXmXmXmXmXmXmXmXmXmXmXmXmXmXmXhXaXyX#X@XuXiXuXuXuXuX7X7X6X3X3X3X=X=X=X*X*X*X XT.I.I.U.U.T.L.S.S.S.S.G.}.*X=XmXmXmXmXmXmXmXmX",
"mXmXmXmXmXmXmXmXmXmXmXmXmXmXmXmXmXmXmXsX6X#XOXiXuXuXuX6X7X6X4X3X4X=X=X=X*XXXoX XT.I.L.H.H.G.S.S.h.D.S.D.L. X2XmXmXmXmXmXmXmXmXmX",
"mXmXmXmXmXmXmXmXmXmXmXmXmXmXmXmXmXmXmXvXgXuX#X.X#XyXyX6X6X6X3X3X,X:X2X=XXX XT.I.I.G.S.S.j.j.h.D.S.S.G.I.oX,XmXmXmXmXmXmXmXmXmXmX",
"mXmXmXmXmXmXmXmXmXmXmXmXmXmXmXmXmXmXmXmXmXgXiXiXOXOX#X@X3X3X3X3X=X=XXX X}.H.S.S.j.! _ _ j.g.G.G.G.R.E.;X=XmXmXmXmXmXmXmXmXmXmXmX",
"mXmXmXmXmXmXmXmXmXmXmXmXmXmXmXmXmXmXmXmXmXmXnXiX3XOX.X.X.XoX.X.XI.H.G.G._ _ _ _ _ _ g.D.G.H.H.U.oXoX2XmXmXmXmXmXmXmXmXmXmXmXmXmX",
"mXmXmXmXmXmXmXmXmXmXmXmXmXmXmXmXmXmXmXmXmXmXmXmXgXyX3X@X.X{.[.H.[._ z._ g.z.z.z.c.H.I.{. X=X=XeX2XmXmXmXmXmXmXmXmXmXmXmXmXmXmXmX",
"mXmXmXmXmXmXmXmXmXmXmXmXmXmXmXmXmXmXmXmXmXmXmXmXmXmXlX6X#XrXoX.X{.{.{..X{.{.{.oXXXeX=X=X4X4XdXkXmXmXmXmXmXmXmXmXmXmXmXmXmXmXmXmX",
"mXmXmXmXmXmXmXmXmXmXmXmXmXmXmXmXmXmXmXmXmXmXmXmXmXmXmXmXmX0X6X3X7X6X7X6X4X7X7X9X9XaXmXmXmXmXmXmXmXmXmXmXmXmXmXmXmXmXmXmXmXmXmXmX",
"mXmXmXmXmXmXmXmXmXmXmXmXmXmXmXmXmXmXmXmXmXmXmXmXmXmXmXmXmXmXmXmXmXmXmXmXmXmXmXmXmXmXmXmXmXmXmXmXmXmXmXmXmXmXmXmXmXmXmXmXmXmXmXmX",
"mXmXmXmXmXmXmXmXmXmXmXmXmXmXmXmXmXmXmXmXmXmXmXmXmXmXmXmXmXmXmXmXmXmXmXmXmXmXmXmXmXmXmXmXmXmXmXmXmXmXmXmXmXmXmXmXmXmXmXmXmXmXmXmX",
"mXmXmXmXmXmXmXmXmXmXmXmXmXmXmXmXmXmXmXmXmXmXmXmXmXmXmXmXmXmXmXmXmXmXmXmXmXmXmXmXmXmXmXmXmXmXmXmXmXmXmXmXmXmXmXmXmXmXmXmXmXmXmXmX",
"mXmXmXmXmXmXmXmXmXmXmXmXmXmXmXmXmXmXmXmXmXmXmXmXmXmXmXmXmXmXmXmXmXmXmXmXmXmXmXmXmXmXmXmXmXmXmXmXmXmXmXmXmXmXmXmXmXmXmXmXmXmXmXmX",
"mXmXmXmXmXmXmXmXmXmXmXmXmXmXmXmXmXmXmXmXmXmXmXmXmXmXmXmXmXmXmXmXmXmXmXmXmXmXmXmXmXmXmXmXmXmXmXmXmXmXmXmXmXmXmXmXmXmXmXmXmXmXmXmX",
"mXmXmXmXmXmXmXmXmXmXmXmXmXmXmXmXmXmXmXmXmXmXmXmXmXmXmXmXmXmXmXmXmXmXmXmXmXmXmXmXmXmXmXmXmXmXmXmXmXmXmXmXmXmXmXmXmXmXmXmXmXmXmXmX",
"mXmXmXmXmXmXmXmXmXmXmXmXmXmXmXmXmXmXmXmXmXmXmXmXmXmXmXmXmXmXmXmXmXmXmXmXmXmXmXmXmXmXmXmXmXmXmXmXmXmXmXmXmXmXmXmXmXmXmXmXmXmXmXmX"
};
