/* XPM */
static char *result[] = {
/* columns rows colors chars-per-pixel */
"64 64 106 2 ",
"   c #000000",
".  c #0F0A07",
"X  c #070808",
"o  c #0E0D0C",
"O  c #110E0D",
"+  c #13100E",
"@  c #151413",
"#  c #181615",
"$  c #1A1817",
"%  c #171919",
"&  c #1B1B1A",
"*  c #232221",
"=  c #2C2926",
"-  c #2E2C2B",
";  c #312E2D",
":  c #31302F",
">  c #353333",
",  c #383635",
"<  c #4C4948",
"1  c #554F4C",
"2  c #55514E",
"3  c #59524E",
"4  c #555251",
"5  c #5A5654",
"6  c #5D5957",
"7  c #605A57",
"8  c #635E5C",
"9  c #64615E",
"0  c #68635F",
"q  c #6B6662",
"w  c #6E6864",
"e  c #6F6B69",
"r  c #736C65",
"t  c #736D69",
"y  c #75716D",
"u  c #7B756F",
"i  c #777471",
"p  c #7B7672",
"a  c #7B7876",
"s  c #7F7C7A",
"d  c #807873",
"f  c #8A7F7C",
"g  c #84817D",
"h  c #878382",
"j  c #8C8581",
"k  c #8E8887",
"l  c #958B86",
"z  c #938D8A",
"x  c #9C8D88",
"c  c #96908E",
"v  c #9C938D",
"b  c #979391",
"n  c #9D9692",
"m  c #9F9A96",
"M  c #A1958E",
"N  c #A09592",
"B  c #A89791",
"V  c #A59C95",
"C  c #A99D95",
"Z  c #A49E9A",
"A  c #AA9E9A",
"S  c #ACA196",
"D  c #A6A19D",
"F  c #ACA39D",
"G  c #B1A59D",
"H  c #B3A89F",
"J  c #A6A4A2",
"K  c #ACA5A2",
"L  c #AEA9A5",
"P  c #AEABA9",
"I  c #B2A6A2",
"U  c #B8A7A3",
"Y  c #B3AAA4",
"T  c #B9ACA5",
"R  c #B4ADAA",
"E  c #BAAEAA",
"W  c #BCB0A7",
"Q  c #B6B1AD",
"!  c #BBB2AD",
"~  c #B6B3B1",
"^  c #BBB5B2",
"/  c #BDB9B6",
"(  c #BEBBBB",
")  c #C0B1A7",
"_  c #C1B3AD",
"`  c #C8B3AD",
"'  c #C4B8AE",
"]  c #C2B6B3",
"[  c #C3BAB5",
"{  c #C9BBB6",
"}  c #C3BDBB",
"|  c #C9BDBA",
" . c #C5C1BE",
".. c #CBC2BE",
"X. c #D4C4BE",
"o. c #C5C3C2",
"O. c #CBC4C2",
"+. c #CCC8C7",
"@. c #CCCBCA",
"#. c #D6C5C1",
"$. c #D2C9C4",
"%. c #D2CDCB",
"&. c #D6D0CE",
"*. c #DBD1CC",
"=. c #D6D2D1",
"-. c #DDD6D4",
/* pixels */
"! S g v D V v v v m b v c n c F Y Y L K J D L ~ V n L Z ~ R Y ^ Y [ V  ./ ^ [ } $.V Y Y Q ^ o.K !  .J Q L Z T T P L K J F V x ~ ",
"G D                           q y                             F R Y E Q E I J P Y / Q F E Y P H ^ I Z P G T Z I P T ~ L U I J L ",
"W F #                     @ d ' g                           @ F D [ ! _ ^ ^ U C C C J ! / I ] X.^ Q ~ L F L D K R F Z L Z ~ L ~ ",
"S C @                   @ q V T p                           @ V B F E T F E X.] A ^ / X.F D X./ Z L E Y A F Q ! K I L R ~ Z F n ",
"T L @                 O t D F F p                           $ K ^ A D K Y ] Z ] { V _ ~ *.! ] ^ I  .[ m A n R D L Z F P L M T I ",
"Z K @               @ y D Q R Y a                           # Q Z I T ~ v { ^ W / ^ { ! ..Y D Q E R ~ L I R D J F K P T I K K K ",
"S ! +             @ 0 F W [ /  .s                           @ Q D K Y | T =.] ^ [ _ { ^ O.{ ..{ ^ | | +.| ^ E Y [ ^ ! ! R K L A ",
"v ^ o           + a D L P D T Y h                           $ T O.| %.Q _ O.E ] W ] I +.Q o.{ ] / ^ O. .E E F Q Q Y Q ! ! _ I n ",
"W P @         % y D ! / T Q / Q h                           @ [ o. .} / / ' ..T ! } ^ ..+...! o.R @.^ o.'  .W H ! } F  ./ ' P Q ",
"W / %       % y S Y D D Q W W H p                           $ ! ^ R ^ ^  .! ) X.^ W _ Q #.| E / I ]  .{  . ./ Q P W Q  .L ! ! W ",
" .! o     @ a Y Q R K F F W Q ! i                           @ Q R Z L [ W ~ Q D R o.^ L #.| ..^ ..] &.` / @.H ( ! W @. .! F H  .",
"H ' o   & p S ^ R L Y Q P ! F  .u                           @ Y K K F T H H Q Q L ' K ! E +._ R L ^ -.W W  . ./ W  .W ! W ..Q H ",
" .P + @ r F R F F Q F F F Y ^ K r                           # ^ V Z Q L F W Y L D L F H L K V ~ L E / } Q Q ^ ^ W Q ~ R  .~ ~  .",
"W H & y F K L F Y Q D D D R S L u                           @ Y A J D Y K K Y ^ ! S F V D L Q L ~ / V  ./ ~ ' ! W W Y ~ R / H W ",
"Q ( u D Y P F L L K F D D S F ~ p                           # Q R F D P L Y Y H F L C V F ^ [ Y T R E ^ W H Q W Q / ( W m W H Q ",
"F ( Q H Y L F F F H F D S D Y F 2                         + 9 ! C ! C K H P P ~ D Z D R F } Z !  .[ ) ! / ~ ! Y / H F H D L ! K ",
"S Q L S P P R Y T J D Z K C V 6                         + e J F m D / H T ! Y Q F F J C ^ / | ..O.K R V m m D Q T T / ^ W ^ S S ",
"H D P F Q L H Y Z R F F D m 3 o                       o 9 m F Y Q D Q F ~ F F ~ Z D D n J ] | o.} I R M S Q D F / T Q W S P J H ",
"S Q L D J F F L A Y Q ~ ! 5                         @ 0 F F Q D L Q L P S S ! V J K A Q D E | ^ ..F Q I Q F J F T H H Q ~ L L F ",
"Q Y F Q F H F D A W R K 9                         o 0 K L L L F Q F Q L F L V R H ! R [ o.^ | ] ..Q K C H m D Q P H Q Y L D L Q ",
"H Y L H J D D F H K R 8 o                       o 0 F F F F L Y Y W H H S Q F L K I R ^ ~ ^ P P Q Z V Y V D F D H J L H Q ! H L ",
"L L F P L Q H F F v 2                         @ w F F F H D H D  .Q Q S ^ B C R F R A Z E K U Q K F Z Z S R F D P L Y Q H H v H ",
"Q L F S S D S P v 3                         $ r F H S S L D D S ! H } H F F K F A R R A R E E ~ o.B C F D V _ V L H P Y ~ J L Q ",
"~ Q L L V F Q L 1 X                       o e D D D D D Y S F J /  ./ ~ R Q ^ V R | ~ I E } Q %.F F [ D D n D ( F H ^ L Q D S ~ ",
"D D Q Q K L v <                         & p Y Y F L R K Q V V Q ' ^ ^ D Y S Q ~ K ~ } [ J _ P B / L v J S Q J Q H Q S F / m m J ",
"Y L L H Q m 4                         * a Q R Y L S D Y L L S Q ! / W V S H m Q Q [ [ I Q K U ~ S W Q L L P W H P S S Q m L / P ",
"D v F Q Z 1 X                       o y F R L Y T D F T H F W T / Y W Q H Y H R E +.| ! E I E / L W ..( / Q F Q L H L V Y F Q D ",
"J n F m 1                         $ t L K F F F T L L Q ' Q W  .D W P H V H H L J  ._ E ] ^ | | W  .' / W H W L L S Q D P L F L ",
"Y ^ n 2                         & a D L L K K R F R P Y Q ! ~ Q C D R H ' P F F ~ I } } ..) / .. .H  . .H  .W W S / V S Y D Q L ",
"v n 2 X                       X w I I ~ L L R Z F Q P Y ~ Q H Q P C K S D L S ! E =.! /  .W  ./ .. .Y W  .^ H ( L K S F H S H g ",
"H Q $                         o c [ [ ( ^ R A R Y ~ ! W H F 9 Y L K D H +.B D D ! ..W [ W ' L @.Q D '  .P /  ./ Q P Q ^ S P S H ",
"v S o                         o f ! R / ^ U K Y ( Q ^ Q D 7 & ^ N D R H ! Z ^ F ] [ { Y W  .' ..../ / ! / ' W / L H S Q Q H Q M ",
"K F @                         o k ^ ^ ^ | E R T ! ! Y I 5 o $ Y L Y F ! R H D R } _ _ O.^ E _ ~ #.| Q } ' ^ ] ^ V S G m Q Q Q D ",
"Y ( +                         + l Y I Y R ^ L ~ / Q D 5 X   @ Q F D K ) Q Q L [ ..+./ E ^  .^ P #.` [ T F ! Y W Q F I Y W W H R ",
"! D +                         o j U P E I T R L R Y 9 X     # E R / R F Q F R D Y E O.Q ^ ] K E E Y I I P D ! P F C T F P D F ! ",
"D ! .                         o k R K R R ~ ( R Y 6 X       $ K H L T V A ! F L P E _ } _ P { | I F R V V C D Q G ' R F F K / F ",
"E R %                         o z } Y E ^ | I D 4 X         $ Y R H T Z Q L Y ! R Z ~ D ] ] { E ! | ^ ..+.^ C K D F K A ! c L E ",
"F J $                         o k / ^ P Y I F 8             # Z R L K G L L C ^ K G A Q | _ _ O./ T _ ~ #.} L F H +.B D C T P D ",
"J K @                         o n O.E E U R 3 X             # L D ~ D W ! L P P ~ ^ P [ O.+./ R ^ o.^ I #.[ Z Q I ! Z ^ K F D F ",
"J L @                         @ n } _ ] Y 8 X               # ^ W E Q ^ H ! [ H R K R D R T ..E ^ ] L R E Y I F ! L H Z R I J K ",
"A I &                         O b } | R 8                   @ I R  . .] | } Z ^ } E I K I ^ _ ( W P { ..Y F Z L ) R Q P | Z V A ",
"A A @                         @ Z ] / 5 X                   # P R } | [ ^ E } P %.G Y P I ^ C } R W D Y T R ^ T K Q F Y D J ] J ",
"~ D #                         + Z K 5 X                     @ C | K  .^ ^ F _ P B _ E I ^ Q ( L O.R I I R I Y T V C Q H K R Z ~ ",
"K I , ; = - : : : - > , > - - > s e : > , - - : : > : > - : : O.^ K | T | E K U ~ G ~ ^ +./ o.| ..! R Q B Q G T Z Q R Y ^ L L I ",
"P Y I I n Q C A o.K ~ R ~ E P I _ E K K I L E [ F R / ] ~ P L E  ._ E ] o.^ I E / I E P B ../ R ^ L ~ ] Y R I K H L L V ~ L m K ",
"^ T ~ K A Z L ~ ] I U / +.^ U U K } D P R L / Z P E R E G J ^ U I I R ^ ~ ] Q | } ) K ( ~ G } ^ { F [ L K J ~ D E E L Q I ~ Z Z ",
"} P _ R E K R E } ` ^ R ~ U ..( I ~ B E E ] R L ~ o.^ I ` P I ~ R R A D E J Y ^ K P A ~ _ ^ L [ P ' T Y P E E Q ^ F ^ ] I R ^ ^ ",
"[ U | E Y G ^ P E P I ] %.U ~ ] _ J P I o._ } } I ^ E | I I ~ +./ T L F E E E ~ o.~ E _ T R I } +.R ] T T R  ...] | ( Z ^  .| T ",
"R %.Q [ _ I Q / | | } o.V ~ } ] K ) ~ K U E E F ( | U / ] ^ R ] E o.~ I E } R %.A R L I / Z / T +. .[ ..[ Y | | / ^ / | ..o.o.} ",
"K %.} ^ O.] K } o.O.{ E ..} | ^ ^ ^ _ O.@.} E ] ] N ~ ( ~ K } | R ~ } ] K _ P B ] R F ^ ~  .L O._ +.X./ E O.K  .] E [ } o.| | I ",
"&.] O.%.^ T o.T o.] ] ] ( @.o.] E / ^ I ( } o._ ] o.+.} ] o.] Z E ( ] I ~ I U ~ G Q ^ $.^ o.| | [ [ -.+.^ E K  .T | E } Q ..} +.",
"{ ( [ -.=.U R A [ ^ O.^ o.Q o.| @.| E =.^ ] } _ ` ]  .| o.] E ] | +. .E E I E / I E Y C | } Y ^ O.! W  .^  ._ T [ o.^ #.] o.^  .",
"| @.| E  .^ [ | P [ } Q | / O. .+.E ! O.E [ E ] U @.R o.{ ] ] ( O.o._ E ] ~ | } ) G } ~ K  .^ | _ / F R [ O.R ^ } ^ ^ { ..( } E ",
"| ..^ A R | O.I ^ | ~ ^ } ..o. .} } [ ] { Y ! | ^ | +. ._  .E +.^ o./ |  .] E I ^ R T [ R K T E K _ / O.^ C E E | } ] | +.} I ^ ",
"| K E / | ^ Z R ~ { ^ E O.o.^ Q / ^ } _ _ $./ Y _ ^ #.} E / Y ] } | } | ~ E E K P I } ^ _ ^ ^ P  .! Q T I [ / L ( ] } ] E E { E ",
"~ | } [ / J | ^ U E / | ( _ U +.E ] O.+./ T ^ O.^ I #.| #.^ o.] =.` ( @.} ^ L o.U E ^ Y O.~ A } R I / K ^ / ^ K P E Y K E Q R A ",
"A L Y ^ L  .]  .P R ^ ^ U ^ U Y H L Y W  .! ^ ] K ^ E O._ R L ^ -.E _ ] U ^ E } ! P F J L E A ( ^ U ^ F N Z Y P P K J Z V I T L ",
"K G } G R F ! ^ E P P F ~ ( T T H / Y ! ! ( ) P | | U [ T E o.E ] } ~ E ( E ( E F ( x R E K ~ R J P E b A I N D A P R B R J A J ",
"I ^ W ! L Q T J F I E ^ / ! | P S S R / / R ] R ^ | O.^ ^ U U [ Z } ( ^ } ( #.Z Y I ! ^ o.L ^ } J ~ I A E Y L L I J D V c Q J P ",
"E R } F I Y R  .I K } } R I Q I  .P F U [ ^ R ! Q ^ P } } ^ E P E E E I J P U ^ Q F Q Y P I Q U Z P K E Z P L T Q L U I J P x P ",
"R R I C F Y R Y Q Y Q ' / F / T K Q H U Y I ! ^ I E Y I _ G A [ _ _ ^ ^ U V V Z J Q ] I ^ #.~ Q ~ L A L A K E I D L Z ~ L ~ z Z ",
") I / _ R C F ] ^ / ' ) R ^ [ W ! T ' E | ^ E [ I _ / U | F [ A E T J E #._ A ^ / X.F D $.[ Z K E E A A ^ ~ F K K R ^ Z F n K Z ",
"Q T ~ / Q F D S D W Q !  .W !  .R F L E L E ..G ^ / T Y T I K A D K T [ V ] | B _ Q *.! ] ^ I o.] Z A N E Z L A D P K N E K L V ",
"T I Q L R F L W Y F Q Q / / W ! H ! H K K U [ ! I | A G ] | | I T Q x { ^ _ ^ ^ | ! o.Y F R E R ~ J I R D J F K P Y U G D K L n "
};
