/* XPM */
static char *result[] = {
/* columns rows colors chars-per-pixel */
"64 64 193 2 ",
"   c black",
".  c #4B4545",
"X  c #814411",
"o  c #9F5517",
"O  c #995319",
"+  c #A64F0A",
"@  c #A6530E",
"#  c #A74E11",
"$  c #A55311",
"%  c #A95615",
"&  c #AA5A16",
"*  c #A45719",
"=  c #AC5619",
"-  c #A65819",
";  c #AE5C1A",
":  c #B35B14",
">  c #B75B16",
",  c #B35D1A",
"<  c #B85E1C",
"1  c #AC611D",
"2  c #B36214",
"3  c #B6621C",
"4  c #BB641D",
"5  c #B46A1D",
"6  c #BB6A1E",
"7  c #824737",
"8  c #854A38",
"9  c #8A4E39",
"0  c #8D523A",
"q  c #965336",
"w  c #985831",
"e  c #93553A",
"r  c #9A563A",
"t  c #965A3C",
"y  c #9C5D3C",
"u  c #A75E2B",
"i  c #A55C31",
"p  c #A15F3C",
"a  c #9E623D",
"s  c #AB6125",
"d  c #AF6826",
"f  c #AD6129",
"g  c #B46324",
"h  c #BA6522",
"j  c #B66925",
"k  c #BD6A23",
"l  c #B9682E",
"z  c #BD722B",
"x  c #BC792F",
"c  c #A3643E",
"v  c #A86539",
"b  c #A4693E",
"n  c #A9693F",
"m  c #B26935",
"M  c #C1651E",
"N  c #C5701E",
"B  c #C66823",
"V  c #C36C24",
"C  c #C16D29",
"Z  c #C47126",
"A  c #C87226",
"S  c #C3722B",
"D  c #CB752B",
"F  c #C4792E",
"G  c #CB7B2D",
"H  c #D07B2E",
"J  c #C57434",
"K  c #C57B32",
"L  c #CC7C32",
"P  c #CD7B36",
"I  c #D37E32",
"U  c #9C5C41",
"Y  c #A85F40",
"T  c #9C6441",
"R  c #A46440",
"E  c #A46B42",
"W  c #AB6D42",
"Q  c #B36F42",
"!  c #AD7344",
"~  c #AC7946",
"^  c #AB744B",
"/  c #AD794A",
"(  c #B37444",
")  c #B77647",
"_  c #B47B4C",
"`  c #B97C4A",
"'  c #CC8236",
"]  c #CD8B35",
"[  c #C4813B",
"{  c #CC833B",
"}  c #CD893B",
"|  c #D38134",
" . c #D88133",
".. c #D3853C",
"X. c #DA853B",
"o. c #D48B3D",
"O. c #DA8D3F",
"+. c #D9923D",
"@. c #B9804E",
"#. c #B78452",
"$. c #B68956",
"%. c #BB8B54",
"&. c #BA8E5B",
"*. c #BA925E",
"=. c #BD9663",
"-. c #CE8C43",
";. c #D48D43",
":. c #DA8B43",
">. c #D88D49",
",. c #D59243",
"<. c #DA9344",
"1. c #D99946",
"2. c #D39049",
"3. c #D9954A",
"4. c #D5994D",
"5. c #DD9B4B",
"6. c #C18654",
"7. c #C2955D",
"8. c #DA9850",
"9. c #DB9954",
"0. c #E29545",
"q. c #E2954B",
"w. c #E39B4C",
"e. c #E49A53",
"r. c #EA9D56",
"t. c #DEA455",
"y. c #E1A34F",
"u. c #E3A353",
"i. c #C79762",
"p. c #C39B65",
"a. c #C59967",
"s. c #CB9E66",
"d. c #CCA369",
"f. c #CBA371",
"g. c #8F8680",
"h. c #948F8C",
"j. c #96928F",
"k. c #9C948D",
"l. c #9E9691",
"z. c #9E9996",
"x. c #9F9B99",
"c. c #A0948B",
"v. c #A4998F",
"b. c #A09693",
"n. c #A89791",
"m. c #A49B94",
"M. c #A99D95",
"N. c #A49E9A",
"B. c #AA9E9A",
"V. c #B09F98",
"C. c #ACA096",
"Z. c #A6A19D",
"A. c #ACA39C",
"S. c #B1A59D",
"D. c #B3A89E",
"F. c #A7A4A2",
"G. c #ACA5A2",
"H. c #AEA9A5",
"J. c #ADABAA",
"K. c #B1A6A2",
"L. c #B3AAA4",
"P. c #B9ACA5",
"I. c #B3ADAA",
"U. c #BAAEAA",
"Y. c #BDB1A7",
"T. c #B5B1AD",
"R. c #BCB3AD",
"E. c #B5B3B2",
"W. c #BBB5B2",
"Q. c #BDB9B6",
"!. c #BDBBBA",
"~. c #C1AFA9",
"^. c #C0B1A7",
"/. c #C2B4AD",
"(. c #C4B8AE",
"). c #C2B6B2",
"_. c #C3BAB4",
"`. c #C9BBB5",
"'. c #C3BDBB",
"]. c #CABDBA",
"[. c #C6C1BE",
"{. c #CBC2BE",
"}. c #D5C5BE",
"|. c #C5C3C3",
" X c #CBC5C2",
".X c #CDC8C6",
"XX c #CDCBCA",
"oX c #D6C5C1",
"OX c #D0C9C6",
"+X c #D2CDCC",
"@X c #DAD2CF",
"#X c #D6D4D3",
"$X c white",
/* pixels */
"W.D.R./.m.R.!.Z.E.I.C.I.^.C.j.C.T.C.R.Z.Z.C.H.J.Z.Z.G.Z.A.D.. N ; 5 ; &   < : ; g g ; 7 8 q q 9 *.$X$X$X$X$X$X$X$X$X$X$X$X$X$X$X",
"A.I.Z.C.L.m.C.G.G.L.R.T.L.D.E.A.D.Z.D.H.C.J.C.F.C.T.Z.C.H.R.. 5 k g k f   A g h S k V q t l l r g.$X$X$X$X$X$X$X$X$X$X$X$X$X$X$X",
"A.Z.C.x.N.Z.T.A.Z.R.W.!.P.A.D.Z.T.C.Q.I.T.A.E.z.G.H.l.H.Z.T.. 1 3 & 3 %   3 h z l g $ 7 r f i r g.$X$X$X$X$X$X$X$X$X$X$X$X$X$X$X",
"m.m.m.C.Z.Z.C.R.A.E.D.W.I.(.J.L.C.Z.J.J.H.J.F.H.F.m.Z.D.l.Z.. s , & * &   3 C J g h = t t r Y e g.$X$X$X$X$X$X$X$X$X$X$X$X$X$X$X",
"G.E.C.(.Z.Z.l.F.Q.Q.P._.R.D.L.A.L.L.Z.D.T.T.A.I.C.C.H.G.J.v.. s O g O g   3 k J j J , R q c a c g.$X$X$X$X$X$X$X$X$X$X$X$X$X$X$X",
"T.Z.H.k.Z.C.T.Z.T.I.Y.R.P.R.I.'.Z.A.m.v.Q.C.L.Z.C.F.G.T.F.D.. 1 * % * %   $ j J z k , q q w a b g.$X$X$X$X$X$X$X$X$X$X$X$X$X$X$X",
"T.W.R.I.S.D.L.R.D.Q.W.R.W.I.A.J.C.R.S.D.T.Q.C.A.J.C.F.C.G.z.. s ; & j S   Z z { ' F 3 c p p b n g.$X$X$X$X$X$X$X$X$X$X$X$X$X$X$X",
"P.{.I.OXE.!.T.Z.T.T.L.T.R.R.W.L.k.W.j.R.L.v.P.Y.D.x.H.F.Q.T.. 5 O d 5     F k ] F S 2 p c n ! ! g.$X$X$X$X$X$X$X$X$X$X$X$X$X$X$X",
"(.[.[.(.(.Y.L.Y.D.Q.Q.G.[.Q.(.J.Y.H.R.A.A.m.E.Q.m.m.J.Y.`..X. % - %   S   6 G <.F L & e t t y a g.$X$X$X$X$X$X$X$X$X$X$X$X$X$X$X",
"R.D.D.Q.[.D.[.E.T.D.Y.J.[.D.T.(.Y.Q.I.L.Z.m.L.A.m.G.L.J.Z.T.. g ;   k k   2 K { ' } $ 8 0 0 0 U g.$X$X$X$X$X$X$X$X$X$X$X$X$X$X$X",
"T.D.'.J.(.'.Y.H.[.R.Y.XX[.R.F.G.[.R.L..XA.T.D.E.H.H.G.T.A.R.. S   h h 3   j >.;.K F & 0 U U 9 9 g.$X$X$X$X$X$X$X$X$X$X$X$X$X$X$X",
"J.[.D.Q.[.T.(.[.Q.T.[.Y.(.Y.[.E.L.(. XD.I.J.H.Z.R.Y..XS.R.)..   Z D k g   5 -.-.K ' $ 0 0 9 9 7 g.$X$X$X$X$X$X$X$X$X$X$X$X$X$X$X",
"R.D.E.Q.T.(.(.Q.Y.(.T.E.T.'.R.E.[.H.C.D.S.L.v.I.C.Z.A.!.P.H.. g O g h ,   z >.{ z K $ U 7 9 U U g.$X$X$X$X$X$X$X$X$X$X$X$X$X$X$X",
"D.J.[.R.Q.R.E.Q.E.Y.T.D.E.T.Q.L.Y.D.J.E.R.I.T.I.Z.N.A.D.L.'.. % * % < 3   ' ;.[ g P # 9 8 7 8 8 g.$X$X$X$X$X$X$X$X$X$X$X$X$X$X$X",
"E.T.(.Q.T.D.(.L.T.T.Q.Q.L.x.T.D.R.!.R.T.L.T.I.I.J.T.H.C.I.R.. Z ; 5 , +   F { 2.z -.= U T R T U g.$X$X$X$X$X$X$X$X$X$X$X$X$X$X$X",
"T.D.L.D.H.L.Z.R.H.(.L.D.D.C.J.Y.H.!.L.A.E.T.I.D.A.|.M.J./.H.. i h , ; h   { -.2.d { = U ^ ^ ^ E g.$X$X$X$X$X$X$X$X$X$X$X$X$X$X$X",
"A.D.A.L.C.z.x.C.T.L.Y.Q.(.L.R.Z.C.T.C.Y.C.D.C.Q.H.A.L.A.H.W.. & 2 , V h   ' ,.-.K { 1 T E _ ^ ! g.$X$X$X$X$X$X$X$X$X$X$X$X$X$X$X",
"L.D.H.T.k.C.H.Z.D.Q.T.T.T.Z.T.G.D.m.J.H.C.J.D.E.k.x.Z.C.!.Z.. u g g 3 3   x 4.{ 2.} s T E ! ^ W g.$X$X$X$X$X$X$X$X$X$X$X$X$X$X$X",
"Z.k.A.W.S.T.D.F.D.L.D.D.Y.T.J.G.D.J.F.Y.L.L.A.J.G.F.L.l.A.A.. g 4 3 2 k   [ 9.{ { ;.1 T E b c p g.$X$X$X$X$X$X$X$X$X$X$X$X$X$X$X",
"F.D.T.Z.C.D.x.Z.J.H.D.T.H.H.Z.H.T.D.F.F.A.H.J.F.G.x.C.D.m.Z.. & 3 = % S   [ 9.,.z X.& a ! W E c g.$X$X$X$X$X$X$X$X$X$X$X$X$X$X$X",
"L.L.x.C.H.C.x.A.Z.D.F.H.L.E.R.D.H.L.Z.A.H.C.C.D.S.Z.Z.S.m.I.. i k 3 6 :   5 S k , : 3 c v y t a g.$X$X$X$X$X$X$X$X$X$X$X$X$X$X$X",
"A.A.Z.x.Z.C.I.A.Z.J.D.J.L.H.D.k.L.A.E.J.A.R.T.A.Z.j.j.A.Z.C.. s h , ; V   k 6 6 V , 4 c c c c c g.$X$X$X$X$X$X$X$X$X$X$X$X$X$X$X",
"Z.v.C.C.Z.A.Z.R.m.H.D.J.L.E.F.J.I.L.Z.R.D.T.H.N.A.Y.A.J.k.m.. 3 , A k 2   3 , k k , B y y c a a g.$X$X$X$X$X$X$X$X$X$X$X$X$X$X$X",
"H.E.C.Q.A.A.l.Z.Q.A.D.Q.D.R.Z.C.E.R.Z.H.I.x.x.R.A.j.T.m.G.M.. ; & 6 3 N   k 4 C A k V c c a y y g.$X$X$X$X$X$X$X$X$X$X$X$X$X$X$X",
"T.x.H.k.Z.C.E.Z.E.A.W.A.A.Q.m.x.Z.Z.L.A.L.m.A.I.I.E.I.}.Z.I.. 4 j : o 4   4 2 h h 2 3 c c c c c g.$X$X$X$X$X$X$X$X$X$X$X$X$X$X$X",
"T.W.R.T.A.D.H.Y.D.J.C.Z.E.m.F.Q.J.A.Y.C.H.m.L.~.Q.~.'.I.T.Z.. : , V h <   3 B k & % , t a y y c g.$X$X$X$X$X$X$X$X$X$X$X$X$X$X$X",
"P.{.P..XR.Q.I.C.T.H.D.H.m.L.A.T.Z.k.I.Z.A.m.C.Q.A.H.[.A.A.!.. i 3 3 3 $   2 2 h h C B n n c c n g.$X$X$X$X$X$X$X$X$X$X$X$X$X$X$X",
"(.{.(.Q.[.Y.H.Y.H.A.C.T.Z.J.H.D.F.z.I.z.Z.T.C.A._.[.A.m.T.Z.. 2 3 3 k 4   k S V h B < p c y c c g.$X$X$X$X$X$X$X$X$X$X$X$X$X$X$X",
"R.H.D.[.[.D.[.R.R.C.W.M.C.L.A.E.D.E.W.D.A.Z.S.m.A.Z.+XXXI.C.. 3 h : - 3   C < : 4 < = r c y t 0 g.$X$X$X$X$X$X$X$X$X$X$X$X$X$X$X",
"T.D.[.J.R.[.R.D.!.H.A.A.A.A.C.m.k.l.v.v.C.m.H.S.k.C.L.A.G.A.. & ; V X     h = h 4 % B n c E a ! g.$X$X$X$X$X$X$X$X$X$X$X$X$X$X$X",
"L.|.A._.{.I.!.[.Q.R.I.E.R.C.I.C.D.L.Z.D.!.P.v.F.R.D.T.T.L.A.. v k 2   S   < B k Z S V E Q W T E g.$X$X$X$X$X$X$X$X$X$X$X$X$X$X$X",
"R.A.E.!.Y.Q.Q.R.W.F.L.A.T.E.A.J.k.A.J.R.E.A.A.G.m.H.T.F.J.m.. j ,   k k   J S S o.O.{ y T y 0 0 g.$X$X$X$X$X$X$X$X$X$X$X$X$X$X$X",
"D.L.!.R._.(.R.).W.N.V.A.x.I.~.E.G.B.J.M.N.S.W.m.j.N.M.A.b.K.. C   h 5 k   :.} ' ,.t.9.0 0 t 9 9 *.$X$X$X$X$X$X$X$X$X$X$X$X$X$X$X",
"T.T.[._.L.H.R.I.P.U.V.K.K.U.U.K.J.!.G.U.!.A.R.!.A.L.m.Z.J.m..   Z D V D   o.:.;.5.t.2.0 e 8 9 y g.$X$X$X$X$X$X$X$X$X$X$X$X$X$X$X",
"R.D.H.D.L.L.N.W.L.S.b.P.K.H.F.B.R.N.I.b.N.N.W.G.G.G.R.J.m.R.. w o g k D   D ..O.w.u.8.e 9 e 0 0 g.$X$X$X$X$X$X$X$X$X$X$X$X$X$X$X",
"Z.A.S.I.m.x.m.A.I.K.`.H.G.K.F.).G.R.F.N.F.N.L.B.b._.L.A.J.H.. , 3 g O S   S ..o.3.u.8.y e t t e g.$X$X$X$X$X$X$X$X$X$X$X$X$X$X$X",
"P.H.S.T.v.M.L.N.G.S.Z.G.B.U.h.J.U.I.K.N.B.U.K.K.v.L.l.L.F.H.. C j % * Z   G ;.,.1.t.4.q 0 e q t g.$X$X$X$X$X$X$X$X$X$X$X$X$X$X$X",
"Z.k.A.T.A.T.H.G.B.K..Xn.B.B.U.J.Z.F.m.K.G.T.n.K.D.F.I.Z.G.N.. < & & j G   { 1.o.1.y.1.E a c E E g.$X$X$X$X$X$X$X$X$X$X$X$X$X$X$X",
"G.A.T.F.C.A.m.Z.I.L.U.N.E.F.K.B.Z.K.G.L.H.N.A.G.K.N.G.G.V.G.. = & * V j   ,.3.} ,.,.] ! @.) W c g.$X$X$X$X$X$X$X$X$X$X$X$X$X$X$X",
"W.Z.C.J.m.m.A.I.A.R.I.S.N.E.K.F.G.F.N.M.H.G.N.N.G.G.L.c.N.K.. O g O G G   <.;.} ,.1.-.! n b T R g.$X$X$X$X$X$X$X$X$X$X$X$X$X$X$X",
"K.W.J.G.N.H.G.N.K.U.I.U.J.!.N.b.B.K.G.K.F.I.b.G.H.G.K.b.N.G.. u - - Z G   <.;.-.3.<.o.E ! ( _ _ g.$X$X$X$X$X$X$X$X$X$X$X$X$X$X$X",
"L.L.P.F.L.Y.L.W.K.K.E.K.U.F.F.).Z.B.K.K.G.K.B.H.B.G.N.G.G.b.. , & h D S   <.5.3.5.y.o.c W W ( W g.$X$X$X$X$X$X$X$X$X$X$X$X$X$X$X",
"M.I.L.K.K.U.L.H.U.n.B.~.K.K.K.N.W.N.B.K.K.B.x.G.B.I.B.G.G.I.. = 3 , ' N   :.w.5.1.+.K E W ! ! E g.$X$X$X$X$X$X$X$X$X$X$X$X$X$X$X",
" XL.W.U.I.M.I.S.U.x.E.J.K.U.J.J.G.K.J.H.B.K.W.B.B.B.W.N.E.W.. h j k A M   +.<.+.+.0.} ! %.d.*.*.g.$X$X$X$X$X$X$X$X$X$X$X$X$X$X$X",
"). XL.K.L.K.P.`.K.!.n.V.!.U.E.B.K.U.K.K.b.U.B.B.[.K.E.I.W.P.. 3 & 3 A M   <.q.O.1.y.,.@.#.&.*.*.g.$X$X$X$X$X$X$X$X$X$X$X$X$X$X$X",
"W.U.T.F.B.N.H.T.).K.K.!. X).K.U.F.!.F.F.J.J.W.B.L.I.I.U.B.A.. u & o M >   O.:.o.w.w.4.%.$.$.=.s.g.$X$X$X$X$X$X$X$X$X$X$X$X$X$X$X",
").I./.U.U.K.I.U.!.].E.U.E.K.].!.K.U.B.U.U.).J.J.T. XQ.K.`.H.. h g g B B   :.q.;.5.<.4._ 7.d.7.s.g.$X$X$X$X$X$X$X$X$X$X$X$X$X$X$X",
").L.[.L.I.A.R.I.U.K.K.].+XK.W.!.~.F.J.K.'.).].'.G.W.U.].K.K.. < ; 3 > M   { e.,.w.0.-.#.7.7.d.7.g.$X$X$X$X$X$X$X$X$X$X$X$X$X$X$X",
"E.+XT.`./.K.I.!.].].).|.B.E.].).K.U.W.F.K.U.U.G.W. XK.)./.).. h g B B A   ] 0...e...t._ *.*.*.*.g.$X$X$X$X$X$X$X$X$X$X$X$X$X$X$X",
"G.XX!.W. X).G._..X X`.W.|.'.].W.W.W./. X.X X~.).].b.E.!.T.G.. g 4 B M D   :.q...r.9.4._ *.*.$.p.g.$X$X$X$X$X$X$X$X$X$X$X$X$X$X$X",
"@X). X+XW.P.|.I.|.)./.).'.+X|.).U.).W.K.!.'.|.~.).|.|.'.).|.. f g 6 A V   :.>.:.:.r.2._ s.f.=.=.g.$X$X$X$X$X$X$X$X$X$X$X$X$X$X$X",
"`.!.].@X#XK.U.V.).W.|.W.|.J.|.'.XX'.U.#XW.).!./.).). X].{.`.. = 3 , k     o.>.I P r.5.6.i.a.d.7.g.$X$X$X$X$X$X$X$X$X$X$X$X$X$X$X",
"'.OX[.R.[.R._.].J.).'.J.].W.|.].XXT.~.|.U.).U.).K.OXJ.|.`.).. g % %   z   ..X.I ..w.5./ i.d.7.7.g.$X$X$X$X$X$X$X$X$X$X$X$X$X$X$X",
"].[./.B.J.]. XK.W.].).W.'.oX|.|.!._._.`.`.U.R.'.W.oXXX].~.|.. g ,   k k   o.+.G | 0.O.~ 7.s.%.%.g.$X$X$X$X$X$X$X$X$X$X$X$X$X$X$X",
"].G.U.Q.{.W.N.I.E.].W.U.oX|.W.J.Q.).'.)./. X).U.~.E.oX].~.!.. J   6 4 z   ' | G H A N ) Q ( ! ` g.$X$X$X$X$X$X$X$X$X$X$X$X$X$X$X",
"W.[.'.).W.G.'.W.K.U.!.'.!.).K.OXU.).{..XQ.P.W.|.E.K.oX].oXE..   V D A G   | | H  .X. .) Q ) ( ) g.$X$X$X$X$X$X$X$X$X$X$X$X$X$X$X",
"M.J.L.W.K.[.).'.J.U.W.W.K.W.K.K.H.H.P.I.{.U.W.).H.W.U. X/.L.. V ..I ..I   H B D I H G / ( ( ! ) g.$X$X$X$X$X$X$X$X$X$X$X$X$X$X$X",
"H.S.'.S.I.F.R.Q.U.J.J.B.W.!.U.U.D.W.H.R./.!.~.H._.].L.).U.R.. > D M D B   6 B 4 I L X.x ` _ ` ` g.$X$X$X$X$X$X$X$X$X$X$X$X$X$X$X",
"K.W.Y.R.J.U.I.G.G.K.U.).Q.U.].K.S.A.I.).Q.I._.I.W.'. XW.W.L.. 3 6 B 4 B   B V L D B 3 l ( Q ) ) g.$X$X$X$X$X$X$X$X$X$X$X$X$X$X$X",
"U.I.'.A.K.L.I.'.K.G.'.!.I.K.W.K._.H.K.K._.W.I.R.R.).I.'.!./.. 6 B B L ,   3 A h C V I g W E W c g.$X$X$X$X$X$X$X$X$X$X$X$X$X$X$X",
"I.I.K.M.G.K.I.L.R.I.T./.!.K.Q.P.G.T.L.P.K.K.W.W.K.U.K.K./.S.. V j Z 3 B   < M B h V 4 m c c y a g.$X$X$X$X$X$X$X$X$X$X$X$X$X$X$X",
"~.K.Q./.I.n.A._.T.R._./.I.W.).P.R.L.(.P.'.W.U._.K.).Q.P.].A.. N , 3 , &   3 , = j g ; 7 8 q q e g.$X$X$X$X$X$X$X$X$X$X$X$X$X$X$X",
"R.I.E.Q.R.A.Z.C.C.R.T.W._.Y.W.'.L.K.H.~.K.W.[.K.W.Q.P.K.P.K.. g 6 g k f   A g h S k V r t l l t g.$X$X$X$X$X$X$X$X$X$X$X$X$X$X$X",
"L.L.I.K.I.A.L.I.L.A.T.T.Q.Q./.R.K.R.S.G.A.P._.~.K.'.V.S.).'.. , 3 ; 3 %   , h C k g @ 7 r f w 8 g.$X$X$X$X$X$X$X$X$X$X$X$X$X$X$X"
};
