/* XPM */
static char *result[] = {
/* columns rows colors chars-per-pixel */
"64 64 93 2 ",
"   c #4B4545",
".  c #544E4E",
"X  c #575150",
"o  c #5A5452",
"O  c #5E5958",
"+  c #625C5B",
"@  c #66615F",
"#  c #69615F",
"$  c #6C6564",
"%  c #6E6B6B",
"&  c #726A65",
"*  c #726C6B",
"=  c #74716F",
"-  c #7B7472",
";  c #7E7977",
":  c #7D7B7B",
">  c #817A76",
",  c #827D7C",
"<  c #84807E",
"1  c #8A837E",
"2  c #878484",
"3  c #8A8584",
"4  c #8E8A89",
"5  c #938684",
"6  c #978986",
"7  c #938C8A",
"8  c #988F8B",
"9  c #95908E",
"0  c #9B938C",
"q  c #959393",
"w  c #9C9692",
"e  c #9A9896",
"r  c #9E9D9D",
"t  c #A59A8F",
"y  c #A09592",
"u  c #A49B95",
"i  c #A99D95",
"p  c #A49E9B",
"a  c #AA9E99",
"s  c #B09F98",
"d  c #ACA096",
"f  c #A6A19D",
"g  c #ACA39D",
"h  c #B1A49D",
"j  c #A6A3A1",
"k  c #ACA5A2",
"l  c #AEA9A5",
"z  c #ADABA9",
"x  c #B2A6A2",
"c  c #B8A7A3",
"v  c #B3AAA4",
"b  c #BAACA5",
"n  c #B3ADAA",
"m  c #B9AEAA",
"M  c #BCB0A7",
"N  c #B6B1AD",
"B  c #BCB3AD",
"V  c #B5B3B1",
"C  c #BBB5B2",
"Z  c #BDB9B6",
"A  c #BEBCBB",
"S  c #C2B5AD",
"D  c #C4B8AF",
"F  c #C3B6B2",
"G  c #C3BAB4",
"H  c #CABCB6",
"J  c #C3BDBA",
"K  c #CABDB9",
"L  c #C6C1BE",
"P  c #CBC2BD",
"I  c #D2C4BD",
"U  c #C4C3C2",
"Y  c #CAC5C2",
"T  c #CDC8C5",
"R  c #CDCBCB",
"E  c #D1C8C4",
"W  c #D2CECC",
"Q  c #D3D0CF",
"!  c #DCD2CD",
"~  c #D4D3D2",
"^  c #D8D7D6",
"/  c #D9D8D7",
"(  c #DCDCDB",
")  c #E0DFDF",
"_  c #E0E0DF",
"`  c #E4E4E4",
"'  c #E8E7E7",
"]  c #E8E8E7",
"[  c #EBEBEB",
"{  c #F0EFEF",
"}  c #F0F0EF",
"|  c #F4F4F4",
" . c #FEFEFE",
/* pixels */
"C h B B u B A j N N d v M d 8 d M d B g g d l N f f g p B _ ]  . . . . . . . . . . . . . . . . . . . . . . . . . . . . . . . . .",
"g m f d l d d g g v B N v h Z f h f g z g z d j f N f A ( (  . . . . . . . . . . . . . . . . . . . . . . . . . . . . . . . . . .",
"g f d r r d N g j N C L b g g f B f C v N f N e g l T ^ `  . . . . . . . . . . . . . . . . . . . . . . . . . . . . . . . . . .| ",
"u t i d f f d C f C h Z M D l n d f z n j N l g g Y ^  . . . . . . . . . . . . . . . . . . . . . . . . . . . . . . . . . .|  .| ",
"k V d D f f w f Z Z M G N h M f v l f v N m g n R R  . . . . . . . . . . . . . . . . . . . . . . . . . . . . . . . . . . . .|  .",
"N r l 0 f d N f N z M B b B M A f l e t Z d 0 ~ Q }  . . . . . . . . . . . . . . . . . . . . . . . . . . . . . . . . .| | |  .| ",
"N C B N g l v M v G C B C z f z d B g d 2 O Q ( [  . . . . . . . . . . . . . . . . . . . . . . . . . . . . . . . . . . .|  .|  .",
"M P b T C A N f N M l M C V B M 0 M = o R ` ` |  . . . . . . . . . . . . . . . . . . . . . . . . . . . . . . . . . .|  .| | | | ",
"L P L B Z M M M l C A g L Z D z 0 @   ^ ` '  . . . . . . . . . . . . . . . . . . . . . . . . . . . . . . . . . . .| | | | | | | ",
"M h h L L M G B M l M z L l v 1     ( ] ]  . . . . . . . . . . . . . . . . . . . . . . . . . . . . . . . . . .| |  . .| |  . .| ",
"M g L z B L M l A B M R U f =   , ^ ` |  . . . . . . . . . . . . . . . . . . . . . . . . . . . . . . . . . . . . .|  .| |  .| | ",
"v L g Z L v G L A M L M d &   l ^ ' }  . . . . . . . . . . . . . . . . . . . . . . . . . . . . . . . . . . .|  .| | | | | | | | ",
"B k V Z v Z D C B B n f %   / _ ' |  . . . . . . . . . . . . . . . . . . . . . . . . . . . . . . . . . .|  .| | | | | | |  .| | ",
"l v L B L B V G B N d #   L [ | |  . . . . . . . . . . . . . . . . . . . . . . . . . . . . . . . . . . . . .|  .|  .| | | | | | ",
"N N L D M f B n M l -   / [ |  . . . . . . . . . . . . . . . . . . . . . . . . . . . . . . . . . . . .|  .|  .| |  . .| | | | | ",
"M g v h v n g B v 3   q | |  . . . . . . . . . . . . . . . . . . . . . . . . . . . . . . . . . . . . .| | | | | | | | | |  .| | ",
"g g d n d e d f w   %  .|  . . . . . . . . . . . . . . . . . . . . . . . . . . . . . . . . . . .|  .| | | | | | | | | | | | | | ",
"M z v N 0 d l e @    . . . . . . . . . . . . . . . . . . . . . . . . . . . . . . . . . . . .|  . .|  .|  .| |  .| | | | | | | | ",
"p 0 d V h V h <   r  . . . . . . . . . . . . . . . . . . . . . . . . . . . . . . . . . . .| |  . .| | | | |  .|  .| | | | | | | ",
"g l N g f h 0 X    . . . . . . . . . . . . . . . . . . . . . . . . . . . . . . . . . . . . . . .|  .| | | | | | | | | | { | | | ",
"h n f d v d ;    . . . . . . . . . . . . . . . . . . . . . . . . . . . . . . . . . . .|  . .| | | | | | |  .| | | | | { | | | | ",
"g f d r d u O    . . . . . . . . . . . . . . . . . . . . . . . . . . . . . . . . . . . .| | | |  .| | | | | | | } } [ { | | | | ",
"d u t d f 4   9  . . . . . . . . . . . . . . . . . . . . . . . . . . . . . . . . . .| | |  .| | | | |  .| | | | } { { | | | } | ",
"l V d Z g *    . . . . . . . . . . . . . . . . . . . . . . . . . . . . . . . . .|  .|  .|  .| | | | | | | | [ [ { [ } } | | | | ",
"N r l 0 k .    . . . . . . . . . . . . . . . . . . . . . . . . . . . . . . . . . .| |  .| |  .| | | | | | } [ [ [ } | | | | | | ",
"N C N N w   3  . . . . . . . . . . . . . . . . . . . . . . . . . . . . . . .|  . .| | | | | | | | | | | { { [ [ { } | | } | | | ",
"M P v E 7    . . . . . . . . . . . . . . . . . . . . . . . . . . . . . . . . .|  .| | |  .| | | | | } { [ [ [ { } | | | } | | | ",
"D P D D 1    . . . . . . . . . . . . . . . . . . . . . . . . . . . . . . .|  . .|  .| | | | | | | [ [ [ [ [ [ { } | } | | | | | ",
"B l v L &    . . . . . . . . . . . . . . . . . . . . . . . . . . . . . .|  .| | | | | | | | { | [ | [ [ [ [ { } { | } | | | | | ",
"N h L z @    . . . . . . . . . . . . . . . . . . . . . . . . . . . . .|  .| |  .| | | | | | | | [ [ ' [ [ [ { } } { | | | } | | ",
"n U f Z . *  . . . . . . . . . . . . . . . . . . . . . . . . . . . .|  . .| | | | | | | | | | [ [ ] ' [ [ { { } { { { } { | | { ",
"B g Z Z      . . . . . . . . . . . . . . . . . . . . . . . . . . .|  . .| |  .| | | | | | [ { [ ] ' ' [ [ [ [ [ [ [ [ { [ { { [ ",
"h l L B      . . . . . . . . . . . . . . . . . . . . . . . . . . .|  .| | |  .| | | | | [ | [ ] ] ' ' [ [ [ [ [ [ ] ' ] [ ' ` ( ",
"B N D L .    . . . . . . . . . . . . . . . . . . . . . . . .|  .|  .| | | | | | | | { [ [ [ ] ] ] [ ` [ ' ' ` ` ' ` _ ` _ ( ~ R ",
"N h h h + %  . . . . . . . . . . . . . . . . . . . . . . . . .|  .| | | | | | | { { [ [ [ ' ' ] [ ` ` [ ` ` ` ` _ _ ( ( ^ ~ ~ U ",
"f h g z # $  . . . . . . . . . . . . . . . . . . . . . .|  . .| | |  .| | | | | { [ [ [ [ ' ' ' ` ` ` ` ` _ _ ( ^ ( ~ ~ ~ ~ U A ",
"v n h N & ,  . . . . . . . . . . . . . . . . . . . .|  .|  .|  .| | | | | | | [ [ [ [ [ ' ' ' ` ` ` ` _ ( ( ( ~ ~ ^ ~ ~ ~ R V V ",
"f 0 g N 1   }  . . . . . . . . . . . . . . . .|  . . . . .| | |  .| | | | [ | [ [ [ ' ' [ ` ` ` ` ` _ ( ( / ^ ~ ~ Q ~ ~ ~ A V j ",
"l g N l 8   2  . . . . . . . . . . . . .|  . .|  .| |  .|  .| | | | | | | | ] [ ' ' ' ` ` _ ` _ _ ( ( / ~ ^ ~ ~ ~ ~ ~ ~ Y Z l f ",
"N f d z w .   |  . . . . . .|  . . . . . .| |  .| | | | | | | | | | } | [ | [ ] [ [ ` ` ` ` _ _ ( / / ^ ~ ~ ~ ~ ~ ~ ~ Q Z n g k ",
"x C N g p -   | |  . . . . . . .|  . . .| | | | | | | | | | | | | | } [ [ [ ' ' ` ` ` ` _ _ ( / ( ^ ~ ~ ~ ~ ~ ~ ~ ~ ~ G V z y B ",
"z x b j z 0   9  . .|  . .| |  .| | |  . .| | | | | | | | } } } [ [ [ [ [ ] ] ' ' ` ` _ _ _ ( / ~ ~ ~ ~ ~ ~ Q ~ ~ R A G V V V z ",
"d n v h x v O    . .|  . . . . . .| | | | | } | | [ [ | | | [ [ [ [ ] ] ' ` ` ` _ _ ` _ _ ( / / ~ ~ Q ~ ~ ~ ~ ~ ~ Z j v x N l l ",
"Y b B N N i 3    .| |  .| | | | | | |  .| | | [ [ | [ [ [ } | [ [ ] [ ' ` ` ` ` _ _ _ _ ( / ~ ~ ~ ~ ~ ~ ~ Q ~ ~ j 7 w v d F h g ",
"B Y n x l c a o   |  .| | | | | | | | } | [ | [ [ [ [ [ [ [ ] ' ' ] ' ` ` ` ` ( _ ) ( ( / ^ ~ ~ ~ ~ ~ ~ ~ ~ ~ ~ ; 7 j a V z e k ",
"C m N k a p v 3   | | | | | | | | | | | | | [ [ [ [ [ [ ' ] ' ' ` ` ` ` ' ` ` ` _ ) ( / ^ ~ ~ ~ ~ ~ ~ ~ ~ ~ T j e M l n l V p a ",
"G N S m n x n x $   | |  .| | | | | | | | | | ] [ ` [ ] ` [ ' ` ` ` ` _ ` ` ` _ ) ( / ^ ~ ~ ~ ~ ~ ~ ~ ~ ~ ~ j o k g C F x m B C ",
"G x J c n g B n w   % | | | | { | | } | [ { | [ [ [ ' ` ` ` ' ` ` ` ` _ _ ( ( ( ( / / ~ ~ ~ ~ ~ ~ Q ~ ~ ~ ~   j F K J p C J L n ",
"N Q n G F x N J K 4   q ' | | | | } } } } [ [ [ [ [ ' ` ` ` ` _ ` _ ` _ ) ) / / ^ ^ ~ ~ ~ ~ ~ ~ Q ~ ~ ~ q   4 F F Z Z H U Y U F ",
"j W J Z L F k G Y J >   ' ' { | } } { { { [ ' [ [ [ [ ' ' ` ` _ _ _ _ _ ( ) ( / ~ ~ ~ ~ Q ~ ~ Q ~ ~ ~ ~   , a U S B H J U J J c ",
"! F Y E C c L n U F h *   ' ' [ | } } [ [ [ ' ] ' ' ` ` ` ` _ ` _ _ _ ( ( / ^ ^ ~ ~ Q ~ ~ ~ ~ ~ ~ ~ Q   % g k L c J m L C K J R ",
"H Z F ) ~ c m a F C Y r =   ' ' [ | [ [ [ [ [ ` ' ' ` ` ` _ _ ( ( _ _ ) ( / ^ ~ ~ ~ ~ ~ ~ ~ ~ ~ ~ ~   % p L S m J U C I F U F U ",
"J E L m L B J K n F A n x *   ' ] [ } } ] ] ] ] ' ' ` ` ` ` ` _ ( ( ( ^ ^ ~ ~ ~ ~ ~ ~ ~ ~ ~ ~ ~ q   $ w F Y n B A F C K U U F m ",
"K L S f n K Y c C H C C F C :   % _ ] ] [ ] ] ] ' ` ` ` ` _ _ _ ) ( / ^ ~ ~ ~ ~ ~ ~ Q ~ ~ ~ Q %   - l Y F a m m J F F K Y F x A ",
"J k m F L C f z V H Z m I U n <     r ] ] ] ` ` ` ` ` ` ` _ ( ( ( / ^ ~ ~ Q ~ ~ ~ ~ ~ ~ ~ r     4 n m m g F C z A F F A m c K c ",
"C L G J Z k F C x m A J A C c E w %     ] ] ] _ ` _ ' ` _ _ _ _ ( / ~ ~ ~ ~ ~ Q ~ ~ ~ ~     + r N l Z j C J C k c C n x V m n g ",
"a z v C k U F L z n m A c C c c l f 1 o   = L _ ~ R ( ( ) ( ) ( ~ ~ ~ ~ ~ ~ ~ R ~ q     . 5 u A C x V x u p x z z k k p a k n l ",
"x h A h n g B C m z z g V A c n h C v l 5 +     : z U ~ Q ~ ~ ~ ~ ~ ~ ~ ~ ~ 2       X 2 l g C n k n b q a x y g p z v y n f a g ",
"x V M B l B b j x c n F C n J v h g N C Z n u - X                             . - 8 n Z L k C J k V x p c v l l x j j u 9 N j z ",
"m n J g x v n L x j J A n c V c G z h c L N l B m k 4 2 * + .     . O % - 4 y A N k m l l x B x r z x m r l x n V x c x j z 6 N ",
"n n x i g l n v n m N D A h C b f N h b n c F V x c m x F s s G m S C C c u u a j B F v F E V C V z a l a k m k f l p V l V 9 p ",
"S h Z S n i g F N C D S n C G M B m D M J V m F x F Z c J g Z g m n a S Y F a C Z I g d I F r k m c a a V Z g x k n C f a w k u ",
"B n V Z N g g d d B N C L M B L n x z b k m L x C Z n c c c g a k g c F f F G i B N ! F F V x U F p p y m p l a j z k y m g l p ",
"v b n k N g x n v g n N C Z B B h B h k x c F S x J s g F L K x v C 8 H C B F B H B U v g n n n V k x m r k a k z c c s k k l e "
};
