/* XPM */
static char *result[] = {
/* columns rows colors chars-per-pixel */
"64 64 72 1 ",
"  c black",
". c gray10",
"X c #313131",
"o c #3C3B3B",
"O c gray27",
"+ c #4E4D4E",
"@ c #545454",
"# c #5D5D5D",
"$ c #646464",
"% c #6E6E6E",
"& c #747474",
"* c #797979",
"= c #978986",
"- c #9C8D88",
"; c #96918F",
": c #9C948D",
"> c #9D9692",
", c #9C9997",
"< c #9D9B9B",
"1 c #A4998F",
"2 c #A09592",
"3 c #A59C95",
"4 c #A99D95",
"5 c #A49E9A",
"6 c #AA9E99",
"7 c #B09F98",
"8 c #ADA197",
"9 c #A6A19D",
"0 c #ACA39C",
"q c #B1A59D",
"w c #B3A89E",
"e c #A6A3A1",
"r c #ACA5A2",
"t c #AEA9A5",
"y c #AEABA9",
"u c #B2A6A2",
"i c #B8A7A3",
"p c #B4AAA4",
"a c #BAADA5",
"s c #B3ADAA",
"d c #BAAEA9",
"f c #B7B0A7",
"g c #BDB1A7",
"h c #B5B1AE",
"j c #BCB3AD",
"k c #B5B3B1",
"l c #BBB5B2",
"z c #BDB9B5",
"x c #BDBBBA",
"c c #C2B4AD",
"v c #C5B8AF",
"b c #C2B6B2",
"n c #C3BAB4",
"m c #CABCB5",
"M c #C3BDBB",
"N c #CDBDB9",
"B c #C5C1BE",
"V c #CCC2BD",
"C c #D3C7BF",
"Z c #D5C9BF",
"A c #C4C1C0",
"S c #CBC5C2",
"D c #CEC8C6",
"F c #CCCBCA",
"G c #D1C9C4",
"H c #D3CECB",
"J c #DCD2CC",
"K c #D6D5D5",
"L c #DBD6D2",
"P c #EDEDED",
"I c #F0F0F0",
"U c #FFFFFF",
/* pixels */
"lwjc1jxehs8fg9-8j8j098wy09090w,njvBjjhxphLhp9lnaAGlxsw9qp93p8909",
"0s98p48reajhpqk0q00y9y9e9h99ygt0xjavxByffwJnjJw9Zn8w30q090,98y95",
"098,99h09jlxf000f0lph0k,wt:t0hB8jBnBGlhzBgB8cyLccjujq093338998l8",
"3338993j0kwlfcyf95ss0set949w>9cVBBCljxj0qVwzxzBw0sskt3rtk0v99>9z",
"ek9v98>9zlsnhwf0at9tff0hw9r0f,9ggBVGlfwlfjffzzfkjp3ptesj5r:r8h9h",
"h9t:e3h9hhgjfjfx9e31x0pr:09h9hhfjalhn9rnVzB0t;08heksglalfx9r0yhw",
"hljf0tpj          8ahx9jf0ttf          hjVBgfhqttj          zh9h",
"aVaDlxh #@O#O@@% l;fw1wgDknh $@O#O@@% jthjBhfDjxh #@O#O@@% vfpgt",
"vVvnng @#&@$*$o fyjw03hvnng @#&+$*$o fplhfjjvvng @#&@$*$o ftfnjj",
"jtsnM          vfzhw0,wtnM          cfxhBBnftnB          vgxnjyx",
"h0Myb #@O#O@@% 0BjpD8hwByz #@O#O@#% 0BjHjfjfByn #@O#O@@% 0BjynBv",
"sAXXS @@@$#$$& kXXVwhyqXXS @@@$$$$& hXXzhfxjXXD +@@$$$$* hXXxzjj",
"jrXX. @#&+$*$o .XX0tup1XX. @#%+$*$o .XXBhzktXX. @#&+$*$o .XXjlnj",
"upXX. #@+#&%@# .XXyjlpsXX. ##+#&&@@ .XXnfvhBXX. #@@#&%@@ .XXwlff",
"khXX< &@@$$+@# 0XXjhphsXX< &@@$#+@# uXXzkBH0XX< &@@$$+@# qXXt8jt",
"jqXX< ##$$+$O@ jXXt0lhsXX< ##$$+#O@ jXXvhzB8XX< ##$$+$O@ jXX,90h",
"90<<< #$@#O$+$ 98s8s808<<< #$@#O$+% 98yAjfM0<<< #$+#O$+$ 08s3s50",
"UUUUUUUUUUUUUUUUUUUUUUUUUUUUUUUUUUUUUUUUUUUUUUUUUUUUUUUUUUUUUUUU",
"UUUUUUUUUUUUUUUUUUUUUUUUUUUUUUUUUUUUUUUUUUUUUUUUUUUUUUUUUUUUUUUU",
"UU##UPPPPPPPPPPPPPUUUUU##UPPPPPPPPPPPPPUUUUU##UPPPPPPPPPPPPPUUUU",
"UU##UPUPUUUUUPUPUPUUUUU##UPUPUUUUUPUPUPUUUUU##UPUPUUUUUPUPUPUUUU",
"UU##UPPPPPPPPPPPPPUUUUU##UPPPPPPPPPPPPPUUUUU##UPPPPPPPPPPPPPUUUU",
"UUUUUPUPUPUPUPUPUPUUUUUUUUPUPUPUPUPUPUPUUUUUUUUPUPUPUPUPUPUPUUUU",
"UUUUUPPPPPPPPPPPPPUUUUUUUUPPPPPPPPPPPPPUUUUUUUUPPPPPPPPPPPPPUUUU",
"UUUUUUUUUUUUUUUUUUUUUUUUUUUUUUUUUUUUUUUUUUUUUUUUUUUUUUUUUUUUUUUU",
"UUUUU##############UUUUUUU##############UUUUUUU##############UUU",
"UUUUP<<<<<<<<<<<<<<UUUUUUP<<<<<<<<<<<<<<UUUUUUP<<<<<<<<<<<<<<UUU",
"UUUUPP<<<<<<<<<<<UUUUUUUUPP<<<<<<<<<<<UUUUUUUUPP<<<<<<<<<<<UUUUU",
"UUUUUPPPPAAAMAUUUUUUUUUUUUPPPPAAAAAUUUUUUUUUUUIPPPPAAAAMUUUUUUUU",
"UUUUUIIUUPPPPUUUUUUUUUUUUIIUIUPPPPUUUUUUUUUUUUUUUIUPPPPUUUUUUUUU",
"UUUUUUUUUUUUUUUUUUUUUUUUUUUUUUUUUUUUUUUUUUUUUUUUUUUUUUUUUUUUUUUU",
"                                                                ",
"UUUUUUUUUUUUUUUUUUUUUUUUUUUUUUUUUUUUUUUUUUUUUUUUUUUUUUUUUUUUUUUU",
"UUUUUUUUUUUUUUUUUUUUUUUUUUUUUUUUUUUUUUUUUUUUUUUUUUUUUUUUUUUUUUUU",
"UUUUUUUIUIAAAAMUUUUUUUUUUUUUUIIAAAAAUUUUUUUUUUUUIUUIAAAAAUUUUUUU",
"UUUUUI<<<<<<<<<<<<<UUUUUUUI<<<<<<<<<<<<<UUUUUUUI<<<<<<,,<<<<<UUU",
"UUUUP<#######$#####UUUUUUI<#############UUUUUUP<#############UUU",
"UUUUP#############UUUUUUUP######$######UUUUUUUP#############UUUU",
"UUUUPPPPPUUIUIIUUUUUUUUUUPPPPPIUUIUIUUUUUUUUUUPPPPPUIUIUIUUUUUUU",
"UUUUUIIPPIPPPIIIPIUUUUUUUUIIIIIPPPPPPIIUUUUUUUUIIIIPIPIIIPIIUUUU",
"UUUUUIUIUIUIUIUIUPUUUUUUUUIUIUIUIUIUIUIUUUUUUUUIUIUIUIUIUIUIUUUU",
"UUUUUPIPIPIPIPIPIPU##UUUUUPIPIPIPIPIPIPU##UUUUUPIPIPIPIPIPIPU##U",
"UUUUUIUIUIUUUUUIUIU##UUUUUIUIUIUUUUUIUIU##UUUUUIUIUIUUUUUIUIU##U",
"UUUUUIIPIIPPIIIPIIU##UUUUUIPPIIIIIIIPIIU##UUUUUIIPIPIIPPIPIIU##U",
"UUUUUUUUUUUUUUUUUUUUUUUUUUUUUUUUUUUUUUUUUUUUUUUUUUUUUUUUUUUUUUUU",
"UUUUUUUUUUUUUUUUUUUUUUUUUUUUUUUUUUUUUUUUUUUUUUUUUUUUUUUUUUUUUUUU",
"nscds<<< #@O@O@#% 6ddbsykS<<, #@O#O@@% 3jd6kjzt<<< #@O#O@@% 4djz",
"niMspXX< @+@$$$$& yXXbMnrlXX< @@@$#$$& sXXdbsauXX< @+##$$$* yXXs",
"hKhnbXX< @#&+$*$o kXXds7xVXX< @#&+$*$o zXXyil6nXX< @#&+$*$o kXXb",
"0FxlVXX. #@+#&&@# .XXAdbM2XX. #@+#*%@@ .XX0kkAyXX. #@+#&&@# .XXi",
"HmSHkXX. &@          nScbSXX. &@          lDbAnXX. &@          F",
"NzMJKXX< # @@@#$$$* XzMcbbXX< # @@@$$$$* Xu6NxsXX< # @@@$#$$& XV",
"MGMjA<<<  &@+%@%@  SdbdbiF<<<  *@+%@&@  SdMlrAc<<<  &@+&@%@  Sdc",
"NAb6ps<<          nbNpcAlNs<<          nbNdbsrss<<          nnmz",
"MrszVy5<<< <<<< xlMccSzicks<<<< <<<< xlMbdMbbjls<<<< <<<< xlMcci",
"lNMnls<<X <<<<pG XVFzalVlrs2<X <<<<iG XVDzlsVkey<<X <<<<iG XVFx6",
"6rplus<<X <<slip XssVdkbrks<<X <<slip XsaS6erd6s<<X <<plpp XpdVt",
"tqMqsejndysqkzpswlpjjMcynNubdjAdzMdszdbkrz-hjuhkryd>6u2e6yt3h99e",
"uljjtdserusllhNpq0sbzsbplMGlliiM3MzzbMG6ppjzArbxehu5isstre03;hes",
"dsM0upsMurMMhpjunttunzsjjbyAzlisdhdueypzsrsuyrju<sus5uuskuiuey=y",
"ssr4rusphfhcxwlwejwasilludiubq7ncclka6335llplGkjkteu6rs09r5ktk;3",
"cqzcs40bjlvcplnfjpvdMkanubzinez0diecCc6lzC60Gz5rdi6ejkrurhl58>r5",
"jskbh0988hjlBflBsuyardBqllsiai06e0sb6bn4ckJlcluAb562d6t69yr2drt5",
"spsts0pfu0fhlxgjqjqruamduMq0bMNudj-mldblmjAp0ddshruseeeryii7rrr>"
};
