/* XPM */
static char *result[] = {
/* columns rows colors chars-per-pixel */
"64 64 57 1 ",
"  c #4B4545",
". c #8F8484",
"X c #948F8C",
"o c #9E918D",
"O c #9E9592",
"+ c #9F9997",
"@ c #9F9A98",
"# c #A1948B",
"$ c #A09693",
"% c #A89791",
"& c #A49A94",
"* c #AA9C96",
"= c #A59D9A",
"- c #AA9E9A",
"; c #ACA096",
": c #A5A09D",
"> c #ACA29D",
", c #B1A59D",
"< c #B8A89F",
"1 c #A7A3A1",
"2 c #ACA5A2",
"3 c #AEA9A5",
"4 c #ADABA9",
"5 c #B2A6A2",
"6 c #B4AAA4",
"7 c #BAABA4",
"8 c #B3ADAA",
"9 c #BAAEAA",
"0 c #BEB0A7",
"q c #B5B1AD",
"w c #BCB2AD",
"e c #B5B3B2",
"r c #BCB5B2",
"t c #BDB9B6",
"y c #BEBBBA",
"u c #C0B1A7",
"i c #C1B3AD",
"p c #C4B8AF",
"a c #C2B6B2",
"s c #C3B9B5",
"d c #C9BBB5",
"f c #C4BDBB",
"g c #CABDBA",
"h c #C5C0BE",
"j c #CBC2BE",
"k c #D7C4BF",
"l c #C5C4C3",
"z c #CBC5C2",
"x c #CCC8C6",
"c c #CECCCB",
"v c #D6C5C1",
"b c #D0C9C6",
"n c #D2CDCB",
"m c #D6D0CE",
"M c #DDD3CF",
"N c #D6D6D6",
"B c white",
/* pixels */
"NBBBBBBBBBBBBBBBBBBBBBBBBBBBBBBBBBBBBBBBBBBBBBBBBBBBBBBBBBBBBBBB",
"BNBBBBBBBBBBBBBBBBBBBBBBBBBBBBBBBBBBBBBBBBBBBBBBBBBBBBBBBBBBBBBB",
"BBNBBBBBBBBBBBBBBBBBBBBBBBBBBBBBBBBBBBBBBBBBBBBBBBBBBBBBBBBBBBBB",
"BBBNBBBBBBBBBBBBBBBBBBBBBBBBBBBBBBBBBBBBBBBBBBBBBBBBBBBBBBBBBBBB",
"BBBBNBBBBBBBBBBBBBBBBBBBBBBBBBBBBBBBBBBBBBBBBBBBBBBBBBBBBBBBBBBB",
"BBBBBNBBBBBBBBBBBBBBBBBBBBBBBBBBBBBBBBBBBBBBBBBBBBBBBBBBBBBBBBBB",
"BBBBBBNBBBBBBBBBBBBBBBBBBBBBBBBBBBBBBBBBBBBBBBBBBBBBBBBBBBBBBBBB",
"BBBBBBBNBBBBBBBBBBBBBBBBBBBBBBBBBBBBBBBBBBBBBBBBBBBBBBBBBBBBBBBB",
"BBBBBBBBNBBBBBBBBBBBBBBBBBBBBBBBBBBBBBBBBBBBBBBBBBBBBBBBBBBBBBBB",
"BBBBBBBBBNBBBBBBBBBBBBBBBBBBBBBBBBBBBBBBBBBBBBBBBBBBBBBBBBBBBBBB",
"BBBBBBBBBBNBBBBBBBBBBBBBBBBBBBBBBBBBBBBBBBBBBBBBBBBBBBBBBBBBBBBB",
"BBBBBBBBBBBNBBBBBBBBBBBBBBBBBBBBBBBBBBBBBBBBBBBBBBBBBBBBBBBBBBBB",
"BBBBBBBBBBBBNBBBBBBBBBBBBBBBBBBBBBBBBBBBBBBBBBBBBBBBBBBBBBBBBBBB",
"BBBBBBBBBBBBBNBBBBBBBBBBBBBBBBBBBBBBBBBBBBBBBBBBBBBBBBBBBBBBBBBB",
"BBBBBBBBBBBBBBNBBBBBBBBBBBBBBBBBBBBBBBBBBBBBBBBBBBBBBBBBBBBBBBBB",
"BBBBBBBBBBBBBBBNBBBBBBBBBBBBBBBBBBBBBBBBBBBBBBBBBBBBBBBBBBBBBBBB",
"BBBBBBBBBBBBBBBBNBBBBBBBBBBBBBBBBBBBBBBBBBBBBBBBBBBBBBBBBBBBBBBB",
"BBBBBBBBBBBBBBBBBNBBBBBBBBBBBBBBBBBBBBBBBBBBBBBBBBBBBBBBBBBBBBBB",
"BBBBBBBBBBBBBBBBBBNBBBBBBBBBBBBBBBBBBBBBBBBBBBBBBBBBBBBBBBBBBBBB",
"BBBBBBBBBBBBBBBBBBBNBBBBBBBBBBBBBBBBBBBBBBBBBBBBBBBBBBBBBBBBBBBB",
"BBBBBBBBBBBBBBBBBBBBNBBBBBBBBBBBBBBBBBBBBBBBBBBBBBBBBBBBBBBBBBBB",
"BBBBBBBBBBBBBBBBBBBBBNBBBBBBBBBBBBBBBBBBBBBBBBBBBBBBBBBBBBBBBBBB",
"BBBBBBBBBBBBBBBBBBBBBBNBBBBBBBBBBBBBBBBBBBBBBBBBBBBBBBBBBBBBBBBB",
"BBBBBBBBBBBBBBBBBBBBBBBNBBBBBBBBBBBBBBBBBBBBBBBBBBBBBBBBBBBBBBBB",
"BBBBBBBBBBBBBBBBBBBBBBBBNBBBBBBBBBBBBBBBBBBBBBBBBBBBBBBBBBBBBBBB",
"BBBBBBBBBBBBBBBBBBBBBBBBBNBBBBBBBBBBBBBBBBBBBBBBBBBBBBBBBBBBBBBB",
"BBBBBBBBBBBBBBBBBBBBBBBBBBNBBBBBBBBBBBBBBBBBBBBBBBBBBBBBBBBBBBBB",
"BBBBBBBBBBBBBBBBBBBBBBBBBBBNBBBBBBBBBBBBBBBBBBBBBBBBBBBBBBBBBBBB",
"BBBBBBBBBBBBBBBBBBBBBBBBBBBBNBBBBBBBBBBBBBBBBBBBBBBBBBBBBBBBBBBB",
"BBBBBBBBBBBBBBBBBBBBBBBBBBBBBNBBBBBBBBBBBBBBBBBBBBBBBBBBBBBBBBBB",
"BBBBBBBBBBBBBBBBBBBBBBBBBBBBBBNBBBBBBBBBBBBBBBBBBBBBBBBBBBBBBBBB",
"BBBBBBBBBBBBBBBBBBBBBBBBBBBBBBB.................................",
"BBBBBBBBBBBBBBBBBBBBBBBBBBBBBBB.                                ",
"BBBBBBBBBBBBBBBBBBBBBBBBBBBBBBB.                                ",
"BBBBBBBBBBBBBBBBBBBBBBBBBBBBBBB.  038-242+8r9255r2hgafye895a,25y",
"BBBBBBBBBBBBBBBBBBBBBBBBBBBBBBB.  =4>:>=@52ee-s5arrggi9va9esid9a",
"BBBBBBBBBBBBBBBBBBBBBBBBBBBBBBB.  3>6:3o+2--e95grysgljsgbarh595,",
"BBBBBBBBBBBBBBBBBBBBBBBBBBBBBBB.  w6O6365--re5y95elj8bkv95b45a9-",
"BBBBBBBBBBBBBBBBBBBBBBBBBBBBBBB.  3t4:::2-8$58zrv$lacjr2egga9aag",
"BBBBBBBBBBBBBBBBBBBBBBBBBBBBBBB.  3o&66>4-2-f8e5rhaa5rir2sr955e5",
"BBBBBBBBBBBBBBBBBBBBBBBBBBBBBBB.  ,:355=>41---4y-aiisf6ha48ira59",
"BBBBBBBBBBBBBBBBBBBBBBBBBBBBBBB.  r65&-&$-=r-r8f9ulswwsrria4r9hd",
"BBBBBBBBBBBBBBBBBBBBBBBBBBBBBBB.  :=8w=385-3e5aa9hfta6j09yqr5r97",
"BBBBBBBBBBBBBBBBBBBBBBBBBBBBBBB.  ::-233125>$49f5cfi9gwtjiay3f55",
"BBBBBBBBBBBBBBBBBBBBBBBBBBBBBBB.  O=:35-5>4451i52z5mjsix7wt67uu>",
"BBBBBBBBBBBBBBBBBBBBBBBBBBBBBBB.  q2>&3&25-25-%4err9wshj838,5a4,",
"BBBBBBBBBBBBBBBBBBBBBBBBBBBBBBB.  :wq>21>=255y919rsfwttp>t>4q659",
"BBBBBBBBBBBBBBBBBBBBBBBBBBBBBBB.  0:0::3>-e5425i5r9ccstq3,,s2w85",
"BBBBBBBBBBBBBBBBBBBBBBBBBBBBBBB.  >t84::%r=3>8rtarihhh8b996577fw",
"BBBBBBBBBBBBBBBBBBBBBBBBBBBBBBB.  :3X6,3:184e5jrfghzlli555gwtsrw",
"BBBBBBBBBBBBBBBBBBBBBBBBBBBBBBB.  6>9*>8f1299w59rfc8fzlrry85>t0t",
"BBBBBBBBBBBBBBBBBBBBBBBBBBBBBBB.  6>::e:3855ybrn=lylgsjy5ry8t6ht",
"BBBBBBBBBBBBBBBBBBBBBBBBBBBBBBB.  783%:,w-w4-a8szear8i9dt>typ0tq",
"BBBBBBBBBBBBBBBBBBBBBBBBBBBBBBB.  =p:x038e%q-5r5adalyrryw48hqpqw",
"BBBBBBBBBBBBBBBBBBBBBBBBBBBBBBB.  ;<><5wu3&:s2d8hbirsdsr63,36tw>",
"BBBBBBBBBBBBBBBBBBBBBBBBBBBBBBB.  382>8236792ss6hzla8re5403,qq;3",
"BBBBBBBBBBBBBBBBBBBBBBBBBBBBBBB.  w:*2:6:r3,sq98ss6>g28wht3h3t;7",
"BBBBBBBBBBBBBBBBBBBBBBBBBBBBBBB.  :&63&216<q738we3g9sx:fsw668>:6",
"BBBBBBBBBBBBBBBBBBBBBBBBBBBBBBB.  3=;e>&306*5=552a75ife2h>q62*>>",
"BBBBBBBBBBBBBBBBBBBBBBBBBBBBBBB.  6:#>;+=6686-86agrNf8jr5336>8qq",
"BBBBBBBBBBBBBBBBBBBBBBBBBBBBBBB.  64qq>4225q,1w6srnMw>tsr,w>;it3",
"BBBBBBBBBBBBBBBBBBBBBBBBBBBBBBB.  3,,>q:466r8wifqfjfh09f6fuf6tq8",
"BBBBBBBBBBBBBBBBBBBBBBBBBBBBBBB.  ,>3O,:r686l986mcstxh>f3>r886q6",
"BBBBBBBBBBBBBBBBBBBBBBBBBBBBBBB.  0>6:>r66*zwrtse,mgfkfr>25q60w6"
};
