/* XPM */
static char *_4b27ac8b4dc41ccba3bacf04c6faf445JL3drHitRBTYtpf[] = {
/* columns rows colors chars-per-pixel */
"64 64 129 2 ",
"   c black",
".  c #0C6624",
"X  c #455A64",
"o  c gray38",
"O  c gray50",
"+  c #880015",
"@  c #DD2C00",
"#  c #ED1C24",
"$  c #FF7F27",
"%  c #B97A57",
"&  c #22B14C",
"*  c #FFF200",
"=  c #720899",
"-  c #3F48CC",
";  c #CD55CF",
":  c #78909C",
">  c #00A2E8",
",  c #5487FF",
"<  c #978986",
"1  c #96918F",
"2  c #9C948D",
"3  c #9E9792",
"4  c #9D9995",
"5  c #A1948C",
"6  c #A2998F",
"7  c #A29790",
"8  c #A89791",
"9  c #A49B94",
"0  c #A99D95",
"q  c #A49E9A",
"w  c #AA9E99",
"e  c #B09F98",
"r  c #ACA097",
"t  c #A6A19D",
"y  c #ACA39C",
"u  c #B1A59D",
"i  c #B4A99E",
"p  c #A2A1A1",
"a  c #ACA6A2",
"s  c #ADA9A5",
"d  c #AEABA9",
"f  c #B2A6A2",
"g  c #B8A7A3",
"h  c #B3ABA4",
"j  c #B9ADA5",
"k  c #B3AEAA",
"l  c #B9AEAA",
"z  c #B7B0A7",
"x  c #BCB1A7",
"c  c #B5B1AD",
"v  c #BBB3AC",
"b  c #BEB5AD",
"n  c #BDB6AF",
"m  c #BFB6AE",
"M  c #B5B2B0",
"N  c #B4B3B1",
"B  c #B6B3B2",
"V  c #B6B5B3",
"C  c #B8B3B0",
"Z  c #B9B5B1",
"A  c #B9B5B2",
"S  c #BBB5B2",
"D  c #BEB4B0",
"F  c #BDB7B3",
"G  c #BBB7B5",
"H  c #BBB8B7",
"J  c #BCB8B5",
"K  c #BDB9B5",
"L  c #BFB9B5",
"P  c #BBBAB9",
"I  c #BFBBB8",
"U  c #BDBCBB",
"Y  c #BFBCBA",
"T  c #DBA88C",
"R  c #C0B1A7",
"E  c #C5B7AB",
"W  c #C0B5AD",
"Q  c #C0B5AF",
"!  c #C1B6AF",
"~  c #C4B7AF",
"^  c #C5B9AE",
"/  c #C5B8AF",
"(  c #C2B7B0",
")  c #C2B6B2",
"_  c #C1BBB5",
"`  c #C3BAB4",
"'  c #C3BBB4",
"]  c #C0B8B7",
"[  c #C4BBB5",
"{  c #C6BAB5",
"}  c #CABCB5",
"|  c #CABDB5",
" . c #C0BDB9",
".. c #C0BDBB",
"X. c #C3BDBA",
"o. c #C1BEBB",
"O. c #C5BFB9",
"+. c #C0BEBD",
"@. c #C9BDB9",
"#. c #C4C0BC",
"$. c #C5C1BE",
"%. c #C7C2BE",
"&. c #CBC2B9",
"*. c #CAC2BB",
"=. c #CBC2BD",
"-. c #CBC3BF",
";. c #D2C4BD",
":. c #D5C9BF",
">. c #C3C3C3",
",. c #C5C2C0",
"<. c #C6C2C0",
"1. c #C7C5C4",
"2. c #CAC5C2",
"3. c #CFC7C2",
"4. c #CDC8C5",
"5. c #CFC9C6",
"6. c #CCCCCC",
"7. c #D2C8C2",
"8. c #D1CAC5",
"9. c #D0CAC6",
"0. c #D3CDCA",
"q. c #D6D1CE",
"w. c #DBD1CB",
"e. c #DED2CB",
"r. c #D6D5D5",
"t. c #DAD5D1",
"y. c gray88",
"u. c gray96",
"i. c white",
/* pixels */
"A i v v 9 b Y a c k u h x 9 2 r v r v y t t i d t t t t r i 4 ` b ' o.F F A I k b t.k h t ' Y f 2.7.F ` h i q a k t 9 h 0 9 s t ",
"y l t r f 9 t y a h b N h y A a r y u d r c t p y c t r s c h y P b j ' W +.h k l s e._ v w.h y 7.! q f t y u y y r 4 t r c r p ",
"y t r 4 q t k y t v J ` k y y y c y A h c y c 4 y s 3 s a c &.r c ` Y ' 8.F N F ' b %.u b h r.( ( l f ( i r t 9 7 r 0 t p 9 b 9 ",
"9 9 0 r t a 9 b r V y J z E h k t 9 c c y d a h y r t u 7 y v &.=.%.3.' l I F w y &.i F o.A =.y y h l N s 9 f a A y ` t r 3 a P ",
"a V r ` t r 3 a J J j J c i h a k f t a z c y k u t d y d 4 t z l %.2.8.` l u A k W z l J b c c G h 9 h s a k c q a 2 a t c p c ",
"c q s 2 y t c t c k x n j W k ` t a q 6 Y r h t t t u z y s u s A | h v g c x ` =.' o.y b b o.F 0 u A y Y N 0 c A c c y u f c h ",
"c A v k y f h c f _ A b A d y d r z u j c Y r y k r y t y t c r k i | A x ` x k b %.#.x k z V k c h a x s v ` j =.l 4.A J c y c ",
"l &.l 3.A I c t c z h z b F b h 2 b 1 z f 7 h b y t a t J c s s b f x ' b &.c a z F #.c o.y x i V k c a h t j _ -.E ` ` x z x a ",
"' -.^ ' ' x h x s [ ` y =.Y W s z s b a a 6 c ` 7 q k z ` :.c 2.G <.N f W %.7.J z c F b c x c k Y z c s u h a b f h ' @.k ' b v ",
"v s h _ &.c ' F v s k k %.s F W z J c u t 9 f a 9 a f c t c h k V b q.=.z I V c Y %.[ x x c j j A n z r h F k c y %.k F ' v f Y ",
"l a _ d F ' b f o.b z 6.%.b a y &.v h 7.u c i N h s f k r F i b 0.z 2.b b a y q.n z v h z x j &.c x 9 s x y k h %.y ' 2.c o.' o.",
"h <.y ' 2.k J | Y z &.z ( z &.N f ' 2.h c s a t b j 1.y v ` o.c 2.A v z y z #.b c f Y b c n J y z i _ E y W s b a V J c J b A b ",
"v a V _ c J ! A b v z V c o.A c | s u f s h 9 d t t r U l a c y l 3.t b z W I %.z ` V k z b J c c Y b 9 b z r f k ' x ' W n ' b ",
"h h +.b _ b A ' n x c f V c P f c h s               r f f O.j h k z ` h 0.k x %.c _ c &.t z A b y c y s j r c V v ' ' k a n k k ",
"N c ' ' z a b k x z n Y k 9 z u A J   O O O O O O %   r k v a &.s s [ F %.b &.J V #.8.t S b h z v a A a f A z c y f f k k q z k ",
"c u f f f k q b h H j y i t s n a   O O O o o o X o :   W s y 8.j i F W c ' U b c J %.y %.V k z c n z c i a k y u y d 9 q 9 r c ",
"y u y k 9 q q q z k z J b k n r r     O O O O O : %     s H +.y r A y s b a A >.v z o.y f n &.#.F y y a a f y h a h l 5 9 k q a ",
"h s s l 5 0 h 9 a ` k b z r d s f   p               p   I q w q u _ z &.v v %.I W k A z i h k c c y s h t t t q 5 y V y c f s r ",
"q 5 y c f N f a r k a i b c d s u   p p p p p p p p p   a a 9 o.z c c b 4.` y h { y z k z 0 t b k k r s a u 9 a a l p 0 y 9 q k ",
"a u l a 0 y 9 p c s i z s a t s c   p p p p p p p p o   9 q u F s k a J z u W 2.u c r l h c 4 J r y r t t 6 9 A t r k q 6 a h a ",
"h k t 9 f 0 9 a t f s s h A x h f   p p p o o o o o p   7 k y k y n r d b t u A 9 V r s h n y i d y t 9 t a d h A c y t f a q t ",
"y t r q t t z y t k s h k f u 2 f   p p p p p p p p o   y t b r W c y c [ z I h i i t u 9 i t f y a i c y 9 c s h h y a z k J h ",
"9 9 9 r r t q W 9 a i d h c p       p p p o o o o o p         f k r z #.y z c i y 9 6 z r a a c s y z a a A t h ^ J _ #.H z k i ",
"a A r [ t t 3 a J y i F a F   * * *   p p p p p p p   @ - - -   N z k k k J b z y z c d d z z s k 2 a a y y f ! c [ d F c =.%.k ",
"N q s 2 a 9 l t c u A y r   * * * * *               @ , , , , -   l c k | k c j r d z a 9 c h u c f y d 9 J h r c y s b a c h z ",
"v A v k a s s l f d y r b   * * * * * * @ @ @ @ @ @ , , , , , -   h J h c r k 6 y c 7.f h a f a t h 9 b a y y J h f k v i z c a ",
"l =.k 8.n ` c r c s y s q   * * * * * $ $ $ $ $ $ , , , , , , -   s c z z a y d k k a 9 h 6 u c d V t t t s H 0 h ^ s x s h y y ",
"/ =.' W ' z k x s f r c q   * * * * $ $ $ $ $ $ , , , , , , , =   z r l v z h b a y 0 W 9 k h 9 y y u k a a y q y c y z f _ J a ",
"v f h ' O.k _ F v y A 0 r   * * * $ $ $ $ $ $ , , , , , , , ; =   P ` ( h z z v h c r a z h t y h u 2 f 9 k k k 1.f i b _ J 0 u ",
"k u #.d ' { b h Y i y u y   * * $ $ $ $ $ $ , , , , , , , ; ; =   ' k y t b h k k i F k y f y r f 2 s a a a y 0 z k h u r t y h ",
"k %.y J 2.k J ' Y N d c F   * $ $ $ $ $ $ , , , , , , , ; ; ; =   c y k j @.a v d A 7 h f 9 5 y n 3 r a f u h p a y y u d 9 t s ",
"F y V ` l J [ A V y h y z   $ $ $ $ $ $ , , , , , , , ; ; ; ; =   a ( x c 9 y s a c t y t a r 3 l z 4 t r s s h 9 3 r r i d q 9 ",
"f h o.b ' W A [ b 9 w r 4   $ $ $ $ $ , , , , , , , ; ; ; ; ; =   [ a l w.( l d x d f y s c c r A y 2 9 9 b J u k 0 c s 4 h 4 s ",
"N c ' [ k a b k l l u f i   $ $ $ $ , , , , , , , ; ; ; ; ; ; .   y s h 2.( [ U f U y h r a a ( N r a w h k y j g a k 9 A y l 9 ",
"v y a i f f q b h r 9 j f   $ $ $ , , , , , , , ; ; ; ; ; ; & .   s l w O.8.u c s a y y t t t 9 q k h w a c #.k y a a l 9 9 q q ",
"y u y k 9 t q y l u ` k a   $ $ , , , , , , , ; ; ; ; ; ; & & .   q s f a a s c s d s b t a r b y f 9 @.v 9 k a j 9 r 2 9 6 k y ",
"h h f c 5 r h 9 a r a s w   $ , , , , , , , ; ; ; ; ; ; & & & .   k q a h k t y y 9 f h a h u v O.v h h %.;.%.J c %.f v a c t 6 ",
"t 2 y c f N a s y f 1.6 y   , , , , , , , ; ; ; ; ; ; & & & & .   h q q f a t a a z c u s s h h a =.+.[ 9 d 9 J s J 6 a a y r t ",
"a f c a r y 4 t l f c w A   , , , , , , ; ; ; ; ; ; & & & & & .   h G a h d a k r c u f c a c a J f y k k y i y A 0 k c o.c y a ",
"A q q d 9 7 a h y F f i q   , , , , , ; ; ; ; ; ; & & & & & & .   a f a N v t s c t p a ` d h j A V b s f A F 7.V c V 9 a y ` c ",
"f v k a q a a q s R k C s   , , , , ; ; ; ; ; ; & & & & & & & +   4.l @.+.@.f h a p C f J k F k y a b y F c J y 9 b c k a y k a ",
"h h j t f l k J k s l y k   , , , ; ; ; ; ; ; & & & & & & & # +   h +.k U h 2.g 8 k k l k F G a i s c h c v k b A f y u a k c t ",
"w k h f f l i s g 8 w l f   , , ; ; ; ; ; ; & & & & & & & # # +   ( l a O.l k f k h f                 h A a y c c k y t h u a t ",
"2.h F l k 0 l u l q N d f   , ; ; ; ; ; ; & &     &       # # +   K g ` k ] 1.l k     p p p p p p p p     f c N a 9 r z t n r u ",
"( <.h a s g g O.f ] w e P   ; ; ; ; ; ; & &     & & & #   # # +   A a a g a v )   p p > > > > > > > > p p   f a u a s w V d 9 a ",
"N l C a w q f N ] f f H 4.  ; ; ; ; ; & &     & & & #   # # # +   f l F N S k   p > > > > > > > > > > > > p   y l k d k s c 9 t ",
"..k W l N w h l ` [ F k F   ; ; ; ; & &           #   # # # # %   h w p l a f     > > > > > > > > > > > >     A F u F ( f l b H ",
"( g <.g g f v N l f a [ 0.  ; ; ; & & &           #       # T %   k k w k l C   i.    > > > > > > > >     U   O.( @.Y q b o.#.k ",
"M 0.N ] ( f M ] @.@.] 1.w   ; ; & & & & & & &     # # # # T T %   <.N f l ` l   i.h i.                y.U +.  +.] F H @.<.1.>.( ",
"u 6.+.S @.[ a ] 1.1.@.l @.  ; & & & & & & & #     # # # T T T %   N +.( s F h   i.i.y i.i.i.i.i.u.y.y.y.U U   >.R F ] @.<.@.@.g ",
"0.] 7.8.F g >.g >.) ) { U   & & & & & & & # # # # # # T T T T %   +.] f N f h   i.i.i.i.i.i.i.i.u.y.y.y.+.U   O.l @.l @.v @.+.6.",
"@.I @.e.r.f l f ) ) <.C 1.  & & & & & & # # # # # # T T T T T %   O @.v l f l   i.i.i.i.i.i.i.i.u.y.y.y.+.Y   k ] <.H ;.] <.H <.",
"@.5.@.l +.( ) @.g X.+.N @.  & & & & & # # # # # # T T T T T T X   O R l ) A @.  i.i.i.i.i.i.i.i.u.y.y.y.U U   N P P S @.@.+.] l ",
"@.<.) w d @.>.g Q ] S ( ]   & & & & # # # # # # T T T T T T : X   O O 2.' ] g   G i.i.i.i.i.i.i.u.y.y.y.+.U   : : % p @.>.@.g ] ",
"@.s l ] <.C q k N <.p O O   & & & # # # # # # T T T T T T : : X   O O O O F l   i.i.i.i.i.i.i.i.u.y.y.y.U +.  % O O p p >.g @.l ",
"C @...] K a [ S f C >.p O O   & # # # # # # T T T T T T : : :   O O O p p p O O   i.i.i.i.i.i.i.u.y.y.y.U   : 9 p 4 >.>.>.>.k w ",
"w s k F f +.] =.k g C >.p O O     # # # # T T T T T T : :     O O O p p p p p O O     s i.i.i.i.i.y.y.    O O p p U a 4 >.s k s ",
"f u I u h a v F l d h a >.p O O O                         O O O p p p >.>.>.p p O O O                 O O O p p >.d s 7 l p w a ",
"f S l b s A g a s f l S K >.p O O O O O O O O O O O O O O O p p p >.>.>.>.>.>.p p p p O O O O O O O O O O p p >.d p p q 3 k a d ",
"N h ` y g f k +.f a I ..k >.p p p p p p O O O O O O O p p p p p >.>.>.>.>.>.>.>.>.p p p p p p p p p p p >.>.>.k N d f f p d < d ",
"l k f w a a k h c h l ' U a >.>.>.p p p p p p p p p p p p p p >.<.Q F S g q 9 9 p >.>.>.>.>.>.>.>.>.>.>.>.>.k f q a q C s B 1 q ",
"l g F v l 0 y ] v F [ R h H ] >.>.<.>.>.>.>.>.>.>.>.>.>.>.<.>.>.k l y l 2.( w F F ;.w y 3.( p a l h w s D K w f a B B q w 3 a 9 ",
"v k N ] c y y 0 q v c ( O.l F ..h f s j f N =.u S P k h j f a w a w g ] w ( [ 8 Q l q.S ( N h >.( q w 3 l w a w a d a 7 l a s q ",
"k h k f k y f l f a c c F J W l f v u a f g ] R s O.e u ( @.@.u l C 2 @.v v ] F @.S =.h y l l k k a f k p p w a d g f f w s a 4 "
};
