/* XPM */
static char *result[] = {
/* columns rows colors chars-per-pixel */
"64 64 217 2 ",
"   c black",
".  c #4B4545",
"X  c #9A450B",
"o  c #9C490D",
"O  c #9E4812",
"+  c #9F5317",
"@  c #9A5319",
"#  c #A1440C",
"$  c #A8470E",
"%  c #A54B0C",
"&  c #A94E0D",
"*  c #A6530E",
"=  c #B2590F",
"-  c #A54C14",
";  c #A74C16",
":  c #AB4C12",
">  c #A75416",
",  c #AC5314",
"<  c #AB5B16",
"1  c #AD541B",
"2  c #A65819",
"3  c #AE5C1A",
"4  c #B15614",
"5  c #B35C15",
"6  c #BA5E16",
"7  c #B2561C",
"8  c #B45C1A",
"9  c #B95E1C",
"0  c #B56115",
"q  c #BA6416",
"w  c #B6621C",
"e  c #BB641C",
"r  c #BC691C",
"t  c #8D4826",
"y  c #964C26",
"u  c #934E2B",
"i  c #975227",
"p  c #9C5527",
"a  c #9C552B",
"s  c #9C5B2D",
"d  c #864B37",
"f  c #8C5138",
"g  c #965336",
"h  c #9C5831",
"j  c #92553A",
"k  c #9A553A",
"l  c #96583B",
"z  c #9C5C3C",
"x  c #A15426",
"c  c #AB5724",
"v  c #A25529",
"b  c #A45C2B",
"n  c #A95C2B",
"m  c #B35C23",
"M  c #B65B26",
"N  c #A35D37",
"B  c #9F643D",
"V  c #A6622C",
"C  c #AA662B",
"Z  c #AB632D",
"A  c #B36323",
"S  c #BB6522",
"D  c #B56A24",
"F  c #BD6B23",
"G  c #B1642D",
"H  c #B5672D",
"J  c #BA6A2C",
"K  c #BE7124",
"L  c #BE742B",
"P  c #A26334",
"I  c #AC6432",
"U  c #AC6A33",
"Y  c #A4663F",
"T  c #A7693C",
"R  c #AB6A3D",
"E  c #B16531",
"W  c #B36C34",
"Q  c #B86C3A",
"!  c #AE753D",
"~  c #B37235",
"^  c #B97436",
"/  c #B3743B",
"(  c #BC753C",
")  c #B5783B",
"_  c #BC7A3B",
"`  c #C2651E",
"'  c #C26B1D",
"]  c #C3711E",
"[  c #C36C23",
"{  c #C76A24",
"}  c #C06B2A",
"|  c #C47325",
" . c #C97425",
".. c #C47825",
"X. c #CA7926",
"o. c #C4732B",
"O. c #CB752B",
"+. c #C6792E",
"@. c #CB7B2D",
"#. c #D07C2E",
"$. c #C16F33",
"%. c #C37134",
"&. c #C67D34",
"*. c #CD7D32",
"=. c #C17C3D",
"-. c #CD7C3C",
";. c #D37E33",
":. c #D57E38",
">. c #A56A41",
",. c #AA6D42",
"<. c #B36F42",
"1. c #AD7344",
"2. c #AE7A48",
"3. c #B37444",
"4. c #B77647",
"5. c #BB7A43",
"6. c #B47B4C",
"7. c #B97C4A",
"8. c #C47E42",
"9. c #BE863C",
"0. c #D0822F",
"q. c #CC8335",
"w. c #C98536",
"e. c #CD8439",
"r. c #CD893B",
"t. c #D28334",
"y. c #D88133",
"u. c #D78837",
"i. c #D4853B",
"p. c #D9863B",
"a. c #D58B3C",
"s. c #DA8C3D",
"d. c #D9923D",
"f. c #BC804A",
"g. c #B68754",
"h. c #BB8B54",
"j. c #BA8E5B",
"k. c #BA925E",
"l. c #BD9663",
"z. c #CD8D43",
"x. c #C38548",
"c. c #D58E43",
"v. c #DB8C43",
"b. c #D88A44",
"n. c #D59243",
"m. c #DA9344",
"M. c #D99946",
"N. c #D19048",
"B. c #D99649",
"V. c #D5994D",
"C. c #DD9B4B",
"Z. c #C38853",
"A. c #C2955D",
"S. c #D99951",
"D. c #E29545",
"F. c #E2954B",
"G. c #E39B4C",
"H. c #E49A53",
"J. c #EA9D56",
"K. c #DEA455",
"L. c #E1A34F",
"P. c #E3A353",
"I. c #C39B65",
"U. c #C69865",
"Y. c #CB9E66",
"T. c #CCA369",
"R. c #CBA371",
"E. c #8F8680",
"W. c #99908D",
"Q. c #9E9592",
"!. c #9F9A98",
"~. c #A1948B",
"^. c #A39692",
"/. c #A49A94",
"(. c #AA9C96",
"). c #A59D9A",
"_. c #AA9E9A",
"`. c #ACA096",
"'. c #A5A09E",
"]. c #ACA29D",
"[. c #B1A59D",
"{. c #B8A89F",
"}. c #A7A4A2",
"|. c #ACA5A2",
" X c #AEA9A5",
".X c #ADABA9",
"XX c #B2A6A2",
"oX c #B4AAA4",
"OX c #BAABA4",
"+X c #B3ADAA",
"@X c #BAAEAA",
"#X c #BEB0A7",
"$X c #B5B1AD",
"%X c #BCB2AD",
"&X c #B5B3B2",
"*X c #BCB5B2",
"=X c #BDB9B6",
"-X c #BEBBBA",
";X c #C2B5AB",
":X c #C1B3AD",
">X c #C2B6B2",
",X c #C3B9B5",
"<X c #C9BBB5",
"1X c #C4BDBB",
"2X c #CABDBA",
"3X c #C5C0BE",
"4X c #CBC2BE",
"5X c #D7C4BF",
"6X c #C5C4C3",
"7X c #CBC5C2",
"8X c #CCC8C6",
"9X c #CECCCB",
"0X c #D2C7C4",
"qX c #D2CDCB",
"wX c #DAD2CF",
"eX c #D6D6D6",
"rX c white",
/* pixels */
"rXrXrXrXrXrXrXrXrXrXrXrXrXrXrXrXrXrXrXrXrXrXrXrXrXrXrXrXrXrXrXrXrXrXrXrXrXrXrXrXrXrXrXrXrXrXrXrXrXrXrXrXrXrXrXrXrXrXrXrXrXrXrXrX",
"rXrXrXrXrXrXrXrXrXrXrXrXrXrXrXrXrXrXrXrXrXrXrXrXrXrXrXrXrXrXrXrXrXrXrXrXrXrXrXrXrXrXrXrXrXrXrXrXrXrXrXrXrXrXrXrXrXrXrXrXrXrXrXeX",
"rXrXrXrXrXrXrXrXrXrXrXrXrXrXrXrXrXrXrXrXrXrXrXrXrXrXrXrXrXrXrXrXrXrXrXrXrXrXrXrXrXrXrXrXrXrXrXrXrXrXrXrXrXrXrXrXrXrXrXrXrXrXeXrX",
"rXrXrXrXrXrXrXrXrXrXrXrXrXrXrXrXrXrXrXrXrXrXrXrXrXrXrXrXrXrXrXrXrXrXrXrXrXrXrXrXrXrXrXrXrXrXrXrXrXrXrXrXrXrXrXrXrXrXrXrXrXeXrXrX",
"rXrXrXrXrXrXrXrXrXrXrXrXrXrXrXrXrXrXrXrXrXrXrXrXrXrXrXrXrXrXrXrXrXrXrXrXrXrXrXrXrXrXrXrXrXrXrXrXrXrXrXrXrXrXrXrXrXrXrXrXeXrXrXrX",
"rXrXrXrXrXrXrXrXrXrXrXrXrXrXrXrXrXrXrXrXrXrXrXrXrXrXrXrXrXrXrXrXrXrXrXrXrXrXrXrXrXrXrXrXrXrXrXrXrXrXrXrXrXrXrXrXrXrXrXeXrXrXrXrX",
"rXrXrXrXrXrXrXrXrXrXrXrXrXrXrXrXrXrXrXrXrXrXrXrXrXrXrXrXrXrXrXrXrXrXrXrXrXrXrXrXrXrXrXrXrXrXrXrXrXrXrXrXrXrXrXrXrXrXeXrXrXrXrXrX",
"rXrXrXrXrXrXrXrXrXrXrXrXrXrXrXrXrXrXrXrXrXrXrXrXrXrXrXrXrXrXrXrXrXrXrXrXrXrXrXrXrXrXrXrXrXrXrXrXrXrXrXrXrXrXrXrXrXeXrXrXrXrXrXrX",
"rXrXrXrXrXrXrXrXrXrXrXrXrXrXrXrXrXrXrXrXrXrXrXrXrXrXrXrXrXrXrXrXrXrXrXrXrXrXrXrXrXrXrXrXrXrXrXrXrXrXrXrXrXrXrXrXeXrXrXrXrXrXrXrX",
"rXrXrXrXrXrXrXrXrXrXrXrXrXrXrXrXrXrXrXrXrXrXrXrXrXrXrXrXrXrXrXrXrXrXrXrXrXrXrXrXrXrXrXrXrXrXrXrXrXrXrXrXrXrXrXeXrXrXrXrXrXrXrXrX",
"rXrXrXrXrXrXrXrXrXrXrXrXrXrXrXrXrXrXrXrXrXrXrXrXrXrXrXrXrXrXrXrXrXrXrXrXrXrXrXrXrXrXrXrXrXrXrXrXrXrXrXrXrXrXeXrXrXrXrXrXrXrXrXrX",
"rXrXrXrXrXrXrXrXrXrXrXrXrXrXrXrXrXrXrXrXrXrXrXrXrXrXrXrXrXrXrXrXrXrXrXrXrXrXrXrXrXrXrXrXrXrXrXrXrXrXrXrXrXeXrXrXrXrXrXrXrXrXrXrX",
"rXrXrXrXrXrXrXrXrXrXrXrXrXrXrXrXrXrXrXrXrXrXrXrXrXrXrXrXrXrXrXrXrXrXrXrXrXrXrXrXrXrXrXrXrXrXrXrXrXrXrXrXeXrXrXrXrXrXrXrXrXrXrXrX",
"rXrXrXrXrXrXrXrXrXrXrXrXrXrXrXrXrXrXrXrXrXrXrXrXrXrXrXrXrXrXrXrXrXrXrXrXrXrXrXrXrXrXrXrXrXrXrXrXrXrXrXeXrXrXrXrXrXrXrXrXrXrXrXrX",
"rXrXrXrXrXrXrXrXrXrXrXrXrXrXrXrXrXrXrXrXrXrXrXrXrXrXrXrXrXrXrXrXrXrXrXrXrXrXrXrXrXrXrXrXrXrXrXrXrXrXeXrXrXrXrXrXrXrXrXrXrXrXrXrX",
"rXrXrXrXrXrXrXrXrXrXrXrXrXrXrXrXrXrXrXrXrXrXrXrXrXrXrXrXrXrXrXrXrXrXrXrXrXrXrXrXrXrXrXrXrXrXrXrXrXeXrXrXrXrXrXrXrXrXrXrXrXrXrXrX",
"E.E.E.E.E.E.E.E.k.E.E.E.E.E.E.E.E.E.E.E.E.E.E.E.k.E.E.E.E.E.E.E.E.E.E.E.E.k.E.E.E.E.E.k.E.E.E.E.E.rXrXrXrXrXrXrXrXrXrXrXrXrXrXrX",
"a v v v I h t u t t B B 5.P I I 3.s I R v v n W W Q z 1.) ) _ ^ C V V I f U h.5.f.2.f P U / Q / E.rXrXrXrXrXrXrXrXrXrXrXrXrXrXrX",
"n y M n N v t g u t b b / E y E N u <.E x n E E W 5.E E 8.w.5._ / ~ ~ ~ 2.! Z.) ! f.s B U s b b E.rXrXrXrXrXrXrXrXrXrXrXrXrXrXrX",
"n v v E t b t u i i p b ~ I x Z b b Q E x n E E Q %.n E ( ) ~ 8.5.U ~ U 5.! x.f.U 9.p s ~ W I Z E.rXrXrXrXrXrXrXrXrXrXrXrXrXrXrX",
"U W Z E n Q b E U W C Z Z n n p c x x n Z W Z W ^ ^ W =.z.9.~ I I n v x V V C Z p x b b V x p b E.rXrXrXrXrXrXrXrXrXrXrXrXrXrXrX",
"! U s I a n p U U U b x b V n b b Z x Z b W W C ^ x.^ ^ _ ) _ ( W W G G I I V C Z b n b V Z I b E.rXrXrXrXrXrXrXrXrXrXrXrXrXrXrX",
"&.D D F A o.F L F F 5 e ' r r ..' ' ' r e F @.| ;.i...t.u.t.u.a.[ F 0 0 e w 8 F r 9 [ b b b b b E.rXrXrXrXrXrXrXrXrXrXrXrXrXrXrX",
"w.L q.+.K o.| | K r w r ' r ' ] = ' ' ....e *.o.;.v.q.@.u.s.p.i.|  .X.] ' F A [ o.F } Z V b b b E.rXrXrXrXrXrXrXrXrXrXrXrXrXrXrX",
"L b.&.+.K r F F [ [ e e [ [  .' ' 9  .` O.:.:.o.i.v.*.t.q.@.t.t.r e e e q e 9 S S w w b Z V Z b E.rXrXrXrXrXrXrXrXrXrXrXrXrXrXrX",
"2 J > > o % 9 , 8 7 4 5 , 5 = % 4 = % & S  . .[ i.v.O.q.0.u.@.m.0 5 e 9 5 q S F 3 , < p b b b b E.rXrXrXrXrXrXrXrXrXrXrXrXrXrXrX",
"1 , c 1 ; - # # & , , X X * , 4 & & , % 8 [ | K q.u...s.| u.t.q.w 5 , , e w w S F [ [ Z Z b Z Z E.rXrXrXrXrXrXrXrXrXrXrXrXrXrXrX",
"D A A 8 > 7 ; $ , 5 , + X % w 6 4 9 6 = q ' | | t.s.| | ..| 0.o.F r w e r r o.' S [ 9 n b b n C E.rXrXrXrXrXrXrXrXrXrXrXrXrXrXrX",
"                                                                          J e 5 e m 4 v v b i y E.rXrXrXrXrXrXrXrXrXrXrXrXrXrXrX",
"1 , M M 1 7 9 M 7 1 X - M M X ,   4 : : S [ q.q.q.u.| v.t.s.s.&.w A 8     S 4 S 9 , S E I I V U E.rXrXrXrXrXrXrXrXrXrXrXrXrXrXrX",
"c A c 1 7 1 1 1 O 1 - 8 $ # ,   , $ $ , e [ O.@.t.u.+.b.@.t.@.o.F }   S   m S [ | o.o.E W W I U E.rXrXrXrXrXrXrXrXrXrXrXrXrXrXrX",
"Q A c - M %.-.%.$.J %.[ w [   9 9 : : 5 e | [ K @.*.F o.K q.+.L o.  o.O.  O.} +.a.v.q.a b b i s E.rXrXrXrXrXrXrXrXrXrXrXrXrXrXrX",
"_ C Z m S K n.w.r.L L o.F   @.[ w q ' r w q r e ] ` ' K r ] X.+.  S A [   b.a.w.B.K.V.f j j f f E.rXrXrXrXrXrXrXrXrXrXrXrXrXrXrX",
"&.H G A S w.M.w.e.e.&.w.  @.@.}  .X.] X.y.....| X.] ] u.X.#. .  [ O.F O.  i.m.a.C.K.N.f f f f z E.rXrXrXrXrXrXrXrXrXrXrXrXrXrXrX",
". . . . . . . . . . . . . . . . . . . . . . . . . . . . . . . h + A F o.  +.i.b.F.P.V.j f j j f E.rXrXrXrXrXrXrXrXrXrXrXrXrXrXrX",
"].].].+X).!.!.].+X[.>X+X|.XX X=X].%X|.).'.).oX(.^.<XoX]..X X. 3 r A @ +.  o.i.a.C.P.S.z j l l j E.rXrXrXrXrXrXrXrXrXrXrXrXrXrXrX",
"oX XoX$X~.`..X'.|.].].|._.@XW..X#X+X X)._.+XXX X^.oXQ.oX|.oX. F A 2 2 |   +.c.n.M.K.V.j f j l j E.rXrXrXrXrXrXrXrXrXrXrXrXrXrXrX",
"'.~.].$X[.&X[.}.].[.8X/._._.XX.X'.|./.XX|.*X/.{.{.'.OX'.|.).. w 3 < S @.  e.M.a.M.P.M.,.Y B T >.E.rXrXrXrXrXrXrXrXrXrXrXrXrXrXrX",
"].[.$X}.`.`.Q.'.$XoX#X).*X}.XX_.|.|. X X|.'.]. X X).|.|.].|.. 3 < 2 F D   n.B.a.a.n.r.1.7.3.,.>.E.rXrXrXrXrXrXrXrXrXrXrXrXrXrXrX",
"*X'.'. X`.Q. XoX].%X+X[._..XXX}.|.|./.(.|. X/.).].}.+X~.)..X. @ A @ *.@.  n.c.e.n.B.n.>.1.Y B >.E.rXrXrXrXrXrXrXrXrXrXrXrXrXrXrX",
"oX%X&X].'. X|.].|.:XXX*X.X,X'.!._.|.}.XX}.+X^.]. X|.XX^.).].. > > 2 | @.  m.n.z.B.B.a.>.1.2.6.6.E.rXrXrXrXrXrXrXrXrXrXrXrXrXrXrX",
" XoXOX'.|.OXoX*X+XXX&X_.+X}.|.*X_.).XX].XXXX)..X].|.).}. X!.. 3 2 F O.o.  v.C.B.C.G.a.Y T ,.<.,.E.rXrXrXrXrXrXrXrXrXrXrXrXrXrXrX",
"`.+XoX[.{.+XoX X@X^._.@X].|.+X).*X}._.XX]._.).}._.+X).|.|.+X. m w 8 @.|   n.G.M.M.m.&.T 1.1.,.,.E.rXrXrXrXrXrXrXrXrXrXrXrXrXrXrX",
"7XoX*X$X$X(.$X].@X).@X.XXX:X X X|.XX X X_.+X*X_._.(.*X_.+X*X. S A F ..`   d.m.m.d.m.r.1.j.T.k.k.E.rXrXrXrXrXrXrXrXrXrXrXrXrXrXrX",
"%X7X.X[.|.oXOX>X|.-X^._.-X@X&X_..XXXXXXXQ.*X_._.1XXX&X+X&X+X. w 3 w { {   c.F.s.d.P.n.f.g.h.k.k.E.rXrXrXrXrXrXrXrXrXrXrXrXrXrXrX",
"*X%X$X|.].). X$X<XXX@X>X8X>XXX@XXX-X).}..XXX*X_.+X+X+X@X[.|.. 8 < + ` 6   s.v.a.G.L.V.h.h.g.A.Y.E.rXrXrXrXrXrXrXrXrXrXrXrXrXrXrX",
",X+X:X@X+XXX+X@X*X2X>X.X&XXX2X*XXX&X_.:X:X>X.X.X+X7X*XXX,XXX. A G A ' {   b.F.b.D.B.V.6.l.T.k.Y.E.rXrXrXrXrXrXrXrXrXrXrXrXrXrXrX",
",XoX2X+XoX[.%X+X@X.XXX<X0X@X*X-X:X)..XXX-X:X1X1X X*X+X4X[.XX. e < e 6 `   w.H.n.G.D.z.g.I.A.Y.A.E.rXrXrXrXrXrXrXrXrXrXrXrXrXrXrX",
"+XeX$X1X:XXX&X,X1X2X,X6X).=X1X*XXX@X&X|.XX@X+X_.=X4X X>X:X=X. S A F {  .  t.D.i.G.b.K.6.k.k.k.k.E.rXrXrXrXrXrXrXrXrXrXrXrXrXrXrX",
"].9X-X%X2X>X X>X8X7X<X@X3X1X1X>X*X*X>X4X9X3X:X>X2XQ.&X-X+X|.. A A ` ` O.  n.F.i.J.S.V.6.k.k.j.A.E.rXrXrXrXrXrXrXrXrXrXrXrXrXrXrX",
"wX<X4XqX*XOX3XoX6X>X:X>X,X9X6X>X@X>X*X[.-X1X6X:X:X7X8X,X>X6X. m e `  .{   m.v.b.v.J.N.6.U.R.l.l.E.rXrXrXrXrXrXrXrXrXrXrXrXrXrXrX",
"<X-X1XwXeXoX@X].=X*X7X*X6X+X7X1X9X2X+XeX*X>X,X:X<X*X7X2X7X1X. 3 w 5 }     r.b.i.-.J.G.Z.U.I.T.A.E.rXrXrXrXrXrXrXrXrXrXrXrXrXrXrX",
"1X0X3X%X1X%X,X2X+X,X1X$X2X-X7X3X9X*X%X7X#X>X#X>XXX8X+X6X<X>X. m 2 >   o.  a.p.*.i.D.C.6.U.T.A.A.E.rXrXrXrXrXrXrXrXrXrXrXrXrXrXrX",
"4X3X%X].+X2X8X|.*X,X*X%X,X7X6X3X,X,X>X>X2X+X%X3X*X4X8X4X:X3X. S 8   D F   a.s.@.;.D.a.2.A.Y.h.h.E.rXrXrXrXrXrXrXrXrXrXrXrXrXrXrX",
",X XOX=X4X*X).+X&X,X*X@X7X6X*X+X=X*X1X:X;X4X=XOX:X&X5X1X@X=X. $.  S A |   @.0.@.@.O.| 5.<.3.3.7.E.rXrXrXrXrXrXrXrXrXrXrXrXrXrXrX",
"*X1X1X,X=X|.,X*XXX%X-X1X1X*XXX0X$X>X7X8X-XOX*X3X*XXX5X2X0X*X.   | O. .#.  y.y.@.y.y.y.4.<.4.<.3.E.rXrXrXrXrXrXrXrXrXrXrXrXrXrXrX",
"`..XoX%X X3X,X3X+XXX@X=XXX*XXXoX[. XoX+X4X%X*X>X|.$X@X7X:X+X. [ ;.*.u.;.  ;.[ O.t.#.@.4.3.1.3.6.E.rXrXrXrXrXrXrXrXrXrXrXrXrXrXrX",
"[.[.-X[..X].%X=X@X.X XXX*X-X+X@X[.*X.X%X;X-X;X.X<X4XoX,XOX$X. q O.[ O.{   e { e y.*.u.4.7.7.6.7.E.rXrXrXrXrXrXrXrXrXrXrXrXrXrXrX",
" X*X%X%X.X%XoX'.XXXX+X=X*X$X2XoX[.[.$X*X=X+X,XoX*X1X7X*X*XoX. w e { e S   { { O.O.S e E / 3.4.4.E.rXrXrXrXrXrXrXrXrXrXrXrXrXrXrX",
"$XoX3X[.[.[.+X3XXX|.1X1X$XoX$XXX=X.X[.{.1X&XoX%X%X>X+X1X-X:X. e { } #.8   e [ F [ { ;.A T ,.T >.E.rXrXrXrXrXrXrXrXrXrXrXrXrXrXrX",
"$X$X|.`.[.[.+XoX#XoXoX3X=X[.=X{.].$X[.OX+XXX*X*XXX@XoXXX;X[.. [ S o.e S   9 e { S [ S I >.N z z E.rXrXrXrXrXrXrXrXrXrXrXrXrXrXrX",
"#X[.=X;X.X`.].=X$X#X3X#X+X*X=X#X%X+X,X#X1X*XOX,XXX:X=XOX2X].. ] 3 w 8 <   e 3 1 D A 3 d d g k j E.rXrXrXrXrXrXrXrXrXrXrXrXrXrXrX",
"&XoX$X=X$X[.].`.`.$X$X=X3X#X%X3X+X[..XOX X@X3X[.*X=XoXoXOXoX. A F A F A   [ A A o.F } g k J J k E.rXrXrXrXrXrXrXrXrXrXrXrXrXrXrX",
"+XoX$X X+X].oX+X X].$X$X*X-X#X%X[.%X[.|.XXOX,X:X|.2X`.[.*X1X. 8 w 3 e >   w S o.S A , d z n b j E.rXrXrXrXrXrXrXrXrXrXrXrXrXrXrX"
};
