/* XPM */
static char *result[] = {
/* columns rows colors chars-per-pixel */
"64 64 222 2 ",
"   c #791F0E",
".  c #7C2817",
"X  c #7F351D",
"o  c #7D3420",
"O  c gray27",
"+  c #862505",
"@  c #8C260C",
"#  c #93260C",
"$  c #952C0E",
"%  c #992E0F",
"&  c #96350E",
"*  c #99350C",
"=  c #932B14",
"-  c #972917",
";  c #8B3515",
":  c #9C3413",
">  c #9B3914",
",  c #95361C",
"<  c #9D341B",
"1  c #953918",
"2  c #9F391B",
"3  c #A4360C",
"4  c #A63C0D",
"5  c #A32F13",
"6  c #A23413",
"7  c #A23A13",
"8  c #AB3D15",
"9  c #A6351A",
"0  c #A43C1C",
"q  c #A93B1E",
"w  c #B1371C",
"e  c #B13E19",
"r  c #9D3727",
"t  c #A33523",
"y  c #A73B23",
"u  c #A83D29",
"i  c #B43F20",
"p  c #9B4416",
"a  c #9C431E",
"s  c #A5440F",
"d  c #B1460B",
"f  c #A84616",
"g  c #AD4416",
"h  c #A4431C",
"j  c #AC431B",
"k  c #A44A1B",
"l  c #AD4A1D",
"z  c #B24914",
"x  c #B3451D",
"c  c #B44B1B",
"v  c #B94B18",
"b  c #BA4D1D",
"n  c #AD571B",
"m  c #B85916",
"M  c #B4521E",
"N  c #BA511B",
"B  c #BC5C1D",
"V  c #9A4927",
"C  c #A64626",
"Z  c #AB4523",
"A  c #AC4C23",
"S  c #AC4429",
"D  c #B54622",
"F  c #B44B23",
"G  c #BB4D24",
"H  c #B2442A",
"J  c #BA4428",
"K  c #B34A2B",
"L  c #BA4E2B",
"P  c #AA5728",
"I  c #B45423",
"U  c #BC5324",
"Y  c #B35C24",
"T  c #BD5B24",
"R  c #B4532A",
"E  c #BB532B",
"W  c #B05A2D",
"Q  c #BC5A2C",
"!  c #AB4B3A",
"~  c #BA5635",
"^  c #BD5C31",
"/  c #BC6122",
"(  c #BB652C",
")  c #BF6C2A",
"_  c #A96035",
"`  c #BC693D",
"'  c #C95517",
"]  c #C1521F",
"[  c #C35A1D",
"{  c #C5621A",
"}  c #C04E24",
"|  c #C35424",
" . c #C45D25",
".. c #CB5D24",
"X. c #C4552A",
"o. c #CA5329",
"O. c #C35A2D",
"+. c #CA5C2B",
"@. c #C75D32",
"#. c #C46123",
"$. c #CC6422",
"%. c #CC6926",
"&. c #C3642B",
"*. c #CB652C",
"=. c #D26C26",
"-. c #D2632C",
";. c #D46C2B",
":. c #D86C29",
">. c #CE722A",
",. c #D3722C",
"<. c #D7782A",
"1. c #C56135",
"2. c #C66534",
"3. c #CA6D33",
"4. c #D16E33",
"5. c #D36C37",
"6. c #C27333",
"7. c #CC7535",
"8. c #CC7832",
"9. c #CE7038",
"0. c #CC7C3B",
"q. c #DA7233",
"w. c #D77B36",
"e. c #D6743A",
"r. c #D57C3E",
"t. c #DA7A3B",
"y. c #E97B2D",
"u. c #E17C34",
"i. c #C57442",
"p. c #C97744",
"a. c #D37744",
"s. c #DF822E",
"d. c #D78436",
"f. c #E1802E",
"g. c #E88739",
"h. c #CF8744",
"j. c #CD854B",
"k. c #D48544",
"l. c #DC8241",
"z. c #DB8B46",
"x. c #DC8748",
"c. c #DA8B4B",
"v. c #DD9844",
"b. c #DA8A54",
"n. c #DD9553",
"m. c #D59758",
"M. c #E28543",
"N. c #E38D43",
"B. c #EA8F41",
"V. c #E58A4B",
"C. c #E59443",
"Z. c #E69C41",
"A. c #E5914D",
"S. c #EC9249",
"D. c #EB9A4D",
"F. c #F39545",
"G. c #E59855",
"H. c #DEA85A",
"J. c #EAA84F",
"K. c #F1A449",
"L. c #EBA152",
"P. c #F1A659",
"I. c #F8AC5C",
"U. c #F3BA5C",
"Y. c #F4B163",
"T. c #FCB862",
"R. c #978986",
"E. c #95908F",
"W. c #9B938D",
"Q. c #9D9692",
"!. c #9F9A95",
"~. c #A1948C",
"^. c #A2988F",
"/. c #A39691",
"(. c #A49B95",
"). c #A99D95",
"_. c #A49E9A",
"`. c #A99E99",
"'. c #B09F98",
"]. c #ABA096",
"[. c #A6A19D",
"{. c #ACA39C",
"}. c #B1A59D",
"|. c #B3A99E",
" X c #A2A2A2",
".X c #ACA5A2",
"XX c #AEA9A5",
"oX c #AEABA9",
"OX c #B2A6A2",
"+X c #B8A7A3",
"@X c #B3ABA4",
"#X c #B9ADA5",
"$X c #B3ADAA",
"%X c #B9AEAA",
"&X c #BDB1A7",
"*X c #B5B1AD",
"=X c #BBB3AC",
"-X c #B6B3B1",
";X c #BBB5B2",
":X c #BDB9B5",
">X c #BDBCBB",
",X c #C2B5AD",
"<X c #C3B7AD",
"1X c #C3B6B2",
"2X c #C3BAB4",
"3X c #CABBB6",
"4X c #C3BDBA",
"5X c #CABDB9",
"6X c #C5C1BE",
"7X c #CBC2BD",
"8X c #D2C4BD",
"9X c #D5C9BF",
"0X c #C5C3C2",
"qX c #CAC5C2",
"wX c #CEC8C5",
"eX c #CCCBCB",
"rX c #D2C9C4",
"tX c #D2CDCB",
"yX c #DAD1CD",
"uX c #D8D5D3",
"iX c #E1E1E1",
"pX c white",
/* pixels */
";X|.=X<X(.=X>X.X*X$X].*X&X].W.].=X].=X{.].]..X.XOX=X*XOX_.{.OX{.[.]._._._.$X{.[.[.Q.[.:X;X#X2X@XqX9X;X:XoX}.[.{.#X[.].@X].]..X X",
"{.$X[.).OX).].{..X@X=X*XOX}.-X{.{.[.{.oX[.oX{..X*X:X2X;X}.{.[.(.(.).).[.{._.=X).).*X[.-X$X&X$X].rX2X_.OX].{.|.[.[.[.!.[.].oX[._.",
"{.[.].!.[.[.*X{. X=X;X>X#X{.}.[.*X{.:X@X[.C.=.q.1./ C.! p L % 9 5 6 D L g F | &.;.*.X.}.=XoXuX<X1X%X+X=X}.{.[.(.^.].].[.[.].=X].",
"(.(.).].[.[.].=X].-X}.:X*X<XXX$X].[.oX$X Xv.q.t.9./ N.u h J i w ' v j 6 L %.=.<.;.c j :X4X:X6X{.].$X%X-X.X).XX.X-X{.<X[.[.Q. X:X",
".X-X].2X[.].Q.[.:X;X|.6X=X|.$X{.$XOX[. X XA.*.=.M.T n.r p A 8 x q.M j *.<.=.=.:.u.u.;.*X2X=X*X-X;X@X].XX.X.X$X*X!.oXW..X].*X[.*X",
"-X!.XXW..X).*X[.*X*X&X=X#X=XpX:X_. X!. X Xx.$.q.Z.Y c.. *.k q > #.{ %.q.:.4 F 2.>.g.s.].*X=X4X;X[.}.*X.X>X-X].*X;X*X*X}.}.XX*XXX",
"*X;X=X$X{.OX@X*X@X2X;X=X;XoXpXpX]. X X X XV.;.a.g.A c.o q.k : V Z ..u.:.u.=.4.B { u.q.&X*X&X-X*X*XpX{.#XXX&X6X#X7X&XwX*X:X*X{.*X",
"&X7X$XrX-X>X*X[.*X*XOX*X=X=XpXpXpX X X X Xq.5.l h.( q.V :.M J R # c q.q.:.:.;.;.*.*.U *X:X}.&XOXpXpX*X.XoX].#X<X7X<X2X2X&X@X&XXX",
"2X7X<X=X<X&X@X&XXX=X:X}.6X:XpXpXpXiXpXpXpX+.< h b.3.@.; ' | D c 0 M [ 4 $.b J X.| b 5 ;X$X&X$XpXpXpX=X{.{.|.|.*XXX@X2X6X$X2X=X=X",
"=X|.#X6X6X#X6X;X&X$X#X$X6XXXpXpXpXiXpXpXpX0 t m a.6.2 X ' N } #.q g G 3 +.| * } -.z 9 pXpXpXiXpXpXpX=X].#X:X$X*X{.6XoX:X2X=XXX6X",
"*X}.6XoX;X6X&X@X>X=X&XeX6X=XpXpXpXiXpXpXpXC r m 2.9.C X | * G | A 3 x E % N m d c F 2 pXpXpXiXpXpXpX!.|.&X{.*X@X6X{.:XqX$X6X2X2X",
"XX0X{.:X7X@X;X6X:X*X7X*X<X&XpXpXpXiXpXpXpX*.V P l.3.&.a @.C 3 > g E x j U g [ N 7 $ I pXpXpXiXpXpXpX6X<X{.;XXX=X{.:X:X&X:X;X;X=X",
"=X}.-X:X&X:X=X;X=X=X$X-X*X4XpXpXpXiXpXpXpXw.a i.7.9.w.V 7 c D ^ M * h > j F c U F & I pXpXpXiXpXpXpX*X).*X&X].@X@X6X=X>X=X;X6X&X",
"XX$X6X=X6X;X=X2X=X=X&X@X-X*X#XpXpXiXpXpXpXz.a i.) 3.d.` z z R Q & Y 1.Q q 7 2.F Z ~ &.pXpXpXiXpXpXpX{..X#X[.*X*X*X2X2X#X{.;X@X&X",
"*X-X6X<X$X{.;X#X&X*X;X>X#X(.#X}.pXiXpXpXpXL.W p.0.Y L.^ 7.X.g X.h & * & * j g % H j * pXpXpXiXpXpX.X*XXX#X-X#X&X{.XX|.@XXX[.=XXX",
"=X{.|.|.|.$X[.=XoX;X#X{.|.[.XX*X.XiXpXpXpXP.p.` n.6.P.9.I o.*.I 2 I l E $ g U 7 S K l pXpXpXiXpX*X=X&X*X|.XXXX{.}.{.oX).!.].{.*X",
"{.{.{.@X).(._.[.*X#X#X:X=X*X=X[. XO  X X X0.j._ N.>.7.d.8 ( L h 2 1 h C ; n m s S 0 l pXpXpXiX2X=X{..X.X.X$X[.@XXXOX*X~.).@X_..X",
"#XXXXX*XW.].oX).{.>X$X*X#X{.oX X XO  X X Xd.P P >.,.r.v.0 / D > < L U @.h y > , . . V  X X XO *X*X}.XXXX].[._.[.~.{.*XOX-X.X.X{.",
"[.W.{.*X.X-X.X.X{.#X}.|.=X*XoX XO  X X X Xt.A P M.T r.J.G ( x Z % : 7 # : 2 h > ,   k  X X XO =X#X$X].XX{.{.(..X}.*X.X).{.(.[.$X",
"{.}.*X.X].].(.[.*XXX|.*XXXXX[. XO  X X X Xx.A I n.k.M.U.x 3.X.A r S 6 x j Z R : H J L  X X X XO {.[.].).[.Q.(.;X_._.oX(.^.XX@X{.",
"OX$X[.).@X)._..X X@X.X{.@X;X;X X X X X X XS.( g.n.d.D.U.x &.} A + : 0 0 = 8 $.=.U M *..X X X XO oX{.].(.[.oXXX#X;XoX{.].OX.X[.[.",
"XX[.].!._.].*X].[.XX.X$X$X}.@X.X#X X X X XD.7.v.k.6.D.U.z ..v Q p * j U [ d +.0 @ > B  X X X X X{.XXOX*X{.!.*XoX@X@X[.{.#X@X:X@X",
").(.).).[.[.).=X).XX|.oX@X;XpX2X_. X!. X XD.D.Z.z.8.D.Y.b o.] l E X.O.X.> y y U T #.2.#X]..XOX*XoX{.*X XXX;X[.@X<X:X6X6X:X*X*X}.",
".X*X].2X{.[.Q..X:X{.|.;XOXoXpXpX`. X X X XC.I.K.A.w.B.G.6 x F 2 9 8 3 3 t y U  .z % r &X&X*X-X$XoXpX{.|.].{.XX=X&X6XoX;X*XqX>X#X",
"-X!.oXW..X].*X[.*X.X=X{.{.=XpXpXpX X X X Xd.x.P.b.A.x.p.~ A A A e o.| j = * : t - y 8 *X:X}.&X|.pXpX*XoX(.;X@X{.*X{.XX-X.X=XoX#X",
"*X;X=X*X{.|.XX*X|.XX[.].-X:XpXpXpXiXpXpXpX8.c.G.6.G.8.r.a.U 9.T G j D E @ < # q | | [ 1X*X=X$XpXpXpX=X=X.X{.{.:XXXXX$X&X|.=X-X[.",
"&X7X$XwX*X>X*X{.*X.X|.oX(..XpXpXpXiXpXpXpXC.Y.m.h.T.g.t.+.g.:.-.7 # < # I N ..{ B b G pXpXpXiXpXpXpX*X[.[..X;X].#X;X|.&XXX@X|.{.",
"2X7X<X<X2X&X$X&XXX}.].*X[.=XpXpXpXiXpXpXpXg.H.b.6.v.B.k.G y...b E U x &.s.:.,.e.1.@.9.pXpXpXiXpXpXpX].oX{.XX[.[.{.*X{.#X@X4X-X{.",
"*XOX#X2X6X#X2X=X*X{.=X].].*XpXpXpXiXpXpXpXs.m.c.0.G.f.0.2.;.| D N 3 K K j 1.| l x j F pXpXpXiXpXpXpX2XXX).oX#X@X7XXX|.*X:X*X].|.",
"*X}.4XoX:X2X=X@X>X|.}.{.{.6XpXpXpXiXpXpXpXg.j.z.7.n.d.d.Q L F H $.-.N  .;.*.B *.4.t.[ pXpXpXiXpXpXpX*X[..X{..X].*X*X@X|.].{.{.|.",
"$X0X{.:XqX*X:X6X:X*XoX*X=X$X#XpXpXiXpXpXpXg.h.r.#.C.g.d.T u L G X.| ;.u.:.w.F.:.u.$.=.pXpXpXiXpXpXpX{.XXOX}.@X[.[.{.{.{.XX].[..X",
"=X{.:X:X#X:X=X;X;XXX@X{.*X(.#X{.pXiXpXpXpXr.W P >.,.a.g.8 Y D > < L E 1.f q > , . . V pXpXpXiXpXpXXX=X].{.{.XX$X(.!.].{.|.oX!.[.",
"XX@X6X=X2X<X;X2X=X).).{.!.].oX=X.XiXpXpXpXt.l W V./ r.L.G ( x A & : 9 # < 2 h > ,   k pXpXpXiXpX$X;X#X(._.=X-X{.*X).*X.X_.@X!.XX",
"*X*X2X2X$X.X=X$X#X$X}.OXOX#X=X X XO  X X Xz.l I n.l.M.U.x 3.X.A r u 6 x g Z K > H J L pXpXpXiX4X=X}..X].#X$X{.#X#X{.oX_.*X{.$X).",
"=X{.XX|.OX@X_.=X@X{.).#XOX[.$X X XO  X X XS.( l.n.d.S.U.e *.| A + > 0 0 = g $.=.T M *. X X XO $X=X}..X`..X*X6XXX{..X.X#X).(.[._.",
"{.}.{.oX)._._.{.$X|.2XoX.X*XXX XO  X X X XD.d.v.j.) D.U.z  .v Q h * j U m d +.0 @ > B  X X XO =X$X$X{.5X=X(.$X}.&X/.].Q.!.^.$X{.",
"#XXX|.*X~.).$X)..X]..XXX`..X[. XO  X X X XD.L.g.c.8.D.Y.U o.] l E O.O.U 6 y q E | #.*. X X X XO {.{.].@X6X8X0X2X*X6XXX=XXX*X).Q.",
"[.W.].*X}.-X.X.X{.|.wX^.{.).;X X X X X X XN.I.K.A.d.C.G.: D x 6 9 e 3 6 t u U  .g % r  X X X XO oX].].2X).oX^.:X.X-X(..X{.{.{.[.",
".X}.-X X].{.(.[.$X@X%X_.;X|.XX.X@X X X X Xw.r 9.8.7.w.V 3 l Z @.M * 0 > j b c U F & M  X X X X X:X.X.X$XXX{.|.{.;X{.*X*X>X#X{.XX",
";X_._.$X(.Q..X@X{.;XOX|._.;XpX2X_. X X X[.v.a i.) 3.M.` z c E E & Y 1.Q q 7 2.F S O.&.&X$X*X-X$X*XpX{.XX@X;X=XtX-X*X*X]..X{.6XXX",
"+X;XoX{.[.OX.X]..X%X%X;XoX$XpXpX]. X X X XL.W i.0.n L.^ 9.+.z Q h & & & * g g % K j * *X2X}.&X|.pXpX*X{.-X=X:X{.].*X*XXXXX|.oX{.",
"XXOX$X.XOX*X@X;X%X.X$X{.$X;XpXpXpX X X X XP.p.` c.6.P.9.I o.*.F 2 I l E $ g U 7 C K l ;X*X*X$XpXpXpX=X@X*X=X$X=X=X@X{.XX.X$X*X[.",
"`.$X#X}.@X$XOXXX+X`.`.=X{.:XpXpXpXiXpXpXpX7.j._ B.>.7.d.0 ( L h 0 1 s h ; f m s A 0 l pXpXpXiXpXpXpX*X|.;X.X{.*X*XXX{.].oX|..X[.",
"qX+X;X$X$X).*XOX+X_.-XoXOX.XpXpXpXiXpXpXpXr._ P 7.,.d.v.8 Y x > < ~ L @.h C > , . . V pXpXpXiXpXpXpX(.&X=XOX$X-X{.].[.#X{.=X{.{.",
",XqXoXOXOX+X#X2XOX4X(.`.>X=XpXpXpXiXpXpXpXt.A W x./ r.J.G ( D A % : 9 # < 2 h > ,   k pXpXpXiXpXpXpX2X=X@XoX.X.X|..X.X`.*XoX!.{.",
"-X+X-X.X`._..X*X2XOX+X;XwX&XpXpXpXiXpXpXpXM.l I b.k.M.U.x 3.X.A r S 6 x j Z L : H J L pXpXpXiXpXpXpX=XXX.X.X;X{.*X%XoX$XXX-X].[.",
"4X$X,X%X$X}.$X%X:X1X;X$X;X4XpXpXpXiXpXpXpXS.( d.n.d.S.U.x &.} l + > 9 0 = g { =.U I *.pXpXpXiXpXpXpX{.@XOX%X$X=X;X}.;X1X@X$X*X:X",
"2X+X6X+X$XOX=X$X%X$XOX2XeX$X#XpXpXiXpXpXpXD.7.C.k.6.D.U.z ..N Q p * j U B d +.q @ > B pXpXpXiXpXpXXX;X#X%X$X6X7X1X5X4X_.=X4X6X$X",
"$XtX-X4X1XOX-X:X5X0X1XeX/./.-X}.pXiXpXpXpXD.L.Z.z.8.Z.Y.b o.] x E O.O.U 3 y q X.[  .*.pXpXpXiXpX$X=X*X7X3X+X>X4X1X;X:X3X0XqX0X1X",
".XeX4X;X7X1X.X1XqXqX1X1X0X`.oX X.XiXpXpXpXC.I.K.A.d.S.G.> D x > 9 e 3 6 r u G  .g = t pXpXpXiX4X*X}.{.2X%X7XOX0X,X;X3X4X0X5X>X+X",
"yX1X7XtX-X+X0X$X0X1X,X1X4X+X,X X XO  X X Xl.z.P.b.A.l.p.~ A F A e o.| j = * 6 y - q 8  X X XO $X*X}..XrX;X%X.X6X+X5X%X6X%X5X4XeX",
"3X>X5XyXuX+X%X'.1X;XqX-X0X[.oX X XO  X X X8.z.n.i.G.8.r.a.T 3.U G g D K @ < # q | | ]  X X XO ,X$X%X{.4X;X6X,X%X4X0X-X8X1X0X1X0X",
"4XtX6X,X4X%X1X5X$X4X>X$X5X$XoX XO  X X X Xg.Y.n.j.U.C.t.X.g.:.-.9 # < = I M { { [ c G  X X X XO {.{.).@X2XqX$X=X1X1X-X3XqX>X4X%X",
"5X6X%X.X$X5XqX+X%X5X;X=X1XoX X XO  X X X XN.H.b.6.Z.B.a.X.y...G U U x #.u.<.,.e.1.1.9. X X X XO XX{.`.0X;X`.%X%X4X>X1X8XeX1X+X:X",
"4X.X%X:X7X-X XoX-X5X;X%XqXqX=X X X X X X Xs.m.c.r.n.s.7.1.-.| D N 6 L K y @.T l Z 8 F  X X X X X6X=X=X#X}.:X:XXX>X1X>X:X%X+X5X+X",
";X5X4X1X;X.X5X;X+X%X>X5X>X;X+XwX*X2X7XeX X XO O  X X X X X X X X X X X X X(.(. XO O :X%X8X;X X4X*XOX:X.X;X4X;X.X$X%X+XOX-X%XoX.X",
"`.XX@X;XOX6X1X4XoX+X%X:X+X;X+X+XXX.X$X X X XO O  X X X X X X X X X X X X X X X XO O .X.X.X%X`.>X-X+X1X.X/._.OXoXoX.X.X_.(.OX%X.X",
".X}.4X}.$X.X=X:X%XoXoX.X-X>X$X$X|.;X[. X XO O  X X X X X X X X X X X X X X X X X`.O O $X$XOX-XoX.XoX%XE._.OX/.[.`.oX$X/.$X X`..X",
"+X;X%X=XoX$X$X.X.X+X$X1X>X$X5XOX}.{. X X XO O  X X X X X X X X X X X X X X X X!.@XO O :X0X.X1X>X X-X.X[.$X%XoXOX.X.X X(.E.-X.XoX",
"$X$X4X{.+XOX$X4X.X.X4X>X$X+X=X@X2X X X XO O  X X X X X X X X X X X X X X.X X@X>X%X.XO O oXOX-X+X_.oX}.$X_.OXoX+X-XOX+XOX.XoXR.oX",
"$XOX.X`..XOX$X@X=X$X*X<X>X{.:X|. X X X XO  X X X X X X X X X X X X X X X X(._.(. X%X1XO ;XrX;X%X-XoX`.OXOX X%X}._.oX`.-X.X-XE._.",
",X+X;X1X$X).`.2X=X=X2X&X$X;X2X&X=X@X2X#X4X;X%X2XOX;X:X+X4X{.:X`.%X%X{.%X7X,X`.;X;XrX`.{.8X1X X.X%X+X`. X%X-X.XOX.X$X-X X`.Q..X/.",
"=X$X-X:X=X{.{.]._.=X*X:X6X*X=X4X$XOXXX,X.X%XqX}.;X:X%XOX#X+X.X`.[..X+X:X`.1X5X).,X*XyX1X1X;X.X0X1X_.`./.%X_..X`. XoX.X/.%X.XoX_.",
"@X$X$XOX$X{.OX$XOX.X&X*X;X:X<X=X{.=X}..XOX+X2X%XOX6X'.{.1X4X5X+X+X-X~.3X=X=X:X=X5X;X6X+X[.$X%X$X-X.X.X%X.X X'..XoX+XOX'..X.X.XQ."
};
