/* XPM */
static char *result[] = {
/* columns rows colors chars-per-pixel */
"64 64 152 2 ",
"   c #3E271E",
".  c #3F281E",
"X  c #36301F",
"o  c #39311F",
"O  c #282527",
"+  c #262927",
"@  c #312B24",
"#  c #3F2C24",
"$  c #372E29",
"%  c #27342A",
"&  c #363725",
"*  c #3A3423",
"=  c #3D3C26",
"-  c #34372A",
";  c #3A3728",
":  c #3D3C28",
">  c #45271C",
",  c #49271E",
"<  c #43291F",
"1  c #48281E",
"2  c #412720",
"3  c #432921",
"4  c #4B2D23",
"5  c #522F23",
"6  c #403424",
"7  c #4D3126",
"8  c #453B25",
"9  c #453629",
"0  c #4C3429",
"q  c #463829",
"w  c #4E392C",
"e  c #543125",
"r  c #5B3426",
"t  c #51332A",
"y  c #5C3628",
"u  c #533B2E",
"i  c #5F3A2B",
"p  c #623B2A",
"a  c #135736",
"s  c #02653A",
"d  c #43412A",
"f  c #5A4536",
"g  c #5D4538",
"h  c #5E4B3D",
"j  c #614A3C",
"k  c #255F42",
"l  c #2B5943",
"z  c #036F41",
"x  c #0A6E43",
"c  c #027344",
"v  c #0B7146",
"b  c #027947",
"n  c #0A7649",
"m  c #047B4A",
"M  c #0A7C4C",
"N  c #1C7D51",
"B  c #236A44",
"V  c #31684A",
"C  c #5E4C41",
"Z  c #624E43",
"A  c #06814E",
"S  c #09814F",
"D  c #068551",
"F  c #0B8452",
"G  c #078954",
"H  c #0B8A56",
"J  c #0E8758",
"K  c #0C8E59",
"L  c #128254",
"P  c #1C8354",
"I  c #1C8956",
"U  c #1D8B5A",
"Y  c #0C935C",
"T  c #0D995F",
"R  c #208556",
"E  c #0E9760",
"W  c #0E9C61",
"Q  c #109D62",
"!  c #219B63",
"~  c #05A266",
"^  c #0FA165",
"/  c #0FA668",
"(  c #0FA96A",
")  c #10A367",
"_  c #11A669",
"`  c #11A96B",
"'  c #11AA70",
"]  c #978986",
"[  c #948F8C",
"{  c #9C8D88",
"}  c #96918F",
"|  c #9C948D",
" . c #9D9692",
".. c #9D9996",
"X. c #9F9B99",
"o. c #A1948C",
"O. c #A3998F",
"+. c #A09692",
"@. c #A89791",
"#. c #A49B94",
"$. c #A99D95",
"%. c #A49E9A",
"&. c #AA9E9A",
"*. c #B09F98",
"=. c #ABA096",
"-. c #A6A19D",
";. c #ACA39C",
":. c #B1A59D",
">. c #B3A89E",
",. c #B8A89F",
"<. c #A6A3A1",
"1. c #ACA5A2",
"2. c #AEA9A5",
"3. c #AEABA9",
"4. c #B2A6A2",
"5. c #B8A7A4",
"6. c #B3AAA4",
"7. c #B9ACA5",
"8. c #B3ADAA",
"9. c #BAAEAA",
"0. c #BCB0A7",
"q. c #B5B1AD",
"w. c #BBB2AD",
"e. c #B5B3B2",
"r. c #BBB5B2",
"t. c #BDB9B6",
"y. c #BEBBBA",
"u. c #C1AFA9",
"i. c #C0B1A7",
"p. c #C2B4AD",
"a. c #C8B3AD",
"s. c #C4B8AE",
"d. c #C2B6B3",
"f. c #C3BAB5",
"g. c #C9BBB6",
"h. c #C3BDBB",
"j. c #C9BDBA",
"k. c #99C4A9",
"l. c #C5C1BE",
"z. c #CBC2BD",
"x. c #D3C4BD",
"c. c #C4C3C2",
"v. c #CBC5C2",
"b. c #CDC8C6",
"n. c #CCCBCA",
"m. c #D6C5C1",
"M. c #D2C9C4",
"N. c #D2CDCC",
"B. c #D6D0CE",
"V. c #DCD2CD",
"C. c #D6D3D2",
"Z. c #DCD6D5",
/* pixels */
"r.>.w.s.#.w.y.<.q.q.=.8.0.=.[ =.w.=.s.;.-.=.6.q.-.-.;.-.;.;.X.f.d r r d I Y S A G Y Y Y T T W W W ^ ^ ^ ) ^ / ( ( ` ` ` ` / ! k.",
";.8.-.#.>.#.=.;.<.6.w.q.6.>.r.;.;.=.-.3.-.q.#.<.-.q.-.-.>.q.3.=.5 e r d U T S m D Y Y Y T T E W ~ T W ^ ^ / / / _ ` ` ` ` ` ( ^ ",
";.;.=.%.-.-.q.;.-.q.t.f.7.;.;.;.q.;.t.8.8.1.8...=.2.O.2.<.q.l.=.7 r p = I Y S m G Y Y T T T E W W W W ^ ) ^ / / ` ` ` ` ` ` ` ( ",
"#.#.#.$.-.-.=.r.;.r.:.t.8.s.2.8.=.X.q.3.1.3.2.1.<.=.-.;.O.=.i.z.7 i p = U T L m D Y Y T T T E W W W ^ ^ ) ) / / ) ( _ ` ' ` ` ` ",
"1.e.=.f.-.=. .<.t.t.0.f.w.>.2.;.>.2.-.>.8.q.;.8.>.=.<.2.3.O.-.0.5 p p d U T S m K G T Y T T T W W ^ ^ W ^ / / / ) _ ` ` ` ' ` ` ",
"e.X.2.| -.=.q.-.q.8.0.e.0.w.8.h.-.2.%.O.t.=.8.;.-.-.>.q.-.3.>.2.e p p d R T S m G Y Y Y Y T T T W W W ^ ^ ^ ^ ^ ) ` ` ` ` ` ` ` ",
"q.r.w.8.;.2.6.0.>.t.t.0.e.8.;.3.=.0.>.>.q.t.=.;.3.-.<.=.;.#.q.-.t y p d R Y L b G G K Y Y T T T W W W ^ ^ ^ ^ / ) _ ` ` ` ` ` ` ",
"0.z.7.b.r.y.q.-.q.q.6.0.w.e.s.6.| w.} 0.8.O.>.s.>.#.2.-.t.q.6.>.t r g d R Y S b G G Y Y Y Y Y T T W W W W ^ ^ / ) _ ` ` ` ` ` ` ",
"l.z.s.w.l.0.8.0.>.t.t.1.l.t.t.3.0.2.e.>.;.O.e.t...=.3.0.l.x.8.b.t r p q P Y F b G K K Y Y Y Y T T W T ^ ^ ^ ^ ) _ _ ) ) _ _ ` ` ",
"0.>.>.l.l.>.l.w.q.>.0.8.l.>.q.s.0.t.q.>.-.#.>.-.#.1.6.3.-.q.6.q.t r p d I Y M b D K K Y Y Y Y T T T T W T T ^ ) ) ) ) ) ) _ ( _ ",
"8.>.l.2.w.z.q.6.l.w.0.n.l.q.2.;.l.0.8.z.;.q.>.e.2.2.;.q.=.w.>.w.7 y p d I K M b A K K K K T Y Y T T T W W W T ^ Q ) ) ) ) _ _ ( ",
"2.l.=.l.l.>.s.l.t.q.l.0.s.0.z.q.>.l.z.6.8.3.2.-.w.7.b.>.q.f.t.q.7 y p 8 I K S b D K K Y Y Y Y T T W T ^ W W ^ W ) ) ) ) ) ) _ ) ",
"w.;.t.t.0.t.w.r.w.w.0.k.q.y.w.e.l.2.;.>.2.6.O.6.=.-.;.t.7.1.0.;.7 e r = I K M b D G K K Y Y Y Y T T E E W T ^ ^ W ^ W ^ ) ) ^ ^ ",
"2.8.h.w.l.s.r.t.w.w.0.>.r.q.t.6.0.>.3.w.w.6.q.8.-.-.;.>.6.l.0.6.7 e y = P K M b A G H K K K K Y Y T T E T T T ^ Q W ^ ^ Q ) / ^ ",
"q.q.l.s.8.;.w.8.0.q.t.y.6.O.0.>.r.y.w.q.8.q.6.q.3.q.2.=.8.q.;.z.4 e r 8 P K M c D H H K K K Y Y Y Y T E T T W W Q Q Q W Q ^ ^ ^ ",
"q.;.>.>.>.8.;.w.6.t.6.>.>.-.2.r.;.y.2.=.t.8.q.>.;.c.#.q.s.2.;.n.3 e e = P K M c A H H K K K K K Y Y T T T T T T W W W ^ W W ^ W ",
";.>.;.8.=...-.=.q.0.6.t.s.6.s.-.=.3.;.0.=.;.=.t.>.;.2.;.2.r.h.-.< e 5 * P J M c S H H K K K K K K Y Y Y Q Y Q T T T Q Q E W ^ ) ",
">.2.2.q.| =.2.-.>.t.6.e.q.-.6.2.>.-.3.6.=.3.6.e. ...-.=.y.-.=.-.< 1 5 & P G n c S F H H K K K K Y K Y Y Y Y Y Q Q T T Q W W ^ T ",
"-.o.;.w.;.q.>.<.;.0.>.>.w.q.3.<.=.q.-.0.>.6.;.8.1.<.3.#.-.>.=.t.. 1 5 & P G n c m G L H H H J K K K Y Y Y Y Y T T T T T W W T T ",
";.2.q.-.=.;.#.-.8.3.;.q.3.>.-.3.q.6.<.-.;.3.2.1.2...=.=.O.-.>.r.< > 4 & P G n c S S H H H H K H K K Y K Y Y Y Y Y T Y T T T T T ",
">.8.-.#.6.#.-.;.<.>.<.2.6.e.e.>.>.8.-.;.2.=.=.>.:.;.-.>.#.8.1.6.. > 5 * P F n b m F F H G K H H K K K Y H Y K Y Y Y Y Y T T T E ",
";.-.;...-.=.q.;.-.3.>.3.0.>.>.| >.<.e.2.;.q.q.>.-.} | ;.-.-.q.=.. > e & P F n s A S F F J J H H H K K K K K Y Y Y Y Y Y T Y T T ",
"#.#.=.=.-.-.#.r.#.2.>.3.>.q.<.3.3.8.2.r.>.8.-.-.-.8.;.3.o.#.;.>.3 > 4 & P F n c M F F F F J F H H H H K H Y Y Y K Y Y Y Y Y Y Y ",
"1.r.=.f.;.;. .;.t.;.>.t.>.e.-.=.e.w.X.>.8.-.X.w.>.} q.#.;.$.2.w.2 > 5 ; N F n s m S F F F F F H H H H H H H H K K K Y K Y Y T Y ",
"q.X.3.| 2.=.8.-.e.;.r.;.;.t.#...-.-.8.;.6.#.;.3.8.e.q.x.-.6.h.7.3 > 7 ; N N x c M D F F F F F F F H G H G K G K K K K K K K Y Y ",
"q.r.w.q.;.>.2.w.>.3.=.=.e.#.2.t.3.;.0.O.6.O.,.u.t.9.h.0.q.<.o.-.2 , 5 ; N v s b M M M D M F F F F F F G G G H H K G K K K K K G ",
"0.z.7.b.r.t.8.=.q.2.;.3.#.2.>.q.=.| 8.-.;.%.=.t.;.2.l.;.;.y.w.q.3 4 5 : B a x n M M M M M M D m A A F S F A F F G G G H G K G G ",
"s.z.s.t.t.0.8.0.2.>.=.q.-.3.2.>.<. .e.O.-.8.-.;.h.y.;.%.q.-.8.l.w 0 t 6 - - - k M n b c c c z c A s c c b b b m b b b m b m A A ",
"w.2.6.f.l.7.l.w.q.;.s.O.=.8.-.e.2.t.w.>.;.-.>.#.=.=.N.n.8.=.2.w.Z j g 9 q @ + % B z M n M M M M S n M S M S S F S L L S D F F F ",
"q.;.l.3.t.f.0.>.y.>.;.;.;.;.=.#.| | O.=.=...>.:.| =.6.;.;.;.-.6.Z Z u w 9 @ O + l n F F F F L S H H G J H J K J K Y K K Y K Y Y ",
"8.l.-.f.z.8.y.l.t.r.3.e.w.=.8.=.>.3.-.:.t.6.O.<.t.:.q.r.6.;.;.w.Z j u w 0 $ - : V N N N N N N N P P P R R R R R R R R R I P I P ",
"w.>.r.t.0.t.t.w.t.-.6.;.q.q.;.3.| ;.2.w.t.;.>.<.#.2.q.-.3...q.>.Z j g w w w q q * * * X X # o o X X . 6 6 6 6 8 8 8 8 8 8 8 8 8 ",
">.2.y.w.d.s.r.f.r.#.$.;.X.8.w.q.<.&.3.$.%.:.r.#.[ %.$.&.+.4.<.h.Z j j g u u f t 0 7 e 7 7 7 4 4 4 7 e e e y y i p i i p p i i i ",
"q.0.l.h.8.1.w.8.7.7.:.5.4.9.9.6.8.h.<.e.y.;.w.t.:.2.$.<.1.@.9.&.j j j j h h j 0 > > > > > > > < < 1 7 e 5 5 e r e r r y r r r e ",
"0.;.2.,.6.6.-.w.6.;.#.5.4.2.<.*.w.&.8. .%.%.e.1.1.1.r.6.%.9.5.1.C h C Z C C C 9 * . . .       .   > . < 4 6 1 6 4 e 7 t e e e 0 ",
"-.>.;.6.#.%.#.-.q.>.f.8.;.1.<.t.<.q.<.$.<.%.5.&.+.f.6.<.3.6.<.3.9.&.1.4.1.1.2.e.2.3.;.t.-.1.=.w.;.6.O.z.d.#.6.2.0.O.&.| X.O.6.;.",
"6.2.6.q.o.$.6.=.1.=.;.2.%.9.[ 6.9.8.5.%.&.9.4.1.+.8. .,.<.5.3.{ 8.8.%.1.6.8.-.-.;.=.>.6.>.3.>.w.l.q.8.2.l.x.l.t.3.l.>.r.3.3.=...",
"-.| ;.q.>.q.2.<.;.>.v.#.&.$.9.3.;.<.#.4.<.w.#.5.,.-.8.-.<.&.4.+.1.8.%.$.6.1.;.<.-.e.q.;.2.2.,.3.>.z.l.f.O.3.O.t.1.t.#.-.>.;.;.=.",
";.:.q.;.=.;.#.-.8.6.q.&.e.4.4.&.<.1.1.2.1.<.*.1.6.%.1.1.4.<.+.e.6.6.e.1.6.3.6.6.=.8.;.>.q.;.q.;.r.2.>.6.8.;.>.>.t.=.q.q.y.0.-.2.",
"r.-.-.3.%. .1.6.;.w.6.>.%.3.4.<.1.1.#.$.2.2.%.%.;.<.6.| X.3.&.9.2.;.6.1.e.q.-.2.q.-.<.2.t.3.6.0.e.e.q.2.8.w.w.M.t.q.q.-.1.=.l.3.",
"6.w.8.;.-.2.<.-.<.u.3.r.3.h.%.%.&.4.1.*.1.5...1.1.<.5.+.<.&.d.1.t.v.9.j.y.j.5.3.4.%.e.5.t.8.w.6.;.2.q.;.w.q.r.:.#.w.w.2.3.>.3.;.",
"2.6.8.;.2.0.8.r.5.4.e.4.3.&.<.r.&.&.4.<.3.4.%.3.4.<.%.&.4.X.<.1.:.5.h.8.y.3.v.6.@.8.8.9.6.t.t.3.:.2.q.3.w.w.8.w.w.2.-.>.-.8.e.-.",
"&.8.6.:.5.7.,.2.5.&.&.9.4.2.5.%.e.1.%.5.4.&.+.1.&.8.&.<.<.e.4.%.$.r.6.2.h.9.8.4.8.6.2.c.w.q.6.h.>.0.>.6.r.2.;.q.q.>.;.-.8.>.-.;.",
"v.5.t.8.8.$.8.:.5.%.e.3.4.9.3.3.1.4.2.2.%.8.r.&.&.%.d.%.e.9.c.5.e.f.6.d.9.d.v.9.8.6.5.8.t.6.>.7.6.e.=.7.0.2.q.e.;.-.;.7.=.w.;.>.",
"p.v.3.:.2.5.5.f.4.y.&.&.y.5.e.&.3.5.4.5.+.e.%.&.c.1.e.8.e.9.3.4.d.w.1.4.4.1.9.d.<.e.t.t.e.6.2.q.7.2.t.r.6.8.4.<.:.2.2.#.e.3...-.",
"r.9.e.<.;.%.2.9.d.4.5.r.n.d.5.8.<.d.<.<.3.4.d.&.5.8.8.9.4.1.9.5.5.4.8.r.e.r.3.2.e.6.8.5.r.e.9.q.2.;.t.>.1.<.e.;.0.0.3.8.2.e.-.;.",
"t.8.p.9.9.4.8.9.y.j.r.8.e.5.j.r.5.e.%.9.9.d.3.5.e.v.y.4.d.4.4.e.q.6.&.<.9.<.5.r.1.2.&.e.w.t.2.f.3.s.8.6.6.w.7.q.r.;.w.f.:.8.w.t.",
"f.5.h.5.8.:.e.8.5.3.5.d.n.5.y.y.u.%.3.5.h.d.h.y.4.e.5.j.4.4.e.n.r.8.3.*.9.9.q.q.c.e.9.r.8.7.6.d.b.6.s.0.6.9.c.h.f.z.h.-.w.l.l.3.",
"q.N.e.h.s.4.8.h.h.j.f.c.&.t.y.d.4.9.r.1.2.9.9.&.t.v.4.r.d.r.3.d.9.c.e.1.9.h.8.N.*.6.3.4.r.%.t.9.n.c.f.z.f.6.c.h.d.d.e.j.v.b.c.d.",
";.N.y.r.c.d.1.f.b.v.j.w.z.y.j.r.e.w.d.z.n.l.u.h.j.+.9.y.9.<.j.c.8.e.h.d.1.p.3.$.r.9.1.w.e.c.2.v.s.v.x.t.9.z.4.y.p.w.g.h.c.j.h.5.",
"B.g.z.N.r.5.c.9.c.d.d.a.t.n.c.d.9.f.e.4.y.h.c.u.a.c.n.y.d.c.d.+.9.y.d.4.9.1.5.e.*.e.r.M.d.c.j.j.f.h.Z.M.r.9.1.c.9.j.9.h.9.z.h.n.",
"g.t.h.V.C.5.9.&.r.r.z.e.c.8.b.h.N.j.9.C.d.r.h.u.d.d.v.j.j.j.r.h.j.b.j.r.u.4.9.t.5.9.6.$.z.t.3.r.v.w.7.h.r.c.u.9.f.c.e.m.t.c.t.h.",
"h.M.h.r.h.r.d.j.8.d.y.8.j.t.c.h.n.9.w.v.9.f.q.d.5.n.8.c.g.d.d.t.v.c.u.9.d.e.j.h.9.;.y.r.1.h.p.g.s.t.4.6.d.v.8.w.h.d.r.j.z.y.d.9.",
"j.c.p.;.6.g.v.6.9.j.t.d.h.m.c.c.h.f.f.d.g.5.p.h.r.j.n.j.d.j.8.b.r.c.y.j.j.d.9.1.r.9.9.d.q.1.9.9.<.p.y.z.r.$.9.9.h.y.p.j.b.h.5.t.",
"h.1.7.t.v.r.<.8.e.h.e.9.m.c.r.8.t.r.h.p.p.v.d.7.u.e.m.h.9.t.5.d.h.j.h.j.e.e.9.6.3.4.h.r.r.e.e.5.h.q.w.9.1.d.t.2.y.d.h.d.9.9.j.5.",
"r.j.h.f.r.1.d.r.5.9.t.h.y.r.5.M.9.d.v.n.t.7.r.l.t.4.m.j.v.r.j.h.C.a.y.n.f.d.1.y.9.9.r.6.m.e.<.h.9.6.r.1.e.h.d.1.5.9.2.4.q.q.6.1.",
";.2.5.r.2.l.d.z.e.2.9.t.5.e.5.5.2.>.6.8.z.7.r.d.1.w.9.v.p.6.2.r.Z.9.9.j.8.d.9.h.9.8.<.2.1.9.&.y.e.6.e.1.+.%.6.2.3.1.1.%.#.2.6.1.",
"1.:.y.:.8.;.w.t.9.3.8.&.e.y.8.9.,.r.3.w.p.y.u.8.h.z.5.d.8.w.c.9.d.h.9.8.r.9.d.e.&.t.{ 8.w.1.e.3.1.6.9. .%.4.+.<.&.3.6.+.9.<.&.1.",
"4.r.0.w.2.q.8.-.1.4.9.d.r.q.h.5.;.;.8.t.t.8.d.8.w.h.M.r.r.5.5.f.%.j.r.y.y.h.m.X.6.6.q.r.c.1.p.y.1.e.1.&.5.9.2.2.1.1.<.#.} e.<.3.",
"7.8.h.;.4.6.q.y.4.1.h.y.q.5.q.6.f.2.6.5.h.r.3.w.r.d.3.y.h.w.9.5.9.e.5.5.1.3.5.t.q.1.9.6.3.1.w.5.X.3.4.6.%.6.8.5.e.2.5.4.1.3.] 3.",
"8.8.6.$.;.1.q.5.w.8.q.s.t.>.r.,.<.q.,.7.6.5.d.e.4.9.9.4.p.:.&.d.u.u.t.r.5.%.%.#.<.q.d.6.t.m.r.e.e.3.&.3.&.1.9.;.%.2.%.e.2.e.} %.",
"p.>.t.p.q.$.;.d.q.r.s.i.8.r.t.0.w.6.s.7.h.e.7.f.4.w.d.4.g.<.f.<.9.9.<.9.m.u.&.r.t.x.&.;.m.d.%.1.9.5.&.&.w.e.<.6.1.9.r.%.&. .2.+.",
"q.8.e.t.w.;.-.:.=.w.q.t.l.0.r.l.8.>.3.u.2.9.z.4.r.t.5.6.7.5.1.*.<.1.5.t.%.d.g.@.s.q.V.w.r.e.2.h.d.%.&. .9.$.2.%.<.3.1.+.9.1.2.%.",
"7.5.8.1.6.;.>.8.2.;.q.q.w.y.0.w.:.w.:.<.4.5.d.9.6.h.*.4.d.h.j.4.6.w.{ g.d.w.d.r.g.w.c.8.;.9.9.8.e.1.1.9.<.<.1.1.3.5.4.*.1.1.2. ."
};
