/* XPM */
static char *result[] = {
/* columns rows colors chars-per-pixel */
"64 64 57 1 ",
"  c #4B4545",
". c #8F8484",
"X c #948F8C",
"o c #9E918D",
"O c #9E9592",
"+ c #9F9997",
"@ c #9F9A98",
"# c #A1948B",
"$ c #A09693",
"% c #A89791",
"& c #A49A94",
"* c #AA9C96",
"= c #A59D9A",
"- c #AA9E9A",
"; c #ACA096",
": c #A5A09D",
"> c #ACA29D",
", c #B1A59D",
"< c #B8A89F",
"1 c #A7A3A1",
"2 c #ACA5A2",
"3 c #AEA9A5",
"4 c #ADABA9",
"5 c #B2A6A2",
"6 c #B4AAA4",
"7 c #BAABA4",
"8 c #B3ADAA",
"9 c #BAAEAA",
"0 c #BEB0A7",
"q c #B5B1AD",
"w c #BCB2AD",
"e c #B5B3B2",
"r c #BCB5B2",
"t c #BDB9B6",
"y c #BEBBBA",
"u c #C0B1A7",
"i c #C1B3AD",
"p c #C4B8AF",
"a c #C2B6B2",
"s c #C3B9B5",
"d c #C9BBB5",
"f c #C4BDBB",
"g c #CABDBA",
"h c #C5C0BE",
"j c #CBC2BE",
"k c #D7C4BF",
"l c #C5C4C3",
"z c #CBC5C2",
"x c #CCC8C6",
"c c #CECCCB",
"v c #D6C5C1",
"b c #D0C9C6",
"n c #D2CDCB",
"m c #D6D0CE",
"M c #DDD3CF",
"N c #D6D6D6",
"B c white",
/* pixels */
"6ww9q,2>rsggdm,8sfewz-35r2:6>q  .BBBBBBBBBBBBBBBBBBBBBBBBBBBBBBB",
"68,88w,3f3hbyscm689z785r:>#3>,  .BBBBBBBBBBBBBBBBBBBBBBBBBBBBBBB",
"qqt3h0y8sqwhfkyegir6r67e:q>5>6  .BBBBBBBBBBBBBBBBBBBBBBBBBBBBBBB",
"5ti*>w,rst>wMnrs882,8,1>31wq4<  .BBBBBBBBBBBBBBBBBBBBBBBBBBBBBBB",
"qqq>,385tz6fNwhi68>5863*&;,o;,  .BBBBBBBBBBBBBBBBBBBBBBBBBBBBBBB",
">>*25w:h2rfi57s325=5*7q5O,q;@4  .BBBBBBBBBBBBBBBBBBBBBBBBBBBBBBB",
"5:>qq8wps=zs8l>qr65786813O,4::  .BBBBBBBBBBBBBBBBBBBBBBBBBBBBBBB",
"7;s6f1thr85g>6sf89qs,3a=6:3:;r  .BBBBBBBBBBBBBBBBBBBBBBBBBBBBBBB",
"2;wq53965er6ahxg9fs>9782>q>288  .BBBBBBBBBBBBBBBBBBBBBBBBBBBBBBB",
"2wr82546wfdfralg5d2f=&2uw6,>,>  .BBBBBBBBBBBBBBBBBBBBBBBBBBBBBBB",
"wqaqf84wyrrfzafs5r6*8*8887z:p&  .BBBBBBBBBBBBBBBBBBBBBBBBBBBBBBB",
"qtiifr>tf9w8rawld4t-4r2w,:&376  .BBBBBBBBBBBBBBBBBBBBBBBBBBBBBBB",
"rh3t8tw5fzsdlth-nrzt5584:e:;25  .BBBBBBBBBBBBBBBBBBBBBBBBBBBBBBB",
"t0t,68yrrlztqcfe69r9w2:sq>;q53  .BBBBBBBBBBBBBBBBBBBBBBBBBBBBBBB",
"wwttwg855allllggeg6e381:5>7X21  .BBBBBBBBBBBBBBBBBBBBBBBBBBBBBBB",
"wh0<5697b8ljfirtst8;3=t*1:43t>  .BBBBBBBBBBBBBBBBBBBBBBBBBBBBBBB",
",8w3p,63erfcc9i5i5552e--21:929  .BBBBBBBBBBBBBBBBBBBBBBBBBBBBBBB",
"w,6q4;w3ars8gfr919y851=52228r-  .BBBBBBBBBBBBBBBBBBBBBBBBBBBBBBB",
",4p,6436jgai8eae4-=54-52&2$526  .BBBBBBBBBBBBBBBBBBBBBBBBBBBBBBB",
"3006<tq0ciazm5z2591555-5-55:=$  .BBBBBBBBBBBBBBBBBBBBBBBBBBBBBBB",
">,h6ft0jt9g9ryc5f94$-521332-1=  .BBBBBBBBBBBBBBBBBBBBBBBBBBBBBBB",
"7qr3qqyw9z7ssgf9ay598-585:e9==  .BBBBBBBBBBBBBBBBBBBBBBBBBBBBBBB",
"sh0w,h0trs99slu8f4y-r+=$$>&55t  .BBBBBBBBBBBBBBBBBBBBBBBBBBBBBBB",
"w,sqw63hh9haiis>a4---145=552-2  .BBBBBBBBBBBBBBBBBBBBBBBBBBBBBBB",
"6w,,rwf2r9r6daft5e8f=255285%$2  .BBBBBBBBBBBBBBBBBBBBBBBBBBBBBBB",
"htrqafgw2rvzrzOgrz85%8-21+15s2  .BBBBBBBBBBBBBBBBBBBBBBBBBBBBBBB",
">7s68z6wvvx8zz988y8er-=5819$9w  .BBBBBBBBBBBBBBBBBBBBBBBBBBBBBBB",
",67,hrazgfzlsfytg598=21+o5=5-4  .BBBBBBBBBBBBBBBBBBBBBBBBBBBBBBB",
"i7fisr8ij9idja9i5a5e825==5124%  .BBBBBBBBBBBBBBBBBBBBBBBBBBBBBBB",
"f6>,w6w7rtlasl2t5529r8+-21=849  .BBBBBBBBBBBBBBBBBBBBBBBBBBBBBBB",
"                                .BBBBBBBBBBBBBBBBBBBBBBBBBBBBBBB",
"                                .BBBBBBBBBBBBBBBBBBBBBBBBBBBBBBB",
".................................BBBBBBBBBBBBBBBBBBBBBBBBBBBBBBB",
"BBBBBBBBBBBBBBBBBBBBBBBBBBBBBBBBBmBBBBBBBBBBBBBBBBBBBBBBBBBBBBBB",
"BBBBBBBBBBBBBBBBBBBBBBBBBBBBBBBBBBNBBBBBBBBBBBBBBBBBBBBBBBBBBBBB",
"BBBBBBBBBBBBBBBBBBBBBBBBBBBBBBBBBBBNBBBBBBBBBBBBBBBBBBBBBBBBBBBB",
"BBBBBBBBBBBBBBBBBBBBBBBBBBBBBBBBBBBBNBBBBBBBBBBBBBBBBBBBBBBBBBBB",
"BBBBBBBBBBBBBBBBBBBBBBBBBBBBBBBBBBBBBNBBBBBBBBBBBBBBBBBBBBBBBBBB",
"BBBBBBBBBBBBBBBBBBBBBBBBBBBBBBBBBBBBBBNBBBBBBBBBBBBBBBBBBBBBBBBB",
"BBBBBBBBBBBBBBBBBBBBBBBBBBBBBBBBBBBBBBBNBBBBBBBBBBBBBBBBBBBBBBBB",
"BBBBBBBBBBBBBBBBBBBBBBBBBBBBBBBBBBBBBBBBNBBBBBBBBBBBBBBBBBBBBBBB",
"BBBBBBBBBBBBBBBBBBBBBBBBBBBBBBBBBBBBBBBBBNBBBBBBBBBBBBBBBBBBBBBB",
"BBBBBBBBBBBBBBBBBBBBBBBBBBBBBBBBBBBBBBBBBBNBBBBBBBBBBBBBBBBBBBBB",
"BBBBBBBBBBBBBBBBBBBBBBBBBBBBBBBBBBBBBBBBBBBNBBBBBBBBBBBBBBBBBBBB",
"BBBBBBBBBBBBBBBBBBBBBBBBBBBBBBBBBBBBBBBBBBBBNBBBBBBBBBBBBBBBBBBB",
"BBBBBBBBBBBBBBBBBBBBBBBBBBBBBBBBBBBBBBBBBBBBBNBBBBBBBBBBBBBBBBBB",
"BBBBBBBBBBBBBBBBBBBBBBBBBBBBBBBBBBBBBBBBBBBBBBNBBBBBBBBBBBBBBBBB",
"BBBBBBBBBBBBBBBBBBBBBBBBBBBBBBBBBBBBBBBBBBBBBBBNBBBBBBBBBBBBBBBB",
"BBBBBBBBBBBBBBBBBBBBBBBBBBBBBBBBBBBBBBBBBBBBBBBBNBBBBBBBBBBBBBBB",
"BBBBBBBBBBBBBBBBBBBBBBBBBBBBBBBBBBBBBBBBBBBBBBBBBNBBBBBBBBBBBBBB",
"BBBBBBBBBBBBBBBBBBBBBBBBBBBBBBBBBBBBBBBBBBBBBBBBBBNBBBBBBBBBBBBB",
"BBBBBBBBBBBBBBBBBBBBBBBBBBBBBBBBBBBBBBBBBBBBBBBBBBBNBBBBBBBBBBBB",
"BBBBBBBBBBBBBBBBBBBBBBBBBBBBBBBBBBBBBBBBBBBBBBBBBBBBNBBBBBBBBBBB",
"BBBBBBBBBBBBBBBBBBBBBBBBBBBBBBBBBBBBBBBBBBBBBBBBBBBBBNBBBBBBBBBB",
"BBBBBBBBBBBBBBBBBBBBBBBBBBBBBBBBBBBBBBBBBBBBBBBBBBBBBBNBBBBBBBBB",
"BBBBBBBBBBBBBBBBBBBBBBBBBBBBBBBBBBBBBBBBBBBBBBBBBBBBBBBNBBBBBBBB",
"BBBBBBBBBBBBBBBBBBBBBBBBBBBBBBBBBBBBBBBBBBBBBBBBBBBBBBBBNBBBBBBB",
"BBBBBBBBBBBBBBBBBBBBBBBBBBBBBBBBBBBBBBBBBBBBBBBBBBBBBBBBBNBBBBBB",
"BBBBBBBBBBBBBBBBBBBBBBBBBBBBBBBBBBBBBBBBBBBBBBBBBBBBBBBBBBNBBBBB",
"BBBBBBBBBBBBBBBBBBBBBBBBBBBBBBBBBBBBBBBBBBBBBBBBBBBBBBBBBBBNBBBB",
"BBBBBBBBBBBBBBBBBBBBBBBBBBBBBBBBBBBBBBBBBBBBBBBBBBBBBBBBBBBBNBBB",
"BBBBBBBBBBBBBBBBBBBBBBBBBBBBBBBBBBBBBBBBBBBBBBBBBBBBBBBBBBBBBNBB",
"BBBBBBBBBBBBBBBBBBBBBBBBBBBBBBBBBBBBBBBBBBBBBBBBBBBBBBBBBBBBBBNB",
"BBBBBBBBBBBBBBBBBBBBBBBBBBBBBBBBBBBBBBBBBBBBBBBBBBBBBBBBBBBBBBBN"
};
