/* XPM */
static char *result[] = {
/* columns rows colors chars-per-pixel */
"64 64 81 1 ",
"  c #313131",
". c #3D3D3D",
"X c #3F3E40",
"o c #454545",
"O c #4A4A4A",
"+ c #504F4F",
"@ c #545454",
"# c #595658",
"$ c #5A5B5B",
"% c #5F5F60",
"& c #636363",
"* c #696967",
"= c #676969",
"- c #6C6C6C",
"; c #747474",
": c #978986",
"> c #948F8C",
", c #96918F",
"< c #9C948D",
"1 c #9E9692",
"2 c #9D9995",
"3 c #9F9B99",
"4 c #A1948C",
"5 c #A3998F",
"6 c #A19693",
"7 c #A89791",
"8 c #A49B94",
"9 c #A99D95",
"0 c #A49E9A",
"q c #A99E9A",
"w c #B09F98",
"e c #ACA096",
"r c #A6A19D",
"t c #ACA39C",
"y c #B1A59D",
"u c #B3A89E",
"i c #B8A89F",
"p c #A7A3A1",
"a c #ACA6A2",
"s c #AEA9A5",
"d c #ACABAB",
"f c #B2A6A2",
"g c #B8A7A3",
"h c #B3AAA4",
"j c #B9ACA5",
"k c #B3ADAA",
"l c #B9AEA9",
"z c #B6B0A6",
"x c #BCB1A6",
"c c #B5B1AD",
"v c #BBB3AD",
"b c #B5B3B1",
"n c #BBB5B2",
"m c #BDB9B5",
"M c #BDBCBB",
"N c #C1AFA9",
"B c #C0B1A7",
"V c #C2B5AD",
"C c #C4B9AE",
"Z c #C3B7B2",
"A c #C3BAB4",
"S c #CABCB6",
"D c #C3BDBA",
"F c #CABDB9",
"G c #C5C1BE",
"H c #CBC2BD",
"J c #D1C3BD",
"K c #D5C9BF",
"L c #C4C3C2",
"P c #CAC5C2",
"I c #CEC8C6",
"U c #CDCBCB",
"Y c #D1C9C4",
"T c #D2CDCB",
"R c #D6D0CE",
"E c #DBD1CB",
"W c #D6D4D3",
"Q c #D9D5D2",
"! c gray86",
"~ c gray95",
"^ c white",
/* pixels */
"nyvv8vApccezxe<8xevrreudrr1rmmjAvykthvEjtKA8rCAhPYnAkyrykr8uertp",
"tlreh9rtahvchanyyrtkrkeppebrccxcxvzmrvkQvCvunEhrKA0fetytre3redrr",
"rre3rrctrvnAlttrctmscrc2tshzuAnvnstkeGnHyrklVsQCZlfvyrr25eert8v9",
"88eerr8vrnymzCsze0kkudssnAcrcchknnvz<mvccnseMmGyrklba0hsnemrr1pm",
"abrCtr<pmvzCcuktjarycztcrpnvd^^^^^^^^^^^zvxzmvcbvlesaazc0s1recrc",
"c0s<t8crccxnjvcArar5mrhemnPdd^^ds^^^^^^^HmMtnvMbetcyMbecvvcyahvs",
"cnvzyhhvhAnvnztdevyhcmrtzHd^d^d!!d^^^^^^~~~~~~~~~~~~~~~~~~~~~~tc",
"xHlPbMcrccscvnvh<v,xh5iVGs^^d^d!!d^^^o^^~~~~~~~~~~~~~~~~~~~~~~xa",
"SHCCAxhxsvMtHmmscsvut2cnd^^^d^^dd^^^do^^ddddddddddddddddddddddvc",
"cahAGzAnvzzzHscCzmcur8hs^^^^d^^^^^^ddo^^~~~~~~~~~~~~~~~~~~~~dckM",
"cyGdvSxzMvxUGvatGxzHtcyb^^^^d^^^^^^do^^^~~~~~~~~~~~~~~~~~~~dzAGm",
"kLtmHcmGmcHzmxHczCPhzssr^^^^d^^^^^ddo^^^~~~~~~~~~~~~~~~~~~dcmmvv",
"vanAvmvnvvzbzMnbGstuys5k^^^^d^^^^^do^^^^~~~~~~~~~~~~~~~~~dvAvvmn",
"ysMnAvnAvvxhncmzxssnnhcc^^^^d^^^^^do^^^^~~~~~~~~~~~~~~~~dSAzunzz",
"bcGCltvkxcvMz8zyvmncsclk^^^^d^^^^ddo^^^^~~~~~~~~~~~~~~~dtsuhsrvk",
"zyuuukrvkmzturscaMutncdt^^^^d^^^^do^^^^^~~~~~~~~~~~~~~dstys800ec",
"tyts800rczzmvznrektleteA^^^^d^^^^do^^^^^~~~~~~~~~~~~~drhahc49k8a",
"kshc49h9sAzcztkaurskedhb^^^^d^^^ddo^^^^^~~~~~~~~~~~~drrr<tcybfat",
"r<tcybaatzyzvcssecrxahtk^^^^d^^^do^^^^^^~~~~~~~~~~~dty8aycpet2rk",
"tycaet8rksyzktrschprahsp^^^^d^^^do^^^^^^yktcsv8mtrt3r<rnr9d85ykt",
"ulr8h98apuppkvnuhhrra9rh^^^^d^^doo^^^^^^8ctshvrykeee dkubctrstrr",
"trt300ctrdskkuy<habsfjku^^^^d^^do^^^^^^^u     rkrsu  2cshirszlmk",
"888err8Vetukhcrddhavhka0^^^^d^^oo^^^^^^^t     ycst % nrsCmAGmzku",
"sbeAtt1pMtubuctecv0fk80v^^^^d^^^^^^^^^^^yz  szzsh $% etmvAdncHGh",
"crs<aecrctnttnr2prhyh8td^^^^d^^^^^^^^^^^         $*- mytztsbavsz",
"cnccyascsheen2pmdtv5s6gN^^^^d^^^^^^^^^^^o$-$+%$$ ;.o tymkszxyvct",
"jHhYcAcrcpud3htc0<zrt0tn^^^^d^^^^^^^^^^^=;$&#%$- oO$ aveiAsxszsy",
"CHCAAxkxsuecrksya1c1tket^^^^d^^^^^^^^^^^@o X$-@* .@$ srrrctzsAnt",
"vahAHhCncyneestchbnyyry8^^^^d^^^^^^^^^^^OX@oOo$X ==$ chkHhunAvey",
"cyGdvSvuMutttte3415898ay^^^^d^^^^^^^^^^^**@@$$O@ #+. pteczhuerth",
"kGtmPcmGmbkcvekeykrymh8t^^^^d^^^^^^^^^^^@#$*&$@- @@ tyl0rtttprrp",
"vammcmCnvpztcctk<tsvntaa^^^^d^^^^^^^^^^^.@++@$$; O rtask81etuk3e",
"akGvAVcmn8qy1bNbpqdq0wn8^^^^d^^^^^^^^^^^%     +.  <8rvbyk9cs2s2h",
"ccCAzaVlllyffllfkDpcMalm^^^^d^^^^^^^^^^^         ettzhtjjtk0vtc8",
"vyhyhkrVhy8gfspqlqh10rbs^^^^d^^^^^^^^^^^k yrr rrrkhracGktyah8800",
"tttk828rkyZkpfaZpnd8p0gq^^^^d^^^^^^^^^^^ vrnst @ty5Hv5kav6e135lt",
"hahc49kraetsql>dlkf0qkfs^^^^d^^^^^^^^^^^ kznnn@$DvcsGHHmkGuvacr<",
"r4tvtcaatyP7pwgdqp8fpv7g^^^^d^^^^^^^^^^^rccyaahsyHGA8z5man0pyttr",
"aycpet80kfcqbqfqpfsfsrta^^^^d^^^^^^^^^^^rcuucavtnsasstutntccGzys",
"nr9d88aktnhupdfpap8qsf36^^^^d^^^^^^^^^^^vr3sndhvnbnuknvYnccrreGs",
"fnctrha0fNdldD06qaqfpk6q^^^^p^^^^^^^^^^^t0bfndvhesctcvnt8ncssyst",
"shhphkkvdfbfkqpZpqgpsg0d^^^^d^^^^^^^^^^^8kkckmmsysckvclVnutstcbr",
"qlhyflhsgqqlfdf0npqffq0p^^^^d^^^^^^^^^^^kfhLvvkMavyinatccurezupt",
"Pgnkk9kyg0ldfNddftdfqgnq^^^^d^^^^^^^^^^^khlhmhyxhnezvscctrtzrvtt",
"ZLhyhglZqMqfMgbqdgff6lqq^^^^d^^^^^^^^^^^akmZbshlhamnhkhauasqcs3a",
"nlvpq8scMggnUnglqMppddnq^^^^d^^^^^^^^^^^bkkhnnkchyAaapbrvlsksbre",
"MkZlkfklMZMdngFngb7nlZdk^^^^d^^^^^^dd^^^ssqcvnsAkVzkflknntnZhkcn",
"ZfDkgfvkgggZUgnMNpdgMZFD^^^^d^^^^^d!!d^^LbkZklfAIkCjlkGFAFM0vDHk",
"cTcAZfkDFDZL0bDZflbaglkq^^^^d^^^^^d!!d^^~~~~~~~~~GAHAkDAAnmSGILZ",
"aTDnLZfDPLFbFLDZnnNPULNZ^^^^d^^^^^^dd^^^~~~~~~~~~PJmlFfLNvSGLDDg",
"RZPTngLgLZZZMULNlDbgMDLN^^^^d^^^^^^^^^^^~~~~~~~~~AQYnnaGlFlDlHDU",
"FMAQWflwZNPnLkPLUDgWNMZZ^^^^d^^^^^^^^^^^~~~~~~~~~HAknDVlDLnJZLnG",
"FYGlGVDFdZMbFZLFUvvHlZlZ^^^^d^^^^^^^^^^^~~~~~~~~~sckcPkvDZnSLMDN",
"FGVqkDPfnFnNZILLDZZDFllD^^^^d^^^^^^^^^^^~~~~~~~~~vyin8klDMZFPDfn",
"FalnHn0kbFnlPLnknnDZVPml^^^^d^^^^^^^^^^^~~~~~~~~~brjvmmkMZDnlgFg",
"nGDDnaDnglMFMngTvZHPAlnH^^^^d^^^^^^^^^^^~~~~~~~~~amvkDvaflkgbbga",
"qshnhDZGdgZmfnfgsyzcHlnZ^^^^d^^^^^^^^^^^dddddddddyAfp0fsdap09fks",
"fyDykacnlddqbMglynsvVMlk^^^^d^^^^^^^^^^^~~~~~~~dkVkhgf6pqdk6kpqt",
"fnlvsllpffkZmkDkyykZnkAh^^^^d^^^^^^^^^^^~~~~~~dAIkZgkghsfpp6,bpd",
"lkDtfkkDfaDMkfvgAsagDnkv^^^^dddddddddddd~~~~~dmkUFDHDhfkbfggpd:k",
"kkf9ffkhckcCMfnjavyghfnn^^^d^^^^^^^^^^dDnkfncLsPvPPAldgf0d0cab,0",
"NfnVk7tAcvABknAjckClDnjA^^d^^^^^^^^^^dEbDkFnLGUlVPlAlntapkmrq6s6",
"ckbmct0yrBkmDxvDkydNfvLy^d^^^^^^^^^^dYaFVbEFZnfLZ0q1l0aqpfa6las0",
"lhkhkthjfaccmmCvyvyaagAxd^^^^^^^^^^dUHDASvLktklkcafkpptadlgwtas1"
};
