/* XPM */
static char *result[] = {
/* columns rows colors chars-per-pixel */
"64 64 156 2 ",
"   c #21201E",
".  c #221E20",
"X  c #232326",
"o  c #3F3A25",
"O  c #3E362F",
"+  c #33382F",
"@  c #4E2C1F",
"#  c #4F2E24",
"$  c #522E23",
"%  c #423523",
"&  c #4E3127",
"*  c #443925",
"=  c #483A27",
"-  c #43372F",
";  c #4E3329",
":  c #463A2A",
">  c #4A3D29",
",  c #523125",
"<  c #5A3326",
"1  c #51342A",
"2  c #5C3529",
"3  c #54392F",
"4  c #5E392B",
"5  c #603A2A",
"6  c #31523D",
"7  c #3E563A",
"8  c #31593F",
"9  c #4E4330",
"0  c #554233",
"q  c #5A4532",
"w  c #644C3A",
"e  c #6A513F",
"r  c #037F4C",
"t  c #17794D",
"y  c #18794D",
"u  c #2D7452",
"i  c #377654",
"p  c #52594A",
"a  c #695243",
"s  c #695649",
"d  c #6A594A",
"f  c #53634E",
"g  c #586959",
"h  c #497054",
"j  c #427758",
"k  c #736652",
"l  c #B7322A",
"z  c #D32F28",
"x  c #A64740",
"c  c #BB4D45",
"v  c #A5524C",
"b  c #EF5852",
"n  c #C97E74",
"m  c #EC7A70",
"M  c #03814E",
"N  c #048551",
"B  c #0A8753",
"V  c #058B55",
"C  c #0A8B56",
"Z  c #078F58",
"A  c #0A8E59",
"S  c #1D8757",
"D  c #158D5B",
"F  c #1E8B59",
"G  c #079059",
"H  c #0C945D",
"J  c #0D995F",
"K  c #14935E",
"L  c #218056",
"P  c #258159",
"I  c #218A59",
"U  c #0E9660",
"Y  c #0E9B61",
"T  c #109561",
"R  c #109E63",
"E  c #189963",
"W  c #0FA165",
"Q  c #0FA668",
"!  c #10A366",
"~  c #11A668",
"^  c #12AB6D",
"/  c #14AE70",
"(  c #15B372",
")  c #26A56E",
"_  c #978C79",
"`  c #526C8B",
"'  c #5C8AB1",
"]  c #789DDB",
"[  c #7BA6EB",
"{  c #978986",
"}  c #988E8A",
"|  c #889C8E",
" . c #95908F",
".. c #9C938D",
"X. c #9D9592",
"o. c #9F9997",
"O. c #9F9A98",
"+. c #A1948C",
"@. c #A2988F",
"#. c #A19692",
"$. c #A89791",
"%. c #A49B94",
"&. c #A99C95",
"*. c #A49D9A",
"=. c #AA9E9A",
"-. c #ABA097",
";. c #A5A19E",
":. c #ACA29D",
">. c #B1A59D",
",. c #B3A89E",
"<. c #B8A89F",
"1. c #A6A3A2",
"2. c #ACA5A2",
"3. c #AEA9A5",
"4. c #ADABA9",
"5. c #B2A6A2",
"6. c #B8A7A4",
"7. c #B3AAA5",
"8. c #B9ACA5",
"9. c #B3ADAA",
"0. c #BAAEAA",
"q. c #BCB0A6",
"w. c #B6B1AD",
"e. c #BBB2AD",
"r. c #B5B3B2",
"t. c #BBB5B2",
"y. c #BDB8B5",
"u. c #BEBBBA",
"i. c #E5A09C",
"p. c #C0B1A7",
"a. c #C1B3AD",
"s. c #C8B3AD",
"d. c #C4B8AF",
"f. c #C2B6B3",
"g. c #C3B9B5",
"h. c #C9BBB6",
"j. c #C3BDBB",
"k. c #C9BDBA",
"l. c #9EC1A9",
"z. c #C5C1BE",
"x. c #CBC2BE",
"c. c #D2C4BD",
"v. c #95BCF8",
"b. c #C5C3C2",
"n. c #CBC4C2",
"m. c #CCC8C6",
"M. c #CDCBCA",
"N. c #D7C6C1",
"B. c #D2C9C4",
"V. c #D2CDCB",
"C. c #CFD3C6",
"Z. c #CBDDCB",
"A. c #D6D0CE",
"S. c #DCD2CD",
"D. c #D6D3D2",
"F. c #DCD6D5",
/* pixels */
"Z.l.K ^ ^ ( ( ( ( ( ( ( ( ( ( ( ( ^ ( ( ( ( ( ( ( ( ( ( ( ( ( ( ( ( ( ( ( ( ( ( ( ( ( ( ( ( ( ( ( ( ( ( ( ^ E h x z c c.v.] _ v ",
") Y ^ ( ( ( ^ ( ( ( ( ( ( ( ( ( ( ( ( ( ( ( ( ( ( ( ( ( ( ( ( ( ( ( ( ( ( [ ( ( ( ( ( ( ( ( ( ( ( ( ( ( ( ( ( K j f g c.v.] +.n ",
"^ ^ / ( / ( ( / ( ( ( ( ( ( ( ( ( ( ( ( ( ( ( ( ( ( ( ( ( ( ( ( ( ( ( ( ( ( ( ( ( ( ( ( ( ( ( ( ( ( ( ( ( ( ( ^ ! I i | ' ` i.b ",
"/ ^ / ^ / / ^ ( ( ( ^ ( ( ( ( ^ ( ( ( ( ( ( ( ( ( ( ( ( ( ( ( ( ( ( ( ( ( ( ( ( ( ( ( ( ( ( ( ( ( ( ( ( ^ ( ( ( ^ ^ K P i p l m ",
"^ / / / / / ( / ^ ( ( ( ( ( ^ ( ( ( ( ( ( ( ( ( ( ( ( ( ( ( ( ( ( ( ( ( ( ( ( ( ( ( ( ( ( ( ( ( ( ( ( ( ( ( / ( ^ / ^ ! K i k _ ",
"^ ^ / / / / ^ / ( ( ^ ( ^ ( ^ ( ( ( ( ( ( ( ( ( ( ( ( ( ( ( ( ( ( ( ( ( ( ( ( ( ( ( ( ( ( ( / ( ( ( ( ( ( ( / / / ^ / ^ ^ E D u ",
"^ ^ ^ ^ ^ / ^ ^ ^ ( ^ ^ ^ ^ ( ( ( ^ / ( ( ( ( ( ( ( ( ( ( ( ( ( ( ( ( ( ( ( ( ( / ( ( / ( / ( / ( ( ( ( ( / / / / / ^ ( ^ ^ ~ E ",
"^ ^ ^ ^ ^ / / / ^ ^ ( ^ ( ( ^ ^ / / ( ( / ( / ( ( ( ( ( ( ( ( ( ( ( ( ( ( ( ( ( ( / ( ( ( / / / ( ( ( ( / / / / / ( / ^ ^ ^ ^ ^ ",
"^ ^ ^ ^ ^ ^ ^ ^ ( ( ^ ^ ^ ^ ( ( / / / / ( / / / / ( ( ( / / ( ( ( ( ( ( ( / / / ( ( / / / / / / ^ / / / ^ ( ^ ( / / ^ ^ ^ ^ ^ ^ ",
"Q Q Q ^ ^ ^ ^ ^ ^ ~ ( ^ ^ ( ^ ^ / / / ^ / / / / / ( ( / / ( ^ / ( ( ( ( / / / / / / / / / / / / ^ / ^ / ^ ^ ^ ^ ^ ^ ^ ^ ^ ^ ~ ^ ",
"Q Q ^ ^ Q ^ ^ ^ ^ ^ ^ ^ ^ ^ ^ / / / / ^ / / / / / / / ( / / / ( ( ( ( ( / / / / / / / / ^ / / ^ / ^ / ^ / ^ ^ ( ^ ^ ^ ^ ^ ^ ~ ^ ",
"Q Q Q Q Q ^ ~ ^ ^ ^ ~ ^ ^ ^ ^ ^ / / ^ / / / / / / / / / / / / / ( ( ( ( / ^ / / ^ ^ ^ / / ^ ^ ^ ^ ^ ^ ^ ^ ^ ^ ^ ^ ^ ^ ~ ~ ~ ~ ~ ",
"Q Q W Q ~ ~ ~ Q ~ ^ ~ ~ ^ ^ ^ ~ ~ ^ ^ ^ ^ ^ ^ ^ ^ / ^ ^ ^ ^ ^ ^ ( ( ^ ^ / ^ ^ ^ ^ ^ ^ ^ ^ ^ ^ ^ ^ ~ ~ ^ ^ ^ ~ ~ ^ Q Q ~ ~ ^ ~ ~ ",
"W Q Q Q ~ ~ Q ~ Q ~ ~ ^ ~ ~ ^ ^ ^ ~ ~ ^ ~ ^ ^ ^ ^ ^ ^ ^ ^ ^ ^ ^ ( ( ^ ^ ^ ^ ^ / ^ ^ ^ / ^ Q / Q ^ ^ ^ ~ ^ ~ ~ ~ Q ~ ~ ~ ~ ~ ~ ! ",
"W Q W Q ~ Q ~ ! ~ ~ ~ ~ ^ ^ ~ ^ ^ ~ ~ ~ ~ ^ ^ ~ ~ ^ ^ ^ ^ ^ ^ ^ ( ( / ^ ^ ^ Q Q Q ^ Q Q ^ Q Q Q ~ ~ ~ ~ ~ ~ ~ ~ ~ ~ ! ! ! ! ! ! ",
"Y Y Q R ! ! Q ! ! Q ! ! ! ! ! ! ~ ~ ~ ^ ^ ~ ~ ~ ~ ^ ^ ^ ^ ^ ~ ^ ( ( ^ ^ Q ^ Q Q Q Q Q ^ Q Q Q Q ~ ~ ~ ~ ~ ~ ! ~ ! Q ! ! ! ! ! ! ",
"W Y W ! W ! ! ! ! W Q Q ~ W Q ~ ~ ~ ~ ~ ~ ~ ~ ~ ~ ~ ~ ~ ~ ~ ^ ! ~ ~ ~ ~ ! ^ ~ ~ ~ ~ ~ ~ ~ ~ ! ! ! Q Q ! ! ! ! ! ! W Q W W ! W W ",
"Y W Y W Y ! W W ! ! ! ! ! ! ~ ~ ~ R ~ ~ ~ Q ~ ~ ~ ~ ~ ~ ~ ~ ! ^ ~ ~ ~ ~ ~ ~ ~ ~ W ! Q ! ! ! ! W ! ! ! ! ! Q W W W W J W R J W J ",
"Y Y Y ! R R R Y Y ! Y ~ ! W W R R R ~ R Q R R ~ Q ~ ~ ~ ~ ! ! ! ~ ! ~ ! ! ! ! ! ! ! ! ! ! ! ! ! W W W W W W W W R R R R J W J J ",
"Y Y Y Y Y R J W Y ! W Y Y W W ! R ~ R ~ R Q ~ R R Q R ~ ! ! ! ! ! ! ! ! ! ! ! ! ! ! ! W ! ! R ! W W W W W W J R R R J R J J W J ",
"Y Y Y Y Y R Y R R R Y Y W Y R Y R R R Q ~ R ~ R ~ R R ~ R ~ ~ W ! ! E ! ! ! ! ! W ! W ! Q R R R R R W W J R R J W Y Y J W J Y Y ",
"J U U U J Y J J J R Y R J R Y Y R Y R R R R R R R R R R R R R ~ ! ! ! ! R ! R R R R R R Y Y R Y J R J R J J R J J J J J J J J J ",
"H J H T U H J J Y U J Y Y Y Y Y Y Y Y Y R R R R R R Y R R R R R R R R R R Y Y Y Y Y R R Y Y Y Y J J R J J J J J J J J J H J H H ",
"H H J J U J J J U Y U Y U Y Y Y Y Y Y Y Y Y Y Y Y Y Y R R R Y Y R J R R Y R Y Y Y Y Y Y Y Y U U R J J J R J J J J J H J H J H H ",
"H H H H H H H J H J H H J J H U U U U U J J U U U U U Y Y Y Y Y J J J R J J J J U U Y U Y H U U U H J U H H J J H H H H G H G H ",
"A A A H J G G H H H H H G J H H U U U U H J J J J J Y H H Y U H J J J J H H H J H U H H H H U U H U A H H H A G H G J G H H H C ",
"Z C C C Z Z Z A Z V Z C G A G G G Z G G H H G G H G G G H H Y Y J J H G G H G H A H G G G Z A A A C C C A A A A C C Z C V Z B B ",
"r r r M r M M M M M M M M M N M N N N N N N N N N V N N N A D u L S G V M V M M N N N N N N N N r N N r N M M M M M M M r M M M ",
"B B B B C D B C B B B A C C C C A B A A C C A A C C A A A y 6 + + 8 t C C C A C A C Z B A B A C B V B A B C B V B B B B B B B B ",
"A H A H H D K U H J H J U U H U U U U U T T Y Y U R Y Y D 8 O X X O 8 R J J U T U Y U U U U U Y U U U U U U U H U U U U H H H H ",
"I S S S S S F S S F F F S F F F F S F F I F F I I S F F P 7 - .   - 9 F F F F F F F F F F F S F F S S S S F F S S S S S I I S S ",
"% % o o * % o * = * * * * = * o o o * o * * * * = = : : 9 q 3 - % 0 0 9 9 > 9 9 > > : = = o o * * = = = = * = * : = = = = = = = ",
"5 5 2 < 1 < < , , $ , , $ $ $ # # , & # & 2 < 2 2 5 5 2 4 w q 3 q q w 5 4 4 < < 2 < 2 2 < 2 < , 2 2 4 5 4 < 2 2 2 < < < < < < < ",
"< , , , $ @ $ , $ $ , $ # # # # # # # , , < < < < 2 2 5 4 a a w q e e 4 2 < < < < , < < < , , , $ < < 2 < < < < < < < < < < < < ",
"& & & , , & ; ; , , 1 1 1 ; 1 ; ; ; & ; & ; 1 1 < 1 1 1 3 s s s d d s 1 ; , 1 , ; , , = , ; ; ; , , , 1 1 , & * & $ , # , , & # ",
"-.>.:.4.%.%.%.;.w.,.g.9.;.5.2.y.1.e.1.*.;.*.5.=.#.f.9.:.4.4.2.2.q.*.2.5.:.2.3.r.4.3.,.t.-.3.:.e.,.7.@.x.t.@.9.,.0.#.-.X.*.@.7.:.",
"7.3.,.w...-.9.-.2.-.;.3.=.9. .4.0.9.5.1.*.9.5.3.#.3.#.5.1.6.4...3.w.%.2.9.9.-.:.,.%.,.7.,.9.,.e.z.w.,.,.z.c.b.y.9.z.,.t.3.9.%.%.",
";.+.:.w.,.w.:.2.:.,.m.@.=.&.7.9.*.1.%.5.2.e.&.<.6.1.9.2.1.=.5.#.:.4.1.%.7.2.;.1.;.w.w.:.3.3.,.9.,.x.z.z.-.4.@.y.2.y.%.;.3.:.-.;.",
":.>.9.2.-.:.@.;.9.7.q.;.t.2.2.=.2.5.2.5.3.*.=.2.5.*.1.5.:.1.#.9.7.9.r.4.7.4.3.7.;.w.:.,.q.1.w.:.t.3.:.4.3.:.,.,.y.-.w.w.z.q.:.3.",
"t.;.;.4.%.@.3.9.:.t.7.>.*.9.5.1.1.1.%.=.3.5.*.*.2.2.7...*.2.1.f.3.:.3.,.w.e.;.4.w.;.1.3.y.4.4.q.r.r.t.3.7.t.t.c.r.w.w.;.;.-.z.4.",
"5.t.w.:.;.3.:.;.2.p.9.r.5.j.*.%.=.2.=.5.1.6.#.2.5.2.5.o.*.1.f.2.g.n.q.z.u.k.6.9.:.*.r.5.t.4.e.7.-.,.w.,.w.w.t.>.-.w.t.,.3.:.4.3.",
"3.7.7.;.3.q.9.y.6.2.r.:.6.1.1.y.:.=.6.2.2.4.*.4.:.:.*.1.5.o.1.1.:.6.j.9.u.9.n.7.&.9.9.0.9.y.y.7.,.3.w.4.e.t.7.e.t.7.;.3.:.9.r.;.",
"=.9.7.7.6.7.,.3.6.*.=.a.5.2.4.=.r.:.=.3.2.=.*.2.1.4.=.2.2.9.5.*.&.t.8.3.j.0.9.5.9.7.3.b.e.w.w.y.3.9.:.,.t.3.:.w.9.7.:.-.4.,.:.;.",
"x.7.y.8.w.&.9.>.0.*.9.4.5.e.4.3.2.5.4.2.=.6.r.=.=.$.f.*.0.t.b.6.r.g.7.f.9.f.n.0.9.8.7.9.y.,.,.q.,.t.-.q.t.,.w.w.,.%.;.q.-.t.-.,.",
"e.n.7.>.3.5.8.h.5.u.$.=.u.4.r.=.4.4.5.5.#.r.=.=.z.5.r.9.r.0.4.5.f.e.2.2.6.3.e.f.:.w.y.f.r.7.,.w.9.3.y.t.9.9.3.2.,.3.2.-.r.3.O.1.",
"t.0.r.2.=.*.7.9.h.5.5.u.m.t.6.0.5.u.*.1.4.5.f.=.4.0.6.r.:.1.t.6.5.5.0.t.r.e.3.3.r.9.9.7.t.t.w.e.7.:.y.,.2.;.w.:.9.q.3.w.3.r.;.-.",
"u.9.a.0.9.5.9.0.u.f.t.9.f.6.k.u.6.0.$.f.0.f.4.4.r.b.u.5.f.6.5.r.w.7.=.;.0.1.7.e.2.3.=.r.e.y.3.g.9.e.9.7.7.q.w.q.t.,.t.g.,.q.t.t.",
"g.7.j.0.7.2.e.9.9.6.5.f.V.5.r.u.a.*.4.5.j.f.k.u.2.t.6.k.5.5.t.n.t.9.9.=.9.0.e.r.b.r.9.t.9.7.7.y.m.9.d.q.9.9.z.z.d.z.u.O.e.z.z.9.",
"9.M.w.g.f.2.w.j.j.k.f.m.*.y.j.y.5.0.t.2.6.0.9.:.y.n.5.f.a.f.4.f.0.b.r.5.0.g.9.V.-.9.3.5.t.;.g.9.C.x.g.x.h.7.j.j.f.t.y.h.b.n.b.f.",
":.A.j.t.j.h.2.g.n.n.j.0.k.j.k.t.t.r.f.z.m.z.p.f.k.X.r.u.0.1.z.b.4.r.j.f.1.f.3.&.f.q.:.r.r.z.3.n.e.m.x.y.0.z.2.b.a.e.h.j.b.k.j.5.",
"V.h.n.V.t.8.k.9.b.f.a.f.u.B.z.t.0.f.r.5.u.j.b.a.f.n.b.g.f.z.f.o.0.j.g.5.r.5.6.e.>.r.f.B.t.b.h.k.g.g.F.B.t.e.5.j.8.k.0.j.e.x.j.M.",
"h.u.j.S.D.6.0.-.f.t.n.t.b.9.m.j.V.j.0.D.t.g.g.a.f.f.n.k.n.h.r.j.k.m.k.e.0.5.0.y.5.0.7.&.z.g.9.t.n.e.q.z.e.b.a.0.j.b.t.c.t.z.g.z.",
"k.B.z.e.j.f.h.j.9.g.j.9.k.y.b.z.M.0.a.n.0.g.0.g.6.m.9.b.h.f.f.y.n.b.p.0.f.e.k.z.0.>.j.r.:.u.f.k.a.y.:.9.g.x.9.r.j.f.t.k.x.j.g.0.",
"k.b.e.-.9.j.n.5.e.j.t.e.g.B.b.b.u.g.g.f.h.8.e.j.e.n.n.n.a.z.0.m.t.b.u.k.j.f.9.2.t.9.0.f.r.2.9.0.:.a.u.x.t.=.q.0.j.j.a.k.m.u.5.y.",
"j.2.0.y.k.t.*.9.r.j.t.0.n.b.e.w.y.t.j.f.p.B.f.8.a.r.N.j.0.u.5.f.b.g.j.k.r.e.0.5.4.5.g.f.f.0.y.3.b.e.e.0.>.g.y.4.j.y.j.t.0.7.k.6.",
"t.k.j.g.y.2.j.t.5.0.u.k.u.f.5.B.0.f.n.m.y.8.t.z.t.5.N.h.N.t.z.f.A.s.u.M.j.t.3.b.6.9.t.7.n.r.:.j.9.7.r.2.e.u.t.2.5.0.4.5.e.e.9.:.",
"-.3.7.t.3.z.f.z.w.5.e.y.5.r.5.6.3.,.7.q.z.e.t.f.3.r.0.n.f.9.4.t.F.0.a.g.6.t.0.k.e.9.;.3.2.0.=.u.t.5.r.2.#.*.7.7.4.2.1.*.%.5.9.3.",
"2.>.j.>.9.:.e.y.0.4.4.:.r.j.9.0.,.t.3.e.a.u.0.9.h.k.6.y.0.0.z.0.f.j.r.9.t.0.f.r.;.y.} 9.0.5.9.r.1.9.8.X.=.5.X.;.=.4.7.%.9.1.*.2.",
"5.t.q.e.3.w.7.3.2.5.0.y.y.w.k.7.,.:.9.f.y.9.g.9.r.k.B.y.t.5.5.g.*.k.t.t.j.j.B.*.7.7.e.t.b.2.t.u.2.r.3.*.7.0.4.4.5.1.:.%...w.2.4.",
"0.9.j.:.5.7.7.z.6.1.j.j.9.,.e.5.g.3.3.<.j.r.7.e.e.f.9.u.f.a.8.9.0.r.0.6.1.4.6.t.w.:.w.7.4.5.0.6.*.4.>.9.*.7.7.7.r.3.6.5.1.4.{ 4.",
"9.9.7.=.:.7.9.,.w.9.w.d.u.,.y.<.;.w.,.8.7.5.e.t.5.0.7.>.a.>.-.f.p.a.t.t.6.*.*.$.1.e.g.7.t.N.e.r.r.3.=.4.:.2.9.>.*.4.=.r.3.r. .*.",
"p.5.y.p.w.$.:.y.e.y.d.q.9.e.y.q.e.9.d.0.j.t.0.g.5.e.y.8.k.:.f.2.0.0.;.p.N.a.=.t.y.c.-.;.c.y.*.2.0.7.=.=.e.r.:.5.1.9.r.*.-.X.3.%.",
"e.9.r.y.w.:.;.-.-.e.w.y.z.q.t.z.9.,.3.p.3.e.j.5.t.y.0.7.8.5.2.=.2.:.5.f.=.f.h.$.p.w.S.e.g.t.5.b.f.*.=.X.9.=.3.=.2.4.2.+.0.2.3.*.",
"7.7.9.3.w.:.7.8.3.:.q.w.y.y.q.e.>.e.>.2.2.6.h.0.5.k.-.>.f.j.k.>.0.r...h.t.e.y.r.x.e.z.7.;.w.0.9.r.2.5.9.1.1.=.3.3.6.5.>.2.3.1.X."
};
